<?xml version="1.0" encoding="utf-8" standalone="no"?>
<!DOCTYPE svg PUBLIC "-//W3C//DTD SVG 1.1//EN"
  "http://www.w3.org/Graphics/SVG/1.1/DTD/svg11.dtd">
<!-- Created with matplotlib (https://matplotlib.org/) -->
<svg height="432pt" version="1.1" viewBox="0 0 432 432" width="432pt" xmlns="http://www.w3.org/2000/svg" xmlns:xlink="http://www.w3.org/1999/xlink">
 <metadata>
  <rdf:RDF xmlns:cc="http://creativecommons.org/ns#" xmlns:dc="http://purl.org/dc/elements/1.1/" xmlns:rdf="http://www.w3.org/1999/02/22-rdf-syntax-ns#">
   <cc:Work>
    <dc:type rdf:resource="http://purl.org/dc/dcmitype/StillImage"/>
    <dc:date>2022-06-27T13:53:07.759194</dc:date>
    <dc:format>image/svg+xml</dc:format>
    <dc:creator>
     <cc:Agent>
      <dc:title>Matplotlib v3.3.4, https://matplotlib.org/</dc:title>
     </cc:Agent>
    </dc:creator>
   </cc:Work>
  </rdf:RDF>
 </metadata>
 <defs>
  <style type="text/css">*{stroke-linecap:butt;stroke-linejoin:round;}</style>
 </defs>
 <g id="figure_1">
  <g id="patch_1">
   <path d="M 0 432 
L 432 432 
L 432 0 
L 0 0 
z
" style="fill:none;"/>
  </g>
  <g id="patch_2">
   <path d="M 58.32 378 
L 384.48 378 
L 384.48 51.84 
L 58.32 51.84 
z
" style="fill:#ffffff;"/>
  </g>
  <g id="axes_1">
   <g id="line2d_1">
    <path clip-path="url(#pfe274e327f)" d="M 335.910392 193.236287 
L 331.244239 190.544128 
L 325.611664 187.164583 
L 319.979089 183.785038 
L 315.650726 183.338674 
L 310.01815 179.959129 
L 304.071258 177.358788 
L 301.699214 181.312196 
L 299.327169 185.265604 
L 296.955124 189.219012 
L 294.583079 193.17242 
L 292.211035 197.125828 
L 288.849094 197.36685 
L 284.520731 196.920486 
L 280.844474 197.940713 
L 277.168217 198.96094 
L 273.82975 202.226961 
L 274.659553 205.950824 
L 275.489356 209.674687 
L 275.77954 214.042572 
L 275.548039 217.237185 
L 277.439146 221.490298 
L 277.207645 224.684911 
L 278.037448 228.408774 
L 280.468176 232.017864 
L 282.898903 235.626954 
L 279.874752 238.113772 
L 277.164918 239.821385 
L 274.140767 242.308202 
L 271.116616 244.795019 
L 267.126042 246.59445 
L 264.101892 249.081268 
L 261.077741 251.568085 
L 257.401484 252.588312 
L 254.691649 254.295925 
L 250.701076 256.095356 
L 247.024819 257.115583 
L 243.348562 258.135809 
L 239.986621 258.376832 
L 235.343942 258.709672 
L 231.982001 258.950695 
L 227.653638 258.504331 
L 223.325275 258.057967 
L 218.996912 257.611603 
L 214.668549 257.165239 
L 209.68808 255.252284 
L 204.707611 253.33933 
L 200.675959 249.845012 
L 195.043384 246.465467 
L 192.073037 243.500399 
L 188.581006 239.362059 
L 186.150278 235.752969 
L 184.780855 232.673128 
L 183.951052 228.949265 
L 183.121249 225.225403 
L 181.230141 220.97229 
L 179.860718 217.892449 
L 177.969611 213.639337 
L 177.139807 209.915474 
L 175.770385 206.835633 
L 175.480201 202.467748 
L 175.711702 199.273135 
L 174.881899 195.549272 
L 175.65302 191.710637 
L 175.362836 187.342752 
L 176.133957 183.504116 
L 177.966382 180.194731 
L 178.737503 176.356095 
L 181.109548 172.402687 
L 183.481592 168.449279 
L 186.191427 166.741666 
L 189.215578 164.254849 
L 193.206151 162.455418 
L 196.230302 159.968601 
L 198.940136 158.260988 
L 202.93071 156.461557 
L 205.302755 152.508149 
L 208.326906 150.021331 
L 211.351056 147.534514 
L 215.027313 146.514287 
L 218.70357 145.49406 
L 222.379827 144.473834 
L 226.056084 143.453607 
L 229.418025 143.212585 
L 234.060704 142.879744 
L 238.074751 144.105312 
L 243.369537 145.239063 
L 247.383583 146.464631 
L 252.364052 148.377585 
L 257.996628 151.757131 
L 263.629203 155.136676 
L 268.923989 156.270426 
L 273.252352 156.71679 
L 277.580715 157.163154 
L 280.942655 156.922132 
L 285.585335 156.589291 
L 288.947275 156.348269 
L 293.275638 156.794633 
L 297.604002 157.240997 
L 301.932365 157.68736 
L 306.912834 159.600315 
L 312.859726 162.200656 
L 317.525878 164.892815 
L 323.158454 168.27236 
L 327.190105 171.766678 
L 330.160452 174.731745 
L 332.051559 178.984858 
L 333.420982 182.064699 
L 334.250785 185.788561 
L 334.540969 190.156447 
L 335.910392 193.236287 
" style="fill:none;stroke:#808080;stroke-linecap:square;stroke-width:1.5;"/>
   </g>
   <g id="line2d_2">
    <path clip-path="url(#pfe274e327f)" d="M 339.585648 194.386531 
L 334.86043 191.660295 
L 329.156556 188.23797 
L 323.452683 184.815646 
L 318.40917 182.878477 
L 313.365657 180.941308 
L 307.661783 177.518984 
L 303.620696 179.341192 
L 301.218625 183.344643 
L 298.816554 187.348094 
L 296.414484 191.351546 
L 294.012413 195.354997 
L 291.268277 197.084225 
L 286.885125 196.632211 
L 282.183677 196.969264 
L 279.439541 198.698493 
L 275.398454 200.520701 
L 275.692311 204.943877 
L 275.457879 208.178928 
L 276.298186 211.949928 
L 276.592043 216.373103 
L 277.43235 220.144103 
L 278.819107 223.262929 
L 278.038226 227.150155 
L 279.953271 231.457104 
L 282.414767 235.111879 
L 281.519975 236.861775 
L 277.797183 237.894916 
L 275.395112 241.898367 
L 272.993042 245.901819 
L 269.930611 248.420115 
L 266.868179 250.938411 
L 264.466109 254.941862 
L 261.403677 257.460158 
L 259.319902 260.674541 
L 256.257471 263.192837 
L 252.216384 265.015046 
L 249.472247 266.744274 
L 245.749456 267.777415 
L 242.026664 268.810556 
L 237.325216 269.14761 
L 233.920719 269.391683 
L 229.537567 268.939669 
L 225.154414 268.487655 
L 220.771262 268.035641 
L 215.727749 266.098472 
L 210.684236 264.161302 
L 204.980362 260.738978 
L 199.936849 258.801809 
L 194.232975 255.379485 
L 190.15029 251.840935 
L 185.521155 248.95456 
L 181.984921 244.763836 
L 179.523425 241.109061 
L 177.061929 237.454286 
L 175.675171 234.33546 
L 175.381315 229.912285 
L 175.615746 226.677234 
L 176.396628 222.790009 
L 175.556321 219.019008 
L 175.262464 214.595833 
L 173.875707 211.477008 
L 173.0354 207.706007 
L 172.195093 203.935007 
L 171.354785 200.164007 
L 170.514478 196.393006 
L 170.220621 191.969831 
L 170.455053 188.73478 
L 170.161196 184.311605 
L 170.395628 181.076554 
L 172.797698 177.073103 
L 173.57858 173.185877 
L 175.980651 169.182426 
L 178.064426 165.968043 
L 181.445153 162.660679 
L 184.189289 160.931451 
L 188.230376 159.109242 
L 191.292807 156.590946 
L 194.036943 154.861718 
L 198.07803 153.039509 
L 201.140462 150.521213 
L 204.202893 148.002917 
L 207.265324 145.484621 
L 210.327756 142.966325 
L 213.390187 140.448029 
L 216.452618 137.929733 
L 219.196754 136.200504 
L 222.919546 135.167363 
L 226.642338 134.134222 
L 231.343786 133.797169 
L 234.748282 133.553095 
L 239.44973 133.216042 
L 242.854227 132.971969 
L 248.216035 134.12007 
L 252.280892 135.361152 
L 257.324405 137.298321 
L 263.028279 140.720645 
L 267.110964 144.259195 
L 271.193649 147.797744 
L 276.237162 149.734914 
L 281.280675 151.672083 
L 286.642483 152.820184 
L 290.70734 154.061266 
L 295.090493 154.51328 
L 300.452301 155.661382 
L 304.517159 156.902463 
L 308.900311 157.354477 
L 313.943824 159.291647 
L 319.647698 162.713971 
L 323.730383 166.25252 
L 327.813067 169.79107 
L 330.274563 173.445845 
L 332.736059 177.10062 
L 335.197555 180.755395 
L 336.584313 183.874221 
L 337.42462 187.645221 
L 339.339665 191.952171 
L 339.585648 194.386531 
" style="fill:none;stroke:#808080;stroke-linecap:square;stroke-width:1.5;"/>
   </g>
   <g id="line2d_3">
    <path clip-path="url(#pfe274e327f)" d="M 338.733541 192.793309 
L 333.947744 190.03212 
L 328.170743 186.56592 
L 322.393743 183.09972 
L 317.954396 182.641911 
L 312.177396 179.175711 
L 306.07802 176.508694 
L 303.645153 180.563472 
L 301.212287 184.618249 
L 298.77942 188.673027 
L 296.346554 192.727804 
L 293.913688 196.782581 
L 290.465544 197.029784 
L 286.026197 196.571975 
L 282.255677 197.618361 
L 278.485157 198.664748 
L 275.061088 202.014513 
L 275.912168 205.83386 
L 276.763248 209.653206 
L 277.060872 214.133089 
L 276.823435 217.409615 
L 278.763033 221.771782 
L 278.525596 225.048308 
L 279.376676 228.867654 
L 281.86973 232.569285 
L 284.362783 236.270917 
L 283.225439 237.904599 
L 279.454919 238.950985 
L 276.03085 242.300751 
L 273.597984 246.355529 
L 271.165117 250.410306 
L 269.820768 255.007904 
L 267.941358 258.402145 
L 265.508491 262.456923 
L 263.075625 266.5117 
L 260.642758 270.566478 
L 257.541065 273.117059 
L 254.439372 275.667641 
L 250.668852 276.714028 
L 247.220708 276.96123 
L 242.458985 277.302605 
L 239.010841 277.549807 
L 235.240321 278.596194 
L 231.469801 279.64258 
L 227.030455 279.184771 
L 221.922281 277.222766 
L 216.814108 275.260762 
L 211.037107 271.794561 
L 204.937731 269.127545 
L 200.151933 266.366357 
L 194.721384 265.203536 
L 190.604413 263.946543 
L 185.173864 262.783722 
L 180.388066 260.022534 
L 175.279893 258.060529 
L 170.59141 255.137149 
L 166.456383 251.553234 
L 162.874812 247.308782 
L 161.470276 244.149971 
L 162.261169 240.212909 
L 163.052062 236.275848 
L 163.842955 232.338786 
L 166.275821 228.284008 
L 167.066714 224.346946 
L 167.857607 220.409884 
L 168.648501 216.472822 
L 169.439394 212.53576 
L 169.141769 208.055878 
L 169.379206 204.779352 
L 168.528126 200.960005 
L 167.677046 197.140659 
L 166.825966 193.321312 
L 164.886368 188.959145 
L 164.035288 185.139799 
L 164.272725 181.863273 
L 163.975101 177.38339 
L 164.765994 173.446328 
L 166.645404 170.052087 
L 169.078271 165.997309 
L 172.179964 163.446728 
L 175.281657 160.896146 
L 178.060974 159.144748 
L 181.831494 158.098361 
L 185.92439 156.252791 
L 189.69491 155.206405 
L 192.796603 152.655823 
L 195.898297 150.105241 
L 198.331163 146.050464 
L 200.76403 141.995686 
L 203.865723 139.445104 
L 206.298589 135.390327 
L 209.400282 132.839745 
L 212.501976 130.289163 
L 216.272496 129.242777 
L 220.043016 128.19639 
L 223.813536 127.150004 
L 227.26168 126.902802 
L 232.023402 126.561427 
L 236.462749 127.019236 
L 240.902096 127.477045 
L 245.019067 128.734038 
L 250.449616 129.896859 
L 254.566587 131.153852 
L 259.67476 133.115857 
L 264.782934 135.077861 
L 270.559934 138.544061 
L 274.694961 142.127977 
L 278.829988 145.711893 
L 282.965015 149.295808 
L 288.742015 152.762008 
L 294.519016 156.228209 
L 299.627189 158.190213 
L 305.057739 159.353034 
L 309.174709 160.610027 
L 314.282883 162.572032 
L 320.059883 166.038232 
L 324.19491 169.622148 
L 327.24142 172.663243 
L 330.822991 176.907694 
L 333.316044 180.609325 
L 334.720581 183.768136 
L 337.213634 187.469767 
L 338.064714 191.289113 
L 338.733541 192.793309 
" style="fill:none;stroke:#808080;stroke-linecap:square;stroke-width:1.5;"/>
   </g>
   <g id="line2d_4">
    <path clip-path="url(#pfe274e327f)" d="M 328.49606 185.540759 
L 323.648109 182.743711 
L 319.151108 182.279956 
L 313.299082 178.76874 
L 307.120493 176.067087 
L 294.798183 196.604272 
L 291.305258 196.854685 
L 286.808257 196.39093 
L 279.169281 198.510881 
L 275.700744 201.904151 
L 277.42501 209.642048 
L 277.7265 214.18011 
L 277.485979 217.499189 
L 279.450766 221.918007 
L 279.210246 225.237085 
L 280.072379 229.106034 
L 285.123241 236.605442 
L 283.644563 239.069904 
L 277.360613 244.237317 
L 275.998805 248.894624 
L 274.094987 252.332947 
L 272.492658 260.309332 
L 262.63481 276.739079 
L 259.492835 279.322786 
L 256.677422 281.096929 
L 243.537371 282.038958 
L 239.717883 283.098934 
L 236.902471 284.873077 
L 232.75642 286.742616 
L 229.614445 289.326322 
L 225.117445 288.862568 
L 220.269494 286.06552 
L 214.417468 282.554304 
L 210.228739 278.923844 
L 204.376713 275.412628 
L 199.202199 273.425143 
L 193.701123 272.247221 
L 175.713121 270.392202 
L 171.542683 269.118884 
L 166.368169 267.131399 
L 160.516143 263.620183 
L 156.327415 259.989723 
L 151.276553 252.490315 
L 147.888989 244.871662 
L 147.026855 241.002714 
L 147.267376 237.683635 
L 146.965887 233.145573 
L 148.869705 229.70725 
L 158.29563 221.956131 
L 160.760092 217.848694 
L 163.96475 201.895924 
L 163.66326 197.357861 
L 162.801127 193.488912 
L 161.37835 190.289078 
L 157.067684 170.944336 
L 158.670013 162.967951 
L 164.953962 157.800538 
L 167.769375 156.026395 
L 179.227838 152.846468 
L 184.051401 152.500659 
L 187.870889 151.440684 
L 189.91021 148.307107 
L 190.711374 144.318915 
L 192.615193 140.880592 
L 195.079655 136.773155 
L 207.647555 126.43833 
L 210.462967 124.664186 
L 218.101943 122.544235 
L 240.586946 124.863008 
L 245.761459 126.850494 
L 250.25846 127.314248 
L 270.956513 135.264189 
L 275.705886 138.225535 
L 279.333971 142.525109 
L 282.420045 145.605699 
L 287.470907 153.105108 
L 291.098992 157.404682 
L 295.287721 161.035142 
L 300.037093 163.996488 
L 305.328475 168.176818 
L 310.502989 170.164303 
L 322.207041 177.186734 
L 325.293116 180.267324 
L 327.818547 184.017028 
L 328.49606 185.540759 
L 328.49606 185.540759 
" style="fill:none;stroke:#808080;stroke-linecap:square;stroke-width:1.5;"/>
   </g>
   <g id="line2d_5">
    <path clip-path="url(#pfe274e327f)" d="M 277.663107 261.434411 
L 270.17244 273.918857 
L 260.622489 281.771965 
L 257.770032 283.569452 
L 253.900288 284.643375 
L 249.013257 284.993733 
L 241.273768 287.141579 
L 238.421311 288.939066 
L 234.551567 290.012989 
L 230.350963 291.907127 
L 222.611475 294.054973 
L 219.07259 294.30868 
L 213.829991 292.295044 
L 209.586148 288.616815 
L 206.459467 285.495691 
L 202.783644 281.139543 
L 198.5398 277.461314 
L 192.610774 273.903898 
L 188.054602 273.434041 
L 184.184858 274.507964 
L 179.984254 276.402102 
L 176.11451 277.476025 
L 172.575625 277.729733 
L 167.333026 275.716096 
L 155.474973 268.601264 
L 151.23113 264.923035 
L 146.113809 257.32495 
L 144.672311 254.083013 
L 140.304926 234.483735 
L 141.116632 230.443066 
L 143.613521 226.281584 
L 146.796838 223.663882 
L 150.666582 222.589959 
L 153.849899 219.972256 
L 156.346788 215.810774 
L 157.158494 211.770105 
L 156.853038 207.172331 
L 157.664744 203.131663 
L 159.593612 199.648099 
L 159.288156 195.050325 
L 158.414679 191.130469 
L 156.973181 187.888532 
L 153.479273 172.20911 
L 151.488633 167.732149 
L 150.615156 163.812293 
L 151.426862 159.771624 
L 154.042158 157.83184 
L 157.225475 155.214138 
L 160.077932 153.41665 
L 164.278536 151.522512 
L 172.018024 149.374667 
L 175.556909 149.120959 
L 180.11308 149.590816 
L 185.000112 149.240457 
L 186.498245 146.743568 
L 188.933363 134.621562 
L 192.11668 132.003859 
L 194.28271 128.662592 
L 197.466026 126.04489 
L 201.66663 124.150752 
L 204.519087 122.353264 
L 216.12832 119.131496 
L 220.684492 119.601352 
L 225.571523 119.250994 
L 229.796835 120.541066 
L 234.353007 121.010923 
L 239.595606 123.024559 
L 245.169064 124.21798 
L 249.394377 125.508052 
L 270.364773 133.562598 
L 276.2938 137.120014 
L 280.537643 140.798243 
L 283.664324 143.919367 
L 286.222984 147.718409 
L 289.655122 155.437307 
L 290.528599 159.357163 
L 292.519239 163.834124 
L 295.13967 175.593691 
L 297.69833 179.392733 
L 300.825011 182.513857 
L 301.698488 186.433713 
L 296.70471 194.756677 
L 293.852252 196.554164 
L 289.296081 196.084307 
L 284.40905 196.434666 
L 281.556592 198.232153 
L 277.355989 200.126291 
L 277.661445 204.724065 
L 277.41776 208.086816 
L 278.291237 212.006671 
L 278.596693 216.604445 
L 279.47017 220.524301 
L 287.775943 239.204034 
L 280.285275 251.68848 
L 279.473569 255.729149 
L 276.97668 259.890631 
L 277.663107 261.434411 
L 277.663107 261.434411 
" style="fill:none;stroke:#808080;stroke-linecap:square;stroke-width:1.5;"/>
   </g>
   <g id="line2d_6">
    <path clip-path="url(#pfe274e327f)" d="M 286.134601 251.870222 
L 270.953515 277.172033 
L 268.063025 278.993487 
L 264.837264 281.646092 
L 260.580652 283.565485 
L 257.690162 285.386939 
L 253.43355 287.306332 
L 249.51221 288.394574 
L 246.62172 290.216028 
L 242.365108 292.135421 
L 238.443767 293.223663 
L 234.857697 293.480753 
L 227.015016 295.657237 
L 218.476754 296.269357 
L 213.859834 295.793236 
L 203.234833 291.712266 
L 198.358811 288.671951 
L 194.633977 284.257722 
L 190.333549 280.530449 
L 185.69785 277.634329 
L 182.11178 277.891419 
L 177.855168 279.810812 
L 174.269098 280.067903 
L 165.035257 279.11566 
L 159.722757 277.075175 
L 147.706596 269.865478 
L 143.406168 266.138206 
L 140.813392 262.28851 
L 137.645022 259.125771 
L 135.627841 254.589117 
L 134.742717 250.616997 
L 134.989652 247.20941 
L 134.680123 242.550332 
L 134.927057 239.142745 
L 134.617528 234.483667 
L 134.864463 231.07608 
L 135.686991 226.981536 
L 142.138513 221.676325 
L 146.059854 220.588084 
L 148.950344 218.76663 
L 152.511376 215.282873 
L 153.333905 211.188329 
L 152.448781 207.216209 
L 152.139252 202.557131 
L 152.386187 199.149544 
L 151.501063 195.177423 
L 151.191534 190.518346 
L 151.438469 187.110759 
L 147.012851 167.250157 
L 148.657909 159.061068 
L 151.18809 154.844099 
L 154.413851 152.191494 
L 157.304341 150.37004 
L 161.560953 148.450647 
L 169.403634 146.274163 
L 172.989704 146.017073 
L 177.246316 144.09768 
L 180.136806 142.276226 
L 183.697838 138.79247 
L 183.388308 134.133392 
L 184.210837 130.038847 
L 185.830153 127.339987 
L 189.055914 124.687382 
L 193.312526 122.767989 
L 201.155207 120.591506 
L 204.045697 118.770052 
L 215.80972 115.505326 
L 220.761911 115.150296 
L 225.043561 116.457569 
L 229.660482 116.933691 
L 256.222984 127.136115 
L 262.566335 129.909812 
L 267.543565 132.781448 
L 272.856065 134.821933 
L 278.864145 138.426781 
L 283.164573 142.154053 
L 285.757349 146.00375 
L 290.695966 157.110729 
L 292.466213 165.05497 
L 291.643684 169.149514 
L 291.953213 173.808592 
L 291.130685 177.903137 
L 290.88375 181.310724 
L 289.238692 189.499813 
L 290.123816 193.471933 
L 291.34421 196.612902 
L 286.72729 196.136781 
L 282.470678 198.056174 
L 279.244917 200.708779 
L 279.554446 205.367857 
L 281.324693 213.312097 
L 282.785411 216.59726 
L 283.670534 220.569381 
L 285.687716 225.106034 
L 287.457963 233.050275 
L 288.91868 236.335438 
L 286.451094 248.619071 
L 286.134601 251.870222 
L 286.134601 251.870222 
" style="fill:none;stroke:#808080;stroke-linecap:square;stroke-width:1.5;"/>
   </g>
   <g id="line2d_7">
    <path clip-path="url(#pfe274e327f)" d="M 290.090519 255.47604 
L 282.397401 268.297903 
L 272.589344 276.363257 
L 270.024972 280.637211 
L 266.755619 283.325662 
L 263.826069 285.171731 
L 259.511935 287.117061 
L 256.242583 289.805513 
L 252.268251 290.90846 
L 249.3387 292.754529 
L 241.390036 294.960424 
L 236.370923 295.320252 
L 224.447928 298.629095 
L 220.813398 298.88966 
L 206.775463 297.441993 
L 196.006881 293.305875 
L 189.577809 290.494696 
L 184.53332 287.584254 
L 178.809227 286.358578 
L 174.469717 285.033639 
L 169.790406 284.551084 
L 153.637533 278.346907 
L 141.458991 271.039782 
L 137.10045 267.262141 
L 133.889264 264.056663 
L 131.844823 259.458703 
L 129.21701 255.556984 
L 126.525756 243.47959 
L 126.776028 240.025955 
L 130.110604 223.42645 
L 133.379956 220.737999 
L 141.32862 218.532104 
L 144.597972 215.843653 
L 146.014989 210.997536 
L 146.848633 206.84766 
L 147.098904 203.394024 
L 146.20182 199.368226 
L 145.888108 194.646188 
L 146.138379 191.192553 
L 144.34421 183.140957 
L 146.011498 174.841205 
L 145.114414 170.815407 
L 144.800702 166.093369 
L 145.050973 162.639734 
L 145.884617 158.489858 
L 148.109188 155.058286 
L 151.718342 151.527452 
L 154.987695 148.839001 
L 158.962027 147.736053 
L 161.891577 145.889985 
L 166.91069 145.530157 
L 170.885022 144.427209 
L 174.154374 141.738758 
L 175.571391 136.892642 
L 175.821663 133.439006 
L 178.386035 129.165051 
L 180.610606 125.73348 
L 184.92474 123.788149 
L 192.873404 121.582253 
L 195.802954 119.736185 
L 199.777286 118.633238 
L 204.09142 116.687907 
L 208.065752 115.584959 
L 210.995302 113.738891 
L 215.309436 111.79356 
L 218.943966 111.532995 
L 223.623277 112.015551 
L 229.007568 114.08361 
L 241.18611 121.390734 
L 257.338983 127.594911 
L 263.768055 130.406091 
L 268.812544 133.316533 
L 279.843729 140.051495 
L 283.618899 144.525377 
L 286.830084 147.730855 
L 288.874525 152.328815 
L 291.502338 156.230534 
L 292.982795 159.560091 
L 293.87988 163.585889 
L 294.193592 168.307927 
L 293.943321 171.761563 
L 291.442388 184.211191 
L 290.025372 189.057308 
L 289.191728 193.207184 
L 287.210728 196.784898 
L 286.377083 200.934774 
L 287.274168 204.960572 
L 287.58788 209.68261 
L 291.176218 225.785801 
L 292.656676 229.115358 
L 291.823031 233.265234 
L 292.136744 237.987272 
L 291.886472 241.440908 
L 289.38554 253.890536 
L 290.090519 255.47604 
L 290.090519 255.47604 
" style="fill:none;stroke:#808080;stroke-linecap:square;stroke-width:1.5;"/>
   </g>
   <g id="Path3DCollection_1">
    <defs>
     <path d="M 0 5 
C 1.326016 5 2.597899 4.473168 3.535534 3.535534 
C 4.473168 2.597899 5 1.326016 5 -0 
C 5 -1.326016 4.473168 -2.597899 3.535534 -3.535534 
C 2.597899 -4.473168 1.326016 -5 0 -5 
C -1.326016 -5 -2.597899 -4.473168 -3.535534 -3.535534 
C -4.473168 -2.597899 -5 -1.326016 -5 0 
C -5 1.326016 -4.473168 2.597899 -3.535534 3.535534 
C -2.597899 4.473168 -1.326016 5 0 5 
z
" id="C0_0_7cf571851c"/>
    </defs>
    <g clip-path="url(#pfe274e327f)">
     <use style="fill:#ff0000;fill-opacity:0.3;stroke:#ff0000;stroke-opacity:0.3;" x="274.041037" xlink:href="#C0_0_7cf571851c" y="173.255269"/>
    </g>
    <g clip-path="url(#pfe274e327f)">
     <use style="fill:#ff0000;fill-opacity:0.468354;stroke:#ff0000;stroke-opacity:0.468354;" x="277.381712" xlink:href="#C0_0_7cf571851c" y="153.561065"/>
    </g>
    <g clip-path="url(#pfe274e327f)">
     <use style="fill:#ff0000;fill-opacity:0.641026;stroke:#ff0000;stroke-opacity:0.641026;" x="283.145259" xlink:href="#C0_0_7cf571851c" y="188.343876"/>
    </g>
    <g clip-path="url(#pfe274e327f)">
     <use style="fill:#ff0000;fill-opacity:0.641026;stroke:#ff0000;stroke-opacity:0.641026;" x="275.596108" xlink:href="#C0_0_7cf571851c" y="228.705429"/>
    </g>
    <g clip-path="url(#pfe274e327f)">
     <use style="fill:#ff0000;stroke:#ff0000;" x="269.679957" xlink:href="#C0_0_7cf571851c" y="196.546134"/>
    </g>
   </g>
   <g id="Path3DCollection_2">
    <defs>
     <path d="M 0 1.581139 
C 0.419323 1.581139 0.821528 1.41454 1.118034 1.118034 
C 1.41454 0.821528 1.581139 0.419323 1.581139 -0 
C 1.581139 -0.419323 1.41454 -0.821528 1.118034 -1.118034 
C 0.821528 -1.41454 0.419323 -1.581139 0 -1.581139 
C -0.419323 -1.581139 -0.821528 -1.41454 -1.118034 -1.118034 
C -1.41454 -0.821528 -1.581139 -0.419323 -1.581139 0 
C -1.581139 0.419323 -1.41454 0.821528 -1.118034 1.118034 
C -0.821528 1.41454 -0.419323 1.581139 0 1.581139 
z
" id="C1_0_38daf0fa54"/>
    </defs>
    <g clip-path="url(#pfe274e327f)">
     <use style="fill:#808080;fill-opacity:0.3;stroke:#808080;stroke-opacity:0.3;" x="251.145055" xlink:href="#C1_0_38daf0fa54" y="196.375746"/>
    </g>
    <g clip-path="url(#pfe274e327f)">
     <use style="fill:#808080;fill-opacity:0.3;stroke:#808080;stroke-opacity:0.3;" x="282.545419" xlink:href="#C1_0_38daf0fa54" y="194.759101"/>
    </g>
    <g clip-path="url(#pfe274e327f)">
     <use style="fill:#808080;fill-opacity:0.3;stroke:#808080;stroke-opacity:0.3;" x="309.034823" xlink:href="#C1_0_38daf0fa54" y="163.0493"/>
    </g>
    <g clip-path="url(#pfe274e327f)">
     <use style="fill:#808080;fill-opacity:0.409283;stroke:#808080;stroke-opacity:0.409283;" x="178.625347" xlink:href="#C1_0_38daf0fa54" y="191.526496"/>
    </g>
    <g clip-path="url(#pfe274e327f)">
     <use style="fill:#808080;fill-opacity:0.521368;stroke:#808080;stroke-opacity:0.521368;" x="211.664168" xlink:href="#C1_0_38daf0fa54" y="201.941887"/>
    </g>
    <g clip-path="url(#pfe274e327f)">
     <use style="fill:#808080;fill-opacity:0.521368;stroke:#808080;stroke-opacity:0.521368;" x="216.684542" xlink:href="#C1_0_38daf0fa54" y="173.980849"/>
    </g>
    <g clip-path="url(#pfe274e327f)">
     <use style="fill:#808080;fill-opacity:0.521368;stroke:#808080;stroke-opacity:0.521368;" x="264.903773" xlink:href="#C1_0_38daf0fa54" y="248.575462"/>
    </g>
    <g clip-path="url(#pfe274e327f)">
     <use style="fill:#808080;fill-opacity:0.521368;stroke:#808080;stroke-opacity:0.521368;" x="276.417607" xlink:href="#C1_0_38daf0fa54" y="160.806419"/>
    </g>
    <g clip-path="url(#pfe274e327f)">
     <use style="fill:#808080;fill-opacity:0.521368;stroke:#808080;stroke-opacity:0.521368;" x="206.719663" xlink:href="#C1_0_38daf0fa54" y="205.125114"/>
    </g>
    <g clip-path="url(#pfe274e327f)">
     <use style="fill:#808080;fill-opacity:0.521368;stroke:#808080;stroke-opacity:0.521368;" x="186.137141" xlink:href="#C1_0_38daf0fa54" y="195.52779"/>
    </g>
    <g clip-path="url(#pfe274e327f)">
     <use style="fill:#808080;fill-opacity:0.636364;stroke:#808080;stroke-opacity:0.636364;" x="256.357339" xlink:href="#C1_0_38daf0fa54" y="272.45958"/>
    </g>
    <g clip-path="url(#pfe274e327f)">
     <use style="fill:#808080;fill-opacity:0.636364;stroke:#808080;stroke-opacity:0.636364;" x="229.531175" xlink:href="#C1_0_38daf0fa54" y="215.48275"/>
    </g>
    <g clip-path="url(#pfe274e327f)">
     <use style="fill:#808080;fill-opacity:0.636364;stroke:#808080;stroke-opacity:0.636364;" x="206.278791" xlink:href="#C1_0_38daf0fa54" y="266.308721"/>
    </g>
    <g clip-path="url(#pfe274e327f)">
     <use style="fill:#808080;fill-opacity:0.636364;stroke:#808080;stroke-opacity:0.636364;" x="211.325867" xlink:href="#C1_0_38daf0fa54" y="266.09907"/>
    </g>
    <g clip-path="url(#pfe274e327f)">
     <use style="fill:#808080;fill-opacity:0.636364;stroke:#808080;stroke-opacity:0.636364;" x="215.154118" xlink:href="#C1_0_38daf0fa54" y="260.108072"/>
    </g>
    <g clip-path="url(#pfe274e327f)">
     <use style="fill:#808080;fill-opacity:0.636364;stroke:#808080;stroke-opacity:0.636364;" x="215.904809" xlink:href="#C1_0_38daf0fa54" y="269.468595"/>
    </g>
    <g clip-path="url(#pfe274e327f)">
     <use style="fill:#808080;fill-opacity:0.636364;stroke:#808080;stroke-opacity:0.636364;" x="271.9483" xlink:href="#C1_0_38daf0fa54" y="195.183262"/>
    </g>
    <g clip-path="url(#pfe274e327f)">
     <use style="fill:#808080;fill-opacity:0.636364;stroke:#808080;stroke-opacity:0.636364;" x="248.072591" xlink:href="#C1_0_38daf0fa54" y="269.118442"/>
    </g>
    <g clip-path="url(#pfe274e327f)">
     <use style="fill:#808080;fill-opacity:0.636364;stroke:#808080;stroke-opacity:0.636364;" x="249.719197" xlink:href="#C1_0_38daf0fa54" y="280.444304"/>
    </g>
    <g clip-path="url(#pfe274e327f)">
     <use style="fill:#808080;fill-opacity:0.636364;stroke:#808080;stroke-opacity:0.636364;" x="273.615477" xlink:href="#C1_0_38daf0fa54" y="158.218491"/>
    </g>
    <g clip-path="url(#pfe274e327f)">
     <use style="fill:#808080;fill-opacity:0.636364;stroke:#808080;stroke-opacity:0.636364;" x="218.166305" xlink:href="#C1_0_38daf0fa54" y="132.559427"/>
    </g>
    <g clip-path="url(#pfe274e327f)">
     <use style="fill:#808080;fill-opacity:0.636364;stroke:#808080;stroke-opacity:0.636364;" x="230.751702" xlink:href="#C1_0_38daf0fa54" y="138.607027"/>
    </g>
    <g clip-path="url(#pfe274e327f)">
     <use style="fill:#808080;fill-opacity:0.636364;stroke:#808080;stroke-opacity:0.636364;" x="253.52327" xlink:href="#C1_0_38daf0fa54" y="146.216466"/>
    </g>
    <g clip-path="url(#pfe274e327f)">
     <use style="fill:#808080;fill-opacity:0.636364;stroke:#808080;stroke-opacity:0.636364;" x="260.325588" xlink:href="#C1_0_38daf0fa54" y="161.396286"/>
    </g>
    <g clip-path="url(#pfe274e327f)">
     <use style="fill:#808080;fill-opacity:0.636364;stroke:#808080;stroke-opacity:0.636364;" x="199.086097" xlink:href="#C1_0_38daf0fa54" y="258.314469"/>
    </g>
    <g clip-path="url(#pfe274e327f)">
     <use style="fill:#808080;fill-opacity:0.636364;stroke:#808080;stroke-opacity:0.636364;" x="225.92646" xlink:href="#C1_0_38daf0fa54" y="150.640645"/>
    </g>
    <g clip-path="url(#pfe274e327f)">
     <use style="fill:#808080;fill-opacity:0.636364;stroke:#808080;stroke-opacity:0.636364;" x="226.710406" xlink:href="#C1_0_38daf0fa54" y="152.717148"/>
    </g>
    <g clip-path="url(#pfe274e327f)">
     <use style="fill:#808080;fill-opacity:0.636364;stroke:#808080;stroke-opacity:0.636364;" x="242.668441" xlink:href="#C1_0_38daf0fa54" y="142.658571"/>
    </g>
    <g clip-path="url(#pfe274e327f)">
     <use style="fill:#808080;fill-opacity:0.636364;stroke:#808080;stroke-opacity:0.636364;" x="219.906277" xlink:href="#C1_0_38daf0fa54" y="130.574609"/>
    </g>
    <g clip-path="url(#pfe274e327f)">
     <use style="fill:#808080;fill-opacity:0.636364;stroke:#808080;stroke-opacity:0.636364;" x="245.249904" xlink:href="#C1_0_38daf0fa54" y="188.102008"/>
    </g>
    <g clip-path="url(#pfe274e327f)">
     <use style="fill:#808080;fill-opacity:0.636364;stroke:#808080;stroke-opacity:0.636364;" x="259.419773" xlink:href="#C1_0_38daf0fa54" y="142.059879"/>
    </g>
    <g clip-path="url(#pfe274e327f)">
     <use style="fill:#808080;fill-opacity:0.636364;stroke:#808080;stroke-opacity:0.636364;" x="221.283164" xlink:href="#C1_0_38daf0fa54" y="217.741568"/>
    </g>
    <g clip-path="url(#pfe274e327f)">
     <use style="fill:#808080;fill-opacity:0.636364;stroke:#808080;stroke-opacity:0.636364;" x="182.947432" xlink:href="#C1_0_38daf0fa54" y="210.307451"/>
    </g>
    <g clip-path="url(#pfe274e327f)">
     <use style="fill:#808080;fill-opacity:0.636364;stroke:#808080;stroke-opacity:0.636364;" x="222.628491" xlink:href="#C1_0_38daf0fa54" y="214.915228"/>
    </g>
    <g clip-path="url(#pfe274e327f)">
     <use style="fill:#808080;fill-opacity:0.636364;stroke:#808080;stroke-opacity:0.636364;" x="164.055421" xlink:href="#C1_0_38daf0fa54" y="184.94136"/>
    </g>
    <g clip-path="url(#pfe274e327f)">
     <use style="fill:#808080;fill-opacity:0.636364;stroke:#808080;stroke-opacity:0.636364;" x="197.983537" xlink:href="#C1_0_38daf0fa54" y="148.121019"/>
    </g>
    <g clip-path="url(#pfe274e327f)">
     <use style="fill:#808080;fill-opacity:0.636364;stroke:#808080;stroke-opacity:0.636364;" x="162.445389" xlink:href="#C1_0_38daf0fa54" y="217.622198"/>
    </g>
    <g clip-path="url(#pfe274e327f)">
     <use style="fill:#808080;fill-opacity:0.636364;stroke:#808080;stroke-opacity:0.636364;" x="205.4778" xlink:href="#C1_0_38daf0fa54" y="153.363759"/>
    </g>
    <g clip-path="url(#pfe274e327f)">
     <use style="fill:#808080;fill-opacity:0.636364;stroke:#808080;stroke-opacity:0.636364;" x="195.388315" xlink:href="#C1_0_38daf0fa54" y="185.571363"/>
    </g>
    <g clip-path="url(#pfe274e327f)">
     <use style="fill:#808080;fill-opacity:0.636364;stroke:#808080;stroke-opacity:0.636364;" x="215.237033" xlink:href="#C1_0_38daf0fa54" y="152.952602"/>
    </g>
    <g clip-path="url(#pfe274e327f)">
     <use style="fill:#808080;fill-opacity:0.636364;stroke:#808080;stroke-opacity:0.636364;" x="206.922121" xlink:href="#C1_0_38daf0fa54" y="169.020743"/>
    </g>
    <g clip-path="url(#pfe274e327f)">
     <use style="fill:#808080;fill-opacity:0.636364;stroke:#808080;stroke-opacity:0.636364;" x="183.585746" xlink:href="#C1_0_38daf0fa54" y="193.340686"/>
    </g>
    <g clip-path="url(#pfe274e327f)">
     <use style="fill:#808080;fill-opacity:0.636364;stroke:#808080;stroke-opacity:0.636364;" x="189.033635" xlink:href="#C1_0_38daf0fa54" y="200.178383"/>
    </g>
    <g clip-path="url(#pfe274e327f)">
     <use style="fill:#808080;fill-opacity:0.636364;stroke:#808080;stroke-opacity:0.636364;" x="216.501649" xlink:href="#C1_0_38daf0fa54" y="173.292495"/>
    </g>
    <g clip-path="url(#pfe274e327f)">
     <use style="fill:#808080;fill-opacity:0.636364;stroke:#808080;stroke-opacity:0.636364;" x="206.729496" xlink:href="#C1_0_38daf0fa54" y="193.013607"/>
    </g>
    <g clip-path="url(#pfe274e327f)">
     <use style="fill:#808080;fill-opacity:0.636364;stroke:#808080;stroke-opacity:0.636364;" x="214.29171" xlink:href="#C1_0_38daf0fa54" y="184.050988"/>
    </g>
    <g clip-path="url(#pfe274e327f)">
     <use style="fill:#808080;fill-opacity:0.636364;stroke:#808080;stroke-opacity:0.636364;" x="219.627277" xlink:href="#C1_0_38daf0fa54" y="186.979685"/>
    </g>
    <g clip-path="url(#pfe274e327f)">
     <use style="fill:#808080;fill-opacity:0.636364;stroke:#808080;stroke-opacity:0.636364;" x="223.727819" xlink:href="#C1_0_38daf0fa54" y="205.552619"/>
    </g>
    <g clip-path="url(#pfe274e327f)">
     <use style="fill:#808080;fill-opacity:0.636364;stroke:#808080;stroke-opacity:0.636364;" x="231.544362" xlink:href="#C1_0_38daf0fa54" y="183.2447"/>
    </g>
    <g clip-path="url(#pfe274e327f)">
     <use style="fill:#808080;fill-opacity:0.636364;stroke:#808080;stroke-opacity:0.636364;" x="209.190277" xlink:href="#C1_0_38daf0fa54" y="179.203597"/>
    </g>
    <g clip-path="url(#pfe274e327f)">
     <use style="fill:#808080;fill-opacity:0.754386;stroke:#808080;stroke-opacity:0.754386;" x="234.583095" xlink:href="#C1_0_38daf0fa54" y="150.69163"/>
    </g>
    <g clip-path="url(#pfe274e327f)">
     <use style="fill:#808080;fill-opacity:0.754386;stroke:#808080;stroke-opacity:0.754386;" x="257.433954" xlink:href="#C1_0_38daf0fa54" y="140.63176"/>
    </g>
    <g clip-path="url(#pfe274e327f)">
     <use style="fill:#808080;fill-opacity:0.754386;stroke:#808080;stroke-opacity:0.754386;" x="204.576499" xlink:href="#C1_0_38daf0fa54" y="212.750986"/>
    </g>
    <g clip-path="url(#pfe274e327f)">
     <use style="fill:#808080;fill-opacity:0.754386;stroke:#808080;stroke-opacity:0.754386;" x="238.020149" xlink:href="#C1_0_38daf0fa54" y="145.029786"/>
    </g>
    <g clip-path="url(#pfe274e327f)">
     <use style="fill:#808080;fill-opacity:0.754386;stroke:#808080;stroke-opacity:0.754386;" x="206.509281" xlink:href="#C1_0_38daf0fa54" y="192.707346"/>
    </g>
    <g clip-path="url(#pfe274e327f)">
     <use style="fill:#808080;fill-opacity:0.754386;stroke:#808080;stroke-opacity:0.754386;" x="211.519276" xlink:href="#C1_0_38daf0fa54" y="187.789881"/>
    </g>
    <g clip-path="url(#pfe274e327f)">
     <use style="fill:#808080;fill-opacity:0.754386;stroke:#808080;stroke-opacity:0.754386;" x="224.275917" xlink:href="#C1_0_38daf0fa54" y="165.120787"/>
    </g>
    <g clip-path="url(#pfe274e327f)">
     <use style="fill:#808080;fill-opacity:0.754386;stroke:#808080;stroke-opacity:0.754386;" x="215.562405" xlink:href="#C1_0_38daf0fa54" y="173.236911"/>
    </g>
    <g clip-path="url(#pfe274e327f)">
     <use style="fill:#808080;fill-opacity:0.754386;stroke:#808080;stroke-opacity:0.754386;" x="247.750965" xlink:href="#C1_0_38daf0fa54" y="167.920853"/>
    </g>
    <g clip-path="url(#pfe274e327f)">
     <use style="fill:#808080;fill-opacity:0.754386;stroke:#808080;stroke-opacity:0.754386;" x="259.880268" xlink:href="#C1_0_38daf0fa54" y="145.16301"/>
    </g>
    <g clip-path="url(#pfe274e327f)">
     <use style="fill:#808080;fill-opacity:0.754386;stroke:#808080;stroke-opacity:0.754386;" x="174.706427" xlink:href="#C1_0_38daf0fa54" y="254.76687"/>
    </g>
    <g clip-path="url(#pfe274e327f)">
     <use style="fill:#808080;fill-opacity:0.754386;stroke:#808080;stroke-opacity:0.754386;" x="264.067834" xlink:href="#C1_0_38daf0fa54" y="148.007858"/>
    </g>
    <g clip-path="url(#pfe274e327f)">
     <use style="fill:#808080;fill-opacity:0.754386;stroke:#808080;stroke-opacity:0.754386;" x="246.834386" xlink:href="#C1_0_38daf0fa54" y="177.285099"/>
    </g>
    <g clip-path="url(#pfe274e327f)">
     <use style="fill:#808080;fill-opacity:0.754386;stroke:#808080;stroke-opacity:0.754386;" x="246.793158" xlink:href="#C1_0_38daf0fa54" y="187.920171"/>
    </g>
    <g clip-path="url(#pfe274e327f)">
     <use style="fill:#808080;fill-opacity:0.754386;stroke:#808080;stroke-opacity:0.754386;" x="252.7908" xlink:href="#C1_0_38daf0fa54" y="182.757255"/>
    </g>
    <g clip-path="url(#pfe274e327f)">
     <use style="fill:#808080;fill-opacity:0.754386;stroke:#808080;stroke-opacity:0.754386;" x="157.795404" xlink:href="#C1_0_38daf0fa54" y="211.805908"/>
    </g>
    <g clip-path="url(#pfe274e327f)">
     <use style="fill:#808080;fill-opacity:0.754386;stroke:#808080;stroke-opacity:0.754386;" x="145.936657" xlink:href="#C1_0_38daf0fa54" y="238.810354"/>
    </g>
    <g clip-path="url(#pfe274e327f)">
     <use style="fill:#808080;fill-opacity:0.754386;stroke:#808080;stroke-opacity:0.754386;" x="157.916662" xlink:href="#C1_0_38daf0fa54" y="219.139586"/>
    </g>
    <g clip-path="url(#pfe274e327f)">
     <use style="fill:#808080;fill-opacity:0.754386;stroke:#808080;stroke-opacity:0.754386;" x="172.11267" xlink:href="#C1_0_38daf0fa54" y="251.628"/>
    </g>
    <g clip-path="url(#pfe274e327f)">
     <use style="fill:#808080;fill-opacity:0.754386;stroke:#808080;stroke-opacity:0.754386;" x="229.008826" xlink:href="#C1_0_38daf0fa54" y="148.177839"/>
    </g>
    <g clip-path="url(#pfe274e327f)">
     <use style="fill:#808080;fill-opacity:0.754386;stroke:#808080;stroke-opacity:0.754386;" x="204.389917" xlink:href="#C1_0_38daf0fa54" y="268.406502"/>
    </g>
    <g clip-path="url(#pfe274e327f)">
     <use style="fill:#808080;fill-opacity:0.754386;stroke:#808080;stroke-opacity:0.754386;" x="209.756372" xlink:href="#C1_0_38daf0fa54" y="265.429875"/>
    </g>
    <g clip-path="url(#pfe274e327f)">
     <use style="fill:#808080;fill-opacity:0.754386;stroke:#808080;stroke-opacity:0.754386;" x="203.479634" xlink:href="#C1_0_38daf0fa54" y="191.28625"/>
    </g>
    <g clip-path="url(#pfe274e327f)">
     <use style="fill:#808080;fill-opacity:0.754386;stroke:#808080;stroke-opacity:0.754386;" x="176.911122" xlink:href="#C1_0_38daf0fa54" y="193.094529"/>
    </g>
    <g clip-path="url(#pfe274e327f)">
     <use style="fill:#808080;fill-opacity:0.754386;stroke:#808080;stroke-opacity:0.754386;" x="226.526379" xlink:href="#C1_0_38daf0fa54" y="151.469448"/>
    </g>
    <g clip-path="url(#pfe274e327f)">
     <use style="fill:#808080;fill-opacity:0.754386;stroke:#808080;stroke-opacity:0.754386;" x="237.805932" xlink:href="#C1_0_38daf0fa54" y="130.919408"/>
    </g>
    <g clip-path="url(#pfe274e327f)">
     <use style="fill:#808080;fill-opacity:0.754386;stroke:#808080;stroke-opacity:0.754386;" x="221.059829" xlink:href="#C1_0_38daf0fa54" y="289.226104"/>
    </g>
    <g clip-path="url(#pfe274e327f)">
     <use style="fill:#808080;fill-opacity:0.754386;stroke:#808080;stroke-opacity:0.754386;" x="260.409035" xlink:href="#C1_0_38daf0fa54" y="188.825658"/>
    </g>
    <g clip-path="url(#pfe274e327f)">
     <use style="fill:#808080;fill-opacity:0.754386;stroke:#808080;stroke-opacity:0.754386;" x="283.727517" xlink:href="#C1_0_38daf0fa54" y="166.285745"/>
    </g>
    <g clip-path="url(#pfe274e327f)">
     <use style="fill:#808080;fill-opacity:0.754386;stroke:#808080;stroke-opacity:0.754386;" x="263.21775" xlink:href="#C1_0_38daf0fa54" y="219.586773"/>
    </g>
    <g clip-path="url(#pfe274e327f)">
     <use style="fill:#808080;fill-opacity:0.754386;stroke:#808080;stroke-opacity:0.754386;" x="163.378448" xlink:href="#C1_0_38daf0fa54" y="155.984192"/>
    </g>
    <g clip-path="url(#pfe274e327f)">
     <use style="fill:#808080;fill-opacity:0.754386;stroke:#808080;stroke-opacity:0.754386;" x="172.294821" xlink:href="#C1_0_38daf0fa54" y="165.757862"/>
    </g>
    <g clip-path="url(#pfe274e327f)">
     <use style="fill:#808080;fill-opacity:0.754386;stroke:#808080;stroke-opacity:0.754386;" x="170.041751" xlink:href="#C1_0_38daf0fa54" y="172.693982"/>
    </g>
    <g clip-path="url(#pfe274e327f)">
     <use style="fill:#808080;fill-opacity:0.754386;stroke:#808080;stroke-opacity:0.754386;" x="171.375411" xlink:href="#C1_0_38daf0fa54" y="181.814332"/>
    </g>
    <g clip-path="url(#pfe274e327f)">
     <use style="fill:#808080;fill-opacity:0.754386;stroke:#808080;stroke-opacity:0.754386;" x="205.319409" xlink:href="#C1_0_38daf0fa54" y="129.613034"/>
    </g>
    <g clip-path="url(#pfe274e327f)">
     <use style="fill:#808080;fill-opacity:0.754386;stroke:#808080;stroke-opacity:0.754386;" x="181.275821" xlink:href="#C1_0_38daf0fa54" y="173.633578"/>
    </g>
    <g clip-path="url(#pfe274e327f)">
     <use style="fill:#808080;fill-opacity:0.754386;stroke:#808080;stroke-opacity:0.754386;" x="197.365825" xlink:href="#C1_0_38daf0fa54" y="147.349539"/>
    </g>
    <g clip-path="url(#pfe274e327f)">
     <use style="fill:#808080;fill-opacity:0.754386;stroke:#808080;stroke-opacity:0.754386;" x="200.586845" xlink:href="#C1_0_38daf0fa54" y="142.992189"/>
    </g>
    <g clip-path="url(#pfe274e327f)">
     <use style="fill:#808080;fill-opacity:0.754386;stroke:#808080;stroke-opacity:0.754386;" x="178.07571" xlink:href="#C1_0_38daf0fa54" y="180.725281"/>
    </g>
    <g clip-path="url(#pfe274e327f)">
     <use style="fill:#808080;fill-opacity:0.754386;stroke:#808080;stroke-opacity:0.754386;" x="194.732315" xlink:href="#C1_0_38daf0fa54" y="155.733472"/>
    </g>
    <g clip-path="url(#pfe274e327f)">
     <use style="fill:#808080;fill-opacity:0.754386;stroke:#808080;stroke-opacity:0.754386;" x="213.549773" xlink:href="#C1_0_38daf0fa54" y="151.791793"/>
    </g>
    <g clip-path="url(#pfe274e327f)">
     <use style="fill:#808080;fill-opacity:0.754386;stroke:#808080;stroke-opacity:0.754386;" x="222.108956" xlink:href="#C1_0_38daf0fa54" y="138.160224"/>
    </g>
    <g clip-path="url(#pfe274e327f)">
     <use style="fill:#808080;fill-opacity:0.754386;stroke:#808080;stroke-opacity:0.754386;" x="217.916341" xlink:href="#C1_0_38daf0fa54" y="147.483117"/>
    </g>
    <g clip-path="url(#pfe274e327f)">
     <use style="fill:#808080;fill-opacity:0.754386;stroke:#808080;stroke-opacity:0.754386;" x="206.603516" xlink:href="#C1_0_38daf0fa54" y="167.373501"/>
    </g>
    <g clip-path="url(#pfe274e327f)">
     <use style="fill:#808080;fill-opacity:0.754386;stroke:#808080;stroke-opacity:0.754386;" x="228.539581" xlink:href="#C1_0_38daf0fa54" y="136.785791"/>
    </g>
    <g clip-path="url(#pfe274e327f)">
     <use style="fill:#808080;fill-opacity:0.754386;stroke:#808080;stroke-opacity:0.754386;" x="215.270046" xlink:href="#C1_0_38daf0fa54" y="165.283418"/>
    </g>
    <g clip-path="url(#pfe274e327f)">
     <use style="fill:#808080;fill-opacity:0.754386;stroke:#808080;stroke-opacity:0.754386;" x="224.266349" xlink:href="#C1_0_38daf0fa54" y="152.425045"/>
    </g>
    <g clip-path="url(#pfe274e327f)">
     <use style="fill:#808080;fill-opacity:0.754386;stroke:#808080;stroke-opacity:0.754386;" x="222.138955" xlink:href="#C1_0_38daf0fa54" y="277.924001"/>
    </g>
    <g clip-path="url(#pfe274e327f)">
     <use style="fill:#808080;fill-opacity:0.754386;stroke:#808080;stroke-opacity:0.754386;" x="230.697026" xlink:href="#C1_0_38daf0fa54" y="290.104806"/>
    </g>
    <g clip-path="url(#pfe274e327f)">
     <use style="fill:#808080;fill-opacity:0.754386;stroke:#808080;stroke-opacity:0.754386;" x="255.378262" xlink:href="#C1_0_38daf0fa54" y="272.360892"/>
    </g>
    <g clip-path="url(#pfe274e327f)">
     <use style="fill:#808080;fill-opacity:0.754386;stroke:#808080;stroke-opacity:0.754386;" x="192.480528" xlink:href="#C1_0_38daf0fa54" y="268.750254"/>
    </g>
    <g clip-path="url(#pfe274e327f)">
     <use style="fill:#808080;fill-opacity:0.754386;stroke:#808080;stroke-opacity:0.754386;" x="154.09691" xlink:href="#C1_0_38daf0fa54" y="262.001084"/>
    </g>
    <g clip-path="url(#pfe274e327f)">
     <use style="fill:#808080;fill-opacity:0.754386;stroke:#808080;stroke-opacity:0.754386;" x="218.084293" xlink:href="#C1_0_38daf0fa54" y="231.065817"/>
    </g>
    <g clip-path="url(#pfe274e327f)">
     <use style="fill:#808080;fill-opacity:0.754386;stroke:#808080;stroke-opacity:0.754386;" x="172.60463" xlink:href="#C1_0_38daf0fa54" y="218.561559"/>
    </g>
    <g clip-path="url(#pfe274e327f)">
     <use style="fill:#808080;fill-opacity:0.754386;stroke:#808080;stroke-opacity:0.754386;" x="255.868057" xlink:href="#C1_0_38daf0fa54" y="269.655692"/>
    </g>
    <g clip-path="url(#pfe274e327f)">
     <use style="fill:#808080;fill-opacity:0.754386;stroke:#808080;stroke-opacity:0.754386;" x="239.210481" xlink:href="#C1_0_38daf0fa54" y="262.705916"/>
    </g>
    <g clip-path="url(#pfe274e327f)">
     <use style="fill:#808080;fill-opacity:0.754386;stroke:#808080;stroke-opacity:0.754386;" x="151.922754" xlink:href="#C1_0_38daf0fa54" y="240.47255"/>
    </g>
    <g clip-path="url(#pfe274e327f)">
     <use style="fill:#808080;fill-opacity:0.754386;stroke:#808080;stroke-opacity:0.754386;" x="174.875954" xlink:href="#C1_0_38daf0fa54" y="257.157355"/>
    </g>
    <g clip-path="url(#pfe274e327f)">
     <use style="fill:#808080;fill-opacity:0.754386;stroke:#808080;stroke-opacity:0.754386;" x="208.816253" xlink:href="#C1_0_38daf0fa54" y="281.249612"/>
    </g>
    <g clip-path="url(#pfe274e327f)">
     <use style="fill:#808080;fill-opacity:0.754386;stroke:#808080;stroke-opacity:0.754386;" x="167.1784" xlink:href="#C1_0_38daf0fa54" y="257.632477"/>
    </g>
    <g clip-path="url(#pfe274e327f)">
     <use style="fill:#808080;fill-opacity:0.754386;stroke:#808080;stroke-opacity:0.754386;" x="197.390538" xlink:href="#C1_0_38daf0fa54" y="259.679182"/>
    </g>
    <g clip-path="url(#pfe274e327f)">
     <use style="fill:#808080;fill-opacity:0.754386;stroke:#808080;stroke-opacity:0.754386;" x="157.990875" xlink:href="#C1_0_38daf0fa54" y="237.534769"/>
    </g>
    <g clip-path="url(#pfe274e327f)">
     <use style="fill:#808080;fill-opacity:0.754386;stroke:#808080;stroke-opacity:0.754386;" x="203.795478" xlink:href="#C1_0_38daf0fa54" y="258.004799"/>
    </g>
    <g clip-path="url(#pfe274e327f)">
     <use style="fill:#808080;fill-opacity:0.754386;stroke:#808080;stroke-opacity:0.754386;" x="260.87002" xlink:href="#C1_0_38daf0fa54" y="270.600716"/>
    </g>
    <g clip-path="url(#pfe274e327f)">
     <use style="fill:#808080;fill-opacity:0.875556;stroke:#808080;stroke-opacity:0.875556;" x="220.530455" xlink:href="#C1_0_38daf0fa54" y="267.563932"/>
    </g>
    <g clip-path="url(#pfe274e327f)">
     <use style="fill:#808080;fill-opacity:0.875556;stroke:#808080;stroke-opacity:0.875556;" x="146.983154" xlink:href="#C1_0_38daf0fa54" y="265.628884"/>
    </g>
    <g clip-path="url(#pfe274e327f)">
     <use style="fill:#808080;fill-opacity:0.875556;stroke:#808080;stroke-opacity:0.875556;" x="151.614368" xlink:href="#C1_0_38daf0fa54" y="239.988989"/>
    </g>
    <g clip-path="url(#pfe274e327f)">
     <use style="fill:#808080;fill-opacity:0.875556;stroke:#808080;stroke-opacity:0.875556;" x="142.527162" xlink:href="#C1_0_38daf0fa54" y="242.520524"/>
    </g>
    <g clip-path="url(#pfe274e327f)">
     <use style="fill:#808080;fill-opacity:0.875556;stroke:#808080;stroke-opacity:0.875556;" x="162.809405" xlink:href="#C1_0_38daf0fa54" y="248.989519"/>
    </g>
    <g clip-path="url(#pfe274e327f)">
     <use style="fill:#808080;fill-opacity:0.875556;stroke:#808080;stroke-opacity:0.875556;" x="249.221174" xlink:href="#C1_0_38daf0fa54" y="286.188456"/>
    </g>
    <g clip-path="url(#pfe274e327f)">
     <use style="fill:#808080;fill-opacity:0.875556;stroke:#808080;stroke-opacity:0.875556;" x="250.656476" xlink:href="#C1_0_38daf0fa54" y="274.400898"/>
    </g>
    <g clip-path="url(#pfe274e327f)">
     <use style="fill:#808080;fill-opacity:0.875556;stroke:#808080;stroke-opacity:0.875556;" x="238.655372" xlink:href="#C1_0_38daf0fa54" y="263.233036"/>
    </g>
    <g clip-path="url(#pfe274e327f)">
     <use style="fill:#808080;fill-opacity:0.875556;stroke:#808080;stroke-opacity:0.875556;" x="232.618039" xlink:href="#C1_0_38daf0fa54" y="236.748197"/>
    </g>
    <g clip-path="url(#pfe274e327f)">
     <use style="fill:#808080;fill-opacity:0.875556;stroke:#808080;stroke-opacity:0.875556;" x="156.806629" xlink:href="#C1_0_38daf0fa54" y="252.269946"/>
    </g>
    <g clip-path="url(#pfe274e327f)">
     <use style="fill:#808080;fill-opacity:0.875556;stroke:#808080;stroke-opacity:0.875556;" x="160.750596" xlink:href="#C1_0_38daf0fa54" y="196.605762"/>
    </g>
    <g clip-path="url(#pfe274e327f)">
     <use style="fill:#808080;fill-opacity:0.875556;stroke:#808080;stroke-opacity:0.875556;" x="172.54607" xlink:href="#C1_0_38daf0fa54" y="266.602633"/>
    </g>
    <g clip-path="url(#pfe274e327f)">
     <use style="fill:#808080;fill-opacity:0.875556;stroke:#808080;stroke-opacity:0.875556;" x="182.926252" xlink:href="#C1_0_38daf0fa54" y="271.616378"/>
    </g>
    <g clip-path="url(#pfe274e327f)">
     <use style="fill:#808080;fill-opacity:0.875556;stroke:#808080;stroke-opacity:0.875556;" x="203.752709" xlink:href="#C1_0_38daf0fa54" y="269.354689"/>
    </g>
    <g clip-path="url(#pfe274e327f)">
     <use style="fill:#808080;fill-opacity:0.875556;stroke:#808080;stroke-opacity:0.875556;" x="173.843413" xlink:href="#C1_0_38daf0fa54" y="257.418841"/>
    </g>
    <g clip-path="url(#pfe274e327f)">
     <use style="fill:#808080;fill-opacity:0.875556;stroke:#808080;stroke-opacity:0.875556;" x="176.795702" xlink:href="#C1_0_38daf0fa54" y="179.384246"/>
    </g>
    <g clip-path="url(#pfe274e327f)">
     <use style="fill:#808080;fill-opacity:0.875556;stroke:#808080;stroke-opacity:0.875556;" x="203.505484" xlink:href="#C1_0_38daf0fa54" y="212.404885"/>
    </g>
    <g clip-path="url(#pfe274e327f)">
     <use style="fill:#808080;fill-opacity:0.875556;stroke:#808080;stroke-opacity:0.875556;" x="151.163383" xlink:href="#C1_0_38daf0fa54" y="177.76904"/>
    </g>
    <g clip-path="url(#pfe274e327f)">
     <use style="fill:#808080;fill-opacity:0.875556;stroke:#808080;stroke-opacity:0.875556;" x="192.171029" xlink:href="#C1_0_38daf0fa54" y="157.256984"/>
    </g>
    <g clip-path="url(#pfe274e327f)">
     <use style="fill:#808080;fill-opacity:0.875556;stroke:#808080;stroke-opacity:0.875556;" x="170.020864" xlink:href="#C1_0_38daf0fa54" y="206.332957"/>
    </g>
    <g clip-path="url(#pfe274e327f)">
     <use style="fill:#808080;fill-opacity:0.875556;stroke:#808080;stroke-opacity:0.875556;" x="210.948508" xlink:href="#C1_0_38daf0fa54" y="248.900843"/>
    </g>
    <g clip-path="url(#pfe274e327f)">
     <use style="fill:#808080;fill-opacity:0.875556;stroke:#808080;stroke-opacity:0.875556;" x="259.939992" xlink:href="#C1_0_38daf0fa54" y="240.787276"/>
    </g>
    <g clip-path="url(#pfe274e327f)">
     <use style="fill:#808080;fill-opacity:0.875556;stroke:#808080;stroke-opacity:0.875556;" x="231.121301" xlink:href="#C1_0_38daf0fa54" y="293.666047"/>
    </g>
    <g clip-path="url(#pfe274e327f)">
     <use style="fill:#808080;fill-opacity:0.875556;stroke:#808080;stroke-opacity:0.875556;" x="197.354869" xlink:href="#C1_0_38daf0fa54" y="146.635724"/>
    </g>
    <g clip-path="url(#pfe274e327f)">
     <use style="fill:#808080;fill-opacity:0.875556;stroke:#808080;stroke-opacity:0.875556;" x="234.530869" xlink:href="#C1_0_38daf0fa54" y="143.861674"/>
    </g>
    <g clip-path="url(#pfe274e327f)">
     <use style="fill:#808080;fill-opacity:0.875556;stroke:#808080;stroke-opacity:0.875556;" x="285.828809" xlink:href="#C1_0_38daf0fa54" y="162.231625"/>
    </g>
    <g clip-path="url(#pfe274e327f)">
     <use style="fill:#808080;fill-opacity:0.875556;stroke:#808080;stroke-opacity:0.875556;" x="283.573295" xlink:href="#C1_0_38daf0fa54" y="165.241184"/>
    </g>
    <g clip-path="url(#pfe274e327f)">
     <use style="fill:#808080;fill-opacity:0.875556;stroke:#808080;stroke-opacity:0.875556;" x="270.743242" xlink:href="#C1_0_38daf0fa54" y="155.764752"/>
    </g>
    <g clip-path="url(#pfe274e327f)">
     <use style="fill:#808080;fill-opacity:0.875556;stroke:#808080;stroke-opacity:0.875556;" x="280.834685" xlink:href="#C1_0_38daf0fa54" y="169.545661"/>
    </g>
    <g clip-path="url(#pfe274e327f)">
     <use style="fill:#808080;fill-opacity:0.875556;stroke:#808080;stroke-opacity:0.875556;" x="282.681566" xlink:href="#C1_0_38daf0fa54" y="171.932344"/>
    </g>
    <g clip-path="url(#pfe274e327f)">
     <use style="fill:#808080;fill-opacity:0.875556;stroke:#808080;stroke-opacity:0.875556;" x="238.491326" xlink:href="#C1_0_38daf0fa54" y="133.330341"/>
    </g>
    <g clip-path="url(#pfe274e327f)">
     <use style="fill:#808080;fill-opacity:0.875556;stroke:#808080;stroke-opacity:0.875556;" x="268.302497" xlink:href="#C1_0_38daf0fa54" y="165.467395"/>
    </g>
    <g clip-path="url(#pfe274e327f)">
     <use style="fill:#808080;fill-opacity:0.875556;stroke:#808080;stroke-opacity:0.875556;" x="278.853464" xlink:href="#C1_0_38daf0fa54" y="175.239022"/>
    </g>
    <g clip-path="url(#pfe274e327f)">
     <use style="fill:#808080;fill-opacity:0.875556;stroke:#808080;stroke-opacity:0.875556;" x="263.685108" xlink:href="#C1_0_38daf0fa54" y="168.627769"/>
    </g>
    <g clip-path="url(#pfe274e327f)">
     <use style="fill:#808080;fill-opacity:0.875556;stroke:#808080;stroke-opacity:0.875556;" x="268.167009" xlink:href="#C1_0_38daf0fa54" y="146.814975"/>
    </g>
    <g clip-path="url(#pfe274e327f)">
     <use style="fill:#808080;fill-opacity:0.875556;stroke:#808080;stroke-opacity:0.875556;" x="244.086257" xlink:href="#C1_0_38daf0fa54" y="158.738408"/>
    </g>
    <g clip-path="url(#pfe274e327f)">
     <use style="fill:#808080;fill-opacity:0.875556;stroke:#808080;stroke-opacity:0.875556;" x="273.570758" xlink:href="#C1_0_38daf0fa54" y="208.773893"/>
    </g>
    <g clip-path="url(#pfe274e327f)">
     <use style="fill:#808080;fill-opacity:0.875556;stroke:#808080;stroke-opacity:0.875556;" x="207.122604" xlink:href="#C1_0_38daf0fa54" y="132.295213"/>
    </g>
    <g clip-path="url(#pfe274e327f)">
     <use style="fill:#808080;fill-opacity:0.875556;stroke:#808080;stroke-opacity:0.875556;" x="186.635038" xlink:href="#C1_0_38daf0fa54" y="132.717709"/>
    </g>
    <g clip-path="url(#pfe274e327f)">
     <use style="fill:#808080;fill-opacity:0.875556;stroke:#808080;stroke-opacity:0.875556;" x="217.044743" xlink:href="#C1_0_38daf0fa54" y="162.477883"/>
    </g>
    <g clip-path="url(#pfe274e327f)">
     <use style="fill:#808080;fill-opacity:0.875556;stroke:#808080;stroke-opacity:0.875556;" x="273.488456" xlink:href="#C1_0_38daf0fa54" y="216.267454"/>
    </g>
    <g clip-path="url(#pfe274e327f)">
     <use style="fill:#808080;fill-opacity:0.875556;stroke:#808080;stroke-opacity:0.875556;" x="212.972796" xlink:href="#C1_0_38daf0fa54" y="151.773047"/>
    </g>
    <g clip-path="url(#pfe274e327f)">
     <use style="fill:#808080;fill-opacity:0.875556;stroke:#808080;stroke-opacity:0.875556;" x="247.401174" xlink:href="#C1_0_38daf0fa54" y="177.251748"/>
    </g>
    <g clip-path="url(#pfe274e327f)">
     <use style="fill:#808080;fill-opacity:0.875556;stroke:#808080;stroke-opacity:0.875556;" x="201.703711" xlink:href="#C1_0_38daf0fa54" y="127.08869"/>
    </g>
    <g clip-path="url(#pfe274e327f)">
     <use style="fill:#808080;stroke:#808080;" x="182.797007" xlink:href="#C1_0_38daf0fa54" y="210.548588"/>
    </g>
    <g clip-path="url(#pfe274e327f)">
     <use style="fill:#808080;stroke:#808080;" x="247.330795" xlink:href="#C1_0_38daf0fa54" y="219.598048"/>
    </g>
    <g clip-path="url(#pfe274e327f)">
     <use style="fill:#808080;stroke:#808080;" x="172.841602" xlink:href="#C1_0_38daf0fa54" y="258.364625"/>
    </g>
    <g clip-path="url(#pfe274e327f)">
     <use style="fill:#808080;stroke:#808080;" x="160.890953" xlink:href="#C1_0_38daf0fa54" y="279.320715"/>
    </g>
    <g clip-path="url(#pfe274e327f)">
     <use style="fill:#808080;stroke:#808080;" x="209.565954" xlink:href="#C1_0_38daf0fa54" y="209.48578"/>
    </g>
    <g clip-path="url(#pfe274e327f)">
     <use style="fill:#808080;stroke:#808080;" x="172.146152" xlink:href="#C1_0_38daf0fa54" y="274.222574"/>
    </g>
    <g clip-path="url(#pfe274e327f)">
     <use style="fill:#808080;stroke:#808080;" x="193.742258" xlink:href="#C1_0_38daf0fa54" y="254.629799"/>
    </g>
    <g clip-path="url(#pfe274e327f)">
     <use style="fill:#808080;stroke:#808080;" x="244.188069" xlink:href="#C1_0_38daf0fa54" y="216.308861"/>
    </g>
    <g clip-path="url(#pfe274e327f)">
     <use style="fill:#808080;stroke:#808080;" x="203.076975" xlink:href="#C1_0_38daf0fa54" y="290.923176"/>
    </g>
    <g clip-path="url(#pfe274e327f)">
     <use style="fill:#808080;stroke:#808080;" x="237.861816" xlink:href="#C1_0_38daf0fa54" y="290.401659"/>
    </g>
    <g clip-path="url(#pfe274e327f)">
     <use style="fill:#808080;stroke:#808080;" x="221.443131" xlink:href="#C1_0_38daf0fa54" y="297.29814"/>
    </g>
    <g clip-path="url(#pfe274e327f)">
     <use style="fill:#808080;stroke:#808080;" x="231.794856" xlink:href="#C1_0_38daf0fa54" y="287.923999"/>
    </g>
    <g clip-path="url(#pfe274e327f)">
     <use style="fill:#808080;stroke:#808080;" x="269.191758" xlink:href="#C1_0_38daf0fa54" y="229.306002"/>
    </g>
    <g clip-path="url(#pfe274e327f)">
     <use style="fill:#808080;stroke:#808080;" x="237.196434" xlink:href="#C1_0_38daf0fa54" y="293.67342"/>
    </g>
    <g clip-path="url(#pfe274e327f)">
     <use style="fill:#808080;stroke:#808080;" x="267.424444" xlink:href="#C1_0_38daf0fa54" y="274.671583"/>
    </g>
    <g clip-path="url(#pfe274e327f)">
     <use style="fill:#808080;stroke:#808080;" x="274.19911" xlink:href="#C1_0_38daf0fa54" y="263.894577"/>
    </g>
    <g clip-path="url(#pfe274e327f)">
     <use style="fill:#808080;stroke:#808080;" x="273.161203" xlink:href="#C1_0_38daf0fa54" y="272.697809"/>
    </g>
    <g clip-path="url(#pfe274e327f)">
     <use style="fill:#808080;stroke:#808080;" x="146.001961" xlink:href="#C1_0_38daf0fa54" y="247.860113"/>
    </g>
    <g clip-path="url(#pfe274e327f)">
     <use style="fill:#808080;stroke:#808080;" x="151.428061" xlink:href="#C1_0_38daf0fa54" y="255.80743"/>
    </g>
    <g clip-path="url(#pfe274e327f)">
     <use style="fill:#808080;stroke:#808080;" x="276.70923" xlink:href="#C1_0_38daf0fa54" y="227.97831"/>
    </g>
    <g clip-path="url(#pfe274e327f)">
     <use style="fill:#808080;stroke:#808080;" x="169.924284" xlink:href="#C1_0_38daf0fa54" y="207.039873"/>
    </g>
    <g clip-path="url(#pfe274e327f)">
     <use style="fill:#808080;stroke:#808080;" x="222.016604" xlink:href="#C1_0_38daf0fa54" y="151.92675"/>
    </g>
    <g clip-path="url(#pfe274e327f)">
     <use style="fill:#808080;stroke:#808080;" x="267.777943" xlink:href="#C1_0_38daf0fa54" y="145.707928"/>
    </g>
    <g clip-path="url(#pfe274e327f)">
     <use style="fill:#808080;stroke:#808080;" x="261.353862" xlink:href="#C1_0_38daf0fa54" y="158.281212"/>
    </g>
    <g clip-path="url(#pfe274e327f)">
     <use style="fill:#808080;stroke:#808080;" x="262.463328" xlink:href="#C1_0_38daf0fa54" y="132.861746"/>
    </g>
    <g clip-path="url(#pfe274e327f)">
     <use style="fill:#808080;stroke:#808080;" x="252.302461" xlink:href="#C1_0_38daf0fa54" y="168.121988"/>
    </g>
    <g clip-path="url(#pfe274e327f)">
     <use style="fill:#808080;stroke:#808080;" x="253.274987" xlink:href="#C1_0_38daf0fa54" y="149.685041"/>
    </g>
    <g clip-path="url(#pfe274e327f)">
     <use style="fill:#808080;stroke:#808080;" x="241.430237" xlink:href="#C1_0_38daf0fa54" y="151.878316"/>
    </g>
    <g clip-path="url(#pfe274e327f)">
     <use style="fill:#808080;stroke:#808080;" x="235.308845" xlink:href="#C1_0_38daf0fa54" y="138.905356"/>
    </g>
    <g clip-path="url(#pfe274e327f)">
     <use style="fill:#808080;stroke:#808080;" x="223.465528" xlink:href="#C1_0_38daf0fa54" y="130.63685"/>
    </g>
    <g clip-path="url(#pfe274e327f)">
     <use style="fill:#808080;stroke:#808080;" x="150.116994" xlink:href="#C1_0_38daf0fa54" y="177.179167"/>
    </g>
    <g clip-path="url(#pfe274e327f)">
     <use style="fill:#808080;stroke:#808080;" x="223.942031" xlink:href="#C1_0_38daf0fa54" y="125.033383"/>
    </g>
    <g clip-path="url(#pfe274e327f)">
     <use style="fill:#808080;stroke:#808080;" x="202.710515" xlink:href="#C1_0_38daf0fa54" y="130.3124"/>
    </g>
    <g clip-path="url(#pfe274e327f)">
     <use style="fill:#808080;stroke:#808080;" x="201.045804" xlink:href="#C1_0_38daf0fa54" y="118.347531"/>
    </g>
    <g clip-path="url(#pfe274e327f)">
     <use style="fill:#808080;stroke:#808080;" x="278.613431" xlink:href="#C1_0_38daf0fa54" y="181.376632"/>
    </g>
    <g clip-path="url(#pfe274e327f)">
     <use style="fill:#808080;stroke:#808080;" x="271.577294" xlink:href="#C1_0_38daf0fa54" y="182.084443"/>
    </g>
    <g clip-path="url(#pfe274e327f)">
     <use style="fill:#808080;stroke:#808080;" x="263.399405" xlink:href="#C1_0_38daf0fa54" y="194.387207"/>
    </g>
    <g clip-path="url(#pfe274e327f)">
     <use style="fill:#808080;stroke:#808080;" x="273.869845" xlink:href="#C1_0_38daf0fa54" y="208.542582"/>
    </g>
    <g clip-path="url(#pfe274e327f)">
     <use style="fill:#808080;stroke:#808080;" x="272.775906" xlink:href="#C1_0_38daf0fa54" y="215.734799"/>
    </g>
   </g>
   <g id="legend_1">
    <g id="patch_3">
     <path d="M 316.670625 74.518125 
L 377.48 74.518125 
Q 379.48 74.518125 379.48 72.518125 
L 379.48 58.84 
Q 379.48 56.84 377.48 56.84 
L 316.670625 56.84 
Q 314.670625 56.84 314.670625 58.84 
L 314.670625 72.518125 
Q 314.670625 74.518125 316.670625 74.518125 
z
" style="fill:#ffffff;opacity:0.8;stroke:#cccccc;stroke-linejoin:miter;"/>
    </g>
    <g id="Path3DCollection_3">
     <defs>
      <path d="M 0 5 
C 1.326016 5 2.597899 4.473168 3.535534 3.535534 
C 4.473168 2.597899 5 1.326016 5 0 
C 5 -1.326016 4.473168 -2.597899 3.535534 -3.535534 
C 2.597899 -4.473168 1.326016 -5 0 -5 
C -1.326016 -5 -2.597899 -4.473168 -3.535534 -3.535534 
C -4.473168 -2.597899 -5 -1.326016 -5 0 
C -5 1.326016 -4.473168 2.597899 -3.535534 3.535534 
C -2.597899 4.473168 -1.326016 5 0 5 
z
" id="mdefaabe64c" style="stroke:#ff0000;"/>
     </defs>
     <g>
      <use style="fill:#ff0000;stroke:#ff0000;" x="328.670625" xlink:href="#mdefaabe64c" y="65.813438"/>
     </g>
    </g>
    <g id="text_1">
     <!-- Cldn5 -->
     <g transform="translate(346.670625 68.438438)scale(0.1 -0.1)">
      <defs>
       <path d="M 64.40625 67.28125 
L 64.40625 56.890625 
Q 59.421875 61.53125 53.78125 63.8125 
Q 48.140625 66.109375 41.796875 66.109375 
Q 29.296875 66.109375 22.65625 58.46875 
Q 16.015625 50.828125 16.015625 36.375 
Q 16.015625 21.96875 22.65625 14.328125 
Q 29.296875 6.6875 41.796875 6.6875 
Q 48.140625 6.6875 53.78125 8.984375 
Q 59.421875 11.28125 64.40625 15.921875 
L 64.40625 5.609375 
Q 59.234375 2.09375 53.4375 0.328125 
Q 47.65625 -1.421875 41.21875 -1.421875 
Q 24.65625 -1.421875 15.125 8.703125 
Q 5.609375 18.84375 5.609375 36.375 
Q 5.609375 53.953125 15.125 64.078125 
Q 24.65625 74.21875 41.21875 74.21875 
Q 47.75 74.21875 53.53125 72.484375 
Q 59.328125 70.75 64.40625 67.28125 
z
" id="DejaVuSans-67"/>
       <path d="M 9.421875 75.984375 
L 18.40625 75.984375 
L 18.40625 0 
L 9.421875 0 
z
" id="DejaVuSans-108"/>
       <path d="M 45.40625 46.390625 
L 45.40625 75.984375 
L 54.390625 75.984375 
L 54.390625 0 
L 45.40625 0 
L 45.40625 8.203125 
Q 42.578125 3.328125 38.25 0.953125 
Q 33.9375 -1.421875 27.875 -1.421875 
Q 17.96875 -1.421875 11.734375 6.484375 
Q 5.515625 14.40625 5.515625 27.296875 
Q 5.515625 40.1875 11.734375 48.09375 
Q 17.96875 56 27.875 56 
Q 33.9375 56 38.25 53.625 
Q 42.578125 51.265625 45.40625 46.390625 
z
M 14.796875 27.296875 
Q 14.796875 17.390625 18.875 11.75 
Q 22.953125 6.109375 30.078125 6.109375 
Q 37.203125 6.109375 41.296875 11.75 
Q 45.40625 17.390625 45.40625 27.296875 
Q 45.40625 37.203125 41.296875 42.84375 
Q 37.203125 48.484375 30.078125 48.484375 
Q 22.953125 48.484375 18.875 42.84375 
Q 14.796875 37.203125 14.796875 27.296875 
z
" id="DejaVuSans-100"/>
       <path d="M 54.890625 33.015625 
L 54.890625 0 
L 45.90625 0 
L 45.90625 32.71875 
Q 45.90625 40.484375 42.875 44.328125 
Q 39.84375 48.1875 33.796875 48.1875 
Q 26.515625 48.1875 22.3125 43.546875 
Q 18.109375 38.921875 18.109375 30.90625 
L 18.109375 0 
L 9.078125 0 
L 9.078125 54.6875 
L 18.109375 54.6875 
L 18.109375 46.1875 
Q 21.34375 51.125 25.703125 53.5625 
Q 30.078125 56 35.796875 56 
Q 45.21875 56 50.046875 50.171875 
Q 54.890625 44.34375 54.890625 33.015625 
z
" id="DejaVuSans-110"/>
       <path d="M 10.796875 72.90625 
L 49.515625 72.90625 
L 49.515625 64.59375 
L 19.828125 64.59375 
L 19.828125 46.734375 
Q 21.96875 47.46875 24.109375 47.828125 
Q 26.265625 48.1875 28.421875 48.1875 
Q 40.625 48.1875 47.75 41.5 
Q 54.890625 34.8125 54.890625 23.390625 
Q 54.890625 11.625 47.5625 5.09375 
Q 40.234375 -1.421875 26.90625 -1.421875 
Q 22.3125 -1.421875 17.546875 -0.640625 
Q 12.796875 0.140625 7.71875 1.703125 
L 7.71875 11.625 
Q 12.109375 9.234375 16.796875 8.0625 
Q 21.484375 6.890625 26.703125 6.890625 
Q 35.15625 6.890625 40.078125 11.328125 
Q 45.015625 15.765625 45.015625 23.390625 
Q 45.015625 31 40.078125 35.4375 
Q 35.15625 39.890625 26.703125 39.890625 
Q 22.75 39.890625 18.8125 39.015625 
Q 14.890625 38.140625 10.796875 36.28125 
z
" id="DejaVuSans-53"/>
      </defs>
      <use xlink:href="#DejaVuSans-67"/>
      <use x="69.824219" xlink:href="#DejaVuSans-108"/>
      <use x="97.607422" xlink:href="#DejaVuSans-100"/>
      <use x="161.083984" xlink:href="#DejaVuSans-110"/>
      <use x="224.462891" xlink:href="#DejaVuSans-53"/>
     </g>
    </g>
   </g>
  </g>
 </g>
 <defs>
  <clipPath id="pfe274e327f">
   <rect height="326.16" width="326.16" x="58.32" y="51.84"/>
  </clipPath>
 </defs>
</svg>
