<?xml version="1.0" encoding="utf-8" standalone="no"?>
<!DOCTYPE svg PUBLIC "-//W3C//DTD SVG 1.1//EN"
  "http://www.w3.org/Graphics/SVG/1.1/DTD/svg11.dtd">
<!-- Created with matplotlib (https://matplotlib.org/) -->
<svg height="288pt" version="1.1" viewBox="0 0 432 288" width="432pt" xmlns="http://www.w3.org/2000/svg" xmlns:xlink="http://www.w3.org/1999/xlink">
 <metadata>
  <rdf:RDF xmlns:cc="http://creativecommons.org/ns#" xmlns:dc="http://purl.org/dc/elements/1.1/" xmlns:rdf="http://www.w3.org/1999/02/22-rdf-syntax-ns#">
   <cc:Work>
    <dc:type rdf:resource="http://purl.org/dc/dcmitype/StillImage"/>
    <dc:date>2022-03-11T11:24:29.306816</dc:date>
    <dc:format>image/svg+xml</dc:format>
    <dc:creator>
     <cc:Agent>
      <dc:title>Matplotlib v3.3.3, https://matplotlib.org/</dc:title>
     </cc:Agent>
    </dc:creator>
   </cc:Work>
  </rdf:RDF>
 </metadata>
 <defs>
  <style type="text/css">*{stroke-linecap:butt;stroke-linejoin:round;}</style>
 </defs>
 <g id="figure_1">
  <g id="patch_1">
   <path d="M 0 288 
L 432 288 
L 432 0 
L 0 0 
z
" style="fill:none;"/>
  </g>
  <g id="axes_1">
   <g id="patch_2">
    <path d="M 68.175 246.2 
L 321.71 246.2 
L 321.71 26.8 
L 68.175 26.8 
z
" style="fill:#ffffff;"/>
   </g>
   <g id="patch_3">
    <path clip-path="url(#pbab233945e)" d="M 112.669299 33.780909 
L 112.669299 39.764545 
L 158.74684 39.764545 
L 158.74684 33.780909 
L 112.669299 33.780909 
z
" style="fill:#dee9f3;stroke:#8b8b8b;stroke-linejoin:miter;stroke-width:1.5;"/>
   </g>
   <g id="patch_4">
    <path clip-path="url(#pbab233945e)" d="M 181.295381 53.726364 
L 181.295381 59.71 
L 199.655173 59.71 
L 199.655173 53.726364 
L 181.295381 53.726364 
z
" style="fill:#dee9f3;stroke:#8b8b8b;stroke-linejoin:miter;stroke-width:1.5;"/>
   </g>
   <g id="patch_5">
    <path clip-path="url(#pbab233945e)" d="M 169.452483 73.671818 
L 169.452483 79.655455 
L 231.492245 79.655455 
L 231.492245 73.671818 
L 169.452483 73.671818 
z
" style="fill:#dee9f3;stroke:#8b8b8b;stroke-linejoin:miter;stroke-width:1.5;"/>
   </g>
   <g id="patch_6">
    <path clip-path="url(#pbab233945e)" d="M 207.369907 93.617273 
L 207.369907 99.600909 
L 231.444074 99.600909 
L 231.444074 93.617273 
L 207.369907 93.617273 
z
" style="fill:#dee9f3;stroke:#8b8b8b;stroke-linejoin:miter;stroke-width:1.5;"/>
   </g>
   <g id="patch_7">
    <path clip-path="url(#pbab233945e)" d="M 196.992212 113.562727 
L 196.992212 119.546364 
L 233.483782 119.546364 
L 233.483782 113.562727 
L 196.992212 113.562727 
z
" style="fill:#dee9f3;stroke:#8b8b8b;stroke-linejoin:miter;stroke-width:1.5;"/>
   </g>
   <g id="patch_8">
    <path clip-path="url(#pbab233945e)" d="M 223.360232 133.508182 
L 223.360232 139.491818 
L 238.322234 139.491818 
L 238.322234 133.508182 
L 223.360232 133.508182 
z
" style="fill:#dee9f3;stroke:#8b8b8b;stroke-linejoin:miter;stroke-width:1.5;"/>
   </g>
   <g id="patch_9">
    <path clip-path="url(#pbab233945e)" d="M 228.746822 153.453636 
L 228.746822 159.437273 
L 254.454252 159.437273 
L 254.454252 153.453636 
L 228.746822 153.453636 
z
" style="fill:#dee9f3;stroke:#8b8b8b;stroke-linejoin:miter;stroke-width:1.5;"/>
   </g>
   <g id="patch_10">
    <path clip-path="url(#pbab233945e)" d="M 228.606927 173.399091 
L 228.606927 179.382727 
L 285.117744 179.382727 
L 285.117744 173.399091 
L 228.606927 173.399091 
z
" style="fill:#dee9f3;stroke:#8b8b8b;stroke-linejoin:miter;stroke-width:1.5;"/>
   </g>
   <g id="patch_11">
    <path clip-path="url(#pbab233945e)" d="M 244.993487 193.344545 
L 244.993487 199.328182 
L 274.936804 199.328182 
L 274.936804 193.344545 
L 244.993487 193.344545 
z
" style="fill:#dee9f3;stroke:#8b8b8b;stroke-linejoin:miter;stroke-width:1.5;"/>
   </g>
   <g id="patch_12">
    <path clip-path="url(#pbab233945e)" d="M 247.67547 213.29 
L 247.67547 219.273636 
L 277.882145 219.273636 
L 277.882145 213.29 
L 247.67547 213.29 
z
" style="fill:#dee9f3;stroke:#8b8b8b;stroke-linejoin:miter;stroke-width:1.5;"/>
   </g>
   <g id="patch_13">
    <path clip-path="url(#pbab233945e)" d="M 240.591091 233.235455 
L 240.591091 239.219091 
L 283.50017 239.219091 
L 283.50017 233.235455 
L 240.591091 233.235455 
z
" style="fill:#dee9f3;stroke:#8b8b8b;stroke-linejoin:miter;stroke-width:1.5;"/>
   </g>
   <g id="PathCollection_1"/>
   <g id="PathCollection_2"/>
   <g id="PathCollection_3"/>
   <g id="PathCollection_4"/>
   <g id="PathCollection_5"/>
   <g id="PathCollection_6"/>
   <g id="patch_14">
    <path clip-path="url(#pbab233945e)" d="M 211.279608 246.2 
L 211.279608 26.8 
L 310.185682 26.8 
L 310.185682 246.2 
z
" style="fill:#808080;opacity:0.5;"/>
   </g>
   <g id="matplotlib.axis_1">
    <g id="xtick_1">
     <g id="text_1">
      <!-- −6 -->
      <g transform="translate(79.587568 260.798437)scale(0.1 -0.1)">
       <defs>
        <path d="M 10.59375 35.5 
L 73.1875 35.5 
L 73.1875 27.203125 
L 10.59375 27.203125 
z
" id="DejaVuSans-8722"/>
        <path d="M 33.015625 40.375 
Q 26.375 40.375 22.484375 35.828125 
Q 18.609375 31.296875 18.609375 23.390625 
Q 18.609375 15.53125 22.484375 10.953125 
Q 26.375 6.390625 33.015625 6.390625 
Q 39.65625 6.390625 43.53125 10.953125 
Q 47.40625 15.53125 47.40625 23.390625 
Q 47.40625 31.296875 43.53125 35.828125 
Q 39.65625 40.375 33.015625 40.375 
z
M 52.59375 71.296875 
L 52.59375 62.3125 
Q 48.875 64.0625 45.09375 64.984375 
Q 41.3125 65.921875 37.59375 65.921875 
Q 27.828125 65.921875 22.671875 59.328125 
Q 17.53125 52.734375 16.796875 39.40625 
Q 19.671875 43.65625 24.015625 45.921875 
Q 28.375 48.1875 33.59375 48.1875 
Q 44.578125 48.1875 50.953125 41.515625 
Q 57.328125 34.859375 57.328125 23.390625 
Q 57.328125 12.15625 50.6875 5.359375 
Q 44.046875 -1.421875 33.015625 -1.421875 
Q 20.359375 -1.421875 13.671875 8.265625 
Q 6.984375 17.96875 6.984375 36.375 
Q 6.984375 53.65625 15.1875 63.9375 
Q 23.390625 74.21875 37.203125 74.21875 
Q 40.921875 74.21875 44.703125 73.484375 
Q 48.484375 72.75 52.59375 71.296875 
z
" id="DejaVuSans-54"/>
       </defs>
       <use xlink:href="#DejaVuSans-8722"/>
       <use x="83.789062" xlink:href="#DejaVuSans-54"/>
      </g>
     </g>
    </g>
    <g id="xtick_2">
     <g id="text_2">
      <!-- −4 -->
      <g transform="translate(121.027884 260.798437)scale(0.1 -0.1)">
       <defs>
        <path d="M 37.796875 64.3125 
L 12.890625 25.390625 
L 37.796875 25.390625 
z
M 35.203125 72.90625 
L 47.609375 72.90625 
L 47.609375 25.390625 
L 58.015625 25.390625 
L 58.015625 17.1875 
L 47.609375 17.1875 
L 47.609375 0 
L 37.796875 0 
L 37.796875 17.1875 
L 4.890625 17.1875 
L 4.890625 26.703125 
z
" id="DejaVuSans-52"/>
       </defs>
       <use xlink:href="#DejaVuSans-8722"/>
       <use x="83.789062" xlink:href="#DejaVuSans-52"/>
      </g>
     </g>
    </g>
    <g id="xtick_3">
     <g id="text_3">
      <!-- −2 -->
      <g transform="translate(162.468199 260.798437)scale(0.1 -0.1)">
       <defs>
        <path d="M 19.1875 8.296875 
L 53.609375 8.296875 
L 53.609375 0 
L 7.328125 0 
L 7.328125 8.296875 
Q 12.9375 14.109375 22.625 23.890625 
Q 32.328125 33.6875 34.8125 36.53125 
Q 39.546875 41.84375 41.421875 45.53125 
Q 43.3125 49.21875 43.3125 52.78125 
Q 43.3125 58.59375 39.234375 62.25 
Q 35.15625 65.921875 28.609375 65.921875 
Q 23.96875 65.921875 18.8125 64.3125 
Q 13.671875 62.703125 7.8125 59.421875 
L 7.8125 69.390625 
Q 13.765625 71.78125 18.9375 73 
Q 24.125 74.21875 28.421875 74.21875 
Q 39.75 74.21875 46.484375 68.546875 
Q 53.21875 62.890625 53.21875 53.421875 
Q 53.21875 48.921875 51.53125 44.890625 
Q 49.859375 40.875 45.40625 35.40625 
Q 44.1875 33.984375 37.640625 27.21875 
Q 31.109375 20.453125 19.1875 8.296875 
z
" id="DejaVuSans-50"/>
       </defs>
       <use xlink:href="#DejaVuSans-8722"/>
       <use x="83.789062" xlink:href="#DejaVuSans-50"/>
      </g>
     </g>
    </g>
    <g id="xtick_4">
     <g id="text_4">
      <!-- 0 -->
      <g transform="translate(208.098358 260.798437)scale(0.1 -0.1)">
       <defs>
        <path d="M 31.78125 66.40625 
Q 24.171875 66.40625 20.328125 58.90625 
Q 16.5 51.421875 16.5 36.375 
Q 16.5 21.390625 20.328125 13.890625 
Q 24.171875 6.390625 31.78125 6.390625 
Q 39.453125 6.390625 43.28125 13.890625 
Q 47.125 21.390625 47.125 36.375 
Q 47.125 51.421875 43.28125 58.90625 
Q 39.453125 66.40625 31.78125 66.40625 
z
M 31.78125 74.21875 
Q 44.046875 74.21875 50.515625 64.515625 
Q 56.984375 54.828125 56.984375 36.375 
Q 56.984375 17.96875 50.515625 8.265625 
Q 44.046875 -1.421875 31.78125 -1.421875 
Q 19.53125 -1.421875 13.0625 8.265625 
Q 6.59375 17.96875 6.59375 36.375 
Q 6.59375 54.828125 13.0625 64.515625 
Q 19.53125 74.21875 31.78125 74.21875 
z
" id="DejaVuSans-48"/>
       </defs>
       <use xlink:href="#DejaVuSans-48"/>
      </g>
     </g>
    </g>
    <g id="xtick_5">
     <g id="text_5">
      <!-- 2 -->
      <g transform="translate(249.538673 260.798437)scale(0.1 -0.1)">
       <use xlink:href="#DejaVuSans-50"/>
      </g>
     </g>
    </g>
    <g id="xtick_6">
     <g id="text_6">
      <!-- 4 -->
      <g transform="translate(290.978988 260.798437)scale(0.1 -0.1)">
       <use xlink:href="#DejaVuSans-52"/>
      </g>
     </g>
    </g>
    <g id="text_7">
     <!-- Z score per sample/ontology -->
     <g transform="translate(123.318281 274.476562)scale(0.1 -0.1)">
      <defs>
       <path d="M 5.609375 72.90625 
L 62.890625 72.90625 
L 62.890625 65.375 
L 16.796875 8.296875 
L 64.015625 8.296875 
L 64.015625 0 
L 4.5 0 
L 4.5 7.515625 
L 50.59375 64.59375 
L 5.609375 64.59375 
z
" id="DejaVuSans-90"/>
       <path id="DejaVuSans-32"/>
       <path d="M 44.28125 53.078125 
L 44.28125 44.578125 
Q 40.484375 46.53125 36.375 47.5 
Q 32.28125 48.484375 27.875 48.484375 
Q 21.1875 48.484375 17.84375 46.4375 
Q 14.5 44.390625 14.5 40.28125 
Q 14.5 37.15625 16.890625 35.375 
Q 19.28125 33.59375 26.515625 31.984375 
L 29.59375 31.296875 
Q 39.15625 29.25 43.1875 25.515625 
Q 47.21875 21.78125 47.21875 15.09375 
Q 47.21875 7.46875 41.1875 3.015625 
Q 35.15625 -1.421875 24.609375 -1.421875 
Q 20.21875 -1.421875 15.453125 -0.5625 
Q 10.6875 0.296875 5.421875 2 
L 5.421875 11.28125 
Q 10.40625 8.6875 15.234375 7.390625 
Q 20.0625 6.109375 24.8125 6.109375 
Q 31.15625 6.109375 34.5625 8.28125 
Q 37.984375 10.453125 37.984375 14.40625 
Q 37.984375 18.0625 35.515625 20.015625 
Q 33.0625 21.96875 24.703125 23.78125 
L 21.578125 24.515625 
Q 13.234375 26.265625 9.515625 29.90625 
Q 5.8125 33.546875 5.8125 39.890625 
Q 5.8125 47.609375 11.28125 51.796875 
Q 16.75 56 26.8125 56 
Q 31.78125 56 36.171875 55.265625 
Q 40.578125 54.546875 44.28125 53.078125 
z
" id="DejaVuSans-115"/>
       <path d="M 48.78125 52.59375 
L 48.78125 44.1875 
Q 44.96875 46.296875 41.140625 47.34375 
Q 37.3125 48.390625 33.40625 48.390625 
Q 24.65625 48.390625 19.8125 42.84375 
Q 14.984375 37.3125 14.984375 27.296875 
Q 14.984375 17.28125 19.8125 11.734375 
Q 24.65625 6.203125 33.40625 6.203125 
Q 37.3125 6.203125 41.140625 7.25 
Q 44.96875 8.296875 48.78125 10.40625 
L 48.78125 2.09375 
Q 45.015625 0.34375 40.984375 -0.53125 
Q 36.96875 -1.421875 32.421875 -1.421875 
Q 20.0625 -1.421875 12.78125 6.34375 
Q 5.515625 14.109375 5.515625 27.296875 
Q 5.515625 40.671875 12.859375 48.328125 
Q 20.21875 56 33.015625 56 
Q 37.15625 56 41.109375 55.140625 
Q 45.0625 54.296875 48.78125 52.59375 
z
" id="DejaVuSans-99"/>
       <path d="M 30.609375 48.390625 
Q 23.390625 48.390625 19.1875 42.75 
Q 14.984375 37.109375 14.984375 27.296875 
Q 14.984375 17.484375 19.15625 11.84375 
Q 23.34375 6.203125 30.609375 6.203125 
Q 37.796875 6.203125 41.984375 11.859375 
Q 46.1875 17.53125 46.1875 27.296875 
Q 46.1875 37.015625 41.984375 42.703125 
Q 37.796875 48.390625 30.609375 48.390625 
z
M 30.609375 56 
Q 42.328125 56 49.015625 48.375 
Q 55.71875 40.765625 55.71875 27.296875 
Q 55.71875 13.875 49.015625 6.21875 
Q 42.328125 -1.421875 30.609375 -1.421875 
Q 18.84375 -1.421875 12.171875 6.21875 
Q 5.515625 13.875 5.515625 27.296875 
Q 5.515625 40.765625 12.171875 48.375 
Q 18.84375 56 30.609375 56 
z
" id="DejaVuSans-111"/>
       <path d="M 41.109375 46.296875 
Q 39.59375 47.171875 37.8125 47.578125 
Q 36.03125 48 33.890625 48 
Q 26.265625 48 22.1875 43.046875 
Q 18.109375 38.09375 18.109375 28.8125 
L 18.109375 0 
L 9.078125 0 
L 9.078125 54.6875 
L 18.109375 54.6875 
L 18.109375 46.1875 
Q 20.953125 51.171875 25.484375 53.578125 
Q 30.03125 56 36.53125 56 
Q 37.453125 56 38.578125 55.875 
Q 39.703125 55.765625 41.0625 55.515625 
z
" id="DejaVuSans-114"/>
       <path d="M 56.203125 29.59375 
L 56.203125 25.203125 
L 14.890625 25.203125 
Q 15.484375 15.921875 20.484375 11.0625 
Q 25.484375 6.203125 34.421875 6.203125 
Q 39.59375 6.203125 44.453125 7.46875 
Q 49.3125 8.734375 54.109375 11.28125 
L 54.109375 2.78125 
Q 49.265625 0.734375 44.1875 -0.34375 
Q 39.109375 -1.421875 33.890625 -1.421875 
Q 20.796875 -1.421875 13.15625 6.1875 
Q 5.515625 13.8125 5.515625 26.8125 
Q 5.515625 40.234375 12.765625 48.109375 
Q 20.015625 56 32.328125 56 
Q 43.359375 56 49.78125 48.890625 
Q 56.203125 41.796875 56.203125 29.59375 
z
M 47.21875 32.234375 
Q 47.125 39.59375 43.09375 43.984375 
Q 39.0625 48.390625 32.421875 48.390625 
Q 24.90625 48.390625 20.390625 44.140625 
Q 15.875 39.890625 15.1875 32.171875 
z
" id="DejaVuSans-101"/>
       <path d="M 18.109375 8.203125 
L 18.109375 -20.796875 
L 9.078125 -20.796875 
L 9.078125 54.6875 
L 18.109375 54.6875 
L 18.109375 46.390625 
Q 20.953125 51.265625 25.265625 53.625 
Q 29.59375 56 35.59375 56 
Q 45.5625 56 51.78125 48.09375 
Q 58.015625 40.1875 58.015625 27.296875 
Q 58.015625 14.40625 51.78125 6.484375 
Q 45.5625 -1.421875 35.59375 -1.421875 
Q 29.59375 -1.421875 25.265625 0.953125 
Q 20.953125 3.328125 18.109375 8.203125 
z
M 48.6875 27.296875 
Q 48.6875 37.203125 44.609375 42.84375 
Q 40.53125 48.484375 33.40625 48.484375 
Q 26.265625 48.484375 22.1875 42.84375 
Q 18.109375 37.203125 18.109375 27.296875 
Q 18.109375 17.390625 22.1875 11.75 
Q 26.265625 6.109375 33.40625 6.109375 
Q 40.53125 6.109375 44.609375 11.75 
Q 48.6875 17.390625 48.6875 27.296875 
z
" id="DejaVuSans-112"/>
       <path d="M 34.28125 27.484375 
Q 23.390625 27.484375 19.1875 25 
Q 14.984375 22.515625 14.984375 16.5 
Q 14.984375 11.71875 18.140625 8.90625 
Q 21.296875 6.109375 26.703125 6.109375 
Q 34.1875 6.109375 38.703125 11.40625 
Q 43.21875 16.703125 43.21875 25.484375 
L 43.21875 27.484375 
z
M 52.203125 31.203125 
L 52.203125 0 
L 43.21875 0 
L 43.21875 8.296875 
Q 40.140625 3.328125 35.546875 0.953125 
Q 30.953125 -1.421875 24.3125 -1.421875 
Q 15.921875 -1.421875 10.953125 3.296875 
Q 6 8.015625 6 15.921875 
Q 6 25.140625 12.171875 29.828125 
Q 18.359375 34.515625 30.609375 34.515625 
L 43.21875 34.515625 
L 43.21875 35.40625 
Q 43.21875 41.609375 39.140625 45 
Q 35.0625 48.390625 27.6875 48.390625 
Q 23 48.390625 18.546875 47.265625 
Q 14.109375 46.140625 10.015625 43.890625 
L 10.015625 52.203125 
Q 14.9375 54.109375 19.578125 55.046875 
Q 24.21875 56 28.609375 56 
Q 40.484375 56 46.34375 49.84375 
Q 52.203125 43.703125 52.203125 31.203125 
z
" id="DejaVuSans-97"/>
       <path d="M 52 44.1875 
Q 55.375 50.25 60.0625 53.125 
Q 64.75 56 71.09375 56 
Q 79.640625 56 84.28125 50.015625 
Q 88.921875 44.046875 88.921875 33.015625 
L 88.921875 0 
L 79.890625 0 
L 79.890625 32.71875 
Q 79.890625 40.578125 77.09375 44.375 
Q 74.3125 48.1875 68.609375 48.1875 
Q 61.625 48.1875 57.5625 43.546875 
Q 53.515625 38.921875 53.515625 30.90625 
L 53.515625 0 
L 44.484375 0 
L 44.484375 32.71875 
Q 44.484375 40.625 41.703125 44.40625 
Q 38.921875 48.1875 33.109375 48.1875 
Q 26.21875 48.1875 22.15625 43.53125 
Q 18.109375 38.875 18.109375 30.90625 
L 18.109375 0 
L 9.078125 0 
L 9.078125 54.6875 
L 18.109375 54.6875 
L 18.109375 46.1875 
Q 21.1875 51.21875 25.484375 53.609375 
Q 29.78125 56 35.6875 56 
Q 41.65625 56 45.828125 52.96875 
Q 50 49.953125 52 44.1875 
z
" id="DejaVuSans-109"/>
       <path d="M 9.421875 75.984375 
L 18.40625 75.984375 
L 18.40625 0 
L 9.421875 0 
z
" id="DejaVuSans-108"/>
       <path d="M 25.390625 72.90625 
L 33.6875 72.90625 
L 8.296875 -9.28125 
L 0 -9.28125 
z
" id="DejaVuSans-47"/>
       <path d="M 54.890625 33.015625 
L 54.890625 0 
L 45.90625 0 
L 45.90625 32.71875 
Q 45.90625 40.484375 42.875 44.328125 
Q 39.84375 48.1875 33.796875 48.1875 
Q 26.515625 48.1875 22.3125 43.546875 
Q 18.109375 38.921875 18.109375 30.90625 
L 18.109375 0 
L 9.078125 0 
L 9.078125 54.6875 
L 18.109375 54.6875 
L 18.109375 46.1875 
Q 21.34375 51.125 25.703125 53.5625 
Q 30.078125 56 35.796875 56 
Q 45.21875 56 50.046875 50.171875 
Q 54.890625 44.34375 54.890625 33.015625 
z
" id="DejaVuSans-110"/>
       <path d="M 18.3125 70.21875 
L 18.3125 54.6875 
L 36.8125 54.6875 
L 36.8125 47.703125 
L 18.3125 47.703125 
L 18.3125 18.015625 
Q 18.3125 11.328125 20.140625 9.421875 
Q 21.96875 7.515625 27.59375 7.515625 
L 36.8125 7.515625 
L 36.8125 0 
L 27.59375 0 
Q 17.1875 0 13.234375 3.875 
Q 9.28125 7.765625 9.28125 18.015625 
L 9.28125 47.703125 
L 2.6875 47.703125 
L 2.6875 54.6875 
L 9.28125 54.6875 
L 9.28125 70.21875 
z
" id="DejaVuSans-116"/>
       <path d="M 45.40625 27.984375 
Q 45.40625 37.75 41.375 43.109375 
Q 37.359375 48.484375 30.078125 48.484375 
Q 22.859375 48.484375 18.828125 43.109375 
Q 14.796875 37.75 14.796875 27.984375 
Q 14.796875 18.265625 18.828125 12.890625 
Q 22.859375 7.515625 30.078125 7.515625 
Q 37.359375 7.515625 41.375 12.890625 
Q 45.40625 18.265625 45.40625 27.984375 
z
M 54.390625 6.78125 
Q 54.390625 -7.171875 48.1875 -13.984375 
Q 42 -20.796875 29.203125 -20.796875 
Q 24.46875 -20.796875 20.265625 -20.09375 
Q 16.0625 -19.390625 12.109375 -17.921875 
L 12.109375 -9.1875 
Q 16.0625 -11.328125 19.921875 -12.34375 
Q 23.78125 -13.375 27.78125 -13.375 
Q 36.625 -13.375 41.015625 -8.765625 
Q 45.40625 -4.15625 45.40625 5.171875 
L 45.40625 9.625 
Q 42.625 4.78125 38.28125 2.390625 
Q 33.9375 0 27.875 0 
Q 17.828125 0 11.671875 7.65625 
Q 5.515625 15.328125 5.515625 27.984375 
Q 5.515625 40.671875 11.671875 48.328125 
Q 17.828125 56 27.875 56 
Q 33.9375 56 38.28125 53.609375 
Q 42.625 51.21875 45.40625 46.390625 
L 45.40625 54.6875 
L 54.390625 54.6875 
z
" id="DejaVuSans-103"/>
       <path d="M 32.171875 -5.078125 
Q 28.375 -14.84375 24.75 -17.8125 
Q 21.140625 -20.796875 15.09375 -20.796875 
L 7.90625 -20.796875 
L 7.90625 -13.28125 
L 13.1875 -13.28125 
Q 16.890625 -13.28125 18.9375 -11.515625 
Q 21 -9.765625 23.484375 -3.21875 
L 25.09375 0.875 
L 2.984375 54.6875 
L 12.5 54.6875 
L 29.59375 11.921875 
L 46.6875 54.6875 
L 56.203125 54.6875 
z
" id="DejaVuSans-121"/>
      </defs>
      <use xlink:href="#DejaVuSans-90"/>
      <use x="68.505859" xlink:href="#DejaVuSans-32"/>
      <use x="100.292969" xlink:href="#DejaVuSans-115"/>
      <use x="152.392578" xlink:href="#DejaVuSans-99"/>
      <use x="207.373047" xlink:href="#DejaVuSans-111"/>
      <use x="268.554688" xlink:href="#DejaVuSans-114"/>
      <use x="307.417969" xlink:href="#DejaVuSans-101"/>
      <use x="368.941406" xlink:href="#DejaVuSans-32"/>
      <use x="400.728516" xlink:href="#DejaVuSans-112"/>
      <use x="464.205078" xlink:href="#DejaVuSans-101"/>
      <use x="525.728516" xlink:href="#DejaVuSans-114"/>
      <use x="566.841797" xlink:href="#DejaVuSans-32"/>
      <use x="598.628906" xlink:href="#DejaVuSans-115"/>
      <use x="650.728516" xlink:href="#DejaVuSans-97"/>
      <use x="712.007812" xlink:href="#DejaVuSans-109"/>
      <use x="809.419922" xlink:href="#DejaVuSans-112"/>
      <use x="872.896484" xlink:href="#DejaVuSans-108"/>
      <use x="900.679688" xlink:href="#DejaVuSans-101"/>
      <use x="962.203125" xlink:href="#DejaVuSans-47"/>
      <use x="995.894531" xlink:href="#DejaVuSans-111"/>
      <use x="1057.076172" xlink:href="#DejaVuSans-110"/>
      <use x="1120.455078" xlink:href="#DejaVuSans-116"/>
      <use x="1159.664062" xlink:href="#DejaVuSans-111"/>
      <use x="1220.845703" xlink:href="#DejaVuSans-108"/>
      <use x="1248.628906" xlink:href="#DejaVuSans-111"/>
      <use x="1309.810547" xlink:href="#DejaVuSans-103"/>
      <use x="1373.287109" xlink:href="#DejaVuSans-121"/>
     </g>
    </g>
   </g>
   <g id="matplotlib.axis_2">
    <g id="ytick_1">
     <g id="text_8">
      <!-- Astro -->
      <g transform="translate(35.2 40.571946)scale(0.1 -0.1)">
       <defs>
        <path d="M 34.1875 63.1875 
L 20.796875 26.90625 
L 47.609375 26.90625 
z
M 28.609375 72.90625 
L 39.796875 72.90625 
L 67.578125 0 
L 57.328125 0 
L 50.6875 18.703125 
L 17.828125 18.703125 
L 11.1875 0 
L 0.78125 0 
z
" id="DejaVuSans-65"/>
       </defs>
       <use xlink:href="#DejaVuSans-65"/>
       <use x="68.408203" xlink:href="#DejaVuSans-115"/>
       <use x="120.507812" xlink:href="#DejaVuSans-116"/>
       <use x="159.716797" xlink:href="#DejaVuSans-114"/>
       <use x="198.580078" xlink:href="#DejaVuSans-111"/>
      </g>
     </g>
    </g>
    <g id="ytick_2">
     <g id="text_9">
      <!-- OPC -->
      <g transform="translate(40.290625 60.517401)scale(0.1 -0.1)">
       <defs>
        <path d="M 39.40625 66.21875 
Q 28.65625 66.21875 22.328125 58.203125 
Q 16.015625 50.203125 16.015625 36.375 
Q 16.015625 22.609375 22.328125 14.59375 
Q 28.65625 6.59375 39.40625 6.59375 
Q 50.140625 6.59375 56.421875 14.59375 
Q 62.703125 22.609375 62.703125 36.375 
Q 62.703125 50.203125 56.421875 58.203125 
Q 50.140625 66.21875 39.40625 66.21875 
z
M 39.40625 74.21875 
Q 54.734375 74.21875 63.90625 63.9375 
Q 73.09375 53.65625 73.09375 36.375 
Q 73.09375 19.140625 63.90625 8.859375 
Q 54.734375 -1.421875 39.40625 -1.421875 
Q 24.03125 -1.421875 14.8125 8.828125 
Q 5.609375 19.09375 5.609375 36.375 
Q 5.609375 53.65625 14.8125 63.9375 
Q 24.03125 74.21875 39.40625 74.21875 
z
" id="DejaVuSans-79"/>
        <path d="M 19.671875 64.796875 
L 19.671875 37.40625 
L 32.078125 37.40625 
Q 38.96875 37.40625 42.71875 40.96875 
Q 46.484375 44.53125 46.484375 51.125 
Q 46.484375 57.671875 42.71875 61.234375 
Q 38.96875 64.796875 32.078125 64.796875 
z
M 9.8125 72.90625 
L 32.078125 72.90625 
Q 44.34375 72.90625 50.609375 67.359375 
Q 56.890625 61.8125 56.890625 51.125 
Q 56.890625 40.328125 50.609375 34.8125 
Q 44.34375 29.296875 32.078125 29.296875 
L 19.671875 29.296875 
L 19.671875 0 
L 9.8125 0 
z
" id="DejaVuSans-80"/>
        <path d="M 64.40625 67.28125 
L 64.40625 56.890625 
Q 59.421875 61.53125 53.78125 63.8125 
Q 48.140625 66.109375 41.796875 66.109375 
Q 29.296875 66.109375 22.65625 58.46875 
Q 16.015625 50.828125 16.015625 36.375 
Q 16.015625 21.96875 22.65625 14.328125 
Q 29.296875 6.6875 41.796875 6.6875 
Q 48.140625 6.6875 53.78125 8.984375 
Q 59.421875 11.28125 64.40625 15.921875 
L 64.40625 5.609375 
Q 59.234375 2.09375 53.4375 0.328125 
Q 47.65625 -1.421875 41.21875 -1.421875 
Q 24.65625 -1.421875 15.125 8.703125 
Q 5.609375 18.84375 5.609375 36.375 
Q 5.609375 53.953125 15.125 64.078125 
Q 24.65625 74.21875 41.21875 74.21875 
Q 47.75 74.21875 53.53125 72.484375 
Q 59.328125 70.75 64.40625 67.28125 
z
" id="DejaVuSans-67"/>
       </defs>
       <use xlink:href="#DejaVuSans-79"/>
       <use x="78.710938" xlink:href="#DejaVuSans-80"/>
       <use x="139.013672" xlink:href="#DejaVuSans-67"/>
      </g>
     </g>
    </g>
    <g id="ytick_3">
     <g id="text_10">
      <!-- L5 ET -->
      <g transform="translate(33.635937 80.462855)scale(0.1 -0.1)">
       <defs>
        <path d="M 9.8125 72.90625 
L 19.671875 72.90625 
L 19.671875 8.296875 
L 55.171875 8.296875 
L 55.171875 0 
L 9.8125 0 
z
" id="DejaVuSans-76"/>
        <path d="M 10.796875 72.90625 
L 49.515625 72.90625 
L 49.515625 64.59375 
L 19.828125 64.59375 
L 19.828125 46.734375 
Q 21.96875 47.46875 24.109375 47.828125 
Q 26.265625 48.1875 28.421875 48.1875 
Q 40.625 48.1875 47.75 41.5 
Q 54.890625 34.8125 54.890625 23.390625 
Q 54.890625 11.625 47.5625 5.09375 
Q 40.234375 -1.421875 26.90625 -1.421875 
Q 22.3125 -1.421875 17.546875 -0.640625 
Q 12.796875 0.140625 7.71875 1.703125 
L 7.71875 11.625 
Q 12.109375 9.234375 16.796875 8.0625 
Q 21.484375 6.890625 26.703125 6.890625 
Q 35.15625 6.890625 40.078125 11.328125 
Q 45.015625 15.765625 45.015625 23.390625 
Q 45.015625 31 40.078125 35.4375 
Q 35.15625 39.890625 26.703125 39.890625 
Q 22.75 39.890625 18.8125 39.015625 
Q 14.890625 38.140625 10.796875 36.28125 
z
" id="DejaVuSans-53"/>
        <path d="M 9.8125 72.90625 
L 55.90625 72.90625 
L 55.90625 64.59375 
L 19.671875 64.59375 
L 19.671875 43.015625 
L 54.390625 43.015625 
L 54.390625 34.71875 
L 19.671875 34.71875 
L 19.671875 8.296875 
L 56.78125 8.296875 
L 56.78125 0 
L 9.8125 0 
z
" id="DejaVuSans-69"/>
        <path d="M -0.296875 72.90625 
L 61.375 72.90625 
L 61.375 64.59375 
L 35.5 64.59375 
L 35.5 0 
L 25.59375 0 
L 25.59375 64.59375 
L -0.296875 64.59375 
z
" id="DejaVuSans-84"/>
       </defs>
       <use xlink:href="#DejaVuSans-76"/>
       <use x="55.712891" xlink:href="#DejaVuSans-53"/>
       <use x="119.335938" xlink:href="#DejaVuSans-32"/>
       <use x="151.123047" xlink:href="#DejaVuSans-69"/>
       <use x="214.306641" xlink:href="#DejaVuSans-84"/>
      </g>
     </g>
    </g>
    <g id="ytick_4">
     <g id="text_11">
      <!-- L6 IT -->
      <g transform="translate(37.004687 100.40831)scale(0.1 -0.1)">
       <defs>
        <path d="M 9.8125 72.90625 
L 19.671875 72.90625 
L 19.671875 0 
L 9.8125 0 
z
" id="DejaVuSans-73"/>
       </defs>
       <use xlink:href="#DejaVuSans-76"/>
       <use x="55.712891" xlink:href="#DejaVuSans-54"/>
       <use x="119.335938" xlink:href="#DejaVuSans-32"/>
       <use x="151.123047" xlink:href="#DejaVuSans-73"/>
       <use x="180.615234" xlink:href="#DejaVuSans-84"/>
      </g>
     </g>
    </g>
    <g id="ytick_5">
     <g id="text_12">
      <!-- Lamp5 -->
      <g transform="translate(27.023437 120.353764)scale(0.1 -0.1)">
       <use xlink:href="#DejaVuSans-76"/>
       <use x="55.712891" xlink:href="#DejaVuSans-97"/>
       <use x="116.992188" xlink:href="#DejaVuSans-109"/>
       <use x="214.404297" xlink:href="#DejaVuSans-112"/>
       <use x="277.880859" xlink:href="#DejaVuSans-53"/>
      </g>
     </g>
    </g>
    <g id="ytick_6">
     <g id="text_13">
      <!-- L6 IT Car3 -->
      <g transform="translate(10.242187 140.299219)scale(0.1 -0.1)">
       <defs>
        <path d="M 40.578125 39.3125 
Q 47.65625 37.796875 51.625 33 
Q 55.609375 28.21875 55.609375 21.1875 
Q 55.609375 10.40625 48.1875 4.484375 
Q 40.765625 -1.421875 27.09375 -1.421875 
Q 22.515625 -1.421875 17.65625 -0.515625 
Q 12.796875 0.390625 7.625 2.203125 
L 7.625 11.71875 
Q 11.71875 9.328125 16.59375 8.109375 
Q 21.484375 6.890625 26.8125 6.890625 
Q 36.078125 6.890625 40.9375 10.546875 
Q 45.796875 14.203125 45.796875 21.1875 
Q 45.796875 27.640625 41.28125 31.265625 
Q 36.765625 34.90625 28.71875 34.90625 
L 20.21875 34.90625 
L 20.21875 43.015625 
L 29.109375 43.015625 
Q 36.375 43.015625 40.234375 45.921875 
Q 44.09375 48.828125 44.09375 54.296875 
Q 44.09375 59.90625 40.109375 62.90625 
Q 36.140625 65.921875 28.71875 65.921875 
Q 24.65625 65.921875 20.015625 65.03125 
Q 15.375 64.15625 9.8125 62.3125 
L 9.8125 71.09375 
Q 15.4375 72.65625 20.34375 73.4375 
Q 25.25 74.21875 29.59375 74.21875 
Q 40.828125 74.21875 47.359375 69.109375 
Q 53.90625 64.015625 53.90625 55.328125 
Q 53.90625 49.265625 50.4375 45.09375 
Q 46.96875 40.921875 40.578125 39.3125 
z
" id="DejaVuSans-51"/>
       </defs>
       <use xlink:href="#DejaVuSans-76"/>
       <use x="55.712891" xlink:href="#DejaVuSans-54"/>
       <use x="119.335938" xlink:href="#DejaVuSans-32"/>
       <use x="151.123047" xlink:href="#DejaVuSans-73"/>
       <use x="180.615234" xlink:href="#DejaVuSans-84"/>
       <use x="241.699219" xlink:href="#DejaVuSans-32"/>
       <use x="273.486328" xlink:href="#DejaVuSans-67"/>
       <use x="343.310547" xlink:href="#DejaVuSans-97"/>
       <use x="404.589844" xlink:href="#DejaVuSans-114"/>
       <use x="445.703125" xlink:href="#DejaVuSans-51"/>
      </g>
     </g>
    </g>
    <g id="ytick_7">
     <g id="text_14">
      <!-- L6 CT -->
      <g transform="translate(32.971875 160.244673)scale(0.1 -0.1)">
       <use xlink:href="#DejaVuSans-76"/>
       <use x="55.712891" xlink:href="#DejaVuSans-54"/>
       <use x="119.335938" xlink:href="#DejaVuSans-32"/>
       <use x="151.123047" xlink:href="#DejaVuSans-67"/>
       <use x="220.947266" xlink:href="#DejaVuSans-84"/>
      </g>
     </g>
    </g>
    <g id="ytick_8">
     <g id="text_15">
      <!-- L2/3 IT -->
      <g transform="translate(27.273437 180.190128)scale(0.1 -0.1)">
       <use xlink:href="#DejaVuSans-76"/>
       <use x="55.712891" xlink:href="#DejaVuSans-50"/>
       <use x="119.335938" xlink:href="#DejaVuSans-47"/>
       <use x="153.027344" xlink:href="#DejaVuSans-51"/>
       <use x="216.650391" xlink:href="#DejaVuSans-32"/>
       <use x="248.4375" xlink:href="#DejaVuSans-73"/>
       <use x="277.929688" xlink:href="#DejaVuSans-84"/>
      </g>
     </g>
    </g>
    <g id="ytick_9">
     <g id="text_16">
      <!-- Oligo -->
      <g transform="translate(35.279687 200.135582)scale(0.1 -0.1)">
       <defs>
        <path d="M 9.421875 54.6875 
L 18.40625 54.6875 
L 18.40625 0 
L 9.421875 0 
z
M 9.421875 75.984375 
L 18.40625 75.984375 
L 18.40625 64.59375 
L 9.421875 64.59375 
z
" id="DejaVuSans-105"/>
       </defs>
       <use xlink:href="#DejaVuSans-79"/>
       <use x="78.710938" xlink:href="#DejaVuSans-108"/>
       <use x="106.494141" xlink:href="#DejaVuSans-105"/>
       <use x="134.277344" xlink:href="#DejaVuSans-103"/>
       <use x="197.753906" xlink:href="#DejaVuSans-111"/>
      </g>
     </g>
    </g>
    <g id="ytick_10">
     <g id="text_17">
      <!-- L5 IT -->
      <g transform="translate(37.004687 220.081037)scale(0.1 -0.1)">
       <use xlink:href="#DejaVuSans-76"/>
       <use x="55.712891" xlink:href="#DejaVuSans-53"/>
       <use x="119.335938" xlink:href="#DejaVuSans-32"/>
       <use x="151.123047" xlink:href="#DejaVuSans-73"/>
       <use x="180.615234" xlink:href="#DejaVuSans-84"/>
      </g>
     </g>
    </g>
    <g id="ytick_11">
     <g id="text_18">
      <!-- Pvalb -->
      <g transform="translate(33.971875 240.026491)scale(0.1 -0.1)">
       <defs>
        <path d="M 2.984375 54.6875 
L 12.5 54.6875 
L 29.59375 8.796875 
L 46.6875 54.6875 
L 56.203125 54.6875 
L 35.6875 0 
L 23.484375 0 
z
" id="DejaVuSans-118"/>
        <path d="M 48.6875 27.296875 
Q 48.6875 37.203125 44.609375 42.84375 
Q 40.53125 48.484375 33.40625 48.484375 
Q 26.265625 48.484375 22.1875 42.84375 
Q 18.109375 37.203125 18.109375 27.296875 
Q 18.109375 17.390625 22.1875 11.75 
Q 26.265625 6.109375 33.40625 6.109375 
Q 40.53125 6.109375 44.609375 11.75 
Q 48.6875 17.390625 48.6875 27.296875 
z
M 18.109375 46.390625 
Q 20.953125 51.265625 25.265625 53.625 
Q 29.59375 56 35.59375 56 
Q 45.5625 56 51.78125 48.09375 
Q 58.015625 40.1875 58.015625 27.296875 
Q 58.015625 14.40625 51.78125 6.484375 
Q 45.5625 -1.421875 35.59375 -1.421875 
Q 29.59375 -1.421875 25.265625 0.953125 
Q 20.953125 3.328125 18.109375 8.203125 
L 18.109375 0 
L 9.078125 0 
L 9.078125 75.984375 
L 18.109375 75.984375 
z
" id="DejaVuSans-98"/>
       </defs>
       <use xlink:href="#DejaVuSans-80"/>
       <use x="60.302734" xlink:href="#DejaVuSans-118"/>
       <use x="119.482422" xlink:href="#DejaVuSans-97"/>
       <use x="180.761719" xlink:href="#DejaVuSans-108"/>
       <use x="208.544922" xlink:href="#DejaVuSans-98"/>
      </g>
     </g>
    </g>
   </g>
   <g id="line2d_1">
    <path clip-path="url(#pbab233945e)" d="M 211.279608 246.2 
L 211.279608 26.8 
" style="fill:none;stroke:#808080;stroke-dasharray:5.55,2.4;stroke-dashoffset:0;stroke-width:1.5;"/>
   </g>
   <g id="patch_15">
    <path d="M 68.175 246.2 
L 68.175 26.8 
" style="fill:none;stroke:#000000;stroke-linecap:square;stroke-linejoin:miter;stroke-width:0.8;"/>
   </g>
   <g id="PathCollection_7">
    <defs>
     <path d="M 0 2.5 
C 0.663008 2.5 1.29895 2.236584 1.767767 1.767767 
C 2.236584 1.29895 2.5 0.663008 2.5 -0 
C 2.5 -0.663008 2.236584 -1.29895 1.767767 -1.767767 
C 1.29895 -2.236584 0.663008 -2.5 0 -2.5 
C -0.663008 -2.5 -1.29895 -2.236584 -1.767767 -1.767767 
C -2.236584 -1.29895 -2.5 -0.663008 -2.5 0 
C -2.5 0.663008 -2.236584 1.29895 -1.767767 1.767767 
C -1.29895 2.236584 -0.663008 2.5 0 2.5 
z
" id="C0_0_0645c52197"/>
    </defs>
    <g clip-path="url(#pbab233945e)">
     <use style="fill:#dbe9f6;" x="127.097804" xlink:href="#C0_0_0645c52197" y="36.164067"/>
    </g>
    <g clip-path="url(#pbab233945e)">
     <use style="fill:#2b7bba;" x="165.848375" xlink:href="#C0_0_0645c52197" y="36.125029"/>
    </g>
    <g clip-path="url(#pbab233945e)">
     <use style="fill:#539ecd;" x="159.406444" xlink:href="#C0_0_0645c52197" y="35.032573"/>
    </g>
    <g clip-path="url(#pbab233945e)">
     <use style="fill:#bad6eb;" x="135.32462" xlink:href="#C0_0_0645c52197" y="38.211256"/>
    </g>
    <g clip-path="url(#pbab233945e)">
     <use style="fill:#dbe9f6;" x="119.029552" xlink:href="#C0_0_0645c52197" y="36.284798"/>
    </g>
    <g clip-path="url(#pbab233945e)">
     <use style="fill:#0b559f;" x="158.087236" xlink:href="#C0_0_0645c52197" y="37.695123"/>
    </g>
    <g clip-path="url(#pbab233945e)">
     <use style="fill:#2b7bba;" x="118.832766" xlink:href="#C0_0_0645c52197" y="35.119389"/>
    </g>
    <g clip-path="url(#pbab233945e)">
     <use style="fill:#539ecd;" x="79.699318" xlink:href="#C0_0_0645c52197" y="36.232323"/>
    </g>
    <g clip-path="url(#pbab233945e)">
     <use style="fill:#89bedc;" x="106.505831" xlink:href="#C0_0_0645c52197" y="37.197788"/>
    </g>
    <g clip-path="url(#pbab233945e)">
     <use style="fill:#0b559f;" x="169.992677" xlink:href="#C0_0_0645c52197" y="37.375144"/>
    </g>
    <g clip-path="url(#pbab233945e)">
     <use style="fill:#bad6eb;" x="102.780498" xlink:href="#C0_0_0645c52197" y="35.14271"/>
    </g>
   </g>
   <g id="PathCollection_8">
    <defs>
     <path d="M 0 2.5 
C 0.663008 2.5 1.29895 2.236584 1.767767 1.767767 
C 2.236584 1.29895 2.5 0.663008 2.5 -0 
C 2.5 -0.663008 2.236584 -1.29895 1.767767 -1.767767 
C 1.29895 -2.236584 0.663008 -2.5 0 -2.5 
C -0.663008 -2.5 -1.29895 -2.236584 -1.767767 -1.767767 
C -2.236584 -1.29895 -2.5 -0.663008 -2.5 0 
C -2.5 0.663008 -2.236584 1.29895 -1.767767 1.767767 
C -1.29895 2.236584 -0.663008 2.5 0 2.5 
z
" id="C1_0_0a78441d35"/>
    </defs>
    <g clip-path="url(#pbab233945e)">
     <use style="fill:#2b7bba;" x="198.873905" xlink:href="#C1_0_0a78441d35" y="57.894263"/>
    </g>
    <g clip-path="url(#pbab233945e)">
     <use style="fill:#539ecd;" x="181.043224" xlink:href="#C1_0_0a78441d35" y="57.758337"/>
    </g>
    <g clip-path="url(#pbab233945e)">
     <use style="fill:#0b559f;" x="173.907648" xlink:href="#C1_0_0a78441d35" y="56.516263"/>
    </g>
    <g clip-path="url(#pbab233945e)">
     <use style="fill:#539ecd;" x="212.051647" xlink:href="#C1_0_0a78441d35" y="57.829906"/>
    </g>
    <g clip-path="url(#pbab233945e)">
     <use style="fill:#dbe9f6;" x="226.866888" xlink:href="#C1_0_0a78441d35" y="55.043387"/>
    </g>
    <g clip-path="url(#pbab233945e)">
     <use style="fill:#bad6eb;" x="188.36158" xlink:href="#C1_0_0a78441d35" y="57.738659"/>
    </g>
    <g clip-path="url(#pbab233945e)">
     <use style="fill:#89bedc;" x="199.915595" xlink:href="#C1_0_0a78441d35" y="55.469271"/>
    </g>
    <g clip-path="url(#pbab233945e)">
     <use style="fill:#bad6eb;" x="182.051852" xlink:href="#C1_0_0a78441d35" y="57.768856"/>
    </g>
    <g clip-path="url(#pbab233945e)">
     <use style="fill:#2b7bba;" x="178.529223" xlink:href="#C1_0_0a78441d35" y="58.042016"/>
    </g>
    <g clip-path="url(#pbab233945e)">
     <use style="fill:#0b559f;" x="194.9412" xlink:href="#C1_0_0a78441d35" y="57.072467"/>
    </g>
   </g>
   <g id="PathCollection_9">
    <defs>
     <path d="M 0 2.5 
C 0.663008 2.5 1.29895 2.236584 1.767767 1.767767 
C 2.236584 1.29895 2.5 0.663008 2.5 -0 
C 2.5 -0.663008 2.236584 -1.29895 1.767767 -1.767767 
C 1.29895 -2.236584 0.663008 -2.5 0 -2.5 
C -0.663008 -2.5 -1.29895 -2.236584 -1.767767 -1.767767 
C -2.236584 -1.29895 -2.5 -0.663008 -2.5 0 
C -2.5 0.663008 -2.236584 1.29895 -1.767767 1.767767 
C -1.29895 2.236584 -0.663008 2.5 0 2.5 
z
" id="C2_0_8eb6e90837"/>
    </defs>
    <g clip-path="url(#pbab233945e)">
     <use style="fill:#89bedc;" x="150.762409" xlink:href="#C2_0_8eb6e90837" y="76.401341"/>
    </g>
    <g clip-path="url(#pbab233945e)">
     <use style="fill:#89bedc;" x="223.494864" xlink:href="#C2_0_8eb6e90837" y="76.934617"/>
    </g>
    <g clip-path="url(#pbab233945e)">
     <use style="fill:#0b559f;" x="230.561673" xlink:href="#C2_0_8eb6e90837" y="75.856875"/>
    </g>
    <g clip-path="url(#pbab233945e)">
     <use style="fill:#0b559f;" x="228.026218" xlink:href="#C2_0_8eb6e90837" y="78.566618"/>
    </g>
    <g clip-path="url(#pbab233945e)">
     <use style="fill:#2b7bba;" x="234.283961" xlink:href="#C2_0_8eb6e90837" y="76.237608"/>
    </g>
    <g clip-path="url(#pbab233945e)">
     <use style="fill:#539ecd;" x="102.297986" xlink:href="#C2_0_8eb6e90837" y="76.970178"/>
    </g>
    <g clip-path="url(#pbab233945e)">
     <use style="fill:#dbe9f6;" x="222.824712" xlink:href="#C2_0_8eb6e90837" y="78.302141"/>
    </g>
    <g clip-path="url(#pbab233945e)">
     <use style="fill:#bad6eb;" x="238.00298" xlink:href="#C2_0_8eb6e90837" y="75.054132"/>
    </g>
    <g clip-path="url(#pbab233945e)">
     <use style="fill:#539ecd;" x="261.693549" xlink:href="#C2_0_8eb6e90837" y="76.517954"/>
    </g>
    <g clip-path="url(#pbab233945e)">
     <use style="fill:#bad6eb;" x="205.077544" xlink:href="#C2_0_8eb6e90837" y="77.403919"/>
    </g>
    <g clip-path="url(#pbab233945e)">
     <use style="fill:#dbe9f6;" x="175.682507" xlink:href="#C2_0_8eb6e90837" y="75.883071"/>
    </g>
    <g clip-path="url(#pbab233945e)">
     <use style="fill:#2b7bba;" x="137.863274" xlink:href="#C2_0_8eb6e90837" y="77.962563"/>
    </g>
   </g>
   <g id="PathCollection_10">
    <defs>
     <path d="M 0 2.5 
C 0.663008 2.5 1.29895 2.236584 1.767767 1.767767 
C 2.236584 1.29895 2.5 0.663008 2.5 -0 
C 2.5 -0.663008 2.236584 -1.29895 1.767767 -1.767767 
C 1.29895 -2.236584 0.663008 -2.5 0 -2.5 
C -0.663008 -2.5 -1.29895 -2.236584 -1.767767 -1.767767 
C -2.236584 -1.29895 -2.5 -0.663008 -2.5 0 
C -2.5 0.663008 -2.236584 1.29895 -1.767767 1.767767 
C -1.29895 2.236584 -0.663008 2.5 0 2.5 
z
" id="C3_0_056870733a"/>
    </defs>
    <g clip-path="url(#pbab233945e)">
     <use style="fill:#dbe9f6;" x="207.369907" xlink:href="#C3_0_056870733a" y="97.386359"/>
    </g>
    <g clip-path="url(#pbab233945e)">
     <use style="fill:#2b7bba;" x="178.044214" xlink:href="#C3_0_056870733a" y="97.315987"/>
    </g>
    <g clip-path="url(#pbab233945e)">
     <use style="fill:#539ecd;" x="223.888258" xlink:href="#C3_0_056870733a" y="97.706575"/>
    </g>
    <g clip-path="url(#pbab233945e)">
     <use style="fill:#bad6eb;" x="243.743407" xlink:href="#C3_0_056870733a" y="98.412407"/>
    </g>
    <g clip-path="url(#pbab233945e)">
     <use style="fill:#bad6eb;" x="231.444074" xlink:href="#C3_0_056870733a" y="97.074728"/>
    </g>
    <g clip-path="url(#pbab233945e)">
     <use style="fill:#539ecd;" x="196.175018" xlink:href="#C3_0_056870733a" y="97.523869"/>
    </g>
    <g clip-path="url(#pbab233945e)">
     <use style="fill:#89bedc;" x="241.574524" xlink:href="#C3_0_056870733a" y="96.642341"/>
    </g>
    <g clip-path="url(#pbab233945e)">
     <use style="fill:#2b7bba;" x="217.150473" xlink:href="#C3_0_056870733a" y="95.964828"/>
    </g>
    <g clip-path="url(#pbab233945e)">
     <use style="fill:#0b559f;" x="209.401998" xlink:href="#C3_0_056870733a" y="95.308308"/>
    </g>
   </g>
   <g id="PathCollection_11">
    <defs>
     <path d="M 0 2.5 
C 0.663008 2.5 1.29895 2.236584 1.767767 1.767767 
C 2.236584 1.29895 2.5 0.663008 2.5 -0 
C 2.5 -0.663008 2.236584 -1.29895 1.767767 -1.767767 
C 1.29895 -2.236584 0.663008 -2.5 0 -2.5 
C -0.663008 -2.5 -1.29895 -2.236584 -1.767767 -1.767767 
C -2.236584 -1.29895 -2.5 -0.663008 -2.5 0 
C -2.5 0.663008 -2.236584 1.29895 -1.767767 1.767767 
C -1.29895 2.236584 -0.663008 2.5 0 2.5 
z
" id="C4_0_7b699dd37e"/>
    </defs>
    <g clip-path="url(#pbab233945e)">
     <use style="fill:#0b559f;" x="225.702898" xlink:href="#C4_0_7b699dd37e" y="116.011431"/>
    </g>
    <g clip-path="url(#pbab233945e)">
     <use style="fill:#0b559f;" x="195.650884" xlink:href="#C4_0_7b699dd37e" y="115.815293"/>
    </g>
    <g clip-path="url(#pbab233945e)">
     <use style="fill:#dbe9f6;" x="239.898244" xlink:href="#C4_0_7b699dd37e" y="114.848017"/>
    </g>
    <g clip-path="url(#pbab233945e)">
     <use style="fill:#bad6eb;" x="260.282576" xlink:href="#C4_0_7b699dd37e" y="114.584612"/>
    </g>
    <g clip-path="url(#pbab233945e)">
     <use style="fill:#539ecd;" x="193.257042" xlink:href="#C4_0_7b699dd37e" y="116.121008"/>
    </g>
    <g clip-path="url(#pbab233945e)">
     <use style="fill:#539ecd;" x="201.016198" xlink:href="#C4_0_7b699dd37e" y="117.573574"/>
    </g>
    <g clip-path="url(#pbab233945e)">
     <use style="fill:#2b7bba;" x="233.815076" xlink:href="#C4_0_7b699dd37e" y="115.635967"/>
    </g>
    <g clip-path="url(#pbab233945e)">
     <use style="fill:#bad6eb;" x="229.471139" xlink:href="#C4_0_7b699dd37e" y="115.696413"/>
    </g>
    <g clip-path="url(#pbab233945e)">
     <use style="fill:#2b7bba;" x="232.489899" xlink:href="#C4_0_7b699dd37e" y="115.799159"/>
    </g>
    <g clip-path="url(#pbab233945e)">
     <use style="fill:#89bedc;" x="173.30774" xlink:href="#C4_0_7b699dd37e" y="116.759973"/>
    </g>
   </g>
   <g id="PathCollection_12">
    <defs>
     <path d="M 0 2.5 
C 0.663008 2.5 1.29895 2.236584 1.767767 1.767767 
C 2.236584 1.29895 2.5 0.663008 2.5 -0 
C 2.5 -0.663008 2.236584 -1.29895 1.767767 -1.767767 
C 1.29895 -2.236584 0.663008 -2.5 0 -2.5 
C -0.663008 -2.5 -1.29895 -2.236584 -1.767767 -1.767767 
C -2.236584 -1.29895 -2.5 -0.663008 -2.5 0 
C -2.5 0.663008 -2.236584 1.29895 -1.767767 1.767767 
C -1.29895 2.236584 -0.663008 2.5 0 2.5 
z
" id="C5_0_b4bd239024"/>
    </defs>
    <g clip-path="url(#pbab233945e)">
     <use style="fill:#bad6eb;" x="217.479607" xlink:href="#C5_0_b4bd239024" y="137.702591"/>
    </g>
    <g clip-path="url(#pbab233945e)">
     <use style="fill:#539ecd;" x="247.40361" xlink:href="#C5_0_b4bd239024" y="138.135177"/>
    </g>
    <g clip-path="url(#pbab233945e)">
     <use style="fill:#539ecd;" x="229.240858" xlink:href="#C5_0_b4bd239024" y="134.63033"/>
    </g>
   </g>
   <g id="PathCollection_13">
    <defs>
     <path d="M 0 2.5 
C 0.663008 2.5 1.29895 2.236584 1.767767 1.767767 
C 2.236584 1.29895 2.5 0.663008 2.5 -0 
C 2.5 -0.663008 2.236584 -1.29895 1.767767 -1.767767 
C 1.29895 -2.236584 0.663008 -2.5 0 -2.5 
C -0.663008 -2.5 -1.29895 -2.236584 -1.767767 -1.767767 
C -2.236584 -1.29895 -2.5 -0.663008 -2.5 0 
C -2.5 0.663008 -2.236584 1.29895 -1.767767 1.767767 
C -1.29895 2.236584 -0.663008 2.5 0 2.5 
z
" id="C6_0_d3ca461af4"/>
    </defs>
    <g clip-path="url(#pbab233945e)">
     <use style="fill:#2b7bba;" x="233.491857" xlink:href="#C6_0_d3ca461af4" y="157.878645"/>
    </g>
    <g clip-path="url(#pbab233945e)">
     <use style="fill:#539ecd;" x="224.001787" xlink:href="#C6_0_d3ca461af4" y="157.864639"/>
    </g>
    <g clip-path="url(#pbab233945e)">
     <use style="fill:#dbe9f6;" x="219.13862" xlink:href="#C6_0_d3ca461af4" y="157.189411"/>
    </g>
    <g clip-path="url(#pbab233945e)">
     <use style="fill:#89bedc;" x="244.619257" xlink:href="#C6_0_d3ca461af4" y="156.953953"/>
    </g>
    <g clip-path="url(#pbab233945e)">
     <use style="fill:#bad6eb;" x="243.630527" xlink:href="#C6_0_d3ca461af4" y="157.190437"/>
    </g>
    <g clip-path="url(#pbab233945e)">
     <use style="fill:#539ecd;" x="250.194097" xlink:href="#C6_0_d3ca461af4" y="156.839833"/>
    </g>
    <g clip-path="url(#pbab233945e)">
     <use style="fill:#0b559f;" x="257.411512" xlink:href="#C6_0_d3ca461af4" y="157.481229"/>
    </g>
    <g clip-path="url(#pbab233945e)">
     <use style="fill:#0b559f;" x="251.496991" xlink:href="#C6_0_d3ca461af4" y="157.634256"/>
    </g>
    <g clip-path="url(#pbab233945e)">
     <use style="fill:#2b7bba;" x="282.414247" xlink:href="#C6_0_d3ca461af4" y="154.667655"/>
    </g>
    <g clip-path="url(#pbab233945e)">
     <use style="fill:#bad6eb;" x="273.454482" xlink:href="#C6_0_d3ca461af4" y="154.800021"/>
    </g>
    <g clip-path="url(#pbab233945e)">
     <use style="fill:#89bedc;" x="211.337385" xlink:href="#C6_0_d3ca461af4" y="155.815966"/>
    </g>
   </g>
   <g id="PathCollection_14">
    <defs>
     <path d="M 0 2.5 
C 0.663008 2.5 1.29895 2.236584 1.767767 1.767767 
C 2.236584 1.29895 2.5 0.663008 2.5 -0 
C 2.5 -0.663008 2.236584 -1.29895 1.767767 -1.767767 
C 1.29895 -2.236584 0.663008 -2.5 0 -2.5 
C -0.663008 -2.5 -1.29895 -2.236584 -1.767767 -1.767767 
C -2.236584 -1.29895 -2.5 -0.663008 -2.5 0 
C -2.5 0.663008 -2.236584 1.29895 -1.767767 1.767767 
C -1.29895 2.236584 -0.663008 2.5 0 2.5 
z
" id="C7_0_dabadafe03"/>
    </defs>
    <g clip-path="url(#pbab233945e)">
     <use style="fill:#539ecd;" x="284.887421" xlink:href="#C7_0_dabadafe03" y="177.718157"/>
    </g>
    <g clip-path="url(#pbab233945e)">
     <use style="fill:#89bedc;" x="207.697101" xlink:href="#C7_0_dabadafe03" y="177.96881"/>
    </g>
    <g clip-path="url(#pbab233945e)">
     <use style="fill:#89bedc;" x="230.67407" xlink:href="#C7_0_dabadafe03" y="175.29027"/>
    </g>
    <g clip-path="url(#pbab233945e)">
     <use style="fill:#2b7bba;" x="229.558476" xlink:href="#C7_0_dabadafe03" y="175.892087"/>
    </g>
    <g clip-path="url(#pbab233945e)">
     <use style="fill:#bad6eb;" x="297.205846" xlink:href="#C7_0_dabadafe03" y="175.368001"/>
    </g>
    <g clip-path="url(#pbab233945e)">
     <use style="fill:#dbe9f6;" x="285.808714" xlink:href="#C7_0_dabadafe03" y="177.233701"/>
    </g>
    <g clip-path="url(#pbab233945e)">
     <use style="fill:#0b559f;" x="209.379359" xlink:href="#C7_0_dabadafe03" y="175.011444"/>
    </g>
    <g clip-path="url(#pbab233945e)">
     <use style="fill:#0b559f;" x="251.735463" xlink:href="#C7_0_dabadafe03" y="174.449758"/>
    </g>
    <g clip-path="url(#pbab233945e)">
     <use style="fill:#2b7bba;" x="237.588045" xlink:href="#C7_0_dabadafe03" y="174.847247"/>
    </g>
    <g clip-path="url(#pbab233945e)">
     <use style="fill:#dbe9f6;" x="225.752279" xlink:href="#C7_0_dabadafe03" y="176.881506"/>
    </g>
    <g clip-path="url(#pbab233945e)">
     <use style="fill:#bad6eb;" x="298.447551" xlink:href="#C7_0_dabadafe03" y="174.81048"/>
    </g>
    <g clip-path="url(#pbab233945e)">
     <use style="fill:#539ecd;" x="250.337092" xlink:href="#C7_0_dabadafe03" y="177.470218"/>
    </g>
   </g>
   <g id="PathCollection_15">
    <defs>
     <path d="M 0 2.5 
C 0.663008 2.5 1.29895 2.236584 1.767767 1.767767 
C 2.236584 1.29895 2.5 0.663008 2.5 -0 
C 2.5 -0.663008 2.236584 -1.29895 1.767767 -1.767767 
C 1.29895 -2.236584 0.663008 -2.5 0 -2.5 
C -0.663008 -2.5 -1.29895 -2.236584 -1.767767 -1.767767 
C -2.236584 -1.29895 -2.5 -0.663008 -2.5 0 
C -2.5 0.663008 -2.236584 1.29895 -1.767767 1.767767 
C -1.29895 2.236584 -0.663008 2.5 0 2.5 
z
" id="C8_0_371f4f7311"/>
    </defs>
    <g clip-path="url(#pbab233945e)">
     <use style="fill:#539ecd;" x="298.318922" xlink:href="#C8_0_371f4f7311" y="196.491529"/>
    </g>
    <g clip-path="url(#pbab233945e)">
     <use style="fill:#89bedc;" x="257.606748" xlink:href="#C8_0_371f4f7311" y="195.832695"/>
    </g>
    <g clip-path="url(#pbab233945e)">
     <use style="fill:#0b559f;" x="246.535072" xlink:href="#C8_0_371f4f7311" y="195.85871"/>
    </g>
    <g clip-path="url(#pbab233945e)">
     <use style="fill:#bad6eb;" x="278.634125" xlink:href="#C8_0_371f4f7311" y="197.726758"/>
    </g>
    <g clip-path="url(#pbab233945e)">
     <use style="fill:#bad6eb;" x="240.368732" xlink:href="#C8_0_371f4f7311" y="196.03521"/>
    </g>
    <g clip-path="url(#pbab233945e)">
     <use style="fill:#89bedc;" x="206.297141" xlink:href="#C8_0_371f4f7311" y="197.81419"/>
    </g>
    <g clip-path="url(#pbab233945e)">
     <use style="fill:#539ecd;" x="254.358125" xlink:href="#C8_0_371f4f7311" y="195.887231"/>
    </g>
    <g clip-path="url(#pbab233945e)">
     <use style="fill:#2b7bba;" x="254.35127" xlink:href="#C8_0_371f4f7311" y="195.755866"/>
    </g>
    <g clip-path="url(#pbab233945e)">
     <use style="fill:#0b559f;" x="250.241108" xlink:href="#C8_0_371f4f7311" y="198.163668"/>
    </g>
    <g clip-path="url(#pbab233945e)">
     <use style="fill:#dbe9f6;" x="211.591141" xlink:href="#C8_0_371f4f7311" y="197.398061"/>
    </g>
    <g clip-path="url(#pbab233945e)">
     <use style="fill:#2b7bba;" x="274.583282" xlink:href="#C8_0_371f4f7311" y="195.649729"/>
    </g>
    <g clip-path="url(#pbab233945e)">
     <use style="fill:#dbe9f6;" x="275.997369" xlink:href="#C8_0_371f4f7311" y="197.170351"/>
    </g>
   </g>
   <g id="PathCollection_16">
    <defs>
     <path d="M 0 2.5 
C 0.663008 2.5 1.29895 2.236584 1.767767 1.767767 
C 2.236584 1.29895 2.5 0.663008 2.5 -0 
C 2.5 -0.663008 2.236584 -1.29895 1.767767 -1.767767 
C 1.29895 -2.236584 0.663008 -2.5 0 -2.5 
C -0.663008 -2.5 -1.29895 -2.236584 -1.767767 -1.767767 
C -2.236584 -1.29895 -2.5 -0.663008 -2.5 0 
C -2.5 0.663008 -2.236584 1.29895 -1.767767 1.767767 
C -1.29895 2.236584 -0.663008 2.5 0 2.5 
z
" id="C9_0_81f59485c3"/>
    </defs>
    <g clip-path="url(#pbab233945e)">
     <use style="fill:#0b559f;" x="246.285327" xlink:href="#C9_0_81f59485c3" y="217.876989"/>
    </g>
    <g clip-path="url(#pbab233945e)">
     <use style="fill:#89bedc;" x="261.433898" xlink:href="#C9_0_81f59485c3" y="217.381942"/>
    </g>
    <g clip-path="url(#pbab233945e)">
     <use style="fill:#2b7bba;" x="272.463508" xlink:href="#C9_0_81f59485c3" y="216.43182"/>
    </g>
    <g clip-path="url(#pbab233945e)">
     <use style="fill:#539ecd;" x="294.820131" xlink:href="#C9_0_81f59485c3" y="215.041812"/>
    </g>
    <g clip-path="url(#pbab233945e)">
     <use style="fill:#539ecd;" x="277.82436" xlink:href="#C9_0_81f59485c3" y="216.802326"/>
    </g>
    <g clip-path="url(#pbab233945e)">
     <use style="fill:#2b7bba;" x="257.25881" xlink:href="#C9_0_81f59485c3" y="215.262667"/>
    </g>
    <g clip-path="url(#pbab233945e)">
     <use style="fill:#dbe9f6;" x="192.583221" xlink:href="#C9_0_81f59485c3" y="217.91814"/>
    </g>
    <g clip-path="url(#pbab233945e)">
     <use style="fill:#89bedc;" x="248.138851" xlink:href="#C9_0_81f59485c3" y="214.490601"/>
    </g>
    <g clip-path="url(#pbab233945e)">
     <use style="fill:#bad6eb;" x="278.055499" xlink:href="#C9_0_81f59485c3" y="215.128823"/>
    </g>
    <g clip-path="url(#pbab233945e)">
     <use style="fill:#bad6eb;" x="280.0256" xlink:href="#C9_0_81f59485c3" y="214.479547"/>
    </g>
    <g clip-path="url(#pbab233945e)">
     <use style="fill:#dbe9f6;" x="262.006279" xlink:href="#C9_0_81f59485c3" y="216.617472"/>
    </g>
    <g clip-path="url(#pbab233945e)">
     <use style="fill:#0b559f;" x="205.189446" xlink:href="#C9_0_81f59485c3" y="215.714157"/>
    </g>
   </g>
   <g id="PathCollection_17">
    <defs>
     <path d="M 0 2.5 
C 0.663008 2.5 1.29895 2.236584 1.767767 1.767767 
C 2.236584 1.29895 2.5 0.663008 2.5 -0 
C 2.5 -0.663008 2.236584 -1.29895 1.767767 -1.767767 
C 1.29895 -2.236584 0.663008 -2.5 0 -2.5 
C -0.663008 -2.5 -1.29895 -2.236584 -1.767767 -1.767767 
C -2.236584 -1.29895 -2.5 -0.663008 -2.5 0 
C -2.5 0.663008 -2.236584 1.29895 -1.767767 1.767767 
C -1.29895 2.236584 -0.663008 2.5 0 2.5 
z
" id="Ca_0_05182816cc"/>
    </defs>
    <g clip-path="url(#pbab233945e)">
     <use style="fill:#0b559f;" x="205.184943" xlink:href="#Ca_0_05182816cc" y="235.407197"/>
    </g>
    <g clip-path="url(#pbab233945e)">
     <use style="fill:#539ecd;" x="310.185682" xlink:href="#Ca_0_05182816cc" y="236.513707"/>
    </g>
    <g clip-path="url(#pbab233945e)">
     <use style="fill:#bad6eb;" x="291.467441" xlink:href="#Ca_0_05182816cc" y="234.720789"/>
    </g>
    <g clip-path="url(#pbab233945e)">
     <use style="fill:#dbe9f6;" x="245.370973" xlink:href="#Ca_0_05182816cc" y="234.437702"/>
    </g>
    <g clip-path="url(#pbab233945e)">
     <use style="fill:#2b7bba;" x="296.876669" xlink:href="#Ca_0_05182816cc" y="237.635571"/>
    </g>
    <g clip-path="url(#pbab233945e)">
     <use style="fill:#539ecd;" x="259.598358" xlink:href="#Ca_0_05182816cc" y="235.598949"/>
    </g>
    <g clip-path="url(#pbab233945e)">
     <use style="fill:#89bedc;" x="206.290189" xlink:href="#Ca_0_05182816cc" y="234.550027"/>
    </g>
    <g clip-path="url(#pbab233945e)">
     <use style="fill:#bad6eb;" x="254.170768" xlink:href="#Ca_0_05182816cc" y="237.954772"/>
    </g>
    <g clip-path="url(#pbab233945e)">
     <use style="fill:#2b7bba;" x="238.997797" xlink:href="#Ca_0_05182816cc" y="237.355155"/>
    </g>
    <g clip-path="url(#pbab233945e)">
     <use style="fill:#0b559f;" x="257.884876" xlink:href="#Ca_0_05182816cc" y="238.20819"/>
    </g>
   </g>
   <g id="text_19">
    <!-- Cdh20 -->
    <g transform="translate(175.50625 20.8)scale(0.12 -0.12)">
     <defs>
      <path d="M 45.40625 46.390625 
L 45.40625 75.984375 
L 54.390625 75.984375 
L 54.390625 0 
L 45.40625 0 
L 45.40625 8.203125 
Q 42.578125 3.328125 38.25 0.953125 
Q 33.9375 -1.421875 27.875 -1.421875 
Q 17.96875 -1.421875 11.734375 6.484375 
Q 5.515625 14.40625 5.515625 27.296875 
Q 5.515625 40.1875 11.734375 48.09375 
Q 17.96875 56 27.875 56 
Q 33.9375 56 38.25 53.625 
Q 42.578125 51.265625 45.40625 46.390625 
z
M 14.796875 27.296875 
Q 14.796875 17.390625 18.875 11.75 
Q 22.953125 6.109375 30.078125 6.109375 
Q 37.203125 6.109375 41.296875 11.75 
Q 45.40625 17.390625 45.40625 27.296875 
Q 45.40625 37.203125 41.296875 42.84375 
Q 37.203125 48.484375 30.078125 48.484375 
Q 22.953125 48.484375 18.875 42.84375 
Q 14.796875 37.203125 14.796875 27.296875 
z
" id="DejaVuSans-100"/>
      <path d="M 54.890625 33.015625 
L 54.890625 0 
L 45.90625 0 
L 45.90625 32.71875 
Q 45.90625 40.484375 42.875 44.328125 
Q 39.84375 48.1875 33.796875 48.1875 
Q 26.515625 48.1875 22.3125 43.546875 
Q 18.109375 38.921875 18.109375 30.90625 
L 18.109375 0 
L 9.078125 0 
L 9.078125 75.984375 
L 18.109375 75.984375 
L 18.109375 46.1875 
Q 21.34375 51.125 25.703125 53.5625 
Q 30.078125 56 35.796875 56 
Q 45.21875 56 50.046875 50.171875 
Q 54.890625 44.34375 54.890625 33.015625 
z
" id="DejaVuSans-104"/>
     </defs>
     <use xlink:href="#DejaVuSans-67"/>
     <use x="69.824219" xlink:href="#DejaVuSans-100"/>
     <use x="133.300781" xlink:href="#DejaVuSans-104"/>
     <use x="196.679688" xlink:href="#DejaVuSans-50"/>
     <use x="260.302734" xlink:href="#DejaVuSans-48"/>
    </g>
   </g>
   <g id="legend_1">
    <g id="patch_16">
     <path d="M 336.38675 117.86875 
L 415.42425 117.86875 
Q 417.42425 117.86875 417.42425 115.86875 
L 417.42425 28.8 
Q 417.42425 26.8 415.42425 26.8 
L 336.38675 26.8 
Q 334.38675 26.8 334.38675 28.8 
L 334.38675 115.86875 
Q 334.38675 117.86875 336.38675 117.86875 
z
" style="fill:#ffffff;opacity:0.8;stroke:#cccccc;stroke-linejoin:miter;"/>
    </g>
    <g id="PathCollection_18">
     <defs>
      <path d="M 0 3.872983 
C 1.027127 3.872983 2.012324 3.464901 2.738613 2.738613 
C 3.464901 2.012324 3.872983 1.027127 3.872983 0 
C 3.872983 -1.027127 3.464901 -2.012324 2.738613 -2.738613 
C 2.012324 -3.464901 1.027127 -3.872983 0 -3.872983 
C -1.027127 -3.872983 -2.012324 -3.464901 -2.738613 -2.738613 
C -3.464901 -2.012324 -3.872983 -1.027127 -3.872983 0 
C -3.872983 1.027127 -3.464901 2.012324 -2.738613 2.738613 
C -2.012324 3.464901 -1.027127 3.872983 0 3.872983 
z
" id="me61e5feb4a" style="stroke:#dbe9f6;"/>
     </defs>
     <g>
      <use style="fill:#dbe9f6;stroke:#dbe9f6;" x="348.38675" xlink:href="#me61e5feb4a" y="35.773437"/>
     </g>
    </g>
    <g id="text_20">
     <!-- Sample 1 -->
     <g transform="translate(366.38675 38.398437)scale(0.1 -0.1)">
      <defs>
       <path d="M 53.515625 70.515625 
L 53.515625 60.890625 
Q 47.90625 63.578125 42.921875 64.890625 
Q 37.9375 66.21875 33.296875 66.21875 
Q 25.25 66.21875 20.875 63.09375 
Q 16.5 59.96875 16.5 54.203125 
Q 16.5 49.359375 19.40625 46.890625 
Q 22.3125 44.4375 30.421875 42.921875 
L 36.375 41.703125 
Q 47.40625 39.59375 52.65625 34.296875 
Q 57.90625 29 57.90625 20.125 
Q 57.90625 9.515625 50.796875 4.046875 
Q 43.703125 -1.421875 29.984375 -1.421875 
Q 24.8125 -1.421875 18.96875 -0.25 
Q 13.140625 0.921875 6.890625 3.21875 
L 6.890625 13.375 
Q 12.890625 10.015625 18.65625 8.296875 
Q 24.421875 6.59375 29.984375 6.59375 
Q 38.421875 6.59375 43.015625 9.90625 
Q 47.609375 13.234375 47.609375 19.390625 
Q 47.609375 24.75 44.3125 27.78125 
Q 41.015625 30.8125 33.5 32.328125 
L 27.484375 33.5 
Q 16.453125 35.6875 11.515625 40.375 
Q 6.59375 45.0625 6.59375 53.421875 
Q 6.59375 63.09375 13.40625 68.65625 
Q 20.21875 74.21875 32.171875 74.21875 
Q 37.3125 74.21875 42.625 73.28125 
Q 47.953125 72.359375 53.515625 70.515625 
z
" id="DejaVuSans-83"/>
       <path d="M 12.40625 8.296875 
L 28.515625 8.296875 
L 28.515625 63.921875 
L 10.984375 60.40625 
L 10.984375 69.390625 
L 28.421875 72.90625 
L 38.28125 72.90625 
L 38.28125 8.296875 
L 54.390625 8.296875 
L 54.390625 0 
L 12.40625 0 
z
" id="DejaVuSans-49"/>
      </defs>
      <use xlink:href="#DejaVuSans-83"/>
      <use x="63.476562" xlink:href="#DejaVuSans-97"/>
      <use x="124.755859" xlink:href="#DejaVuSans-109"/>
      <use x="222.167969" xlink:href="#DejaVuSans-112"/>
      <use x="285.644531" xlink:href="#DejaVuSans-108"/>
      <use x="313.427734" xlink:href="#DejaVuSans-101"/>
      <use x="374.951172" xlink:href="#DejaVuSans-32"/>
      <use x="406.738281" xlink:href="#DejaVuSans-49"/>
     </g>
    </g>
    <g id="PathCollection_19">
     <defs>
      <path d="M 0 3.872983 
C 1.027127 3.872983 2.012324 3.464901 2.738613 2.738613 
C 3.464901 2.012324 3.872983 1.027127 3.872983 0 
C 3.872983 -1.027127 3.464901 -2.012324 2.738613 -2.738613 
C 2.012324 -3.464901 1.027127 -3.872983 0 -3.872983 
C -1.027127 -3.872983 -2.012324 -3.464901 -2.738613 -2.738613 
C -3.464901 -2.012324 -3.872983 -1.027127 -3.872983 0 
C -3.872983 1.027127 -3.464901 2.012324 -2.738613 2.738613 
C -2.012324 3.464901 -1.027127 3.872983 0 3.872983 
z
" id="mf2ce29cafe" style="stroke:#bad6eb;"/>
     </defs>
     <g>
      <use style="fill:#bad6eb;stroke:#bad6eb;" x="348.38675" xlink:href="#mf2ce29cafe" y="50.451562"/>
     </g>
    </g>
    <g id="text_21">
     <!-- Sample 2 -->
     <g transform="translate(366.38675 53.076562)scale(0.1 -0.1)">
      <use xlink:href="#DejaVuSans-83"/>
      <use x="63.476562" xlink:href="#DejaVuSans-97"/>
      <use x="124.755859" xlink:href="#DejaVuSans-109"/>
      <use x="222.167969" xlink:href="#DejaVuSans-112"/>
      <use x="285.644531" xlink:href="#DejaVuSans-108"/>
      <use x="313.427734" xlink:href="#DejaVuSans-101"/>
      <use x="374.951172" xlink:href="#DejaVuSans-32"/>
      <use x="406.738281" xlink:href="#DejaVuSans-50"/>
     </g>
    </g>
    <g id="PathCollection_20">
     <defs>
      <path d="M 0 3.872983 
C 1.027127 3.872983 2.012324 3.464901 2.738613 2.738613 
C 3.464901 2.012324 3.872983 1.027127 3.872983 0 
C 3.872983 -1.027127 3.464901 -2.012324 2.738613 -2.738613 
C 2.012324 -3.464901 1.027127 -3.872983 0 -3.872983 
C -1.027127 -3.872983 -2.012324 -3.464901 -2.738613 -2.738613 
C -3.464901 -2.012324 -3.872983 -1.027127 -3.872983 0 
C -3.872983 1.027127 -3.464901 2.012324 -2.738613 2.738613 
C -2.012324 3.464901 -1.027127 3.872983 0 3.872983 
z
" id="m2b375c310d" style="stroke:#89bedc;"/>
     </defs>
     <g>
      <use style="fill:#89bedc;stroke:#89bedc;" x="348.38675" xlink:href="#m2b375c310d" y="65.129687"/>
     </g>
    </g>
    <g id="text_22">
     <!-- Sample 3 -->
     <g transform="translate(366.38675 67.754687)scale(0.1 -0.1)">
      <use xlink:href="#DejaVuSans-83"/>
      <use x="63.476562" xlink:href="#DejaVuSans-97"/>
      <use x="124.755859" xlink:href="#DejaVuSans-109"/>
      <use x="222.167969" xlink:href="#DejaVuSans-112"/>
      <use x="285.644531" xlink:href="#DejaVuSans-108"/>
      <use x="313.427734" xlink:href="#DejaVuSans-101"/>
      <use x="374.951172" xlink:href="#DejaVuSans-32"/>
      <use x="406.738281" xlink:href="#DejaVuSans-51"/>
     </g>
    </g>
    <g id="PathCollection_21">
     <defs>
      <path d="M 0 3.872983 
C 1.027127 3.872983 2.012324 3.464901 2.738613 2.738613 
C 3.464901 2.012324 3.872983 1.027127 3.872983 0 
C 3.872983 -1.027127 3.464901 -2.012324 2.738613 -2.738613 
C 2.012324 -3.464901 1.027127 -3.872983 0 -3.872983 
C -1.027127 -3.872983 -2.012324 -3.464901 -2.738613 -2.738613 
C -3.464901 -2.012324 -3.872983 -1.027127 -3.872983 0 
C -3.872983 1.027127 -3.464901 2.012324 -2.738613 2.738613 
C -2.012324 3.464901 -1.027127 3.872983 0 3.872983 
z
" id="mcdfa87486a" style="stroke:#539ecd;"/>
     </defs>
     <g>
      <use style="fill:#539ecd;stroke:#539ecd;" x="348.38675" xlink:href="#mcdfa87486a" y="79.807812"/>
     </g>
    </g>
    <g id="text_23">
     <!-- Sample 4 -->
     <g transform="translate(366.38675 82.432812)scale(0.1 -0.1)">
      <use xlink:href="#DejaVuSans-83"/>
      <use x="63.476562" xlink:href="#DejaVuSans-97"/>
      <use x="124.755859" xlink:href="#DejaVuSans-109"/>
      <use x="222.167969" xlink:href="#DejaVuSans-112"/>
      <use x="285.644531" xlink:href="#DejaVuSans-108"/>
      <use x="313.427734" xlink:href="#DejaVuSans-101"/>
      <use x="374.951172" xlink:href="#DejaVuSans-32"/>
      <use x="406.738281" xlink:href="#DejaVuSans-52"/>
     </g>
    </g>
    <g id="PathCollection_22">
     <defs>
      <path d="M 0 3.872983 
C 1.027127 3.872983 2.012324 3.464901 2.738613 2.738613 
C 3.464901 2.012324 3.872983 1.027127 3.872983 0 
C 3.872983 -1.027127 3.464901 -2.012324 2.738613 -2.738613 
C 2.012324 -3.464901 1.027127 -3.872983 0 -3.872983 
C -1.027127 -3.872983 -2.012324 -3.464901 -2.738613 -2.738613 
C -3.464901 -2.012324 -3.872983 -1.027127 -3.872983 0 
C -3.872983 1.027127 -3.464901 2.012324 -2.738613 2.738613 
C -2.012324 3.464901 -1.027127 3.872983 0 3.872983 
z
" id="m6a4b562ede" style="stroke:#2b7bba;"/>
     </defs>
     <g>
      <use style="fill:#2b7bba;stroke:#2b7bba;" x="348.38675" xlink:href="#m6a4b562ede" y="94.485937"/>
     </g>
    </g>
    <g id="text_24">
     <!-- Sample 5 -->
     <g transform="translate(366.38675 97.110937)scale(0.1 -0.1)">
      <use xlink:href="#DejaVuSans-83"/>
      <use x="63.476562" xlink:href="#DejaVuSans-97"/>
      <use x="124.755859" xlink:href="#DejaVuSans-109"/>
      <use x="222.167969" xlink:href="#DejaVuSans-112"/>
      <use x="285.644531" xlink:href="#DejaVuSans-108"/>
      <use x="313.427734" xlink:href="#DejaVuSans-101"/>
      <use x="374.951172" xlink:href="#DejaVuSans-32"/>
      <use x="406.738281" xlink:href="#DejaVuSans-53"/>
     </g>
    </g>
    <g id="PathCollection_23">
     <defs>
      <path d="M 0 3.872983 
C 1.027127 3.872983 2.012324 3.464901 2.738613 2.738613 
C 3.464901 2.012324 3.872983 1.027127 3.872983 0 
C 3.872983 -1.027127 3.464901 -2.012324 2.738613 -2.738613 
C 2.012324 -3.464901 1.027127 -3.872983 0 -3.872983 
C -1.027127 -3.872983 -2.012324 -3.464901 -2.738613 -2.738613 
C -3.464901 -2.012324 -3.872983 -1.027127 -3.872983 0 
C -3.872983 1.027127 -3.464901 2.012324 -2.738613 2.738613 
C -2.012324 3.464901 -1.027127 3.872983 0 3.872983 
z
" id="m4d1456a4e1" style="stroke:#0b559f;"/>
     </defs>
     <g>
      <use style="fill:#0b559f;stroke:#0b559f;" x="348.38675" xlink:href="#m4d1456a4e1" y="109.164062"/>
     </g>
    </g>
    <g id="text_25">
     <!-- Sample 6 -->
     <g transform="translate(366.38675 111.789062)scale(0.1 -0.1)">
      <use xlink:href="#DejaVuSans-83"/>
      <use x="63.476562" xlink:href="#DejaVuSans-97"/>
      <use x="124.755859" xlink:href="#DejaVuSans-109"/>
      <use x="222.167969" xlink:href="#DejaVuSans-112"/>
      <use x="285.644531" xlink:href="#DejaVuSans-108"/>
      <use x="313.427734" xlink:href="#DejaVuSans-101"/>
      <use x="374.951172" xlink:href="#DejaVuSans-32"/>
      <use x="406.738281" xlink:href="#DejaVuSans-54"/>
     </g>
    </g>
   </g>
   <g id="line2d_2"/>
   <g id="line2d_3"/>
   <g id="line2d_4"/>
   <g id="line2d_5"/>
   <g id="line2d_6"/>
   <g id="line2d_7"/>
   <g id="line2d_8"/>
   <g id="line2d_9"/>
   <g id="line2d_10"/>
   <g id="line2d_11"/>
   <g id="line2d_12"/>
   <g id="line2d_13">
    <path clip-path="url(#pbab233945e)" d="M 127.097804 33.780909 
L 127.097804 39.764545 
" style="fill:none;stroke:#8b8b8b;stroke-linecap:square;stroke-width:1.5;"/>
   </g>
   <g id="line2d_14">
    <path clip-path="url(#pbab233945e)" d="M 191.65139 53.726364 
L 191.65139 59.71 
" style="fill:none;stroke:#8b8b8b;stroke-linecap:square;stroke-width:1.5;"/>
   </g>
   <g id="line2d_15">
    <path clip-path="url(#pbab233945e)" d="M 223.159788 73.671818 
L 223.159788 79.655455 
" style="fill:none;stroke:#8b8b8b;stroke-linecap:square;stroke-width:1.5;"/>
   </g>
   <g id="line2d_16">
    <path clip-path="url(#pbab233945e)" d="M 217.150473 93.617273 
L 217.150473 99.600909 
" style="fill:none;stroke:#8b8b8b;stroke-linecap:square;stroke-width:1.5;"/>
   </g>
   <g id="line2d_17">
    <path clip-path="url(#pbab233945e)" d="M 227.587018 113.562727 
L 227.587018 119.546364 
" style="fill:none;stroke:#8b8b8b;stroke-linecap:square;stroke-width:1.5;"/>
   </g>
   <g id="line2d_18">
    <path clip-path="url(#pbab233945e)" d="M 229.240858 133.508182 
L 229.240858 139.491818 
" style="fill:none;stroke:#8b8b8b;stroke-linecap:square;stroke-width:1.5;"/>
   </g>
   <g id="line2d_19">
    <path clip-path="url(#pbab233945e)" d="M 244.619257 153.453636 
L 244.619257 159.437273 
" style="fill:none;stroke:#8b8b8b;stroke-linecap:square;stroke-width:1.5;"/>
   </g>
   <g id="line2d_20">
    <path clip-path="url(#pbab233945e)" d="M 243.962569 173.399091 
L 243.962569 179.382727 
" style="fill:none;stroke:#8b8b8b;stroke-linecap:square;stroke-width:1.5;"/>
   </g>
   <g id="line2d_21">
    <path clip-path="url(#pbab233945e)" d="M 254.354697 193.344545 
L 254.354697 199.328182 
" style="fill:none;stroke:#8b8b8b;stroke-linecap:square;stroke-width:1.5;"/>
   </g>
   <g id="line2d_22">
    <path clip-path="url(#pbab233945e)" d="M 261.720088 213.29 
L 261.720088 219.273636 
" style="fill:none;stroke:#8b8b8b;stroke-linecap:square;stroke-width:1.5;"/>
   </g>
   <g id="line2d_23">
    <path clip-path="url(#pbab233945e)" d="M 256.027822 233.235455 
L 256.027822 239.219091 
" style="fill:none;stroke:#8b8b8b;stroke-linecap:square;stroke-width:1.5;"/>
   </g>
  </g>
 </g>
 <defs>
  <clipPath id="pbab233945e">
   <rect height="219.4" width="253.535" x="68.175" y="26.8"/>
  </clipPath>
 </defs>
</svg>
