<?xml version="1.0" encoding="utf-8" standalone="no"?>
<!DOCTYPE svg PUBLIC "-//W3C//DTD SVG 1.1//EN"
  "http://www.w3.org/Graphics/SVG/1.1/DTD/svg11.dtd">
<!-- Created with matplotlib (https://matplotlib.org/) -->
<svg height="216pt" version="1.1" viewBox="0 0 576 216" width="576pt" xmlns="http://www.w3.org/2000/svg" xmlns:xlink="http://www.w3.org/1999/xlink">
 <metadata>
  <rdf:RDF xmlns:cc="http://creativecommons.org/ns#" xmlns:dc="http://purl.org/dc/elements/1.1/" xmlns:rdf="http://www.w3.org/1999/02/22-rdf-syntax-ns#">
   <cc:Work>
    <dc:type rdf:resource="http://purl.org/dc/dcmitype/StillImage"/>
    <dc:date>2022-03-09T13:20:42.857399</dc:date>
    <dc:format>image/svg+xml</dc:format>
    <dc:creator>
     <cc:Agent>
      <dc:title>Matplotlib v3.3.3, https://matplotlib.org/</dc:title>
     </cc:Agent>
    </dc:creator>
   </cc:Work>
  </rdf:RDF>
 </metadata>
 <defs>
  <style type="text/css">*{stroke-linecap:butt;stroke-linejoin:round;}</style>
 </defs>
 <g id="figure_1">
  <g id="patch_1">
   <path d="M 0 216 
L 576 216 
L 576 0 
L 0 0 
z
" style="fill:none;"/>
  </g>
  <g id="axes_1">
   <g id="patch_2">
    <path clip-path="url(#pc1e8b799fb)" d="M 92.290909 50.701765 
L 952.908127 50.701765 
L 952.908127 49.102941 
L 92.290909 49.102941 
z
" style="stroke:#000000;stroke-linejoin:miter;"/>
   </g>
   <g id="patch_3">
    <path clip-path="url(#pc1e8b799fb)" d="M 92.290909 51.900882 
L 105.979584 51.900882 
L 105.979584 47.903824 
L 92.290909 47.903824 
z
" style="fill:#ffffff;stroke:#000000;stroke-linejoin:miter;stroke-width:0.5;"/>
   </g>
   <g id="patch_4">
    <path clip-path="url(#pc1e8b799fb)" d="M 477.327431 34.713529 
L 952.787729 34.713529 
L 952.787729 33.114706 
L 477.327431 33.114706 
z
" style="stroke:#000000;stroke-linejoin:miter;"/>
   </g>
   <g id="patch_5">
    <path clip-path="url(#pc1e8b799fb)" d="M 477.327431 35.912647 
L 498.109091 35.912647 
L 498.109091 31.915588 
L 477.327431 31.915588 
z
" style="fill:#ffffff;stroke:#000000;stroke-linejoin:miter;stroke-width:0.5;"/>
   </g>
   <g id="patch_6">
    <path clip-path="url(#pc1e8b799fb)" d="M 72 69.887647 
L 74.617338 69.887647 
L 74.617338 61.893529 
L 72 61.893529 
z
" style="fill:#0000ff;stroke:#000000;stroke-linejoin:miter;stroke-width:0.5;"/>
   </g>
  </g>
  <g id="axes_2">
   <g id="patch_7">
    <path d="M 72 131.442353 
L 518.4 131.442353 
L 518.4 83.477647 
L 72 83.477647 
z
" style="fill:#ffffff;"/>
   </g>
   <g id="matplotlib.axis_1"/>
   <g id="matplotlib.axis_2">
    <g id="ytick_1">
     <g id="line2d_1">
      <defs>
       <path d="M 0 0 
L -3.5 0 
" id="m48aff0d393" style="stroke:#000000;stroke-width:0.8;"/>
      </defs>
      <g>
       <use style="stroke:#000000;stroke-width:0.8;" x="72" xlink:href="#m48aff0d393" y="129.262139"/>
      </g>
     </g>
     <g id="text_1">
      <!-- 0 -->
      <g transform="translate(58.6375 133.061358)scale(0.1 -0.1)">
       <defs>
        <path d="M 31.78125 66.40625 
Q 24.171875 66.40625 20.328125 58.90625 
Q 16.5 51.421875 16.5 36.375 
Q 16.5 21.390625 20.328125 13.890625 
Q 24.171875 6.390625 31.78125 6.390625 
Q 39.453125 6.390625 43.28125 13.890625 
Q 47.125 21.390625 47.125 36.375 
Q 47.125 51.421875 43.28125 58.90625 
Q 39.453125 66.40625 31.78125 66.40625 
z
M 31.78125 74.21875 
Q 44.046875 74.21875 50.515625 64.515625 
Q 56.984375 54.828125 56.984375 36.375 
Q 56.984375 17.96875 50.515625 8.265625 
Q 44.046875 -1.421875 31.78125 -1.421875 
Q 19.53125 -1.421875 13.0625 8.265625 
Q 6.59375 17.96875 6.59375 36.375 
Q 6.59375 54.828125 13.0625 64.515625 
Q 19.53125 74.21875 31.78125 74.21875 
z
" id="DejaVuSans-48"/>
       </defs>
       <use xlink:href="#DejaVuSans-48"/>
      </g>
     </g>
    </g>
    <g id="ytick_2">
     <g id="line2d_2">
      <g>
       <use style="stroke:#000000;stroke-width:0.8;" x="72" xlink:href="#m48aff0d393" y="101.488714"/>
      </g>
     </g>
     <g id="text_2">
      <!-- 200 -->
      <g transform="translate(45.9125 105.287932)scale(0.1 -0.1)">
       <defs>
        <path d="M 19.1875 8.296875 
L 53.609375 8.296875 
L 53.609375 0 
L 7.328125 0 
L 7.328125 8.296875 
Q 12.9375 14.109375 22.625 23.890625 
Q 32.328125 33.6875 34.8125 36.53125 
Q 39.546875 41.84375 41.421875 45.53125 
Q 43.3125 49.21875 43.3125 52.78125 
Q 43.3125 58.59375 39.234375 62.25 
Q 35.15625 65.921875 28.609375 65.921875 
Q 23.96875 65.921875 18.8125 64.3125 
Q 13.671875 62.703125 7.8125 59.421875 
L 7.8125 69.390625 
Q 13.765625 71.78125 18.9375 73 
Q 24.125 74.21875 28.421875 74.21875 
Q 39.75 74.21875 46.484375 68.546875 
Q 53.21875 62.890625 53.21875 53.421875 
Q 53.21875 48.921875 51.53125 44.890625 
Q 49.859375 40.875 45.40625 35.40625 
Q 44.1875 33.984375 37.640625 27.21875 
Q 31.109375 20.453125 19.1875 8.296875 
z
" id="DejaVuSans-50"/>
       </defs>
       <use xlink:href="#DejaVuSans-50"/>
       <use x="63.623047" xlink:href="#DejaVuSans-48"/>
       <use x="127.246094" xlink:href="#DejaVuSans-48"/>
      </g>
     </g>
    </g>
    <g id="text_3">
     <!-- count -->
     <g transform="translate(39.832812 121.56625)rotate(-90)scale(0.1 -0.1)">
      <defs>
       <path d="M 48.78125 52.59375 
L 48.78125 44.1875 
Q 44.96875 46.296875 41.140625 47.34375 
Q 37.3125 48.390625 33.40625 48.390625 
Q 24.65625 48.390625 19.8125 42.84375 
Q 14.984375 37.3125 14.984375 27.296875 
Q 14.984375 17.28125 19.8125 11.734375 
Q 24.65625 6.203125 33.40625 6.203125 
Q 37.3125 6.203125 41.140625 7.25 
Q 44.96875 8.296875 48.78125 10.40625 
L 48.78125 2.09375 
Q 45.015625 0.34375 40.984375 -0.53125 
Q 36.96875 -1.421875 32.421875 -1.421875 
Q 20.0625 -1.421875 12.78125 6.34375 
Q 5.515625 14.109375 5.515625 27.296875 
Q 5.515625 40.671875 12.859375 48.328125 
Q 20.21875 56 33.015625 56 
Q 37.15625 56 41.109375 55.140625 
Q 45.0625 54.296875 48.78125 52.59375 
z
" id="DejaVuSans-99"/>
       <path d="M 30.609375 48.390625 
Q 23.390625 48.390625 19.1875 42.75 
Q 14.984375 37.109375 14.984375 27.296875 
Q 14.984375 17.484375 19.15625 11.84375 
Q 23.34375 6.203125 30.609375 6.203125 
Q 37.796875 6.203125 41.984375 11.859375 
Q 46.1875 17.53125 46.1875 27.296875 
Q 46.1875 37.015625 41.984375 42.703125 
Q 37.796875 48.390625 30.609375 48.390625 
z
M 30.609375 56 
Q 42.328125 56 49.015625 48.375 
Q 55.71875 40.765625 55.71875 27.296875 
Q 55.71875 13.875 49.015625 6.21875 
Q 42.328125 -1.421875 30.609375 -1.421875 
Q 18.84375 -1.421875 12.171875 6.21875 
Q 5.515625 13.875 5.515625 27.296875 
Q 5.515625 40.765625 12.171875 48.375 
Q 18.84375 56 30.609375 56 
z
" id="DejaVuSans-111"/>
       <path d="M 8.5 21.578125 
L 8.5 54.6875 
L 17.484375 54.6875 
L 17.484375 21.921875 
Q 17.484375 14.15625 20.5 10.265625 
Q 23.53125 6.390625 29.59375 6.390625 
Q 36.859375 6.390625 41.078125 11.03125 
Q 45.3125 15.671875 45.3125 23.6875 
L 45.3125 54.6875 
L 54.296875 54.6875 
L 54.296875 0 
L 45.3125 0 
L 45.3125 8.40625 
Q 42.046875 3.421875 37.71875 1 
Q 33.40625 -1.421875 27.6875 -1.421875 
Q 18.265625 -1.421875 13.375 4.4375 
Q 8.5 10.296875 8.5 21.578125 
z
M 31.109375 56 
z
" id="DejaVuSans-117"/>
       <path d="M 54.890625 33.015625 
L 54.890625 0 
L 45.90625 0 
L 45.90625 32.71875 
Q 45.90625 40.484375 42.875 44.328125 
Q 39.84375 48.1875 33.796875 48.1875 
Q 26.515625 48.1875 22.3125 43.546875 
Q 18.109375 38.921875 18.109375 30.90625 
L 18.109375 0 
L 9.078125 0 
L 9.078125 54.6875 
L 18.109375 54.6875 
L 18.109375 46.1875 
Q 21.34375 51.125 25.703125 53.5625 
Q 30.078125 56 35.796875 56 
Q 45.21875 56 50.046875 50.171875 
Q 54.890625 44.34375 54.890625 33.015625 
z
" id="DejaVuSans-110"/>
       <path d="M 18.3125 70.21875 
L 18.3125 54.6875 
L 36.8125 54.6875 
L 36.8125 47.703125 
L 18.3125 47.703125 
L 18.3125 18.015625 
Q 18.3125 11.328125 20.140625 9.421875 
Q 21.96875 7.515625 27.59375 7.515625 
L 36.8125 7.515625 
L 36.8125 0 
L 27.59375 0 
Q 17.1875 0 13.234375 3.875 
Q 9.28125 7.765625 9.28125 18.015625 
L 9.28125 47.703125 
L 2.6875 47.703125 
L 2.6875 54.6875 
L 9.28125 54.6875 
L 9.28125 70.21875 
z
" id="DejaVuSans-116"/>
      </defs>
      <use xlink:href="#DejaVuSans-99"/>
      <use x="54.980469" xlink:href="#DejaVuSans-111"/>
      <use x="116.162109" xlink:href="#DejaVuSans-117"/>
      <use x="179.541016" xlink:href="#DejaVuSans-110"/>
      <use x="242.919922" xlink:href="#DejaVuSans-116"/>
     </g>
    </g>
   </g>
   <g id="line2d_3">
    <path clip-path="url(#p3d305baa80)" d="M 92.26997 128.151202 
L 92.793438 128.428936 
L 93.316905 128.290069 
L 93.840373 128.984405 
L 94.36384 129.262139 
L 94.887308 129.262139 
L 95.410775 129.123272 
L 95.934243 128.012335 
L 96.45771 127.734601 
L 96.981178 129.262139 
L 100.121983 129.262139 
L 100.64545 129.123272 
L 101.168918 129.262139 
L 103.262788 129.262139 
L 103.786255 129.123272 
L 104.309723 129.262139 
L 127.865761 129.262139 
L 128.389228 128.845538 
L 128.912696 128.984405 
L 129.436163 129.262139 
L 149.327928 129.262139 
L 149.851396 129.123272 
L 150.374863 129.262139 
L 163.461551 129.262139 
L 163.985018 129.123272 
L 164.508486 129.262139 
L 168.172758 129.262139 
L 168.696226 128.984405 
L 169.219693 129.262139 
L 169.743161 129.123272 
L 170.266628 129.262139 
L 188.587991 129.262139 
L 189.111458 129.123272 
L 189.634926 127.734601 
L 190.158393 128.984405 
L 190.681861 129.262139 
L 193.299198 129.262139 
L 193.822666 129.123272 
L 194.346134 128.428936 
L 195.393069 129.123272 
L 195.916536 129.262139 
L 243.028611 129.262139 
L 243.552079 128.012335 
L 244.075546 127.734601 
L 244.599014 128.151202 
L 245.122481 129.262139 
L 245.645949 129.262139 
L 246.169416 129.123272 
L 246.692884 129.262139 
L 256.115299 129.262139 
L 256.638766 129.123272 
L 257.162234 129.123272 
L 257.685701 129.262139 
L 269.201986 129.262139 
L 269.725454 128.984405 
L 270.248921 128.984405 
L 270.772389 129.262139 
L 294.328427 129.262139 
L 294.851894 129.123272 
L 295.375362 129.262139 
L 319.978334 129.262139 
L 320.501802 129.123272 
L 321.548737 129.123272 
L 322.072204 129.262139 
L 339.870099 129.262139 
L 340.393567 128.845538 
L 340.917034 129.262139 
L 360.8088 129.262139 
L 361.332267 128.984405 
L 362.379202 129.262139 
L 386.458707 129.262139 
L 387.505642 128.428936 
L 388.02911 129.123272 
L 388.552577 129.262139 
L 416.819822 129.262139 
L 417.34329 129.123272 
L 417.866757 129.262139 
L 422.054497 129.262139 
L 422.577965 129.123272 
L 423.101432 128.567803 
L 424.148367 129.262139 
L 438.805457 129.262139 
L 439.328925 129.123272 
L 439.852392 129.262139 
L 440.37586 129.262139 
L 440.899327 128.984405 
L 441.422795 128.984405 
L 441.946262 129.262139 
L 471.260443 129.262139 
L 471.78391 128.984405 
L 472.307378 129.262139 
L 475.448183 129.262139 
L 475.97165 129.123272 
L 476.495118 128.706671 
L 477.018585 129.123272 
L 477.542053 128.567803 
L 478.06552 128.428936 
L 478.588988 129.123272 
L 479.112455 129.262139 
L 488.011403 129.262139 
L 488.53487 128.984405 
L 489.058338 129.123272 
L 490.105273 128.845538 
L 490.62874 129.123272 
L 491.152208 129.262139 
L 492.72261 129.262139 
L 493.246078 128.290069 
L 493.769545 128.428936 
L 494.293013 129.262139 
L 497.957285 129.262139 
L 497.957285 129.262139 
" style="fill:none;stroke:#1f77b4;stroke-linecap:square;stroke-width:1.5;"/>
   </g>
   <g id="line2d_4">
    <path clip-path="url(#p3d305baa80)" d="M 92.26997 114.681091 
L 92.793438 85.657861 
L 93.840373 121.48558 
L 94.36384 128.290069 
L 94.887308 128.706671 
L 95.410775 119.958041 
L 95.934243 89.962742 
L 96.45771 101.905315 
L 96.981178 124.124055 
L 97.504645 126.623664 
L 98.028113 127.040265 
L 98.55158 127.040265 
L 99.075048 128.984405 
L 99.598515 127.317999 
L 100.121983 116.902965 
L 100.64545 123.846321 
L 101.168918 127.456866 
L 101.692385 128.845538 
L 102.215853 128.706671 
L 102.73932 129.262139 
L 103.262788 129.262139 
L 103.786255 128.706671 
L 104.309723 129.123272 
L 104.83319 128.984405 
L 105.356658 128.428936 
L 105.880125 129.123272 
L 106.403593 129.262139 
L 114.255606 129.262139 
L 114.779073 128.984405 
L 115.302541 129.262139 
L 122.107618 129.262139 
L 122.631086 128.706671 
L 123.154553 129.262139 
L 126.295358 129.262139 
L 126.818826 129.123272 
L 127.342293 128.706671 
L 127.865761 127.595734 
L 128.389228 128.290069 
L 128.912696 129.262139 
L 136.241241 129.262139 
L 136.764708 128.984405 
L 137.288176 128.845538 
L 137.811643 129.123272 
L 138.858578 128.845538 
L 139.382046 129.262139 
L 139.905513 129.262139 
L 140.428981 128.706671 
L 140.952448 128.706671 
L 141.999383 129.262139 
L 143.046318 129.262139 
L 143.569786 129.123272 
L 144.093253 128.567803 
L 144.616721 128.567803 
L 145.140188 129.123272 
L 145.663656 129.262139 
L 148.280993 129.262139 
L 149.327928 128.984405 
L 150.374863 129.262139 
L 150.898331 129.262139 
L 151.421798 129.123272 
L 151.945266 128.428936 
L 152.468733 129.262139 
L 155.086071 129.262139 
L 155.609538 129.123272 
L 156.133006 128.290069 
L 156.656473 129.123272 
L 157.179941 129.262139 
L 161.891148 129.262139 
L 162.414616 129.123272 
L 162.938083 129.262139 
L 163.461551 128.984405 
L 163.985018 129.123272 
L 164.508486 127.040265 
L 165.031953 123.707454 
L 165.555421 127.456866 
L 166.078888 128.984405 
L 166.602356 129.262139 
L 168.696226 129.262139 
L 169.219693 129.123272 
L 169.743161 129.123272 
L 170.266628 129.262139 
L 170.790096 129.262139 
L 171.313563 129.123272 
L 171.837031 128.151202 
L 172.360498 128.845538 
L 172.883966 129.123272 
L 173.407433 129.262139 
L 174.454368 129.262139 
L 174.977836 128.151202 
L 175.501303 126.484796 
L 176.024771 122.735384 
L 176.548238 127.734601 
L 177.071706 128.984405 
L 177.595173 129.262139 
L 183.876783 129.262139 
L 184.400251 129.123272 
L 184.923718 129.262139 
L 185.447186 128.984405 
L 185.970653 129.262139 
L 189.111458 129.262139 
L 189.634926 128.706671 
L 190.158393 129.123272 
L 190.681861 129.262139 
L 193.299198 129.262139 
L 193.822666 129.123272 
L 194.346134 129.262139 
L 194.869601 129.123272 
L 195.393069 129.262139 
L 199.057341 129.262139 
L 199.580809 127.873468 
L 200.104276 125.373859 
L 200.627744 128.290069 
L 201.151211 129.123272 
L 201.674679 129.262139 
L 203.768549 129.262139 
L 204.292016 128.984405 
L 204.815484 129.262139 
L 205.862419 129.262139 
L 206.385886 128.984405 
L 206.909354 129.262139 
L 208.479756 129.262139 
L 209.003224 129.123272 
L 209.526691 129.262139 
L 213.190964 129.262139 
L 214.237899 128.984405 
L 214.761366 129.262139 
L 215.808301 128.984405 
L 216.331769 129.262139 
L 216.855236 128.845538 
L 217.378704 129.123272 
L 218.425639 129.123272 
L 218.949106 129.262139 
L 222.613379 129.262139 
L 223.136846 129.123272 
L 223.660314 129.123272 
L 224.183781 128.428936 
L 224.707249 128.151202 
L 225.230716 129.262139 
L 225.754184 128.984405 
L 226.277651 129.262139 
L 228.894989 129.262139 
L 229.418456 129.123272 
L 229.941924 129.123272 
L 230.465391 129.262139 
L 231.512326 129.262139 
L 232.035794 128.706671 
L 232.559261 126.484796 
L 233.082729 126.901398 
L 233.606196 129.262139 
L 234.129664 128.984405 
L 234.653131 129.262139 
L 236.747001 129.262139 
L 237.270469 128.845538 
L 237.793936 128.845538 
L 238.317404 127.734601 
L 238.840871 129.123272 
L 239.364339 129.262139 
L 241.458209 129.262139 
L 241.981676 128.706671 
L 243.028611 129.262139 
L 243.552079 127.873468 
L 244.075546 127.873468 
L 244.599014 128.845538 
L 245.122481 128.012335 
L 245.645949 126.623664 
L 246.169416 128.567803 
L 246.692884 129.262139 
L 247.739819 129.262139 
L 248.786754 128.567803 
L 249.310221 129.123272 
L 249.833689 129.262139 
L 250.357156 129.123272 
L 250.880624 125.790461 
L 251.404091 124.957258 
L 251.927559 127.873468 
L 252.451026 128.706671 
L 252.974494 128.845538 
L 253.497961 129.123272 
L 254.021429 128.984405 
L 255.068364 129.262139 
L 256.638766 129.262139 
L 257.162234 129.123272 
L 257.685701 129.262139 
L 258.209169 128.984405 
L 258.732636 129.262139 
L 277.053999 129.262139 
L 277.577467 128.984405 
L 278.100934 129.123272 
L 278.624402 129.123272 
L 279.147869 129.262139 
L 279.671337 128.984405 
L 280.194804 129.123272 
L 281.241739 129.123272 
L 281.765207 126.345929 
L 282.288674 122.45765 
L 282.812142 126.484796 
L 283.335609 129.262139 
L 286.476414 129.262139 
L 287.523349 128.984405 
L 288.046817 129.262139 
L 296.945764 129.262139 
L 297.469232 128.984405 
L 297.992699 128.290069 
L 298.516167 128.706671 
L 299.039634 126.623664 
L 299.563102 126.901398 
L 300.086569 128.706671 
L 301.133504 129.262139 
L 305.321244 129.262139 
L 305.844712 129.123272 
L 306.368179 129.262139 
L 306.891647 129.262139 
L 307.415114 128.984405 
L 308.462049 129.262139 
L 311.079387 129.262139 
L 311.602854 129.123272 
L 312.126322 129.123272 
L 312.649789 129.262139 
L 313.696724 129.262139 
L 314.220192 129.123272 
L 314.743659 128.845538 
L 315.267127 129.262139 
L 317.360997 129.262139 
L 317.884464 128.984405 
L 318.407932 128.567803 
L 318.931399 129.262139 
L 319.454867 129.123272 
L 319.978334 128.012335 
L 320.501802 124.679524 
L 321.025269 115.930895 
L 321.548737 125.929328 
L 322.072204 129.123272 
L 322.595672 129.262139 
L 326.259944 129.262139 
L 326.783412 128.984405 
L 327.306879 129.262139 
L 327.830347 129.262139 
L 328.353814 129.123272 
L 328.877282 128.845538 
L 329.400749 128.984405 
L 329.924217 128.984405 
L 330.447684 129.262139 
L 336.729294 129.262139 
L 337.252762 128.845538 
L 337.776229 128.706671 
L 338.299697 129.123272 
L 338.823164 129.262139 
L 339.346632 129.123272 
L 339.870099 125.929328 
L 340.393567 125.790461 
L 340.917034 128.151202 
L 341.440502 129.123272 
L 341.963969 129.262139 
L 342.487437 129.262139 
L 343.010904 128.984405 
L 343.534372 128.428936 
L 344.057839 129.262139 
L 348.769047 129.262139 
L 349.292514 128.706671 
L 349.815982 128.845538 
L 350.339449 129.123272 
L 350.862917 129.262139 
L 354.527189 129.262139 
L 355.050657 129.123272 
L 355.574124 128.845538 
L 356.097592 128.984405 
L 356.621059 129.262139 
L 357.144527 128.984405 
L 357.667994 129.262139 
L 358.191462 128.428936 
L 358.714929 128.706671 
L 359.238397 128.012335 
L 359.761865 128.012335 
L 360.285332 128.428936 
L 360.8088 126.901398 
L 361.332267 122.041048 
L 361.855735 125.096125 
L 362.379202 128.984405 
L 362.90267 129.262139 
L 363.426137 129.123272 
L 363.949605 129.262139 
L 364.473072 129.262139 
L 364.99654 129.123272 
L 365.520007 129.262139 
L 366.566942 129.262139 
L 367.09041 128.845538 
L 367.613877 129.262139 
L 368.137345 129.262139 
L 369.18428 128.706671 
L 369.707747 129.262139 
L 386.982175 129.262139 
L 387.505642 128.984405 
L 388.02911 128.845538 
L 388.552577 129.123272 
L 389.076045 129.123272 
L 389.599512 128.984405 
L 390.12298 129.262139 
L 391.693382 129.262139 
L 392.21685 128.151202 
L 392.740317 128.290069 
L 393.263785 129.262139 
L 394.31072 129.262139 
L 394.834187 128.845538 
L 395.357655 129.262139 
L 402.162732 129.262139 
L 402.6862 128.290069 
L 403.209667 128.151202 
L 404.256602 129.262139 
L 405.303537 128.984405 
L 405.827005 128.706671 
L 406.350472 129.262139 
L 406.87394 129.123272 
L 407.397407 126.623664 
L 407.920875 126.207062 
L 408.444342 128.706671 
L 408.96781 128.706671 
L 409.491277 129.262139 
L 410.014745 129.123272 
L 410.538212 129.262139 
L 412.632082 129.262139 
L 413.679017 128.984405 
L 414.202485 129.123272 
L 415.24942 128.290069 
L 415.772887 128.428936 
L 416.296355 128.706671 
L 416.819822 129.262139 
L 417.34329 128.290069 
L 417.866757 126.484796 
L 418.390225 126.207062 
L 419.43716 129.123272 
L 419.960627 129.262139 
L 421.007562 129.262139 
L 421.53103 128.984405 
L 422.054497 129.262139 
L 422.577965 128.290069 
L 423.101432 123.151985 
L 423.6249 125.651594 
L 424.148367 128.845538 
L 424.671835 129.262139 
L 425.195302 129.262139 
L 425.71877 128.706671 
L 426.242237 121.48558 
L 426.765705 122.318783 
L 427.289172 128.012335 
L 427.81264 128.984405 
L 428.336107 129.262139 
L 429.383042 129.262139 
L 429.90651 129.123272 
L 430.429977 129.262139 
L 430.953445 129.262139 
L 431.476912 129.123272 
L 432.00038 129.123272 
L 432.523847 129.262139 
L 438.805457 129.262139 
L 439.328925 128.984405 
L 439.852392 128.984405 
L 440.37586 128.845538 
L 440.899327 129.262139 
L 441.422795 128.984405 
L 441.946262 129.262139 
L 442.46973 128.012335 
L 442.993198 129.262139 
L 452.93908 129.262139 
L 453.462548 128.984405 
L 453.986015 128.290069 
L 454.509483 128.567803 
L 455.03295 129.262139 
L 455.556418 128.984405 
L 456.603353 129.262139 
L 461.31456 129.262139 
L 461.838028 128.984405 
L 462.361495 128.567803 
L 462.884963 129.262139 
L 467.59617 129.262139 
L 468.119638 127.734601 
L 468.643105 127.040265 
L 469.166573 127.040265 
L 469.69004 128.984405 
L 470.213508 129.262139 
L 470.736975 129.262139 
L 471.260443 128.428936 
L 471.78391 129.123272 
L 472.307378 129.262139 
L 473.354313 129.262139 
L 474.401248 127.734601 
L 474.924715 128.151202 
L 475.448183 128.290069 
L 475.97165 128.567803 
L 476.495118 126.901398 
L 477.018585 122.874251 
L 478.06552 108.293203 
L 478.588988 121.068979 
L 479.112455 127.040265 
L 479.635923 128.567803 
L 480.15939 128.984405 
L 480.682858 128.706671 
L 481.206325 128.290069 
L 481.729793 128.845538 
L 482.25326 128.428936 
L 482.776728 129.123272 
L 483.300195 129.262139 
L 483.823663 129.123272 
L 484.34713 128.845538 
L 484.870598 128.984405 
L 485.394065 129.262139 
L 486.441 128.984405 
L 486.964468 128.706671 
L 487.487935 127.734601 
L 488.011403 125.512727 
L 488.53487 108.848671 
L 489.058338 104.54379 
L 489.581805 116.902965 
L 490.105273 123.151985 
L 490.62874 127.179132 
L 491.152208 128.706671 
L 492.199143 129.262139 
L 492.72261 126.207062 
L 493.246078 121.346713 
L 493.769545 124.40179 
L 494.293013 128.706671 
L 494.81648 129.262139 
L 495.339948 128.151202 
L 495.863415 128.845538 
L 496.386883 129.123272 
L 496.91035 128.706671 
L 497.433818 129.262139 
L 497.957285 129.262139 
L 497.957285 129.262139 
" style="fill:none;stroke:#ff7f0e;stroke-linecap:square;stroke-width:1.5;"/>
   </g>
   <g id="line2d_5">
    <path clip-path="url(#p3d305baa80)" d="M 92.26997 128.567803 
L 92.793438 128.706671 
L 93.316905 129.123272 
L 93.840373 129.262139 
L 95.410775 129.262139 
L 95.934243 128.845538 
L 96.45771 129.123272 
L 96.981178 128.428936 
L 97.504645 129.262139 
L 98.028113 129.123272 
L 98.55158 129.262139 
L 99.075048 129.262139 
L 99.598515 129.123272 
L 100.121983 129.262139 
L 102.215853 129.262139 
L 102.73932 128.984405 
L 103.262788 129.123272 
L 103.786255 129.123272 
L 104.309723 129.262139 
L 109.02093 129.262139 
L 110.067865 128.984405 
L 110.591333 129.262139 
L 111.114801 129.262139 
L 111.638268 128.984405 
L 112.161736 129.262139 
L 126.295358 129.262139 
L 127.342293 128.984405 
L 127.865761 129.262139 
L 133.100436 129.262139 
L 133.623903 128.567803 
L 134.147371 129.262139 
L 175.501303 129.262139 
L 176.024771 128.845538 
L 176.548238 129.262139 
L 243.028611 129.262139 
L 243.552079 129.123272 
L 244.599014 129.123272 
L 245.122481 129.262139 
L 281.241739 129.262139 
L 281.765207 128.984405 
L 282.288674 128.845538 
L 282.812142 129.262139 
L 319.978334 129.262139 
L 320.501802 128.984405 
L 321.025269 128.984405 
L 322.072204 129.262139 
L 358.714929 129.262139 
L 359.238397 129.123272 
L 359.761865 129.262139 
L 362.379202 129.262139 
L 362.90267 129.123272 
L 363.426137 129.262139 
L 407.397407 129.262139 
L 407.920875 129.123272 
L 408.444342 129.262139 
L 413.679017 129.262139 
L 414.202485 128.567803 
L 414.725952 129.262139 
L 417.34329 129.262139 
L 417.866757 128.845538 
L 418.390225 128.984405 
L 418.913692 129.262139 
L 422.054497 129.262139 
L 422.577965 128.984405 
L 423.101432 128.984405 
L 423.6249 129.123272 
L 424.148367 129.123272 
L 424.671835 129.262139 
L 425.195302 129.262139 
L 425.71877 128.984405 
L 426.242237 128.845538 
L 426.765705 128.984405 
L 427.289172 129.262139 
L 440.899327 129.262139 
L 441.422795 129.123272 
L 441.946262 129.262139 
L 442.46973 128.845538 
L 442.993198 129.262139 
L 477.018585 129.262139 
L 477.542053 129.123272 
L 478.06552 128.428936 
L 478.588988 129.262139 
L 479.112455 129.123272 
L 479.635923 129.262139 
L 481.206325 129.262139 
L 481.729793 128.984405 
L 482.25326 129.262139 
L 488.011403 129.262139 
L 488.53487 128.845538 
L 489.058338 128.845538 
L 489.581805 129.262139 
L 497.957285 129.262139 
L 497.957285 129.262139 
" style="fill:none;stroke:#2ca02c;stroke-linecap:square;stroke-width:1.5;"/>
   </g>
   <g id="line2d_6">
    <path clip-path="url(#p3d305baa80)" d="M 92.26997 129.123272 
L 92.793438 129.262139 
L 93.316905 129.123272 
L 93.840373 129.262139 
L 95.410775 129.262139 
L 95.934243 128.845538 
L 96.45771 129.262139 
L 250.880624 129.262139 
L 251.404091 129.123272 
L 251.927559 129.262139 
L 399.545395 129.262139 
L 400.068862 129.123272 
L 400.59233 129.262139 
L 401.115797 129.262139 
L 401.639265 129.123272 
L 402.162732 129.262139 
L 417.866757 129.262139 
L 418.913692 128.984405 
L 419.43716 129.262139 
L 438.805457 129.262139 
L 439.328925 129.123272 
L 439.852392 128.845538 
L 440.37586 129.262139 
L 440.899327 129.262139 
L 441.422795 128.984405 
L 441.946262 128.845538 
L 442.46973 128.845538 
L 442.993198 129.262139 
L 443.516665 129.123272 
L 444.040133 129.123272 
L 444.5636 129.262139 
L 462.361495 129.262139 
L 462.884963 128.984405 
L 463.931898 129.262139 
L 468.119638 129.262139 
L 468.643105 128.567803 
L 469.166573 128.706671 
L 470.213508 129.262139 
L 474.924715 129.262139 
L 475.448183 129.123272 
L 475.97165 129.262139 
L 476.495118 129.123272 
L 477.018585 129.262139 
L 487.487935 129.262139 
L 488.011403 129.123272 
L 488.53487 129.123272 
L 489.058338 129.262139 
L 492.72261 129.262139 
L 493.246078 128.984405 
L 493.769545 128.290069 
L 494.293013 129.262139 
L 497.957285 129.262139 
L 497.957285 129.262139 
" style="fill:none;stroke:#d62728;stroke-linecap:square;stroke-width:1.5;"/>
   </g>
   <g id="line2d_7"/>
   <g id="line2d_8"/>
   <g id="line2d_9"/>
   <g id="line2d_10"/>
   <g id="patch_8">
    <path d="M 72 131.442353 
L 72 83.477647 
" style="fill:none;stroke:#000000;stroke-linecap:square;stroke-linejoin:miter;stroke-width:0.8;"/>
   </g>
   <g id="patch_9">
    <path d="M 518.4 131.442353 
L 518.4 83.477647 
" style="fill:none;stroke:#000000;stroke-linecap:square;stroke-linejoin:miter;stroke-width:0.8;"/>
   </g>
   <g id="patch_10">
    <path d="M 72 131.442353 
L 518.4 131.442353 
" style="fill:none;stroke:#000000;stroke-linecap:square;stroke-linejoin:miter;stroke-width:0.8;"/>
   </g>
   <g id="patch_11">
    <path d="M 72 83.477647 
L 518.4 83.477647 
" style="fill:none;stroke:#000000;stroke-linecap:square;stroke-linejoin:miter;stroke-width:0.8;"/>
   </g>
   <g id="legend_1">
    <g id="patch_12">
     <path d="M 525.4 138.594375 
L 589.754688 138.594375 
Q 591.754688 138.594375 591.754688 136.594375 
L 591.754688 78.325625 
Q 591.754688 76.325625 589.754688 76.325625 
L 525.4 76.325625 
Q 523.4 76.325625 523.4 78.325625 
L 523.4 136.594375 
Q 523.4 138.594375 525.4 138.594375 
z
" style="fill:#ffffff;opacity:0.8;stroke:#cccccc;stroke-linejoin:miter;"/>
    </g>
    <g id="line2d_11">
     <path d="M 527.4 84.424062 
L 547.4 84.424062 
" style="fill:none;stroke:#1f77b4;stroke-linecap:square;stroke-width:1.5;"/>
    </g>
    <g id="line2d_12"/>
    <g id="text_4">
     <!-- L5_IT -->
     <g transform="translate(555.4 87.924062)scale(0.1 -0.1)">
      <defs>
       <path d="M 9.8125 72.90625 
L 19.671875 72.90625 
L 19.671875 8.296875 
L 55.171875 8.296875 
L 55.171875 0 
L 9.8125 0 
z
" id="DejaVuSans-76"/>
       <path d="M 10.796875 72.90625 
L 49.515625 72.90625 
L 49.515625 64.59375 
L 19.828125 64.59375 
L 19.828125 46.734375 
Q 21.96875 47.46875 24.109375 47.828125 
Q 26.265625 48.1875 28.421875 48.1875 
Q 40.625 48.1875 47.75 41.5 
Q 54.890625 34.8125 54.890625 23.390625 
Q 54.890625 11.625 47.5625 5.09375 
Q 40.234375 -1.421875 26.90625 -1.421875 
Q 22.3125 -1.421875 17.546875 -0.640625 
Q 12.796875 0.140625 7.71875 1.703125 
L 7.71875 11.625 
Q 12.109375 9.234375 16.796875 8.0625 
Q 21.484375 6.890625 26.703125 6.890625 
Q 35.15625 6.890625 40.078125 11.328125 
Q 45.015625 15.765625 45.015625 23.390625 
Q 45.015625 31 40.078125 35.4375 
Q 35.15625 39.890625 26.703125 39.890625 
Q 22.75 39.890625 18.8125 39.015625 
Q 14.890625 38.140625 10.796875 36.28125 
z
" id="DejaVuSans-53"/>
       <path d="M 50.984375 -16.609375 
L 50.984375 -23.578125 
L -0.984375 -23.578125 
L -0.984375 -16.609375 
z
" id="DejaVuSans-95"/>
       <path d="M 9.8125 72.90625 
L 19.671875 72.90625 
L 19.671875 0 
L 9.8125 0 
z
" id="DejaVuSans-73"/>
       <path d="M -0.296875 72.90625 
L 61.375 72.90625 
L 61.375 64.59375 
L 35.5 64.59375 
L 35.5 0 
L 25.59375 0 
L 25.59375 64.59375 
L -0.296875 64.59375 
z
" id="DejaVuSans-84"/>
      </defs>
      <use xlink:href="#DejaVuSans-76"/>
      <use x="55.712891" xlink:href="#DejaVuSans-53"/>
      <use x="119.335938" xlink:href="#DejaVuSans-95"/>
      <use x="169.335938" xlink:href="#DejaVuSans-73"/>
      <use x="198.828125" xlink:href="#DejaVuSans-84"/>
     </g>
    </g>
    <g id="line2d_13">
     <path d="M 527.4 99.380312 
L 547.4 99.380312 
" style="fill:none;stroke:#ff7f0e;stroke-linecap:square;stroke-width:1.5;"/>
    </g>
    <g id="line2d_14"/>
    <g id="text_5">
     <!-- Endo -->
     <g transform="translate(555.4 102.880312)scale(0.1 -0.1)">
      <defs>
       <path d="M 9.8125 72.90625 
L 55.90625 72.90625 
L 55.90625 64.59375 
L 19.671875 64.59375 
L 19.671875 43.015625 
L 54.390625 43.015625 
L 54.390625 34.71875 
L 19.671875 34.71875 
L 19.671875 8.296875 
L 56.78125 8.296875 
L 56.78125 0 
L 9.8125 0 
z
" id="DejaVuSans-69"/>
       <path d="M 45.40625 46.390625 
L 45.40625 75.984375 
L 54.390625 75.984375 
L 54.390625 0 
L 45.40625 0 
L 45.40625 8.203125 
Q 42.578125 3.328125 38.25 0.953125 
Q 33.9375 -1.421875 27.875 -1.421875 
Q 17.96875 -1.421875 11.734375 6.484375 
Q 5.515625 14.40625 5.515625 27.296875 
Q 5.515625 40.1875 11.734375 48.09375 
Q 17.96875 56 27.875 56 
Q 33.9375 56 38.25 53.625 
Q 42.578125 51.265625 45.40625 46.390625 
z
M 14.796875 27.296875 
Q 14.796875 17.390625 18.875 11.75 
Q 22.953125 6.109375 30.078125 6.109375 
Q 37.203125 6.109375 41.296875 11.75 
Q 45.40625 17.390625 45.40625 27.296875 
Q 45.40625 37.203125 41.296875 42.84375 
Q 37.203125 48.484375 30.078125 48.484375 
Q 22.953125 48.484375 18.875 42.84375 
Q 14.796875 37.203125 14.796875 27.296875 
z
" id="DejaVuSans-100"/>
      </defs>
      <use xlink:href="#DejaVuSans-69"/>
      <use x="63.183594" xlink:href="#DejaVuSans-110"/>
      <use x="126.5625" xlink:href="#DejaVuSans-100"/>
      <use x="190.039062" xlink:href="#DejaVuSans-111"/>
     </g>
    </g>
    <g id="line2d_15">
     <path d="M 527.4 114.058437 
L 547.4 114.058437 
" style="fill:none;stroke:#2ca02c;stroke-linecap:square;stroke-width:1.5;"/>
    </g>
    <g id="line2d_16"/>
    <g id="text_6">
     <!-- L23_IT -->
     <g transform="translate(555.4 117.558437)scale(0.1 -0.1)">
      <defs>
       <path d="M 40.578125 39.3125 
Q 47.65625 37.796875 51.625 33 
Q 55.609375 28.21875 55.609375 21.1875 
Q 55.609375 10.40625 48.1875 4.484375 
Q 40.765625 -1.421875 27.09375 -1.421875 
Q 22.515625 -1.421875 17.65625 -0.515625 
Q 12.796875 0.390625 7.625 2.203125 
L 7.625 11.71875 
Q 11.71875 9.328125 16.59375 8.109375 
Q 21.484375 6.890625 26.8125 6.890625 
Q 36.078125 6.890625 40.9375 10.546875 
Q 45.796875 14.203125 45.796875 21.1875 
Q 45.796875 27.640625 41.28125 31.265625 
Q 36.765625 34.90625 28.71875 34.90625 
L 20.21875 34.90625 
L 20.21875 43.015625 
L 29.109375 43.015625 
Q 36.375 43.015625 40.234375 45.921875 
Q 44.09375 48.828125 44.09375 54.296875 
Q 44.09375 59.90625 40.109375 62.90625 
Q 36.140625 65.921875 28.71875 65.921875 
Q 24.65625 65.921875 20.015625 65.03125 
Q 15.375 64.15625 9.8125 62.3125 
L 9.8125 71.09375 
Q 15.4375 72.65625 20.34375 73.4375 
Q 25.25 74.21875 29.59375 74.21875 
Q 40.828125 74.21875 47.359375 69.109375 
Q 53.90625 64.015625 53.90625 55.328125 
Q 53.90625 49.265625 50.4375 45.09375 
Q 46.96875 40.921875 40.578125 39.3125 
z
" id="DejaVuSans-51"/>
      </defs>
      <use xlink:href="#DejaVuSans-76"/>
      <use x="55.712891" xlink:href="#DejaVuSans-50"/>
      <use x="119.335938" xlink:href="#DejaVuSans-51"/>
      <use x="182.958984" xlink:href="#DejaVuSans-95"/>
      <use x="232.958984" xlink:href="#DejaVuSans-73"/>
      <use x="262.451172" xlink:href="#DejaVuSans-84"/>
     </g>
    </g>
    <g id="line2d_17">
     <path d="M 527.4 129.014687 
L 547.4 129.014687 
" style="fill:none;stroke:#d62728;stroke-linecap:square;stroke-width:1.5;"/>
    </g>
    <g id="line2d_18"/>
    <g id="text_7">
     <!-- VLMC -->
     <g transform="translate(555.4 132.514687)scale(0.1 -0.1)">
      <defs>
       <path d="M 28.609375 0 
L 0.78125 72.90625 
L 11.078125 72.90625 
L 34.1875 11.53125 
L 57.328125 72.90625 
L 67.578125 72.90625 
L 39.796875 0 
z
" id="DejaVuSans-86"/>
       <path d="M 9.8125 72.90625 
L 24.515625 72.90625 
L 43.109375 23.296875 
L 61.8125 72.90625 
L 76.515625 72.90625 
L 76.515625 0 
L 66.890625 0 
L 66.890625 64.015625 
L 48.09375 14.015625 
L 38.1875 14.015625 
L 19.390625 64.015625 
L 19.390625 0 
L 9.8125 0 
z
" id="DejaVuSans-77"/>
       <path d="M 64.40625 67.28125 
L 64.40625 56.890625 
Q 59.421875 61.53125 53.78125 63.8125 
Q 48.140625 66.109375 41.796875 66.109375 
Q 29.296875 66.109375 22.65625 58.46875 
Q 16.015625 50.828125 16.015625 36.375 
Q 16.015625 21.96875 22.65625 14.328125 
Q 29.296875 6.6875 41.796875 6.6875 
Q 48.140625 6.6875 53.78125 8.984375 
Q 59.421875 11.28125 64.40625 15.921875 
L 64.40625 5.609375 
Q 59.234375 2.09375 53.4375 0.328125 
Q 47.65625 -1.421875 41.21875 -1.421875 
Q 24.65625 -1.421875 15.125 8.703125 
Q 5.609375 18.84375 5.609375 36.375 
Q 5.609375 53.953125 15.125 64.078125 
Q 24.65625 74.21875 41.21875 74.21875 
Q 47.75 74.21875 53.53125 72.484375 
Q 59.328125 70.75 64.40625 67.28125 
z
" id="DejaVuSans-67"/>
      </defs>
      <use xlink:href="#DejaVuSans-86"/>
      <use x="68.408203" xlink:href="#DejaVuSans-76"/>
      <use x="124.121094" xlink:href="#DejaVuSans-77"/>
      <use x="210.400391" xlink:href="#DejaVuSans-67"/>
     </g>
    </g>
   </g>
  </g>
  <g id="axes_3">
   <g id="patch_13">
    <path d="M 72 189 
L 518.4 189 
L 518.4 141.035294 
L 72 141.035294 
z
" style="fill:#ffffff;"/>
   </g>
   <g id="matplotlib.axis_3">
    <g id="text_8">
     <!-- pos -->
     <g transform="translate(286.361719 200.598437)scale(0.1 -0.1)">
      <defs>
       <path d="M 18.109375 8.203125 
L 18.109375 -20.796875 
L 9.078125 -20.796875 
L 9.078125 54.6875 
L 18.109375 54.6875 
L 18.109375 46.390625 
Q 20.953125 51.265625 25.265625 53.625 
Q 29.59375 56 35.59375 56 
Q 45.5625 56 51.78125 48.09375 
Q 58.015625 40.1875 58.015625 27.296875 
Q 58.015625 14.40625 51.78125 6.484375 
Q 45.5625 -1.421875 35.59375 -1.421875 
Q 29.59375 -1.421875 25.265625 0.953125 
Q 20.953125 3.328125 18.109375 8.203125 
z
M 48.6875 27.296875 
Q 48.6875 37.203125 44.609375 42.84375 
Q 40.53125 48.484375 33.40625 48.484375 
Q 26.265625 48.484375 22.1875 42.84375 
Q 18.109375 37.203125 18.109375 27.296875 
Q 18.109375 17.390625 22.1875 11.75 
Q 26.265625 6.109375 33.40625 6.109375 
Q 40.53125 6.109375 44.609375 11.75 
Q 48.6875 17.390625 48.6875 27.296875 
z
" id="DejaVuSans-112"/>
       <path d="M 44.28125 53.078125 
L 44.28125 44.578125 
Q 40.484375 46.53125 36.375 47.5 
Q 32.28125 48.484375 27.875 48.484375 
Q 21.1875 48.484375 17.84375 46.4375 
Q 14.5 44.390625 14.5 40.28125 
Q 14.5 37.15625 16.890625 35.375 
Q 19.28125 33.59375 26.515625 31.984375 
L 29.59375 31.296875 
Q 39.15625 29.25 43.1875 25.515625 
Q 47.21875 21.78125 47.21875 15.09375 
Q 47.21875 7.46875 41.1875 3.015625 
Q 35.15625 -1.421875 24.609375 -1.421875 
Q 20.21875 -1.421875 15.453125 -0.5625 
Q 10.6875 0.296875 5.421875 2 
L 5.421875 11.28125 
Q 10.40625 8.6875 15.234375 7.390625 
Q 20.0625 6.109375 24.8125 6.109375 
Q 31.15625 6.109375 34.5625 8.28125 
Q 37.984375 10.453125 37.984375 14.40625 
Q 37.984375 18.0625 35.515625 20.015625 
Q 33.0625 21.96875 24.703125 23.78125 
L 21.578125 24.515625 
Q 13.234375 26.265625 9.515625 29.90625 
Q 5.8125 33.546875 5.8125 39.890625 
Q 5.8125 47.609375 11.28125 51.796875 
Q 16.75 56 26.8125 56 
Q 31.78125 56 36.171875 55.265625 
Q 40.578125 54.546875 44.28125 53.078125 
z
" id="DejaVuSans-115"/>
      </defs>
      <use xlink:href="#DejaVuSans-112"/>
      <use x="63.476562" xlink:href="#DejaVuSans-111"/>
      <use x="124.658203" xlink:href="#DejaVuSans-115"/>
     </g>
    </g>
   </g>
   <g id="matplotlib.axis_4">
    <g id="ytick_3">
     <g id="line2d_19">
      <g>
       <use style="stroke:#000000;stroke-width:0.8;" x="72" xlink:href="#m48aff0d393" y="187.674772"/>
      </g>
     </g>
     <g id="text_9">
      <!-- 0 -->
      <g transform="translate(58.6375 191.473991)scale(0.1 -0.1)">
       <use xlink:href="#DejaVuSans-48"/>
      </g>
     </g>
    </g>
    <g id="ytick_4">
     <g id="line2d_20">
      <g>
       <use style="stroke:#000000;stroke-width:0.8;" x="72" xlink:href="#m48aff0d393" y="143.215508"/>
      </g>
     </g>
     <g id="text_10">
      <!-- 1 -->
      <g transform="translate(58.6375 147.014727)scale(0.1 -0.1)">
       <defs>
        <path d="M 12.40625 8.296875 
L 28.515625 8.296875 
L 28.515625 63.921875 
L 10.984375 60.40625 
L 10.984375 69.390625 
L 28.421875 72.90625 
L 38.28125 72.90625 
L 38.28125 8.296875 
L 54.390625 8.296875 
L 54.390625 0 
L 12.40625 0 
z
" id="DejaVuSans-49"/>
       </defs>
       <use xlink:href="#DejaVuSans-49"/>
      </g>
     </g>
    </g>
    <g id="text_11">
     <!-- cumulative -->
     <g transform="translate(52.557812 192.81296)rotate(-90)scale(0.1 -0.1)">
      <defs>
       <path d="M 52 44.1875 
Q 55.375 50.25 60.0625 53.125 
Q 64.75 56 71.09375 56 
Q 79.640625 56 84.28125 50.015625 
Q 88.921875 44.046875 88.921875 33.015625 
L 88.921875 0 
L 79.890625 0 
L 79.890625 32.71875 
Q 79.890625 40.578125 77.09375 44.375 
Q 74.3125 48.1875 68.609375 48.1875 
Q 61.625 48.1875 57.5625 43.546875 
Q 53.515625 38.921875 53.515625 30.90625 
L 53.515625 0 
L 44.484375 0 
L 44.484375 32.71875 
Q 44.484375 40.625 41.703125 44.40625 
Q 38.921875 48.1875 33.109375 48.1875 
Q 26.21875 48.1875 22.15625 43.53125 
Q 18.109375 38.875 18.109375 30.90625 
L 18.109375 0 
L 9.078125 0 
L 9.078125 54.6875 
L 18.109375 54.6875 
L 18.109375 46.1875 
Q 21.1875 51.21875 25.484375 53.609375 
Q 29.78125 56 35.6875 56 
Q 41.65625 56 45.828125 52.96875 
Q 50 49.953125 52 44.1875 
z
" id="DejaVuSans-109"/>
       <path d="M 9.421875 75.984375 
L 18.40625 75.984375 
L 18.40625 0 
L 9.421875 0 
z
" id="DejaVuSans-108"/>
       <path d="M 34.28125 27.484375 
Q 23.390625 27.484375 19.1875 25 
Q 14.984375 22.515625 14.984375 16.5 
Q 14.984375 11.71875 18.140625 8.90625 
Q 21.296875 6.109375 26.703125 6.109375 
Q 34.1875 6.109375 38.703125 11.40625 
Q 43.21875 16.703125 43.21875 25.484375 
L 43.21875 27.484375 
z
M 52.203125 31.203125 
L 52.203125 0 
L 43.21875 0 
L 43.21875 8.296875 
Q 40.140625 3.328125 35.546875 0.953125 
Q 30.953125 -1.421875 24.3125 -1.421875 
Q 15.921875 -1.421875 10.953125 3.296875 
Q 6 8.015625 6 15.921875 
Q 6 25.140625 12.171875 29.828125 
Q 18.359375 34.515625 30.609375 34.515625 
L 43.21875 34.515625 
L 43.21875 35.40625 
Q 43.21875 41.609375 39.140625 45 
Q 35.0625 48.390625 27.6875 48.390625 
Q 23 48.390625 18.546875 47.265625 
Q 14.109375 46.140625 10.015625 43.890625 
L 10.015625 52.203125 
Q 14.9375 54.109375 19.578125 55.046875 
Q 24.21875 56 28.609375 56 
Q 40.484375 56 46.34375 49.84375 
Q 52.203125 43.703125 52.203125 31.203125 
z
" id="DejaVuSans-97"/>
       <path d="M 9.421875 54.6875 
L 18.40625 54.6875 
L 18.40625 0 
L 9.421875 0 
z
M 9.421875 75.984375 
L 18.40625 75.984375 
L 18.40625 64.59375 
L 9.421875 64.59375 
z
" id="DejaVuSans-105"/>
       <path d="M 2.984375 54.6875 
L 12.5 54.6875 
L 29.59375 8.796875 
L 46.6875 54.6875 
L 56.203125 54.6875 
L 35.6875 0 
L 23.484375 0 
z
" id="DejaVuSans-118"/>
       <path d="M 56.203125 29.59375 
L 56.203125 25.203125 
L 14.890625 25.203125 
Q 15.484375 15.921875 20.484375 11.0625 
Q 25.484375 6.203125 34.421875 6.203125 
Q 39.59375 6.203125 44.453125 7.46875 
Q 49.3125 8.734375 54.109375 11.28125 
L 54.109375 2.78125 
Q 49.265625 0.734375 44.1875 -0.34375 
Q 39.109375 -1.421875 33.890625 -1.421875 
Q 20.796875 -1.421875 13.15625 6.1875 
Q 5.515625 13.8125 5.515625 26.8125 
Q 5.515625 40.234375 12.765625 48.109375 
Q 20.015625 56 32.328125 56 
Q 43.359375 56 49.78125 48.890625 
Q 56.203125 41.796875 56.203125 29.59375 
z
M 47.21875 32.234375 
Q 47.125 39.59375 43.09375 43.984375 
Q 39.0625 48.390625 32.421875 48.390625 
Q 24.90625 48.390625 20.390625 44.140625 
Q 15.875 39.890625 15.1875 32.171875 
z
" id="DejaVuSans-101"/>
      </defs>
      <use xlink:href="#DejaVuSans-99"/>
      <use x="54.980469" xlink:href="#DejaVuSans-117"/>
      <use x="118.359375" xlink:href="#DejaVuSans-109"/>
      <use x="215.771484" xlink:href="#DejaVuSans-117"/>
      <use x="279.150391" xlink:href="#DejaVuSans-108"/>
      <use x="306.933594" xlink:href="#DejaVuSans-97"/>
      <use x="368.212891" xlink:href="#DejaVuSans-116"/>
      <use x="407.421875" xlink:href="#DejaVuSans-105"/>
      <use x="435.205078" xlink:href="#DejaVuSans-118"/>
      <use x="494.384766" xlink:href="#DejaVuSans-101"/>
     </g>
    </g>
   </g>
   <g id="line2d_21">
    <path clip-path="url(#pfb7496d035)" d="M 92.26997 185.822303 
L 93.316905 182.81204 
L 93.840373 182.348923 
L 94.887308 182.348923 
L 95.410775 182.117364 
L 95.934243 180.033336 
L 96.45771 177.486191 
L 100.121983 177.486191 
L 100.64545 177.254632 
L 103.262788 177.254632 
L 103.786255 177.023073 
L 127.865761 177.023073 
L 128.389228 176.328397 
L 128.912696 175.86528 
L 149.327928 175.86528 
L 149.851396 175.633721 
L 163.461551 175.633721 
L 163.985018 175.402163 
L 168.172758 175.402163 
L 168.696226 174.939045 
L 169.219693 174.939045 
L 169.743161 174.707487 
L 188.587991 174.707487 
L 189.111458 174.475928 
L 189.634926 171.928783 
L 190.158393 171.465665 
L 193.299198 171.465665 
L 193.822666 171.234107 
L 194.346134 169.844755 
L 194.869601 169.150079 
L 195.393069 168.91852 
L 243.028611 168.91852 
L 243.552079 166.834492 
L 244.075546 164.287347 
L 244.599014 162.434877 
L 245.645949 162.434877 
L 246.169416 162.203319 
L 256.115299 162.203319 
L 257.162234 161.740201 
L 269.201986 161.740201 
L 270.248921 160.813967 
L 294.328427 160.813967 
L 294.851894 160.582408 
L 319.978334 160.582408 
L 321.548737 159.887732 
L 339.870099 159.887732 
L 340.393567 159.193056 
L 360.8088 159.193056 
L 361.332267 158.729939 
L 361.855735 158.49838 
L 386.458707 158.49838 
L 386.982175 157.803704 
L 387.505642 156.414352 
L 388.02911 156.182793 
L 416.819822 156.182793 
L 417.34329 155.951235 
L 422.054497 155.951235 
L 422.577965 155.719676 
L 423.101432 154.561883 
L 423.6249 154.098765 
L 438.805457 154.098765 
L 439.328925 153.867207 
L 440.37586 153.867207 
L 441.422795 152.940972 
L 471.260443 152.940972 
L 471.78391 152.477855 
L 475.448183 152.477855 
L 475.97165 152.246296 
L 476.495118 151.320061 
L 477.018585 151.088503 
L 478.06552 148.541357 
L 478.588988 148.309799 
L 488.011403 148.309799 
L 488.53487 147.846681 
L 489.058338 147.615123 
L 489.581805 147.152005 
L 490.105273 146.457329 
L 490.62874 146.225771 
L 492.72261 146.225771 
L 493.769545 143.215508 
L 497.957285 143.215508 
L 497.957285 143.215508 
" style="fill:none;stroke:#1f77b4;stroke-linecap:square;stroke-width:1.5;"/>
   </g>
   <g id="line2d_22">
    <path clip-path="url(#pfb7496d035)" d="M 92.26997 186.577141 
L 92.793438 183.294703 
L 93.316905 181.308515 
L 93.840373 180.723112 
L 94.887308 180.608122 
L 95.410775 179.907729 
L 95.934243 176.949353 
L 96.45771 174.889989 
L 96.981178 174.503205 
L 98.55158 173.970071 
L 99.075048 173.949163 
L 99.598515 173.802813 
L 100.121983 172.87244 
L 100.64545 172.464749 
L 101.692385 172.297491 
L 103.786255 172.213862 
L 115.302541 172.088418 
L 127.342293 171.994336 
L 128.389228 171.795717 
L 138.335111 171.712088 
L 141.999383 171.576191 
L 144.093253 171.513469 
L 145.663656 171.450747 
L 151.421798 171.398479 
L 152.468733 171.335757 
L 162.938083 171.231221 
L 163.985018 171.19986 
L 164.508486 171.032602 
L 165.031953 170.614457 
L 165.555421 170.47856 
L 168.696226 170.457653 
L 174.454368 170.300848 
L 174.977836 170.217219 
L 175.501303 170.008147 
L 176.024771 169.516827 
L 177.071706 169.38093 
L 199.057341 169.276393 
L 199.580809 169.171857 
L 200.104276 168.879156 
L 201.151211 168.795527 
L 215.284834 168.701444 
L 219.996041 168.617815 
L 224.183781 168.534186 
L 225.230716 168.450557 
L 228.371521 168.42965 
L 232.035794 168.366928 
L 233.082729 167.980144 
L 237.793936 167.896515 
L 238.840871 167.771071 
L 243.028611 167.70835 
L 246.169416 167.122947 
L 250.357156 167.01841 
L 251.927559 166.328471 
L 254.544896 166.213481 
L 280.194804 166.108945 
L 281.241739 166.088038 
L 281.765207 165.868512 
L 282.288674 165.356284 
L 282.812142 165.147212 
L 297.469232 165.094944 
L 299.039634 164.781335 
L 299.563102 164.603623 
L 301.656972 164.540901 
L 317.360997 164.436365 
L 319.978334 164.258654 
L 320.501802 163.913684 
L 321.025269 162.910136 
L 321.548737 162.659249 
L 332.541554 162.544259 
L 339.346632 162.450177 
L 340.393567 161.937949 
L 341.440502 161.843866 
L 348.769047 161.760237 
L 350.862917 161.676608 
L 357.667994 161.592979 
L 360.285332 161.237556 
L 360.8088 161.059845 
L 361.332267 160.516256 
L 361.855735 160.202647 
L 365.520007 160.160833 
L 386.982175 160.06675 
L 396.40459 159.784502 
L 402.6862 159.711327 
L 403.733135 159.585884 
L 406.87394 159.502255 
L 407.920875 159.073656 
L 410.014745 158.979573 
L 414.725952 158.895944 
L 416.296355 158.718233 
L 417.34329 158.645057 
L 418.913692 158.080562 
L 422.577965 157.976025 
L 423.101432 157.516066 
L 423.6249 157.244272 
L 425.71877 157.171096 
L 426.765705 156.063012 
L 427.81264 155.948022 
L 440.899327 155.843486 
L 446.134003 155.728496 
L 453.986015 155.634414 
L 455.556418 155.561238 
L 464.978833 155.477609 
L 467.59617 155.477609 
L 470.213508 155.007196 
L 473.354313 154.934021 
L 474.924715 154.683134 
L 476.495118 154.379979 
L 477.018585 153.899112 
L 477.542053 152.811935 
L 478.06552 151.233438 
L 478.588988 150.616674 
L 479.635923 150.397148 
L 481.729793 150.22989 
L 482.776728 150.156715 
L 486.441 150.062632 
L 487.487935 149.905828 
L 488.011403 149.62358 
L 489.581805 145.295779 
L 490.105273 144.83582 
L 491.152208 144.637201 
L 492.199143 144.616294 
L 492.72261 144.386314 
L 493.246078 143.790457 
L 493.769545 143.424581 
L 497.433818 143.215508 
L 497.957285 143.215508 
L 497.957285 143.215508 
" style="fill:none;stroke:#ff7f0e;stroke-linecap:square;stroke-width:1.5;"/>
   </g>
   <g id="line2d_23">
    <path clip-path="url(#pfb7496d035)" d="M 92.26997 185.473818 
L 92.793438 183.713055 
L 93.316905 183.272865 
L 95.410775 183.272865 
L 95.934243 181.952292 
L 96.45771 181.512102 
L 96.981178 178.870957 
L 97.504645 178.870957 
L 98.028113 178.430767 
L 99.075048 178.430767 
L 99.598515 177.990576 
L 102.215853 177.990576 
L 102.73932 177.110194 
L 103.786255 176.229813 
L 109.02093 176.229813 
L 109.544398 175.789622 
L 110.067865 174.909241 
L 111.114801 174.909241 
L 111.638268 174.028859 
L 126.295358 174.028859 
L 126.818826 173.588669 
L 127.342293 172.708287 
L 133.100436 172.708287 
L 133.623903 170.507333 
L 175.501303 170.507333 
L 176.024771 169.186761 
L 243.028611 169.186761 
L 244.599014 167.866189 
L 281.241739 167.866189 
L 281.765207 166.985808 
L 282.288674 165.665235 
L 319.978334 165.665235 
L 321.025269 163.904472 
L 321.548737 163.464282 
L 358.714929 163.464282 
L 359.238397 163.024091 
L 362.379202 163.024091 
L 362.90267 162.5839 
L 407.397407 162.5839 
L 407.920875 162.143709 
L 413.679017 162.143709 
L 414.202485 159.942756 
L 417.34329 159.942756 
L 417.866757 158.622184 
L 418.390225 157.741802 
L 422.054497 157.741802 
L 423.101432 155.981039 
L 424.148367 155.100658 
L 425.195302 155.100658 
L 425.71877 154.220276 
L 426.242237 152.899704 
L 426.765705 152.019323 
L 440.899327 152.019323 
L 441.422795 151.579132 
L 441.946262 151.579132 
L 442.46973 150.25856 
L 477.018585 150.25856 
L 477.542053 149.818369 
L 478.06552 147.177225 
L 478.588988 147.177225 
L 479.112455 146.737034 
L 481.206325 146.737034 
L 481.729793 145.856652 
L 488.011403 145.856652 
L 489.058338 143.215508 
L 497.957285 143.215508 
L 497.957285 143.215508 
" style="fill:none;stroke:#2ca02c;stroke-linecap:square;stroke-width:1.5;"/>
   </g>
   <g id="line2d_24">
    <path clip-path="url(#pfb7496d035)" d="M 92.26997 186.819786 
L 92.793438 186.819786 
L 93.316905 185.9648 
L 95.410775 185.9648 
L 95.934243 183.399843 
L 250.880624 183.399843 
L 251.404091 182.544857 
L 399.545395 182.544857 
L 400.068862 181.689871 
L 401.115797 181.689871 
L 401.639265 180.834885 
L 417.866757 180.834885 
L 418.390225 179.979899 
L 418.913692 178.269928 
L 438.805457 178.269928 
L 439.328925 177.414942 
L 439.852392 174.849984 
L 440.899327 174.849984 
L 441.422795 173.140013 
L 442.46973 168.010098 
L 442.993198 168.010098 
L 444.040133 166.300126 
L 462.361495 166.300126 
L 462.884963 164.590154 
L 463.40843 163.735168 
L 468.119638 163.735168 
L 469.166573 156.040296 
L 469.69004 154.330324 
L 474.924715 154.330324 
L 475.448183 153.475338 
L 475.97165 153.475338 
L 476.495118 152.620352 
L 487.487935 152.620352 
L 488.53487 150.910381 
L 492.72261 150.910381 
L 493.246078 149.200409 
L 493.769545 143.215508 
L 497.957285 143.215508 
L 497.957285 143.215508 
" style="fill:none;stroke:#d62728;stroke-linecap:square;stroke-width:1.5;"/>
   </g>
   <g id="patch_14">
    <path d="M 72 189 
L 72 141.035294 
" style="fill:none;stroke:#000000;stroke-linecap:square;stroke-linejoin:miter;stroke-width:0.8;"/>
   </g>
   <g id="patch_15">
    <path d="M 518.4 189 
L 518.4 141.035294 
" style="fill:none;stroke:#000000;stroke-linecap:square;stroke-linejoin:miter;stroke-width:0.8;"/>
   </g>
   <g id="patch_16">
    <path d="M 72 189 
L 518.4 189 
" style="fill:none;stroke:#000000;stroke-linecap:square;stroke-linejoin:miter;stroke-width:0.8;"/>
   </g>
   <g id="patch_17">
    <path d="M 72 141.035294 
L 518.4 141.035294 
" style="fill:none;stroke:#000000;stroke-linecap:square;stroke-linejoin:miter;stroke-width:0.8;"/>
   </g>
  </g>
  <g id="text_12">
   <!-- Flt1 chr5 minus strand 3' UTR -->
   <g transform="translate(198.62625 13.438125)scale(0.12 -0.12)">
    <defs>
     <path d="M 9.8125 72.90625 
L 51.703125 72.90625 
L 51.703125 64.59375 
L 19.671875 64.59375 
L 19.671875 43.109375 
L 48.578125 43.109375 
L 48.578125 34.8125 
L 19.671875 34.8125 
L 19.671875 0 
L 9.8125 0 
z
" id="DejaVuSans-70"/>
     <path id="DejaVuSans-32"/>
     <path d="M 54.890625 33.015625 
L 54.890625 0 
L 45.90625 0 
L 45.90625 32.71875 
Q 45.90625 40.484375 42.875 44.328125 
Q 39.84375 48.1875 33.796875 48.1875 
Q 26.515625 48.1875 22.3125 43.546875 
Q 18.109375 38.921875 18.109375 30.90625 
L 18.109375 0 
L 9.078125 0 
L 9.078125 75.984375 
L 18.109375 75.984375 
L 18.109375 46.1875 
Q 21.34375 51.125 25.703125 53.5625 
Q 30.078125 56 35.796875 56 
Q 45.21875 56 50.046875 50.171875 
Q 54.890625 44.34375 54.890625 33.015625 
z
" id="DejaVuSans-104"/>
     <path d="M 41.109375 46.296875 
Q 39.59375 47.171875 37.8125 47.578125 
Q 36.03125 48 33.890625 48 
Q 26.265625 48 22.1875 43.046875 
Q 18.109375 38.09375 18.109375 28.8125 
L 18.109375 0 
L 9.078125 0 
L 9.078125 54.6875 
L 18.109375 54.6875 
L 18.109375 46.1875 
Q 20.953125 51.171875 25.484375 53.578125 
Q 30.03125 56 36.53125 56 
Q 37.453125 56 38.578125 55.875 
Q 39.703125 55.765625 41.0625 55.515625 
z
" id="DejaVuSans-114"/>
     <path d="M 17.921875 72.90625 
L 17.921875 45.796875 
L 9.625 45.796875 
L 9.625 72.90625 
z
" id="DejaVuSans-39"/>
     <path d="M 8.6875 72.90625 
L 18.609375 72.90625 
L 18.609375 28.609375 
Q 18.609375 16.890625 22.84375 11.734375 
Q 27.09375 6.59375 36.625 6.59375 
Q 46.09375 6.59375 50.34375 11.734375 
Q 54.59375 16.890625 54.59375 28.609375 
L 54.59375 72.90625 
L 64.5 72.90625 
L 64.5 27.390625 
Q 64.5 13.140625 57.4375 5.859375 
Q 50.390625 -1.421875 36.625 -1.421875 
Q 22.796875 -1.421875 15.734375 5.859375 
Q 8.6875 13.140625 8.6875 27.390625 
z
" id="DejaVuSans-85"/>
     <path d="M 44.390625 34.1875 
Q 47.5625 33.109375 50.5625 29.59375 
Q 53.5625 26.078125 56.59375 19.921875 
L 66.609375 0 
L 56 0 
L 46.6875 18.703125 
Q 43.0625 26.03125 39.671875 28.421875 
Q 36.28125 30.8125 30.421875 30.8125 
L 19.671875 30.8125 
L 19.671875 0 
L 9.8125 0 
L 9.8125 72.90625 
L 32.078125 72.90625 
Q 44.578125 72.90625 50.734375 67.671875 
Q 56.890625 62.453125 56.890625 51.90625 
Q 56.890625 45.015625 53.6875 40.46875 
Q 50.484375 35.9375 44.390625 34.1875 
z
M 19.671875 64.796875 
L 19.671875 38.921875 
L 32.078125 38.921875 
Q 39.203125 38.921875 42.84375 42.21875 
Q 46.484375 45.515625 46.484375 51.90625 
Q 46.484375 58.296875 42.84375 61.546875 
Q 39.203125 64.796875 32.078125 64.796875 
z
" id="DejaVuSans-82"/>
    </defs>
    <use xlink:href="#DejaVuSans-70"/>
    <use x="57.519531" xlink:href="#DejaVuSans-108"/>
    <use x="85.302734" xlink:href="#DejaVuSans-116"/>
    <use x="124.511719" xlink:href="#DejaVuSans-49"/>
    <use x="188.134766" xlink:href="#DejaVuSans-32"/>
    <use x="219.921875" xlink:href="#DejaVuSans-99"/>
    <use x="274.902344" xlink:href="#DejaVuSans-104"/>
    <use x="338.28125" xlink:href="#DejaVuSans-114"/>
    <use x="379.394531" xlink:href="#DejaVuSans-53"/>
    <use x="443.017578" xlink:href="#DejaVuSans-32"/>
    <use x="474.804688" xlink:href="#DejaVuSans-109"/>
    <use x="572.216797" xlink:href="#DejaVuSans-105"/>
    <use x="600" xlink:href="#DejaVuSans-110"/>
    <use x="663.378906" xlink:href="#DejaVuSans-117"/>
    <use x="726.757812" xlink:href="#DejaVuSans-115"/>
    <use x="778.857422" xlink:href="#DejaVuSans-32"/>
    <use x="810.644531" xlink:href="#DejaVuSans-115"/>
    <use x="862.744141" xlink:href="#DejaVuSans-116"/>
    <use x="901.953125" xlink:href="#DejaVuSans-114"/>
    <use x="943.066406" xlink:href="#DejaVuSans-97"/>
    <use x="1004.345703" xlink:href="#DejaVuSans-110"/>
    <use x="1067.724609" xlink:href="#DejaVuSans-100"/>
    <use x="1131.201172" xlink:href="#DejaVuSans-32"/>
    <use x="1162.988281" xlink:href="#DejaVuSans-51"/>
    <use x="1226.611328" xlink:href="#DejaVuSans-39"/>
    <use x="1254.101562" xlink:href="#DejaVuSans-32"/>
    <use x="1285.888672" xlink:href="#DejaVuSans-85"/>
    <use x="1359.082031" xlink:href="#DejaVuSans-84"/>
    <use x="1420.166016" xlink:href="#DejaVuSans-82"/>
   </g>
  </g>
 </g>
 <defs>
  <clipPath id="pc1e8b799fb">
   <rect height="47.964706" width="446.4" x="72" y="25.92"/>
  </clipPath>
  <clipPath id="p3d305baa80">
   <rect height="47.964706" width="446.4" x="72" y="83.477647"/>
  </clipPath>
  <clipPath id="pfb7496d035">
   <rect height="47.964706" width="446.4" x="72" y="141.035294"/>
  </clipPath>
 </defs>
</svg>
