<?xml version="1.0" encoding="utf-8" standalone="no"?>
<!DOCTYPE svg PUBLIC "-//W3C//DTD SVG 1.1//EN"
  "http://www.w3.org/Graphics/SVG/1.1/DTD/svg11.dtd">
<!-- Created with matplotlib (https://matplotlib.org/) -->
<svg height="381.274375pt" version="1.1" viewBox="0 0 456.040339 381.274375" width="456.040339pt" xmlns="http://www.w3.org/2000/svg" xmlns:xlink="http://www.w3.org/1999/xlink">
 <metadata>
  <rdf:RDF xmlns:cc="http://creativecommons.org/ns#" xmlns:dc="http://purl.org/dc/elements/1.1/" xmlns:rdf="http://www.w3.org/1999/02/22-rdf-syntax-ns#">
   <cc:Work>
    <dc:type rdf:resource="http://purl.org/dc/dcmitype/StillImage"/>
    <dc:date>2022-02-09T12:41:30.296415</dc:date>
    <dc:format>image/svg+xml</dc:format>
    <dc:creator>
     <cc:Agent>
      <dc:title>Matplotlib v3.3.3, https://matplotlib.org/</dc:title>
     </cc:Agent>
    </dc:creator>
   </cc:Work>
  </rdf:RDF>
 </metadata>
 <defs>
  <style type="text/css">*{stroke-linecap:butt;stroke-linejoin:round;}</style>
 </defs>
 <g id="figure_1">
  <g id="patch_1">
   <path d="M 0 381.274375 
L 456.040339 381.274375 
L 456.040339 0 
L 0 0 
z
" style="fill:none;"/>
  </g>
  <g id="axes_1">
   <g id="patch_2">
    <path d="M 43.78125 343.718125 
L 356.941589 343.718125 
L 356.941589 22.318125 
L 43.78125 22.318125 
z
" style="fill:#ffffff;"/>
   </g>
   <g id="PathCollection_1">
    <path clip-path="url(#p82cb78ddd8)" d="M 243.225672 246.482927 
C 243.788253 246.482927 244.327868 246.259411 244.725672 245.861606 
C 245.123477 245.463802 245.346993 244.924187 245.346993 244.361606 
C 245.346993 243.799026 245.123477 243.259411 244.725672 242.861606 
C 244.327868 242.463802 243.788253 242.240286 243.225672 242.240286 
C 242.663092 242.240286 242.123477 242.463802 241.725672 242.861606 
C 241.327868 243.259411 241.104352 243.799026 241.104352 244.361606 
C 241.104352 244.924187 241.327868 245.463802 241.725672 245.861606 
C 242.123477 246.259411 242.663092 246.482927 243.225672 246.482927 
z
" style="fill:#9467bd;stroke:#ffffff;stroke-width:0.339411;"/>
    <path clip-path="url(#p82cb78ddd8)" d="M 252.942714 246.482927 
L 254.003374 245.422267 
L 255.064034 246.482927 
L 256.124694 245.422267 
L 255.064034 244.361606 
L 256.124694 243.300946 
L 255.064034 242.240286 
L 254.003374 243.300946 
L 252.942714 242.240286 
L 251.882054 243.300946 
L 252.942714 244.361606 
L 251.882054 245.422267 
z
" style="fill:#9467bd;stroke:#ffffff;stroke-width:0.339411;"/>
    <path clip-path="url(#p82cb78ddd8)" d="M 243.225672 246.482927 
C 243.788253 246.482927 244.327868 246.259411 244.725672 245.861606 
C 245.123477 245.463802 245.346993 244.924187 245.346993 244.361606 
C 245.346993 243.799026 245.123477 243.259411 244.725672 242.861606 
C 244.327868 242.463802 243.788253 242.240286 243.225672 242.240286 
C 242.663092 242.240286 242.123477 242.463802 241.725672 242.861606 
C 241.327868 243.259411 241.104352 243.799026 241.104352 244.361606 
C 241.104352 244.924187 241.327868 245.463802 241.725672 245.861606 
C 242.123477 246.259411 242.663092 246.482927 243.225672 246.482927 
z
" style="fill:#9467bd;stroke:#ffffff;stroke-width:0.339411;"/>
    <path clip-path="url(#p82cb78ddd8)" d="M 217.256794 242.861606 
L 217.256794 245.861606 
L 220.256794 245.861606 
L 220.256794 242.861606 
z
" style="fill:#9467bd;stroke:#ffffff;stroke-width:0.339411;"/>
    <path clip-path="url(#p82cb78ddd8)" d="M 252.942714 246.482927 
L 254.003374 245.422267 
L 255.064034 246.482927 
L 256.124694 245.422267 
L 255.064034 244.361606 
L 256.124694 243.300946 
L 255.064034 242.240286 
L 254.003374 243.300946 
L 252.942714 242.240286 
L 251.882054 243.300946 
L 252.942714 244.361606 
L 251.882054 245.422267 
z
" style="fill:#9467bd;stroke:#ffffff;stroke-width:0.339411;"/>
    <path clip-path="url(#p82cb78ddd8)" d="M 217.256794 242.861606 
L 217.256794 245.861606 
L 220.256794 245.861606 
L 220.256794 242.861606 
z
" style="fill:#9467bd;stroke:#ffffff;stroke-width:0.339411;"/>
    <path clip-path="url(#p82cb78ddd8)" d="M 243.225672 219.914175 
C 244.350834 219.914175 245.430063 219.467144 246.225672 218.671534 
C 247.021282 217.875925 247.468313 216.796696 247.468313 215.671534 
C 247.468313 214.546373 247.021282 213.467144 246.225672 212.671534 
C 245.430063 211.875925 244.350834 211.428894 243.225672 211.428894 
C 242.100511 211.428894 241.021282 211.875925 240.225672 212.671534 
C 239.430063 213.467144 238.983032 214.546373 238.983032 215.671534 
C 238.983032 216.796696 239.430063 217.875925 240.225672 218.671534 
C 241.021282 219.467144 242.100511 219.914175 243.225672 219.914175 
z
" style="fill:#9467bd;stroke:#ffffff;stroke-width:0.339411;"/>
    <path clip-path="url(#p82cb78ddd8)" d="M 251.882054 219.914175 
L 254.003374 217.792855 
L 256.124694 219.914175 
L 258.246015 217.792855 
L 256.124694 215.671534 
L 258.246015 213.550214 
L 256.124694 211.428894 
L 254.003374 213.550214 
L 251.882054 211.428894 
L 249.760733 213.550214 
L 251.882054 215.671534 
L 249.760733 217.792855 
z
" style="fill:#9467bd;stroke:#ffffff;stroke-width:0.339411;"/>
    <path clip-path="url(#p82cb78ddd8)" d="M 243.225672 219.914175 
C 244.350834 219.914175 245.430063 219.467144 246.225672 218.671534 
C 247.021282 217.875925 247.468313 216.796696 247.468313 215.671534 
C 247.468313 214.546373 247.021282 213.467144 246.225672 212.671534 
C 245.430063 211.875925 244.350834 211.428894 243.225672 211.428894 
C 242.100511 211.428894 241.021282 211.875925 240.225672 212.671534 
C 239.430063 213.467144 238.983032 214.546373 238.983032 215.671534 
C 238.983032 216.796696 239.430063 217.875925 240.225672 218.671534 
C 241.021282 219.467144 242.100511 219.914175 243.225672 219.914175 
z
" style="fill:#9467bd;stroke:#ffffff;stroke-width:0.339411;"/>
    <path clip-path="url(#p82cb78ddd8)" d="M 215.756794 212.671534 
L 215.756794 218.671534 
L 221.756794 218.671534 
L 221.756794 212.671534 
z
" style="fill:#9467bd;stroke:#ffffff;stroke-width:0.339411;"/>
    <path clip-path="url(#p82cb78ddd8)" d="M 251.882054 219.914175 
L 254.003374 217.792855 
L 256.124694 219.914175 
L 258.246015 217.792855 
L 256.124694 215.671534 
L 258.246015 213.550214 
L 256.124694 211.428894 
L 254.003374 213.550214 
L 251.882054 211.428894 
L 249.760733 213.550214 
L 251.882054 215.671534 
L 249.760733 217.792855 
z
" style="fill:#9467bd;stroke:#ffffff;stroke-width:0.339411;"/>
    <path clip-path="url(#p82cb78ddd8)" d="M 215.756794 212.671534 
L 215.756794 218.671534 
L 221.756794 218.671534 
L 221.756794 212.671534 
z
" style="fill:#9467bd;stroke:#ffffff;stroke-width:0.339411;"/>
    <path clip-path="url(#p82cb78ddd8)" d="M 267.089728 331.230354 
L 268.150388 330.169694 
L 269.211049 331.230354 
L 270.271709 330.169694 
L 269.211049 329.109034 
L 270.271709 328.048374 
L 269.211049 326.987714 
L 268.150388 328.048374 
L 267.089728 326.987714 
L 266.029068 328.048374 
L 267.089728 329.109034 
L 266.029068 330.169694 
z
" style="fill:#e377c2;stroke:#ffffff;stroke-width:0.339411;"/>
    <path clip-path="url(#p82cb78ddd8)" d="M 331.604046 327.609034 
L 331.604046 330.609034 
L 334.604046 330.609034 
L 334.604046 327.609034 
z
" style="fill:#e377c2;stroke:#ffffff;stroke-width:0.339411;"/>
    <path clip-path="url(#p82cb78ddd8)" d="M 320.861909 331.230354 
L 322.276122 331.230354 
L 322.276122 329.816141 
L 323.690336 329.816141 
L 323.690336 328.401927 
L 322.276122 328.401927 
L 322.276122 326.987714 
L 320.861909 326.987714 
L 320.861909 328.401927 
L 319.447695 328.401927 
L 319.447695 329.816141 
L 320.861909 329.816141 
z
" style="fill:#e377c2;stroke:#ffffff;stroke-width:0.339411;"/>
    <path clip-path="url(#p82cb78ddd8)" d="M 267.089728 331.230354 
L 268.150388 330.169694 
L 269.211049 331.230354 
L 270.271709 330.169694 
L 269.211049 329.109034 
L 270.271709 328.048374 
L 269.211049 326.987714 
L 268.150388 328.048374 
L 267.089728 326.987714 
L 266.029068 328.048374 
L 267.089728 329.109034 
L 266.029068 330.169694 
z
" style="fill:#e377c2;stroke:#ffffff;stroke-width:0.339411;"/>
    <path clip-path="url(#p82cb78ddd8)" d="M 331.604046 327.609034 
L 331.604046 330.609034 
L 334.604046 330.609034 
L 334.604046 327.609034 
z
" style="fill:#e377c2;stroke:#ffffff;stroke-width:0.339411;"/>
    <path clip-path="url(#p82cb78ddd8)" d="M 266.029068 317.891709 
L 268.150388 315.770389 
L 270.271709 317.891709 
L 272.393029 315.770389 
L 270.271709 313.649068 
L 272.393029 311.527748 
L 270.271709 309.406428 
L 268.150388 311.527748 
L 266.029068 309.406428 
L 263.907748 311.527748 
L 266.029068 313.649068 
L 263.907748 315.770389 
z
" style="fill:#e377c2;stroke:#ffffff;stroke-width:0.339411;"/>
    <path clip-path="url(#p82cb78ddd8)" d="M 330.104046 310.649068 
L 330.104046 316.649068 
L 336.104046 316.649068 
L 336.104046 310.649068 
z
" style="fill:#e377c2;stroke:#ffffff;stroke-width:0.339411;"/>
    <path clip-path="url(#p82cb78ddd8)" d="M 320.154802 317.891709 
L 322.983229 317.891709 
L 322.983229 315.063282 
L 325.811656 315.063282 
L 325.811656 312.234855 
L 322.983229 312.234855 
L 322.983229 309.406428 
L 320.154802 309.406428 
L 320.154802 312.234855 
L 317.326375 312.234855 
L 317.326375 315.063282 
L 320.154802 315.063282 
z
" style="fill:#e377c2;stroke:#ffffff;stroke-width:0.339411;"/>
    <path clip-path="url(#p82cb78ddd8)" d="M 266.029068 317.891709 
L 268.150388 315.770389 
L 270.271709 317.891709 
L 272.393029 315.770389 
L 270.271709 313.649068 
L 272.393029 311.527748 
L 270.271709 309.406428 
L 268.150388 311.527748 
L 266.029068 309.406428 
L 263.907748 311.527748 
L 266.029068 313.649068 
L 263.907748 315.770389 
z
" style="fill:#e377c2;stroke:#ffffff;stroke-width:0.339411;"/>
    <path clip-path="url(#p82cb78ddd8)" d="M 330.104046 310.649068 
L 330.104046 316.649068 
L 336.104046 316.649068 
L 336.104046 310.649068 
z
" style="fill:#e377c2;stroke:#ffffff;stroke-width:0.339411;"/>
    <path clip-path="url(#p82cb78ddd8)" d="M 122.036385 39.048536 
C 122.598965 39.048536 123.13858 38.825021 123.536385 38.427216 
C 123.934189 38.029411 124.157705 37.489797 124.157705 36.927216 
C 124.157705 36.364635 123.934189 35.825021 123.536385 35.427216 
C 123.13858 35.029411 122.598965 34.805896 122.036385 34.805896 
C 121.473804 34.805896 120.934189 35.029411 120.536385 35.427216 
C 120.13858 35.825021 119.915064 36.364635 119.915064 36.927216 
C 119.915064 37.489797 120.13858 38.029411 120.536385 38.427216 
C 120.934189 38.825021 121.473804 39.048536 122.036385 39.048536 
z
" style="fill:#ff7f0e;stroke:#ffffff;stroke-width:0.339411;"/>
    <path clip-path="url(#p82cb78ddd8)" d="M 122.036385 39.048536 
C 122.598965 39.048536 123.13858 38.825021 123.536385 38.427216 
C 123.934189 38.029411 124.157705 37.489797 124.157705 36.927216 
C 124.157705 36.364635 123.934189 35.825021 123.536385 35.427216 
C 123.13858 35.029411 122.598965 34.805896 122.036385 34.805896 
C 121.473804 34.805896 120.934189 35.029411 120.536385 35.427216 
C 120.13858 35.825021 119.915064 36.364635 119.915064 36.927216 
C 119.915064 37.489797 120.13858 38.029411 120.536385 38.427216 
C 120.934189 38.825021 121.473804 39.048536 122.036385 39.048536 
z
" style="fill:#ff7f0e;stroke:#ffffff;stroke-width:0.339411;"/>
    <path clip-path="url(#p82cb78ddd8)" d="M 116.223785 35.427216 
L 116.223785 38.427216 
L 119.223785 38.427216 
L 119.223785 35.427216 
z
" style="fill:#ff7f0e;stroke:#ffffff;stroke-width:0.339411;"/>
    <path clip-path="url(#p82cb78ddd8)" d="M 116.223785 35.427216 
L 116.223785 38.427216 
L 119.223785 38.427216 
L 119.223785 35.427216 
z
" style="fill:#ff7f0e;stroke:#ffffff;stroke-width:0.339411;"/>
    <path clip-path="url(#p82cb78ddd8)" d="M 122.036385 93.028106 
C 123.161546 93.028106 124.240775 92.581075 125.036385 91.785466 
C 125.831994 90.989856 126.279025 89.910627 126.279025 88.785466 
C 126.279025 87.660304 125.831994 86.581075 125.036385 85.785466 
C 124.240775 84.989856 123.161546 84.542825 122.036385 84.542825 
C 120.911223 84.542825 119.831994 84.989856 119.036385 85.785466 
C 118.240775 86.581075 117.793744 87.660304 117.793744 88.785466 
C 117.793744 89.910627 118.240775 90.989856 119.036385 91.785466 
C 119.831994 92.581075 120.911223 93.028106 122.036385 93.028106 
z
" style="fill:#ff7f0e;stroke:#ffffff;stroke-width:0.339411;"/>
    <path clip-path="url(#p82cb78ddd8)" d="M 122.036385 93.028106 
C 123.161546 93.028106 124.240775 92.581075 125.036385 91.785466 
C 125.831994 90.989856 126.279025 89.910627 126.279025 88.785466 
C 126.279025 87.660304 125.831994 86.581075 125.036385 85.785466 
C 124.240775 84.989856 123.161546 84.542825 122.036385 84.542825 
C 120.911223 84.542825 119.831994 84.989856 119.036385 85.785466 
C 118.240775 86.581075 117.793744 87.660304 117.793744 88.785466 
C 117.793744 89.910627 118.240775 90.989856 119.036385 91.785466 
C 119.831994 92.581075 120.911223 93.028106 122.036385 93.028106 
z
" style="fill:#ff7f0e;stroke:#ffffff;stroke-width:0.339411;"/>
    <path clip-path="url(#p82cb78ddd8)" d="M 114.723785 85.785466 
L 114.723785 91.785466 
L 120.723785 91.785466 
L 120.723785 85.785466 
z
" style="fill:#ff7f0e;stroke:#ffffff;stroke-width:0.339411;"/>
    <path clip-path="url(#p82cb78ddd8)" d="M 114.723785 85.785466 
L 114.723785 91.785466 
L 120.723785 91.785466 
L 120.723785 85.785466 
z
" style="fill:#ff7f0e;stroke:#ffffff;stroke-width:0.339411;"/>
    <path clip-path="url(#p82cb78ddd8)" d="M 217.387038 140.881484 
C 217.949618 140.881484 218.489233 140.657969 218.887038 140.260164 
C 219.284842 139.862359 219.508358 139.322745 219.508358 138.760164 
C 219.508358 138.197583 219.284842 137.657969 218.887038 137.260164 
C 218.489233 136.862359 217.949618 136.638844 217.387038 136.638844 
C 216.824457 136.638844 216.284842 136.862359 215.887038 137.260164 
C 215.489233 137.657969 215.265717 138.197583 215.265717 138.760164 
C 215.265717 139.322745 215.489233 139.862359 215.887038 140.260164 
C 216.284842 140.657969 216.824457 140.881484 217.387038 140.881484 
z
" style="fill:#2ca02c;stroke:#ffffff;stroke-width:0.339411;"/>
    <path clip-path="url(#p82cb78ddd8)" d="M 217.387038 140.881484 
C 217.949618 140.881484 218.489233 140.657969 218.887038 140.260164 
C 219.284842 139.862359 219.508358 139.322745 219.508358 138.760164 
C 219.508358 138.197583 219.284842 137.657969 218.887038 137.260164 
C 218.489233 136.862359 217.949618 136.638844 217.387038 136.638844 
C 216.824457 136.638844 216.284842 136.862359 215.887038 137.260164 
C 215.489233 137.657969 215.265717 138.197583 215.265717 138.760164 
C 215.265717 139.322745 215.489233 139.862359 215.887038 140.260164 
C 216.284842 140.657969 216.824457 140.881484 217.387038 140.881484 
z
" style="fill:#2ca02c;stroke:#ffffff;stroke-width:0.339411;"/>
    <path clip-path="url(#p82cb78ddd8)" d="M 147.971619 137.260164 
L 147.971619 140.260164 
L 150.971619 140.260164 
L 150.971619 137.260164 
z
" style="fill:#2ca02c;stroke:#ffffff;stroke-width:0.339411;"/>
    <path clip-path="url(#p82cb78ddd8)" d="M 147.971619 137.260164 
L 147.971619 140.260164 
L 150.971619 140.260164 
L 150.971619 137.260164 
z
" style="fill:#2ca02c;stroke:#ffffff;stroke-width:0.339411;"/>
    <path clip-path="url(#p82cb78ddd8)" d="M 118.713397 69.952376 
C 119.275977 69.952376 119.815592 69.728861 120.213397 69.331056 
C 120.611201 68.933251 120.834717 68.393637 120.834717 67.831056 
C 120.834717 67.268475 120.611201 66.728861 120.213397 66.331056 
C 119.815592 65.933251 119.275977 65.709736 118.713397 65.709736 
C 118.150816 65.709736 117.611201 65.933251 117.213397 66.331056 
C 116.815592 66.728861 116.592076 67.268475 116.592076 67.831056 
C 116.592076 68.393637 116.815592 68.933251 117.213397 69.331056 
C 117.611201 69.728861 118.150816 69.952376 118.713397 69.952376 
z
" style="fill:#1f77b4;stroke:#ffffff;stroke-width:0.339411;"/>
    <path clip-path="url(#p82cb78ddd8)" d="M 56.955151 69.952376 
L 58.015811 68.891716 
L 59.076471 69.952376 
L 60.137131 68.891716 
L 59.076471 67.831056 
L 60.137131 66.770396 
L 59.076471 65.709736 
L 58.015811 66.770396 
L 56.955151 65.709736 
L 55.89449 66.770396 
L 56.955151 67.831056 
L 55.89449 68.891716 
z
" style="fill:#1f77b4;stroke:#ffffff;stroke-width:0.339411;"/>
    <path clip-path="url(#p82cb78ddd8)" d="M 118.713397 69.952376 
C 119.275977 69.952376 119.815592 69.728861 120.213397 69.331056 
C 120.611201 68.933251 120.834717 68.393637 120.834717 67.831056 
C 120.834717 67.268475 120.611201 66.728861 120.213397 66.331056 
C 119.815592 65.933251 119.275977 65.709736 118.713397 65.709736 
C 118.150816 65.709736 117.611201 65.933251 117.213397 66.331056 
C 116.815592 66.728861 116.592076 67.268475 116.592076 67.831056 
C 116.592076 68.393637 116.815592 68.933251 117.213397 69.331056 
C 117.611201 69.728861 118.150816 69.952376 118.713397 69.952376 
z
" style="fill:#1f77b4;stroke:#ffffff;stroke-width:0.339411;"/>
    <path clip-path="url(#p82cb78ddd8)" d="M 97.003973 66.331056 
L 97.003973 69.331056 
L 100.003973 69.331056 
L 100.003973 66.331056 
z
" style="fill:#1f77b4;stroke:#ffffff;stroke-width:0.339411;"/>
    <path clip-path="url(#p82cb78ddd8)" d="M 56.955151 69.952376 
L 58.015811 68.891716 
L 59.076471 69.952376 
L 60.137131 68.891716 
L 59.076471 67.831056 
L 60.137131 66.770396 
L 59.076471 65.709736 
L 58.015811 66.770396 
L 56.955151 65.709736 
L 55.89449 66.770396 
L 56.955151 67.831056 
L 55.89449 68.891716 
z
" style="fill:#1f77b4;stroke:#ffffff;stroke-width:0.339411;"/>
    <path clip-path="url(#p82cb78ddd8)" d="M 97.003973 66.331056 
L 97.003973 69.331056 
L 100.003973 69.331056 
L 100.003973 66.331056 
z
" style="fill:#1f77b4;stroke:#ffffff;stroke-width:0.339411;"/>
    <path clip-path="url(#p82cb78ddd8)" d="M 118.713397 115.874858 
C 119.838558 115.874858 120.917787 115.427826 121.713397 114.632217 
C 122.509006 113.836608 122.956037 112.757378 122.956037 111.632217 
C 122.956037 110.507056 122.509006 109.427826 121.713397 108.632217 
C 120.917787 107.836608 119.838558 107.389576 118.713397 107.389576 
C 117.588235 107.389576 116.509006 107.836608 115.713397 108.632217 
C 114.917787 109.427826 114.470756 110.507056 114.470756 111.632217 
C 114.470756 112.757378 114.917787 113.836608 115.713397 114.632217 
C 116.509006 115.427826 117.588235 115.874858 118.713397 115.874858 
z
" style="fill:#1f77b4;stroke:#ffffff;stroke-width:0.339411;"/>
    <path clip-path="url(#p82cb78ddd8)" d="M 55.89449 115.874858 
L 58.015811 113.753537 
L 60.137131 115.874858 
L 62.258452 113.753537 
L 60.137131 111.632217 
L 62.258452 109.510897 
L 60.137131 107.389576 
L 58.015811 109.510897 
L 55.89449 107.389576 
L 53.77317 109.510897 
L 55.89449 111.632217 
L 53.77317 113.753537 
z
" style="fill:#1f77b4;stroke:#ffffff;stroke-width:0.339411;"/>
    <path clip-path="url(#p82cb78ddd8)" d="M 118.713397 115.874858 
C 119.838558 115.874858 120.917787 115.427826 121.713397 114.632217 
C 122.509006 113.836608 122.956037 112.757378 122.956037 111.632217 
C 122.956037 110.507056 122.509006 109.427826 121.713397 108.632217 
C 120.917787 107.836608 119.838558 107.389576 118.713397 107.389576 
C 117.588235 107.389576 116.509006 107.836608 115.713397 108.632217 
C 114.917787 109.427826 114.470756 110.507056 114.470756 111.632217 
C 114.470756 112.757378 114.917787 113.836608 115.713397 114.632217 
C 116.509006 115.427826 117.588235 115.874858 118.713397 115.874858 
z
" style="fill:#1f77b4;stroke:#ffffff;stroke-width:0.339411;"/>
    <path clip-path="url(#p82cb78ddd8)" d="M 95.503973 108.632217 
L 95.503973 114.632217 
L 101.503973 114.632217 
L 101.503973 108.632217 
z
" style="fill:#1f77b4;stroke:#ffffff;stroke-width:0.339411;"/>
    <path clip-path="url(#p82cb78ddd8)" d="M 55.89449 115.874858 
L 58.015811 113.753537 
L 60.137131 115.874858 
L 62.258452 113.753537 
L 60.137131 111.632217 
L 62.258452 109.510897 
L 60.137131 107.389576 
L 58.015811 109.510897 
L 55.89449 107.389576 
L 53.77317 109.510897 
L 55.89449 111.632217 
L 53.77317 113.753537 
z
" style="fill:#1f77b4;stroke:#ffffff;stroke-width:0.339411;"/>
    <path clip-path="url(#p82cb78ddd8)" d="M 95.503973 108.632217 
L 95.503973 114.632217 
L 101.503973 114.632217 
L 101.503973 108.632217 
z
" style="fill:#1f77b4;stroke:#ffffff;stroke-width:0.339411;"/>
    <path clip-path="url(#p82cb78ddd8)" d="M 326.102672 294.346702 
C 326.665253 294.346702 327.204867 294.123186 327.602672 293.725382 
C 328.000476 293.327577 328.223992 292.787962 328.223992 292.225382 
C 328.223992 291.662801 328.000476 291.123186 327.602672 290.725382 
C 327.204867 290.327577 326.665253 290.104061 326.102672 290.104061 
C 325.540091 290.104061 325.000476 290.327577 324.602672 290.725382 
C 324.204867 291.123186 323.981351 291.662801 323.981351 292.225382 
C 323.981351 292.787962 324.204867 293.327577 324.602672 293.725382 
C 325.000476 294.123186 325.540091 294.346702 326.102672 294.346702 
z
" style="fill:#7f7f7f;stroke:#ffffff;stroke-width:0.339411;"/>
    <path clip-path="url(#p82cb78ddd8)" d="M 299.998379 294.346702 
L 301.059039 293.286042 
L 302.119699 294.346702 
L 303.180359 293.286042 
L 302.119699 292.225382 
L 303.180359 291.164721 
L 302.119699 290.104061 
L 301.059039 291.164721 
L 299.998379 290.104061 
L 298.937719 291.164721 
L 299.998379 292.225382 
L 298.937719 293.286042 
z
" style="fill:#7f7f7f;stroke:#ffffff;stroke-width:0.339411;"/>
    <path clip-path="url(#p82cb78ddd8)" d="M 326.102672 294.346702 
C 326.665253 294.346702 327.204867 294.123186 327.602672 293.725382 
C 328.000476 293.327577 328.223992 292.787962 328.223992 292.225382 
C 328.223992 291.662801 328.000476 291.123186 327.602672 290.725382 
C 327.204867 290.327577 326.665253 290.104061 326.102672 290.104061 
C 325.540091 290.104061 325.000476 290.327577 324.602672 290.725382 
C 324.204867 291.123186 323.981351 291.662801 323.981351 292.225382 
C 323.981351 292.787962 324.204867 293.327577 324.602672 293.725382 
C 325.000476 294.123186 325.540091 294.346702 326.102672 294.346702 
z
" style="fill:#7f7f7f;stroke:#ffffff;stroke-width:0.339411;"/>
    <path clip-path="url(#p82cb78ddd8)" d="M 301.393798 290.725382 
L 301.393798 293.725382 
L 304.393798 293.725382 
L 304.393798 290.725382 
z
" style="fill:#7f7f7f;stroke:#ffffff;stroke-width:0.339411;"/>
    <path clip-path="url(#p82cb78ddd8)" d="M 275.088349 294.346702 
L 276.502563 294.346702 
L 276.502563 292.932488 
L 277.916776 292.932488 
L 277.916776 291.518275 
L 276.502563 291.518275 
L 276.502563 290.104061 
L 275.088349 290.104061 
L 275.088349 291.518275 
L 273.674135 291.518275 
L 273.674135 292.932488 
L 275.088349 292.932488 
z
" style="fill:#7f7f7f;stroke:#ffffff;stroke-width:0.339411;"/>
    <path clip-path="url(#p82cb78ddd8)" d="M 299.998379 294.346702 
L 301.059039 293.286042 
L 302.119699 294.346702 
L 303.180359 293.286042 
L 302.119699 292.225382 
L 303.180359 291.164721 
L 302.119699 290.104061 
L 301.059039 291.164721 
L 299.998379 290.104061 
L 298.937719 291.164721 
L 299.998379 292.225382 
L 298.937719 293.286042 
z
" style="fill:#7f7f7f;stroke:#ffffff;stroke-width:0.339411;"/>
    <path clip-path="url(#p82cb78ddd8)" d="M 301.393798 290.725382 
L 301.393798 293.725382 
L 304.393798 293.725382 
L 304.393798 290.725382 
z
" style="fill:#7f7f7f;stroke:#ffffff;stroke-width:0.339411;"/>
    <path clip-path="url(#p82cb78ddd8)" d="M 326.102672 269.098984 
C 327.227833 269.098984 328.307063 268.651953 329.102672 267.856343 
C 329.898281 267.060734 330.345312 265.981505 330.345312 264.856343 
C 330.345312 263.731182 329.898281 262.651953 329.102672 261.856343 
C 328.307063 261.060734 327.227833 260.613703 326.102672 260.613703 
C 324.97751 260.613703 323.898281 261.060734 323.102672 261.856343 
C 322.307063 262.651953 321.860031 263.731182 321.860031 264.856343 
C 321.860031 265.981505 322.307063 267.060734 323.102672 267.856343 
C 323.898281 268.651953 324.97751 269.098984 326.102672 269.098984 
z
" style="fill:#7f7f7f;stroke:#ffffff;stroke-width:0.339411;"/>
    <path clip-path="url(#p82cb78ddd8)" d="M 298.937719 269.098984 
L 301.059039 266.977664 
L 303.180359 269.098984 
L 305.30168 266.977664 
L 303.180359 264.856343 
L 305.30168 262.735023 
L 303.180359 260.613703 
L 301.059039 262.735023 
L 298.937719 260.613703 
L 296.816398 262.735023 
L 298.937719 264.856343 
L 296.816398 266.977664 
z
" style="fill:#7f7f7f;stroke:#ffffff;stroke-width:0.339411;"/>
    <path clip-path="url(#p82cb78ddd8)" d="M 326.102672 269.098984 
C 327.227833 269.098984 328.307063 268.651953 329.102672 267.856343 
C 329.898281 267.060734 330.345312 265.981505 330.345312 264.856343 
C 330.345312 263.731182 329.898281 262.651953 329.102672 261.856343 
C 328.307063 261.060734 327.227833 260.613703 326.102672 260.613703 
C 324.97751 260.613703 323.898281 261.060734 323.102672 261.856343 
C 322.307063 262.651953 321.860031 263.731182 321.860031 264.856343 
C 321.860031 265.981505 322.307063 267.060734 323.102672 267.856343 
C 323.898281 268.651953 324.97751 269.098984 326.102672 269.098984 
z
" style="fill:#7f7f7f;stroke:#ffffff;stroke-width:0.339411;"/>
    <path clip-path="url(#p82cb78ddd8)" d="M 299.893798 261.856343 
L 299.893798 267.856343 
L 305.893798 267.856343 
L 305.893798 261.856343 
z
" style="fill:#7f7f7f;stroke:#ffffff;stroke-width:0.339411;"/>
    <path clip-path="url(#p82cb78ddd8)" d="M 274.381242 269.098984 
L 277.209669 269.098984 
L 277.209669 266.270557 
L 280.038096 266.270557 
L 280.038096 263.44213 
L 277.209669 263.44213 
L 277.209669 260.613703 
L 274.381242 260.613703 
L 274.381242 263.44213 
L 271.552815 263.44213 
L 271.552815 266.270557 
L 274.381242 266.270557 
z
" style="fill:#7f7f7f;stroke:#ffffff;stroke-width:0.339411;"/>
    <path clip-path="url(#p82cb78ddd8)" d="M 298.937719 269.098984 
L 301.059039 266.977664 
L 303.180359 269.098984 
L 305.30168 266.977664 
L 303.180359 264.856343 
L 305.30168 262.735023 
L 303.180359 260.613703 
L 301.059039 262.735023 
L 298.937719 260.613703 
L 296.816398 262.735023 
L 298.937719 264.856343 
L 296.816398 266.977664 
z
" style="fill:#7f7f7f;stroke:#ffffff;stroke-width:0.339411;"/>
    <path clip-path="url(#p82cb78ddd8)" d="M 299.893798 261.856343 
L 299.893798 267.856343 
L 305.893798 267.856343 
L 305.893798 261.856343 
z
" style="fill:#7f7f7f;stroke:#ffffff;stroke-width:0.339411;"/>
    <path clip-path="url(#p82cb78ddd8)" d="M 210.562007 272.404203 
L 210.562007 275.404203 
L 213.562007 275.404203 
L 213.562007 272.404203 
z
" style="fill:#d62728;stroke:#ffffff;stroke-width:0.339411;"/>
    <path clip-path="url(#p82cb78ddd8)" d="M 210.562007 272.404203 
L 210.562007 275.404203 
L 213.562007 275.404203 
L 213.562007 272.404203 
z
" style="fill:#d62728;stroke:#ffffff;stroke-width:0.339411;"/>
    <path clip-path="url(#p82cb78ddd8)" d="M 209.062007 271.589921 
L 209.062007 277.589921 
L 215.062007 277.589921 
L 215.062007 271.589921 
z
" style="fill:#d62728;stroke:#ffffff;stroke-width:0.339411;"/>
    <path clip-path="url(#p82cb78ddd8)" d="M 209.062007 271.589921 
L 209.062007 277.589921 
L 215.062007 277.589921 
L 215.062007 271.589921 
z
" style="fill:#d62728;stroke:#ffffff;stroke-width:0.339411;"/>
    <path clip-path="url(#p82cb78ddd8)" d="M 341.207028 302.669662 
L 341.207028 305.669662 
L 344.207028 305.669662 
L 344.207028 302.669662 
z
" style="fill:#17becf;stroke:#ffffff;stroke-width:0.339411;"/>
    <path clip-path="url(#p82cb78ddd8)" d="M 341.207028 302.669662 
L 341.207028 305.669662 
L 344.207028 305.669662 
L 344.207028 302.669662 
z
" style="fill:#17becf;stroke:#ffffff;stroke-width:0.339411;"/>
    <path clip-path="url(#p82cb78ddd8)" d="M 339.707028 293.136327 
L 339.707028 299.136327 
L 345.707028 299.136327 
L 345.707028 293.136327 
z
" style="fill:#17becf;stroke:#ffffff;stroke-width:0.339411;"/>
    <path clip-path="url(#p82cb78ddd8)" d="M 339.707028 293.136327 
L 339.707028 299.136327 
L 345.707028 299.136327 
L 345.707028 293.136327 
z
" style="fill:#17becf;stroke:#ffffff;stroke-width:0.339411;"/>
    <path clip-path="url(#p82cb78ddd8)" d="M 333.588052 278.37477 
C 334.150633 278.37477 334.690247 278.151254 335.088052 277.753449 
C 335.485856 277.355645 335.709372 276.81603 335.709372 276.253449 
C 335.709372 275.690868 335.485856 275.151254 335.088052 274.753449 
C 334.690247 274.355645 334.150633 274.132129 333.588052 274.132129 
C 333.025471 274.132129 332.485856 274.355645 332.088052 274.753449 
C 331.690247 275.151254 331.466731 275.690868 331.466731 276.253449 
C 331.466731 276.81603 331.690247 277.355645 332.088052 277.753449 
C 332.485856 278.151254 333.025471 278.37477 333.588052 278.37477 
z
" style="fill:#bcbd22;stroke:#ffffff;stroke-width:0.339411;"/>
    <path clip-path="url(#p82cb78ddd8)" d="M 296.220201 278.37477 
L 297.280861 277.314109 
L 298.341521 278.37477 
L 299.402181 277.314109 
L 298.341521 276.253449 
L 299.402181 275.192789 
L 298.341521 274.132129 
L 297.280861 275.192789 
L 296.220201 274.132129 
L 295.159541 275.192789 
L 296.220201 276.253449 
L 295.159541 277.314109 
z
" style="fill:#bcbd22;stroke:#ffffff;stroke-width:0.339411;"/>
    <path clip-path="url(#p82cb78ddd8)" d="M 333.588052 278.37477 
C 334.150633 278.37477 334.690247 278.151254 335.088052 277.753449 
C 335.485856 277.355645 335.709372 276.81603 335.709372 276.253449 
C 335.709372 275.690868 335.485856 275.151254 335.088052 274.753449 
C 334.690247 274.355645 334.150633 274.132129 333.588052 274.132129 
C 333.025471 274.132129 332.485856 274.355645 332.088052 274.753449 
C 331.690247 275.151254 331.466731 275.690868 331.466731 276.253449 
C 331.466731 276.81603 331.690247 277.355645 332.088052 277.753449 
C 332.485856 278.151254 333.025471 278.37477 333.588052 278.37477 
z
" style="fill:#bcbd22;stroke:#ffffff;stroke-width:0.339411;"/>
    <path clip-path="url(#p82cb78ddd8)" d="M 308.355206 274.753449 
L 308.355206 277.753449 
L 311.355206 277.753449 
L 311.355206 274.753449 
z
" style="fill:#bcbd22;stroke:#ffffff;stroke-width:0.339411;"/>
    <path clip-path="url(#p82cb78ddd8)" d="M 290.704886 278.37477 
L 292.1191 278.37477 
L 292.1191 276.960556 
L 293.533313 276.960556 
L 293.533313 275.546342 
L 292.1191 275.546342 
L 292.1191 274.132129 
L 290.704886 274.132129 
L 290.704886 275.546342 
L 289.290672 275.546342 
L 289.290672 276.960556 
L 290.704886 276.960556 
z
" style="fill:#bcbd22;stroke:#ffffff;stroke-width:0.339411;"/>
    <path clip-path="url(#p82cb78ddd8)" d="M 296.220201 278.37477 
L 297.280861 277.314109 
L 298.341521 278.37477 
L 299.402181 277.314109 
L 298.341521 276.253449 
L 299.402181 275.192789 
L 298.341521 274.132129 
L 297.280861 275.192789 
L 296.220201 274.132129 
L 295.159541 275.192789 
L 296.220201 276.253449 
L 295.159541 277.314109 
z
" style="fill:#bcbd22;stroke:#ffffff;stroke-width:0.339411;"/>
    <path clip-path="url(#p82cb78ddd8)" d="M 308.355206 274.753449 
L 308.355206 277.753449 
L 311.355206 277.753449 
L 311.355206 274.753449 
z
" style="fill:#bcbd22;stroke:#ffffff;stroke-width:0.339411;"/>
    <path clip-path="url(#p82cb78ddd8)" d="M 333.588052 299.972911 
C 334.713213 299.972911 335.792442 299.525879 336.588052 298.73027 
C 337.383661 297.934661 337.830692 296.855431 337.830692 295.73027 
C 337.830692 294.605108 337.383661 293.525879 336.588052 292.73027 
C 335.792442 291.934661 334.713213 291.487629 333.588052 291.487629 
C 332.46289 291.487629 331.383661 291.934661 330.588052 292.73027 
C 329.792442 293.525879 329.345411 294.605108 329.345411 295.73027 
C 329.345411 296.855431 329.792442 297.934661 330.588052 298.73027 
C 331.383661 299.525879 332.46289 299.972911 333.588052 299.972911 
z
" style="fill:#bcbd22;stroke:#ffffff;stroke-width:0.339411;"/>
    <path clip-path="url(#p82cb78ddd8)" d="M 295.159541 299.972911 
L 297.280861 297.85159 
L 299.402181 299.972911 
L 301.523502 297.85159 
L 299.402181 295.73027 
L 301.523502 293.608949 
L 299.402181 291.487629 
L 297.280861 293.608949 
L 295.159541 291.487629 
L 293.03822 293.608949 
L 295.159541 295.73027 
L 293.03822 297.85159 
z
" style="fill:#bcbd22;stroke:#ffffff;stroke-width:0.339411;"/>
    <path clip-path="url(#p82cb78ddd8)" d="M 333.588052 299.972911 
C 334.713213 299.972911 335.792442 299.525879 336.588052 298.73027 
C 337.383661 297.934661 337.830692 296.855431 337.830692 295.73027 
C 337.830692 294.605108 337.383661 293.525879 336.588052 292.73027 
C 335.792442 291.934661 334.713213 291.487629 333.588052 291.487629 
C 332.46289 291.487629 331.383661 291.934661 330.588052 292.73027 
C 329.792442 293.525879 329.345411 294.605108 329.345411 295.73027 
C 329.345411 296.855431 329.792442 297.934661 330.588052 298.73027 
C 331.383661 299.525879 332.46289 299.972911 333.588052 299.972911 
z
" style="fill:#bcbd22;stroke:#ffffff;stroke-width:0.339411;"/>
    <path clip-path="url(#p82cb78ddd8)" d="M 306.855206 292.73027 
L 306.855206 298.73027 
L 312.855206 298.73027 
L 312.855206 292.73027 
z
" style="fill:#bcbd22;stroke:#ffffff;stroke-width:0.339411;"/>
    <path clip-path="url(#p82cb78ddd8)" d="M 289.997779 299.972911 
L 292.826206 299.972911 
L 292.826206 297.144483 
L 295.654633 297.144483 
L 295.654633 294.316056 
L 292.826206 294.316056 
L 292.826206 291.487629 
L 289.997779 291.487629 
L 289.997779 294.316056 
L 287.169352 294.316056 
L 287.169352 297.144483 
L 289.997779 297.144483 
z
" style="fill:#bcbd22;stroke:#ffffff;stroke-width:0.339411;"/>
    <path clip-path="url(#p82cb78ddd8)" d="M 295.159541 299.972911 
L 297.280861 297.85159 
L 299.402181 299.972911 
L 301.523502 297.85159 
L 299.402181 295.73027 
L 301.523502 293.608949 
L 299.402181 291.487629 
L 297.280861 293.608949 
L 295.159541 291.487629 
L 293.03822 293.608949 
L 295.159541 295.73027 
L 293.03822 297.85159 
z
" style="fill:#bcbd22;stroke:#ffffff;stroke-width:0.339411;"/>
    <path clip-path="url(#p82cb78ddd8)" d="M 306.855206 292.73027 
L 306.855206 298.73027 
L 312.855206 298.73027 
L 312.855206 292.73027 
z
" style="fill:#bcbd22;stroke:#ffffff;stroke-width:0.339411;"/>
    <path clip-path="url(#p82cb78ddd8)" d="M 274.272424 263.746919 
C 274.835005 263.746919 275.374619 263.523404 275.772424 263.125599 
C 276.170229 262.727794 276.393744 262.18818 276.393744 261.625599 
C 276.393744 261.063018 276.170229 260.523404 275.772424 260.125599 
C 275.374619 259.727794 274.835005 259.504279 274.272424 259.504279 
C 273.709843 259.504279 273.170229 259.727794 272.772424 260.125599 
C 272.374619 260.523404 272.151104 261.063018 272.151104 261.625599 
C 272.151104 262.18818 272.374619 262.727794 272.772424 263.125599 
C 273.170229 263.523404 273.709843 263.746919 274.272424 263.746919 
z
" style="fill:#8c564b;stroke:#ffffff;stroke-width:0.339411;"/>
    <path clip-path="url(#p82cb78ddd8)" d="M 261.813849 263.746919 
L 262.874509 262.686259 
L 263.93517 263.746919 
L 264.99583 262.686259 
L 263.93517 261.625599 
L 264.99583 260.564939 
L 263.93517 259.504279 
L 262.874509 260.564939 
L 261.813849 259.504279 
L 260.753189 260.564939 
L 261.813849 261.625599 
L 260.753189 262.686259 
z
" style="fill:#8c564b;stroke:#ffffff;stroke-width:0.339411;"/>
    <path clip-path="url(#p82cb78ddd8)" d="M 274.272424 263.746919 
C 274.835005 263.746919 275.374619 263.523404 275.772424 263.125599 
C 276.170229 262.727794 276.393744 262.18818 276.393744 261.625599 
C 276.393744 261.063018 276.170229 260.523404 275.772424 260.125599 
C 275.374619 259.727794 274.835005 259.504279 274.272424 259.504279 
C 273.709843 259.504279 273.170229 259.727794 272.772424 260.125599 
C 272.374619 260.523404 272.151104 261.063018 272.151104 261.625599 
C 272.151104 262.18818 272.374619 262.727794 272.772424 263.125599 
C 273.170229 263.523404 273.709843 263.746919 274.272424 263.746919 
z
" style="fill:#8c564b;stroke:#ffffff;stroke-width:0.339411;"/>
    <path clip-path="url(#p82cb78ddd8)" d="M 277.981706 260.125599 
L 277.981706 263.125599 
L 280.981706 263.125599 
L 280.981706 260.125599 
z
" style="fill:#8c564b;stroke:#ffffff;stroke-width:0.339411;"/>
    <path clip-path="url(#p82cb78ddd8)" d="M 281.609692 263.746919 
L 283.023905 263.746919 
L 283.023905 262.332706 
L 284.438119 262.332706 
L 284.438119 260.918492 
L 283.023905 260.918492 
L 283.023905 259.504279 
L 281.609692 259.504279 
L 281.609692 260.918492 
L 280.195478 260.918492 
L 280.195478 262.332706 
L 281.609692 262.332706 
z
" style="fill:#8c564b;stroke:#ffffff;stroke-width:0.339411;"/>
    <path clip-path="url(#p82cb78ddd8)" d="M 261.813849 263.746919 
L 262.874509 262.686259 
L 263.93517 263.746919 
L 264.99583 262.686259 
L 263.93517 261.625599 
L 264.99583 260.564939 
L 263.93517 259.504279 
L 262.874509 260.564939 
L 261.813849 259.504279 
L 260.753189 260.564939 
L 261.813849 261.625599 
L 260.753189 262.686259 
z
" style="fill:#8c564b;stroke:#ffffff;stroke-width:0.339411;"/>
    <path clip-path="url(#p82cb78ddd8)" d="M 277.981706 260.125599 
L 277.981706 263.125599 
L 280.981706 263.125599 
L 280.981706 260.125599 
z
" style="fill:#8c564b;stroke:#ffffff;stroke-width:0.339411;"/>
   </g>
   <g id="PathCollection_2"/>
   <g id="PathCollection_3"/>
   <g id="PathCollection_4"/>
   <g id="PathCollection_5"/>
   <g id="PathCollection_6"/>
   <g id="PathCollection_7"/>
   <g id="PathCollection_8"/>
   <g id="PathCollection_9"/>
   <g id="PathCollection_10"/>
   <g id="PathCollection_11"/>
   <g id="PathCollection_12"/>
   <g id="PathCollection_13"/>
   <g id="PathCollection_14"/>
   <g id="PathCollection_15"/>
   <g id="PathCollection_16"/>
   <g id="PathCollection_17"/>
   <g id="matplotlib.axis_1">
    <g id="xtick_1">
     <g id="line2d_1">
      <defs>
       <path d="M 0 0 
L 0 3.5 
" id="m3334e1a69e" style="stroke:#000000;stroke-width:0.8;"/>
      </defs>
      <g>
       <use style="stroke:#000000;stroke-width:0.8;" x="76.153512" xlink:href="#m3334e1a69e" y="343.718125"/>
      </g>
     </g>
     <g id="text_1">
      <!-- −0.75 -->
      <g transform="translate(60.830856 358.316562)scale(0.1 -0.1)">
       <defs>
        <path d="M 10.59375 35.5 
L 73.1875 35.5 
L 73.1875 27.203125 
L 10.59375 27.203125 
z
" id="DejaVuSans-8722"/>
        <path d="M 31.78125 66.40625 
Q 24.171875 66.40625 20.328125 58.90625 
Q 16.5 51.421875 16.5 36.375 
Q 16.5 21.390625 20.328125 13.890625 
Q 24.171875 6.390625 31.78125 6.390625 
Q 39.453125 6.390625 43.28125 13.890625 
Q 47.125 21.390625 47.125 36.375 
Q 47.125 51.421875 43.28125 58.90625 
Q 39.453125 66.40625 31.78125 66.40625 
z
M 31.78125 74.21875 
Q 44.046875 74.21875 50.515625 64.515625 
Q 56.984375 54.828125 56.984375 36.375 
Q 56.984375 17.96875 50.515625 8.265625 
Q 44.046875 -1.421875 31.78125 -1.421875 
Q 19.53125 -1.421875 13.0625 8.265625 
Q 6.59375 17.96875 6.59375 36.375 
Q 6.59375 54.828125 13.0625 64.515625 
Q 19.53125 74.21875 31.78125 74.21875 
z
" id="DejaVuSans-48"/>
        <path d="M 10.6875 12.40625 
L 21 12.40625 
L 21 0 
L 10.6875 0 
z
" id="DejaVuSans-46"/>
        <path d="M 8.203125 72.90625 
L 55.078125 72.90625 
L 55.078125 68.703125 
L 28.609375 0 
L 18.3125 0 
L 43.21875 64.59375 
L 8.203125 64.59375 
z
" id="DejaVuSans-55"/>
        <path d="M 10.796875 72.90625 
L 49.515625 72.90625 
L 49.515625 64.59375 
L 19.828125 64.59375 
L 19.828125 46.734375 
Q 21.96875 47.46875 24.109375 47.828125 
Q 26.265625 48.1875 28.421875 48.1875 
Q 40.625 48.1875 47.75 41.5 
Q 54.890625 34.8125 54.890625 23.390625 
Q 54.890625 11.625 47.5625 5.09375 
Q 40.234375 -1.421875 26.90625 -1.421875 
Q 22.3125 -1.421875 17.546875 -0.640625 
Q 12.796875 0.140625 7.71875 1.703125 
L 7.71875 11.625 
Q 12.109375 9.234375 16.796875 8.0625 
Q 21.484375 6.890625 26.703125 6.890625 
Q 35.15625 6.890625 40.078125 11.328125 
Q 45.015625 15.765625 45.015625 23.390625 
Q 45.015625 31 40.078125 35.4375 
Q 35.15625 39.890625 26.703125 39.890625 
Q 22.75 39.890625 18.8125 39.015625 
Q 14.890625 38.140625 10.796875 36.28125 
z
" id="DejaVuSans-53"/>
       </defs>
       <use xlink:href="#DejaVuSans-8722"/>
       <use x="83.789062" xlink:href="#DejaVuSans-48"/>
       <use x="147.412109" xlink:href="#DejaVuSans-46"/>
       <use x="179.199219" xlink:href="#DejaVuSans-55"/>
       <use x="242.822266" xlink:href="#DejaVuSans-53"/>
      </g>
     </g>
    </g>
    <g id="xtick_2">
     <g id="line2d_2">
      <g>
       <use style="stroke:#000000;stroke-width:0.8;" x="117.102107" xlink:href="#m3334e1a69e" y="343.718125"/>
      </g>
     </g>
     <g id="text_2">
      <!-- −0.50 -->
      <g transform="translate(101.779451 358.316562)scale(0.1 -0.1)">
       <use xlink:href="#DejaVuSans-8722"/>
       <use x="83.789062" xlink:href="#DejaVuSans-48"/>
       <use x="147.412109" xlink:href="#DejaVuSans-46"/>
       <use x="179.199219" xlink:href="#DejaVuSans-53"/>
       <use x="242.822266" xlink:href="#DejaVuSans-48"/>
      </g>
     </g>
    </g>
    <g id="xtick_3">
     <g id="line2d_3">
      <g>
       <use style="stroke:#000000;stroke-width:0.8;" x="158.050702" xlink:href="#m3334e1a69e" y="343.718125"/>
      </g>
     </g>
     <g id="text_3">
      <!-- −0.25 -->
      <g transform="translate(142.728046 358.316562)scale(0.1 -0.1)">
       <defs>
        <path d="M 19.1875 8.296875 
L 53.609375 8.296875 
L 53.609375 0 
L 7.328125 0 
L 7.328125 8.296875 
Q 12.9375 14.109375 22.625 23.890625 
Q 32.328125 33.6875 34.8125 36.53125 
Q 39.546875 41.84375 41.421875 45.53125 
Q 43.3125 49.21875 43.3125 52.78125 
Q 43.3125 58.59375 39.234375 62.25 
Q 35.15625 65.921875 28.609375 65.921875 
Q 23.96875 65.921875 18.8125 64.3125 
Q 13.671875 62.703125 7.8125 59.421875 
L 7.8125 69.390625 
Q 13.765625 71.78125 18.9375 73 
Q 24.125 74.21875 28.421875 74.21875 
Q 39.75 74.21875 46.484375 68.546875 
Q 53.21875 62.890625 53.21875 53.421875 
Q 53.21875 48.921875 51.53125 44.890625 
Q 49.859375 40.875 45.40625 35.40625 
Q 44.1875 33.984375 37.640625 27.21875 
Q 31.109375 20.453125 19.1875 8.296875 
z
" id="DejaVuSans-50"/>
       </defs>
       <use xlink:href="#DejaVuSans-8722"/>
       <use x="83.789062" xlink:href="#DejaVuSans-48"/>
       <use x="147.412109" xlink:href="#DejaVuSans-46"/>
       <use x="179.199219" xlink:href="#DejaVuSans-50"/>
       <use x="242.822266" xlink:href="#DejaVuSans-53"/>
      </g>
     </g>
    </g>
    <g id="xtick_4">
     <g id="line2d_4">
      <g>
       <use style="stroke:#000000;stroke-width:0.8;" x="198.999297" xlink:href="#m3334e1a69e" y="343.718125"/>
      </g>
     </g>
     <g id="text_4">
      <!-- 0.00 -->
      <g transform="translate(187.866485 358.316562)scale(0.1 -0.1)">
       <use xlink:href="#DejaVuSans-48"/>
       <use x="63.623047" xlink:href="#DejaVuSans-46"/>
       <use x="95.410156" xlink:href="#DejaVuSans-48"/>
       <use x="159.033203" xlink:href="#DejaVuSans-48"/>
      </g>
     </g>
    </g>
    <g id="xtick_5">
     <g id="line2d_5">
      <g>
       <use style="stroke:#000000;stroke-width:0.8;" x="239.947892" xlink:href="#m3334e1a69e" y="343.718125"/>
      </g>
     </g>
     <g id="text_5">
      <!-- 0.25 -->
      <g transform="translate(228.815079 358.316562)scale(0.1 -0.1)">
       <use xlink:href="#DejaVuSans-48"/>
       <use x="63.623047" xlink:href="#DejaVuSans-46"/>
       <use x="95.410156" xlink:href="#DejaVuSans-50"/>
       <use x="159.033203" xlink:href="#DejaVuSans-53"/>
      </g>
     </g>
    </g>
    <g id="xtick_6">
     <g id="line2d_6">
      <g>
       <use style="stroke:#000000;stroke-width:0.8;" x="280.896487" xlink:href="#m3334e1a69e" y="343.718125"/>
      </g>
     </g>
     <g id="text_6">
      <!-- 0.50 -->
      <g transform="translate(269.763674 358.316562)scale(0.1 -0.1)">
       <use xlink:href="#DejaVuSans-48"/>
       <use x="63.623047" xlink:href="#DejaVuSans-46"/>
       <use x="95.410156" xlink:href="#DejaVuSans-53"/>
       <use x="159.033203" xlink:href="#DejaVuSans-48"/>
      </g>
     </g>
    </g>
    <g id="xtick_7">
     <g id="line2d_7">
      <g>
       <use style="stroke:#000000;stroke-width:0.8;" x="321.845082" xlink:href="#m3334e1a69e" y="343.718125"/>
      </g>
     </g>
     <g id="text_7">
      <!-- 0.75 -->
      <g transform="translate(310.712269 358.316562)scale(0.1 -0.1)">
       <use xlink:href="#DejaVuSans-48"/>
       <use x="63.623047" xlink:href="#DejaVuSans-46"/>
       <use x="95.410156" xlink:href="#DejaVuSans-55"/>
       <use x="159.033203" xlink:href="#DejaVuSans-53"/>
      </g>
     </g>
    </g>
    <g id="text_8">
     <!-- ReadZs median z-score -->
     <g transform="translate(141.985638 371.994687)scale(0.1 -0.1)">
      <defs>
       <path d="M 44.390625 34.1875 
Q 47.5625 33.109375 50.5625 29.59375 
Q 53.5625 26.078125 56.59375 19.921875 
L 66.609375 0 
L 56 0 
L 46.6875 18.703125 
Q 43.0625 26.03125 39.671875 28.421875 
Q 36.28125 30.8125 30.421875 30.8125 
L 19.671875 30.8125 
L 19.671875 0 
L 9.8125 0 
L 9.8125 72.90625 
L 32.078125 72.90625 
Q 44.578125 72.90625 50.734375 67.671875 
Q 56.890625 62.453125 56.890625 51.90625 
Q 56.890625 45.015625 53.6875 40.46875 
Q 50.484375 35.9375 44.390625 34.1875 
z
M 19.671875 64.796875 
L 19.671875 38.921875 
L 32.078125 38.921875 
Q 39.203125 38.921875 42.84375 42.21875 
Q 46.484375 45.515625 46.484375 51.90625 
Q 46.484375 58.296875 42.84375 61.546875 
Q 39.203125 64.796875 32.078125 64.796875 
z
" id="DejaVuSans-82"/>
       <path d="M 56.203125 29.59375 
L 56.203125 25.203125 
L 14.890625 25.203125 
Q 15.484375 15.921875 20.484375 11.0625 
Q 25.484375 6.203125 34.421875 6.203125 
Q 39.59375 6.203125 44.453125 7.46875 
Q 49.3125 8.734375 54.109375 11.28125 
L 54.109375 2.78125 
Q 49.265625 0.734375 44.1875 -0.34375 
Q 39.109375 -1.421875 33.890625 -1.421875 
Q 20.796875 -1.421875 13.15625 6.1875 
Q 5.515625 13.8125 5.515625 26.8125 
Q 5.515625 40.234375 12.765625 48.109375 
Q 20.015625 56 32.328125 56 
Q 43.359375 56 49.78125 48.890625 
Q 56.203125 41.796875 56.203125 29.59375 
z
M 47.21875 32.234375 
Q 47.125 39.59375 43.09375 43.984375 
Q 39.0625 48.390625 32.421875 48.390625 
Q 24.90625 48.390625 20.390625 44.140625 
Q 15.875 39.890625 15.1875 32.171875 
z
" id="DejaVuSans-101"/>
       <path d="M 34.28125 27.484375 
Q 23.390625 27.484375 19.1875 25 
Q 14.984375 22.515625 14.984375 16.5 
Q 14.984375 11.71875 18.140625 8.90625 
Q 21.296875 6.109375 26.703125 6.109375 
Q 34.1875 6.109375 38.703125 11.40625 
Q 43.21875 16.703125 43.21875 25.484375 
L 43.21875 27.484375 
z
M 52.203125 31.203125 
L 52.203125 0 
L 43.21875 0 
L 43.21875 8.296875 
Q 40.140625 3.328125 35.546875 0.953125 
Q 30.953125 -1.421875 24.3125 -1.421875 
Q 15.921875 -1.421875 10.953125 3.296875 
Q 6 8.015625 6 15.921875 
Q 6 25.140625 12.171875 29.828125 
Q 18.359375 34.515625 30.609375 34.515625 
L 43.21875 34.515625 
L 43.21875 35.40625 
Q 43.21875 41.609375 39.140625 45 
Q 35.0625 48.390625 27.6875 48.390625 
Q 23 48.390625 18.546875 47.265625 
Q 14.109375 46.140625 10.015625 43.890625 
L 10.015625 52.203125 
Q 14.9375 54.109375 19.578125 55.046875 
Q 24.21875 56 28.609375 56 
Q 40.484375 56 46.34375 49.84375 
Q 52.203125 43.703125 52.203125 31.203125 
z
" id="DejaVuSans-97"/>
       <path d="M 45.40625 46.390625 
L 45.40625 75.984375 
L 54.390625 75.984375 
L 54.390625 0 
L 45.40625 0 
L 45.40625 8.203125 
Q 42.578125 3.328125 38.25 0.953125 
Q 33.9375 -1.421875 27.875 -1.421875 
Q 17.96875 -1.421875 11.734375 6.484375 
Q 5.515625 14.40625 5.515625 27.296875 
Q 5.515625 40.1875 11.734375 48.09375 
Q 17.96875 56 27.875 56 
Q 33.9375 56 38.25 53.625 
Q 42.578125 51.265625 45.40625 46.390625 
z
M 14.796875 27.296875 
Q 14.796875 17.390625 18.875 11.75 
Q 22.953125 6.109375 30.078125 6.109375 
Q 37.203125 6.109375 41.296875 11.75 
Q 45.40625 17.390625 45.40625 27.296875 
Q 45.40625 37.203125 41.296875 42.84375 
Q 37.203125 48.484375 30.078125 48.484375 
Q 22.953125 48.484375 18.875 42.84375 
Q 14.796875 37.203125 14.796875 27.296875 
z
" id="DejaVuSans-100"/>
       <path d="M 5.609375 72.90625 
L 62.890625 72.90625 
L 62.890625 65.375 
L 16.796875 8.296875 
L 64.015625 8.296875 
L 64.015625 0 
L 4.5 0 
L 4.5 7.515625 
L 50.59375 64.59375 
L 5.609375 64.59375 
z
" id="DejaVuSans-90"/>
       <path d="M 44.28125 53.078125 
L 44.28125 44.578125 
Q 40.484375 46.53125 36.375 47.5 
Q 32.28125 48.484375 27.875 48.484375 
Q 21.1875 48.484375 17.84375 46.4375 
Q 14.5 44.390625 14.5 40.28125 
Q 14.5 37.15625 16.890625 35.375 
Q 19.28125 33.59375 26.515625 31.984375 
L 29.59375 31.296875 
Q 39.15625 29.25 43.1875 25.515625 
Q 47.21875 21.78125 47.21875 15.09375 
Q 47.21875 7.46875 41.1875 3.015625 
Q 35.15625 -1.421875 24.609375 -1.421875 
Q 20.21875 -1.421875 15.453125 -0.5625 
Q 10.6875 0.296875 5.421875 2 
L 5.421875 11.28125 
Q 10.40625 8.6875 15.234375 7.390625 
Q 20.0625 6.109375 24.8125 6.109375 
Q 31.15625 6.109375 34.5625 8.28125 
Q 37.984375 10.453125 37.984375 14.40625 
Q 37.984375 18.0625 35.515625 20.015625 
Q 33.0625 21.96875 24.703125 23.78125 
L 21.578125 24.515625 
Q 13.234375 26.265625 9.515625 29.90625 
Q 5.8125 33.546875 5.8125 39.890625 
Q 5.8125 47.609375 11.28125 51.796875 
Q 16.75 56 26.8125 56 
Q 31.78125 56 36.171875 55.265625 
Q 40.578125 54.546875 44.28125 53.078125 
z
" id="DejaVuSans-115"/>
       <path id="DejaVuSans-32"/>
       <path d="M 52 44.1875 
Q 55.375 50.25 60.0625 53.125 
Q 64.75 56 71.09375 56 
Q 79.640625 56 84.28125 50.015625 
Q 88.921875 44.046875 88.921875 33.015625 
L 88.921875 0 
L 79.890625 0 
L 79.890625 32.71875 
Q 79.890625 40.578125 77.09375 44.375 
Q 74.3125 48.1875 68.609375 48.1875 
Q 61.625 48.1875 57.5625 43.546875 
Q 53.515625 38.921875 53.515625 30.90625 
L 53.515625 0 
L 44.484375 0 
L 44.484375 32.71875 
Q 44.484375 40.625 41.703125 44.40625 
Q 38.921875 48.1875 33.109375 48.1875 
Q 26.21875 48.1875 22.15625 43.53125 
Q 18.109375 38.875 18.109375 30.90625 
L 18.109375 0 
L 9.078125 0 
L 9.078125 54.6875 
L 18.109375 54.6875 
L 18.109375 46.1875 
Q 21.1875 51.21875 25.484375 53.609375 
Q 29.78125 56 35.6875 56 
Q 41.65625 56 45.828125 52.96875 
Q 50 49.953125 52 44.1875 
z
" id="DejaVuSans-109"/>
       <path d="M 9.421875 54.6875 
L 18.40625 54.6875 
L 18.40625 0 
L 9.421875 0 
z
M 9.421875 75.984375 
L 18.40625 75.984375 
L 18.40625 64.59375 
L 9.421875 64.59375 
z
" id="DejaVuSans-105"/>
       <path d="M 54.890625 33.015625 
L 54.890625 0 
L 45.90625 0 
L 45.90625 32.71875 
Q 45.90625 40.484375 42.875 44.328125 
Q 39.84375 48.1875 33.796875 48.1875 
Q 26.515625 48.1875 22.3125 43.546875 
Q 18.109375 38.921875 18.109375 30.90625 
L 18.109375 0 
L 9.078125 0 
L 9.078125 54.6875 
L 18.109375 54.6875 
L 18.109375 46.1875 
Q 21.34375 51.125 25.703125 53.5625 
Q 30.078125 56 35.796875 56 
Q 45.21875 56 50.046875 50.171875 
Q 54.890625 44.34375 54.890625 33.015625 
z
" id="DejaVuSans-110"/>
       <path d="M 5.515625 54.6875 
L 48.1875 54.6875 
L 48.1875 46.484375 
L 14.40625 7.171875 
L 48.1875 7.171875 
L 48.1875 0 
L 4.296875 0 
L 4.296875 8.203125 
L 38.09375 47.515625 
L 5.515625 47.515625 
z
" id="DejaVuSans-122"/>
       <path d="M 4.890625 31.390625 
L 31.203125 31.390625 
L 31.203125 23.390625 
L 4.890625 23.390625 
z
" id="DejaVuSans-45"/>
       <path d="M 48.78125 52.59375 
L 48.78125 44.1875 
Q 44.96875 46.296875 41.140625 47.34375 
Q 37.3125 48.390625 33.40625 48.390625 
Q 24.65625 48.390625 19.8125 42.84375 
Q 14.984375 37.3125 14.984375 27.296875 
Q 14.984375 17.28125 19.8125 11.734375 
Q 24.65625 6.203125 33.40625 6.203125 
Q 37.3125 6.203125 41.140625 7.25 
Q 44.96875 8.296875 48.78125 10.40625 
L 48.78125 2.09375 
Q 45.015625 0.34375 40.984375 -0.53125 
Q 36.96875 -1.421875 32.421875 -1.421875 
Q 20.0625 -1.421875 12.78125 6.34375 
Q 5.515625 14.109375 5.515625 27.296875 
Q 5.515625 40.671875 12.859375 48.328125 
Q 20.21875 56 33.015625 56 
Q 37.15625 56 41.109375 55.140625 
Q 45.0625 54.296875 48.78125 52.59375 
z
" id="DejaVuSans-99"/>
       <path d="M 30.609375 48.390625 
Q 23.390625 48.390625 19.1875 42.75 
Q 14.984375 37.109375 14.984375 27.296875 
Q 14.984375 17.484375 19.15625 11.84375 
Q 23.34375 6.203125 30.609375 6.203125 
Q 37.796875 6.203125 41.984375 11.859375 
Q 46.1875 17.53125 46.1875 27.296875 
Q 46.1875 37.015625 41.984375 42.703125 
Q 37.796875 48.390625 30.609375 48.390625 
z
M 30.609375 56 
Q 42.328125 56 49.015625 48.375 
Q 55.71875 40.765625 55.71875 27.296875 
Q 55.71875 13.875 49.015625 6.21875 
Q 42.328125 -1.421875 30.609375 -1.421875 
Q 18.84375 -1.421875 12.171875 6.21875 
Q 5.515625 13.875 5.515625 27.296875 
Q 5.515625 40.765625 12.171875 48.375 
Q 18.84375 56 30.609375 56 
z
" id="DejaVuSans-111"/>
       <path d="M 41.109375 46.296875 
Q 39.59375 47.171875 37.8125 47.578125 
Q 36.03125 48 33.890625 48 
Q 26.265625 48 22.1875 43.046875 
Q 18.109375 38.09375 18.109375 28.8125 
L 18.109375 0 
L 9.078125 0 
L 9.078125 54.6875 
L 18.109375 54.6875 
L 18.109375 46.1875 
Q 20.953125 51.171875 25.484375 53.578125 
Q 30.03125 56 36.53125 56 
Q 37.453125 56 38.578125 55.875 
Q 39.703125 55.765625 41.0625 55.515625 
z
" id="DejaVuSans-114"/>
      </defs>
      <use xlink:href="#DejaVuSans-82"/>
      <use x="64.982422" xlink:href="#DejaVuSans-101"/>
      <use x="126.505859" xlink:href="#DejaVuSans-97"/>
      <use x="187.785156" xlink:href="#DejaVuSans-100"/>
      <use x="251.261719" xlink:href="#DejaVuSans-90"/>
      <use x="319.767578" xlink:href="#DejaVuSans-115"/>
      <use x="371.867188" xlink:href="#DejaVuSans-32"/>
      <use x="403.654297" xlink:href="#DejaVuSans-109"/>
      <use x="501.066406" xlink:href="#DejaVuSans-101"/>
      <use x="562.589844" xlink:href="#DejaVuSans-100"/>
      <use x="626.066406" xlink:href="#DejaVuSans-105"/>
      <use x="653.849609" xlink:href="#DejaVuSans-97"/>
      <use x="715.128906" xlink:href="#DejaVuSans-110"/>
      <use x="778.507812" xlink:href="#DejaVuSans-32"/>
      <use x="810.294922" xlink:href="#DejaVuSans-122"/>
      <use x="862.785156" xlink:href="#DejaVuSans-45"/>
      <use x="898.869141" xlink:href="#DejaVuSans-115"/>
      <use x="950.96875" xlink:href="#DejaVuSans-99"/>
      <use x="1005.949219" xlink:href="#DejaVuSans-111"/>
      <use x="1067.130859" xlink:href="#DejaVuSans-114"/>
      <use x="1105.994141" xlink:href="#DejaVuSans-101"/>
     </g>
    </g>
   </g>
   <g id="matplotlib.axis_2">
    <g id="ytick_1">
     <g id="line2d_8">
      <defs>
       <path d="M 0 0 
L -3.5 0 
" id="m2a20d1fd1b" style="stroke:#000000;stroke-width:0.8;"/>
      </defs>
      <g>
       <use style="stroke:#000000;stroke-width:0.8;" x="43.78125" xlink:href="#m2a20d1fd1b" y="313.649068"/>
      </g>
     </g>
     <g id="text_9">
      <!-- 0.0 -->
      <g transform="translate(20.878125 317.448287)scale(0.1 -0.1)">
       <use xlink:href="#DejaVuSans-48"/>
       <use x="63.623047" xlink:href="#DejaVuSans-46"/>
       <use x="95.410156" xlink:href="#DejaVuSans-48"/>
      </g>
     </g>
    </g>
    <g id="ytick_2">
     <g id="line2d_9">
      <g>
       <use style="stroke:#000000;stroke-width:0.8;" x="43.78125" xlink:href="#m2a20d1fd1b" y="253.355201"/>
      </g>
     </g>
     <g id="text_10">
      <!-- 0.1 -->
      <g transform="translate(20.878125 257.15442)scale(0.1 -0.1)">
       <defs>
        <path d="M 12.40625 8.296875 
L 28.515625 8.296875 
L 28.515625 63.921875 
L 10.984375 60.40625 
L 10.984375 69.390625 
L 28.421875 72.90625 
L 38.28125 72.90625 
L 38.28125 8.296875 
L 54.390625 8.296875 
L 54.390625 0 
L 12.40625 0 
z
" id="DejaVuSans-49"/>
       </defs>
       <use xlink:href="#DejaVuSans-48"/>
       <use x="63.623047" xlink:href="#DejaVuSans-46"/>
       <use x="95.410156" xlink:href="#DejaVuSans-49"/>
      </g>
     </g>
    </g>
    <g id="ytick_3">
     <g id="line2d_10">
      <g>
       <use style="stroke:#000000;stroke-width:0.8;" x="43.78125" xlink:href="#m2a20d1fd1b" y="193.061334"/>
      </g>
     </g>
     <g id="text_11">
      <!-- 0.2 -->
      <g transform="translate(20.878125 196.860553)scale(0.1 -0.1)">
       <use xlink:href="#DejaVuSans-48"/>
       <use x="63.623047" xlink:href="#DejaVuSans-46"/>
       <use x="95.410156" xlink:href="#DejaVuSans-50"/>
      </g>
     </g>
    </g>
    <g id="ytick_4">
     <g id="line2d_11">
      <g>
       <use style="stroke:#000000;stroke-width:0.8;" x="43.78125" xlink:href="#m2a20d1fd1b" y="132.767467"/>
      </g>
     </g>
     <g id="text_12">
      <!-- 0.3 -->
      <g transform="translate(20.878125 136.566686)scale(0.1 -0.1)">
       <defs>
        <path d="M 40.578125 39.3125 
Q 47.65625 37.796875 51.625 33 
Q 55.609375 28.21875 55.609375 21.1875 
Q 55.609375 10.40625 48.1875 4.484375 
Q 40.765625 -1.421875 27.09375 -1.421875 
Q 22.515625 -1.421875 17.65625 -0.515625 
Q 12.796875 0.390625 7.625 2.203125 
L 7.625 11.71875 
Q 11.71875 9.328125 16.59375 8.109375 
Q 21.484375 6.890625 26.8125 6.890625 
Q 36.078125 6.890625 40.9375 10.546875 
Q 45.796875 14.203125 45.796875 21.1875 
Q 45.796875 27.640625 41.28125 31.265625 
Q 36.765625 34.90625 28.71875 34.90625 
L 20.21875 34.90625 
L 20.21875 43.015625 
L 29.109375 43.015625 
Q 36.375 43.015625 40.234375 45.921875 
Q 44.09375 48.828125 44.09375 54.296875 
Q 44.09375 59.90625 40.109375 62.90625 
Q 36.140625 65.921875 28.71875 65.921875 
Q 24.65625 65.921875 20.015625 65.03125 
Q 15.375 64.15625 9.8125 62.3125 
L 9.8125 71.09375 
Q 15.4375 72.65625 20.34375 73.4375 
Q 25.25 74.21875 29.59375 74.21875 
Q 40.828125 74.21875 47.359375 69.109375 
Q 53.90625 64.015625 53.90625 55.328125 
Q 53.90625 49.265625 50.4375 45.09375 
Q 46.96875 40.921875 40.578125 39.3125 
z
" id="DejaVuSans-51"/>
       </defs>
       <use xlink:href="#DejaVuSans-48"/>
       <use x="63.623047" xlink:href="#DejaVuSans-46"/>
       <use x="95.410156" xlink:href="#DejaVuSans-51"/>
      </g>
     </g>
    </g>
    <g id="ytick_5">
     <g id="line2d_12">
      <g>
       <use style="stroke:#000000;stroke-width:0.8;" x="43.78125" xlink:href="#m2a20d1fd1b" y="72.4736"/>
      </g>
     </g>
     <g id="text_13">
      <!-- 0.4 -->
      <g transform="translate(20.878125 76.272819)scale(0.1 -0.1)">
       <defs>
        <path d="M 37.796875 64.3125 
L 12.890625 25.390625 
L 37.796875 25.390625 
z
M 35.203125 72.90625 
L 47.609375 72.90625 
L 47.609375 25.390625 
L 58.015625 25.390625 
L 58.015625 17.1875 
L 47.609375 17.1875 
L 47.609375 0 
L 37.796875 0 
L 37.796875 17.1875 
L 4.890625 17.1875 
L 4.890625 26.703125 
z
" id="DejaVuSans-52"/>
       </defs>
       <use xlink:href="#DejaVuSans-48"/>
       <use x="63.623047" xlink:href="#DejaVuSans-46"/>
       <use x="95.410156" xlink:href="#DejaVuSans-52"/>
      </g>
     </g>
    </g>
    <g id="text_14">
     <!-- SRRS median radial score -->
     <g transform="translate(14.798438 247.393906)rotate(-90)scale(0.1 -0.1)">
      <defs>
       <path d="M 53.515625 70.515625 
L 53.515625 60.890625 
Q 47.90625 63.578125 42.921875 64.890625 
Q 37.9375 66.21875 33.296875 66.21875 
Q 25.25 66.21875 20.875 63.09375 
Q 16.5 59.96875 16.5 54.203125 
Q 16.5 49.359375 19.40625 46.890625 
Q 22.3125 44.4375 30.421875 42.921875 
L 36.375 41.703125 
Q 47.40625 39.59375 52.65625 34.296875 
Q 57.90625 29 57.90625 20.125 
Q 57.90625 9.515625 50.796875 4.046875 
Q 43.703125 -1.421875 29.984375 -1.421875 
Q 24.8125 -1.421875 18.96875 -0.25 
Q 13.140625 0.921875 6.890625 3.21875 
L 6.890625 13.375 
Q 12.890625 10.015625 18.65625 8.296875 
Q 24.421875 6.59375 29.984375 6.59375 
Q 38.421875 6.59375 43.015625 9.90625 
Q 47.609375 13.234375 47.609375 19.390625 
Q 47.609375 24.75 44.3125 27.78125 
Q 41.015625 30.8125 33.5 32.328125 
L 27.484375 33.5 
Q 16.453125 35.6875 11.515625 40.375 
Q 6.59375 45.0625 6.59375 53.421875 
Q 6.59375 63.09375 13.40625 68.65625 
Q 20.21875 74.21875 32.171875 74.21875 
Q 37.3125 74.21875 42.625 73.28125 
Q 47.953125 72.359375 53.515625 70.515625 
z
" id="DejaVuSans-83"/>
       <path d="M 9.421875 75.984375 
L 18.40625 75.984375 
L 18.40625 0 
L 9.421875 0 
z
" id="DejaVuSans-108"/>
      </defs>
      <use xlink:href="#DejaVuSans-83"/>
      <use x="63.476562" xlink:href="#DejaVuSans-82"/>
      <use x="132.958984" xlink:href="#DejaVuSans-82"/>
      <use x="202.441406" xlink:href="#DejaVuSans-83"/>
      <use x="265.917969" xlink:href="#DejaVuSans-32"/>
      <use x="297.705078" xlink:href="#DejaVuSans-109"/>
      <use x="395.117188" xlink:href="#DejaVuSans-101"/>
      <use x="456.640625" xlink:href="#DejaVuSans-100"/>
      <use x="520.117188" xlink:href="#DejaVuSans-105"/>
      <use x="547.900391" xlink:href="#DejaVuSans-97"/>
      <use x="609.179688" xlink:href="#DejaVuSans-110"/>
      <use x="672.558594" xlink:href="#DejaVuSans-32"/>
      <use x="704.345703" xlink:href="#DejaVuSans-114"/>
      <use x="745.458984" xlink:href="#DejaVuSans-97"/>
      <use x="806.738281" xlink:href="#DejaVuSans-100"/>
      <use x="870.214844" xlink:href="#DejaVuSans-105"/>
      <use x="897.998047" xlink:href="#DejaVuSans-97"/>
      <use x="959.277344" xlink:href="#DejaVuSans-108"/>
      <use x="987.060547" xlink:href="#DejaVuSans-32"/>
      <use x="1018.847656" xlink:href="#DejaVuSans-115"/>
      <use x="1070.947266" xlink:href="#DejaVuSans-99"/>
      <use x="1125.927734" xlink:href="#DejaVuSans-111"/>
      <use x="1187.109375" xlink:href="#DejaVuSans-114"/>
      <use x="1225.972656" xlink:href="#DejaVuSans-101"/>
     </g>
    </g>
   </g>
   <g id="patch_3">
    <path d="M 43.78125 343.718125 
L 43.78125 22.318125 
" style="fill:none;stroke:#000000;stroke-linecap:square;stroke-linejoin:miter;stroke-width:0.8;"/>
   </g>
   <g id="patch_4">
    <path d="M 43.78125 343.718125 
L 356.941589 343.718125 
" style="fill:none;stroke:#000000;stroke-linecap:square;stroke-linejoin:miter;stroke-width:0.8;"/>
   </g>
   <g id="text_15">
    <!-- Timp3 significant in at least 1 MERFISH/10X sample pair -->
    <g transform="translate(31.801732 16.318125)scale(0.12 -0.12)">
     <defs>
      <path d="M -0.296875 72.90625 
L 61.375 72.90625 
L 61.375 64.59375 
L 35.5 64.59375 
L 35.5 0 
L 25.59375 0 
L 25.59375 64.59375 
L -0.296875 64.59375 
z
" id="DejaVuSans-84"/>
      <path d="M 18.109375 8.203125 
L 18.109375 -20.796875 
L 9.078125 -20.796875 
L 9.078125 54.6875 
L 18.109375 54.6875 
L 18.109375 46.390625 
Q 20.953125 51.265625 25.265625 53.625 
Q 29.59375 56 35.59375 56 
Q 45.5625 56 51.78125 48.09375 
Q 58.015625 40.1875 58.015625 27.296875 
Q 58.015625 14.40625 51.78125 6.484375 
Q 45.5625 -1.421875 35.59375 -1.421875 
Q 29.59375 -1.421875 25.265625 0.953125 
Q 20.953125 3.328125 18.109375 8.203125 
z
M 48.6875 27.296875 
Q 48.6875 37.203125 44.609375 42.84375 
Q 40.53125 48.484375 33.40625 48.484375 
Q 26.265625 48.484375 22.1875 42.84375 
Q 18.109375 37.203125 18.109375 27.296875 
Q 18.109375 17.390625 22.1875 11.75 
Q 26.265625 6.109375 33.40625 6.109375 
Q 40.53125 6.109375 44.609375 11.75 
Q 48.6875 17.390625 48.6875 27.296875 
z
" id="DejaVuSans-112"/>
      <path d="M 45.40625 27.984375 
Q 45.40625 37.75 41.375 43.109375 
Q 37.359375 48.484375 30.078125 48.484375 
Q 22.859375 48.484375 18.828125 43.109375 
Q 14.796875 37.75 14.796875 27.984375 
Q 14.796875 18.265625 18.828125 12.890625 
Q 22.859375 7.515625 30.078125 7.515625 
Q 37.359375 7.515625 41.375 12.890625 
Q 45.40625 18.265625 45.40625 27.984375 
z
M 54.390625 6.78125 
Q 54.390625 -7.171875 48.1875 -13.984375 
Q 42 -20.796875 29.203125 -20.796875 
Q 24.46875 -20.796875 20.265625 -20.09375 
Q 16.0625 -19.390625 12.109375 -17.921875 
L 12.109375 -9.1875 
Q 16.0625 -11.328125 19.921875 -12.34375 
Q 23.78125 -13.375 27.78125 -13.375 
Q 36.625 -13.375 41.015625 -8.765625 
Q 45.40625 -4.15625 45.40625 5.171875 
L 45.40625 9.625 
Q 42.625 4.78125 38.28125 2.390625 
Q 33.9375 0 27.875 0 
Q 17.828125 0 11.671875 7.65625 
Q 5.515625 15.328125 5.515625 27.984375 
Q 5.515625 40.671875 11.671875 48.328125 
Q 17.828125 56 27.875 56 
Q 33.9375 56 38.28125 53.609375 
Q 42.625 51.21875 45.40625 46.390625 
L 45.40625 54.6875 
L 54.390625 54.6875 
z
" id="DejaVuSans-103"/>
      <path d="M 37.109375 75.984375 
L 37.109375 68.5 
L 28.515625 68.5 
Q 23.6875 68.5 21.796875 66.546875 
Q 19.921875 64.59375 19.921875 59.515625 
L 19.921875 54.6875 
L 34.71875 54.6875 
L 34.71875 47.703125 
L 19.921875 47.703125 
L 19.921875 0 
L 10.890625 0 
L 10.890625 47.703125 
L 2.296875 47.703125 
L 2.296875 54.6875 
L 10.890625 54.6875 
L 10.890625 58.5 
Q 10.890625 67.625 15.140625 71.796875 
Q 19.390625 75.984375 28.609375 75.984375 
z
" id="DejaVuSans-102"/>
      <path d="M 18.3125 70.21875 
L 18.3125 54.6875 
L 36.8125 54.6875 
L 36.8125 47.703125 
L 18.3125 47.703125 
L 18.3125 18.015625 
Q 18.3125 11.328125 20.140625 9.421875 
Q 21.96875 7.515625 27.59375 7.515625 
L 36.8125 7.515625 
L 36.8125 0 
L 27.59375 0 
Q 17.1875 0 13.234375 3.875 
Q 9.28125 7.765625 9.28125 18.015625 
L 9.28125 47.703125 
L 2.6875 47.703125 
L 2.6875 54.6875 
L 9.28125 54.6875 
L 9.28125 70.21875 
z
" id="DejaVuSans-116"/>
      <path d="M 9.8125 72.90625 
L 24.515625 72.90625 
L 43.109375 23.296875 
L 61.8125 72.90625 
L 76.515625 72.90625 
L 76.515625 0 
L 66.890625 0 
L 66.890625 64.015625 
L 48.09375 14.015625 
L 38.1875 14.015625 
L 19.390625 64.015625 
L 19.390625 0 
L 9.8125 0 
z
" id="DejaVuSans-77"/>
      <path d="M 9.8125 72.90625 
L 55.90625 72.90625 
L 55.90625 64.59375 
L 19.671875 64.59375 
L 19.671875 43.015625 
L 54.390625 43.015625 
L 54.390625 34.71875 
L 19.671875 34.71875 
L 19.671875 8.296875 
L 56.78125 8.296875 
L 56.78125 0 
L 9.8125 0 
z
" id="DejaVuSans-69"/>
      <path d="M 9.8125 72.90625 
L 51.703125 72.90625 
L 51.703125 64.59375 
L 19.671875 64.59375 
L 19.671875 43.109375 
L 48.578125 43.109375 
L 48.578125 34.8125 
L 19.671875 34.8125 
L 19.671875 0 
L 9.8125 0 
z
" id="DejaVuSans-70"/>
      <path d="M 9.8125 72.90625 
L 19.671875 72.90625 
L 19.671875 0 
L 9.8125 0 
z
" id="DejaVuSans-73"/>
      <path d="M 9.8125 72.90625 
L 19.671875 72.90625 
L 19.671875 43.015625 
L 55.515625 43.015625 
L 55.515625 72.90625 
L 65.375 72.90625 
L 65.375 0 
L 55.515625 0 
L 55.515625 34.71875 
L 19.671875 34.71875 
L 19.671875 0 
L 9.8125 0 
z
" id="DejaVuSans-72"/>
      <path d="M 25.390625 72.90625 
L 33.6875 72.90625 
L 8.296875 -9.28125 
L 0 -9.28125 
z
" id="DejaVuSans-47"/>
      <path d="M 6.296875 72.90625 
L 16.890625 72.90625 
L 35.015625 45.796875 
L 53.21875 72.90625 
L 63.8125 72.90625 
L 40.375 37.890625 
L 65.375 0 
L 54.78125 0 
L 34.28125 31 
L 13.625 0 
L 2.984375 0 
L 29 38.921875 
z
" id="DejaVuSans-88"/>
     </defs>
     <use xlink:href="#DejaVuSans-84"/>
     <use x="57.958984" xlink:href="#DejaVuSans-105"/>
     <use x="85.742188" xlink:href="#DejaVuSans-109"/>
     <use x="183.154297" xlink:href="#DejaVuSans-112"/>
     <use x="246.630859" xlink:href="#DejaVuSans-51"/>
     <use x="310.253906" xlink:href="#DejaVuSans-32"/>
     <use x="342.041016" xlink:href="#DejaVuSans-115"/>
     <use x="394.140625" xlink:href="#DejaVuSans-105"/>
     <use x="421.923828" xlink:href="#DejaVuSans-103"/>
     <use x="485.400391" xlink:href="#DejaVuSans-110"/>
     <use x="548.779297" xlink:href="#DejaVuSans-105"/>
     <use x="576.5625" xlink:href="#DejaVuSans-102"/>
     <use x="611.767578" xlink:href="#DejaVuSans-105"/>
     <use x="639.550781" xlink:href="#DejaVuSans-99"/>
     <use x="694.53125" xlink:href="#DejaVuSans-97"/>
     <use x="755.810547" xlink:href="#DejaVuSans-110"/>
     <use x="819.189453" xlink:href="#DejaVuSans-116"/>
     <use x="858.398438" xlink:href="#DejaVuSans-32"/>
     <use x="890.185547" xlink:href="#DejaVuSans-105"/>
     <use x="917.96875" xlink:href="#DejaVuSans-110"/>
     <use x="981.347656" xlink:href="#DejaVuSans-32"/>
     <use x="1013.134766" xlink:href="#DejaVuSans-97"/>
     <use x="1074.414062" xlink:href="#DejaVuSans-116"/>
     <use x="1113.623047" xlink:href="#DejaVuSans-32"/>
     <use x="1145.410156" xlink:href="#DejaVuSans-108"/>
     <use x="1173.193359" xlink:href="#DejaVuSans-101"/>
     <use x="1234.716797" xlink:href="#DejaVuSans-97"/>
     <use x="1295.996094" xlink:href="#DejaVuSans-115"/>
     <use x="1348.095703" xlink:href="#DejaVuSans-116"/>
     <use x="1387.304688" xlink:href="#DejaVuSans-32"/>
     <use x="1419.091797" xlink:href="#DejaVuSans-49"/>
     <use x="1482.714844" xlink:href="#DejaVuSans-32"/>
     <use x="1514.501953" xlink:href="#DejaVuSans-77"/>
     <use x="1600.78125" xlink:href="#DejaVuSans-69"/>
     <use x="1663.964844" xlink:href="#DejaVuSans-82"/>
     <use x="1733.447266" xlink:href="#DejaVuSans-70"/>
     <use x="1790.966797" xlink:href="#DejaVuSans-73"/>
     <use x="1820.458984" xlink:href="#DejaVuSans-83"/>
     <use x="1883.935547" xlink:href="#DejaVuSans-72"/>
     <use x="1959.130859" xlink:href="#DejaVuSans-47"/>
     <use x="1992.822266" xlink:href="#DejaVuSans-49"/>
     <use x="2056.445312" xlink:href="#DejaVuSans-48"/>
     <use x="2120.068359" xlink:href="#DejaVuSans-88"/>
     <use x="2188.574219" xlink:href="#DejaVuSans-32"/>
     <use x="2220.361328" xlink:href="#DejaVuSans-115"/>
     <use x="2272.460938" xlink:href="#DejaVuSans-97"/>
     <use x="2333.740234" xlink:href="#DejaVuSans-109"/>
     <use x="2431.152344" xlink:href="#DejaVuSans-112"/>
     <use x="2494.628906" xlink:href="#DejaVuSans-108"/>
     <use x="2522.412109" xlink:href="#DejaVuSans-101"/>
     <use x="2583.935547" xlink:href="#DejaVuSans-32"/>
     <use x="2615.722656" xlink:href="#DejaVuSans-112"/>
     <use x="2679.199219" xlink:href="#DejaVuSans-97"/>
     <use x="2740.478516" xlink:href="#DejaVuSans-105"/>
     <use x="2768.261719" xlink:href="#DejaVuSans-114"/>
    </g>
   </g>
  </g>
  <g id="legend_1">
   <g id="text_16">
    <!-- ontology -->
    <g transform="translate(370.630964 61.015312)scale(0.1 -0.1)">
     <defs>
      <path d="M 32.171875 -5.078125 
Q 28.375 -14.84375 24.75 -17.8125 
Q 21.140625 -20.796875 15.09375 -20.796875 
L 7.90625 -20.796875 
L 7.90625 -13.28125 
L 13.1875 -13.28125 
Q 16.890625 -13.28125 18.9375 -11.515625 
Q 21 -9.765625 23.484375 -3.21875 
L 25.09375 0.875 
L 2.984375 54.6875 
L 12.5 54.6875 
L 29.59375 11.921875 
L 46.6875 54.6875 
L 56.203125 54.6875 
z
" id="DejaVuSans-121"/>
     </defs>
     <use xlink:href="#DejaVuSans-111"/>
     <use x="61.181641" xlink:href="#DejaVuSans-110"/>
     <use x="124.560547" xlink:href="#DejaVuSans-116"/>
     <use x="163.769531" xlink:href="#DejaVuSans-111"/>
     <use x="224.951172" xlink:href="#DejaVuSans-108"/>
     <use x="252.734375" xlink:href="#DejaVuSans-111"/>
     <use x="313.916016" xlink:href="#DejaVuSans-103"/>
     <use x="377.392578" xlink:href="#DejaVuSans-121"/>
    </g>
   </g>
   <g id="PathCollection_18">
    <defs>
     <path d="M 0 3 
C 0.795609 3 1.55874 2.683901 2.12132 2.12132 
C 2.683901 1.55874 3 0.795609 3 0 
C 3 -0.795609 2.683901 -1.55874 2.12132 -2.12132 
C 1.55874 -2.683901 0.795609 -3 0 -3 
C -0.795609 -3 -1.55874 -2.683901 -2.12132 -2.12132 
C -2.683901 -1.55874 -3 -0.795609 -3 0 
C -3 0.795609 -2.683901 1.55874 -2.12132 2.12132 
C -1.55874 2.683901 -0.795609 3 0 3 
z
" id="m2ede8fdd6d" style="stroke:#1f77b4;"/>
    </defs>
    <g>
     <use style="fill:#1f77b4;stroke:#1f77b4;" x="372.630964" xlink:href="#m2ede8fdd6d" y="73.068437"/>
    </g>
   </g>
   <g id="text_17">
    <!-- L6 IT -->
    <g transform="translate(390.630964 75.693437)scale(0.1 -0.1)">
     <defs>
      <path d="M 9.8125 72.90625 
L 19.671875 72.90625 
L 19.671875 8.296875 
L 55.171875 8.296875 
L 55.171875 0 
L 9.8125 0 
z
" id="DejaVuSans-76"/>
      <path d="M 33.015625 40.375 
Q 26.375 40.375 22.484375 35.828125 
Q 18.609375 31.296875 18.609375 23.390625 
Q 18.609375 15.53125 22.484375 10.953125 
Q 26.375 6.390625 33.015625 6.390625 
Q 39.65625 6.390625 43.53125 10.953125 
Q 47.40625 15.53125 47.40625 23.390625 
Q 47.40625 31.296875 43.53125 35.828125 
Q 39.65625 40.375 33.015625 40.375 
z
M 52.59375 71.296875 
L 52.59375 62.3125 
Q 48.875 64.0625 45.09375 64.984375 
Q 41.3125 65.921875 37.59375 65.921875 
Q 27.828125 65.921875 22.671875 59.328125 
Q 17.53125 52.734375 16.796875 39.40625 
Q 19.671875 43.65625 24.015625 45.921875 
Q 28.375 48.1875 33.59375 48.1875 
Q 44.578125 48.1875 50.953125 41.515625 
Q 57.328125 34.859375 57.328125 23.390625 
Q 57.328125 12.15625 50.6875 5.359375 
Q 44.046875 -1.421875 33.015625 -1.421875 
Q 20.359375 -1.421875 13.671875 8.265625 
Q 6.984375 17.96875 6.984375 36.375 
Q 6.984375 53.65625 15.1875 63.9375 
Q 23.390625 74.21875 37.203125 74.21875 
Q 40.921875 74.21875 44.703125 73.484375 
Q 48.484375 72.75 52.59375 71.296875 
z
" id="DejaVuSans-54"/>
     </defs>
     <use xlink:href="#DejaVuSans-76"/>
     <use x="55.712891" xlink:href="#DejaVuSans-54"/>
     <use x="119.335938" xlink:href="#DejaVuSans-32"/>
     <use x="151.123047" xlink:href="#DejaVuSans-73"/>
     <use x="180.615234" xlink:href="#DejaVuSans-84"/>
    </g>
   </g>
   <g id="PathCollection_19">
    <defs>
     <path d="M 0 3 
C 0.795609 3 1.55874 2.683901 2.12132 2.12132 
C 2.683901 1.55874 3 0.795609 3 0 
C 3 -0.795609 2.683901 -1.55874 2.12132 -2.12132 
C 1.55874 -2.683901 0.795609 -3 0 -3 
C -0.795609 -3 -1.55874 -2.683901 -2.12132 -2.12132 
C -2.683901 -1.55874 -3 -0.795609 -3 0 
C -3 0.795609 -2.683901 1.55874 -2.12132 2.12132 
C -1.55874 2.683901 -0.795609 3 0 3 
z
" id="m640b4fa08d" style="stroke:#ff7f0e;"/>
    </defs>
    <g>
     <use style="fill:#ff7f0e;stroke:#ff7f0e;" x="372.630964" xlink:href="#m640b4fa08d" y="87.746562"/>
    </g>
   </g>
   <g id="text_18">
    <!-- L2/3 IT -->
    <g transform="translate(390.630964 90.371562)scale(0.1 -0.1)">
     <use xlink:href="#DejaVuSans-76"/>
     <use x="55.712891" xlink:href="#DejaVuSans-50"/>
     <use x="119.335938" xlink:href="#DejaVuSans-47"/>
     <use x="153.027344" xlink:href="#DejaVuSans-51"/>
     <use x="216.650391" xlink:href="#DejaVuSans-32"/>
     <use x="248.4375" xlink:href="#DejaVuSans-73"/>
     <use x="277.929688" xlink:href="#DejaVuSans-84"/>
    </g>
   </g>
   <g id="PathCollection_20">
    <defs>
     <path d="M 0 3 
C 0.795609 3 1.55874 2.683901 2.12132 2.12132 
C 2.683901 1.55874 3 0.795609 3 0 
C 3 -0.795609 2.683901 -1.55874 2.12132 -2.12132 
C 1.55874 -2.683901 0.795609 -3 0 -3 
C -0.795609 -3 -1.55874 -2.683901 -2.12132 -2.12132 
C -2.683901 -1.55874 -3 -0.795609 -3 0 
C -3 0.795609 -2.683901 1.55874 -2.12132 2.12132 
C -1.55874 2.683901 -0.795609 3 0 3 
z
" id="m6789ee3e32" style="stroke:#2ca02c;"/>
    </defs>
    <g>
     <use style="fill:#2ca02c;stroke:#2ca02c;" x="372.630964" xlink:href="#m6789ee3e32" y="102.424687"/>
    </g>
   </g>
   <g id="text_19">
    <!-- L5 IT -->
    <g transform="translate(390.630964 105.049687)scale(0.1 -0.1)">
     <use xlink:href="#DejaVuSans-76"/>
     <use x="55.712891" xlink:href="#DejaVuSans-53"/>
     <use x="119.335938" xlink:href="#DejaVuSans-32"/>
     <use x="151.123047" xlink:href="#DejaVuSans-73"/>
     <use x="180.615234" xlink:href="#DejaVuSans-84"/>
    </g>
   </g>
   <g id="PathCollection_21">
    <defs>
     <path d="M 0 3 
C 0.795609 3 1.55874 2.683901 2.12132 2.12132 
C 2.683901 1.55874 3 0.795609 3 0 
C 3 -0.795609 2.683901 -1.55874 2.12132 -2.12132 
C 1.55874 -2.683901 0.795609 -3 0 -3 
C -0.795609 -3 -1.55874 -2.683901 -2.12132 -2.12132 
C -2.683901 -1.55874 -3 -0.795609 -3 0 
C -3 0.795609 -2.683901 1.55874 -2.12132 2.12132 
C -1.55874 2.683901 -0.795609 3 0 3 
z
" id="m308293ab02" style="stroke:#d62728;"/>
    </defs>
    <g>
     <use style="fill:#d62728;stroke:#d62728;" x="372.630964" xlink:href="#m308293ab02" y="117.102812"/>
    </g>
   </g>
   <g id="text_20">
    <!-- OPC -->
    <g transform="translate(390.630964 119.727812)scale(0.1 -0.1)">
     <defs>
      <path d="M 39.40625 66.21875 
Q 28.65625 66.21875 22.328125 58.203125 
Q 16.015625 50.203125 16.015625 36.375 
Q 16.015625 22.609375 22.328125 14.59375 
Q 28.65625 6.59375 39.40625 6.59375 
Q 50.140625 6.59375 56.421875 14.59375 
Q 62.703125 22.609375 62.703125 36.375 
Q 62.703125 50.203125 56.421875 58.203125 
Q 50.140625 66.21875 39.40625 66.21875 
z
M 39.40625 74.21875 
Q 54.734375 74.21875 63.90625 63.9375 
Q 73.09375 53.65625 73.09375 36.375 
Q 73.09375 19.140625 63.90625 8.859375 
Q 54.734375 -1.421875 39.40625 -1.421875 
Q 24.03125 -1.421875 14.8125 8.828125 
Q 5.609375 19.09375 5.609375 36.375 
Q 5.609375 53.65625 14.8125 63.9375 
Q 24.03125 74.21875 39.40625 74.21875 
z
" id="DejaVuSans-79"/>
      <path d="M 19.671875 64.796875 
L 19.671875 37.40625 
L 32.078125 37.40625 
Q 38.96875 37.40625 42.71875 40.96875 
Q 46.484375 44.53125 46.484375 51.125 
Q 46.484375 57.671875 42.71875 61.234375 
Q 38.96875 64.796875 32.078125 64.796875 
z
M 9.8125 72.90625 
L 32.078125 72.90625 
Q 44.34375 72.90625 50.609375 67.359375 
Q 56.890625 61.8125 56.890625 51.125 
Q 56.890625 40.328125 50.609375 34.8125 
Q 44.34375 29.296875 32.078125 29.296875 
L 19.671875 29.296875 
L 19.671875 0 
L 9.8125 0 
z
" id="DejaVuSans-80"/>
      <path d="M 64.40625 67.28125 
L 64.40625 56.890625 
Q 59.421875 61.53125 53.78125 63.8125 
Q 48.140625 66.109375 41.796875 66.109375 
Q 29.296875 66.109375 22.65625 58.46875 
Q 16.015625 50.828125 16.015625 36.375 
Q 16.015625 21.96875 22.65625 14.328125 
Q 29.296875 6.6875 41.796875 6.6875 
Q 48.140625 6.6875 53.78125 8.984375 
Q 59.421875 11.28125 64.40625 15.921875 
L 64.40625 5.609375 
Q 59.234375 2.09375 53.4375 0.328125 
Q 47.65625 -1.421875 41.21875 -1.421875 
Q 24.65625 -1.421875 15.125 8.703125 
Q 5.609375 18.84375 5.609375 36.375 
Q 5.609375 53.953125 15.125 64.078125 
Q 24.65625 74.21875 41.21875 74.21875 
Q 47.75 74.21875 53.53125 72.484375 
Q 59.328125 70.75 64.40625 67.28125 
z
" id="DejaVuSans-67"/>
     </defs>
     <use xlink:href="#DejaVuSans-79"/>
     <use x="78.710938" xlink:href="#DejaVuSans-80"/>
     <use x="139.013672" xlink:href="#DejaVuSans-67"/>
    </g>
   </g>
   <g id="PathCollection_22">
    <defs>
     <path d="M 0 3 
C 0.795609 3 1.55874 2.683901 2.12132 2.12132 
C 2.683901 1.55874 3 0.795609 3 0 
C 3 -0.795609 2.683901 -1.55874 2.12132 -2.12132 
C 1.55874 -2.683901 0.795609 -3 0 -3 
C -0.795609 -3 -1.55874 -2.683901 -2.12132 -2.12132 
C -2.683901 -1.55874 -3 -0.795609 -3 0 
C -3 0.795609 -2.683901 1.55874 -2.12132 2.12132 
C -1.55874 2.683901 -0.795609 3 0 3 
z
" id="m5cb9863ac8" style="stroke:#9467bd;"/>
    </defs>
    <g>
     <use style="fill:#9467bd;stroke:#9467bd;" x="372.630964" xlink:href="#m5cb9863ac8" y="131.780937"/>
    </g>
   </g>
   <g id="text_21">
    <!-- Astro -->
    <g transform="translate(390.630964 134.405937)scale(0.1 -0.1)">
     <defs>
      <path d="M 34.1875 63.1875 
L 20.796875 26.90625 
L 47.609375 26.90625 
z
M 28.609375 72.90625 
L 39.796875 72.90625 
L 67.578125 0 
L 57.328125 0 
L 50.6875 18.703125 
L 17.828125 18.703125 
L 11.1875 0 
L 0.78125 0 
z
" id="DejaVuSans-65"/>
     </defs>
     <use xlink:href="#DejaVuSans-65"/>
     <use x="68.408203" xlink:href="#DejaVuSans-115"/>
     <use x="120.507812" xlink:href="#DejaVuSans-116"/>
     <use x="159.716797" xlink:href="#DejaVuSans-114"/>
     <use x="198.580078" xlink:href="#DejaVuSans-111"/>
    </g>
   </g>
   <g id="PathCollection_23">
    <defs>
     <path d="M 0 3 
C 0.795609 3 1.55874 2.683901 2.12132 2.12132 
C 2.683901 1.55874 3 0.795609 3 0 
C 3 -0.795609 2.683901 -1.55874 2.12132 -2.12132 
C 1.55874 -2.683901 0.795609 -3 0 -3 
C -0.795609 -3 -1.55874 -2.683901 -2.12132 -2.12132 
C -2.683901 -1.55874 -3 -0.795609 -3 0 
C -3 0.795609 -2.683901 1.55874 -2.12132 2.12132 
C -1.55874 2.683901 -0.795609 3 0 3 
z
" id="m8bdc311b03" style="stroke:#8c564b;"/>
    </defs>
    <g>
     <use style="fill:#8c564b;stroke:#8c564b;" x="372.630964" xlink:href="#m8bdc311b03" y="146.459062"/>
    </g>
   </g>
   <g id="text_22">
    <!-- Vip -->
    <g transform="translate(390.630964 149.084062)scale(0.1 -0.1)">
     <defs>
      <path d="M 28.609375 0 
L 0.78125 72.90625 
L 11.078125 72.90625 
L 34.1875 11.53125 
L 57.328125 72.90625 
L 67.578125 72.90625 
L 39.796875 0 
z
" id="DejaVuSans-86"/>
     </defs>
     <use xlink:href="#DejaVuSans-86"/>
     <use x="66.158203" xlink:href="#DejaVuSans-105"/>
     <use x="93.941406" xlink:href="#DejaVuSans-112"/>
    </g>
   </g>
   <g id="PathCollection_24">
    <defs>
     <path d="M 0 3 
C 0.795609 3 1.55874 2.683901 2.12132 2.12132 
C 2.683901 1.55874 3 0.795609 3 0 
C 3 -0.795609 2.683901 -1.55874 2.12132 -2.12132 
C 1.55874 -2.683901 0.795609 -3 0 -3 
C -0.795609 -3 -1.55874 -2.683901 -2.12132 -2.12132 
C -2.683901 -1.55874 -3 -0.795609 -3 0 
C -3 0.795609 -2.683901 1.55874 -2.12132 2.12132 
C -1.55874 2.683901 -0.795609 3 0 3 
z
" id="mea59f85701" style="stroke:#e377c2;"/>
    </defs>
    <g>
     <use style="fill:#e377c2;stroke:#e377c2;" x="372.630964" xlink:href="#mea59f85701" y="161.137187"/>
    </g>
   </g>
   <g id="text_23">
    <!-- Endo -->
    <g transform="translate(390.630964 163.762187)scale(0.1 -0.1)">
     <use xlink:href="#DejaVuSans-69"/>
     <use x="63.183594" xlink:href="#DejaVuSans-110"/>
     <use x="126.5625" xlink:href="#DejaVuSans-100"/>
     <use x="190.039062" xlink:href="#DejaVuSans-111"/>
    </g>
   </g>
   <g id="PathCollection_25">
    <defs>
     <path d="M 0 3 
C 0.795609 3 1.55874 2.683901 2.12132 2.12132 
C 2.683901 1.55874 3 0.795609 3 0 
C 3 -0.795609 2.683901 -1.55874 2.12132 -2.12132 
C 1.55874 -2.683901 0.795609 -3 0 -3 
C -0.795609 -3 -1.55874 -2.683901 -2.12132 -2.12132 
C -2.683901 -1.55874 -3 -0.795609 -3 0 
C -3 0.795609 -2.683901 1.55874 -2.12132 2.12132 
C -1.55874 2.683901 -0.795609 3 0 3 
z
" id="m0ee9ccb6c2" style="stroke:#7f7f7f;"/>
    </defs>
    <g>
     <use style="fill:#7f7f7f;stroke:#7f7f7f;" x="372.630964" xlink:href="#m0ee9ccb6c2" y="175.815312"/>
    </g>
   </g>
   <g id="text_24">
    <!-- Lamp5 -->
    <g transform="translate(390.630964 178.440312)scale(0.1 -0.1)">
     <use xlink:href="#DejaVuSans-76"/>
     <use x="55.712891" xlink:href="#DejaVuSans-97"/>
     <use x="116.992188" xlink:href="#DejaVuSans-109"/>
     <use x="214.404297" xlink:href="#DejaVuSans-112"/>
     <use x="277.880859" xlink:href="#DejaVuSans-53"/>
    </g>
   </g>
   <g id="PathCollection_26">
    <defs>
     <path d="M 0 3 
C 0.795609 3 1.55874 2.683901 2.12132 2.12132 
C 2.683901 1.55874 3 0.795609 3 0 
C 3 -0.795609 2.683901 -1.55874 2.12132 -2.12132 
C 1.55874 -2.683901 0.795609 -3 0 -3 
C -0.795609 -3 -1.55874 -2.683901 -2.12132 -2.12132 
C -2.683901 -1.55874 -3 -0.795609 -3 0 
C -3 0.795609 -2.683901 1.55874 -2.12132 2.12132 
C -1.55874 2.683901 -0.795609 3 0 3 
z
" id="m6ca758d279" style="stroke:#bcbd22;"/>
    </defs>
    <g>
     <use style="fill:#bcbd22;stroke:#bcbd22;" x="372.630964" xlink:href="#m6ca758d279" y="190.493437"/>
    </g>
   </g>
   <g id="text_25">
    <!-- Sst -->
    <g transform="translate(390.630964 193.118437)scale(0.1 -0.1)">
     <use xlink:href="#DejaVuSans-83"/>
     <use x="63.476562" xlink:href="#DejaVuSans-115"/>
     <use x="115.576172" xlink:href="#DejaVuSans-116"/>
    </g>
   </g>
   <g id="PathCollection_27">
    <defs>
     <path d="M 0 3 
C 0.795609 3 1.55874 2.683901 2.12132 2.12132 
C 2.683901 1.55874 3 0.795609 3 0 
C 3 -0.795609 2.683901 -1.55874 2.12132 -2.12132 
C 1.55874 -2.683901 0.795609 -3 0 -3 
C -0.795609 -3 -1.55874 -2.683901 -2.12132 -2.12132 
C -2.683901 -1.55874 -3 -0.795609 -3 0 
C -3 0.795609 -2.683901 1.55874 -2.12132 2.12132 
C -1.55874 2.683901 -0.795609 3 0 3 
z
" id="m6361e2af32" style="stroke:#17becf;"/>
    </defs>
    <g>
     <use style="fill:#17becf;stroke:#17becf;" x="372.630964" xlink:href="#m6361e2af32" y="205.171562"/>
    </g>
   </g>
   <g id="text_26">
    <!-- SMC -->
    <g transform="translate(390.630964 207.796562)scale(0.1 -0.1)">
     <use xlink:href="#DejaVuSans-83"/>
     <use x="63.476562" xlink:href="#DejaVuSans-77"/>
     <use x="149.755859" xlink:href="#DejaVuSans-67"/>
    </g>
   </g>
   <g id="text_27">
    <!-- merfish_mouse -->
    <g transform="translate(370.630964 222.474687)scale(0.1 -0.1)">
     <defs>
      <path d="M 54.890625 33.015625 
L 54.890625 0 
L 45.90625 0 
L 45.90625 32.71875 
Q 45.90625 40.484375 42.875 44.328125 
Q 39.84375 48.1875 33.796875 48.1875 
Q 26.515625 48.1875 22.3125 43.546875 
Q 18.109375 38.921875 18.109375 30.90625 
L 18.109375 0 
L 9.078125 0 
L 9.078125 75.984375 
L 18.109375 75.984375 
L 18.109375 46.1875 
Q 21.34375 51.125 25.703125 53.5625 
Q 30.078125 56 35.796875 56 
Q 45.21875 56 50.046875 50.171875 
Q 54.890625 44.34375 54.890625 33.015625 
z
" id="DejaVuSans-104"/>
      <path d="M 50.984375 -16.609375 
L 50.984375 -23.578125 
L -0.984375 -23.578125 
L -0.984375 -16.609375 
z
" id="DejaVuSans-95"/>
      <path d="M 8.5 21.578125 
L 8.5 54.6875 
L 17.484375 54.6875 
L 17.484375 21.921875 
Q 17.484375 14.15625 20.5 10.265625 
Q 23.53125 6.390625 29.59375 6.390625 
Q 36.859375 6.390625 41.078125 11.03125 
Q 45.3125 15.671875 45.3125 23.6875 
L 45.3125 54.6875 
L 54.296875 54.6875 
L 54.296875 0 
L 45.3125 0 
L 45.3125 8.40625 
Q 42.046875 3.421875 37.71875 1 
Q 33.40625 -1.421875 27.6875 -1.421875 
Q 18.265625 -1.421875 13.375 4.4375 
Q 8.5 10.296875 8.5 21.578125 
z
M 31.109375 56 
z
" id="DejaVuSans-117"/>
     </defs>
     <use xlink:href="#DejaVuSans-109"/>
     <use x="97.412109" xlink:href="#DejaVuSans-101"/>
     <use x="158.935547" xlink:href="#DejaVuSans-114"/>
     <use x="200.048828" xlink:href="#DejaVuSans-102"/>
     <use x="235.253906" xlink:href="#DejaVuSans-105"/>
     <use x="263.037109" xlink:href="#DejaVuSans-115"/>
     <use x="315.136719" xlink:href="#DejaVuSans-104"/>
     <use x="378.515625" xlink:href="#DejaVuSans-95"/>
     <use x="428.515625" xlink:href="#DejaVuSans-109"/>
     <use x="525.927734" xlink:href="#DejaVuSans-111"/>
     <use x="587.109375" xlink:href="#DejaVuSans-117"/>
     <use x="650.488281" xlink:href="#DejaVuSans-115"/>
     <use x="702.587891" xlink:href="#DejaVuSans-101"/>
    </g>
   </g>
   <g id="PathCollection_28">
    <defs>
     <path d="M 0 2.12132 
C 0.562581 2.12132 1.102195 1.897805 1.5 1.5 
C 1.897805 1.102195 2.12132 0.562581 2.12132 0 
C 2.12132 -0.562581 1.897805 -1.102195 1.5 -1.5 
C 1.102195 -1.897805 0.562581 -2.12132 0 -2.12132 
C -0.562581 -2.12132 -1.102195 -1.897805 -1.5 -1.5 
C -1.897805 -1.102195 -2.12132 -0.562581 -2.12132 0 
C -2.12132 0.562581 -1.897805 1.102195 -1.5 1.5 
C -1.102195 1.897805 -0.562581 2.12132 0 2.12132 
z
" id="maf53d05b6a" style="stroke:#333333;"/>
    </defs>
    <g>
     <use style="fill:#333333;stroke:#333333;" x="372.630964" xlink:href="#maf53d05b6a" y="234.805937"/>
    </g>
   </g>
   <g id="text_28">
    <!-- 1 -->
    <g transform="translate(390.630964 237.430937)scale(0.1 -0.1)">
     <use xlink:href="#DejaVuSans-49"/>
    </g>
   </g>
   <g id="PathCollection_29">
    <defs>
     <path d="M 0 4.242641 
C 1.125161 4.242641 2.204391 3.795609 3 3 
C 3.795609 2.204391 4.242641 1.125161 4.242641 0 
C 4.242641 -1.125161 3.795609 -2.204391 3 -3 
C 2.204391 -3.795609 1.125161 -4.242641 0 -4.242641 
C -1.125161 -4.242641 -2.204391 -3.795609 -3 -3 
C -3.795609 -2.204391 -4.242641 -1.125161 -4.242641 0 
C -4.242641 1.125161 -3.795609 2.204391 -3 3 
C -2.204391 3.795609 -1.125161 4.242641 0 4.242641 
z
" id="m69ff6bc125" style="stroke:#333333;"/>
    </defs>
    <g>
     <use style="fill:#333333;stroke:#333333;" x="372.630964" xlink:href="#m69ff6bc125" y="249.484062"/>
    </g>
   </g>
   <g id="text_29">
    <!-- 2 -->
    <g transform="translate(390.630964 252.109062)scale(0.1 -0.1)">
     <use xlink:href="#DejaVuSans-50"/>
    </g>
   </g>
   <g id="text_30">
    <!-- readzs_mouse -->
    <g transform="translate(370.630964 266.787187)scale(0.1 -0.1)">
     <use xlink:href="#DejaVuSans-114"/>
     <use x="38.863281" xlink:href="#DejaVuSans-101"/>
     <use x="100.386719" xlink:href="#DejaVuSans-97"/>
     <use x="161.666016" xlink:href="#DejaVuSans-100"/>
     <use x="225.142578" xlink:href="#DejaVuSans-122"/>
     <use x="277.632812" xlink:href="#DejaVuSans-115"/>
     <use x="329.732422" xlink:href="#DejaVuSans-95"/>
     <use x="379.732422" xlink:href="#DejaVuSans-109"/>
     <use x="477.144531" xlink:href="#DejaVuSans-111"/>
     <use x="538.326172" xlink:href="#DejaVuSans-117"/>
     <use x="601.705078" xlink:href="#DejaVuSans-115"/>
     <use x="653.804688" xlink:href="#DejaVuSans-101"/>
    </g>
   </g>
   <g id="PathCollection_30">
    <defs>
     <path d="M 0 3 
C 0.795609 3 1.55874 2.683901 2.12132 2.12132 
C 2.683901 1.55874 3 0.795609 3 0 
C 3 -0.795609 2.683901 -1.55874 2.12132 -2.12132 
C 1.55874 -2.683901 0.795609 -3 0 -3 
C -0.795609 -3 -1.55874 -2.683901 -2.12132 -2.12132 
C -2.683901 -1.55874 -3 -0.795609 -3 0 
C -3 0.795609 -2.683901 1.55874 -2.12132 2.12132 
C -1.55874 2.683901 -0.795609 3 0 3 
z
" id="mdad50fd0ac" style="stroke:#333333;"/>
    </defs>
    <g>
     <use style="fill:#333333;stroke:#333333;" x="372.630964" xlink:href="#mdad50fd0ac" y="279.118437"/>
    </g>
   </g>
   <g id="text_31">
    <!-- 427378 -->
    <g transform="translate(390.630964 281.743437)scale(0.1 -0.1)">
     <defs>
      <path d="M 31.78125 34.625 
Q 24.75 34.625 20.71875 30.859375 
Q 16.703125 27.09375 16.703125 20.515625 
Q 16.703125 13.921875 20.71875 10.15625 
Q 24.75 6.390625 31.78125 6.390625 
Q 38.8125 6.390625 42.859375 10.171875 
Q 46.921875 13.96875 46.921875 20.515625 
Q 46.921875 27.09375 42.890625 30.859375 
Q 38.875 34.625 31.78125 34.625 
z
M 21.921875 38.8125 
Q 15.578125 40.375 12.03125 44.71875 
Q 8.5 49.078125 8.5 55.328125 
Q 8.5 64.0625 14.71875 69.140625 
Q 20.953125 74.21875 31.78125 74.21875 
Q 42.671875 74.21875 48.875 69.140625 
Q 55.078125 64.0625 55.078125 55.328125 
Q 55.078125 49.078125 51.53125 44.71875 
Q 48 40.375 41.703125 38.8125 
Q 48.828125 37.15625 52.796875 32.3125 
Q 56.78125 27.484375 56.78125 20.515625 
Q 56.78125 9.90625 50.3125 4.234375 
Q 43.84375 -1.421875 31.78125 -1.421875 
Q 19.734375 -1.421875 13.25 4.234375 
Q 6.78125 9.90625 6.78125 20.515625 
Q 6.78125 27.484375 10.78125 32.3125 
Q 14.796875 37.15625 21.921875 38.8125 
z
M 18.3125 54.390625 
Q 18.3125 48.734375 21.84375 45.5625 
Q 25.390625 42.390625 31.78125 42.390625 
Q 38.140625 42.390625 41.71875 45.5625 
Q 45.3125 48.734375 45.3125 54.390625 
Q 45.3125 60.0625 41.71875 63.234375 
Q 38.140625 66.40625 31.78125 66.40625 
Q 25.390625 66.40625 21.84375 63.234375 
Q 18.3125 60.0625 18.3125 54.390625 
z
" id="DejaVuSans-56"/>
     </defs>
     <use xlink:href="#DejaVuSans-52"/>
     <use x="63.623047" xlink:href="#DejaVuSans-50"/>
     <use x="127.246094" xlink:href="#DejaVuSans-55"/>
     <use x="190.869141" xlink:href="#DejaVuSans-51"/>
     <use x="254.492188" xlink:href="#DejaVuSans-55"/>
     <use x="318.115234" xlink:href="#DejaVuSans-56"/>
    </g>
   </g>
   <g id="PathCollection_31">
    <defs>
     <path d="M -1.5 3 
L 0 1.5 
L 1.5 3 
L 3 1.5 
L 1.5 0 
L 3 -1.5 
L 1.5 -3 
L 0 -1.5 
L -1.5 -3 
L -3 -1.5 
L -1.5 0 
L -3 1.5 
z
" id="m42b4779f5d" style="stroke:#333333;"/>
    </defs>
    <g>
     <use style="fill:#333333;stroke:#333333;" x="372.630964" xlink:href="#m42b4779f5d" y="293.796562"/>
    </g>
   </g>
   <g id="text_32">
    <!-- 457911 -->
    <g transform="translate(390.630964 296.421562)scale(0.1 -0.1)">
     <defs>
      <path d="M 10.984375 1.515625 
L 10.984375 10.5 
Q 14.703125 8.734375 18.5 7.8125 
Q 22.3125 6.890625 25.984375 6.890625 
Q 35.75 6.890625 40.890625 13.453125 
Q 46.046875 20.015625 46.78125 33.40625 
Q 43.953125 29.203125 39.59375 26.953125 
Q 35.25 24.703125 29.984375 24.703125 
Q 19.046875 24.703125 12.671875 31.3125 
Q 6.296875 37.9375 6.296875 49.421875 
Q 6.296875 60.640625 12.9375 67.421875 
Q 19.578125 74.21875 30.609375 74.21875 
Q 43.265625 74.21875 49.921875 64.515625 
Q 56.59375 54.828125 56.59375 36.375 
Q 56.59375 19.140625 48.40625 8.859375 
Q 40.234375 -1.421875 26.421875 -1.421875 
Q 22.703125 -1.421875 18.890625 -0.6875 
Q 15.09375 0.046875 10.984375 1.515625 
z
M 30.609375 32.421875 
Q 37.25 32.421875 41.125 36.953125 
Q 45.015625 41.5 45.015625 49.421875 
Q 45.015625 57.28125 41.125 61.84375 
Q 37.25 66.40625 30.609375 66.40625 
Q 23.96875 66.40625 20.09375 61.84375 
Q 16.21875 57.28125 16.21875 49.421875 
Q 16.21875 41.5 20.09375 36.953125 
Q 23.96875 32.421875 30.609375 32.421875 
z
" id="DejaVuSans-57"/>
     </defs>
     <use xlink:href="#DejaVuSans-52"/>
     <use x="63.623047" xlink:href="#DejaVuSans-53"/>
     <use x="127.246094" xlink:href="#DejaVuSans-55"/>
     <use x="190.869141" xlink:href="#DejaVuSans-57"/>
     <use x="254.492188" xlink:href="#DejaVuSans-49"/>
     <use x="318.115234" xlink:href="#DejaVuSans-49"/>
    </g>
   </g>
   <g id="PathCollection_32">
    <defs>
     <path d="M -2.12132 -2.12132 
L -2.12132 2.12132 
L 2.12132 2.12132 
L 2.12132 -2.12132 
z
" id="m12255c24ac" style="stroke:#333333;"/>
    </defs>
    <g>
     <use style="fill:#333333;stroke:#333333;" x="372.630964" xlink:href="#m12255c24ac" y="308.474687"/>
    </g>
   </g>
   <g id="text_33">
    <!-- 426003 -->
    <g transform="translate(390.630964 311.099687)scale(0.1 -0.1)">
     <use xlink:href="#DejaVuSans-52"/>
     <use x="63.623047" xlink:href="#DejaVuSans-50"/>
     <use x="127.246094" xlink:href="#DejaVuSans-54"/>
     <use x="190.869141" xlink:href="#DejaVuSans-48"/>
     <use x="254.492188" xlink:href="#DejaVuSans-48"/>
     <use x="318.115234" xlink:href="#DejaVuSans-51"/>
    </g>
   </g>
   <g id="PathCollection_33">
    <defs>
     <path d="M -1 3 
L 1 3 
L 1 1 
L 3 1 
L 3 -1 
L 1 -1 
L 1 -3 
L -1 -3 
L -1 -1 
L -3 -1 
L -3 1 
L -1 1 
z
" id="m978c0a21ae" style="stroke:#333333;"/>
    </defs>
    <g>
     <use style="fill:#333333;stroke:#333333;" x="372.630964" xlink:href="#m978c0a21ae" y="323.152812"/>
    </g>
   </g>
   <g id="text_34">
    <!-- 457909 -->
    <g transform="translate(390.630964 325.777812)scale(0.1 -0.1)">
     <use xlink:href="#DejaVuSans-52"/>
     <use x="63.623047" xlink:href="#DejaVuSans-53"/>
     <use x="127.246094" xlink:href="#DejaVuSans-55"/>
     <use x="190.869141" xlink:href="#DejaVuSans-57"/>
     <use x="254.492188" xlink:href="#DejaVuSans-48"/>
     <use x="318.115234" xlink:href="#DejaVuSans-57"/>
    </g>
   </g>
  </g>
 </g>
 <defs>
  <clipPath id="p82cb78ddd8">
   <rect height="321.4" width="313.160339" x="43.78125" y="22.318125"/>
  </clipPath>
 </defs>
</svg>
