<?xml version="1.0" encoding="utf-8" standalone="no"?>
<!DOCTYPE svg PUBLIC "-//W3C//DTD SVG 1.1//EN"
  "http://www.w3.org/Graphics/SVG/1.1/DTD/svg11.dtd">
<!-- Created with matplotlib (https://matplotlib.org/) -->
<svg height="288pt" version="1.1" viewBox="0 0 432 288" width="432pt" xmlns="http://www.w3.org/2000/svg" xmlns:xlink="http://www.w3.org/1999/xlink">
 <metadata>
  <rdf:RDF xmlns:cc="http://creativecommons.org/ns#" xmlns:dc="http://purl.org/dc/elements/1.1/" xmlns:rdf="http://www.w3.org/1999/02/22-rdf-syntax-ns#">
   <cc:Work>
    <dc:type rdf:resource="http://purl.org/dc/dcmitype/StillImage"/>
    <dc:date>2022-03-11T11:24:31.594479</dc:date>
    <dc:format>image/svg+xml</dc:format>
    <dc:creator>
     <cc:Agent>
      <dc:title>Matplotlib v3.3.3, https://matplotlib.org/</dc:title>
     </cc:Agent>
    </dc:creator>
   </cc:Work>
  </rdf:RDF>
 </metadata>
 <defs>
  <style type="text/css">*{stroke-linecap:butt;stroke-linejoin:round;}</style>
 </defs>
 <g id="figure_1">
  <g id="patch_1">
   <path d="M 0 288 
L 432 288 
L 432 0 
L 0 0 
z
" style="fill:none;"/>
  </g>
  <g id="axes_1">
   <g id="patch_2">
    <path d="M 51.675 246.2 
L 321.71 246.2 
L 321.71 26.8 
L 51.675 26.8 
z
" style="fill:#ffffff;"/>
   </g>
   <g id="patch_3">
    <path clip-path="url(#p6d4dc92df8)" d="M 107.577027 33.780909 
L 107.577027 39.764545 
L 172.765704 39.764545 
L 172.765704 33.780909 
L 107.577027 33.780909 
z
" style="fill:#dee9f3;stroke:#8b8b8b;stroke-linejoin:miter;stroke-width:1.5;"/>
   </g>
   <g id="patch_4">
    <path clip-path="url(#p6d4dc92df8)" d="M 160.630446 53.726364 
L 160.630446 59.71 
L 206.954461 59.71 
L 206.954461 53.726364 
L 160.630446 53.726364 
z
" style="fill:#dee9f3;stroke:#8b8b8b;stroke-linejoin:miter;stroke-width:1.5;"/>
   </g>
   <g id="patch_5">
    <path clip-path="url(#p6d4dc92df8)" d="M 177.912135 73.671818 
L 177.912135 79.655455 
L 214.122413 79.655455 
L 214.122413 73.671818 
L 177.912135 73.671818 
z
" style="fill:#dee9f3;stroke:#8b8b8b;stroke-linejoin:miter;stroke-width:1.5;"/>
   </g>
   <g id="patch_6">
    <path clip-path="url(#p6d4dc92df8)" d="M 177.41621 93.617273 
L 177.41621 99.600909 
L 229.070843 99.600909 
L 229.070843 93.617273 
L 177.41621 93.617273 
z
" style="fill:#dee9f3;stroke:#8b8b8b;stroke-linejoin:miter;stroke-width:1.5;"/>
   </g>
   <g id="patch_7">
    <path clip-path="url(#p6d4dc92df8)" d="M 188.032408 113.562727 
L 188.032408 119.546364 
L 228.656638 119.546364 
L 228.656638 113.562727 
L 188.032408 113.562727 
z
" style="fill:#dee9f3;stroke:#8b8b8b;stroke-linejoin:miter;stroke-width:1.5;"/>
   </g>
   <g id="patch_8">
    <path clip-path="url(#p6d4dc92df8)" d="M 194.008472 133.508182 
L 194.008472 139.491818 
L 210.300952 139.491818 
L 210.300952 133.508182 
L 194.008472 133.508182 
z
" style="fill:#dee9f3;stroke:#8b8b8b;stroke-linejoin:miter;stroke-width:1.5;"/>
   </g>
   <g id="patch_9">
    <path clip-path="url(#p6d4dc92df8)" d="M 213.721851 153.453636 
L 213.721851 159.437273 
L 227.776518 159.437273 
L 227.776518 153.453636 
L 213.721851 153.453636 
z
" style="fill:#dee9f3;stroke:#8b8b8b;stroke-linejoin:miter;stroke-width:1.5;"/>
   </g>
   <g id="patch_10">
    <path clip-path="url(#p6d4dc92df8)" d="M 219.150359 173.399091 
L 219.150359 179.382727 
L 249.065591 179.382727 
L 249.065591 173.399091 
L 219.150359 173.399091 
z
" style="fill:#dee9f3;stroke:#8b8b8b;stroke-linejoin:miter;stroke-width:1.5;"/>
   </g>
   <g id="patch_11">
    <path clip-path="url(#p6d4dc92df8)" d="M 217.194937 193.344545 
L 217.194937 199.328182 
L 254.494348 199.328182 
L 254.494348 193.344545 
L 217.194937 193.344545 
z
" style="fill:#dee9f3;stroke:#8b8b8b;stroke-linejoin:miter;stroke-width:1.5;"/>
   </g>
   <g id="patch_12">
    <path clip-path="url(#p6d4dc92df8)" d="M 244.123789 213.29 
L 244.123789 219.273636 
L 283.547832 219.273636 
L 283.547832 213.29 
L 244.123789 213.29 
z
" style="fill:#dee9f3;stroke:#8b8b8b;stroke-linejoin:miter;stroke-width:1.5;"/>
   </g>
   <g id="patch_13">
    <path clip-path="url(#p6d4dc92df8)" d="M 263.729328 233.235455 
L 263.729328 239.219091 
L 294.302524 239.219091 
L 294.302524 233.235455 
L 263.729328 233.235455 
z
" style="fill:#dee9f3;stroke:#8b8b8b;stroke-linejoin:miter;stroke-width:1.5;"/>
   </g>
   <g id="PathCollection_1"/>
   <g id="PathCollection_2"/>
   <g id="PathCollection_3"/>
   <g id="PathCollection_4"/>
   <g id="PathCollection_5"/>
   <g id="PathCollection_6"/>
   <g id="patch_14">
    <path clip-path="url(#p6d4dc92df8)" d="M 223.344839 246.2 
L 223.344839 26.8 
L 309.435682 26.8 
L 309.435682 246.2 
z
" style="fill:#808080;opacity:0.5;"/>
   </g>
   <g id="matplotlib.axis_1">
    <g id="xtick_1">
     <g id="text_1">
      <!-- −6 -->
      <g transform="translate(82.082592 260.798437)scale(0.1 -0.1)">
       <defs>
        <path d="M 10.59375 35.5 
L 73.1875 35.5 
L 73.1875 27.203125 
L 10.59375 27.203125 
z
" id="DejaVuSans-8722"/>
        <path d="M 33.015625 40.375 
Q 26.375 40.375 22.484375 35.828125 
Q 18.609375 31.296875 18.609375 23.390625 
Q 18.609375 15.53125 22.484375 10.953125 
Q 26.375 6.390625 33.015625 6.390625 
Q 39.65625 6.390625 43.53125 10.953125 
Q 47.40625 15.53125 47.40625 23.390625 
Q 47.40625 31.296875 43.53125 35.828125 
Q 39.65625 40.375 33.015625 40.375 
z
M 52.59375 71.296875 
L 52.59375 62.3125 
Q 48.875 64.0625 45.09375 64.984375 
Q 41.3125 65.921875 37.59375 65.921875 
Q 27.828125 65.921875 22.671875 59.328125 
Q 17.53125 52.734375 16.796875 39.40625 
Q 19.671875 43.65625 24.015625 45.921875 
Q 28.375 48.1875 33.59375 48.1875 
Q 44.578125 48.1875 50.953125 41.515625 
Q 57.328125 34.859375 57.328125 23.390625 
Q 57.328125 12.15625 50.6875 5.359375 
Q 44.046875 -1.421875 33.015625 -1.421875 
Q 20.359375 -1.421875 13.671875 8.265625 
Q 6.984375 17.96875 6.984375 36.375 
Q 6.984375 53.65625 15.1875 63.9375 
Q 23.390625 74.21875 37.203125 74.21875 
Q 40.921875 74.21875 44.703125 73.484375 
Q 48.484375 72.75 52.59375 71.296875 
z
" id="DejaVuSans-54"/>
       </defs>
       <use xlink:href="#DejaVuSans-8722"/>
       <use x="83.789062" xlink:href="#DejaVuSans-54"/>
      </g>
     </g>
    </g>
    <g id="xtick_2">
     <g id="text_2">
      <!-- −4 -->
      <g transform="translate(126.712977 260.798437)scale(0.1 -0.1)">
       <defs>
        <path d="M 37.796875 64.3125 
L 12.890625 25.390625 
L 37.796875 25.390625 
z
M 35.203125 72.90625 
L 47.609375 72.90625 
L 47.609375 25.390625 
L 58.015625 25.390625 
L 58.015625 17.1875 
L 47.609375 17.1875 
L 47.609375 0 
L 37.796875 0 
L 37.796875 17.1875 
L 4.890625 17.1875 
L 4.890625 26.703125 
z
" id="DejaVuSans-52"/>
       </defs>
       <use xlink:href="#DejaVuSans-8722"/>
       <use x="83.789062" xlink:href="#DejaVuSans-52"/>
      </g>
     </g>
    </g>
    <g id="xtick_3">
     <g id="text_3">
      <!-- −2 -->
      <g transform="translate(171.343361 260.798437)scale(0.1 -0.1)">
       <defs>
        <path d="M 19.1875 8.296875 
L 53.609375 8.296875 
L 53.609375 0 
L 7.328125 0 
L 7.328125 8.296875 
Q 12.9375 14.109375 22.625 23.890625 
Q 32.328125 33.6875 34.8125 36.53125 
Q 39.546875 41.84375 41.421875 45.53125 
Q 43.3125 49.21875 43.3125 52.78125 
Q 43.3125 58.59375 39.234375 62.25 
Q 35.15625 65.921875 28.609375 65.921875 
Q 23.96875 65.921875 18.8125 64.3125 
Q 13.671875 62.703125 7.8125 59.421875 
L 7.8125 69.390625 
Q 13.765625 71.78125 18.9375 73 
Q 24.125 74.21875 28.421875 74.21875 
Q 39.75 74.21875 46.484375 68.546875 
Q 53.21875 62.890625 53.21875 53.421875 
Q 53.21875 48.921875 51.53125 44.890625 
Q 49.859375 40.875 45.40625 35.40625 
Q 44.1875 33.984375 37.640625 27.21875 
Q 31.109375 20.453125 19.1875 8.296875 
z
" id="DejaVuSans-50"/>
       </defs>
       <use xlink:href="#DejaVuSans-8722"/>
       <use x="83.789062" xlink:href="#DejaVuSans-50"/>
      </g>
     </g>
    </g>
    <g id="xtick_4">
     <g id="text_4">
      <!-- 0 -->
      <g transform="translate(220.163589 260.798437)scale(0.1 -0.1)">
       <defs>
        <path d="M 31.78125 66.40625 
Q 24.171875 66.40625 20.328125 58.90625 
Q 16.5 51.421875 16.5 36.375 
Q 16.5 21.390625 20.328125 13.890625 
Q 24.171875 6.390625 31.78125 6.390625 
Q 39.453125 6.390625 43.28125 13.890625 
Q 47.125 21.390625 47.125 36.375 
Q 47.125 51.421875 43.28125 58.90625 
Q 39.453125 66.40625 31.78125 66.40625 
z
M 31.78125 74.21875 
Q 44.046875 74.21875 50.515625 64.515625 
Q 56.984375 54.828125 56.984375 36.375 
Q 56.984375 17.96875 50.515625 8.265625 
Q 44.046875 -1.421875 31.78125 -1.421875 
Q 19.53125 -1.421875 13.0625 8.265625 
Q 6.59375 17.96875 6.59375 36.375 
Q 6.59375 54.828125 13.0625 64.515625 
Q 19.53125 74.21875 31.78125 74.21875 
z
" id="DejaVuSans-48"/>
       </defs>
       <use xlink:href="#DejaVuSans-48"/>
      </g>
     </g>
    </g>
    <g id="xtick_5">
     <g id="text_5">
      <!-- 2 -->
      <g transform="translate(264.793974 260.798437)scale(0.1 -0.1)">
       <use xlink:href="#DejaVuSans-50"/>
      </g>
     </g>
    </g>
    <g id="xtick_6">
     <g id="text_6">
      <!-- 4 -->
      <g transform="translate(309.424358 260.798437)scale(0.1 -0.1)">
       <use xlink:href="#DejaVuSans-52"/>
      </g>
     </g>
    </g>
    <g id="text_7">
     <!-- Z score per sample/ontology -->
     <g transform="translate(115.068281 274.476562)scale(0.1 -0.1)">
      <defs>
       <path d="M 5.609375 72.90625 
L 62.890625 72.90625 
L 62.890625 65.375 
L 16.796875 8.296875 
L 64.015625 8.296875 
L 64.015625 0 
L 4.5 0 
L 4.5 7.515625 
L 50.59375 64.59375 
L 5.609375 64.59375 
z
" id="DejaVuSans-90"/>
       <path id="DejaVuSans-32"/>
       <path d="M 44.28125 53.078125 
L 44.28125 44.578125 
Q 40.484375 46.53125 36.375 47.5 
Q 32.28125 48.484375 27.875 48.484375 
Q 21.1875 48.484375 17.84375 46.4375 
Q 14.5 44.390625 14.5 40.28125 
Q 14.5 37.15625 16.890625 35.375 
Q 19.28125 33.59375 26.515625 31.984375 
L 29.59375 31.296875 
Q 39.15625 29.25 43.1875 25.515625 
Q 47.21875 21.78125 47.21875 15.09375 
Q 47.21875 7.46875 41.1875 3.015625 
Q 35.15625 -1.421875 24.609375 -1.421875 
Q 20.21875 -1.421875 15.453125 -0.5625 
Q 10.6875 0.296875 5.421875 2 
L 5.421875 11.28125 
Q 10.40625 8.6875 15.234375 7.390625 
Q 20.0625 6.109375 24.8125 6.109375 
Q 31.15625 6.109375 34.5625 8.28125 
Q 37.984375 10.453125 37.984375 14.40625 
Q 37.984375 18.0625 35.515625 20.015625 
Q 33.0625 21.96875 24.703125 23.78125 
L 21.578125 24.515625 
Q 13.234375 26.265625 9.515625 29.90625 
Q 5.8125 33.546875 5.8125 39.890625 
Q 5.8125 47.609375 11.28125 51.796875 
Q 16.75 56 26.8125 56 
Q 31.78125 56 36.171875 55.265625 
Q 40.578125 54.546875 44.28125 53.078125 
z
" id="DejaVuSans-115"/>
       <path d="M 48.78125 52.59375 
L 48.78125 44.1875 
Q 44.96875 46.296875 41.140625 47.34375 
Q 37.3125 48.390625 33.40625 48.390625 
Q 24.65625 48.390625 19.8125 42.84375 
Q 14.984375 37.3125 14.984375 27.296875 
Q 14.984375 17.28125 19.8125 11.734375 
Q 24.65625 6.203125 33.40625 6.203125 
Q 37.3125 6.203125 41.140625 7.25 
Q 44.96875 8.296875 48.78125 10.40625 
L 48.78125 2.09375 
Q 45.015625 0.34375 40.984375 -0.53125 
Q 36.96875 -1.421875 32.421875 -1.421875 
Q 20.0625 -1.421875 12.78125 6.34375 
Q 5.515625 14.109375 5.515625 27.296875 
Q 5.515625 40.671875 12.859375 48.328125 
Q 20.21875 56 33.015625 56 
Q 37.15625 56 41.109375 55.140625 
Q 45.0625 54.296875 48.78125 52.59375 
z
" id="DejaVuSans-99"/>
       <path d="M 30.609375 48.390625 
Q 23.390625 48.390625 19.1875 42.75 
Q 14.984375 37.109375 14.984375 27.296875 
Q 14.984375 17.484375 19.15625 11.84375 
Q 23.34375 6.203125 30.609375 6.203125 
Q 37.796875 6.203125 41.984375 11.859375 
Q 46.1875 17.53125 46.1875 27.296875 
Q 46.1875 37.015625 41.984375 42.703125 
Q 37.796875 48.390625 30.609375 48.390625 
z
M 30.609375 56 
Q 42.328125 56 49.015625 48.375 
Q 55.71875 40.765625 55.71875 27.296875 
Q 55.71875 13.875 49.015625 6.21875 
Q 42.328125 -1.421875 30.609375 -1.421875 
Q 18.84375 -1.421875 12.171875 6.21875 
Q 5.515625 13.875 5.515625 27.296875 
Q 5.515625 40.765625 12.171875 48.375 
Q 18.84375 56 30.609375 56 
z
" id="DejaVuSans-111"/>
       <path d="M 41.109375 46.296875 
Q 39.59375 47.171875 37.8125 47.578125 
Q 36.03125 48 33.890625 48 
Q 26.265625 48 22.1875 43.046875 
Q 18.109375 38.09375 18.109375 28.8125 
L 18.109375 0 
L 9.078125 0 
L 9.078125 54.6875 
L 18.109375 54.6875 
L 18.109375 46.1875 
Q 20.953125 51.171875 25.484375 53.578125 
Q 30.03125 56 36.53125 56 
Q 37.453125 56 38.578125 55.875 
Q 39.703125 55.765625 41.0625 55.515625 
z
" id="DejaVuSans-114"/>
       <path d="M 56.203125 29.59375 
L 56.203125 25.203125 
L 14.890625 25.203125 
Q 15.484375 15.921875 20.484375 11.0625 
Q 25.484375 6.203125 34.421875 6.203125 
Q 39.59375 6.203125 44.453125 7.46875 
Q 49.3125 8.734375 54.109375 11.28125 
L 54.109375 2.78125 
Q 49.265625 0.734375 44.1875 -0.34375 
Q 39.109375 -1.421875 33.890625 -1.421875 
Q 20.796875 -1.421875 13.15625 6.1875 
Q 5.515625 13.8125 5.515625 26.8125 
Q 5.515625 40.234375 12.765625 48.109375 
Q 20.015625 56 32.328125 56 
Q 43.359375 56 49.78125 48.890625 
Q 56.203125 41.796875 56.203125 29.59375 
z
M 47.21875 32.234375 
Q 47.125 39.59375 43.09375 43.984375 
Q 39.0625 48.390625 32.421875 48.390625 
Q 24.90625 48.390625 20.390625 44.140625 
Q 15.875 39.890625 15.1875 32.171875 
z
" id="DejaVuSans-101"/>
       <path d="M 18.109375 8.203125 
L 18.109375 -20.796875 
L 9.078125 -20.796875 
L 9.078125 54.6875 
L 18.109375 54.6875 
L 18.109375 46.390625 
Q 20.953125 51.265625 25.265625 53.625 
Q 29.59375 56 35.59375 56 
Q 45.5625 56 51.78125 48.09375 
Q 58.015625 40.1875 58.015625 27.296875 
Q 58.015625 14.40625 51.78125 6.484375 
Q 45.5625 -1.421875 35.59375 -1.421875 
Q 29.59375 -1.421875 25.265625 0.953125 
Q 20.953125 3.328125 18.109375 8.203125 
z
M 48.6875 27.296875 
Q 48.6875 37.203125 44.609375 42.84375 
Q 40.53125 48.484375 33.40625 48.484375 
Q 26.265625 48.484375 22.1875 42.84375 
Q 18.109375 37.203125 18.109375 27.296875 
Q 18.109375 17.390625 22.1875 11.75 
Q 26.265625 6.109375 33.40625 6.109375 
Q 40.53125 6.109375 44.609375 11.75 
Q 48.6875 17.390625 48.6875 27.296875 
z
" id="DejaVuSans-112"/>
       <path d="M 34.28125 27.484375 
Q 23.390625 27.484375 19.1875 25 
Q 14.984375 22.515625 14.984375 16.5 
Q 14.984375 11.71875 18.140625 8.90625 
Q 21.296875 6.109375 26.703125 6.109375 
Q 34.1875 6.109375 38.703125 11.40625 
Q 43.21875 16.703125 43.21875 25.484375 
L 43.21875 27.484375 
z
M 52.203125 31.203125 
L 52.203125 0 
L 43.21875 0 
L 43.21875 8.296875 
Q 40.140625 3.328125 35.546875 0.953125 
Q 30.953125 -1.421875 24.3125 -1.421875 
Q 15.921875 -1.421875 10.953125 3.296875 
Q 6 8.015625 6 15.921875 
Q 6 25.140625 12.171875 29.828125 
Q 18.359375 34.515625 30.609375 34.515625 
L 43.21875 34.515625 
L 43.21875 35.40625 
Q 43.21875 41.609375 39.140625 45 
Q 35.0625 48.390625 27.6875 48.390625 
Q 23 48.390625 18.546875 47.265625 
Q 14.109375 46.140625 10.015625 43.890625 
L 10.015625 52.203125 
Q 14.9375 54.109375 19.578125 55.046875 
Q 24.21875 56 28.609375 56 
Q 40.484375 56 46.34375 49.84375 
Q 52.203125 43.703125 52.203125 31.203125 
z
" id="DejaVuSans-97"/>
       <path d="M 52 44.1875 
Q 55.375 50.25 60.0625 53.125 
Q 64.75 56 71.09375 56 
Q 79.640625 56 84.28125 50.015625 
Q 88.921875 44.046875 88.921875 33.015625 
L 88.921875 0 
L 79.890625 0 
L 79.890625 32.71875 
Q 79.890625 40.578125 77.09375 44.375 
Q 74.3125 48.1875 68.609375 48.1875 
Q 61.625 48.1875 57.5625 43.546875 
Q 53.515625 38.921875 53.515625 30.90625 
L 53.515625 0 
L 44.484375 0 
L 44.484375 32.71875 
Q 44.484375 40.625 41.703125 44.40625 
Q 38.921875 48.1875 33.109375 48.1875 
Q 26.21875 48.1875 22.15625 43.53125 
Q 18.109375 38.875 18.109375 30.90625 
L 18.109375 0 
L 9.078125 0 
L 9.078125 54.6875 
L 18.109375 54.6875 
L 18.109375 46.1875 
Q 21.1875 51.21875 25.484375 53.609375 
Q 29.78125 56 35.6875 56 
Q 41.65625 56 45.828125 52.96875 
Q 50 49.953125 52 44.1875 
z
" id="DejaVuSans-109"/>
       <path d="M 9.421875 75.984375 
L 18.40625 75.984375 
L 18.40625 0 
L 9.421875 0 
z
" id="DejaVuSans-108"/>
       <path d="M 25.390625 72.90625 
L 33.6875 72.90625 
L 8.296875 -9.28125 
L 0 -9.28125 
z
" id="DejaVuSans-47"/>
       <path d="M 54.890625 33.015625 
L 54.890625 0 
L 45.90625 0 
L 45.90625 32.71875 
Q 45.90625 40.484375 42.875 44.328125 
Q 39.84375 48.1875 33.796875 48.1875 
Q 26.515625 48.1875 22.3125 43.546875 
Q 18.109375 38.921875 18.109375 30.90625 
L 18.109375 0 
L 9.078125 0 
L 9.078125 54.6875 
L 18.109375 54.6875 
L 18.109375 46.1875 
Q 21.34375 51.125 25.703125 53.5625 
Q 30.078125 56 35.796875 56 
Q 45.21875 56 50.046875 50.171875 
Q 54.890625 44.34375 54.890625 33.015625 
z
" id="DejaVuSans-110"/>
       <path d="M 18.3125 70.21875 
L 18.3125 54.6875 
L 36.8125 54.6875 
L 36.8125 47.703125 
L 18.3125 47.703125 
L 18.3125 18.015625 
Q 18.3125 11.328125 20.140625 9.421875 
Q 21.96875 7.515625 27.59375 7.515625 
L 36.8125 7.515625 
L 36.8125 0 
L 27.59375 0 
Q 17.1875 0 13.234375 3.875 
Q 9.28125 7.765625 9.28125 18.015625 
L 9.28125 47.703125 
L 2.6875 47.703125 
L 2.6875 54.6875 
L 9.28125 54.6875 
L 9.28125 70.21875 
z
" id="DejaVuSans-116"/>
       <path d="M 45.40625 27.984375 
Q 45.40625 37.75 41.375 43.109375 
Q 37.359375 48.484375 30.078125 48.484375 
Q 22.859375 48.484375 18.828125 43.109375 
Q 14.796875 37.75 14.796875 27.984375 
Q 14.796875 18.265625 18.828125 12.890625 
Q 22.859375 7.515625 30.078125 7.515625 
Q 37.359375 7.515625 41.375 12.890625 
Q 45.40625 18.265625 45.40625 27.984375 
z
M 54.390625 6.78125 
Q 54.390625 -7.171875 48.1875 -13.984375 
Q 42 -20.796875 29.203125 -20.796875 
Q 24.46875 -20.796875 20.265625 -20.09375 
Q 16.0625 -19.390625 12.109375 -17.921875 
L 12.109375 -9.1875 
Q 16.0625 -11.328125 19.921875 -12.34375 
Q 23.78125 -13.375 27.78125 -13.375 
Q 36.625 -13.375 41.015625 -8.765625 
Q 45.40625 -4.15625 45.40625 5.171875 
L 45.40625 9.625 
Q 42.625 4.78125 38.28125 2.390625 
Q 33.9375 0 27.875 0 
Q 17.828125 0 11.671875 7.65625 
Q 5.515625 15.328125 5.515625 27.984375 
Q 5.515625 40.671875 11.671875 48.328125 
Q 17.828125 56 27.875 56 
Q 33.9375 56 38.28125 53.609375 
Q 42.625 51.21875 45.40625 46.390625 
L 45.40625 54.6875 
L 54.390625 54.6875 
z
" id="DejaVuSans-103"/>
       <path d="M 32.171875 -5.078125 
Q 28.375 -14.84375 24.75 -17.8125 
Q 21.140625 -20.796875 15.09375 -20.796875 
L 7.90625 -20.796875 
L 7.90625 -13.28125 
L 13.1875 -13.28125 
Q 16.890625 -13.28125 18.9375 -11.515625 
Q 21 -9.765625 23.484375 -3.21875 
L 25.09375 0.875 
L 2.984375 54.6875 
L 12.5 54.6875 
L 29.59375 11.921875 
L 46.6875 54.6875 
L 56.203125 54.6875 
z
" id="DejaVuSans-121"/>
      </defs>
      <use xlink:href="#DejaVuSans-90"/>
      <use x="68.505859" xlink:href="#DejaVuSans-32"/>
      <use x="100.292969" xlink:href="#DejaVuSans-115"/>
      <use x="152.392578" xlink:href="#DejaVuSans-99"/>
      <use x="207.373047" xlink:href="#DejaVuSans-111"/>
      <use x="268.554688" xlink:href="#DejaVuSans-114"/>
      <use x="307.417969" xlink:href="#DejaVuSans-101"/>
      <use x="368.941406" xlink:href="#DejaVuSans-32"/>
      <use x="400.728516" xlink:href="#DejaVuSans-112"/>
      <use x="464.205078" xlink:href="#DejaVuSans-101"/>
      <use x="525.728516" xlink:href="#DejaVuSans-114"/>
      <use x="566.841797" xlink:href="#DejaVuSans-32"/>
      <use x="598.628906" xlink:href="#DejaVuSans-115"/>
      <use x="650.728516" xlink:href="#DejaVuSans-97"/>
      <use x="712.007812" xlink:href="#DejaVuSans-109"/>
      <use x="809.419922" xlink:href="#DejaVuSans-112"/>
      <use x="872.896484" xlink:href="#DejaVuSans-108"/>
      <use x="900.679688" xlink:href="#DejaVuSans-101"/>
      <use x="962.203125" xlink:href="#DejaVuSans-47"/>
      <use x="995.894531" xlink:href="#DejaVuSans-111"/>
      <use x="1057.076172" xlink:href="#DejaVuSans-110"/>
      <use x="1120.455078" xlink:href="#DejaVuSans-116"/>
      <use x="1159.664062" xlink:href="#DejaVuSans-111"/>
      <use x="1220.845703" xlink:href="#DejaVuSans-108"/>
      <use x="1248.628906" xlink:href="#DejaVuSans-111"/>
      <use x="1309.810547" xlink:href="#DejaVuSans-103"/>
      <use x="1373.287109" xlink:href="#DejaVuSans-121"/>
     </g>
    </g>
   </g>
   <g id="matplotlib.axis_2">
    <g id="ytick_1">
     <g id="text_8">
      <!-- L5 ET -->
      <g transform="translate(17.135938 40.571946)scale(0.1 -0.1)">
       <defs>
        <path d="M 9.8125 72.90625 
L 19.671875 72.90625 
L 19.671875 8.296875 
L 55.171875 8.296875 
L 55.171875 0 
L 9.8125 0 
z
" id="DejaVuSans-76"/>
        <path d="M 10.796875 72.90625 
L 49.515625 72.90625 
L 49.515625 64.59375 
L 19.828125 64.59375 
L 19.828125 46.734375 
Q 21.96875 47.46875 24.109375 47.828125 
Q 26.265625 48.1875 28.421875 48.1875 
Q 40.625 48.1875 47.75 41.5 
Q 54.890625 34.8125 54.890625 23.390625 
Q 54.890625 11.625 47.5625 5.09375 
Q 40.234375 -1.421875 26.90625 -1.421875 
Q 22.3125 -1.421875 17.546875 -0.640625 
Q 12.796875 0.140625 7.71875 1.703125 
L 7.71875 11.625 
Q 12.109375 9.234375 16.796875 8.0625 
Q 21.484375 6.890625 26.703125 6.890625 
Q 35.15625 6.890625 40.078125 11.328125 
Q 45.015625 15.765625 45.015625 23.390625 
Q 45.015625 31 40.078125 35.4375 
Q 35.15625 39.890625 26.703125 39.890625 
Q 22.75 39.890625 18.8125 39.015625 
Q 14.890625 38.140625 10.796875 36.28125 
z
" id="DejaVuSans-53"/>
        <path d="M 9.8125 72.90625 
L 55.90625 72.90625 
L 55.90625 64.59375 
L 19.671875 64.59375 
L 19.671875 43.015625 
L 54.390625 43.015625 
L 54.390625 34.71875 
L 19.671875 34.71875 
L 19.671875 8.296875 
L 56.78125 8.296875 
L 56.78125 0 
L 9.8125 0 
z
" id="DejaVuSans-69"/>
        <path d="M -0.296875 72.90625 
L 61.375 72.90625 
L 61.375 64.59375 
L 35.5 64.59375 
L 35.5 0 
L 25.59375 0 
L 25.59375 64.59375 
L -0.296875 64.59375 
z
" id="DejaVuSans-84"/>
       </defs>
       <use xlink:href="#DejaVuSans-76"/>
       <use x="55.712891" xlink:href="#DejaVuSans-53"/>
       <use x="119.335938" xlink:href="#DejaVuSans-32"/>
       <use x="151.123047" xlink:href="#DejaVuSans-69"/>
       <use x="214.306641" xlink:href="#DejaVuSans-84"/>
      </g>
     </g>
    </g>
    <g id="ytick_2">
     <g id="text_9">
      <!-- Vip -->
      <g transform="translate(28.932813 60.517401)scale(0.1 -0.1)">
       <defs>
        <path d="M 28.609375 0 
L 0.78125 72.90625 
L 11.078125 72.90625 
L 34.1875 11.53125 
L 57.328125 72.90625 
L 67.578125 72.90625 
L 39.796875 0 
z
" id="DejaVuSans-86"/>
        <path d="M 9.421875 54.6875 
L 18.40625 54.6875 
L 18.40625 0 
L 9.421875 0 
z
M 9.421875 75.984375 
L 18.40625 75.984375 
L 18.40625 64.59375 
L 9.421875 64.59375 
z
" id="DejaVuSans-105"/>
       </defs>
       <use xlink:href="#DejaVuSans-86"/>
       <use x="66.158203" xlink:href="#DejaVuSans-105"/>
       <use x="93.941406" xlink:href="#DejaVuSans-112"/>
      </g>
     </g>
    </g>
    <g id="ytick_3">
     <g id="text_10">
      <!-- Lamp5 -->
      <g transform="translate(10.523438 80.462855)scale(0.1 -0.1)">
       <use xlink:href="#DejaVuSans-76"/>
       <use x="55.712891" xlink:href="#DejaVuSans-97"/>
       <use x="116.992188" xlink:href="#DejaVuSans-109"/>
       <use x="214.404297" xlink:href="#DejaVuSans-112"/>
       <use x="277.880859" xlink:href="#DejaVuSans-53"/>
      </g>
     </g>
    </g>
    <g id="ytick_4">
     <g id="text_11">
      <!-- Oligo -->
      <g transform="translate(18.779688 100.40831)scale(0.1 -0.1)">
       <defs>
        <path d="M 39.40625 66.21875 
Q 28.65625 66.21875 22.328125 58.203125 
Q 16.015625 50.203125 16.015625 36.375 
Q 16.015625 22.609375 22.328125 14.59375 
Q 28.65625 6.59375 39.40625 6.59375 
Q 50.140625 6.59375 56.421875 14.59375 
Q 62.703125 22.609375 62.703125 36.375 
Q 62.703125 50.203125 56.421875 58.203125 
Q 50.140625 66.21875 39.40625 66.21875 
z
M 39.40625 74.21875 
Q 54.734375 74.21875 63.90625 63.9375 
Q 73.09375 53.65625 73.09375 36.375 
Q 73.09375 19.140625 63.90625 8.859375 
Q 54.734375 -1.421875 39.40625 -1.421875 
Q 24.03125 -1.421875 14.8125 8.828125 
Q 5.609375 19.09375 5.609375 36.375 
Q 5.609375 53.65625 14.8125 63.9375 
Q 24.03125 74.21875 39.40625 74.21875 
z
" id="DejaVuSans-79"/>
       </defs>
       <use xlink:href="#DejaVuSans-79"/>
       <use x="78.710938" xlink:href="#DejaVuSans-108"/>
       <use x="106.494141" xlink:href="#DejaVuSans-105"/>
       <use x="134.277344" xlink:href="#DejaVuSans-103"/>
       <use x="197.753906" xlink:href="#DejaVuSans-111"/>
      </g>
     </g>
    </g>
    <g id="ytick_5">
     <g id="text_12">
      <!-- L6 CT -->
      <g transform="translate(16.471875 120.353764)scale(0.1 -0.1)">
       <defs>
        <path d="M 64.40625 67.28125 
L 64.40625 56.890625 
Q 59.421875 61.53125 53.78125 63.8125 
Q 48.140625 66.109375 41.796875 66.109375 
Q 29.296875 66.109375 22.65625 58.46875 
Q 16.015625 50.828125 16.015625 36.375 
Q 16.015625 21.96875 22.65625 14.328125 
Q 29.296875 6.6875 41.796875 6.6875 
Q 48.140625 6.6875 53.78125 8.984375 
Q 59.421875 11.28125 64.40625 15.921875 
L 64.40625 5.609375 
Q 59.234375 2.09375 53.4375 0.328125 
Q 47.65625 -1.421875 41.21875 -1.421875 
Q 24.65625 -1.421875 15.125 8.703125 
Q 5.609375 18.84375 5.609375 36.375 
Q 5.609375 53.953125 15.125 64.078125 
Q 24.65625 74.21875 41.21875 74.21875 
Q 47.75 74.21875 53.53125 72.484375 
Q 59.328125 70.75 64.40625 67.28125 
z
" id="DejaVuSans-67"/>
       </defs>
       <use xlink:href="#DejaVuSans-76"/>
       <use x="55.712891" xlink:href="#DejaVuSans-54"/>
       <use x="119.335938" xlink:href="#DejaVuSans-32"/>
       <use x="151.123047" xlink:href="#DejaVuSans-67"/>
       <use x="220.947266" xlink:href="#DejaVuSans-84"/>
      </g>
     </g>
    </g>
    <g id="ytick_6">
     <g id="text_13">
      <!-- OPC -->
      <g transform="translate(23.790625 140.299219)scale(0.1 -0.1)">
       <defs>
        <path d="M 19.671875 64.796875 
L 19.671875 37.40625 
L 32.078125 37.40625 
Q 38.96875 37.40625 42.71875 40.96875 
Q 46.484375 44.53125 46.484375 51.125 
Q 46.484375 57.671875 42.71875 61.234375 
Q 38.96875 64.796875 32.078125 64.796875 
z
M 9.8125 72.90625 
L 32.078125 72.90625 
Q 44.34375 72.90625 50.609375 67.359375 
Q 56.890625 61.8125 56.890625 51.125 
Q 56.890625 40.328125 50.609375 34.8125 
Q 44.34375 29.296875 32.078125 29.296875 
L 19.671875 29.296875 
L 19.671875 0 
L 9.8125 0 
z
" id="DejaVuSans-80"/>
       </defs>
       <use xlink:href="#DejaVuSans-79"/>
       <use x="78.710938" xlink:href="#DejaVuSans-80"/>
       <use x="139.013672" xlink:href="#DejaVuSans-67"/>
      </g>
     </g>
    </g>
    <g id="ytick_7">
     <g id="text_14">
      <!-- VLMC -->
      <g transform="translate(16.651563 160.244673)scale(0.1 -0.1)">
       <defs>
        <path d="M 9.8125 72.90625 
L 24.515625 72.90625 
L 43.109375 23.296875 
L 61.8125 72.90625 
L 76.515625 72.90625 
L 76.515625 0 
L 66.890625 0 
L 66.890625 64.015625 
L 48.09375 14.015625 
L 38.1875 14.015625 
L 19.390625 64.015625 
L 19.390625 0 
L 9.8125 0 
z
" id="DejaVuSans-77"/>
       </defs>
       <use xlink:href="#DejaVuSans-86"/>
       <use x="68.408203" xlink:href="#DejaVuSans-76"/>
       <use x="124.121094" xlink:href="#DejaVuSans-77"/>
       <use x="210.400391" xlink:href="#DejaVuSans-67"/>
      </g>
     </g>
    </g>
    <g id="ytick_8">
     <g id="text_15">
      <!-- Sst -->
      <g transform="translate(29.196875 180.190128)scale(0.1 -0.1)">
       <defs>
        <path d="M 53.515625 70.515625 
L 53.515625 60.890625 
Q 47.90625 63.578125 42.921875 64.890625 
Q 37.9375 66.21875 33.296875 66.21875 
Q 25.25 66.21875 20.875 63.09375 
Q 16.5 59.96875 16.5 54.203125 
Q 16.5 49.359375 19.40625 46.890625 
Q 22.3125 44.4375 30.421875 42.921875 
L 36.375 41.703125 
Q 47.40625 39.59375 52.65625 34.296875 
Q 57.90625 29 57.90625 20.125 
Q 57.90625 9.515625 50.796875 4.046875 
Q 43.703125 -1.421875 29.984375 -1.421875 
Q 24.8125 -1.421875 18.96875 -0.25 
Q 13.140625 0.921875 6.890625 3.21875 
L 6.890625 13.375 
Q 12.890625 10.015625 18.65625 8.296875 
Q 24.421875 6.59375 29.984375 6.59375 
Q 38.421875 6.59375 43.015625 9.90625 
Q 47.609375 13.234375 47.609375 19.390625 
Q 47.609375 24.75 44.3125 27.78125 
Q 41.015625 30.8125 33.5 32.328125 
L 27.484375 33.5 
Q 16.453125 35.6875 11.515625 40.375 
Q 6.59375 45.0625 6.59375 53.421875 
Q 6.59375 63.09375 13.40625 68.65625 
Q 20.21875 74.21875 32.171875 74.21875 
Q 37.3125 74.21875 42.625 73.28125 
Q 47.953125 72.359375 53.515625 70.515625 
z
" id="DejaVuSans-83"/>
       </defs>
       <use xlink:href="#DejaVuSans-83"/>
       <use x="63.476562" xlink:href="#DejaVuSans-115"/>
       <use x="115.576172" xlink:href="#DejaVuSans-116"/>
      </g>
     </g>
    </g>
    <g id="ytick_9">
     <g id="text_16">
      <!-- L6 IT -->
      <g transform="translate(20.504688 200.135582)scale(0.1 -0.1)">
       <defs>
        <path d="M 9.8125 72.90625 
L 19.671875 72.90625 
L 19.671875 0 
L 9.8125 0 
z
" id="DejaVuSans-73"/>
       </defs>
       <use xlink:href="#DejaVuSans-76"/>
       <use x="55.712891" xlink:href="#DejaVuSans-54"/>
       <use x="119.335938" xlink:href="#DejaVuSans-32"/>
       <use x="151.123047" xlink:href="#DejaVuSans-73"/>
       <use x="180.615234" xlink:href="#DejaVuSans-84"/>
      </g>
     </g>
    </g>
    <g id="ytick_10">
     <g id="text_17">
      <!-- L5 IT -->
      <g transform="translate(20.504688 220.081037)scale(0.1 -0.1)">
       <use xlink:href="#DejaVuSans-76"/>
       <use x="55.712891" xlink:href="#DejaVuSans-53"/>
       <use x="119.335938" xlink:href="#DejaVuSans-32"/>
       <use x="151.123047" xlink:href="#DejaVuSans-73"/>
       <use x="180.615234" xlink:href="#DejaVuSans-84"/>
      </g>
     </g>
    </g>
    <g id="ytick_11">
     <g id="text_18">
      <!-- L2/3 IT -->
      <g transform="translate(10.773438 240.026491)scale(0.1 -0.1)">
       <defs>
        <path d="M 40.578125 39.3125 
Q 47.65625 37.796875 51.625 33 
Q 55.609375 28.21875 55.609375 21.1875 
Q 55.609375 10.40625 48.1875 4.484375 
Q 40.765625 -1.421875 27.09375 -1.421875 
Q 22.515625 -1.421875 17.65625 -0.515625 
Q 12.796875 0.390625 7.625 2.203125 
L 7.625 11.71875 
Q 11.71875 9.328125 16.59375 8.109375 
Q 21.484375 6.890625 26.8125 6.890625 
Q 36.078125 6.890625 40.9375 10.546875 
Q 45.796875 14.203125 45.796875 21.1875 
Q 45.796875 27.640625 41.28125 31.265625 
Q 36.765625 34.90625 28.71875 34.90625 
L 20.21875 34.90625 
L 20.21875 43.015625 
L 29.109375 43.015625 
Q 36.375 43.015625 40.234375 45.921875 
Q 44.09375 48.828125 44.09375 54.296875 
Q 44.09375 59.90625 40.109375 62.90625 
Q 36.140625 65.921875 28.71875 65.921875 
Q 24.65625 65.921875 20.015625 65.03125 
Q 15.375 64.15625 9.8125 62.3125 
L 9.8125 71.09375 
Q 15.4375 72.65625 20.34375 73.4375 
Q 25.25 74.21875 29.59375 74.21875 
Q 40.828125 74.21875 47.359375 69.109375 
Q 53.90625 64.015625 53.90625 55.328125 
Q 53.90625 49.265625 50.4375 45.09375 
Q 46.96875 40.921875 40.578125 39.3125 
z
" id="DejaVuSans-51"/>
       </defs>
       <use xlink:href="#DejaVuSans-76"/>
       <use x="55.712891" xlink:href="#DejaVuSans-50"/>
       <use x="119.335938" xlink:href="#DejaVuSans-47"/>
       <use x="153.027344" xlink:href="#DejaVuSans-51"/>
       <use x="216.650391" xlink:href="#DejaVuSans-32"/>
       <use x="248.4375" xlink:href="#DejaVuSans-73"/>
       <use x="277.929688" xlink:href="#DejaVuSans-84"/>
      </g>
     </g>
    </g>
   </g>
   <g id="line2d_1">
    <path clip-path="url(#p6d4dc92df8)" d="M 223.344839 246.2 
L 223.344839 26.8 
" style="fill:none;stroke:#808080;stroke-dasharray:5.55,2.4;stroke-dashoffset:0;stroke-width:1.5;"/>
   </g>
   <g id="patch_15">
    <path d="M 51.675 246.2 
L 51.675 26.8 
" style="fill:none;stroke:#000000;stroke-linecap:square;stroke-linejoin:miter;stroke-width:0.8;"/>
   </g>
   <g id="PathCollection_7">
    <defs>
     <path d="M 0 2.5 
C 0.663008 2.5 1.29895 2.236584 1.767767 1.767767 
C 2.236584 1.29895 2.5 0.663008 2.5 -0 
C 2.5 -0.663008 2.236584 -1.29895 1.767767 -1.767767 
C 1.29895 -2.236584 0.663008 -2.5 0 -2.5 
C -0.663008 -2.5 -1.29895 -2.236584 -1.767767 -1.767767 
C -2.236584 -1.29895 -2.5 -0.663008 -2.5 0 
C -2.5 0.663008 -2.236584 1.29895 -1.767767 1.767767 
C -1.29895 2.236584 -0.663008 2.5 0 2.5 
z
" id="C0_0_419d758b8a"/>
    </defs>
    <g clip-path="url(#p6d4dc92df8)">
     <use style="fill:#89bedc;" x="198.527699" xlink:href="#C0_0_419d758b8a" y="38.666817"/>
    </g>
    <g clip-path="url(#p6d4dc92df8)">
     <use style="fill:#dbe9f6;" x="180.752875" xlink:href="#C0_0_419d758b8a" y="37.035333"/>
    </g>
    <g clip-path="url(#p6d4dc92df8)">
     <use style="fill:#539ecd;" x="116.381102" xlink:href="#C0_0_419d758b8a" y="36.516109"/>
    </g>
    <g clip-path="url(#p6d4dc92df8)">
     <use style="fill:#0b559f;" x="63.949318" xlink:href="#C0_0_419d758b8a" y="36.581827"/>
    </g>
    <g clip-path="url(#p6d4dc92df8)">
     <use style="fill:#89bedc;" x="100.569116" xlink:href="#C0_0_419d758b8a" y="35.623551"/>
    </g>
    <g clip-path="url(#p6d4dc92df8)">
     <use style="fill:#0b559f;" x="141.848872" xlink:href="#C0_0_419d758b8a" y="36.944336"/>
    </g>
    <g clip-path="url(#p6d4dc92df8)">
     <use style="fill:#bad6eb;" x="123.026451" xlink:href="#C0_0_419d758b8a" y="35.300943"/>
    </g>
    <g clip-path="url(#p6d4dc92df8)">
     <use style="fill:#2b7bba;" x="81.507478" xlink:href="#C0_0_419d758b8a" y="35.757496"/>
    </g>
    <g clip-path="url(#p6d4dc92df8)">
     <use style="fill:#2b7bba;" x="194.537609" xlink:href="#C0_0_419d758b8a" y="36.11758"/>
    </g>
    <g clip-path="url(#p6d4dc92df8)">
     <use style="fill:#539ecd;" x="109.912997" xlink:href="#C0_0_419d758b8a" y="35.222608"/>
    </g>
    <g clip-path="url(#p6d4dc92df8)">
     <use style="fill:#dbe9f6;" x="170.103314" xlink:href="#C0_0_419d758b8a" y="37.508292"/>
    </g>
    <g clip-path="url(#p6d4dc92df8)">
     <use style="fill:#bad6eb;" x="145.615737" xlink:href="#C0_0_419d758b8a" y="36.591907"/>
    </g>
   </g>
   <g id="PathCollection_8">
    <defs>
     <path d="M 0 2.5 
C 0.663008 2.5 1.29895 2.236584 1.767767 1.767767 
C 2.236584 1.29895 2.5 0.663008 2.5 -0 
C 2.5 -0.663008 2.236584 -1.29895 1.767767 -1.767767 
C 1.29895 -2.236584 0.663008 -2.5 0 -2.5 
C -0.663008 -2.5 -1.29895 -2.236584 -1.767767 -1.767767 
C -2.236584 -1.29895 -2.5 -0.663008 -2.5 0 
C -2.5 0.663008 -2.236584 1.29895 -1.767767 1.767767 
C -1.29895 2.236584 -0.663008 2.5 0 2.5 
z
" id="C1_0_35db7367f4"/>
    </defs>
    <g clip-path="url(#p6d4dc92df8)">
     <use style="fill:#89bedc;" x="206.37251" xlink:href="#C1_0_35db7367f4" y="58.142021"/>
    </g>
    <g clip-path="url(#p6d4dc92df8)">
     <use style="fill:#2b7bba;" x="208.700314" xlink:href="#C1_0_35db7367f4" y="56.990123"/>
    </g>
    <g clip-path="url(#p6d4dc92df8)">
     <use style="fill:#bad6eb;" x="150.387919" xlink:href="#C1_0_35db7367f4" y="57.809088"/>
    </g>
    <g clip-path="url(#p6d4dc92df8)">
     <use style="fill:#0b559f;" x="184.537075" xlink:href="#C1_0_35db7367f4" y="54.889702"/>
    </g>
    <g clip-path="url(#p6d4dc92df8)">
     <use style="fill:#bad6eb;" x="212.380565" xlink:href="#C1_0_35db7367f4" y="56.217635"/>
    </g>
    <g clip-path="url(#p6d4dc92df8)">
     <use style="fill:#2b7bba;" x="192.834617" xlink:href="#C1_0_35db7367f4" y="55.886757"/>
    </g>
    <g clip-path="url(#p6d4dc92df8)">
     <use style="fill:#539ecd;" x="158.552646" xlink:href="#C1_0_35db7367f4" y="56.399019"/>
    </g>
    <g clip-path="url(#p6d4dc92df8)">
     <use style="fill:#539ecd;" x="161.323047" xlink:href="#C1_0_35db7367f4" y="57.491624"/>
    </g>
   </g>
   <g id="PathCollection_9">
    <defs>
     <path d="M 0 2.5 
C 0.663008 2.5 1.29895 2.236584 1.767767 1.767767 
C 2.236584 1.29895 2.5 0.663008 2.5 -0 
C 2.5 -0.663008 2.236584 -1.29895 1.767767 -1.767767 
C 1.29895 -2.236584 0.663008 -2.5 0 -2.5 
C -0.663008 -2.5 -1.29895 -2.236584 -1.767767 -1.767767 
C -2.236584 -1.29895 -2.5 -0.663008 -2.5 0 
C -2.5 0.663008 -2.236584 1.29895 -1.767767 1.767767 
C -1.29895 2.236584 -0.663008 2.5 0 2.5 
z
" id="C2_0_af740e0acf"/>
    </defs>
    <g clip-path="url(#p6d4dc92df8)">
     <use style="fill:#bad6eb;" x="181.130725" xlink:href="#C2_0_af740e0acf" y="76.605956"/>
    </g>
    <g clip-path="url(#p6d4dc92df8)">
     <use style="fill:#2b7bba;" x="229.242678" xlink:href="#C2_0_af740e0acf" y="78.353923"/>
    </g>
    <g clip-path="url(#p6d4dc92df8)">
     <use style="fill:#539ecd;" x="174.965352" xlink:href="#C2_0_af740e0acf" y="75.973922"/>
    </g>
    <g clip-path="url(#p6d4dc92df8)">
     <use style="fill:#539ecd;" x="180.858918" xlink:href="#C2_0_af740e0acf" y="76.125809"/>
    </g>
    <g clip-path="url(#p6d4dc92df8)">
     <use style="fill:#0b559f;" x="182.667421" xlink:href="#C2_0_af740e0acf" y="76.001488"/>
    </g>
    <g clip-path="url(#p6d4dc92df8)">
     <use style="fill:#89bedc;" x="153.911057" xlink:href="#C2_0_af740e0acf" y="75.783174"/>
    </g>
    <g clip-path="url(#p6d4dc92df8)">
     <use style="fill:#dbe9f6;" x="223.424932" xlink:href="#C2_0_af740e0acf" y="75.6344"/>
    </g>
    <g clip-path="url(#p6d4dc92df8)">
     <use style="fill:#dbe9f6;" x="191.027816" xlink:href="#C2_0_af740e0acf" y="76.798065"/>
    </g>
    <g clip-path="url(#p6d4dc92df8)">
     <use style="fill:#bad6eb;" x="204.819894" xlink:href="#C2_0_af740e0acf" y="76.651016"/>
    </g>
    <g clip-path="url(#p6d4dc92df8)">
     <use style="fill:#0b559f;" x="226.744098" xlink:href="#C2_0_af740e0acf" y="78.55242"/>
    </g>
    <g clip-path="url(#p6d4dc92df8)">
     <use style="fill:#2b7bba;" x="148.7606" xlink:href="#C2_0_af740e0acf" y="75.359922"/>
    </g>
   </g>
   <g id="PathCollection_10">
    <defs>
     <path d="M 0 2.5 
C 0.663008 2.5 1.29895 2.236584 1.767767 1.767767 
C 2.236584 1.29895 2.5 0.663008 2.5 -0 
C 2.5 -0.663008 2.236584 -1.29895 1.767767 -1.767767 
C 1.29895 -2.236584 0.663008 -2.5 0 -2.5 
C -0.663008 -2.5 -1.29895 -2.236584 -1.767767 -1.767767 
C -2.236584 -1.29895 -2.5 -0.663008 -2.5 0 
C -2.5 0.663008 -2.236584 1.29895 -1.767767 1.767767 
C -1.29895 2.236584 -0.663008 2.5 0 2.5 
z
" id="C3_0_3941bff777"/>
    </defs>
    <g clip-path="url(#p6d4dc92df8)">
     <use style="fill:#539ecd;" x="195.213854" xlink:href="#C3_0_3941bff777" y="96.367961"/>
    </g>
    <g clip-path="url(#p6d4dc92df8)">
     <use style="fill:#0b559f;" x="167.322556" xlink:href="#C3_0_3941bff777" y="95.912487"/>
    </g>
    <g clip-path="url(#p6d4dc92df8)">
     <use style="fill:#2b7bba;" x="213.221503" xlink:href="#C3_0_3941bff777" y="97.07466"/>
    </g>
    <g clip-path="url(#p6d4dc92df8)">
     <use style="fill:#89bedc;" x="113.06764" xlink:href="#C3_0_3941bff777" y="97.379452"/>
    </g>
    <g clip-path="url(#p6d4dc92df8)">
     <use style="fill:#dbe9f6;" x="234.477849" xlink:href="#C3_0_3941bff777" y="94.836935"/>
    </g>
    <g clip-path="url(#p6d4dc92df8)">
     <use style="fill:#bad6eb;" x="180.780762" xlink:href="#C3_0_3941bff777" y="96.979405"/>
    </g>
    <g clip-path="url(#p6d4dc92df8)">
     <use style="fill:#89bedc;" x="262.523015" xlink:href="#C3_0_3941bff777" y="97.689789"/>
    </g>
    <g clip-path="url(#p6d4dc92df8)">
     <use style="fill:#dbe9f6;" x="162.274258" xlink:href="#C3_0_3941bff777" y="96.156188"/>
    </g>
    <g clip-path="url(#p6d4dc92df8)">
     <use style="fill:#0b559f;" x="243.028626" xlink:href="#C3_0_3941bff777" y="95.843045"/>
    </g>
    <g clip-path="url(#p6d4dc92df8)">
     <use style="fill:#bad6eb;" x="227.268508" xlink:href="#C3_0_3941bff777" y="98.425938"/>
    </g>
    <g clip-path="url(#p6d4dc92df8)">
     <use style="fill:#539ecd;" x="218.305746" xlink:href="#C3_0_3941bff777" y="96.309314"/>
    </g>
    <g clip-path="url(#p6d4dc92df8)">
     <use style="fill:#2b7bba;" x="218.720987" xlink:href="#C3_0_3941bff777" y="98.454334"/>
    </g>
   </g>
   <g id="PathCollection_11">
    <defs>
     <path d="M 0 2.5 
C 0.663008 2.5 1.29895 2.236584 1.767767 1.767767 
C 2.236584 1.29895 2.5 0.663008 2.5 -0 
C 2.5 -0.663008 2.236584 -1.29895 1.767767 -1.767767 
C 1.29895 -2.236584 0.663008 -2.5 0 -2.5 
C -0.663008 -2.5 -1.29895 -2.236584 -1.767767 -1.767767 
C -2.236584 -1.29895 -2.5 -0.663008 -2.5 0 
C -2.5 0.663008 -2.236584 1.29895 -1.767767 1.767767 
C -1.29895 2.236584 -0.663008 2.5 0 2.5 
z
" id="C4_0_9806c24610"/>
    </defs>
    <g clip-path="url(#p6d4dc92df8)">
     <use style="fill:#dbe9f6;" x="193.088757" xlink:href="#C4_0_9806c24610" y="118.334818"/>
    </g>
    <g clip-path="url(#p6d4dc92df8)">
     <use style="fill:#0b559f;" x="229.479592" xlink:href="#C4_0_9806c24610" y="118.219437"/>
    </g>
    <g clip-path="url(#p6d4dc92df8)">
     <use style="fill:#539ecd;" x="228.38232" xlink:href="#C4_0_9806c24610" y="117.289777"/>
    </g>
    <g clip-path="url(#p6d4dc92df8)">
     <use style="fill:#bad6eb;" x="253.009757" xlink:href="#C4_0_9806c24610" y="115.775044"/>
    </g>
    <g clip-path="url(#p6d4dc92df8)">
     <use style="fill:#89bedc;" x="191.200477" xlink:href="#C4_0_9806c24610" y="116.879167"/>
    </g>
    <g clip-path="url(#p6d4dc92df8)">
     <use style="fill:#89bedc;" x="124.808693" xlink:href="#C4_0_9806c24610" y="115.059147"/>
    </g>
    <g clip-path="url(#p6d4dc92df8)">
     <use style="fill:#dbe9f6;" x="203.790311" xlink:href="#C4_0_9806c24610" y="117.924791"/>
    </g>
    <g clip-path="url(#p6d4dc92df8)">
     <use style="fill:#2b7bba;" x="223.78686" xlink:href="#C4_0_9806c24610" y="115.552002"/>
    </g>
    <g clip-path="url(#p6d4dc92df8)">
     <use style="fill:#bad6eb;" x="239.855948" xlink:href="#C4_0_9806c24610" y="116.312017"/>
    </g>
    <g clip-path="url(#p6d4dc92df8)">
     <use style="fill:#2b7bba;" x="224.84247" xlink:href="#C4_0_9806c24610" y="117.875332"/>
    </g>
    <g clip-path="url(#p6d4dc92df8)">
     <use style="fill:#539ecd;" x="175.14141" xlink:href="#C4_0_9806c24610" y="117.897919"/>
    </g>
    <g clip-path="url(#p6d4dc92df8)">
     <use style="fill:#0b559f;" x="178.528203" xlink:href="#C4_0_9806c24610" y="117.258789"/>
    </g>
   </g>
   <g id="PathCollection_12">
    <defs>
     <path d="M 0 2.5 
C 0.663008 2.5 1.29895 2.236584 1.767767 1.767767 
C 2.236584 1.29895 2.5 0.663008 2.5 -0 
C 2.5 -0.663008 2.236584 -1.29895 1.767767 -1.767767 
C 1.29895 -2.236584 0.663008 -2.5 0 -2.5 
C -0.663008 -2.5 -1.29895 -2.236584 -1.767767 -1.767767 
C -2.236584 -1.29895 -2.5 -0.663008 -2.5 0 
C -2.5 0.663008 -2.236584 1.29895 -1.767767 1.767767 
C -1.29895 2.236584 -0.663008 2.5 0 2.5 
z
" id="C5_0_0c422269b5"/>
    </defs>
    <g clip-path="url(#p6d4dc92df8)">
     <use style="fill:#bad6eb;" x="245.285544" xlink:href="#C5_0_0c422269b5" y="134.964246"/>
    </g>
    <g clip-path="url(#p6d4dc92df8)">
     <use style="fill:#539ecd;" x="190.076674" xlink:href="#C5_0_0c422269b5" y="134.782418"/>
    </g>
    <g clip-path="url(#p6d4dc92df8)">
     <use style="fill:#bad6eb;" x="198.639421" xlink:href="#C5_0_0c422269b5" y="136.01637"/>
    </g>
    <g clip-path="url(#p6d4dc92df8)">
     <use style="fill:#2b7bba;" x="195.319071" xlink:href="#C5_0_0c422269b5" y="134.752344"/>
    </g>
   </g>
   <g id="PathCollection_13">
    <defs>
     <path d="M 0 2.5 
C 0.663008 2.5 1.29895 2.236584 1.767767 1.767767 
C 2.236584 1.29895 2.5 0.663008 2.5 -0 
C 2.5 -0.663008 2.236584 -1.29895 1.767767 -1.767767 
C 1.29895 -2.236584 0.663008 -2.5 0 -2.5 
C -0.663008 -2.5 -1.29895 -2.236584 -1.767767 -1.767767 
C -2.236584 -1.29895 -2.5 -0.663008 -2.5 0 
C -2.5 0.663008 -2.236584 1.29895 -1.767767 1.767767 
C -1.29895 2.236584 -0.663008 2.5 0 2.5 
z
" id="C6_0_289455d04f"/>
    </defs>
    <g clip-path="url(#p6d4dc92df8)">
     <use style="fill:#bad6eb;" x="225.062875" xlink:href="#C6_0_289455d04f" y="157.353116"/>
    </g>
    <g clip-path="url(#p6d4dc92df8)">
     <use style="fill:#dbe9f6;" x="210.905947" xlink:href="#C6_0_289455d04f" y="155.627877"/>
    </g>
    <g clip-path="url(#p6d4dc92df8)">
     <use style="fill:#bad6eb;" x="217.974955" xlink:href="#C6_0_289455d04f" y="155.52586"/>
    </g>
    <g clip-path="url(#p6d4dc92df8)">
     <use style="fill:#539ecd;" x="214.660485" xlink:href="#C6_0_289455d04f" y="158.325514"/>
    </g>
    <g clip-path="url(#p6d4dc92df8)">
     <use style="fill:#89bedc;" x="203.73157" xlink:href="#C6_0_289455d04f" y="158.164061"/>
    </g>
    <g clip-path="url(#p6d4dc92df8)">
     <use style="fill:#0b559f;" x="237.646774" xlink:href="#C6_0_289455d04f" y="155.052338"/>
    </g>
    <g clip-path="url(#p6d4dc92df8)">
     <use style="fill:#539ecd;" x="235.917447" xlink:href="#C6_0_289455d04f" y="156.559681"/>
    </g>
    <g clip-path="url(#p6d4dc92df8)">
     <use style="fill:#2b7bba;" x="215.664888" xlink:href="#C6_0_289455d04f" y="156.829534"/>
    </g>
   </g>
   <g id="PathCollection_14">
    <defs>
     <path d="M 0 2.5 
C 0.663008 2.5 1.29895 2.236584 1.767767 1.767767 
C 2.236584 1.29895 2.5 0.663008 2.5 -0 
C 2.5 -0.663008 2.236584 -1.29895 1.767767 -1.767767 
C 1.29895 -2.236584 0.663008 -2.5 0 -2.5 
C -0.663008 -2.5 -1.29895 -2.236584 -1.767767 -1.767767 
C -2.236584 -1.29895 -2.5 -0.663008 -2.5 0 
C -2.5 0.663008 -2.236584 1.29895 -1.767767 1.767767 
C -1.29895 2.236584 -0.663008 2.5 0 2.5 
z
" id="C7_0_6841d4c5bc"/>
    </defs>
    <g clip-path="url(#p6d4dc92df8)">
     <use style="fill:#89bedc;" x="231.150662" xlink:href="#C7_0_6841d4c5bc" y="176.151009"/>
    </g>
    <g clip-path="url(#p6d4dc92df8)">
     <use style="fill:#bad6eb;" x="187.425129" xlink:href="#C7_0_6841d4c5bc" y="174.596897"/>
    </g>
    <g clip-path="url(#p6d4dc92df8)">
     <use style="fill:#539ecd;" x="249.119202" xlink:href="#C7_0_6841d4c5bc" y="178.133599"/>
    </g>
    <g clip-path="url(#p6d4dc92df8)">
     <use style="fill:#539ecd;" x="278.929678" xlink:href="#C7_0_6841d4c5bc" y="176.612669"/>
    </g>
    <g clip-path="url(#p6d4dc92df8)">
     <use style="fill:#bad6eb;" x="223.847556" xlink:href="#C7_0_6841d4c5bc" y="177.150304"/>
    </g>
    <g clip-path="url(#p6d4dc92df8)">
     <use style="fill:#0b559f;" x="249.011979" xlink:href="#C7_0_6841d4c5bc" y="175.581588"/>
    </g>
    <g clip-path="url(#p6d4dc92df8)">
     <use style="fill:#2b7bba;" x="214.453162" xlink:href="#C7_0_6841d4c5bc" y="175.790202"/>
    </g>
   </g>
   <g id="PathCollection_15">
    <defs>
     <path d="M 0 2.5 
C 0.663008 2.5 1.29895 2.236584 1.767767 1.767767 
C 2.236584 1.29895 2.5 0.663008 2.5 -0 
C 2.5 -0.663008 2.236584 -1.29895 1.767767 -1.767767 
C 1.29895 -2.236584 0.663008 -2.5 0 -2.5 
C -0.663008 -2.5 -1.29895 -2.236584 -1.767767 -1.767767 
C -2.236584 -1.29895 -2.5 -0.663008 -2.5 0 
C -2.5 0.663008 -2.236584 1.29895 -1.767767 1.767767 
C -1.29895 2.236584 -0.663008 2.5 0 2.5 
z
" id="C8_0_214fb2b155"/>
    </defs>
    <g clip-path="url(#p6d4dc92df8)">
     <use style="fill:#2b7bba;" x="256.968976" xlink:href="#C8_0_214fb2b155" y="196.945402"/>
    </g>
    <g clip-path="url(#p6d4dc92df8)">
     <use style="fill:#0b559f;" x="263.130506" xlink:href="#C8_0_214fb2b155" y="195.378704"/>
    </g>
    <g clip-path="url(#p6d4dc92df8)">
     <use style="fill:#89bedc;" x="249.514626" xlink:href="#C8_0_214fb2b155" y="196.544007"/>
    </g>
    <g clip-path="url(#p6d4dc92df8)">
     <use style="fill:#539ecd;" x="253.669472" xlink:href="#C8_0_214fb2b155" y="195.515501"/>
    </g>
    <g clip-path="url(#p6d4dc92df8)">
     <use style="fill:#0b559f;" x="218.965695" xlink:href="#C8_0_214fb2b155" y="195.960073"/>
    </g>
    <g clip-path="url(#p6d4dc92df8)">
     <use style="fill:#bad6eb;" x="188.044697" xlink:href="#C8_0_214fb2b155" y="194.628159"/>
    </g>
    <g clip-path="url(#p6d4dc92df8)">
     <use style="fill:#539ecd;" x="248.151791" xlink:href="#C8_0_214fb2b155" y="196.662399"/>
    </g>
    <g clip-path="url(#p6d4dc92df8)">
     <use style="fill:#dbe9f6;" x="211.882662" xlink:href="#C8_0_214fb2b155" y="194.896525"/>
    </g>
    <g clip-path="url(#p6d4dc92df8)">
     <use style="fill:#dbe9f6;" x="236.271364" xlink:href="#C8_0_214fb2b155" y="195.850134"/>
    </g>
    <g clip-path="url(#p6d4dc92df8)">
     <use style="fill:#bad6eb;" x="221.470457" xlink:href="#C8_0_214fb2b155" y="195.671255"/>
    </g>
    <g clip-path="url(#p6d4dc92df8)">
     <use style="fill:#89bedc;" x="184.972512" xlink:href="#C8_0_214fb2b155" y="194.414987"/>
    </g>
    <g clip-path="url(#p6d4dc92df8)">
     <use style="fill:#2b7bba;" x="287.622245" xlink:href="#C8_0_214fb2b155" y="194.695192"/>
    </g>
   </g>
   <g id="PathCollection_16">
    <defs>
     <path d="M 0 2.5 
C 0.663008 2.5 1.29895 2.236584 1.767767 1.767767 
C 2.236584 1.29895 2.5 0.663008 2.5 -0 
C 2.5 -0.663008 2.236584 -1.29895 1.767767 -1.767767 
C 1.29895 -2.236584 0.663008 -2.5 0 -2.5 
C -0.663008 -2.5 -1.29895 -2.236584 -1.767767 -1.767767 
C -2.236584 -1.29895 -2.5 -0.663008 -2.5 0 
C -2.5 0.663008 -2.236584 1.29895 -1.767767 1.767767 
C -1.29895 2.236584 -0.663008 2.5 0 2.5 
z
" id="C9_0_b382151d77"/>
    </defs>
    <g clip-path="url(#p6d4dc92df8)">
     <use style="fill:#2b7bba;" x="248.376731" xlink:href="#C9_0_b382151d77" y="214.920251"/>
    </g>
    <g clip-path="url(#p6d4dc92df8)">
     <use style="fill:#539ecd;" x="261.757145" xlink:href="#C9_0_b382151d77" y="216.133664"/>
    </g>
    <g clip-path="url(#p6d4dc92df8)">
     <use style="fill:#89bedc;" x="239.870847" xlink:href="#C9_0_b382151d77" y="217.287456"/>
    </g>
    <g clip-path="url(#p6d4dc92df8)">
     <use style="fill:#0b559f;" x="295.607814" xlink:href="#C9_0_b382151d77" y="215.995389"/>
    </g>
    <g clip-path="url(#p6d4dc92df8)">
     <use style="fill:#bad6eb;" x="289.215572" xlink:href="#C9_0_b382151d77" y="215.007108"/>
    </g>
    <g clip-path="url(#p6d4dc92df8)">
     <use style="fill:#dbe9f6;" x="280.595538" xlink:href="#C9_0_b382151d77" y="217.085843"/>
    </g>
    <g clip-path="url(#p6d4dc92df8)">
     <use style="fill:#539ecd;" x="262.110572" xlink:href="#C9_0_b382151d77" y="216.026"/>
    </g>
    <g clip-path="url(#p6d4dc92df8)">
     <use style="fill:#bad6eb;" x="286.500127" xlink:href="#C9_0_b382151d77" y="216.843248"/>
    </g>
    <g clip-path="url(#p6d4dc92df8)">
     <use style="fill:#dbe9f6;" x="218.725405" xlink:href="#C9_0_b382151d77" y="216.008035"/>
    </g>
    <g clip-path="url(#p6d4dc92df8)">
     <use style="fill:#2b7bba;" x="268.178528" xlink:href="#C9_0_b382151d77" y="217.916721"/>
    </g>
    <g clip-path="url(#p6d4dc92df8)">
     <use style="fill:#89bedc;" x="239.625782" xlink:href="#C9_0_b382151d77" y="215.693201"/>
    </g>
   </g>
   <g id="PathCollection_17">
    <defs>
     <path d="M 0 2.5 
C 0.663008 2.5 1.29895 2.236584 1.767767 1.767767 
C 2.236584 1.29895 2.5 0.663008 2.5 -0 
C 2.5 -0.663008 2.236584 -1.29895 1.767767 -1.767767 
C 1.29895 -2.236584 0.663008 -2.5 0 -2.5 
C -0.663008 -2.5 -1.29895 -2.236584 -1.767767 -1.767767 
C -2.236584 -1.29895 -2.5 -0.663008 -2.5 0 
C -2.5 0.663008 -2.236584 1.29895 -1.767767 1.767767 
C -1.29895 2.236584 -0.663008 2.5 0 2.5 
z
" id="Ca_0_457889271a"/>
    </defs>
    <g clip-path="url(#p6d4dc92df8)">
     <use style="fill:#bad6eb;" x="254.651506" xlink:href="#Ca_0_457889271a" y="236.421979"/>
    </g>
    <g clip-path="url(#p6d4dc92df8)">
     <use style="fill:#89bedc;" x="274.511708" xlink:href="#Ca_0_457889271a" y="236.115467"/>
    </g>
    <g clip-path="url(#p6d4dc92df8)">
     <use style="fill:#89bedc;" x="266.755269" xlink:href="#Ca_0_457889271a" y="236.092067"/>
    </g>
    <g clip-path="url(#p6d4dc92df8)">
     <use style="fill:#539ecd;" x="270.639279" xlink:href="#Ca_0_457889271a" y="235.277842"/>
    </g>
    <g clip-path="url(#p6d4dc92df8)">
     <use style="fill:#2b7bba;" x="277.021737" xlink:href="#Ca_0_457889271a" y="234.834551"/>
    </g>
    <g clip-path="url(#p6d4dc92df8)">
     <use style="fill:#2b7bba;" x="309.435682" xlink:href="#Ca_0_457889271a" y="237.426769"/>
    </g>
    <g clip-path="url(#p6d4dc92df8)">
     <use style="fill:#0b559f;" x="221.539695" xlink:href="#Ca_0_457889271a" y="235.084216"/>
    </g>
    <g clip-path="url(#p6d4dc92df8)">
     <use style="fill:#dbe9f6;" x="304.404634" xlink:href="#Ca_0_457889271a" y="238.161838"/>
    </g>
    <g clip-path="url(#p6d4dc92df8)">
     <use style="fill:#bad6eb;" x="290.935154" xlink:href="#Ca_0_457889271a" y="235.179205"/>
    </g>
    <g clip-path="url(#p6d4dc92df8)">
     <use style="fill:#539ecd;" x="308.695191" xlink:href="#Ca_0_457889271a" y="236.487201"/>
    </g>
    <g clip-path="url(#p6d4dc92df8)">
     <use style="fill:#0b559f;" x="270.536435" xlink:href="#Ca_0_457889271a" y="236.393206"/>
    </g>
    <g clip-path="url(#p6d4dc92df8)">
     <use style="fill:#dbe9f6;" x="246.963291" xlink:href="#Ca_0_457889271a" y="235.561311"/>
    </g>
   </g>
   <g id="text_19">
    <!-- Ust -->
    <g transform="translate(176.823437 20.8)scale(0.12 -0.12)">
     <defs>
      <path d="M 8.6875 72.90625 
L 18.609375 72.90625 
L 18.609375 28.609375 
Q 18.609375 16.890625 22.84375 11.734375 
Q 27.09375 6.59375 36.625 6.59375 
Q 46.09375 6.59375 50.34375 11.734375 
Q 54.59375 16.890625 54.59375 28.609375 
L 54.59375 72.90625 
L 64.5 72.90625 
L 64.5 27.390625 
Q 64.5 13.140625 57.4375 5.859375 
Q 50.390625 -1.421875 36.625 -1.421875 
Q 22.796875 -1.421875 15.734375 5.859375 
Q 8.6875 13.140625 8.6875 27.390625 
z
" id="DejaVuSans-85"/>
     </defs>
     <use xlink:href="#DejaVuSans-85"/>
     <use x="73.193359" xlink:href="#DejaVuSans-115"/>
     <use x="125.292969" xlink:href="#DejaVuSans-116"/>
    </g>
   </g>
   <g id="legend_1">
    <g id="patch_16">
     <path d="M 337.21175 117.86875 
L 416.24925 117.86875 
Q 418.24925 117.86875 418.24925 115.86875 
L 418.24925 28.8 
Q 418.24925 26.8 416.24925 26.8 
L 337.21175 26.8 
Q 335.21175 26.8 335.21175 28.8 
L 335.21175 115.86875 
Q 335.21175 117.86875 337.21175 117.86875 
z
" style="fill:#ffffff;opacity:0.8;stroke:#cccccc;stroke-linejoin:miter;"/>
    </g>
    <g id="PathCollection_18">
     <defs>
      <path d="M 0 3.872983 
C 1.027127 3.872983 2.012324 3.464901 2.738613 2.738613 
C 3.464901 2.012324 3.872983 1.027127 3.872983 0 
C 3.872983 -1.027127 3.464901 -2.012324 2.738613 -2.738613 
C 2.012324 -3.464901 1.027127 -3.872983 0 -3.872983 
C -1.027127 -3.872983 -2.012324 -3.464901 -2.738613 -2.738613 
C -3.464901 -2.012324 -3.872983 -1.027127 -3.872983 0 
C -3.872983 1.027127 -3.464901 2.012324 -2.738613 2.738613 
C -2.012324 3.464901 -1.027127 3.872983 0 3.872983 
z
" id="m0abb5c15fa" style="stroke:#dbe9f6;"/>
     </defs>
     <g>
      <use style="fill:#dbe9f6;stroke:#dbe9f6;" x="349.21175" xlink:href="#m0abb5c15fa" y="35.773437"/>
     </g>
    </g>
    <g id="text_20">
     <!-- Sample 1 -->
     <g transform="translate(367.21175 38.398437)scale(0.1 -0.1)">
      <defs>
       <path d="M 12.40625 8.296875 
L 28.515625 8.296875 
L 28.515625 63.921875 
L 10.984375 60.40625 
L 10.984375 69.390625 
L 28.421875 72.90625 
L 38.28125 72.90625 
L 38.28125 8.296875 
L 54.390625 8.296875 
L 54.390625 0 
L 12.40625 0 
z
" id="DejaVuSans-49"/>
      </defs>
      <use xlink:href="#DejaVuSans-83"/>
      <use x="63.476562" xlink:href="#DejaVuSans-97"/>
      <use x="124.755859" xlink:href="#DejaVuSans-109"/>
      <use x="222.167969" xlink:href="#DejaVuSans-112"/>
      <use x="285.644531" xlink:href="#DejaVuSans-108"/>
      <use x="313.427734" xlink:href="#DejaVuSans-101"/>
      <use x="374.951172" xlink:href="#DejaVuSans-32"/>
      <use x="406.738281" xlink:href="#DejaVuSans-49"/>
     </g>
    </g>
    <g id="PathCollection_19">
     <defs>
      <path d="M 0 3.872983 
C 1.027127 3.872983 2.012324 3.464901 2.738613 2.738613 
C 3.464901 2.012324 3.872983 1.027127 3.872983 0 
C 3.872983 -1.027127 3.464901 -2.012324 2.738613 -2.738613 
C 2.012324 -3.464901 1.027127 -3.872983 0 -3.872983 
C -1.027127 -3.872983 -2.012324 -3.464901 -2.738613 -2.738613 
C -3.464901 -2.012324 -3.872983 -1.027127 -3.872983 0 
C -3.872983 1.027127 -3.464901 2.012324 -2.738613 2.738613 
C -2.012324 3.464901 -1.027127 3.872983 0 3.872983 
z
" id="m99ea72d7f9" style="stroke:#bad6eb;"/>
     </defs>
     <g>
      <use style="fill:#bad6eb;stroke:#bad6eb;" x="349.21175" xlink:href="#m99ea72d7f9" y="50.451562"/>
     </g>
    </g>
    <g id="text_21">
     <!-- Sample 2 -->
     <g transform="translate(367.21175 53.076562)scale(0.1 -0.1)">
      <use xlink:href="#DejaVuSans-83"/>
      <use x="63.476562" xlink:href="#DejaVuSans-97"/>
      <use x="124.755859" xlink:href="#DejaVuSans-109"/>
      <use x="222.167969" xlink:href="#DejaVuSans-112"/>
      <use x="285.644531" xlink:href="#DejaVuSans-108"/>
      <use x="313.427734" xlink:href="#DejaVuSans-101"/>
      <use x="374.951172" xlink:href="#DejaVuSans-32"/>
      <use x="406.738281" xlink:href="#DejaVuSans-50"/>
     </g>
    </g>
    <g id="PathCollection_20">
     <defs>
      <path d="M 0 3.872983 
C 1.027127 3.872983 2.012324 3.464901 2.738613 2.738613 
C 3.464901 2.012324 3.872983 1.027127 3.872983 0 
C 3.872983 -1.027127 3.464901 -2.012324 2.738613 -2.738613 
C 2.012324 -3.464901 1.027127 -3.872983 0 -3.872983 
C -1.027127 -3.872983 -2.012324 -3.464901 -2.738613 -2.738613 
C -3.464901 -2.012324 -3.872983 -1.027127 -3.872983 0 
C -3.872983 1.027127 -3.464901 2.012324 -2.738613 2.738613 
C -2.012324 3.464901 -1.027127 3.872983 0 3.872983 
z
" id="m9a2c0d7f63" style="stroke:#89bedc;"/>
     </defs>
     <g>
      <use style="fill:#89bedc;stroke:#89bedc;" x="349.21175" xlink:href="#m9a2c0d7f63" y="65.129687"/>
     </g>
    </g>
    <g id="text_22">
     <!-- Sample 3 -->
     <g transform="translate(367.21175 67.754687)scale(0.1 -0.1)">
      <use xlink:href="#DejaVuSans-83"/>
      <use x="63.476562" xlink:href="#DejaVuSans-97"/>
      <use x="124.755859" xlink:href="#DejaVuSans-109"/>
      <use x="222.167969" xlink:href="#DejaVuSans-112"/>
      <use x="285.644531" xlink:href="#DejaVuSans-108"/>
      <use x="313.427734" xlink:href="#DejaVuSans-101"/>
      <use x="374.951172" xlink:href="#DejaVuSans-32"/>
      <use x="406.738281" xlink:href="#DejaVuSans-51"/>
     </g>
    </g>
    <g id="PathCollection_21">
     <defs>
      <path d="M 0 3.872983 
C 1.027127 3.872983 2.012324 3.464901 2.738613 2.738613 
C 3.464901 2.012324 3.872983 1.027127 3.872983 0 
C 3.872983 -1.027127 3.464901 -2.012324 2.738613 -2.738613 
C 2.012324 -3.464901 1.027127 -3.872983 0 -3.872983 
C -1.027127 -3.872983 -2.012324 -3.464901 -2.738613 -2.738613 
C -3.464901 -2.012324 -3.872983 -1.027127 -3.872983 0 
C -3.872983 1.027127 -3.464901 2.012324 -2.738613 2.738613 
C -2.012324 3.464901 -1.027127 3.872983 0 3.872983 
z
" id="m1f4ba6440d" style="stroke:#539ecd;"/>
     </defs>
     <g>
      <use style="fill:#539ecd;stroke:#539ecd;" x="349.21175" xlink:href="#m1f4ba6440d" y="79.807812"/>
     </g>
    </g>
    <g id="text_23">
     <!-- Sample 4 -->
     <g transform="translate(367.21175 82.432812)scale(0.1 -0.1)">
      <use xlink:href="#DejaVuSans-83"/>
      <use x="63.476562" xlink:href="#DejaVuSans-97"/>
      <use x="124.755859" xlink:href="#DejaVuSans-109"/>
      <use x="222.167969" xlink:href="#DejaVuSans-112"/>
      <use x="285.644531" xlink:href="#DejaVuSans-108"/>
      <use x="313.427734" xlink:href="#DejaVuSans-101"/>
      <use x="374.951172" xlink:href="#DejaVuSans-32"/>
      <use x="406.738281" xlink:href="#DejaVuSans-52"/>
     </g>
    </g>
    <g id="PathCollection_22">
     <defs>
      <path d="M 0 3.872983 
C 1.027127 3.872983 2.012324 3.464901 2.738613 2.738613 
C 3.464901 2.012324 3.872983 1.027127 3.872983 0 
C 3.872983 -1.027127 3.464901 -2.012324 2.738613 -2.738613 
C 2.012324 -3.464901 1.027127 -3.872983 0 -3.872983 
C -1.027127 -3.872983 -2.012324 -3.464901 -2.738613 -2.738613 
C -3.464901 -2.012324 -3.872983 -1.027127 -3.872983 0 
C -3.872983 1.027127 -3.464901 2.012324 -2.738613 2.738613 
C -2.012324 3.464901 -1.027127 3.872983 0 3.872983 
z
" id="m077cd6cff3" style="stroke:#2b7bba;"/>
     </defs>
     <g>
      <use style="fill:#2b7bba;stroke:#2b7bba;" x="349.21175" xlink:href="#m077cd6cff3" y="94.485937"/>
     </g>
    </g>
    <g id="text_24">
     <!-- Sample 5 -->
     <g transform="translate(367.21175 97.110937)scale(0.1 -0.1)">
      <use xlink:href="#DejaVuSans-83"/>
      <use x="63.476562" xlink:href="#DejaVuSans-97"/>
      <use x="124.755859" xlink:href="#DejaVuSans-109"/>
      <use x="222.167969" xlink:href="#DejaVuSans-112"/>
      <use x="285.644531" xlink:href="#DejaVuSans-108"/>
      <use x="313.427734" xlink:href="#DejaVuSans-101"/>
      <use x="374.951172" xlink:href="#DejaVuSans-32"/>
      <use x="406.738281" xlink:href="#DejaVuSans-53"/>
     </g>
    </g>
    <g id="PathCollection_23">
     <defs>
      <path d="M 0 3.872983 
C 1.027127 3.872983 2.012324 3.464901 2.738613 2.738613 
C 3.464901 2.012324 3.872983 1.027127 3.872983 0 
C 3.872983 -1.027127 3.464901 -2.012324 2.738613 -2.738613 
C 2.012324 -3.464901 1.027127 -3.872983 0 -3.872983 
C -1.027127 -3.872983 -2.012324 -3.464901 -2.738613 -2.738613 
C -3.464901 -2.012324 -3.872983 -1.027127 -3.872983 0 
C -3.872983 1.027127 -3.464901 2.012324 -2.738613 2.738613 
C -2.012324 3.464901 -1.027127 3.872983 0 3.872983 
z
" id="m1d78e78d33" style="stroke:#0b559f;"/>
     </defs>
     <g>
      <use style="fill:#0b559f;stroke:#0b559f;" x="349.21175" xlink:href="#m1d78e78d33" y="109.164062"/>
     </g>
    </g>
    <g id="text_25">
     <!-- Sample 6 -->
     <g transform="translate(367.21175 111.789062)scale(0.1 -0.1)">
      <use xlink:href="#DejaVuSans-83"/>
      <use x="63.476562" xlink:href="#DejaVuSans-97"/>
      <use x="124.755859" xlink:href="#DejaVuSans-109"/>
      <use x="222.167969" xlink:href="#DejaVuSans-112"/>
      <use x="285.644531" xlink:href="#DejaVuSans-108"/>
      <use x="313.427734" xlink:href="#DejaVuSans-101"/>
      <use x="374.951172" xlink:href="#DejaVuSans-32"/>
      <use x="406.738281" xlink:href="#DejaVuSans-54"/>
     </g>
    </g>
   </g>
   <g id="line2d_2"/>
   <g id="line2d_3"/>
   <g id="line2d_4"/>
   <g id="line2d_5"/>
   <g id="line2d_6"/>
   <g id="line2d_7"/>
   <g id="line2d_8"/>
   <g id="line2d_9"/>
   <g id="line2d_10"/>
   <g id="line2d_11"/>
   <g id="line2d_12"/>
   <g id="line2d_13">
    <path clip-path="url(#p6d4dc92df8)" d="M 132.437662 33.780909 
L 132.437662 39.764545 
" style="fill:none;stroke:#8b8b8b;stroke-linecap:square;stroke-width:1.5;"/>
   </g>
   <g id="line2d_14">
    <path clip-path="url(#p6d4dc92df8)" d="M 188.685846 53.726364 
L 188.685846 59.71 
" style="fill:none;stroke:#8b8b8b;stroke-linecap:square;stroke-width:1.5;"/>
   </g>
   <g id="line2d_15">
    <path clip-path="url(#p6d4dc92df8)" d="M 182.667421 73.671818 
L 182.667421 79.655455 
" style="fill:none;stroke:#8b8b8b;stroke-linecap:square;stroke-width:1.5;"/>
   </g>
   <g id="line2d_16">
    <path clip-path="url(#p6d4dc92df8)" d="M 215.763625 93.617273 
L 215.763625 99.600909 
" style="fill:none;stroke:#8b8b8b;stroke-linecap:square;stroke-width:1.5;"/>
   </g>
   <g id="line2d_17">
    <path clip-path="url(#p6d4dc92df8)" d="M 213.788585 113.562727 
L 213.788585 119.546364 
" style="fill:none;stroke:#8b8b8b;stroke-linecap:square;stroke-width:1.5;"/>
   </g>
   <g id="line2d_18">
    <path clip-path="url(#p6d4dc92df8)" d="M 196.979246 133.508182 
L 196.979246 139.491818 
" style="fill:none;stroke:#8b8b8b;stroke-linecap:square;stroke-width:1.5;"/>
   </g>
   <g id="line2d_19">
    <path clip-path="url(#p6d4dc92df8)" d="M 216.819922 153.453636 
L 216.819922 159.437273 
" style="fill:none;stroke:#8b8b8b;stroke-linecap:square;stroke-width:1.5;"/>
   </g>
   <g id="line2d_20">
    <path clip-path="url(#p6d4dc92df8)" d="M 231.150662 173.399091 
L 231.150662 179.382727 
" style="fill:none;stroke:#8b8b8b;stroke-linecap:square;stroke-width:1.5;"/>
   </g>
   <g id="line2d_21">
    <path clip-path="url(#p6d4dc92df8)" d="M 242.211578 193.344545 
L 242.211578 199.328182 
" style="fill:none;stroke:#8b8b8b;stroke-linecap:square;stroke-width:1.5;"/>
   </g>
   <g id="line2d_22">
    <path clip-path="url(#p6d4dc92df8)" d="M 262.110572 213.29 
L 262.110572 219.273636 
" style="fill:none;stroke:#8b8b8b;stroke-linecap:square;stroke-width:1.5;"/>
   </g>
   <g id="line2d_23">
    <path clip-path="url(#p6d4dc92df8)" d="M 272.575494 233.235455 
L 272.575494 239.219091 
" style="fill:none;stroke:#8b8b8b;stroke-linecap:square;stroke-width:1.5;"/>
   </g>
  </g>
 </g>
 <defs>
  <clipPath id="p6d4dc92df8">
   <rect height="219.4" width="270.035" x="51.675" y="26.8"/>
  </clipPath>
 </defs>
</svg>
