<?xml version="1.0" encoding="utf-8" standalone="no"?>
<!DOCTYPE svg PUBLIC "-//W3C//DTD SVG 1.1//EN"
  "http://www.w3.org/Graphics/SVG/1.1/DTD/svg11.dtd">
<!-- Created with matplotlib (https://matplotlib.org/) -->
<svg height="432pt" version="1.1" viewBox="0 0 432 432" width="432pt" xmlns="http://www.w3.org/2000/svg" xmlns:xlink="http://www.w3.org/1999/xlink">
 <metadata>
  <rdf:RDF xmlns:cc="http://creativecommons.org/ns#" xmlns:dc="http://purl.org/dc/elements/1.1/" xmlns:rdf="http://www.w3.org/1999/02/22-rdf-syntax-ns#">
   <cc:Work>
    <dc:type rdf:resource="http://purl.org/dc/dcmitype/StillImage"/>
    <dc:date>2022-03-23T21:24:32.798872</dc:date>
    <dc:format>image/svg+xml</dc:format>
    <dc:creator>
     <cc:Agent>
      <dc:title>Matplotlib v3.3.3, https://matplotlib.org/</dc:title>
     </cc:Agent>
    </dc:creator>
   </cc:Work>
  </rdf:RDF>
 </metadata>
 <defs>
  <style type="text/css">*{stroke-linecap:butt;stroke-linejoin:round;}</style>
 </defs>
 <g id="figure_1">
  <g id="patch_1">
   <path d="M 0 432 
L 432 432 
L 432 0 
L 0 0 
z
" style="fill:none;"/>
  </g>
  <g id="patch_2">
   <path d="M 58.32 378 
L 384.48 378 
L 384.48 51.84 
L 58.32 51.84 
z
" style="fill:#ffffff;"/>
  </g>
  <g id="pane3d_1">
   <g id="patch_3">
    <path d="M 82.947329 297.579397 
L 190.656013 207.295842 
L 189.158759 77.090817 
L 76.29566 159.453166 
" style="fill:#f2f2f2;opacity:0.5;stroke:#f2f2f2;stroke-linejoin:miter;"/>
   </g>
  </g>
  <g id="pane3d_2">
   <g id="patch_4">
    <path d="M 190.656013 207.295842 
L 363.49002 257.531864 
L 369.657857 122.842076 
L 189.158759 77.090817 
" style="fill:#e6e6e6;opacity:0.5;stroke:#e6e6e6;stroke-linejoin:miter;"/>
   </g>
  </g>
  <g id="pane3d_3">
   <g id="patch_5">
    <path d="M 82.947329 297.579397 
L 266.159818 357.416595 
L 363.49002 257.531864 
L 190.656013 207.295842 
" style="fill:#ececec;opacity:0.5;stroke:#ececec;stroke-linejoin:miter;"/>
   </g>
  </g>
  <g id="axis3d_1">
   <g id="line2d_1">
    <path d="M 82.947329 297.579397 
L 266.159818 357.416595 
" style="fill:none;stroke:#000000;stroke-linecap:square;stroke-width:0.8;"/>
   </g>
  </g>
  <g id="axis3d_2">
   <g id="line2d_2">
    <path d="M 363.49002 257.531864 
L 266.159818 357.416595 
" style="fill:none;stroke:#000000;stroke-linecap:square;stroke-width:0.8;"/>
   </g>
  </g>
  <g id="axis3d_3">
   <g id="line2d_3">
    <path d="M 363.49002 257.531864 
L 369.657857 122.842076 
" style="fill:none;stroke:#000000;stroke-linecap:square;stroke-width:0.8;"/>
   </g>
  </g>
  <g id="axes_1">
   <g id="line2d_4">
    <path clip-path="url(#pfe139859a6)" d="M 287.114541 311.47168 
L 279.552491 309.229237 
L 270.480262 306.399452 
L 261.4539 303.583975 
L 252.473057 300.782695 
L 243.537392 297.995508 
L 234.646563 295.222305 
L 225.800234 292.462983 
L 216.998072 289.717437 
L 215.248738 286.78358 
L 212.848316 282.757765 
L 211.121077 279.860965 
L 206.104807 276.183613 
L 197.481051 273.518645 
L 188.899611 270.866752 
L 181.987173 268.619826 
L 181.368289 265.115764 
L 180.753424 261.634451 
L 182.75166 257.887704 
L 184.735939 254.167129 
L 189.29491 250.18864 
L 193.819837 246.239862 
L 198.311098 242.320462 
L 202.769068 238.430114 
L 207.194117 234.568496 
L 211.748892 232.729844 
L 219.283779 233.933728 
L 227.642743 236.406852 
L 236.041508 238.891751 
L 241.928083 241.667619 
L 250.40346 244.17766 
L 258.919493 246.699742 
L 266.611035 247.936201 
L 274.320643 249.175564 
L 281.164055 249.117185 
L 288.899411 250.359325 
L 295.749684 250.300815 
L 303.166524 249.478444 
L 307.614585 247.586841 
L 308.629033 250.977117 
L 307.998642 254.007565 
L 305.527449 258.399469 
L 303.960286 262.149823 
L 303.309711 265.244686 
L 303.397087 269.436036 
L 302.740426 272.573272 
L 301.142409 276.424223 
L 301.222141 280.703573 
L 297.911938 284.209107 
L 296.279237 288.143639 
L 294.634723 292.106638 
L 292.978268 296.098412 
L 291.309741 300.119278 
L 289.62901 304.169553 
L 287.935941 308.249562 
L 287.114541 311.47168 
" style="fill:none;stroke:#808080;stroke-linecap:square;stroke-width:1.5;"/>
   </g>
   <g id="line2d_5">
    <path clip-path="url(#pfe139859a6)" d="M 287.523198 291.789806 
L 279.910017 289.572154 
L 270.776679 286.773741 
L 261.689822 283.989569 
L 252.649093 281.21953 
L 243.654141 278.463517 
L 234.70462 275.721424 
L 225.800186 272.993145 
L 216.940499 270.278577 
L 215.179918 267.377921 
L 212.764164 263.397829 
L 211.025965 260.534047 
L 205.977643 256.898753 
L 197.29868 254.264362 
L 188.662578 251.642981 
L 181.706336 249.421972 
L 181.08442 245.958445 
L 180.466567 242.517547 
L 182.478493 238.814457 
L 184.476277 235.137398 
L 189.064942 231.205621 
L 193.619124 227.30339 
L 198.139213 223.430372 
L 202.625588 219.586242 
L 207.078625 215.770677 
L 210.87251 212.711527 
L 218.443867 213.898114 
L 224.285001 216.60825 
L 232.719969 219.058856 
L 238.628775 221.796487 
L 244.569185 224.548761 
L 251.490365 226.666346 
L 259.128332 229.817982 
L 267.756844 232.332301 
L 275.541449 233.565002 
L 283.931418 234.040596 
L 290.261005 234.742425 
L 297.176702 234.684227 
L 303.743265 232.574881 
L 308.793646 229.944044 
L 308.319434 230.826636 
L 308.425507 234.850145 
L 305.199483 238.145664 
L 303.622953 241.844013 
L 303.711761 245.953539 
L 303.054475 249.029579 
L 303.141651 253.195697 
L 302.478156 256.314244 
L 300.864337 260.142482 
L 299.238859 263.998375 
L 297.601597 267.882224 
L 294.991213 272.501727 
L 293.325387 276.447586 
L 292.617803 279.704584 
L 290.932095 283.703354 
L 288.254058 288.460099 
L 287.523198 291.789806 
" style="fill:none;stroke:#808080;stroke-linecap:square;stroke-width:1.5;"/>
   </g>
   <g id="line2d_6">
    <path clip-path="url(#pfe139859a6)" d="M 287.937338 271.843781 
L 280.272333 269.651791 
L 271.077056 266.885844 
L 261.928889 264.134066 
L 252.827469 261.39635 
L 243.772439 258.672588 
L 235.862925 259.551738 
L 230.999397 261.584681 
L 223.721663 261.647473 
L 214.738704 258.922433 
L 218.409767 255.40836 
L 217.644537 251.817168 
L 215.194358 247.853782 
L 213.431507 245.00221 
L 211.012699 241.089567 
L 207.601041 237.885459 
L 198.857438 235.280069 
L 190.157316 232.687634 
L 181.50035 230.108059 
L 180.875036 226.68554 
L 179.238341 223.947079 
L 181.269026 220.283462 
L 184.291065 215.99356 
L 187.911115 212.756314 
L 192.501889 208.896281 
L 197.058051 205.065349 
L 201.579993 201.263192 
L 206.068098 197.489485 
L 210.522744 193.743911 
L 215.740571 191.24407 
L 222.724751 193.128243 
L 228.603442 195.795145 
L 235.469404 197.847016 
L 240.455349 201.171833 
L 246.429073 203.881848 
L 249.844555 206.880579 
L 255.877556 209.621402 
L 261.943252 212.377078 
L 268.041908 215.147729 
L 276.785801 217.653356 
L 285.257291 218.126198 
L 290.735528 217.537902 
L 296.789461 216.197477 
L 303.403515 214.110815 
L 308.490589 211.508357 
L 309.670437 210.835028 
L 308.11202 214.43147 
L 306.542554 218.053407 
L 304.961922 221.701113 
L 303.370004 225.374863 
L 304.399441 228.788698 
L 302.794498 232.513319 
L 302.881452 236.652536 
L 302.21098 239.751145 
L 300.581045 243.555139 
L 298.939225 247.386873 
L 294.59354 251.545435 
L 292.917193 255.435764 
L 292.965886 259.759855 
L 291.27046 263.710889 
L 287.813425 267.280173 
L 287.841665 271.701382 
L 287.937338 271.843781 
" style="fill:none;stroke:#808080;stroke-linecap:square;stroke-width:1.5;"/>
   </g>
   <g id="line2d_7">
    <path clip-path="url(#pfe139859a6)" d="M 296.474027 212.682765 
L 296.025486 210.426633 
L 297.704929 206.668669 
L 296.66658 203.225006 
L 296.603048 199.140073 
L 292.888853 196.029854 
L 289.197541 192.938797 
L 282.027322 192.996715 
L 276.079949 196.400937 
L 274.338247 200.083044 
L 272.583721 203.792265 
L 275.274473 207.625806 
L 277.235719 210.420015 
L 279.961928 214.304071 
L 280.954152 217.823785 
L 279.193402 221.66504 
L 275.654067 225.135445 
L 269.831492 225.76436 
L 260.849527 225.258867 
L 256.212667 229.457871 
L 250.35381 230.092064 
L 242.914928 230.154365 
L 234.577449 228.831878 
L 226.261196 227.512758 
L 217.966091 226.196992 
L 209.866664 227.067483 
L 209.570137 231.382734 
L 208.577089 234.614196 
L 203.683558 238.889785 
L 196.031366 236.719835 
L 186.863244 233.981963 
L 177.743077 231.258413 
L 168.670492 228.549072 
L 164.173062 225.954266 
L 160.78032 222.676392 
L 162.985247 218.827597 
L 163.469401 214.615819 
L 154.578457 211.992499 
L 152.951446 209.189662 
L 150.719274 205.344322 
L 149.113388 202.577875 
L 146.910104 198.782299 
L 150.781117 195.486504 
L 155.679694 191.557629 
L 160.540039 187.659418 
L 164.670386 184.535063 
L 172.473533 183.734656 
L 178.797415 182.414371 
L 183.524053 178.587058 
L 181.246655 174.969341 
L 177.969312 172.006488 
L 174.71168 169.061454 
L 178.380325 165.957192 
L 182.366063 162.967434 
L 189.326654 162.912941 
L 196.286463 162.858453 
L 203.09481 160.883602 
L 207.627102 157.220681 
L 210.506325 153.239366 
L 207.214962 150.405954 
L 201.360185 147.845308 
L 196.313914 146.468716 
L 198.036156 144.926762 
L 203.443688 144.39239 
L 210.108421 142.491923 
L 216.121434 141.279167 
L 221.498155 140.74888 
L 229.110803 141.855966 
L 235.002696 144.384559 
L 240.926062 146.926659 
L 245.256698 149.139321 
L 248.656086 151.965233 
L 252.07562 154.807891 
L 255.515479 157.667447 
L 258.975846 160.544049 
L 261.501719 164.056107 
L 263.342272 166.615274 
L 264.233456 169.813562 
L 266.802867 173.393334 
L 268.675259 176.002 
L 272.241542 178.989114 
L 275.829558 181.994431 
L 281.137637 185.387395 
L 289.782178 185.854598 
L 294.432938 184.005818 
L 301.185256 181.944032 
L 306.380402 179.372836 
L 307.585385 178.707638 
L 305.98802 182.260853 
L 304.379103 185.839767 
L 305.425357 189.165772 
L 303.803123 192.794894 
L 303.895289 196.828382 
L 303.21902 199.848117 
L 301.571211 203.555605 
L 299.911227 207.290488 
L 295.511436 211.344347 
L 296.474027 212.682765 
" style="fill:none;stroke:#808080;stroke-linecap:square;stroke-width:1.5;"/>
   </g>
   <g id="line2d_8">
    <path clip-path="url(#pfe139859a6)" d="M 259.471551 205.017932 
L 251.532038 202.871843 
L 242.945448 201.547401 
L 233.462001 198.847003 
L 224.933171 197.533087 
L 216.426586 196.222597 
L 206.35859 194.351613 
L 201.218591 196.345773 
L 191.895016 193.673111 
L 182.620962 191.014644 
L 173.396036 188.370259 
L 165.96967 186.130504 
L 160.775458 182.54172 
L 159.08908 179.749783 
L 156.775849 175.920042 
L 156.202534 172.499916 
L 151.739968 170.047502 
L 149.47762 166.292531 
L 143.357384 163.497699 
L 144.533917 160.534088 
L 144.011458 157.219977 
L 149.015196 153.380679 
L 153.97926 149.571823 
L 158.904119 145.793047 
L 164.567498 143.271981 
L 170.289383 142.70948 
L 178.17991 141.933788 
L 182.970811 138.214976 
L 180.665781 134.700166 
L 174.65695 132.083515 
L 173.01914 129.568586 
L 177.767832 125.945837 
L 182.479944 122.350996 
L 187.155896 118.783741 
L 183.874134 116.001713 
L 176.349208 113.152136 
L 170.48916 110.653658 
L 174.908153 108.895846 
L 180.312164 106.565946 
L 184.259758 103.78134 
L 189.610033 101.477345 
L 196.360548 99.6468 
L 201.802053 99.134728 
L 210.104093 99.546214 
L 217.782811 100.616249 
L 224.852738 102.349504 
L 230.806248 104.802925 
L 239.394729 107.021582 
L 248.025092 109.251058 
L 254.086859 111.741896 
L 260.18166 114.246308 
L 263.686633 117.017753 
L 267.212748 119.805917 
L 269.083641 122.268641 
L 271.683653 125.691132 
L 273.578404 128.18526 
L 276.211678 131.651536 
L 279.832164 134.528813 
L 281.766898 137.070477 
L 287.140109 140.336591 
L 293.517933 142.999484 
L 303.223325 144.683396 
L 307.141863 143.760901 
L 305.512567 147.253207 
L 306.578736 150.49907 
L 304.935772 154.041125 
L 305.034002 157.97831 
L 303.787977 156.73963 
L 296.505056 154.891657 
L 289.556948 156.952237 
L 285.098254 160.82019 
L 285.115366 164.813209 
L 286.130581 168.179794 
L 287.152852 171.569776 
L 286.40454 174.601457 
L 284.643593 178.324356 
L 280.065531 182.366017 
L 274.487536 185.098996 
L 269.835949 189.196521 
L 262.9459 188.464346 
L 257.285876 191.231155 
L 255.573024 194.914962 
L 260.416589 197.493918 
L 258.513598 201.392765 
L 259.471551 205.017932 
" style="fill:none;stroke:#808080;stroke-linecap:square;stroke-width:1.5;"/>
   </g>
   <g id="Path3DCollection_1">
    <defs>
     <path d="M 0 5 
C 1.326016 5 2.597899 4.473168 3.535534 3.535534 
C 4.473168 2.597899 5 1.326016 5 -0 
C 5 -1.326016 4.473168 -2.597899 3.535534 -3.535534 
C 2.597899 -4.473168 1.326016 -5 0 -5 
C -1.326016 -5 -2.597899 -4.473168 -3.535534 -3.535534 
C -4.473168 -2.597899 -5 -1.326016 -5 0 
C -5 1.326016 -4.473168 2.597899 -3.535534 3.535534 
C -2.597899 4.473168 -1.326016 5 0 5 
z
" id="C0_0_645c038fa6"/>
    </defs>
    <g clip-path="url(#pfe139859a6)">
     <use style="fill:#ff0000;fill-opacity:0.3;stroke:#ff0000;stroke-opacity:0.3;" x="235.778264" xlink:href="#C0_0_645c038fa6" y="228.886793"/>
    </g>
    <g clip-path="url(#pfe139859a6)">
     <use style="fill:#ff0000;fill-opacity:0.326439;stroke:#ff0000;stroke-opacity:0.326439;" x="225.376327" xlink:href="#C0_0_645c038fa6" y="256.237089"/>
    </g>
    <g clip-path="url(#pfe139859a6)">
     <use style="fill:#ff0000;fill-opacity:0.376172;stroke:#ff0000;stroke-opacity:0.376172;" x="271.399084" xlink:href="#C0_0_645c038fa6" y="258.336108"/>
    </g>
    <g clip-path="url(#pfe139859a6)">
     <use style="fill:#ff0000;fill-opacity:0.541256;stroke:#ff0000;stroke-opacity:0.541256;" x="294.71374" xlink:href="#C0_0_645c038fa6" y="238.817817"/>
    </g>
    <g clip-path="url(#pfe139859a6)">
     <use style="fill:#ff0000;stroke:#ff0000;" x="258.530756" xlink:href="#C0_0_645c038fa6" y="257.701512"/>
    </g>
   </g>
   <g id="text_1">
    <!-- L6 IT cell has Timp3 peripheral score 0.04 -->
    <g transform="translate(95.685 45.84)scale(0.12 -0.12)">
     <defs>
      <path d="M 9.8125 72.90625 
L 19.671875 72.90625 
L 19.671875 8.296875 
L 55.171875 8.296875 
L 55.171875 0 
L 9.8125 0 
z
" id="DejaVuSans-76"/>
      <path d="M 33.015625 40.375 
Q 26.375 40.375 22.484375 35.828125 
Q 18.609375 31.296875 18.609375 23.390625 
Q 18.609375 15.53125 22.484375 10.953125 
Q 26.375 6.390625 33.015625 6.390625 
Q 39.65625 6.390625 43.53125 10.953125 
Q 47.40625 15.53125 47.40625 23.390625 
Q 47.40625 31.296875 43.53125 35.828125 
Q 39.65625 40.375 33.015625 40.375 
z
M 52.59375 71.296875 
L 52.59375 62.3125 
Q 48.875 64.0625 45.09375 64.984375 
Q 41.3125 65.921875 37.59375 65.921875 
Q 27.828125 65.921875 22.671875 59.328125 
Q 17.53125 52.734375 16.796875 39.40625 
Q 19.671875 43.65625 24.015625 45.921875 
Q 28.375 48.1875 33.59375 48.1875 
Q 44.578125 48.1875 50.953125 41.515625 
Q 57.328125 34.859375 57.328125 23.390625 
Q 57.328125 12.15625 50.6875 5.359375 
Q 44.046875 -1.421875 33.015625 -1.421875 
Q 20.359375 -1.421875 13.671875 8.265625 
Q 6.984375 17.96875 6.984375 36.375 
Q 6.984375 53.65625 15.1875 63.9375 
Q 23.390625 74.21875 37.203125 74.21875 
Q 40.921875 74.21875 44.703125 73.484375 
Q 48.484375 72.75 52.59375 71.296875 
z
" id="DejaVuSans-54"/>
      <path id="DejaVuSans-32"/>
      <path d="M 9.8125 72.90625 
L 19.671875 72.90625 
L 19.671875 0 
L 9.8125 0 
z
" id="DejaVuSans-73"/>
      <path d="M -0.296875 72.90625 
L 61.375 72.90625 
L 61.375 64.59375 
L 35.5 64.59375 
L 35.5 0 
L 25.59375 0 
L 25.59375 64.59375 
L -0.296875 64.59375 
z
" id="DejaVuSans-84"/>
      <path d="M 48.78125 52.59375 
L 48.78125 44.1875 
Q 44.96875 46.296875 41.140625 47.34375 
Q 37.3125 48.390625 33.40625 48.390625 
Q 24.65625 48.390625 19.8125 42.84375 
Q 14.984375 37.3125 14.984375 27.296875 
Q 14.984375 17.28125 19.8125 11.734375 
Q 24.65625 6.203125 33.40625 6.203125 
Q 37.3125 6.203125 41.140625 7.25 
Q 44.96875 8.296875 48.78125 10.40625 
L 48.78125 2.09375 
Q 45.015625 0.34375 40.984375 -0.53125 
Q 36.96875 -1.421875 32.421875 -1.421875 
Q 20.0625 -1.421875 12.78125 6.34375 
Q 5.515625 14.109375 5.515625 27.296875 
Q 5.515625 40.671875 12.859375 48.328125 
Q 20.21875 56 33.015625 56 
Q 37.15625 56 41.109375 55.140625 
Q 45.0625 54.296875 48.78125 52.59375 
z
" id="DejaVuSans-99"/>
      <path d="M 56.203125 29.59375 
L 56.203125 25.203125 
L 14.890625 25.203125 
Q 15.484375 15.921875 20.484375 11.0625 
Q 25.484375 6.203125 34.421875 6.203125 
Q 39.59375 6.203125 44.453125 7.46875 
Q 49.3125 8.734375 54.109375 11.28125 
L 54.109375 2.78125 
Q 49.265625 0.734375 44.1875 -0.34375 
Q 39.109375 -1.421875 33.890625 -1.421875 
Q 20.796875 -1.421875 13.15625 6.1875 
Q 5.515625 13.8125 5.515625 26.8125 
Q 5.515625 40.234375 12.765625 48.109375 
Q 20.015625 56 32.328125 56 
Q 43.359375 56 49.78125 48.890625 
Q 56.203125 41.796875 56.203125 29.59375 
z
M 47.21875 32.234375 
Q 47.125 39.59375 43.09375 43.984375 
Q 39.0625 48.390625 32.421875 48.390625 
Q 24.90625 48.390625 20.390625 44.140625 
Q 15.875 39.890625 15.1875 32.171875 
z
" id="DejaVuSans-101"/>
      <path d="M 9.421875 75.984375 
L 18.40625 75.984375 
L 18.40625 0 
L 9.421875 0 
z
" id="DejaVuSans-108"/>
      <path d="M 54.890625 33.015625 
L 54.890625 0 
L 45.90625 0 
L 45.90625 32.71875 
Q 45.90625 40.484375 42.875 44.328125 
Q 39.84375 48.1875 33.796875 48.1875 
Q 26.515625 48.1875 22.3125 43.546875 
Q 18.109375 38.921875 18.109375 30.90625 
L 18.109375 0 
L 9.078125 0 
L 9.078125 75.984375 
L 18.109375 75.984375 
L 18.109375 46.1875 
Q 21.34375 51.125 25.703125 53.5625 
Q 30.078125 56 35.796875 56 
Q 45.21875 56 50.046875 50.171875 
Q 54.890625 44.34375 54.890625 33.015625 
z
" id="DejaVuSans-104"/>
      <path d="M 34.28125 27.484375 
Q 23.390625 27.484375 19.1875 25 
Q 14.984375 22.515625 14.984375 16.5 
Q 14.984375 11.71875 18.140625 8.90625 
Q 21.296875 6.109375 26.703125 6.109375 
Q 34.1875 6.109375 38.703125 11.40625 
Q 43.21875 16.703125 43.21875 25.484375 
L 43.21875 27.484375 
z
M 52.203125 31.203125 
L 52.203125 0 
L 43.21875 0 
L 43.21875 8.296875 
Q 40.140625 3.328125 35.546875 0.953125 
Q 30.953125 -1.421875 24.3125 -1.421875 
Q 15.921875 -1.421875 10.953125 3.296875 
Q 6 8.015625 6 15.921875 
Q 6 25.140625 12.171875 29.828125 
Q 18.359375 34.515625 30.609375 34.515625 
L 43.21875 34.515625 
L 43.21875 35.40625 
Q 43.21875 41.609375 39.140625 45 
Q 35.0625 48.390625 27.6875 48.390625 
Q 23 48.390625 18.546875 47.265625 
Q 14.109375 46.140625 10.015625 43.890625 
L 10.015625 52.203125 
Q 14.9375 54.109375 19.578125 55.046875 
Q 24.21875 56 28.609375 56 
Q 40.484375 56 46.34375 49.84375 
Q 52.203125 43.703125 52.203125 31.203125 
z
" id="DejaVuSans-97"/>
      <path d="M 44.28125 53.078125 
L 44.28125 44.578125 
Q 40.484375 46.53125 36.375 47.5 
Q 32.28125 48.484375 27.875 48.484375 
Q 21.1875 48.484375 17.84375 46.4375 
Q 14.5 44.390625 14.5 40.28125 
Q 14.5 37.15625 16.890625 35.375 
Q 19.28125 33.59375 26.515625 31.984375 
L 29.59375 31.296875 
Q 39.15625 29.25 43.1875 25.515625 
Q 47.21875 21.78125 47.21875 15.09375 
Q 47.21875 7.46875 41.1875 3.015625 
Q 35.15625 -1.421875 24.609375 -1.421875 
Q 20.21875 -1.421875 15.453125 -0.5625 
Q 10.6875 0.296875 5.421875 2 
L 5.421875 11.28125 
Q 10.40625 8.6875 15.234375 7.390625 
Q 20.0625 6.109375 24.8125 6.109375 
Q 31.15625 6.109375 34.5625 8.28125 
Q 37.984375 10.453125 37.984375 14.40625 
Q 37.984375 18.0625 35.515625 20.015625 
Q 33.0625 21.96875 24.703125 23.78125 
L 21.578125 24.515625 
Q 13.234375 26.265625 9.515625 29.90625 
Q 5.8125 33.546875 5.8125 39.890625 
Q 5.8125 47.609375 11.28125 51.796875 
Q 16.75 56 26.8125 56 
Q 31.78125 56 36.171875 55.265625 
Q 40.578125 54.546875 44.28125 53.078125 
z
" id="DejaVuSans-115"/>
      <path d="M 9.421875 54.6875 
L 18.40625 54.6875 
L 18.40625 0 
L 9.421875 0 
z
M 9.421875 75.984375 
L 18.40625 75.984375 
L 18.40625 64.59375 
L 9.421875 64.59375 
z
" id="DejaVuSans-105"/>
      <path d="M 52 44.1875 
Q 55.375 50.25 60.0625 53.125 
Q 64.75 56 71.09375 56 
Q 79.640625 56 84.28125 50.015625 
Q 88.921875 44.046875 88.921875 33.015625 
L 88.921875 0 
L 79.890625 0 
L 79.890625 32.71875 
Q 79.890625 40.578125 77.09375 44.375 
Q 74.3125 48.1875 68.609375 48.1875 
Q 61.625 48.1875 57.5625 43.546875 
Q 53.515625 38.921875 53.515625 30.90625 
L 53.515625 0 
L 44.484375 0 
L 44.484375 32.71875 
Q 44.484375 40.625 41.703125 44.40625 
Q 38.921875 48.1875 33.109375 48.1875 
Q 26.21875 48.1875 22.15625 43.53125 
Q 18.109375 38.875 18.109375 30.90625 
L 18.109375 0 
L 9.078125 0 
L 9.078125 54.6875 
L 18.109375 54.6875 
L 18.109375 46.1875 
Q 21.1875 51.21875 25.484375 53.609375 
Q 29.78125 56 35.6875 56 
Q 41.65625 56 45.828125 52.96875 
Q 50 49.953125 52 44.1875 
z
" id="DejaVuSans-109"/>
      <path d="M 18.109375 8.203125 
L 18.109375 -20.796875 
L 9.078125 -20.796875 
L 9.078125 54.6875 
L 18.109375 54.6875 
L 18.109375 46.390625 
Q 20.953125 51.265625 25.265625 53.625 
Q 29.59375 56 35.59375 56 
Q 45.5625 56 51.78125 48.09375 
Q 58.015625 40.1875 58.015625 27.296875 
Q 58.015625 14.40625 51.78125 6.484375 
Q 45.5625 -1.421875 35.59375 -1.421875 
Q 29.59375 -1.421875 25.265625 0.953125 
Q 20.953125 3.328125 18.109375 8.203125 
z
M 48.6875 27.296875 
Q 48.6875 37.203125 44.609375 42.84375 
Q 40.53125 48.484375 33.40625 48.484375 
Q 26.265625 48.484375 22.1875 42.84375 
Q 18.109375 37.203125 18.109375 27.296875 
Q 18.109375 17.390625 22.1875 11.75 
Q 26.265625 6.109375 33.40625 6.109375 
Q 40.53125 6.109375 44.609375 11.75 
Q 48.6875 17.390625 48.6875 27.296875 
z
" id="DejaVuSans-112"/>
      <path d="M 40.578125 39.3125 
Q 47.65625 37.796875 51.625 33 
Q 55.609375 28.21875 55.609375 21.1875 
Q 55.609375 10.40625 48.1875 4.484375 
Q 40.765625 -1.421875 27.09375 -1.421875 
Q 22.515625 -1.421875 17.65625 -0.515625 
Q 12.796875 0.390625 7.625 2.203125 
L 7.625 11.71875 
Q 11.71875 9.328125 16.59375 8.109375 
Q 21.484375 6.890625 26.8125 6.890625 
Q 36.078125 6.890625 40.9375 10.546875 
Q 45.796875 14.203125 45.796875 21.1875 
Q 45.796875 27.640625 41.28125 31.265625 
Q 36.765625 34.90625 28.71875 34.90625 
L 20.21875 34.90625 
L 20.21875 43.015625 
L 29.109375 43.015625 
Q 36.375 43.015625 40.234375 45.921875 
Q 44.09375 48.828125 44.09375 54.296875 
Q 44.09375 59.90625 40.109375 62.90625 
Q 36.140625 65.921875 28.71875 65.921875 
Q 24.65625 65.921875 20.015625 65.03125 
Q 15.375 64.15625 9.8125 62.3125 
L 9.8125 71.09375 
Q 15.4375 72.65625 20.34375 73.4375 
Q 25.25 74.21875 29.59375 74.21875 
Q 40.828125 74.21875 47.359375 69.109375 
Q 53.90625 64.015625 53.90625 55.328125 
Q 53.90625 49.265625 50.4375 45.09375 
Q 46.96875 40.921875 40.578125 39.3125 
z
" id="DejaVuSans-51"/>
      <path d="M 41.109375 46.296875 
Q 39.59375 47.171875 37.8125 47.578125 
Q 36.03125 48 33.890625 48 
Q 26.265625 48 22.1875 43.046875 
Q 18.109375 38.09375 18.109375 28.8125 
L 18.109375 0 
L 9.078125 0 
L 9.078125 54.6875 
L 18.109375 54.6875 
L 18.109375 46.1875 
Q 20.953125 51.171875 25.484375 53.578125 
Q 30.03125 56 36.53125 56 
Q 37.453125 56 38.578125 55.875 
Q 39.703125 55.765625 41.0625 55.515625 
z
" id="DejaVuSans-114"/>
      <path d="M 30.609375 48.390625 
Q 23.390625 48.390625 19.1875 42.75 
Q 14.984375 37.109375 14.984375 27.296875 
Q 14.984375 17.484375 19.15625 11.84375 
Q 23.34375 6.203125 30.609375 6.203125 
Q 37.796875 6.203125 41.984375 11.859375 
Q 46.1875 17.53125 46.1875 27.296875 
Q 46.1875 37.015625 41.984375 42.703125 
Q 37.796875 48.390625 30.609375 48.390625 
z
M 30.609375 56 
Q 42.328125 56 49.015625 48.375 
Q 55.71875 40.765625 55.71875 27.296875 
Q 55.71875 13.875 49.015625 6.21875 
Q 42.328125 -1.421875 30.609375 -1.421875 
Q 18.84375 -1.421875 12.171875 6.21875 
Q 5.515625 13.875 5.515625 27.296875 
Q 5.515625 40.765625 12.171875 48.375 
Q 18.84375 56 30.609375 56 
z
" id="DejaVuSans-111"/>
      <path d="M 31.78125 66.40625 
Q 24.171875 66.40625 20.328125 58.90625 
Q 16.5 51.421875 16.5 36.375 
Q 16.5 21.390625 20.328125 13.890625 
Q 24.171875 6.390625 31.78125 6.390625 
Q 39.453125 6.390625 43.28125 13.890625 
Q 47.125 21.390625 47.125 36.375 
Q 47.125 51.421875 43.28125 58.90625 
Q 39.453125 66.40625 31.78125 66.40625 
z
M 31.78125 74.21875 
Q 44.046875 74.21875 50.515625 64.515625 
Q 56.984375 54.828125 56.984375 36.375 
Q 56.984375 17.96875 50.515625 8.265625 
Q 44.046875 -1.421875 31.78125 -1.421875 
Q 19.53125 -1.421875 13.0625 8.265625 
Q 6.59375 17.96875 6.59375 36.375 
Q 6.59375 54.828125 13.0625 64.515625 
Q 19.53125 74.21875 31.78125 74.21875 
z
" id="DejaVuSans-48"/>
      <path d="M 10.6875 12.40625 
L 21 12.40625 
L 21 0 
L 10.6875 0 
z
" id="DejaVuSans-46"/>
      <path d="M 37.796875 64.3125 
L 12.890625 25.390625 
L 37.796875 25.390625 
z
M 35.203125 72.90625 
L 47.609375 72.90625 
L 47.609375 25.390625 
L 58.015625 25.390625 
L 58.015625 17.1875 
L 47.609375 17.1875 
L 47.609375 0 
L 37.796875 0 
L 37.796875 17.1875 
L 4.890625 17.1875 
L 4.890625 26.703125 
z
" id="DejaVuSans-52"/>
     </defs>
     <use xlink:href="#DejaVuSans-76"/>
     <use x="55.712891" xlink:href="#DejaVuSans-54"/>
     <use x="119.335938" xlink:href="#DejaVuSans-32"/>
     <use x="151.123047" xlink:href="#DejaVuSans-73"/>
     <use x="180.615234" xlink:href="#DejaVuSans-84"/>
     <use x="241.699219" xlink:href="#DejaVuSans-32"/>
     <use x="273.486328" xlink:href="#DejaVuSans-99"/>
     <use x="328.466797" xlink:href="#DejaVuSans-101"/>
     <use x="389.990234" xlink:href="#DejaVuSans-108"/>
     <use x="417.773438" xlink:href="#DejaVuSans-108"/>
     <use x="445.556641" xlink:href="#DejaVuSans-32"/>
     <use x="477.34375" xlink:href="#DejaVuSans-104"/>
     <use x="540.722656" xlink:href="#DejaVuSans-97"/>
     <use x="602.001953" xlink:href="#DejaVuSans-115"/>
     <use x="654.101562" xlink:href="#DejaVuSans-32"/>
     <use x="685.888672" xlink:href="#DejaVuSans-84"/>
     <use x="743.847656" xlink:href="#DejaVuSans-105"/>
     <use x="771.630859" xlink:href="#DejaVuSans-109"/>
     <use x="869.042969" xlink:href="#DejaVuSans-112"/>
     <use x="932.519531" xlink:href="#DejaVuSans-51"/>
     <use x="996.142578" xlink:href="#DejaVuSans-32"/>
     <use x="1027.929688" xlink:href="#DejaVuSans-112"/>
     <use x="1091.40625" xlink:href="#DejaVuSans-101"/>
     <use x="1152.929688" xlink:href="#DejaVuSans-114"/>
     <use x="1194.042969" xlink:href="#DejaVuSans-105"/>
     <use x="1221.826172" xlink:href="#DejaVuSans-112"/>
     <use x="1285.302734" xlink:href="#DejaVuSans-104"/>
     <use x="1348.681641" xlink:href="#DejaVuSans-101"/>
     <use x="1410.205078" xlink:href="#DejaVuSans-114"/>
     <use x="1451.318359" xlink:href="#DejaVuSans-97"/>
     <use x="1512.597656" xlink:href="#DejaVuSans-108"/>
     <use x="1540.380859" xlink:href="#DejaVuSans-32"/>
     <use x="1572.167969" xlink:href="#DejaVuSans-115"/>
     <use x="1624.267578" xlink:href="#DejaVuSans-99"/>
     <use x="1679.248047" xlink:href="#DejaVuSans-111"/>
     <use x="1740.429688" xlink:href="#DejaVuSans-114"/>
     <use x="1779.292969" xlink:href="#DejaVuSans-101"/>
     <use x="1840.816406" xlink:href="#DejaVuSans-32"/>
     <use x="1872.603516" xlink:href="#DejaVuSans-48"/>
     <use x="1936.226562" xlink:href="#DejaVuSans-46"/>
     <use x="1968.013672" xlink:href="#DejaVuSans-48"/>
     <use x="2031.636719" xlink:href="#DejaVuSans-52"/>
    </g>
   </g>
   <g id="Path3DCollection_2">
    <defs>
     <path d="M 0 3 
C 0.795609 3 1.55874 2.683901 2.12132 2.12132 
C 2.683901 1.55874 3 0.795609 3 -0 
C 3 -0.795609 2.683901 -1.55874 2.12132 -2.12132 
C 1.55874 -2.683901 0.795609 -3 0 -3 
C -0.795609 -3 -1.55874 -2.683901 -2.12132 -2.12132 
C -2.683901 -1.55874 -3 -0.795609 -3 0 
C -3 0.795609 -2.683901 1.55874 -2.12132 2.12132 
C -1.55874 2.683901 -0.795609 3 0 3 
z
" id="C1_0_3289a9411a"/>
    </defs>
    <g clip-path="url(#pfe139859a6)">
     <use style="fill:#808080;fill-opacity:0.3;stroke:#808080;stroke-opacity:0.3;" x="228.902258" xlink:href="#C1_0_3289a9411a" y="144.740061"/>
    </g>
    <g clip-path="url(#pfe139859a6)">
     <use style="fill:#808080;fill-opacity:0.304177;stroke:#808080;stroke-opacity:0.304177;" x="214.44375" xlink:href="#C1_0_3289a9411a" y="145.325121"/>
    </g>
    <g clip-path="url(#pfe139859a6)">
     <use style="fill:#808080;fill-opacity:0.315612;stroke:#808080;stroke-opacity:0.315612;" x="238.536966" xlink:href="#C1_0_3289a9411a" y="223.270722"/>
    </g>
    <g clip-path="url(#pfe139859a6)">
     <use style="fill:#808080;fill-opacity:0.327623;stroke:#808080;stroke-opacity:0.327623;" x="201.961057" xlink:href="#C1_0_3289a9411a" y="225.087568"/>
    </g>
    <g clip-path="url(#pfe139859a6)">
     <use style="fill:#808080;fill-opacity:0.336006;stroke:#808080;stroke-opacity:0.336006;" x="210.817022" xlink:href="#C1_0_3289a9411a" y="226.355677"/>
    </g>
    <g clip-path="url(#pfe139859a6)">
     <use style="fill:#808080;fill-opacity:0.337116;stroke:#808080;stroke-opacity:0.337116;" x="278.689183" xlink:href="#C1_0_3289a9411a" y="252.051899"/>
    </g>
    <g clip-path="url(#pfe139859a6)">
     <use style="fill:#808080;fill-opacity:0.337203;stroke:#808080;stroke-opacity:0.337203;" x="215.429485" xlink:href="#C1_0_3289a9411a" y="149.950951"/>
    </g>
    <g clip-path="url(#pfe139859a6)">
     <use style="fill:#808080;fill-opacity:0.341629;stroke:#808080;stroke-opacity:0.341629;" x="196.287206" xlink:href="#C1_0_3289a9411a" y="227.206215"/>
    </g>
    <g clip-path="url(#pfe139859a6)">
     <use style="fill:#808080;fill-opacity:0.349989;stroke:#808080;stroke-opacity:0.349989;" x="203.022012" xlink:href="#C1_0_3289a9411a" y="254.047274"/>
    </g>
    <g clip-path="url(#pfe139859a6)">
     <use style="fill:#808080;fill-opacity:0.351601;stroke:#808080;stroke-opacity:0.351601;" x="301.9119" xlink:href="#C1_0_3289a9411a" y="254.297184"/>
    </g>
    <g clip-path="url(#pfe139859a6)">
     <use style="fill:#808080;fill-opacity:0.352198;stroke:#808080;stroke-opacity:0.352198;" x="193.79584" xlink:href="#C1_0_3289a9411a" y="254.389736"/>
    </g>
    <g clip-path="url(#pfe139859a6)">
     <use style="fill:#808080;fill-opacity:0.364561;stroke:#808080;stroke-opacity:0.364561;" x="195.299914" xlink:href="#C1_0_3289a9411a" y="256.306046"/>
    </g>
    <g clip-path="url(#pfe139859a6)">
     <use style="fill:#808080;fill-opacity:0.364596;stroke:#808080;stroke-opacity:0.364596;" x="235.70035" xlink:href="#C1_0_3289a9411a" y="153.787717"/>
    </g>
    <g clip-path="url(#pfe139859a6)">
     <use style="fill:#808080;fill-opacity:0.366667;stroke:#808080;stroke-opacity:0.366667;" x="307.816323" xlink:href="#C1_0_3289a9411a" y="230.993768"/>
    </g>
    <g clip-path="url(#pfe139859a6)">
     <use style="fill:#808080;fill-opacity:0.368633;stroke:#808080;stroke-opacity:0.368633;" x="206.856877" xlink:href="#C1_0_3289a9411a" y="231.291129"/>
    </g>
    <g clip-path="url(#pfe139859a6)">
     <use style="fill:#808080;fill-opacity:0.369577;stroke:#808080;stroke-opacity:0.369577;" x="221.970576" xlink:href="#C1_0_3289a9411a" y="154.485451"/>
    </g>
    <g clip-path="url(#pfe139859a6)">
     <use style="fill:#808080;fill-opacity:0.369927;stroke:#808080;stroke-opacity:0.369927;" x="222.768612" xlink:href="#C1_0_3289a9411a" y="257.137741"/>
    </g>
    <g clip-path="url(#pfe139859a6)">
     <use style="fill:#808080;fill-opacity:0.373871;stroke:#808080;stroke-opacity:0.373871;" x="206.7909" xlink:href="#C1_0_3289a9411a" y="257.749181"/>
    </g>
    <g clip-path="url(#pfe139859a6)">
     <use style="fill:#808080;fill-opacity:0.385908;stroke:#808080;stroke-opacity:0.385908;" x="279.495152" xlink:href="#C1_0_3289a9411a" y="233.904383"/>
    </g>
    <g clip-path="url(#pfe139859a6)">
     <use style="fill:#808080;fill-opacity:0.404709;stroke:#808080;stroke-opacity:0.404709;" x="209.119258" xlink:href="#C1_0_3289a9411a" y="159.406215"/>
    </g>
    <g clip-path="url(#pfe139859a6)">
     <use style="fill:#808080;fill-opacity:0.405682;stroke:#808080;stroke-opacity:0.405682;" x="219.275696" xlink:href="#C1_0_3289a9411a" y="159.542486"/>
    </g>
    <g clip-path="url(#pfe139859a6)">
     <use style="fill:#808080;fill-opacity:0.406445;stroke:#808080;stroke-opacity:0.406445;" x="219.610087" xlink:href="#C1_0_3289a9411a" y="237.010989"/>
    </g>
    <g clip-path="url(#pfe139859a6)">
     <use style="fill:#808080;fill-opacity:0.411389;stroke:#808080;stroke-opacity:0.411389;" x="219.174738" xlink:href="#C1_0_3289a9411a" y="211.953267"/>
    </g>
    <g clip-path="url(#pfe139859a6)">
     <use style="fill:#808080;fill-opacity:0.423254;stroke:#808080;stroke-opacity:0.423254;" x="189.45379" xlink:href="#C1_0_3289a9411a" y="265.403836"/>
    </g>
    <g clip-path="url(#pfe139859a6)">
     <use style="fill:#808080;fill-opacity:0.426894;stroke:#808080;stroke-opacity:0.426894;" x="226.222279" xlink:href="#C1_0_3289a9411a" y="214.240759"/>
    </g>
    <g clip-path="url(#pfe139859a6)">
     <use style="fill:#808080;fill-opacity:0.430205;stroke:#808080;stroke-opacity:0.430205;" x="215.271987" xlink:href="#C1_0_3289a9411a" y="162.977352"/>
    </g>
    <g clip-path="url(#pfe139859a6)">
     <use style="fill:#808080;fill-opacity:0.43077;stroke:#808080;stroke-opacity:0.43077;" x="227.018256" xlink:href="#C1_0_3289a9411a" y="240.69073"/>
    </g>
    <g clip-path="url(#pfe139859a6)">
     <use style="fill:#808080;fill-opacity:0.437497;stroke:#808080;stroke-opacity:0.437497;" x="250.08339" xlink:href="#C1_0_3289a9411a" y="112.192322"/>
    </g>
    <g clip-path="url(#pfe139859a6)">
     <use style="fill:#808080;fill-opacity:0.437514;stroke:#808080;stroke-opacity:0.437514;" x="195.652917" xlink:href="#C1_0_3289a9411a" y="164.001145"/>
    </g>
    <g clip-path="url(#pfe139859a6)">
     <use style="fill:#808080;fill-opacity:0.437867;stroke:#808080;stroke-opacity:0.437867;" x="242.25313" xlink:href="#C1_0_3289a9411a" y="241.764296"/>
    </g>
    <g clip-path="url(#pfe139859a6)">
     <use style="fill:#808080;fill-opacity:0.44441;stroke:#808080;stroke-opacity:0.44441;" x="249.375758" xlink:href="#C1_0_3289a9411a" y="242.754048"/>
    </g>
    <g clip-path="url(#pfe139859a6)">
     <use style="fill:#808080;fill-opacity:0.446906;stroke:#808080;stroke-opacity:0.446906;" x="200.14221" xlink:href="#C1_0_3289a9411a" y="165.316519"/>
    </g>
    <g clip-path="url(#pfe139859a6)">
     <use style="fill:#808080;fill-opacity:0.453298;stroke:#808080;stroke-opacity:0.453298;" x="185.207711" xlink:href="#C1_0_3289a9411a" y="166.211825"/>
    </g>
    <g clip-path="url(#pfe139859a6)">
     <use style="fill:#808080;fill-opacity:0.453732;stroke:#808080;stroke-opacity:0.453732;" x="274.895085" xlink:href="#C1_0_3289a9411a" y="218.2004"/>
    </g>
    <g clip-path="url(#pfe139859a6)">
     <use style="fill:#808080;fill-opacity:0.454047;stroke:#808080;stroke-opacity:0.454047;" x="228.548564" xlink:href="#C1_0_3289a9411a" y="166.316751"/>
    </g>
    <g clip-path="url(#pfe139859a6)">
     <use style="fill:#808080;fill-opacity:0.458289;stroke:#808080;stroke-opacity:0.458289;" x="236.246344" xlink:href="#C1_0_3289a9411a" y="114.949169"/>
    </g>
    <g clip-path="url(#pfe139859a6)">
     <use style="fill:#808080;fill-opacity:0.458696;stroke:#808080;stroke-opacity:0.458696;" x="191.090668" xlink:href="#C1_0_3289a9411a" y="166.968013"/>
    </g>
    <g clip-path="url(#pfe139859a6)">
     <use style="fill:#808080;fill-opacity:0.459788;stroke:#808080;stroke-opacity:0.459788;" x="223.780157" xlink:href="#C1_0_3289a9411a" y="115.147964"/>
    </g>
    <g clip-path="url(#pfe139859a6)">
     <use style="fill:#808080;fill-opacity:0.46459;stroke:#808080;stroke-opacity:0.46459;" x="207.813362" xlink:href="#C1_0_3289a9411a" y="167.793552"/>
    </g>
    <g clip-path="url(#pfe139859a6)">
     <use style="fill:#808080;fill-opacity:0.467274;stroke:#808080;stroke-opacity:0.467274;" x="227.230145" xlink:href="#C1_0_3289a9411a" y="272.2272"/>
    </g>
    <g clip-path="url(#pfe139859a6)">
     <use style="fill:#808080;fill-opacity:0.472986;stroke:#808080;stroke-opacity:0.472986;" x="281.512452" xlink:href="#C1_0_3289a9411a" y="221.041063"/>
    </g>
    <g clip-path="url(#pfe139859a6)">
     <use style="fill:#808080;fill-opacity:0.474182;stroke:#808080;stroke-opacity:0.474182;" x="255.530989" xlink:href="#C1_0_3289a9411a" y="273.297926"/>
    </g>
    <g clip-path="url(#pfe139859a6)">
     <use style="fill:#808080;fill-opacity:0.479813;stroke:#808080;stroke-opacity:0.479813;" x="202.881582" xlink:href="#C1_0_3289a9411a" y="169.925761"/>
    </g>
    <g clip-path="url(#pfe139859a6)">
     <use style="fill:#808080;fill-opacity:0.479956;stroke:#808080;stroke-opacity:0.479956;" x="226.482219" xlink:href="#C1_0_3289a9411a" y="248.131173"/>
    </g>
    <g clip-path="url(#pfe139859a6)">
     <use style="fill:#808080;fill-opacity:0.480764;stroke:#808080;stroke-opacity:0.480764;" x="207.4087" xlink:href="#C1_0_3289a9411a" y="170.05898"/>
    </g>
    <g clip-path="url(#pfe139859a6)">
     <use style="fill:#808080;fill-opacity:0.482307;stroke:#808080;stroke-opacity:0.482307;" x="240.88847" xlink:href="#C1_0_3289a9411a" y="248.486774"/>
    </g>
    <g clip-path="url(#pfe139859a6)">
     <use style="fill:#808080;fill-opacity:0.483203;stroke:#808080;stroke-opacity:0.483203;" x="220.789005" xlink:href="#C1_0_3289a9411a" y="248.622344"/>
    </g>
    <g clip-path="url(#pfe139859a6)">
     <use style="fill:#808080;fill-opacity:0.487427;stroke:#808080;stroke-opacity:0.487427;" x="178.336398" xlink:href="#C1_0_3289a9411a" y="170.992127"/>
    </g>
    <g clip-path="url(#pfe139859a6)">
     <use style="fill:#808080;fill-opacity:0.489723;stroke:#808080;stroke-opacity:0.489723;" x="233.845721" xlink:href="#C1_0_3289a9411a" y="171.31383"/>
    </g>
    <g clip-path="url(#pfe139859a6)">
     <use style="fill:#808080;fill-opacity:0.492934;stroke:#808080;stroke-opacity:0.492934;" x="295.02384" xlink:href="#C1_0_3289a9411a" y="223.98412"/>
    </g>
    <g clip-path="url(#pfe139859a6)">
     <use style="fill:#808080;fill-opacity:0.49349;stroke:#808080;stroke-opacity:0.49349;" x="247.420557" xlink:href="#C1_0_3289a9411a" y="119.616729"/>
    </g>
    <g clip-path="url(#pfe139859a6)">
     <use style="fill:#808080;fill-opacity:0.493654;stroke:#808080;stroke-opacity:0.493654;" x="205.948081" xlink:href="#C1_0_3289a9411a" y="250.203286"/>
    </g>
    <g clip-path="url(#pfe139859a6)">
     <use style="fill:#808080;fill-opacity:0.499848;stroke:#808080;stroke-opacity:0.499848;" x="213.408159" xlink:href="#C1_0_3289a9411a" y="251.140231"/>
    </g>
    <g clip-path="url(#pfe139859a6)">
     <use style="fill:#808080;fill-opacity:0.500019;stroke:#808080;stroke-opacity:0.500019;" x="230.859044" xlink:href="#C1_0_3289a9411a" y="277.302818"/>
    </g>
    <g clip-path="url(#pfe139859a6)">
     <use style="fill:#808080;fill-opacity:0.501706;stroke:#808080;stroke-opacity:0.501706;" x="239.443072" xlink:href="#C1_0_3289a9411a" y="172.992147"/>
    </g>
    <g clip-path="url(#pfe139859a6)">
     <use style="fill:#808080;fill-opacity:0.503712;stroke:#808080;stroke-opacity:0.503712;" x="229.531089" xlink:href="#C1_0_3289a9411a" y="225.574271"/>
    </g>
    <g clip-path="url(#pfe139859a6)">
     <use style="fill:#808080;fill-opacity:0.504204;stroke:#808080;stroke-opacity:0.504204;" x="301.65243" xlink:href="#C1_0_3289a9411a" y="251.799128"/>
    </g>
    <g clip-path="url(#pfe139859a6)">
     <use style="fill:#808080;fill-opacity:0.50425;stroke:#808080;stroke-opacity:0.50425;" x="202.357448" xlink:href="#C1_0_3289a9411a" y="173.348508"/>
    </g>
    <g clip-path="url(#pfe139859a6)">
     <use style="fill:#808080;fill-opacity:0.506614;stroke:#808080;stroke-opacity:0.506614;" x="247.498364" xlink:href="#C1_0_3289a9411a" y="121.356916"/>
    </g>
    <g clip-path="url(#pfe139859a6)">
     <use style="fill:#808080;fill-opacity:0.51126;stroke:#808080;stroke-opacity:0.51126;" x="224.039625" xlink:href="#C1_0_3289a9411a" y="121.972897"/>
    </g>
    <g clip-path="url(#pfe139859a6)">
     <use style="fill:#808080;fill-opacity:0.512133;stroke:#808080;stroke-opacity:0.512133;" x="239.428753" xlink:href="#C1_0_3289a9411a" y="122.088761"/>
    </g>
    <g clip-path="url(#pfe139859a6)">
     <use style="fill:#808080;fill-opacity:0.513001;stroke:#808080;stroke-opacity:0.513001;" x="298.685318" xlink:href="#C1_0_3289a9411a" y="253.129854"/>
    </g>
    <g clip-path="url(#pfe139859a6)">
     <use style="fill:#808080;fill-opacity:0.513231;stroke:#808080;stroke-opacity:0.513231;" x="246.260686" xlink:href="#C1_0_3289a9411a" y="122.234249"/>
    </g>
    <g clip-path="url(#pfe139859a6)">
     <use style="fill:#808080;fill-opacity:0.513997;stroke:#808080;stroke-opacity:0.513997;" x="199.689866" xlink:href="#C1_0_3289a9411a" y="174.713785"/>
    </g>
    <g clip-path="url(#pfe139859a6)">
     <use style="fill:#808080;fill-opacity:0.514413;stroke:#808080;stroke-opacity:0.514413;" x="253.138338" xlink:href="#C1_0_3289a9411a" y="227.152957"/>
    </g>
    <g clip-path="url(#pfe139859a6)">
     <use style="fill:#808080;fill-opacity:0.520855;stroke:#808080;stroke-opacity:0.520855;" x="192.010362" xlink:href="#C1_0_3289a9411a" y="175.67432"/>
    </g>
    <g clip-path="url(#pfe139859a6)">
     <use style="fill:#808080;fill-opacity:0.522018;stroke:#808080;stroke-opacity:0.522018;" x="260.658042" xlink:href="#C1_0_3289a9411a" y="228.27496"/>
    </g>
    <g clip-path="url(#pfe139859a6)">
     <use style="fill:#808080;fill-opacity:0.526279;stroke:#808080;stroke-opacity:0.526279;" x="248.971522" xlink:href="#C1_0_3289a9411a" y="176.434097"/>
    </g>
    <g clip-path="url(#pfe139859a6)">
     <use style="fill:#808080;fill-opacity:0.529865;stroke:#808080;stroke-opacity:0.529865;" x="214.141544" xlink:href="#C1_0_3289a9411a" y="281.929152"/>
    </g>
    <g clip-path="url(#pfe139859a6)">
     <use style="fill:#808080;fill-opacity:0.530428;stroke:#808080;stroke-opacity:0.530428;" x="268.088149" xlink:href="#C1_0_3289a9411a" y="282.016402"/>
    </g>
    <g clip-path="url(#pfe139859a6)">
     <use style="fill:#808080;fill-opacity:0.531238;stroke:#808080;stroke-opacity:0.531238;" x="231.142685" xlink:href="#C1_0_3289a9411a" y="177.128556"/>
    </g>
    <g clip-path="url(#pfe139859a6)">
     <use style="fill:#808080;fill-opacity:0.532754;stroke:#808080;stroke-opacity:0.532754;" x="266.458102" xlink:href="#C1_0_3289a9411a" y="282.377037"/>
    </g>
    <g clip-path="url(#pfe139859a6)">
     <use style="fill:#808080;fill-opacity:0.532866;stroke:#808080;stroke-opacity:0.532866;" x="184.474064" xlink:href="#C1_0_3289a9411a" y="229.875436"/>
    </g>
    <g clip-path="url(#pfe139859a6)">
     <use style="fill:#808080;fill-opacity:0.537728;stroke:#808080;stroke-opacity:0.537728;" x="291.931382" xlink:href="#C1_0_3289a9411a" y="230.592864"/>
    </g>
    <g clip-path="url(#pfe139859a6)">
     <use style="fill:#808080;fill-opacity:0.540756;stroke:#808080;stroke-opacity:0.540756;" x="270.037702" xlink:href="#C1_0_3289a9411a" y="178.461801"/>
    </g>
    <g clip-path="url(#pfe139859a6)">
     <use style="fill:#808080;fill-opacity:0.541503;stroke:#808080;stroke-opacity:0.541503;" x="233.550136" xlink:href="#C1_0_3289a9411a" y="125.982987"/>
    </g>
    <g clip-path="url(#pfe139859a6)">
     <use style="fill:#808080;fill-opacity:0.550848;stroke:#808080;stroke-opacity:0.550848;" x="206.028262" xlink:href="#C1_0_3289a9411a" y="179.875284"/>
    </g>
    <g clip-path="url(#pfe139859a6)">
     <use style="fill:#808080;fill-opacity:0.551177;stroke:#808080;stroke-opacity:0.551177;" x="277.144577" xlink:href="#C1_0_3289a9411a" y="232.577027"/>
    </g>
    <g clip-path="url(#pfe139859a6)">
     <use style="fill:#808080;fill-opacity:0.551729;stroke:#808080;stroke-opacity:0.551729;" x="229.252876" xlink:href="#C1_0_3289a9411a" y="179.998728"/>
    </g>
    <g clip-path="url(#pfe139859a6)">
     <use style="fill:#808080;fill-opacity:0.555348;stroke:#808080;stroke-opacity:0.555348;" x="259.31073" xlink:href="#C1_0_3289a9411a" y="233.192389"/>
    </g>
    <g clip-path="url(#pfe139859a6)">
     <use style="fill:#808080;fill-opacity:0.560602;stroke:#808080;stroke-opacity:0.560602;" x="191.660824" xlink:href="#C1_0_3289a9411a" y="181.241486"/>
    </g>
    <g clip-path="url(#pfe139859a6)">
     <use style="fill:#808080;fill-opacity:0.56265;stroke:#808080;stroke-opacity:0.56265;" x="217.530153" xlink:href="#C1_0_3289a9411a" y="128.786988"/>
    </g>
    <g clip-path="url(#pfe139859a6)">
     <use style="fill:#808080;fill-opacity:0.571347;stroke:#808080;stroke-opacity:0.571347;" x="232.635798" xlink:href="#C1_0_3289a9411a" y="129.940279"/>
    </g>
    <g clip-path="url(#pfe139859a6)">
     <use style="fill:#808080;fill-opacity:0.571485;stroke:#808080;stroke-opacity:0.571485;" x="254.42959" xlink:href="#C1_0_3289a9411a" y="182.765923"/>
    </g>
    <g clip-path="url(#pfe139859a6)">
     <use style="fill:#808080;fill-opacity:0.574404;stroke:#808080;stroke-opacity:0.574404;" x="245.865963" xlink:href="#C1_0_3289a9411a" y="262.418396"/>
    </g>
    <g clip-path="url(#pfe139859a6)">
     <use style="fill:#808080;fill-opacity:0.576913;stroke:#808080;stroke-opacity:0.576913;" x="197.9567" xlink:href="#C1_0_3289a9411a" y="130.678194"/>
    </g>
    <g clip-path="url(#pfe139859a6)">
     <use style="fill:#808080;fill-opacity:0.578234;stroke:#808080;stroke-opacity:0.578234;" x="240.779411" xlink:href="#C1_0_3289a9411a" y="289.426644"/>
    </g>
    <g clip-path="url(#pfe139859a6)">
     <use style="fill:#808080;fill-opacity:0.593619;stroke:#808080;stroke-opacity:0.593619;" x="183.811551" xlink:href="#C1_0_3289a9411a" y="185.866142"/>
    </g>
    <g clip-path="url(#pfe139859a6)">
     <use style="fill:#808080;fill-opacity:0.59657;stroke:#808080;stroke-opacity:0.59657;" x="272.218584" xlink:href="#C1_0_3289a9411a" y="265.771484"/>
    </g>
    <g clip-path="url(#pfe139859a6)">
     <use style="fill:#808080;fill-opacity:0.597188;stroke:#808080;stroke-opacity:0.597188;" x="300.026713" xlink:href="#C1_0_3289a9411a" y="239.365347"/>
    </g>
    <g clip-path="url(#pfe139859a6)">
     <use style="fill:#808080;fill-opacity:0.600432;stroke:#808080;stroke-opacity:0.600432;" x="290.259489" xlink:href="#C1_0_3289a9411a" y="186.820292"/>
    </g>
    <g clip-path="url(#pfe139859a6)">
     <use style="fill:#808080;fill-opacity:0.603529;stroke:#808080;stroke-opacity:0.603529;" x="247.169631" xlink:href="#C1_0_3289a9411a" y="187.25408"/>
    </g>
    <g clip-path="url(#pfe139859a6)">
     <use style="fill:#808080;fill-opacity:0.620894;stroke:#808080;stroke-opacity:0.620894;" x="298.482214" xlink:href="#C1_0_3289a9411a" y="189.686394"/>
    </g>
    <g clip-path="url(#pfe139859a6)">
     <use style="fill:#808080;fill-opacity:0.624946;stroke:#808080;stroke-opacity:0.624946;" x="203.611843" xlink:href="#C1_0_3289a9411a" y="137.047154"/>
    </g>
    <g clip-path="url(#pfe139859a6)">
     <use style="fill:#808080;fill-opacity:0.625253;stroke:#808080;stroke-opacity:0.625253;" x="296.250401" xlink:href="#C1_0_3289a9411a" y="190.296869"/>
    </g>
    <g clip-path="url(#pfe139859a6)">
     <use style="fill:#808080;fill-opacity:0.630664;stroke:#808080;stroke-opacity:0.630664;" x="205.486988" xlink:href="#C1_0_3289a9411a" y="191.054775"/>
    </g>
    <g clip-path="url(#pfe139859a6)">
     <use style="fill:#808080;fill-opacity:0.632299;stroke:#808080;stroke-opacity:0.632299;" x="238.65287" xlink:href="#C1_0_3289a9411a" y="271.176215"/>
    </g>
    <g clip-path="url(#pfe139859a6)">
     <use style="fill:#808080;fill-opacity:0.635491;stroke:#808080;stroke-opacity:0.635491;" x="254.032552" xlink:href="#C1_0_3289a9411a" y="191.730871"/>
    </g>
    <g clip-path="url(#pfe139859a6)">
     <use style="fill:#808080;fill-opacity:0.640598;stroke:#808080;stroke-opacity:0.640598;" x="170.104535" xlink:href="#C1_0_3289a9411a" y="192.446198"/>
    </g>
    <g clip-path="url(#pfe139859a6)">
     <use style="fill:#808080;fill-opacity:0.640846;stroke:#808080;stroke-opacity:0.640846;" x="156.485837" xlink:href="#C1_0_3289a9411a" y="192.480917"/>
    </g>
    <g clip-path="url(#pfe139859a6)">
     <use style="fill:#808080;fill-opacity:0.641243;stroke:#808080;stroke-opacity:0.641243;" x="240.955398" xlink:href="#C1_0_3289a9411a" y="245.865023"/>
    </g>
    <g clip-path="url(#pfe139859a6)">
     <use style="fill:#808080;fill-opacity:0.647709;stroke:#808080;stroke-opacity:0.647709;" x="259.536502" xlink:href="#C1_0_3289a9411a" y="300.195733"/>
    </g>
    <g clip-path="url(#pfe139859a6)">
     <use style="fill:#808080;fill-opacity:0.648896;stroke:#808080;stroke-opacity:0.648896;" x="200.253184" xlink:href="#C1_0_3289a9411a" y="193.608437"/>
    </g>
    <g clip-path="url(#pfe139859a6)">
     <use style="fill:#808080;fill-opacity:0.658415;stroke:#808080;stroke-opacity:0.658415;" x="186.116153" xlink:href="#C1_0_3289a9411a" y="141.48509"/>
    </g>
    <g clip-path="url(#pfe139859a6)">
     <use style="fill:#808080;fill-opacity:0.663861;stroke:#808080;stroke-opacity:0.663861;" x="203.396888" xlink:href="#C1_0_3289a9411a" y="195.704544"/>
    </g>
    <g clip-path="url(#pfe139859a6)">
     <use style="fill:#808080;fill-opacity:0.676265;stroke:#808080;stroke-opacity:0.676265;" x="264.659661" xlink:href="#C1_0_3289a9411a" y="251.032046"/>
    </g>
    <g clip-path="url(#pfe139859a6)">
     <use style="fill:#808080;fill-opacity:0.680582;stroke:#808080;stroke-opacity:0.680582;" x="259.71521" xlink:href="#C1_0_3289a9411a" y="198.046558"/>
    </g>
    <g clip-path="url(#pfe139859a6)">
     <use style="fill:#808080;fill-opacity:0.684112;stroke:#808080;stroke-opacity:0.684112;" x="165.379058" xlink:href="#C1_0_3289a9411a" y="198.541114"/>
    </g>
    <g clip-path="url(#pfe139859a6)">
     <use style="fill:#808080;fill-opacity:0.686912;stroke:#808080;stroke-opacity:0.686912;" x="254.345148" xlink:href="#C1_0_3289a9411a" y="198.933198"/>
    </g>
    <g clip-path="url(#pfe139859a6)">
     <use style="fill:#808080;fill-opacity:0.688784;stroke:#808080;stroke-opacity:0.688784;" x="260.144694" xlink:href="#C1_0_3289a9411a" y="279.72084"/>
    </g>
    <g clip-path="url(#pfe139859a6)">
     <use style="fill:#808080;fill-opacity:0.690059;stroke:#808080;stroke-opacity:0.690059;" x="229.702439" xlink:href="#C1_0_3289a9411a" y="199.374051"/>
    </g>
    <g clip-path="url(#pfe139859a6)">
     <use style="fill:#808080;fill-opacity:0.703649;stroke:#808080;stroke-opacity:0.703649;" x="199.746742" xlink:href="#C1_0_3289a9411a" y="201.277563"/>
    </g>
    <g clip-path="url(#pfe139859a6)">
     <use style="fill:#808080;fill-opacity:0.721908;stroke:#808080;stroke-opacity:0.721908;" x="153.787066" xlink:href="#C1_0_3289a9411a" y="149.903942"/>
    </g>
    <g clip-path="url(#pfe139859a6)">
     <use style="fill:#808080;fill-opacity:0.721965;stroke:#808080;stroke-opacity:0.721965;" x="237.431306" xlink:href="#C1_0_3289a9411a" y="257.774423"/>
    </g>
    <g clip-path="url(#pfe139859a6)">
     <use style="fill:#808080;fill-opacity:0.72346;stroke:#808080;stroke-opacity:0.72346;" x="253.532709" xlink:href="#C1_0_3289a9411a" y="150.109805"/>
    </g>
    <g clip-path="url(#pfe139859a6)">
     <use style="fill:#808080;fill-opacity:0.724495;stroke:#808080;stroke-opacity:0.724495;" x="182.529718" xlink:href="#C1_0_3289a9411a" y="150.247028"/>
    </g>
    <g clip-path="url(#pfe139859a6)">
     <use style="fill:#808080;fill-opacity:0.727413;stroke:#808080;stroke-opacity:0.727413;" x="154.816636" xlink:href="#C1_0_3289a9411a" y="204.605997"/>
    </g>
    <g clip-path="url(#pfe139859a6)">
     <use style="fill:#808080;fill-opacity:0.729719;stroke:#808080;stroke-opacity:0.729719;" x="218.646129" xlink:href="#C1_0_3289a9411a" y="150.939693"/>
    </g>
    <g clip-path="url(#pfe139859a6)">
     <use style="fill:#808080;fill-opacity:0.731573;stroke:#808080;stroke-opacity:0.731573;" x="226.323807" xlink:href="#C1_0_3289a9411a" y="205.188762"/>
    </g>
    <g clip-path="url(#pfe139859a6)">
     <use style="fill:#808080;fill-opacity:0.734732;stroke:#808080;stroke-opacity:0.734732;" x="271.955107" xlink:href="#C1_0_3289a9411a" y="205.631131"/>
    </g>
    <g clip-path="url(#pfe139859a6)">
     <use style="fill:#808080;fill-opacity:0.738698;stroke:#808080;stroke-opacity:0.738698;" x="239.934329" xlink:href="#C1_0_3289a9411a" y="206.186735"/>
    </g>
    <g clip-path="url(#pfe139859a6)">
     <use style="fill:#808080;fill-opacity:0.738865;stroke:#808080;stroke-opacity:0.738865;" x="258.721886" xlink:href="#C1_0_3289a9411a" y="206.210089"/>
    </g>
    <g clip-path="url(#pfe139859a6)">
     <use style="fill:#808080;fill-opacity:0.746183;stroke:#808080;stroke-opacity:0.746183;" x="222.333194" xlink:href="#C1_0_3289a9411a" y="207.235113"/>
    </g>
    <g clip-path="url(#pfe139859a6)">
     <use style="fill:#808080;fill-opacity:0.761587;stroke:#808080;stroke-opacity:0.761587;" x="186.92576" xlink:href="#C1_0_3289a9411a" y="155.165289"/>
    </g>
    <g clip-path="url(#pfe139859a6)">
     <use style="fill:#808080;fill-opacity:0.765667;stroke:#808080;stroke-opacity:0.765667;" x="220.283583" xlink:href="#C1_0_3289a9411a" y="209.964156"/>
    </g>
    <g clip-path="url(#pfe139859a6)">
     <use style="fill:#808080;fill-opacity:0.770008;stroke:#808080;stroke-opacity:0.770008;" x="263.13301" xlink:href="#C1_0_3289a9411a" y="210.572113"/>
    </g>
    <g clip-path="url(#pfe139859a6)">
     <use style="fill:#808080;fill-opacity:0.771929;stroke:#808080;stroke-opacity:0.771929;" x="231.653367" xlink:href="#C1_0_3289a9411a" y="156.53655"/>
    </g>
    <g clip-path="url(#pfe139859a6)">
     <use style="fill:#808080;fill-opacity:0.774191;stroke:#808080;stroke-opacity:0.774191;" x="276.836467" xlink:href="#C1_0_3289a9411a" y="211.158078"/>
    </g>
    <g clip-path="url(#pfe139859a6)">
     <use style="fill:#808080;fill-opacity:0.775625;stroke:#808080;stroke-opacity:0.775625;" x="252.900965" xlink:href="#C1_0_3289a9411a" y="157.026611"/>
    </g>
    <g clip-path="url(#pfe139859a6)">
     <use style="fill:#808080;fill-opacity:0.77682;stroke:#808080;stroke-opacity:0.77682;" x="156.30824" xlink:href="#C1_0_3289a9411a" y="211.526306"/>
    </g>
    <g clip-path="url(#pfe139859a6)">
     <use style="fill:#808080;fill-opacity:0.778635;stroke:#808080;stroke-opacity:0.778635;" x="181.469631" xlink:href="#C1_0_3289a9411a" y="211.780512"/>
    </g>
    <g clip-path="url(#pfe139859a6)">
     <use style="fill:#808080;fill-opacity:0.787538;stroke:#808080;stroke-opacity:0.787538;" x="247.541751" xlink:href="#C1_0_3289a9411a" y="213.027514"/>
    </g>
    <g clip-path="url(#pfe139859a6)">
     <use style="fill:#808080;fill-opacity:0.790399;stroke:#808080;stroke-opacity:0.790399;" x="278.777141" xlink:href="#C1_0_3289a9411a" y="158.985562"/>
    </g>
    <g clip-path="url(#pfe139859a6)">
     <use style="fill:#808080;fill-opacity:0.79174;stroke:#808080;stroke-opacity:0.79174;" x="200.541794" xlink:href="#C1_0_3289a9411a" y="213.616116"/>
    </g>
    <g clip-path="url(#pfe139859a6)">
     <use style="fill:#808080;fill-opacity:0.801045;stroke:#808080;stroke-opacity:0.801045;" x="236.503802" xlink:href="#C1_0_3289a9411a" y="214.919431"/>
    </g>
    <g clip-path="url(#pfe139859a6)">
     <use style="fill:#808080;fill-opacity:0.803389;stroke:#808080;stroke-opacity:0.803389;" x="267.919158" xlink:href="#C1_0_3289a9411a" y="215.247645"/>
    </g>
    <g clip-path="url(#pfe139859a6)">
     <use style="fill:#808080;fill-opacity:0.813962;stroke:#808080;stroke-opacity:0.813962;" x="264.91032" xlink:href="#C1_0_3289a9411a" y="216.728564"/>
    </g>
    <g clip-path="url(#pfe139859a6)">
     <use style="fill:#808080;fill-opacity:0.814982;stroke:#808080;stroke-opacity:0.814982;" x="225.518382" xlink:href="#C1_0_3289a9411a" y="162.245159"/>
    </g>
    <g clip-path="url(#pfe139859a6)">
     <use style="fill:#808080;fill-opacity:0.818385;stroke:#808080;stroke-opacity:0.818385;" x="203.521652" xlink:href="#C1_0_3289a9411a" y="162.696436"/>
    </g>
    <g clip-path="url(#pfe139859a6)">
     <use style="fill:#808080;fill-opacity:0.828651;stroke:#808080;stroke-opacity:0.828651;" x="181.312993" xlink:href="#C1_0_3289a9411a" y="218.785993"/>
    </g>
    <g clip-path="url(#pfe139859a6)">
     <use style="fill:#808080;fill-opacity:0.833548;stroke:#808080;stroke-opacity:0.833548;" x="180.092239" xlink:href="#C1_0_3289a9411a" y="164.706942"/>
    </g>
    <g clip-path="url(#pfe139859a6)">
     <use style="fill:#808080;fill-opacity:0.847758;stroke:#808080;stroke-opacity:0.847758;" x="236.526172" xlink:href="#C1_0_3289a9411a" y="221.462321"/>
    </g>
    <g clip-path="url(#pfe139859a6)">
     <use style="fill:#808080;fill-opacity:0.848748;stroke:#808080;stroke-opacity:0.848748;" x="257.62737" xlink:href="#C1_0_3289a9411a" y="166.722433"/>
    </g>
    <g clip-path="url(#pfe139859a6)">
     <use style="fill:#808080;fill-opacity:0.905664;stroke:#808080;stroke-opacity:0.905664;" x="173.597506" xlink:href="#C1_0_3289a9411a" y="174.269263"/>
    </g>
    <g clip-path="url(#pfe139859a6)">
     <use style="fill:#808080;fill-opacity:0.909443;stroke:#808080;stroke-opacity:0.909443;" x="209.768133" xlink:href="#C1_0_3289a9411a" y="174.770325"/>
    </g>
    <g clip-path="url(#pfe139859a6)">
     <use style="fill:#808080;fill-opacity:0.909678;stroke:#808080;stroke-opacity:0.909678;" x="263.774428" xlink:href="#C1_0_3289a9411a" y="174.801418"/>
    </g>
    <g clip-path="url(#pfe139859a6)">
     <use style="fill:#808080;fill-opacity:0.917552;stroke:#808080;stroke-opacity:0.917552;" x="201.981449" xlink:href="#C1_0_3289a9411a" y="231.238004"/>
    </g>
    <g clip-path="url(#pfe139859a6)">
     <use style="fill:#808080;fill-opacity:0.932945;stroke:#808080;stroke-opacity:0.932945;" x="203.057873" xlink:href="#C1_0_3289a9411a" y="233.394055"/>
    </g>
    <g clip-path="url(#pfe139859a6)">
     <use style="fill:#808080;fill-opacity:0.954953;stroke:#808080;stroke-opacity:0.954953;" x="210.38439" xlink:href="#C1_0_3289a9411a" y="180.804745"/>
    </g>
    <g clip-path="url(#pfe139859a6)">
     <use style="fill:#808080;stroke:#808080;" x="209.974781" xlink:href="#C1_0_3289a9411a" y="186.777781"/>
    </g>
   </g>
   <g id="legend_1">
    <g id="patch_6">
     <path d="M 314.455 74.518125 
L 377.48 74.518125 
Q 379.48 74.518125 379.48 72.518125 
L 379.48 58.84 
Q 379.48 56.84 377.48 56.84 
L 314.455 56.84 
Q 312.455 56.84 312.455 58.84 
L 312.455 72.518125 
Q 312.455 74.518125 314.455 74.518125 
z
" style="fill:#ffffff;opacity:0.8;stroke:#cccccc;stroke-linejoin:miter;"/>
    </g>
    <g id="Path3DCollection_3">
     <defs>
      <path d="M 0 5 
C 1.326016 5 2.597899 4.473168 3.535534 3.535534 
C 4.473168 2.597899 5 1.326016 5 0 
C 5 -1.326016 4.473168 -2.597899 3.535534 -3.535534 
C 2.597899 -4.473168 1.326016 -5 0 -5 
C -1.326016 -5 -2.597899 -4.473168 -3.535534 -3.535534 
C -4.473168 -2.597899 -5 -1.326016 -5 0 
C -5 1.326016 -4.473168 2.597899 -3.535534 3.535534 
C -2.597899 4.473168 -1.326016 5 0 5 
z
" id="m4bf6b2b668" style="stroke:#ff0000;"/>
     </defs>
     <g>
      <use style="fill:#ff0000;stroke:#ff0000;" x="326.455" xlink:href="#m4bf6b2b668" y="65.813438"/>
     </g>
    </g>
    <g id="text_2">
     <!-- Timp3 -->
     <g transform="translate(344.455 68.438438)scale(0.1 -0.1)">
      <use xlink:href="#DejaVuSans-84"/>
      <use x="57.958984" xlink:href="#DejaVuSans-105"/>
      <use x="85.742188" xlink:href="#DejaVuSans-109"/>
      <use x="183.154297" xlink:href="#DejaVuSans-112"/>
      <use x="246.630859" xlink:href="#DejaVuSans-51"/>
     </g>
    </g>
   </g>
  </g>
 </g>
 <defs>
  <clipPath id="pfe139859a6">
   <rect height="326.16" width="326.16" x="58.32" y="51.84"/>
  </clipPath>
 </defs>
</svg>
