<?xml version="1.0" encoding="utf-8" standalone="no"?>
<!DOCTYPE svg PUBLIC "-//W3C//DTD SVG 1.1//EN"
  "http://www.w3.org/Graphics/SVG/1.1/DTD/svg11.dtd">
<!-- Created with matplotlib (https://matplotlib.org/) -->
<svg height="720pt" version="1.1" viewBox="0 0 1080 720" width="1080pt" xmlns="http://www.w3.org/2000/svg" xmlns:xlink="http://www.w3.org/1999/xlink">
 <metadata>
  <rdf:RDF xmlns:cc="http://creativecommons.org/ns#" xmlns:dc="http://purl.org/dc/elements/1.1/" xmlns:rdf="http://www.w3.org/1999/02/22-rdf-syntax-ns#">
   <cc:Work>
    <dc:type rdf:resource="http://purl.org/dc/dcmitype/StillImage"/>
    <dc:date>2022-03-23T21:24:32.678173</dc:date>
    <dc:format>image/svg+xml</dc:format>
    <dc:creator>
     <cc:Agent>
      <dc:title>Matplotlib v3.3.3, https://matplotlib.org/</dc:title>
     </cc:Agent>
    </dc:creator>
   </cc:Work>
  </rdf:RDF>
 </metadata>
 <defs>
  <style type="text/css">*{stroke-linecap:butt;stroke-linejoin:round;}</style>
 </defs>
 <g id="figure_1">
  <g id="patch_1">
   <path d="M 0 720 
L 1080 720 
L 1080 0 
L 0 0 
z
" style="fill:none;"/>
  </g>
  <g id="axes_1">
   <g id="patch_2">
    <path d="M 135 358.2 
L 414 358.2 
L 414 86.4 
L 135 86.4 
z
" style="fill:#ffffff;"/>
   </g>
   <g id="PathCollection_1">
    <defs>
     <path d="M 0 3 
C 0.795609 3 1.55874 2.683901 2.12132 2.12132 
C 2.683901 1.55874 3 0.795609 3 -0 
C 3 -0.795609 2.683901 -1.55874 2.12132 -2.12132 
C 1.55874 -2.683901 0.795609 -3 0 -3 
C -0.795609 -3 -1.55874 -2.683901 -2.12132 -2.12132 
C -2.683901 -1.55874 -3 -0.795609 -3 0 
C -3 0.795609 -2.683901 1.55874 -2.12132 2.12132 
C -1.55874 2.683901 -0.795609 3 0 3 
z
" id="C0_0_743b3cd79a"/>
    </defs>
    <g clip-path="url(#pa5439b0965)">
     <use style="fill:#808080;fill-opacity:0.8;stroke:#808080;stroke-opacity:0.8;" x="209.319015" xlink:href="#C0_0_743b3cd79a" y="210.489016"/>
    </g>
    <g clip-path="url(#pa5439b0965)">
     <use style="fill:#808080;fill-opacity:0.8;stroke:#808080;stroke-opacity:0.8;" x="214.330589" xlink:href="#C0_0_743b3cd79a" y="214.164118"/>
    </g>
    <g clip-path="url(#pa5439b0965)">
     <use style="fill:#808080;fill-opacity:0.8;stroke:#808080;stroke-opacity:0.8;" x="220.358178" xlink:href="#C0_0_743b3cd79a" y="241.287367"/>
    </g>
    <g clip-path="url(#pa5439b0965)">
     <use style="fill:#808080;fill-opacity:0.8;stroke:#808080;stroke-opacity:0.8;" x="221.368484" xlink:href="#C0_0_743b3cd79a" y="202.548797"/>
    </g>
    <g clip-path="url(#pa5439b0965)">
     <use style="fill:#808080;fill-opacity:0.8;stroke:#808080;stroke-opacity:0.8;" x="232.167913" xlink:href="#C0_0_743b3cd79a" y="209.006475"/>
    </g>
    <g clip-path="url(#pa5439b0965)">
     <use style="fill:#808080;fill-opacity:0.8;stroke:#808080;stroke-opacity:0.8;" x="252.959098" xlink:href="#C0_0_743b3cd79a" y="195.248595"/>
    </g>
    <g clip-path="url(#pa5439b0965)">
     <use style="fill:#808080;fill-opacity:0.8;stroke:#808080;stroke-opacity:0.8;" x="277.959892" xlink:href="#C0_0_743b3cd79a" y="263.010467"/>
    </g>
    <g clip-path="url(#pa5439b0965)">
     <use style="fill:#808080;fill-opacity:0.8;stroke:#808080;stroke-opacity:0.8;" x="281.333287" xlink:href="#C0_0_743b3cd79a" y="229.539543"/>
    </g>
    <g clip-path="url(#pa5439b0965)">
     <use style="fill:#808080;fill-opacity:0.8;stroke:#808080;stroke-opacity:0.8;" x="293.539725" xlink:href="#C0_0_743b3cd79a" y="239.262311"/>
    </g>
    <g clip-path="url(#pa5439b0965)">
     <use style="fill:#808080;fill-opacity:0.8;stroke:#808080;stroke-opacity:0.8;" x="320.795156" xlink:href="#C0_0_743b3cd79a" y="210.856526"/>
    </g>
    <g clip-path="url(#pa5439b0965)">
     <use style="fill:#808080;fill-opacity:0.8;stroke:#808080;stroke-opacity:0.8;" x="321.662763" xlink:href="#C0_0_743b3cd79a" y="139.347051"/>
    </g>
    <g clip-path="url(#pa5439b0965)">
     <use style="fill:#808080;fill-opacity:0.8;stroke:#808080;stroke-opacity:0.8;" x="349.757262" xlink:href="#C0_0_743b3cd79a" y="222.909359"/>
    </g>
    <g clip-path="url(#pa5439b0965)">
     <use style="fill:#808080;fill-opacity:0.8;stroke:#808080;stroke-opacity:0.8;" x="356.563985" xlink:href="#C0_0_743b3cd79a" y="127.35672"/>
    </g>
    <g clip-path="url(#pa5439b0965)">
     <use style="fill:#808080;fill-opacity:0.8;stroke:#808080;stroke-opacity:0.8;" x="348.090543" xlink:href="#C0_0_743b3cd79a" y="225.009417"/>
    </g>
    <g clip-path="url(#pa5439b0965)">
     <use style="fill:#808080;fill-opacity:0.8;stroke:#808080;stroke-opacity:0.8;" x="323.891715" xlink:href="#C0_0_743b3cd79a" y="261.192917"/>
    </g>
    <g clip-path="url(#pa5439b0965)">
     <use style="fill:#808080;fill-opacity:0.8;stroke:#808080;stroke-opacity:0.8;" x="363.290797" xlink:href="#C0_0_743b3cd79a" y="272.960742"/>
    </g>
   </g>
   <g id="PathCollection_2"/>
   <g id="patch_3">
    <path clip-path="url(#pa5439b0965)" d="M 414 279.264072 
L 401.304107 279.535329 
L 385.82131 279.535329 
L 370.338513 279.535329 
L 354.855716 279.535329 
L 339.372919 279.535329 
L 323.890122 279.535329 
L 308.407325 279.535329 
L 292.924528 279.535329 
L 286.421754 273.838922 
L 277.441731 265.972455 
L 270.938957 260.276048 
L 258.862375 255.122156 
L 243.379578 255.122156 
L 227.896781 255.122156 
L 215.200888 254.850898 
L 209.007769 246.713174 
L 202.81465 238.575449 
L 199.718091 227.72515 
L 196.621532 216.87485 
L 196.621532 203.311976 
L 196.621532 189.749102 
L 196.621532 176.186228 
L 196.621532 162.623353 
L 196.621532 149.060479 
L 200.027747 140.651497 
L 212.413984 137.938922 
L 227.896781 137.938922 
L 243.379578 137.938922 
L 255.765816 140.651497 
L 271.248613 140.651497 
L 286.73141 140.651497 
L 299.117647 137.938922 
L 311.503885 135.226347 
L 320.793563 129.801198 
L 333.1798 127.088623 
L 342.469478 121.663473 
L 351.449501 113.797006 
L 354.855716 105.388024 
L 361.048835 113.525749 
L 364.45505 121.934731 
L 367.241953 135.226347 
L 370.338513 146.076647 
L 373.744728 154.485629 
L 379.628191 165.064671 
L 383.034406 173.473653 
L 386.130966 184.323952 
L 392.014428 194.902994 
L 392.324084 206.024551 
L 395.420644 216.87485 
L 398.517203 227.72515 
L 401.613762 238.575449 
L 404.710322 249.425749 
L 407.806881 260.276048 
L 410.903441 271.126347 
z
" style="fill:none;stroke:#000000;stroke-linejoin:miter;"/>
   </g>
   <g id="matplotlib.axis_1"/>
   <g id="matplotlib.axis_2"/>
   <g id="patch_4">
    <path d="M 135 358.2 
L 135 86.4 
" style="fill:none;stroke:#000000;stroke-linecap:square;stroke-linejoin:miter;stroke-width:0.8;"/>
   </g>
   <g id="patch_5">
    <path d="M 414 358.2 
L 414 86.4 
" style="fill:none;stroke:#000000;stroke-linecap:square;stroke-linejoin:miter;stroke-width:0.8;"/>
   </g>
   <g id="patch_6">
    <path d="M 135 358.2 
L 414 358.2 
" style="fill:none;stroke:#000000;stroke-linecap:square;stroke-linejoin:miter;stroke-width:0.8;"/>
   </g>
   <g id="patch_7">
    <path d="M 135 86.4 
L 414 86.4 
" style="fill:none;stroke:#000000;stroke-linecap:square;stroke-linejoin:miter;stroke-width:0.8;"/>
   </g>
  </g>
  <g id="axes_2">
   <g id="patch_8">
    <path d="M 414 358.2 
L 693 358.2 
L 693 86.4 
L 414 86.4 
z
" style="fill:#ffffff;"/>
   </g>
   <g id="PathCollection_3">
    <defs>
     <path d="M 0 3 
C 0.795609 3 1.55874 2.683901 2.12132 2.12132 
C 2.683901 1.55874 3 0.795609 3 -0 
C 3 -0.795609 2.683901 -1.55874 2.12132 -2.12132 
C 1.55874 -2.683901 0.795609 -3 0 -3 
C -0.795609 -3 -1.55874 -2.683901 -2.12132 -2.12132 
C -2.683901 -1.55874 -3 -0.795609 -3 0 
C -3 0.795609 -2.683901 1.55874 -2.12132 2.12132 
C -1.55874 2.683901 -0.795609 3 0 3 
z
" id="C1_0_abe2a5aea9"/>
    </defs>
    <g clip-path="url(#pbb02273601)">
     <use style="fill:#808080;fill-opacity:0.8;stroke:#808080;stroke-opacity:0.8;" x="602.557801" xlink:href="#C1_0_abe2a5aea9" y="141.237103"/>
    </g>
    <g clip-path="url(#pbb02273601)">
     <use style="fill:#808080;fill-opacity:0.8;stroke:#808080;stroke-opacity:0.8;" x="636.816879" xlink:href="#C1_0_abe2a5aea9" y="111.913793"/>
    </g>
    <g clip-path="url(#pbb02273601)">
     <use style="fill:#808080;fill-opacity:0.8;stroke:#808080;stroke-opacity:0.8;" x="638.1611" xlink:href="#C1_0_abe2a5aea9" y="227.724492"/>
    </g>
    <g clip-path="url(#pbb02273601)">
     <use style="fill:#808080;fill-opacity:0.8;stroke:#808080;stroke-opacity:0.8;" x="655.698757" xlink:href="#C1_0_abe2a5aea9" y="176.373074"/>
    </g>
    <g clip-path="url(#pbb02273601)">
     <use style="fill:#808080;fill-opacity:0.8;stroke:#808080;stroke-opacity:0.8;" x="657.810696" xlink:href="#C1_0_abe2a5aea9" y="170.760419"/>
    </g>
    <g clip-path="url(#pbb02273601)">
     <use style="fill:#808080;fill-opacity:0.8;stroke:#808080;stroke-opacity:0.8;" x="598.710647" xlink:href="#C1_0_abe2a5aea9" y="239.004804"/>
    </g>
    <g clip-path="url(#pbb02273601)">
     <use style="fill:#808080;fill-opacity:0.8;stroke:#808080;stroke-opacity:0.8;" x="601.650238" xlink:href="#C1_0_abe2a5aea9" y="265.700542"/>
    </g>
    <g clip-path="url(#pbb02273601)">
     <use style="fill:#808080;fill-opacity:0.8;stroke:#808080;stroke-opacity:0.8;" x="641.540202" xlink:href="#C1_0_abe2a5aea9" y="270.483174"/>
    </g>
    <g clip-path="url(#pbb02273601)">
     <use style="fill:#808080;fill-opacity:0.8;stroke:#808080;stroke-opacity:0.8;" x="479.109247" xlink:href="#C1_0_abe2a5aea9" y="187.44838"/>
    </g>
    <g clip-path="url(#pbb02273601)">
     <use style="fill:#808080;fill-opacity:0.8;stroke:#808080;stroke-opacity:0.8;" x="483.495802" xlink:href="#C1_0_abe2a5aea9" y="177.573107"/>
    </g>
    <g clip-path="url(#pbb02273601)">
     <use style="fill:#808080;fill-opacity:0.8;stroke:#808080;stroke-opacity:0.8;" x="497.608693" xlink:href="#C1_0_abe2a5aea9" y="174.07301"/>
    </g>
    <g clip-path="url(#pbb02273601)">
     <use style="fill:#808080;fill-opacity:0.8;stroke:#808080;stroke-opacity:0.8;" x="499.951804" xlink:href="#C1_0_abe2a5aea9" y="189.923448"/>
    </g>
    <g clip-path="url(#pbb02273601)">
     <use style="fill:#808080;fill-opacity:0.8;stroke:#808080;stroke-opacity:0.8;" x="526.094186" xlink:href="#C1_0_abe2a5aea9" y="194.913586"/>
    </g>
    <g clip-path="url(#pbb02273601)">
     <use style="fill:#808080;fill-opacity:0.8;stroke:#808080;stroke-opacity:0.8;" x="530.729037" xlink:href="#C1_0_abe2a5aea9" y="144.629697"/>
    </g>
    <g clip-path="url(#pbb02273601)">
     <use style="fill:#808080;fill-opacity:0.8;stroke:#808080;stroke-opacity:0.8;" x="541.688289" xlink:href="#C1_0_abe2a5aea9" y="198.698691"/>
    </g>
    <g clip-path="url(#pbb02273601)">
     <use style="fill:#808080;fill-opacity:0.8;stroke:#808080;stroke-opacity:0.8;" x="545.241484" xlink:href="#C1_0_abe2a5aea9" y="223.466875"/>
    </g>
    <g clip-path="url(#pbb02273601)">
     <use style="fill:#808080;fill-opacity:0.8;stroke:#808080;stroke-opacity:0.8;" x="552.125264" xlink:href="#C1_0_abe2a5aea9" y="217.949222"/>
    </g>
    <g clip-path="url(#pbb02273601)">
     <use style="fill:#808080;fill-opacity:0.8;stroke:#808080;stroke-opacity:0.8;" x="563.817986" xlink:href="#C1_0_abe2a5aea9" y="189.898447"/>
    </g>
    <g clip-path="url(#pbb02273601)">
     <use style="fill:#808080;fill-opacity:0.8;stroke:#808080;stroke-opacity:0.8;" x="571.926121" xlink:href="#C1_0_abe2a5aea9" y="208.003948"/>
    </g>
    <g clip-path="url(#pbb02273601)">
     <use style="fill:#808080;fill-opacity:0.8;stroke:#808080;stroke-opacity:0.8;" x="574.868566" xlink:href="#C1_0_abe2a5aea9" y="187.038368"/>
    </g>
    <g clip-path="url(#pbb02273601)">
     <use style="fill:#808080;fill-opacity:0.8;stroke:#808080;stroke-opacity:0.8;" x="527.780884" xlink:href="#C1_0_abe2a5aea9" y="238.574792"/>
    </g>
    <g clip-path="url(#pbb02273601)">
     <use style="fill:#808080;fill-opacity:0.8;stroke:#808080;stroke-opacity:0.8;" x="539.148254" xlink:href="#C1_0_abe2a5aea9" y="235.307202"/>
    </g>
   </g>
   <g id="PathCollection_4">
    <defs>
     <path d="M 0 4.242641 
C 1.125161 4.242641 2.204391 3.795609 3 3 
C 3.795609 2.204391 4.242641 1.125161 4.242641 -0 
C 4.242641 -1.125161 3.795609 -2.204391 3 -3 
C 2.204391 -3.795609 1.125161 -4.242641 0 -4.242641 
C -1.125161 -4.242641 -2.204391 -3.795609 -3 -3 
C -3.795609 -2.204391 -4.242641 -1.125161 -4.242641 0 
C -4.242641 1.125161 -3.795609 2.204391 -3 3 
C -2.204391 3.795609 -1.125161 4.242641 0 4.242641 
z
" id="C2_0_332a46ae8e"/>
    </defs>
    <g clip-path="url(#pbb02273601)">
     <use style="fill:#ff0000;fill-opacity:0.8;stroke:#ff0000;stroke-opacity:0.8;" x="626.708111" xlink:href="#C2_0_332a46ae8e" y="209.884"/>
    </g>
    <g clip-path="url(#pbb02273601)">
     <use style="fill:#ff0000;fill-opacity:0.8;stroke:#ff0000;stroke-opacity:0.8;" x="562.636442" xlink:href="#C2_0_332a46ae8e" y="239.004804"/>
    </g>
   </g>
   <g id="patch_9">
    <path clip-path="url(#pbb02273601)" d="M 693 279.264072 
L 680.304107 279.535329 
L 664.82131 279.535329 
L 649.338513 279.535329 
L 633.855716 279.535329 
L 618.372919 279.535329 
L 602.890122 279.535329 
L 587.407325 279.535329 
L 571.924528 279.535329 
L 565.421754 273.838922 
L 556.441731 265.972455 
L 549.938957 260.276048 
L 537.862375 255.122156 
L 522.379578 255.122156 
L 506.896781 255.122156 
L 494.200888 254.850898 
L 488.007769 246.713174 
L 481.81465 238.575449 
L 478.718091 227.72515 
L 475.621532 216.87485 
L 475.621532 203.311976 
L 475.621532 189.749102 
L 475.621532 176.186228 
L 475.621532 162.623353 
L 475.621532 149.060479 
L 475.931188 137.938922 
L 488.317425 135.226347 
L 500.703663 137.938922 
L 516.186459 137.938922 
L 528.572697 140.651497 
L 540.958935 143.364072 
L 553.654828 143.635329 
L 568.827969 146.076647 
L 584.310766 146.076647 
L 596.697003 143.364072 
L 608.773585 138.21018 
L 618.372919 135.226347 
L 627.662597 129.801198 
L 633.54606 119.222156 
L 636.642619 108.371856 
L 637.261931 111.084431 
L 643.145394 121.663473 
L 643.45505 132.78503 
L 646.551609 143.635329 
L 652.435072 154.214371 
L 655.841287 162.623353 
L 661.72475 173.202395 
L 665.130966 181.611377 
L 668.227525 192.461677 
L 671.324084 203.311976 
L 674.420644 214.162275 
L 677.207547 227.453892 
L 680.304107 238.304192 
L 683.710322 246.713174 
L 686.806881 257.563473 
L 689.593785 270.85509 
z
" style="fill:none;stroke:#000000;stroke-linejoin:miter;"/>
   </g>
   <g id="matplotlib.axis_3"/>
   <g id="matplotlib.axis_4"/>
   <g id="patch_10">
    <path d="M 414 358.2 
L 414 86.4 
" style="fill:none;stroke:#000000;stroke-linecap:square;stroke-linejoin:miter;stroke-width:0.8;"/>
   </g>
   <g id="patch_11">
    <path d="M 693 358.2 
L 693 86.4 
" style="fill:none;stroke:#000000;stroke-linecap:square;stroke-linejoin:miter;stroke-width:0.8;"/>
   </g>
   <g id="patch_12">
    <path d="M 414 358.2 
L 693 358.2 
" style="fill:none;stroke:#000000;stroke-linecap:square;stroke-linejoin:miter;stroke-width:0.8;"/>
   </g>
   <g id="patch_13">
    <path d="M 414 86.4 
L 693 86.4 
" style="fill:none;stroke:#000000;stroke-linecap:square;stroke-linejoin:miter;stroke-width:0.8;"/>
   </g>
  </g>
  <g id="axes_3">
   <g id="patch_14">
    <path d="M 693 358.2 
L 972 358.2 
L 972 86.4 
L 693 86.4 
z
" style="fill:#ffffff;"/>
   </g>
   <g id="PathCollection_5">
    <defs>
     <path d="M 0 3 
C 0.795609 3 1.55874 2.683901 2.12132 2.12132 
C 2.683901 1.55874 3 0.795609 3 -0 
C 3 -0.795609 2.683901 -1.55874 2.12132 -2.12132 
C 1.55874 -2.683901 0.795609 -3 0 -3 
C -0.795609 -3 -1.55874 -2.683901 -2.12132 -2.12132 
C -2.683901 -1.55874 -3 -0.795609 -3 0 
C -3 0.795609 -2.683901 1.55874 -2.12132 2.12132 
C -1.55874 2.683901 -0.795609 3 0 3 
z
" id="C3_0_d18356d7cd"/>
    </defs>
    <g clip-path="url(#p31b9bbd018)">
     <use style="fill:#808080;fill-opacity:0.8;stroke:#808080;stroke-opacity:0.8;" x="777.096722" xlink:href="#C3_0_d18356d7cd" y="252.317672"/>
    </g>
    <g clip-path="url(#p31b9bbd018)">
     <use style="fill:#808080;fill-opacity:0.8;stroke:#808080;stroke-opacity:0.8;" x="875.501672" xlink:href="#C3_0_d18356d7cd" y="250.285116"/>
    </g>
    <g clip-path="url(#p31b9bbd018)">
     <use style="fill:#808080;fill-opacity:0.8;stroke:#808080;stroke-opacity:0.8;" x="913.762019" xlink:href="#C3_0_d18356d7cd" y="245.649988"/>
    </g>
    <g clip-path="url(#p31b9bbd018)">
     <use style="fill:#808080;fill-opacity:0.8;stroke:#808080;stroke-opacity:0.8;" x="830.457434" xlink:href="#C3_0_d18356d7cd" y="207.681439"/>
    </g>
    <g clip-path="url(#p31b9bbd018)">
     <use style="fill:#808080;fill-opacity:0.8;stroke:#808080;stroke-opacity:0.8;" x="864.277001" xlink:href="#C3_0_d18356d7cd" y="194.041062"/>
    </g>
    <g clip-path="url(#p31b9bbd018)">
     <use style="fill:#808080;fill-opacity:0.8;stroke:#808080;stroke-opacity:0.8;" x="875.935476" xlink:href="#C3_0_d18356d7cd" y="191.298486"/>
    </g>
    <g clip-path="url(#p31b9bbd018)">
     <use style="fill:#808080;fill-opacity:0.8;stroke:#808080;stroke-opacity:0.8;" x="943.820051" xlink:href="#C3_0_d18356d7cd" y="190.383461"/>
    </g>
    <g clip-path="url(#p31b9bbd018)">
     <use style="fill:#808080;fill-opacity:0.8;stroke:#808080;stroke-opacity:0.8;" x="808.661651" xlink:href="#C3_0_d18356d7cd" y="180.818197"/>
    </g>
    <g clip-path="url(#p31b9bbd018)">
     <use style="fill:#808080;fill-opacity:0.8;stroke:#808080;stroke-opacity:0.8;" x="795.581898" xlink:href="#C3_0_d18356d7cd" y="180.173179"/>
    </g>
    <g clip-path="url(#p31b9bbd018)">
     <use style="fill:#808080;fill-opacity:0.8;stroke:#808080;stroke-opacity:0.8;" x="920.828454" xlink:href="#C3_0_d18356d7cd" y="173.903005"/>
    </g>
    <g clip-path="url(#p31b9bbd018)">
     <use style="fill:#808080;fill-opacity:0.8;stroke:#808080;stroke-opacity:0.8;" x="915.525774" xlink:href="#C3_0_d18356d7cd" y="154.397467"/>
    </g>
    <g clip-path="url(#p31b9bbd018)">
     <use style="fill:#808080;fill-opacity:0.8;stroke:#808080;stroke-opacity:0.8;" x="893.199152" xlink:href="#C3_0_d18356d7cd" y="156.847534"/>
    </g>
    <g clip-path="url(#p31b9bbd018)">
     <use style="fill:#808080;fill-opacity:0.8;stroke:#808080;stroke-opacity:0.8;" x="880.1565" xlink:href="#C3_0_d18356d7cd" y="154.372466"/>
    </g>
    <g clip-path="url(#p31b9bbd018)">
     <use style="fill:#808080;fill-opacity:0.8;stroke:#808080;stroke-opacity:0.8;" x="881.320921" xlink:href="#C3_0_d18356d7cd" y="204.891362"/>
    </g>
    <g clip-path="url(#p31b9bbd018)">
     <use style="fill:#808080;fill-opacity:0.8;stroke:#808080;stroke-opacity:0.8;" x="904.049953" xlink:href="#C3_0_d18356d7cd" y="190.035951"/>
    </g>
    <g clip-path="url(#p31b9bbd018)">
     <use style="fill:#808080;fill-opacity:0.8;stroke:#808080;stroke-opacity:0.8;" x="887.910742" xlink:href="#C3_0_d18356d7cd" y="281.975991"/>
    </g>
   </g>
   <g id="PathCollection_6">
    <defs>
     <path d="M 0 4.242641 
C 1.125161 4.242641 2.204391 3.795609 3 3 
C 3.795609 2.204391 4.242641 1.125161 4.242641 -0 
C 4.242641 -1.125161 3.795609 -2.204391 3 -3 
C 2.204391 -3.795609 1.125161 -4.242641 0 -4.242641 
C -1.125161 -4.242641 -2.204391 -3.795609 -3 -3 
C -3.795609 -2.204391 -4.242641 -1.125161 -4.242641 0 
C -4.242641 1.125161 -3.795609 2.204391 -3 3 
C -2.204391 3.795609 -1.125161 4.242641 0 4.242641 
z
" id="C4_0_9365118099"/>
    </defs>
    <g clip-path="url(#p31b9bbd018)">
     <use style="fill:#ff0000;fill-opacity:0.8;stroke:#ff0000;stroke-opacity:0.8;" x="915.097678" xlink:href="#C4_0_9365118099" y="266.450562"/>
    </g>
    <g clip-path="url(#p31b9bbd018)">
     <use style="fill:#ff0000;fill-opacity:0.8;stroke:#ff0000;stroke-opacity:0.8;" x="843.756943" xlink:href="#C4_0_9365118099" y="211.474043"/>
    </g>
    <g clip-path="url(#p31b9bbd018)">
     <use style="fill:#ff0000;fill-opacity:0.8;stroke:#ff0000;stroke-opacity:0.8;" x="936.065809" xlink:href="#C4_0_9365118099" y="192.923531"/>
    </g>
   </g>
   <g id="patch_15">
    <path clip-path="url(#p31b9bbd018)" d="M 972 279.264072 
L 959.304107 279.535329 
L 943.82131 279.535329 
L 928.338513 279.535329 
L 912.855716 279.535329 
L 897.372919 279.535329 
L 888.392897 287.401796 
L 884.986681 295.810778 
L 875.697003 301.235928 
L 860.214206 301.235928 
L 859.90455 290.114371 
L 853.711432 281.976647 
L 844.73141 274.11018 
L 838.228635 268.413772 
L 829.248613 260.547305 
L 819.958935 255.122156 
L 804.476138 255.122156 
L 788.993341 255.122156 
L 773.510544 255.122156 
L 767.317425 246.984431 
L 760.81465 241.288024 
L 757.718091 230.437725 
L 754.931188 217.146108 
L 754.621532 206.024551 
L 754.621532 192.461677 
L 754.621532 178.898802 
L 754.621532 165.335928 
L 754.621532 151.773054 
L 754.621532 138.21018 
L 757.718091 127.35988 
L 770.413984 127.088623 
L 782.800222 129.801198 
L 795.496115 130.072455 
L 807.572697 135.226347 
L 819.958935 137.938922 
L 829.248613 143.364072 
L 841.63485 146.076647 
L 854.021088 148.789222 
L 866.407325 151.501796 
L 881.890122 151.501796 
L 893.966704 146.347904 
L 900.469478 140.651497 
L 906.662597 132.513772 
L 912.54606 121.934731 
L 915.642619 111.084431 
L 916.261931 108.371856 
L 919.358491 119.222156 
L 922.45505 130.072455 
L 925.551609 140.922754 
L 928.648169 151.773054 
L 934.841287 159.910778 
L 937.937847 170.761078 
L 943.82131 181.34012 
L 947.227525 189.749102 
L 950.324084 200.599401 
L 953.420644 211.449701 
L 953.420644 225.012575 
L 956.517203 235.862874 
L 962.400666 246.441916 
L 965.497225 257.292216 
L 965.806881 268.413772 
L 971.690344 278.992814 
z
" style="fill:none;stroke:#000000;stroke-linejoin:miter;"/>
   </g>
   <g id="matplotlib.axis_5"/>
   <g id="matplotlib.axis_6"/>
   <g id="patch_16">
    <path d="M 693 358.2 
L 693 86.4 
" style="fill:none;stroke:#000000;stroke-linecap:square;stroke-linejoin:miter;stroke-width:0.8;"/>
   </g>
   <g id="patch_17">
    <path d="M 972 358.2 
L 972 86.4 
" style="fill:none;stroke:#000000;stroke-linecap:square;stroke-linejoin:miter;stroke-width:0.8;"/>
   </g>
   <g id="patch_18">
    <path d="M 693 358.2 
L 972 358.2 
" style="fill:none;stroke:#000000;stroke-linecap:square;stroke-linejoin:miter;stroke-width:0.8;"/>
   </g>
   <g id="patch_19">
    <path d="M 693 86.4 
L 972 86.4 
" style="fill:none;stroke:#000000;stroke-linecap:square;stroke-linejoin:miter;stroke-width:0.8;"/>
   </g>
  </g>
  <g id="axes_4">
   <g id="patch_20">
    <path d="M 135 630 
L 414 630 
L 414 358.2 
L 135 358.2 
z
" style="fill:#ffffff;"/>
   </g>
   <g id="PathCollection_7">
    <defs>
     <path d="M 0 3 
C 0.795609 3 1.55874 2.683901 2.12132 2.12132 
C 2.683901 1.55874 3 0.795609 3 -0 
C 3 -0.795609 2.683901 -1.55874 2.12132 -2.12132 
C 1.55874 -2.683901 0.795609 -3 0 -3 
C -0.795609 -3 -1.55874 -2.683901 -2.12132 -2.12132 
C -2.683901 -1.55874 -3 -0.795609 -3 0 
C -3 0.795609 -2.683901 1.55874 -2.12132 2.12132 
C -1.55874 2.683901 -0.795609 3 0 3 
z
" id="C5_0_61fe6acfd7"/>
    </defs>
    <g clip-path="url(#p9737d7aa67)">
     <use style="fill:#808080;fill-opacity:0.8;stroke:#808080;stroke-opacity:0.8;" x="216.999053" xlink:href="#C5_0_61fe6acfd7" y="597.772207"/>
    </g>
    <g clip-path="url(#p9737d7aa67)">
     <use style="fill:#808080;fill-opacity:0.8;stroke:#808080;stroke-opacity:0.8;" x="260.171085" xlink:href="#C5_0_61fe6acfd7" y="597.502199"/>
    </g>
    <g clip-path="url(#p9737d7aa67)">
     <use style="fill:#808080;fill-opacity:0.8;stroke:#808080;stroke-opacity:0.8;" x="204.144764" xlink:href="#C5_0_61fe6acfd7" y="581.791765"/>
    </g>
    <g clip-path="url(#p9737d7aa67)">
     <use style="fill:#808080;fill-opacity:0.8;stroke:#808080;stroke-opacity:0.8;" x="249.685593" xlink:href="#C5_0_61fe6acfd7" y="580.234222"/>
    </g>
    <g clip-path="url(#p9737d7aa67)">
     <use style="fill:#808080;fill-opacity:0.8;stroke:#808080;stroke-opacity:0.8;" x="276.929608" xlink:href="#C5_0_61fe6acfd7" y="571.011467"/>
    </g>
    <g clip-path="url(#p9737d7aa67)">
     <use style="fill:#808080;fill-opacity:0.8;stroke:#808080;stroke-opacity:0.8;" x="334.40004" xlink:href="#C5_0_61fe6acfd7" y="564.518788"/>
    </g>
    <g clip-path="url(#p9737d7aa67)">
     <use style="fill:#808080;fill-opacity:0.8;stroke:#808080;stroke-opacity:0.8;" x="208.16601" xlink:href="#C5_0_61fe6acfd7" y="558.926134"/>
    </g>
    <g clip-path="url(#p9737d7aa67)">
     <use style="fill:#808080;fill-opacity:0.8;stroke:#808080;stroke-opacity:0.8;" x="186.795469" xlink:href="#C5_0_61fe6acfd7" y="550.10839"/>
    </g>
    <g clip-path="url(#p9737d7aa67)">
     <use style="fill:#808080;fill-opacity:0.8;stroke:#808080;stroke-opacity:0.8;" x="324.896313" xlink:href="#C5_0_61fe6acfd7" y="548.350841"/>
    </g>
    <g clip-path="url(#p9737d7aa67)">
     <use style="fill:#808080;fill-opacity:0.8;stroke:#808080;stroke-opacity:0.8;" x="257.085942" xlink:href="#C5_0_61fe6acfd7" y="540.738131"/>
    </g>
    <g clip-path="url(#p9737d7aa67)">
     <use style="fill:#808080;fill-opacity:0.8;stroke:#808080;stroke-opacity:0.8;" x="204.552882" xlink:href="#C5_0_61fe6acfd7" y="540.000611"/>
    </g>
    <g clip-path="url(#p9737d7aa67)">
     <use style="fill:#808080;fill-opacity:0.8;stroke:#808080;stroke-opacity:0.8;" x="295.346289" xlink:href="#C5_0_61fe6acfd7" y="539.350593"/>
    </g>
    <g clip-path="url(#p9737d7aa67)">
     <use style="fill:#808080;fill-opacity:0.8;stroke:#808080;stroke-opacity:0.8;" x="336.280807" xlink:href="#C5_0_61fe6acfd7" y="535.675491"/>
    </g>
    <g clip-path="url(#p9737d7aa67)">
     <use style="fill:#808080;fill-opacity:0.8;stroke:#808080;stroke-opacity:0.8;" x="363.804512" xlink:href="#C5_0_61fe6acfd7" y="532.442902"/>
    </g>
    <g clip-path="url(#p9737d7aa67)">
     <use style="fill:#808080;fill-opacity:0.8;stroke:#808080;stroke-opacity:0.8;" x="316.485658" xlink:href="#C5_0_61fe6acfd7" y="523.935167"/>
    </g>
    <g clip-path="url(#p9737d7aa67)">
     <use style="fill:#808080;fill-opacity:0.8;stroke:#808080;stroke-opacity:0.8;" x="253.19027" xlink:href="#C5_0_61fe6acfd7" y="523.880165"/>
    </g>
    <g clip-path="url(#p9737d7aa67)">
     <use style="fill:#808080;fill-opacity:0.8;stroke:#808080;stroke-opacity:0.8;" x="245.812753" xlink:href="#C5_0_61fe6acfd7" y="520.81008"/>
    </g>
    <g clip-path="url(#p9737d7aa67)">
     <use style="fill:#808080;fill-opacity:0.8;stroke:#808080;stroke-opacity:0.8;" x="211.933253" xlink:href="#C5_0_61fe6acfd7" y="512.934863"/>
    </g>
    <g clip-path="url(#p9737d7aa67)">
     <use style="fill:#808080;fill-opacity:0.8;stroke:#808080;stroke-opacity:0.8;" x="248.655309" xlink:href="#C5_0_61fe6acfd7" y="510.374792"/>
    </g>
    <g clip-path="url(#p9737d7aa67)">
     <use style="fill:#808080;fill-opacity:0.8;stroke:#808080;stroke-opacity:0.8;" x="214.818618" xlink:href="#C5_0_61fe6acfd7" y="495.024368"/>
    </g>
    <g clip-path="url(#p9737d7aa67)">
     <use style="fill:#808080;fill-opacity:0.8;stroke:#808080;stroke-opacity:0.8;" x="324.413992" xlink:href="#C5_0_61fe6acfd7" y="494.881864"/>
    </g>
    <g clip-path="url(#p9737d7aa67)">
     <use style="fill:#808080;fill-opacity:0.8;stroke:#808080;stroke-opacity:0.8;" x="231.637075" xlink:href="#C5_0_61fe6acfd7" y="480.723973"/>
    </g>
    <g clip-path="url(#p9737d7aa67)">
     <use style="fill:#808080;fill-opacity:0.8;stroke:#808080;stroke-opacity:0.8;" x="206.222455" xlink:href="#C5_0_61fe6acfd7" y="480.048954"/>
    </g>
    <g clip-path="url(#p9737d7aa67)">
     <use style="fill:#808080;fill-opacity:0.8;stroke:#808080;stroke-opacity:0.8;" x="180.245603" xlink:href="#C5_0_61fe6acfd7" y="477.823893"/>
    </g>
    <g clip-path="url(#p9737d7aa67)">
     <use style="fill:#808080;fill-opacity:0.8;stroke:#808080;stroke-opacity:0.8;" x="214.875698" xlink:href="#C5_0_61fe6acfd7" y="471.741225"/>
    </g>
    <g clip-path="url(#p9737d7aa67)">
     <use style="fill:#808080;fill-opacity:0.8;stroke:#808080;stroke-opacity:0.8;" x="313.26067" xlink:href="#C5_0_61fe6acfd7" y="476.381353"/>
    </g>
    <g clip-path="url(#p9737d7aa67)">
     <use style="fill:#808080;fill-opacity:0.8;stroke:#808080;stroke-opacity:0.8;" x="309.316481" xlink:href="#C5_0_61fe6acfd7" y="617.162742"/>
    </g>
    <g clip-path="url(#p9737d7aa67)">
     <use style="fill:#808080;fill-opacity:0.8;stroke:#808080;stroke-opacity:0.8;" x="304.835745" xlink:href="#C5_0_61fe6acfd7" y="612.785122"/>
    </g>
    <g clip-path="url(#p9737d7aa67)">
     <use style="fill:#808080;fill-opacity:0.8;stroke:#808080;stroke-opacity:0.8;" x="297.478206" xlink:href="#C5_0_61fe6acfd7" y="469.678668"/>
    </g>
    <g clip-path="url(#p9737d7aa67)">
     <use style="fill:#808080;fill-opacity:0.8;stroke:#808080;stroke-opacity:0.8;" x="297.429688" xlink:href="#C5_0_61fe6acfd7" y="531.29037"/>
    </g>
    <g clip-path="url(#p9737d7aa67)">
     <use style="fill:#808080;fill-opacity:0.8;stroke:#808080;stroke-opacity:0.8;" x="296.787545" xlink:href="#C5_0_61fe6acfd7" y="547.683323"/>
    </g>
    <g clip-path="url(#p9737d7aa67)">
     <use style="fill:#808080;fill-opacity:0.8;stroke:#808080;stroke-opacity:0.8;" x="293.054549" xlink:href="#C5_0_61fe6acfd7" y="514.024893"/>
    </g>
    <g clip-path="url(#p9737d7aa67)">
     <use style="fill:#808080;fill-opacity:0.8;stroke:#808080;stroke-opacity:0.8;" x="330.084834" xlink:href="#C5_0_61fe6acfd7" y="488.661692"/>
    </g>
    <g clip-path="url(#p9737d7aa67)">
     <use style="fill:#808080;fill-opacity:0.8;stroke:#808080;stroke-opacity:0.8;" x="371.182029" xlink:href="#C5_0_61fe6acfd7" y="509.824777"/>
    </g>
    <g clip-path="url(#p9737d7aa67)">
     <use style="fill:#808080;fill-opacity:0.8;stroke:#808080;stroke-opacity:0.8;" x="357.003497" xlink:href="#C5_0_61fe6acfd7" y="499.274486"/>
    </g>
    <g clip-path="url(#p9737d7aa67)">
     <use style="fill:#808080;fill-opacity:0.8;stroke:#808080;stroke-opacity:0.8;" x="340.761543" xlink:href="#C5_0_61fe6acfd7" y="510.359792"/>
    </g>
    <g clip-path="url(#p9737d7aa67)">
     <use style="fill:#808080;fill-opacity:0.8;stroke:#808080;stroke-opacity:0.8;" x="365.551143" xlink:href="#C5_0_61fe6acfd7" y="526.57024"/>
    </g>
    <g clip-path="url(#p9737d7aa67)">
     <use style="fill:#808080;fill-opacity:0.8;stroke:#808080;stroke-opacity:0.8;" x="352.745371" xlink:href="#C5_0_61fe6acfd7" y="518.240009"/>
    </g>
    <g clip-path="url(#p9737d7aa67)">
     <use style="fill:#808080;fill-opacity:0.8;stroke:#808080;stroke-opacity:0.8;" x="262.596961" xlink:href="#C5_0_61fe6acfd7" y="463.748504"/>
    </g>
    <g clip-path="url(#p9737d7aa67)">
     <use style="fill:#808080;fill-opacity:0.8;stroke:#808080;stroke-opacity:0.8;" x="216.205649" xlink:href="#C5_0_61fe6acfd7" y="466.091069"/>
    </g>
    <g clip-path="url(#p9737d7aa67)">
     <use style="fill:#808080;fill-opacity:0.8;stroke:#808080;stroke-opacity:0.8;" x="204.632793" xlink:href="#C5_0_61fe6acfd7" y="366.645821"/>
    </g>
    <g clip-path="url(#p9737d7aa67)">
     <use style="fill:#808080;fill-opacity:0.8;stroke:#808080;stroke-opacity:0.8;" x="185.773747" xlink:href="#C5_0_61fe6acfd7" y="379.483676"/>
    </g>
    <g clip-path="url(#p9737d7aa67)">
     <use style="fill:#808080;fill-opacity:0.8;stroke:#808080;stroke-opacity:0.8;" x="229.03996" xlink:href="#C5_0_61fe6acfd7" y="387.108887"/>
    </g>
    <g clip-path="url(#p9737d7aa67)">
     <use style="fill:#808080;fill-opacity:0.8;stroke:#808080;stroke-opacity:0.8;" x="194.992076" xlink:href="#C5_0_61fe6acfd7" y="391.839017"/>
    </g>
    <g clip-path="url(#p9737d7aa67)">
     <use style="fill:#808080;fill-opacity:0.8;stroke:#808080;stroke-opacity:0.8;" x="211.522281" xlink:href="#C5_0_61fe6acfd7" y="399.571731"/>
    </g>
    <g clip-path="url(#p9737d7aa67)">
     <use style="fill:#808080;fill-opacity:0.8;stroke:#808080;stroke-opacity:0.8;" x="216.262728" xlink:href="#C5_0_61fe6acfd7" y="415.709677"/>
    </g>
    <g clip-path="url(#p9737d7aa67)">
     <use style="fill:#808080;fill-opacity:0.8;stroke:#808080;stroke-opacity:0.8;" x="202.298244" xlink:href="#C5_0_61fe6acfd7" y="423.05988"/>
    </g>
    <g clip-path="url(#p9737d7aa67)">
     <use style="fill:#808080;fill-opacity:0.8;stroke:#808080;stroke-opacity:0.8;" x="239.83939" xlink:href="#C5_0_61fe6acfd7" y="427.332498"/>
    </g>
    <g clip-path="url(#p9737d7aa67)">
     <use style="fill:#808080;fill-opacity:0.8;stroke:#808080;stroke-opacity:0.8;" x="216.525294" xlink:href="#C5_0_61fe6acfd7" y="428.222523"/>
    </g>
    <g clip-path="url(#p9737d7aa67)">
     <use style="fill:#808080;fill-opacity:0.8;stroke:#808080;stroke-opacity:0.8;" x="314.282392" xlink:href="#C5_0_61fe6acfd7" y="429.21755"/>
    </g>
    <g clip-path="url(#p9737d7aa67)">
     <use style="fill:#808080;fill-opacity:0.8;stroke:#808080;stroke-opacity:0.8;" x="254.959733" xlink:href="#C5_0_61fe6acfd7" y="436.962764"/>
    </g>
    <g clip-path="url(#p9737d7aa67)">
     <use style="fill:#808080;fill-opacity:0.8;stroke:#808080;stroke-opacity:0.8;" x="265.097041" xlink:href="#C5_0_61fe6acfd7" y="437.310274"/>
    </g>
    <g clip-path="url(#p9737d7aa67)">
     <use style="fill:#808080;fill-opacity:0.8;stroke:#808080;stroke-opacity:0.8;" x="283.185515" xlink:href="#C5_0_61fe6acfd7" y="439.477833"/>
    </g>
    <g clip-path="url(#p9737d7aa67)">
     <use style="fill:#808080;fill-opacity:0.8;stroke:#808080;stroke-opacity:0.8;" x="353.49882" xlink:href="#C5_0_61fe6acfd7" y="436.652755"/>
    </g>
    <g clip-path="url(#p9737d7aa67)">
     <use style="fill:#808080;fill-opacity:0.8;stroke:#808080;stroke-opacity:0.8;" x="214.416208" xlink:href="#C5_0_61fe6acfd7" y="447.010542"/>
    </g>
    <g clip-path="url(#p9737d7aa67)">
     <use style="fill:#808080;fill-opacity:0.8;stroke:#808080;stroke-opacity:0.8;" x="200.026482" xlink:href="#C5_0_61fe6acfd7" y="446.073016"/>
    </g>
    <g clip-path="url(#p9737d7aa67)">
     <use style="fill:#808080;fill-opacity:0.8;stroke:#808080;stroke-opacity:0.8;" x="368.485026" xlink:href="#C5_0_61fe6acfd7" y="438.222799"/>
    </g>
    <g clip-path="url(#p9737d7aa67)">
     <use style="fill:#808080;fill-opacity:0.8;stroke:#808080;stroke-opacity:0.8;" x="191.795627" xlink:href="#C5_0_61fe6acfd7" y="445.888011"/>
    </g>
    <g clip-path="url(#p9737d7aa67)">
     <use style="fill:#808080;fill-opacity:0.8;stroke:#808080;stroke-opacity:0.8;" x="300.189479" xlink:href="#C5_0_61fe6acfd7" y="452.39319"/>
    </g>
    <g clip-path="url(#p9737d7aa67)">
     <use style="fill:#808080;fill-opacity:0.8;stroke:#808080;stroke-opacity:0.8;" x="366.444436" xlink:href="#C5_0_61fe6acfd7" y="441.492889"/>
    </g>
    <g clip-path="url(#p9737d7aa67)">
     <use style="fill:#808080;fill-opacity:0.8;stroke:#808080;stroke-opacity:0.8;" x="260.582057" xlink:href="#C5_0_61fe6acfd7" y="454.670753"/>
    </g>
    <g clip-path="url(#p9737d7aa67)">
     <use style="fill:#808080;fill-opacity:0.8;stroke:#808080;stroke-opacity:0.8;" x="217.584117" xlink:href="#C5_0_61fe6acfd7" y="453.448219"/>
    </g>
    <g clip-path="url(#p9737d7aa67)">
     <use style="fill:#808080;fill-opacity:0.8;stroke:#808080;stroke-opacity:0.8;" x="211.308233" xlink:href="#C5_0_61fe6acfd7" y="456.495804"/>
    </g>
    <g clip-path="url(#p9737d7aa67)">
     <use style="fill:#808080;fill-opacity:0.8;stroke:#808080;stroke-opacity:0.8;" x="190.614083" xlink:href="#C5_0_61fe6acfd7" y="457.393328"/>
    </g>
    <g clip-path="url(#p9737d7aa67)">
     <use style="fill:#808080;fill-opacity:0.8;stroke:#808080;stroke-opacity:0.8;" x="181.449979" xlink:href="#C5_0_61fe6acfd7" y="459.790895"/>
    </g>
   </g>
   <g id="PathCollection_8"/>
   <g id="patch_21">
    <path clip-path="url(#p9737d7aa67)" d="M 398.517203 499.52515 
L 394.801332 494.1 
L 391.704772 483.249701 
L 385.511654 475.111976 
L 379.628191 464.532934 
L 370.338513 459.107784 
L 361.048835 453.682635 
L 351.759156 459.107784 
L 348.972253 472.399401 
L 352.068812 483.249701 
L 355.165372 494.1 
L 364.145394 501.966467 
L 370.648169 507.662874 
L 379.628191 515.529341 
L 385.82131 523.667066 
L 388.917869 534.517365 
L 389.227525 545.638922 
L 382.72475 551.335329 
L 370.648169 556.489222 
L 370.648169 570.052096 
L 364.145394 575.748503 
L 354.855716 581.173653 
L 342.469478 583.886228 
L 330.083241 586.598802 
L 317.697003 589.311377 
L 308.716981 597.177844 
L 314.600444 607.756886 
L 318.006659 616.165868 
L 318.006659 629.728743 
L 305.310766 630 
L 289.827969 630 
L 274.345172 630 
L 258.862375 630 
L 249.263041 627.016168 
L 239.973363 621.591018 
L 236.876804 610.740719 
L 230.993341 600.161677 
L 215.510544 600.161677 
L 209.007769 594.465269 
L 200.027747 586.598802 
L 193.524972 580.902395 
L 184.54495 573.035928 
L 184.235294 561.914371 
L 184.235294 548.351497 
L 184.235294 534.788623 
L 184.54495 523.667066 
L 193.524972 515.800599 
L 199.718091 507.662874 
L 199.718091 494.1 
L 190.738069 486.233533 
L 181.448391 480.808383 
L 172.158713 475.383234 
L 171.849057 464.261677 
L 172.158713 453.14012 
L 181.448391 447.71497 
L 190.738069 442.28982 
L 196.621532 431.710778 
L 196.621532 418.147904 
L 193.834628 404.856287 
L 184.54495 399.431138 
L 172.158713 396.718563 
L 162.869034 396.718563 
L 162.559378 391.022156 
L 169.062153 385.325749 
L 174.945616 374.746707 
L 181.138735 366.608982 
L 187.641509 360.912575 
L 200.027747 358.2 
L 212.413984 360.912575 
L 224.800222 363.62515 
L 234.399556 366.608982 
L 243.689234 372.034132 
L 252.978912 377.459281 
L 262.26859 382.884431 
L 271.558269 388.309581 
L 280.538291 396.176048 
L 287.041065 401.872455 
L 293.234184 410.01018 
L 302.214206 417.876647 
L 308.716981 423.573054 
L 318.006659 428.998204 
L 327.296337 434.423353 
L 339.372919 439.577246 
L 351.449501 434.423353 
L 354.855716 426.014371 
L 360.739179 415.435329 
L 363.835738 404.58503 
L 364.45505 401.872455 
L 367.551609 412.722754 
L 370.648169 423.573054 
L 376.841287 431.710778 
L 379.937847 442.561078 
L 385.82131 453.14012 
L 389.227525 461.549102 
L 392.324084 472.399401 
L 395.420644 483.249701 
L 395.420644 496.812575 
z
" style="fill:none;stroke:#000000;stroke-linejoin:miter;"/>
   </g>
   <g id="matplotlib.axis_7"/>
   <g id="matplotlib.axis_8"/>
   <g id="patch_22">
    <path d="M 135 630 
L 135 358.2 
" style="fill:none;stroke:#000000;stroke-linecap:square;stroke-linejoin:miter;stroke-width:0.8;"/>
   </g>
   <g id="patch_23">
    <path d="M 414 630 
L 414 358.2 
" style="fill:none;stroke:#000000;stroke-linecap:square;stroke-linejoin:miter;stroke-width:0.8;"/>
   </g>
   <g id="patch_24">
    <path d="M 135 630 
L 414 630 
" style="fill:none;stroke:#000000;stroke-linecap:square;stroke-linejoin:miter;stroke-width:0.8;"/>
   </g>
   <g id="patch_25">
    <path d="M 135 358.2 
L 414 358.2 
" style="fill:none;stroke:#000000;stroke-linecap:square;stroke-linejoin:miter;stroke-width:0.8;"/>
   </g>
  </g>
  <g id="axes_5">
   <g id="patch_26">
    <path d="M 414 630 
L 693 630 
L 693 358.2 
L 414 358.2 
z
" style="fill:#ffffff;"/>
   </g>
   <g id="PathCollection_9">
    <defs>
     <path d="M 0 3 
C 0.795609 3 1.55874 2.683901 2.12132 2.12132 
C 2.683901 1.55874 3 0.795609 3 -0 
C 3 -0.795609 2.683901 -1.55874 2.12132 -2.12132 
C 1.55874 -2.683901 0.795609 -3 0 -3 
C -0.795609 -3 -1.55874 -2.683901 -2.12132 -2.12132 
C -2.683901 -1.55874 -3 -0.795609 -3 0 
C -3 0.795609 -2.683901 1.55874 -2.12132 2.12132 
C -1.55874 2.683901 -0.795609 3 0 3 
z
" id="C6_0_776cda8b3a"/>
    </defs>
    <g clip-path="url(#pf95daf36c8)">
     <use style="fill:#808080;fill-opacity:0.8;stroke:#808080;stroke-opacity:0.8;" x="460.449979" xlink:href="#C6_0_776cda8b3a" y="546.650794"/>
    </g>
    <g clip-path="url(#pf95daf36c8)">
     <use style="fill:#808080;fill-opacity:0.8;stroke:#808080;stroke-opacity:0.8;" x="485.681945" xlink:href="#C6_0_776cda8b3a" y="462.365966"/>
    </g>
    <g clip-path="url(#pf95daf36c8)">
     <use style="fill:#808080;fill-opacity:0.8;stroke:#808080;stroke-opacity:0.8;" x="488.319015" xlink:href="#C6_0_776cda8b3a" y="500.632023"/>
    </g>
    <g clip-path="url(#pf95daf36c8)">
     <use style="fill:#808080;fill-opacity:0.8;stroke:#808080;stroke-opacity:0.8;" x="493.60457" xlink:href="#C6_0_776cda8b3a" y="399.15672"/>
    </g>
    <g clip-path="url(#pf95daf36c8)">
     <use style="fill:#808080;fill-opacity:0.8;stroke:#808080;stroke-opacity:0.8;" x="498.188049" xlink:href="#C6_0_776cda8b3a" y="526.650242"/>
    </g>
    <g clip-path="url(#pf95daf36c8)">
     <use style="fill:#808080;fill-opacity:0.8;stroke:#808080;stroke-opacity:0.8;" x="503.804666" xlink:href="#C6_0_776cda8b3a" y="475.708834"/>
    </g>
    <g clip-path="url(#pf95daf36c8)">
     <use style="fill:#808080;fill-opacity:0.8;stroke:#808080;stroke-opacity:0.8;" x="505.554151" xlink:href="#C6_0_776cda8b3a" y="418.497254"/>
    </g>
    <g clip-path="url(#pf95daf36c8)">
     <use style="fill:#808080;fill-opacity:0.8;stroke:#808080;stroke-opacity:0.8;" x="508.359605" xlink:href="#C6_0_776cda8b3a" y="442.560419"/>
    </g>
    <g clip-path="url(#pf95daf36c8)">
     <use style="fill:#808080;fill-opacity:0.8;stroke:#808080;stroke-opacity:0.8;" x="509.997785" xlink:href="#C6_0_776cda8b3a" y="389.171444"/>
    </g>
    <g clip-path="url(#pf95daf36c8)">
     <use style="fill:#808080;fill-opacity:0.8;stroke:#808080;stroke-opacity:0.8;" x="511.892822" xlink:href="#C6_0_776cda8b3a" y="536.410511"/>
    </g>
    <g clip-path="url(#pf95daf36c8)">
     <use style="fill:#808080;fill-opacity:0.8;stroke:#808080;stroke-opacity:0.8;" x="518.519745" xlink:href="#C6_0_776cda8b3a" y="566.068831"/>
    </g>
    <g clip-path="url(#pf95daf36c8)">
     <use style="fill:#808080;fill-opacity:0.8;stroke:#808080;stroke-opacity:0.8;" x="523.939437" xlink:href="#C6_0_776cda8b3a" y="370.688433"/>
    </g>
    <g clip-path="url(#pf95daf36c8)">
     <use style="fill:#808080;fill-opacity:0.8;stroke:#808080;stroke-opacity:0.8;" x="524.906934" xlink:href="#C6_0_776cda8b3a" y="422.747371"/>
    </g>
    <g clip-path="url(#pf95daf36c8)">
     <use style="fill:#808080;fill-opacity:0.8;stroke:#808080;stroke-opacity:0.8;" x="525.477728" xlink:href="#C6_0_776cda8b3a" y="594.962129"/>
    </g>
    <g clip-path="url(#pf95daf36c8)">
     <use style="fill:#808080;fill-opacity:0.8;stroke:#808080;stroke-opacity:0.8;" x="526.248301" xlink:href="#C6_0_776cda8b3a" y="407.296944"/>
    </g>
    <g clip-path="url(#pf95daf36c8)">
     <use style="fill:#808080;fill-opacity:0.8;stroke:#808080;stroke-opacity:0.8;" x="530.238153" xlink:href="#C6_0_776cda8b3a" y="434.557698"/>
    </g>
    <g clip-path="url(#pf95daf36c8)">
     <use style="fill:#808080;fill-opacity:0.8;stroke:#808080;stroke-opacity:0.8;" x="532.795312" xlink:href="#C6_0_776cda8b3a" y="394.221583"/>
    </g>
    <g clip-path="url(#pf95daf36c8)">
     <use style="fill:#808080;fill-opacity:0.8;stroke:#808080;stroke-opacity:0.8;" x="535.589351" xlink:href="#C6_0_776cda8b3a" y="402.594315"/>
    </g>
    <g clip-path="url(#pf95daf36c8)">
     <use style="fill:#808080;fill-opacity:0.8;stroke:#808080;stroke-opacity:0.8;" x="535.786275" xlink:href="#C6_0_776cda8b3a" y="399.15672"/>
    </g>
    <g clip-path="url(#pf95daf36c8)">
     <use style="fill:#808080;fill-opacity:0.8;stroke:#808080;stroke-opacity:0.8;" x="545.198674" xlink:href="#C6_0_776cda8b3a" y="544.083223"/>
    </g>
    <g clip-path="url(#pf95daf36c8)">
     <use style="fill:#808080;fill-opacity:0.8;stroke:#808080;stroke-opacity:0.8;" x="545.98637" xlink:href="#C6_0_776cda8b3a" y="502.237067"/>
    </g>
    <g clip-path="url(#pf95daf36c8)">
     <use style="fill:#808080;fill-opacity:0.8;stroke:#808080;stroke-opacity:0.8;" x="571.563666" xlink:href="#C6_0_776cda8b3a" y="507.687218"/>
    </g>
    <g clip-path="url(#pf95daf36c8)">
     <use style="fill:#808080;fill-opacity:0.8;stroke:#808080;stroke-opacity:0.8;" x="571.863333" xlink:href="#C6_0_776cda8b3a" y="570.573955"/>
    </g>
    <g clip-path="url(#pf95daf36c8)">
     <use style="fill:#808080;fill-opacity:0.8;stroke:#808080;stroke-opacity:0.8;" x="572.573972" xlink:href="#C6_0_776cda8b3a" y="527.115255"/>
    </g>
    <g clip-path="url(#pf95daf36c8)">
     <use style="fill:#808080;fill-opacity:0.8;stroke:#808080;stroke-opacity:0.8;" x="581.806571" xlink:href="#C6_0_776cda8b3a" y="585.336863"/>
    </g>
    <g clip-path="url(#pf95daf36c8)">
     <use style="fill:#808080;fill-opacity:0.8;stroke:#808080;stroke-opacity:0.8;" x="589.772007" xlink:href="#C6_0_776cda8b3a" y="474.648805"/>
    </g>
    <g clip-path="url(#pf95daf36c8)">
     <use style="fill:#808080;fill-opacity:0.8;stroke:#808080;stroke-opacity:0.8;" x="590.260036" xlink:href="#C6_0_776cda8b3a" y="600.487282"/>
    </g>
    <g clip-path="url(#pf95daf36c8)">
     <use style="fill:#808080;fill-opacity:0.8;stroke:#808080;stroke-opacity:0.8;" x="599.60394" xlink:href="#C6_0_776cda8b3a" y="493.64183"/>
    </g>
    <g clip-path="url(#pf95daf36c8)">
     <use style="fill:#808080;fill-opacity:0.8;stroke:#808080;stroke-opacity:0.8;" x="620.28382" xlink:href="#C6_0_776cda8b3a" y="515.799942"/>
    </g>
    <g clip-path="url(#pf95daf36c8)">
     <use style="fill:#808080;fill-opacity:0.8;stroke:#808080;stroke-opacity:0.8;" x="639.987642" xlink:href="#C6_0_776cda8b3a" y="532.3629"/>
    </g>
    <g clip-path="url(#pf95daf36c8)">
     <use style="fill:#808080;fill-opacity:0.8;stroke:#808080;stroke-opacity:0.8;" x="635.743786" xlink:href="#C6_0_776cda8b3a" y="480.196458"/>
    </g>
   </g>
   <g id="PathCollection_10"/>
   <g id="patch_27">
    <path clip-path="url(#pf95daf36c8)" d="M 677.517203 610.740719 
L 664.82131 611.011976 
L 652.435072 613.724551 
L 636.952275 613.724551 
L 624.566038 616.437126 
L 612.1798 619.149701 
L 597.006659 621.591018 
L 593.600444 630 
L 578.117647 630 
L 562.63485 630 
L 547.152053 630 
L 534.45616 629.728743 
L 522.379578 624.57485 
L 515.876804 618.878443 
L 506.896781 611.011976 
L 500.703663 602.874251 
L 491.104329 599.890419 
L 482.124306 592.023952 
L 469.738069 589.311377 
L 466.331853 580.902395 
L 460.138735 572.764671 
L 460.138735 559.201796 
L 460.138735 545.638922 
L 460.138735 532.076048 
L 463.235294 521.225749 
L 469.738069 515.529341 
L 478.718091 507.662874 
L 478.718091 494.1 
L 469.738069 486.233533 
L 457.351831 483.520958 
L 450.849057 477.824551 
L 450.849057 464.261677 
L 450.849057 450.698802 
L 450.849057 437.135928 
L 441.559378 431.710778 
L 426.386238 429.269461 
L 414 426.556886 
L 416.786903 418.147904 
L 419.883463 407.297605 
L 420.193119 396.176048 
L 423.289678 385.325749 
L 429.173141 374.746707 
L 435.675916 369.050299 
L 447.752497 363.896407 
L 460.138735 361.183832 
L 472.834628 360.912575 
L 485.220866 363.62515 
L 500.703663 363.62515 
L 516.186459 363.62515 
L 528.572697 366.337725 
L 540.958935 369.050299 
L 550.248613 374.475449 
L 559.538291 379.900599 
L 566.041065 385.597006 
L 575.021088 393.463473 
L 581.523862 399.15988 
L 590.503885 407.026347 
L 599.793563 412.451497 
L 606.296337 418.147904 
L 618.372919 423.301796 
L 630.759156 426.014371 
L 645.932297 423.573054 
L 649.648169 418.147904 
L 652.744728 428.998204 
L 658.937847 437.135928 
L 662.034406 447.986228 
L 667.917869 458.565269 
L 664.511654 456.123952 
L 652.435072 456.39521 
L 646.551609 466.974251 
L 646.551609 480.537126 
L 652.435072 491.116168 
L 658.628191 499.253892 
L 664.82131 507.391617 
L 668.227525 515.800599 
L 671.324084 526.650898 
L 671.324084 540.213772 
L 668.227525 551.064072 
L 668.227525 564.626946 
L 658.628191 567.610778 
L 655.531632 578.461078 
L 658.628191 588.768862 
L 668.227525 591.752695 
L 671.324084 602.602994 
z
" style="fill:none;stroke:#000000;stroke-linejoin:miter;"/>
   </g>
   <g id="matplotlib.axis_9"/>
   <g id="matplotlib.axis_10"/>
   <g id="patch_28">
    <path d="M 414 630 
L 414 358.2 
" style="fill:none;stroke:#000000;stroke-linecap:square;stroke-linejoin:miter;stroke-width:0.8;"/>
   </g>
   <g id="patch_29">
    <path d="M 693 630 
L 693 358.2 
" style="fill:none;stroke:#000000;stroke-linecap:square;stroke-linejoin:miter;stroke-width:0.8;"/>
   </g>
   <g id="patch_30">
    <path d="M 414 630 
L 693 630 
" style="fill:none;stroke:#000000;stroke-linecap:square;stroke-linejoin:miter;stroke-width:0.8;"/>
   </g>
   <g id="patch_31">
    <path d="M 414 358.2 
L 693 358.2 
" style="fill:none;stroke:#000000;stroke-linecap:square;stroke-linejoin:miter;stroke-width:0.8;"/>
   </g>
  </g>
  <g id="axes_6"/>
  <g id="text_1">
   <!-- L6 IT cell has Timp3 peripheral score 0.04 -->
   <g transform="translate(414.285 23.518125)scale(0.12 -0.12)">
    <defs>
     <path d="M 9.8125 72.90625 
L 19.671875 72.90625 
L 19.671875 8.296875 
L 55.171875 8.296875 
L 55.171875 0 
L 9.8125 0 
z
" id="DejaVuSans-76"/>
     <path d="M 33.015625 40.375 
Q 26.375 40.375 22.484375 35.828125 
Q 18.609375 31.296875 18.609375 23.390625 
Q 18.609375 15.53125 22.484375 10.953125 
Q 26.375 6.390625 33.015625 6.390625 
Q 39.65625 6.390625 43.53125 10.953125 
Q 47.40625 15.53125 47.40625 23.390625 
Q 47.40625 31.296875 43.53125 35.828125 
Q 39.65625 40.375 33.015625 40.375 
z
M 52.59375 71.296875 
L 52.59375 62.3125 
Q 48.875 64.0625 45.09375 64.984375 
Q 41.3125 65.921875 37.59375 65.921875 
Q 27.828125 65.921875 22.671875 59.328125 
Q 17.53125 52.734375 16.796875 39.40625 
Q 19.671875 43.65625 24.015625 45.921875 
Q 28.375 48.1875 33.59375 48.1875 
Q 44.578125 48.1875 50.953125 41.515625 
Q 57.328125 34.859375 57.328125 23.390625 
Q 57.328125 12.15625 50.6875 5.359375 
Q 44.046875 -1.421875 33.015625 -1.421875 
Q 20.359375 -1.421875 13.671875 8.265625 
Q 6.984375 17.96875 6.984375 36.375 
Q 6.984375 53.65625 15.1875 63.9375 
Q 23.390625 74.21875 37.203125 74.21875 
Q 40.921875 74.21875 44.703125 73.484375 
Q 48.484375 72.75 52.59375 71.296875 
z
" id="DejaVuSans-54"/>
     <path id="DejaVuSans-32"/>
     <path d="M 9.8125 72.90625 
L 19.671875 72.90625 
L 19.671875 0 
L 9.8125 0 
z
" id="DejaVuSans-73"/>
     <path d="M -0.296875 72.90625 
L 61.375 72.90625 
L 61.375 64.59375 
L 35.5 64.59375 
L 35.5 0 
L 25.59375 0 
L 25.59375 64.59375 
L -0.296875 64.59375 
z
" id="DejaVuSans-84"/>
     <path d="M 48.78125 52.59375 
L 48.78125 44.1875 
Q 44.96875 46.296875 41.140625 47.34375 
Q 37.3125 48.390625 33.40625 48.390625 
Q 24.65625 48.390625 19.8125 42.84375 
Q 14.984375 37.3125 14.984375 27.296875 
Q 14.984375 17.28125 19.8125 11.734375 
Q 24.65625 6.203125 33.40625 6.203125 
Q 37.3125 6.203125 41.140625 7.25 
Q 44.96875 8.296875 48.78125 10.40625 
L 48.78125 2.09375 
Q 45.015625 0.34375 40.984375 -0.53125 
Q 36.96875 -1.421875 32.421875 -1.421875 
Q 20.0625 -1.421875 12.78125 6.34375 
Q 5.515625 14.109375 5.515625 27.296875 
Q 5.515625 40.671875 12.859375 48.328125 
Q 20.21875 56 33.015625 56 
Q 37.15625 56 41.109375 55.140625 
Q 45.0625 54.296875 48.78125 52.59375 
z
" id="DejaVuSans-99"/>
     <path d="M 56.203125 29.59375 
L 56.203125 25.203125 
L 14.890625 25.203125 
Q 15.484375 15.921875 20.484375 11.0625 
Q 25.484375 6.203125 34.421875 6.203125 
Q 39.59375 6.203125 44.453125 7.46875 
Q 49.3125 8.734375 54.109375 11.28125 
L 54.109375 2.78125 
Q 49.265625 0.734375 44.1875 -0.34375 
Q 39.109375 -1.421875 33.890625 -1.421875 
Q 20.796875 -1.421875 13.15625 6.1875 
Q 5.515625 13.8125 5.515625 26.8125 
Q 5.515625 40.234375 12.765625 48.109375 
Q 20.015625 56 32.328125 56 
Q 43.359375 56 49.78125 48.890625 
Q 56.203125 41.796875 56.203125 29.59375 
z
M 47.21875 32.234375 
Q 47.125 39.59375 43.09375 43.984375 
Q 39.0625 48.390625 32.421875 48.390625 
Q 24.90625 48.390625 20.390625 44.140625 
Q 15.875 39.890625 15.1875 32.171875 
z
" id="DejaVuSans-101"/>
     <path d="M 9.421875 75.984375 
L 18.40625 75.984375 
L 18.40625 0 
L 9.421875 0 
z
" id="DejaVuSans-108"/>
     <path d="M 54.890625 33.015625 
L 54.890625 0 
L 45.90625 0 
L 45.90625 32.71875 
Q 45.90625 40.484375 42.875 44.328125 
Q 39.84375 48.1875 33.796875 48.1875 
Q 26.515625 48.1875 22.3125 43.546875 
Q 18.109375 38.921875 18.109375 30.90625 
L 18.109375 0 
L 9.078125 0 
L 9.078125 75.984375 
L 18.109375 75.984375 
L 18.109375 46.1875 
Q 21.34375 51.125 25.703125 53.5625 
Q 30.078125 56 35.796875 56 
Q 45.21875 56 50.046875 50.171875 
Q 54.890625 44.34375 54.890625 33.015625 
z
" id="DejaVuSans-104"/>
     <path d="M 34.28125 27.484375 
Q 23.390625 27.484375 19.1875 25 
Q 14.984375 22.515625 14.984375 16.5 
Q 14.984375 11.71875 18.140625 8.90625 
Q 21.296875 6.109375 26.703125 6.109375 
Q 34.1875 6.109375 38.703125 11.40625 
Q 43.21875 16.703125 43.21875 25.484375 
L 43.21875 27.484375 
z
M 52.203125 31.203125 
L 52.203125 0 
L 43.21875 0 
L 43.21875 8.296875 
Q 40.140625 3.328125 35.546875 0.953125 
Q 30.953125 -1.421875 24.3125 -1.421875 
Q 15.921875 -1.421875 10.953125 3.296875 
Q 6 8.015625 6 15.921875 
Q 6 25.140625 12.171875 29.828125 
Q 18.359375 34.515625 30.609375 34.515625 
L 43.21875 34.515625 
L 43.21875 35.40625 
Q 43.21875 41.609375 39.140625 45 
Q 35.0625 48.390625 27.6875 48.390625 
Q 23 48.390625 18.546875 47.265625 
Q 14.109375 46.140625 10.015625 43.890625 
L 10.015625 52.203125 
Q 14.9375 54.109375 19.578125 55.046875 
Q 24.21875 56 28.609375 56 
Q 40.484375 56 46.34375 49.84375 
Q 52.203125 43.703125 52.203125 31.203125 
z
" id="DejaVuSans-97"/>
     <path d="M 44.28125 53.078125 
L 44.28125 44.578125 
Q 40.484375 46.53125 36.375 47.5 
Q 32.28125 48.484375 27.875 48.484375 
Q 21.1875 48.484375 17.84375 46.4375 
Q 14.5 44.390625 14.5 40.28125 
Q 14.5 37.15625 16.890625 35.375 
Q 19.28125 33.59375 26.515625 31.984375 
L 29.59375 31.296875 
Q 39.15625 29.25 43.1875 25.515625 
Q 47.21875 21.78125 47.21875 15.09375 
Q 47.21875 7.46875 41.1875 3.015625 
Q 35.15625 -1.421875 24.609375 -1.421875 
Q 20.21875 -1.421875 15.453125 -0.5625 
Q 10.6875 0.296875 5.421875 2 
L 5.421875 11.28125 
Q 10.40625 8.6875 15.234375 7.390625 
Q 20.0625 6.109375 24.8125 6.109375 
Q 31.15625 6.109375 34.5625 8.28125 
Q 37.984375 10.453125 37.984375 14.40625 
Q 37.984375 18.0625 35.515625 20.015625 
Q 33.0625 21.96875 24.703125 23.78125 
L 21.578125 24.515625 
Q 13.234375 26.265625 9.515625 29.90625 
Q 5.8125 33.546875 5.8125 39.890625 
Q 5.8125 47.609375 11.28125 51.796875 
Q 16.75 56 26.8125 56 
Q 31.78125 56 36.171875 55.265625 
Q 40.578125 54.546875 44.28125 53.078125 
z
" id="DejaVuSans-115"/>
     <path d="M 9.421875 54.6875 
L 18.40625 54.6875 
L 18.40625 0 
L 9.421875 0 
z
M 9.421875 75.984375 
L 18.40625 75.984375 
L 18.40625 64.59375 
L 9.421875 64.59375 
z
" id="DejaVuSans-105"/>
     <path d="M 52 44.1875 
Q 55.375 50.25 60.0625 53.125 
Q 64.75 56 71.09375 56 
Q 79.640625 56 84.28125 50.015625 
Q 88.921875 44.046875 88.921875 33.015625 
L 88.921875 0 
L 79.890625 0 
L 79.890625 32.71875 
Q 79.890625 40.578125 77.09375 44.375 
Q 74.3125 48.1875 68.609375 48.1875 
Q 61.625 48.1875 57.5625 43.546875 
Q 53.515625 38.921875 53.515625 30.90625 
L 53.515625 0 
L 44.484375 0 
L 44.484375 32.71875 
Q 44.484375 40.625 41.703125 44.40625 
Q 38.921875 48.1875 33.109375 48.1875 
Q 26.21875 48.1875 22.15625 43.53125 
Q 18.109375 38.875 18.109375 30.90625 
L 18.109375 0 
L 9.078125 0 
L 9.078125 54.6875 
L 18.109375 54.6875 
L 18.109375 46.1875 
Q 21.1875 51.21875 25.484375 53.609375 
Q 29.78125 56 35.6875 56 
Q 41.65625 56 45.828125 52.96875 
Q 50 49.953125 52 44.1875 
z
" id="DejaVuSans-109"/>
     <path d="M 18.109375 8.203125 
L 18.109375 -20.796875 
L 9.078125 -20.796875 
L 9.078125 54.6875 
L 18.109375 54.6875 
L 18.109375 46.390625 
Q 20.953125 51.265625 25.265625 53.625 
Q 29.59375 56 35.59375 56 
Q 45.5625 56 51.78125 48.09375 
Q 58.015625 40.1875 58.015625 27.296875 
Q 58.015625 14.40625 51.78125 6.484375 
Q 45.5625 -1.421875 35.59375 -1.421875 
Q 29.59375 -1.421875 25.265625 0.953125 
Q 20.953125 3.328125 18.109375 8.203125 
z
M 48.6875 27.296875 
Q 48.6875 37.203125 44.609375 42.84375 
Q 40.53125 48.484375 33.40625 48.484375 
Q 26.265625 48.484375 22.1875 42.84375 
Q 18.109375 37.203125 18.109375 27.296875 
Q 18.109375 17.390625 22.1875 11.75 
Q 26.265625 6.109375 33.40625 6.109375 
Q 40.53125 6.109375 44.609375 11.75 
Q 48.6875 17.390625 48.6875 27.296875 
z
" id="DejaVuSans-112"/>
     <path d="M 40.578125 39.3125 
Q 47.65625 37.796875 51.625 33 
Q 55.609375 28.21875 55.609375 21.1875 
Q 55.609375 10.40625 48.1875 4.484375 
Q 40.765625 -1.421875 27.09375 -1.421875 
Q 22.515625 -1.421875 17.65625 -0.515625 
Q 12.796875 0.390625 7.625 2.203125 
L 7.625 11.71875 
Q 11.71875 9.328125 16.59375 8.109375 
Q 21.484375 6.890625 26.8125 6.890625 
Q 36.078125 6.890625 40.9375 10.546875 
Q 45.796875 14.203125 45.796875 21.1875 
Q 45.796875 27.640625 41.28125 31.265625 
Q 36.765625 34.90625 28.71875 34.90625 
L 20.21875 34.90625 
L 20.21875 43.015625 
L 29.109375 43.015625 
Q 36.375 43.015625 40.234375 45.921875 
Q 44.09375 48.828125 44.09375 54.296875 
Q 44.09375 59.90625 40.109375 62.90625 
Q 36.140625 65.921875 28.71875 65.921875 
Q 24.65625 65.921875 20.015625 65.03125 
Q 15.375 64.15625 9.8125 62.3125 
L 9.8125 71.09375 
Q 15.4375 72.65625 20.34375 73.4375 
Q 25.25 74.21875 29.59375 74.21875 
Q 40.828125 74.21875 47.359375 69.109375 
Q 53.90625 64.015625 53.90625 55.328125 
Q 53.90625 49.265625 50.4375 45.09375 
Q 46.96875 40.921875 40.578125 39.3125 
z
" id="DejaVuSans-51"/>
     <path d="M 41.109375 46.296875 
Q 39.59375 47.171875 37.8125 47.578125 
Q 36.03125 48 33.890625 48 
Q 26.265625 48 22.1875 43.046875 
Q 18.109375 38.09375 18.109375 28.8125 
L 18.109375 0 
L 9.078125 0 
L 9.078125 54.6875 
L 18.109375 54.6875 
L 18.109375 46.1875 
Q 20.953125 51.171875 25.484375 53.578125 
Q 30.03125 56 36.53125 56 
Q 37.453125 56 38.578125 55.875 
Q 39.703125 55.765625 41.0625 55.515625 
z
" id="DejaVuSans-114"/>
     <path d="M 30.609375 48.390625 
Q 23.390625 48.390625 19.1875 42.75 
Q 14.984375 37.109375 14.984375 27.296875 
Q 14.984375 17.484375 19.15625 11.84375 
Q 23.34375 6.203125 30.609375 6.203125 
Q 37.796875 6.203125 41.984375 11.859375 
Q 46.1875 17.53125 46.1875 27.296875 
Q 46.1875 37.015625 41.984375 42.703125 
Q 37.796875 48.390625 30.609375 48.390625 
z
M 30.609375 56 
Q 42.328125 56 49.015625 48.375 
Q 55.71875 40.765625 55.71875 27.296875 
Q 55.71875 13.875 49.015625 6.21875 
Q 42.328125 -1.421875 30.609375 -1.421875 
Q 18.84375 -1.421875 12.171875 6.21875 
Q 5.515625 13.875 5.515625 27.296875 
Q 5.515625 40.765625 12.171875 48.375 
Q 18.84375 56 30.609375 56 
z
" id="DejaVuSans-111"/>
     <path d="M 31.78125 66.40625 
Q 24.171875 66.40625 20.328125 58.90625 
Q 16.5 51.421875 16.5 36.375 
Q 16.5 21.390625 20.328125 13.890625 
Q 24.171875 6.390625 31.78125 6.390625 
Q 39.453125 6.390625 43.28125 13.890625 
Q 47.125 21.390625 47.125 36.375 
Q 47.125 51.421875 43.28125 58.90625 
Q 39.453125 66.40625 31.78125 66.40625 
z
M 31.78125 74.21875 
Q 44.046875 74.21875 50.515625 64.515625 
Q 56.984375 54.828125 56.984375 36.375 
Q 56.984375 17.96875 50.515625 8.265625 
Q 44.046875 -1.421875 31.78125 -1.421875 
Q 19.53125 -1.421875 13.0625 8.265625 
Q 6.59375 17.96875 6.59375 36.375 
Q 6.59375 54.828125 13.0625 64.515625 
Q 19.53125 74.21875 31.78125 74.21875 
z
" id="DejaVuSans-48"/>
     <path d="M 10.6875 12.40625 
L 21 12.40625 
L 21 0 
L 10.6875 0 
z
" id="DejaVuSans-46"/>
     <path d="M 37.796875 64.3125 
L 12.890625 25.390625 
L 37.796875 25.390625 
z
M 35.203125 72.90625 
L 47.609375 72.90625 
L 47.609375 25.390625 
L 58.015625 25.390625 
L 58.015625 17.1875 
L 47.609375 17.1875 
L 47.609375 0 
L 37.796875 0 
L 37.796875 17.1875 
L 4.890625 17.1875 
L 4.890625 26.703125 
z
" id="DejaVuSans-52"/>
    </defs>
    <use xlink:href="#DejaVuSans-76"/>
    <use x="55.712891" xlink:href="#DejaVuSans-54"/>
    <use x="119.335938" xlink:href="#DejaVuSans-32"/>
    <use x="151.123047" xlink:href="#DejaVuSans-73"/>
    <use x="180.615234" xlink:href="#DejaVuSans-84"/>
    <use x="241.699219" xlink:href="#DejaVuSans-32"/>
    <use x="273.486328" xlink:href="#DejaVuSans-99"/>
    <use x="328.466797" xlink:href="#DejaVuSans-101"/>
    <use x="389.990234" xlink:href="#DejaVuSans-108"/>
    <use x="417.773438" xlink:href="#DejaVuSans-108"/>
    <use x="445.556641" xlink:href="#DejaVuSans-32"/>
    <use x="477.34375" xlink:href="#DejaVuSans-104"/>
    <use x="540.722656" xlink:href="#DejaVuSans-97"/>
    <use x="602.001953" xlink:href="#DejaVuSans-115"/>
    <use x="654.101562" xlink:href="#DejaVuSans-32"/>
    <use x="685.888672" xlink:href="#DejaVuSans-84"/>
    <use x="743.847656" xlink:href="#DejaVuSans-105"/>
    <use x="771.630859" xlink:href="#DejaVuSans-109"/>
    <use x="869.042969" xlink:href="#DejaVuSans-112"/>
    <use x="932.519531" xlink:href="#DejaVuSans-51"/>
    <use x="996.142578" xlink:href="#DejaVuSans-32"/>
    <use x="1027.929688" xlink:href="#DejaVuSans-112"/>
    <use x="1091.40625" xlink:href="#DejaVuSans-101"/>
    <use x="1152.929688" xlink:href="#DejaVuSans-114"/>
    <use x="1194.042969" xlink:href="#DejaVuSans-105"/>
    <use x="1221.826172" xlink:href="#DejaVuSans-112"/>
    <use x="1285.302734" xlink:href="#DejaVuSans-104"/>
    <use x="1348.681641" xlink:href="#DejaVuSans-101"/>
    <use x="1410.205078" xlink:href="#DejaVuSans-114"/>
    <use x="1451.318359" xlink:href="#DejaVuSans-97"/>
    <use x="1512.597656" xlink:href="#DejaVuSans-108"/>
    <use x="1540.380859" xlink:href="#DejaVuSans-32"/>
    <use x="1572.167969" xlink:href="#DejaVuSans-115"/>
    <use x="1624.267578" xlink:href="#DejaVuSans-99"/>
    <use x="1679.248047" xlink:href="#DejaVuSans-111"/>
    <use x="1740.429688" xlink:href="#DejaVuSans-114"/>
    <use x="1779.292969" xlink:href="#DejaVuSans-101"/>
    <use x="1840.816406" xlink:href="#DejaVuSans-32"/>
    <use x="1872.603516" xlink:href="#DejaVuSans-48"/>
    <use x="1936.226562" xlink:href="#DejaVuSans-46"/>
    <use x="1968.013672" xlink:href="#DejaVuSans-48"/>
    <use x="2031.636719" xlink:href="#DejaVuSans-52"/>
   </g>
  </g>
  <g id="legend_1">
   <g id="patch_32">
    <path d="M 1009.975 22.678125 
L 1073 22.678125 
Q 1075 22.678125 1075 20.678125 
L 1075 7 
Q 1075 5 1073 5 
L 1009.975 5 
Q 1007.975 5 1007.975 7 
L 1007.975 20.678125 
Q 1007.975 22.678125 1009.975 22.678125 
z
" style="fill:#ffffff;opacity:0.8;stroke:#cccccc;stroke-linejoin:miter;"/>
   </g>
   <g id="patch_33">
    <path d="M 1011.975 16.598438 
L 1031.975 16.598438 
L 1031.975 9.598438 
L 1011.975 9.598438 
z
" style="fill:#ff0000;"/>
   </g>
   <g id="text_2">
    <!-- Timp3 -->
    <g transform="translate(1039.975 16.598438)scale(0.1 -0.1)">
     <use xlink:href="#DejaVuSans-84"/>
     <use x="57.958984" xlink:href="#DejaVuSans-105"/>
     <use x="85.742188" xlink:href="#DejaVuSans-109"/>
     <use x="183.154297" xlink:href="#DejaVuSans-112"/>
     <use x="246.630859" xlink:href="#DejaVuSans-51"/>
    </g>
   </g>
  </g>
 </g>
 <defs>
  <clipPath id="pa5439b0965">
   <rect height="271.8" width="279" x="135" y="86.4"/>
  </clipPath>
  <clipPath id="pbb02273601">
   <rect height="271.8" width="279" x="414" y="86.4"/>
  </clipPath>
  <clipPath id="p31b9bbd018">
   <rect height="271.8" width="279" x="693" y="86.4"/>
  </clipPath>
  <clipPath id="p9737d7aa67">
   <rect height="271.8" width="279" x="135" y="358.2"/>
  </clipPath>
  <clipPath id="pf95daf36c8">
   <rect height="271.8" width="279" x="414" y="358.2"/>
  </clipPath>
 </defs>
</svg>
