<?xml version="1.0" encoding="utf-8" standalone="no"?>
<!DOCTYPE svg PUBLIC "-//W3C//DTD SVG 1.1//EN"
  "http://www.w3.org/Graphics/SVG/1.1/DTD/svg11.dtd">
<!-- Created with matplotlib (https://matplotlib.org/) -->
<svg height="720pt" version="1.1" viewBox="0 0 1440 720" width="1440pt" xmlns="http://www.w3.org/2000/svg" xmlns:xlink="http://www.w3.org/1999/xlink">
 <metadata>
  <rdf:RDF xmlns:cc="http://creativecommons.org/ns#" xmlns:dc="http://purl.org/dc/elements/1.1/" xmlns:rdf="http://www.w3.org/1999/02/22-rdf-syntax-ns#">
   <cc:Work>
    <dc:type rdf:resource="http://purl.org/dc/dcmitype/StillImage"/>
    <dc:date>2022-03-23T21:24:35.307437</dc:date>
    <dc:format>image/svg+xml</dc:format>
    <dc:creator>
     <cc:Agent>
      <dc:title>Matplotlib v3.3.3, https://matplotlib.org/</dc:title>
     </cc:Agent>
    </dc:creator>
   </cc:Work>
  </rdf:RDF>
 </metadata>
 <defs>
  <style type="text/css">*{stroke-linecap:butt;stroke-linejoin:round;}</style>
 </defs>
 <g id="figure_1">
  <g id="patch_1">
   <path d="M 0 720 
L 1440 720 
L 1440 0 
L 0 0 
z
" style="fill:none;"/>
  </g>
  <g id="axes_1">
   <g id="patch_2">
    <path d="M 180 358.2 
L 459 358.2 
L 459 86.4 
L 180 86.4 
z
" style="fill:#ffffff;"/>
   </g>
   <g id="PathCollection_1">
    <defs>
     <path d="M 0 3 
C 0.795609 3 1.55874 2.683901 2.12132 2.12132 
C 2.683901 1.55874 3 0.795609 3 -0 
C 3 -0.795609 2.683901 -1.55874 2.12132 -2.12132 
C 1.55874 -2.683901 0.795609 -3 0 -3 
C -0.795609 -3 -1.55874 -2.683901 -2.12132 -2.12132 
C -2.683901 -1.55874 -3 -0.795609 -3 0 
C -3 0.795609 -2.683901 1.55874 -2.12132 2.12132 
C -1.55874 2.683901 -0.795609 3 0 3 
z
" id="C0_0_f3e4531ed6"/>
    </defs>
    <g clip-path="url(#pd6146ec335)">
     <use style="fill:#808080;fill-opacity:0.8;stroke:#808080;stroke-opacity:0.8;" x="414.905611" xlink:href="#C0_0_f3e4531ed6" y="187.215441"/>
    </g>
    <g clip-path="url(#pd6146ec335)">
     <use style="fill:#808080;fill-opacity:0.8;stroke:#808080;stroke-opacity:0.8;" x="396.872338" xlink:href="#C0_0_f3e4531ed6" y="173.679466"/>
    </g>
    <g clip-path="url(#pd6146ec335)">
     <use style="fill:#808080;fill-opacity:0.8;stroke:#808080;stroke-opacity:0.8;" x="417.151452" xlink:href="#C0_0_f3e4531ed6" y="225.498382"/>
    </g>
   </g>
   <g id="PathCollection_2"/>
   <g id="patch_3">
    <path clip-path="url(#pd6146ec335)" d="M 448.685767 165.431974 
L 448.685767 180.013519 
L 446.107209 191.678755 
L 443.270795 200.719313 
L 438.113678 209.46824 
L 433.214418 220.841845 
L 428.057301 229.590773 
L 425.220887 238.63133 
L 417.485213 244.463948 
L 407.17098 241.547639 
L 399.177449 238.3397 
L 389.121072 232.798712 
L 378.806839 229.882403 
L 368.492606 226.966094 
L 360.499076 223.758155 
L 352.763401 217.925536 
L 347.86414 206.551931 
L 350.184843 197.511373 
L 355.341959 188.762446 
L 360.756932 182.638197 
L 368.23475 174.180901 
L 373.649723 168.056652 
L 381.385397 162.224034 
L 391.441774 156.683047 
L 401.756007 153.766738 
L 412.328096 153.475107 
L 425.220887 153.475107 
L 435.792976 153.766738 
L 443.528651 159.599356 
z
" style="fill:none;stroke:#000000;stroke-linejoin:miter;"/>
   </g>
   <g id="matplotlib.axis_1"/>
   <g id="matplotlib.axis_2"/>
   <g id="patch_4">
    <path d="M 180 358.2 
L 180 86.4 
" style="fill:none;stroke:#000000;stroke-linecap:square;stroke-linejoin:miter;stroke-width:0.8;"/>
   </g>
   <g id="patch_5">
    <path d="M 459 358.2 
L 459 86.4 
" style="fill:none;stroke:#000000;stroke-linecap:square;stroke-linejoin:miter;stroke-width:0.8;"/>
   </g>
   <g id="patch_6">
    <path d="M 180 358.2 
L 459 358.2 
" style="fill:none;stroke:#000000;stroke-linecap:square;stroke-linejoin:miter;stroke-width:0.8;"/>
   </g>
   <g id="patch_7">
    <path d="M 180 86.4 
L 459 86.4 
" style="fill:none;stroke:#000000;stroke-linecap:square;stroke-linejoin:miter;stroke-width:0.8;"/>
   </g>
  </g>
  <g id="axes_2">
   <g id="patch_8">
    <path d="M 459 358.2 
L 738 358.2 
L 738 86.4 
L 459 86.4 
z
" style="fill:#ffffff;"/>
   </g>
   <g id="PathCollection_3">
    <defs>
     <path d="M 0 3 
C 0.795609 3 1.55874 2.683901 2.12132 2.12132 
C 2.683901 1.55874 3 0.795609 3 -0 
C 3 -0.795609 2.683901 -1.55874 2.12132 -2.12132 
C 1.55874 -2.683901 0.795609 -3 0 -3 
C -0.795609 -3 -1.55874 -2.683901 -2.12132 -2.12132 
C -2.683901 -1.55874 -3 -0.795609 -3 0 
C -3 0.795609 -2.683901 1.55874 -2.12132 2.12132 
C -1.55874 2.683901 -0.795609 3 0 3 
z
" id="C1_0_cea0091af9"/>
    </defs>
    <g clip-path="url(#p0d6a1eac9c)">
     <use style="fill:#808080;fill-opacity:0.8;stroke:#808080;stroke-opacity:0.8;" x="531.009645" xlink:href="#C1_0_cea0091af9" y="325.177021"/>
    </g>
    <g clip-path="url(#p0d6a1eac9c)">
     <use style="fill:#808080;fill-opacity:0.8;stroke:#808080;stroke-opacity:0.8;" x="599.87973" xlink:href="#C1_0_cea0091af9" y="213.550922"/>
    </g>
    <g clip-path="url(#p0d6a1eac9c)">
     <use style="fill:#808080;fill-opacity:0.8;stroke:#808080;stroke-opacity:0.8;" x="610.721557" xlink:href="#C1_0_cea0091af9" y="174.964255"/>
    </g>
    <g clip-path="url(#p0d6a1eac9c)">
     <use style="fill:#808080;fill-opacity:0.8;stroke:#808080;stroke-opacity:0.8;" x="666.926999" xlink:href="#C1_0_cea0091af9" y="220.840351"/>
    </g>
    <g clip-path="url(#p0d6a1eac9c)">
     <use style="fill:#808080;fill-opacity:0.8;stroke:#808080;stroke-opacity:0.8;" x="685.209809" xlink:href="#C1_0_cea0091af9" y="187.519167"/>
    </g>
    <g clip-path="url(#p0d6a1eac9c)">
     <use style="fill:#808080;fill-opacity:0.8;stroke:#808080;stroke-opacity:0.8;" x="685.647094" xlink:href="#C1_0_cea0091af9" y="230.191355"/>
    </g>
    <g clip-path="url(#p0d6a1eac9c)">
     <use style="fill:#808080;fill-opacity:0.8;stroke:#808080;stroke-opacity:0.8;" x="728.546225" xlink:href="#C1_0_cea0091af9" y="194.612384"/>
    </g>
    <g clip-path="url(#p0d6a1eac9c)">
     <use style="fill:#808080;fill-opacity:0.8;stroke:#808080;stroke-opacity:0.8;" x="730.150397" xlink:href="#C1_0_cea0091af9" y="149.327613"/>
    </g>
    <g clip-path="url(#p0d6a1eac9c)">
     <use style="fill:#808080;fill-opacity:0.8;stroke:#808080;stroke-opacity:0.8;" x="685.178914" xlink:href="#C1_0_cea0091af9" y="222.547131"/>
    </g>
    <g clip-path="url(#p0d6a1eac9c)">
     <use style="fill:#808080;fill-opacity:0.8;stroke:#808080;stroke-opacity:0.8;" x="720.071442" xlink:href="#C1_0_cea0091af9" y="200.066016"/>
    </g>
    <g clip-path="url(#p0d6a1eac9c)">
     <use style="fill:#808080;fill-opacity:0.8;stroke:#808080;stroke-opacity:0.8;" x="691.472022" xlink:href="#C1_0_cea0091af9" y="166.145444"/>
    </g>
   </g>
   <g id="PathCollection_4"/>
   <g id="patch_9">
    <path clip-path="url(#p0d6a1eac9c)" d="M 738 162.515665 
L 738 177.09721 
L 735.421442 188.762446 
L 732.842884 200.427682 
L 727.685767 209.176609 
L 722.270795 215.300858 
L 714.792976 223.758155 
L 709.378004 229.882403 
L 704.220887 238.63133 
L 696.485213 244.463948 
L 686.17098 247.380258 
L 675.856747 250.296567 
L 665.80037 255.837554 
L 658.064695 261.670172 
L 650.32902 267.50279 
L 642.33549 270.71073 
L 632.279113 276.251717 
L 624.543438 282.084335 
L 619.128466 288.208584 
L 611.392791 294.041202 
L 603.914972 302.498498 
L 598.5 308.622747 
L 590.764325 314.455365 
L 580.707948 319.996352 
L 572.714418 323.204292 
L 562.400185 326.120601 
L 549.76525 328.745279 
L 541.771719 326.120601 
L 531.19963 325.82897 
L 526.042514 317.080043 
L 526.042514 302.498498 
L 528.878928 293.45794 
L 528.878928 279.459657 
L 526.042514 270.419099 
L 523.463956 258.753863 
L 520.885397 247.088627 
L 518.306839 235.423391 
L 518.306839 220.841845 
L 518.306839 206.2603 
L 518.306839 197.511373 
L 520.885397 185.846137 
L 526.30037 179.721888 
L 534.036044 173.88927 
L 541.513863 165.431974 
L 546.928835 159.307725 
L 554.66451 153.475107 
L 562.400185 147.642489 
L 572.714418 144.72618 
L 585.607209 144.72618 
L 598.5 144.72618 
L 608.814233 147.642489 
L 621.707024 147.642489 
L 632.021257 150.558798 
L 642.33549 153.475107 
L 655.228281 153.475107 
L 667.863216 150.850429 
L 678.435305 150.558798 
L 688.491682 145.017811 
L 696.485213 141.809871 
L 706.799445 138.893562 
L 719.692237 138.893562 
L 730.00647 141.809871 
L 735.163586 150.558798 
L 737.742144 162.224034 
z
" style="fill:none;stroke:#000000;stroke-linejoin:miter;"/>
   </g>
   <g id="matplotlib.axis_3"/>
   <g id="matplotlib.axis_4"/>
   <g id="patch_10">
    <path d="M 459 358.2 
L 459 86.4 
" style="fill:none;stroke:#000000;stroke-linecap:square;stroke-linejoin:miter;stroke-width:0.8;"/>
   </g>
   <g id="patch_11">
    <path d="M 738 358.2 
L 738 86.4 
" style="fill:none;stroke:#000000;stroke-linecap:square;stroke-linejoin:miter;stroke-width:0.8;"/>
   </g>
   <g id="patch_12">
    <path d="M 459 358.2 
L 738 358.2 
" style="fill:none;stroke:#000000;stroke-linecap:square;stroke-linejoin:miter;stroke-width:0.8;"/>
   </g>
   <g id="patch_13">
    <path d="M 459 86.4 
L 738 86.4 
" style="fill:none;stroke:#000000;stroke-linecap:square;stroke-linejoin:miter;stroke-width:0.8;"/>
   </g>
  </g>
  <g id="axes_3">
   <g id="patch_14">
    <path d="M 738 358.2 
L 1017 358.2 
L 1017 86.4 
L 738 86.4 
z
" style="fill:#ffffff;"/>
   </g>
   <g id="PathCollection_5">
    <defs>
     <path d="M 0 3 
C 0.795609 3 1.55874 2.683901 2.12132 2.12132 
C 2.683901 1.55874 3 0.795609 3 -0 
C 3 -0.795609 2.683901 -1.55874 2.12132 -2.12132 
C 1.55874 -2.683901 0.795609 -3 0 -3 
C -0.795609 -3 -1.55874 -2.683901 -2.12132 -2.12132 
C -2.683901 -1.55874 -3 -0.795609 -3 0 
C -3 0.795609 -2.683901 1.55874 -2.12132 2.12132 
C -1.55874 2.683901 -0.795609 3 0 3 
z
" id="C2_0_94bf98d120"/>
    </defs>
    <g clip-path="url(#p5f47a23d5f)">
     <use style="fill:#808080;fill-opacity:0.8;stroke:#808080;stroke-opacity:0.8;" x="802.609064" xlink:href="#C2_0_94bf98d120" y="325.394736"/>
    </g>
    <g clip-path="url(#p5f47a23d5f)">
     <use style="fill:#808080;fill-opacity:0.8;stroke:#808080;stroke-opacity:0.8;" x="814.349228" xlink:href="#C2_0_94bf98d120" y="325.244217"/>
    </g>
    <g clip-path="url(#p5f47a23d5f)">
     <use style="fill:#808080;fill-opacity:0.8;stroke:#808080;stroke-opacity:0.8;" x="815.703863" xlink:href="#C2_0_94bf98d120" y="335.068281"/>
    </g>
    <g clip-path="url(#p5f47a23d5f)">
     <use style="fill:#808080;fill-opacity:0.8;stroke:#808080;stroke-opacity:0.8;" x="834.055593" xlink:href="#C2_0_94bf98d120" y="244.641196"/>
    </g>
    <g clip-path="url(#p5f47a23d5f)">
     <use style="fill:#808080;fill-opacity:0.8;stroke:#808080;stroke-opacity:0.8;" x="856.459343" xlink:href="#C2_0_94bf98d120" y="313.444588"/>
    </g>
    <g clip-path="url(#p5f47a23d5f)">
     <use style="fill:#808080;fill-opacity:0.8;stroke:#808080;stroke-opacity:0.8;" x="922.986148" xlink:href="#C2_0_94bf98d120" y="225.296794"/>
    </g>
    <g clip-path="url(#p5f47a23d5f)">
     <use style="fill:#808080;fill-opacity:0.8;stroke:#808080;stroke-opacity:0.8;" x="951.94205" xlink:href="#C2_0_94bf98d120" y="214.330396"/>
    </g>
    <g clip-path="url(#p5f47a23d5f)">
     <use style="fill:#808080;fill-opacity:0.8;stroke:#808080;stroke-opacity:0.8;" x="1002.313058" xlink:href="#C2_0_94bf98d120" y="164.382219"/>
    </g>
    <g clip-path="url(#p5f47a23d5f)">
     <use style="fill:#808080;fill-opacity:0.8;stroke:#808080;stroke-opacity:0.8;" x="990.722617" xlink:href="#C2_0_94bf98d120" y="181.105975"/>
    </g>
    <g clip-path="url(#p5f47a23d5f)">
     <use style="fill:#808080;fill-opacity:0.8;stroke:#808080;stroke-opacity:0.8;" x="969.416833" xlink:href="#C2_0_94bf98d120" y="163.847338"/>
    </g>
   </g>
   <g id="PathCollection_6"/>
   <g id="patch_15">
    <path clip-path="url(#p5f47a23d5f)" d="M 1014.421442 168.348283 
L 1014.421442 182.929828 
L 1014.163586 194.886695 
L 1009.264325 206.2603 
L 1003.849353 212.384549 
L 996.371534 220.841845 
L 991.214418 229.590773 
L 985.799445 235.715021 
L 978.063771 241.547639 
L 970.328096 247.380258 
L 962.592421 253.212876 
L 954.856747 259.045494 
L 947.378928 267.50279 
L 941.963956 273.627039 
L 936.806839 282.375966 
L 929.32902 290.833262 
L 923.914048 296.957511 
L 916.178373 302.790129 
L 908.442699 308.622747 
L 900.707024 314.455365 
L 892.971349 320.287983 
L 885.235675 326.120601 
L 877.5 331.953219 
L 867.185767 334.869528 
L 856.871534 337.785837 
L 846.557301 340.702146 
L 833.66451 340.702146 
L 823.350277 337.785837 
L 813.036044 334.869528 
L 805.042514 331.661588 
L 797.564695 323.204292 
L 792.149723 317.080043 
L 787.250462 305.706438 
L 784.414048 296.66588 
L 779.514787 285.292275 
L 776.936229 273.627039 
L 776.678373 261.670172 
L 774.099815 250.004936 
L 774.099815 235.423391 
L 774.099815 220.841845 
L 774.099815 206.2603 
L 774.099815 191.678755 
L 776.678373 180.013519 
L 781.83549 171.264592 
L 786.992606 162.515665 
L 792.149723 153.766738 
L 797.564695 147.642489 
L 805.042514 139.185193 
L 810.457486 133.060944 
L 820.513863 127.519957 
L 828.507394 124.312017 
L 838.821627 121.395708 
L 849.13586 118.479399 
L 862.028651 118.479399 
L 872.600739 118.77103 
L 882.657116 124.312017 
L 890.392791 130.144635 
L 898.128466 135.977253 
L 906.121996 139.185193 
L 916.178373 144.72618 
L 926.492606 147.642489 
L 939.385397 147.642489 
L 952.278189 147.642489 
L 962.592421 144.72618 
L 972.906654 141.809871 
L 983.478743 142.101502 
L 993.792976 145.017811 
L 1003.849353 150.558798 
L 1009.264325 156.683047 
L 1014.163586 168.056652 
z
" style="fill:none;stroke:#000000;stroke-linejoin:miter;"/>
   </g>
   <g id="matplotlib.axis_5"/>
   <g id="matplotlib.axis_6"/>
   <g id="patch_16">
    <path d="M 738 358.2 
L 738 86.4 
" style="fill:none;stroke:#000000;stroke-linecap:square;stroke-linejoin:miter;stroke-width:0.8;"/>
   </g>
   <g id="patch_17">
    <path d="M 1017 358.2 
L 1017 86.4 
" style="fill:none;stroke:#000000;stroke-linecap:square;stroke-linejoin:miter;stroke-width:0.8;"/>
   </g>
   <g id="patch_18">
    <path d="M 738 358.2 
L 1017 358.2 
" style="fill:none;stroke:#000000;stroke-linecap:square;stroke-linejoin:miter;stroke-width:0.8;"/>
   </g>
   <g id="patch_19">
    <path d="M 738 86.4 
L 1017 86.4 
" style="fill:none;stroke:#000000;stroke-linecap:square;stroke-linejoin:miter;stroke-width:0.8;"/>
   </g>
  </g>
  <g id="axes_4">
   <g id="patch_20">
    <path d="M 1017 358.2 
L 1296 358.2 
L 1296 86.4 
L 1017 86.4 
z
" style="fill:#ffffff;"/>
   </g>
   <g id="PathCollection_7">
    <defs>
     <path d="M 0 3 
C 0.795609 3 1.55874 2.683901 2.12132 2.12132 
C 2.683901 1.55874 3 0.795609 3 -0 
C 3 -0.795609 2.683901 -1.55874 2.12132 -2.12132 
C 1.55874 -2.683901 0.795609 -3 0 -3 
C -0.795609 -3 -1.55874 -2.683901 -2.12132 -2.12132 
C -2.683901 -1.55874 -3 -0.795609 -3 0 
C -3 0.795609 -2.683901 1.55874 -2.12132 2.12132 
C -1.55874 2.683901 -0.795609 3 0 3 
z
" id="C3_0_9c8f4ab8df"/>
    </defs>
    <g clip-path="url(#p92a8eb32b4)">
     <use style="fill:#808080;fill-opacity:0.8;stroke:#808080;stroke-opacity:0.8;" x="1115.983504" xlink:href="#C3_0_9c8f4ab8df" y="143.417048"/>
    </g>
    <g clip-path="url(#p92a8eb32b4)">
     <use style="fill:#808080;fill-opacity:0.8;stroke:#808080;stroke-opacity:0.8;" x="1117.411812" xlink:href="#C3_0_9c8f4ab8df" y="178.646599"/>
    </g>
    <g clip-path="url(#p92a8eb32b4)">
     <use style="fill:#808080;fill-opacity:0.8;stroke:#808080;stroke-opacity:0.8;" x="1115.429768" xlink:href="#C3_0_9c8f4ab8df" y="243.958484"/>
    </g>
    <g clip-path="url(#p92a8eb32b4)">
     <use style="fill:#808080;fill-opacity:0.8;stroke:#808080;stroke-opacity:0.8;" x="1252.302495" xlink:href="#C3_0_9c8f4ab8df" y="193.351786"/>
    </g>
    <g clip-path="url(#p92a8eb32b4)">
     <use style="fill:#808080;fill-opacity:0.8;stroke:#808080;stroke-opacity:0.8;" x="1243.342896" xlink:href="#C3_0_9c8f4ab8df" y="192.373411"/>
    </g>
    <g clip-path="url(#p92a8eb32b4)">
     <use style="fill:#808080;fill-opacity:0.8;stroke:#808080;stroke-opacity:0.8;" x="1223.541469" xlink:href="#C3_0_9c8f4ab8df" y="191.120876"/>
    </g>
    <g clip-path="url(#p92a8eb32b4)">
     <use style="fill:#808080;fill-opacity:0.8;stroke:#808080;stroke-opacity:0.8;" x="1269.955519" xlink:href="#C3_0_9c8f4ab8df" y="171.112577"/>
    </g>
    <g clip-path="url(#p92a8eb32b4)">
     <use style="fill:#808080;fill-opacity:0.8;stroke:#808080;stroke-opacity:0.8;" x="1215.805794" xlink:href="#C3_0_9c8f4ab8df" y="160.323577"/>
    </g>
    <g clip-path="url(#p92a8eb32b4)">
     <use style="fill:#808080;fill-opacity:0.8;stroke:#808080;stroke-opacity:0.8;" x="1258.060879" xlink:href="#C3_0_9c8f4ab8df" y="181.140917"/>
    </g>
    <g clip-path="url(#p92a8eb32b4)">
     <use style="fill:#808080;fill-opacity:0.8;stroke:#808080;stroke-opacity:0.8;" x="1195.952084" xlink:href="#C3_0_9c8f4ab8df" y="235.631548"/>
    </g>
    <g clip-path="url(#p92a8eb32b4)">
     <use style="fill:#808080;fill-opacity:0.8;stroke:#808080;stroke-opacity:0.8;" x="1209.507933" xlink:href="#C3_0_9c8f4ab8df" y="228.543707"/>
    </g>
    <g clip-path="url(#p92a8eb32b4)">
     <use style="fill:#808080;fill-opacity:0.8;stroke:#808080;stroke-opacity:0.8;" x="1193.197661" xlink:href="#C3_0_9c8f4ab8df" y="223.288975"/>
    </g>
    <g clip-path="url(#p92a8eb32b4)">
     <use style="fill:#808080;fill-opacity:0.8;stroke:#808080;stroke-opacity:0.8;" x="1233.35425" xlink:href="#C3_0_9c8f4ab8df" y="215.007733"/>
    </g>
    <g clip-path="url(#p92a8eb32b4)">
     <use style="fill:#808080;fill-opacity:0.8;stroke:#808080;stroke-opacity:0.8;" x="1278.900859" xlink:href="#C3_0_9c8f4ab8df" y="186.495099"/>
    </g>
   </g>
   <g id="PathCollection_8">
    <defs>
     <path d="M 0 4.242641 
C 1.125161 4.242641 2.204391 3.795609 3 3 
C 3.795609 2.204391 4.242641 1.125161 4.242641 0 
C 4.242641 -1.125161 3.795609 -2.204391 3 -3 
C 2.204391 -3.795609 1.125161 -4.242641 0 -4.242641 
C -1.125161 -4.242641 -2.204391 -3.795609 -3 -3 
C -3.795609 -2.204391 -4.242641 -1.125161 -4.242641 0 
C -4.242641 1.125161 -3.795609 2.204391 -3 3 
C -2.204391 3.795609 -1.125161 4.242641 0 4.242641 
z
" id="m00df19ccee" style="stroke:#ff0000;stroke-opacity:0.8;"/>
    </defs>
    <g clip-path="url(#p92a8eb32b4)">
     <use style="fill:#ff0000;fill-opacity:0.8;stroke:#ff0000;stroke-opacity:0.8;" x="1168.914058" xlink:href="#m00df19ccee" y="279.163845"/>
    </g>
   </g>
   <g id="patch_21">
    <path clip-path="url(#p92a8eb32b4)" d="M 1285.685767 180.013519 
L 1285.685767 194.595064 
L 1283.107209 206.2603 
L 1277.950092 215.009227 
L 1272.792976 223.758155 
L 1267.63586 232.507082 
L 1262.220887 238.63133 
L 1254.743068 247.088627 
L 1249.585952 255.837554 
L 1244.17098 261.961803 
L 1239.013863 270.71073 
L 1233.856747 279.459657 
L 1226.378928 287.916953 
L 1221.221811 296.66588 
L 1215.806839 302.790129 
L 1208.32902 311.247425 
L 1202.914048 317.371674 
L 1195.178373 323.204292 
L 1187.700555 331.661588 
L 1179.707024 334.869528 
L 1171.971349 340.702146 
L 1161.657116 343.618455 
L 1151.342884 346.534764 
L 1138.450092 346.534764 
L 1125.557301 346.534764 
L 1115.243068 343.618455 
L 1107.249538 340.410515 
L 1097.193161 334.869528 
L 1089.19963 331.661588 
L 1081.463956 325.82897 
L 1073.728281 319.996352 
L 1066.250462 311.539056 
L 1060.83549 305.414807 
L 1055.678373 296.66588 
L 1050.521257 287.916953 
L 1045.36414 279.168026 
L 1042.785582 267.50279 
L 1040.207024 255.837554 
L 1040.207024 241.256009 
L 1040.207024 226.674464 
L 1042.785582 215.009227 
L 1045.36414 203.343991 
L 1047.942699 191.678755 
L 1050.521257 180.013519 
L 1053.099815 168.348283 
L 1058.256932 159.599356 
L 1063.414048 150.850429 
L 1068.571165 142.101502 
L 1071.407579 133.060944 
L 1076.564695 124.312017 
L 1081.721811 115.56309 
L 1089.457486 109.730472 
L 1099.771719 106.814163 
L 1112.66451 106.814163 
L 1125.557301 106.814163 
L 1135.871534 103.897854 
L 1148.764325 103.897854 
L 1159.336414 104.189485 
L 1167.072089 110.022103 
L 1174.549908 118.479399 
L 1182.285582 124.312017 
L 1190.021257 130.144635 
L 1198.014787 133.352575 
L 1208.071165 138.893562 
L 1218.385397 141.809871 
L 1228.69963 144.72618 
L 1239.013863 147.642489 
L 1249.328096 150.558798 
L 1259.642329 153.475107 
L 1269.956562 156.391416 
L 1275.371534 162.515665 
L 1280.528651 171.264592 
z
" style="fill:none;stroke:#000000;stroke-linejoin:miter;"/>
   </g>
   <g id="matplotlib.axis_7"/>
   <g id="matplotlib.axis_8"/>
   <g id="patch_22">
    <path d="M 1017 358.2 
L 1017 86.4 
" style="fill:none;stroke:#000000;stroke-linecap:square;stroke-linejoin:miter;stroke-width:0.8;"/>
   </g>
   <g id="patch_23">
    <path d="M 1296 358.2 
L 1296 86.4 
" style="fill:none;stroke:#000000;stroke-linecap:square;stroke-linejoin:miter;stroke-width:0.8;"/>
   </g>
   <g id="patch_24">
    <path d="M 1017 358.2 
L 1296 358.2 
" style="fill:none;stroke:#000000;stroke-linecap:square;stroke-linejoin:miter;stroke-width:0.8;"/>
   </g>
   <g id="patch_25">
    <path d="M 1017 86.4 
L 1296 86.4 
" style="fill:none;stroke:#000000;stroke-linecap:square;stroke-linejoin:miter;stroke-width:0.8;"/>
   </g>
  </g>
  <g id="axes_5">
   <g id="patch_26">
    <path d="M 180 630 
L 459 630 
L 459 358.2 
L 180 358.2 
z
" style="fill:#ffffff;"/>
   </g>
   <g id="PathCollection_9">
    <defs>
     <path d="M 0 3 
C 0.795609 3 1.55874 2.683901 2.12132 2.12132 
C 2.683901 1.55874 3 0.795609 3 -0 
C 3 -0.795609 2.683901 -1.55874 2.12132 -2.12132 
C 1.55874 -2.683901 0.795609 -3 0 -3 
C -0.795609 -3 -1.55874 -2.683901 -2.12132 -2.12132 
C -2.683901 -1.55874 -3 -0.795609 -3 0 
C -3 0.795609 -2.683901 1.55874 -2.12132 2.12132 
C -1.55874 2.683901 -0.795609 3 0 3 
z
" id="C4_0_595082a2bf"/>
    </defs>
    <g clip-path="url(#p89a456ac99)">
     <use style="fill:#808080;fill-opacity:0.8;stroke:#808080;stroke-opacity:0.8;" x="274.841175" xlink:href="#C4_0_595082a2bf" y="419.130546"/>
    </g>
    <g clip-path="url(#p89a456ac99)">
     <use style="fill:#808080;fill-opacity:0.8;stroke:#808080;stroke-opacity:0.8;" x="346.624911" xlink:href="#C4_0_595082a2bf" y="472.226187"/>
    </g>
    <g clip-path="url(#p89a456ac99)">
     <use style="fill:#808080;fill-opacity:0.8;stroke:#808080;stroke-opacity:0.8;" x="326.649996" xlink:href="#C4_0_595082a2bf" y="412.682412"/>
    </g>
    <g clip-path="url(#p89a456ac99)">
     <use style="fill:#808080;fill-opacity:0.8;stroke:#808080;stroke-opacity:0.8;" x="342.375637" xlink:href="#C4_0_595082a2bf" y="550.963845"/>
    </g>
    <g clip-path="url(#p89a456ac99)">
     <use style="fill:#808080;fill-opacity:0.8;stroke:#808080;stroke-opacity:0.8;" x="376.227236" xlink:href="#C4_0_595082a2bf" y="494.903514"/>
    </g>
    <g clip-path="url(#p89a456ac99)">
     <use style="fill:#808080;fill-opacity:0.8;stroke:#808080;stroke-opacity:0.8;" x="395.215882" xlink:href="#C4_0_595082a2bf" y="510.200026"/>
    </g>
    <g clip-path="url(#p89a456ac99)">
     <use style="fill:#808080;fill-opacity:0.8;stroke:#808080;stroke-opacity:0.8;" x="403.488658" xlink:href="#C4_0_595082a2bf" y="508.928676"/>
    </g>
    <g clip-path="url(#p89a456ac99)">
     <use style="fill:#808080;fill-opacity:0.8;stroke:#808080;stroke-opacity:0.8;" x="348.057972" xlink:href="#C4_0_595082a2bf" y="535.452306"/>
    </g>
    <g clip-path="url(#p89a456ac99)">
     <use style="fill:#808080;fill-opacity:0.8;stroke:#808080;stroke-opacity:0.8;" x="341.327578" xlink:href="#C4_0_595082a2bf" y="514.49251"/>
    </g>
    <g clip-path="url(#p89a456ac99)">
     <use style="fill:#808080;fill-opacity:0.8;stroke:#808080;stroke-opacity:0.8;" x="297.665575" xlink:href="#C4_0_595082a2bf" y="556.877099"/>
    </g>
   </g>
   <g id="PathCollection_10">
    <g clip-path="url(#p89a456ac99)">
     <use style="fill:#ff0000;fill-opacity:0.8;stroke:#ff0000;stroke-opacity:0.8;" x="324.801039" xlink:href="#m00df19ccee" y="371.090737"/>
    </g>
   </g>
   <g id="patch_27">
    <path clip-path="url(#p89a456ac99)" d="M 435.792976 457.646137 
L 435.792976 472.227682 
L 433.214418 483.892918 
L 430.63586 495.558155 
L 425.478743 504.307082 
L 422.642329 513.347639 
L 417.743068 524.721245 
L 412.585952 533.470172 
L 407.428835 542.219099 
L 404.592421 551.259657 
L 399.435305 560.008584 
L 394.278189 568.757511 
L 386.80037 577.214807 
L 381.643253 585.963734 
L 376.228281 592.087983 
L 368.750462 600.545279 
L 361.014787 606.377897 
L 355.599815 612.502146 
L 345.285582 615.418455 
L 335.229205 620.959442 
L 324.657116 621.251073 
L 311.764325 621.251073 
L 301.450092 618.334764 
L 291.13586 615.418455 
L 283.142329 612.210515 
L 273.085952 606.669528 
L 265.092421 603.461588 
L 255.036044 597.920601 
L 247.30037 592.087983 
L 239.564695 586.255365 
L 231.82902 580.422747 
L 226.414048 574.298498 
L 218.936229 565.841202 
L 213.521257 559.716953 
L 206.043438 551.259657 
L 200.886322 542.51073 
L 195.471349 536.386481 
L 192.892791 524.721245 
L 192.892791 510.1397 
L 195.729205 501.099142 
L 198.307763 489.433906 
L 200.886322 477.76867 
L 203.46488 466.103433 
L 206.043438 454.438197 
L 210.942699 443.064592 
L 213.521257 431.399356 
L 218.678373 422.650429 
L 223.83549 413.901502 
L 226.671904 404.860944 
L 231.571165 393.487339 
L 236.728281 384.738412 
L 242.143253 378.614163 
L 249.878928 372.781545 
L 260.193161 369.865236 
L 270.507394 366.948927 
L 283.400185 366.948927 
L 293.714418 364.032618 
L 306.607209 364.032618 
L 319.5 364.032618 
L 330.072089 364.324249 
L 337.807763 370.156867 
L 342.96488 378.905794 
L 350.442699 387.36309 
L 355.857671 393.487339 
L 363.593346 399.319957 
L 373.649723 404.860944 
L 381.385397 410.693562 
L 389.121072 416.52618 
L 396.856747 422.358798 
L 407.17098 425.275107 
L 414.906654 431.107725 
L 422.642329 436.940343 
L 428.057301 443.064592 
L 433.214418 451.813519 
z
" style="fill:none;stroke:#000000;stroke-linejoin:miter;"/>
   </g>
   <g id="matplotlib.axis_9"/>
   <g id="matplotlib.axis_10"/>
   <g id="patch_28">
    <path d="M 180 630 
L 180 358.2 
" style="fill:none;stroke:#000000;stroke-linecap:square;stroke-linejoin:miter;stroke-width:0.8;"/>
   </g>
   <g id="patch_29">
    <path d="M 459 630 
L 459 358.2 
" style="fill:none;stroke:#000000;stroke-linecap:square;stroke-linejoin:miter;stroke-width:0.8;"/>
   </g>
   <g id="patch_30">
    <path d="M 180 630 
L 459 630 
" style="fill:none;stroke:#000000;stroke-linecap:square;stroke-linejoin:miter;stroke-width:0.8;"/>
   </g>
   <g id="patch_31">
    <path d="M 180 358.2 
L 459 358.2 
" style="fill:none;stroke:#000000;stroke-linecap:square;stroke-linejoin:miter;stroke-width:0.8;"/>
   </g>
  </g>
  <g id="axes_6">
   <g id="patch_32">
    <path d="M 459 630 
L 738 630 
L 738 358.2 
L 459 358.2 
z
" style="fill:#ffffff;"/>
   </g>
   <g id="PathCollection_11">
    <defs>
     <path d="M 0 3 
C 0.795609 3 1.55874 2.683901 2.12132 2.12132 
C 2.683901 1.55874 3 0.795609 3 -0 
C 3 -0.795609 2.683901 -1.55874 2.12132 -2.12132 
C 1.55874 -2.683901 0.795609 -3 0 -3 
C -0.795609 -3 -1.55874 -2.683901 -2.12132 -2.12132 
C -2.683901 -1.55874 -3 -0.795609 -3 0 
C -3 0.795609 -2.683901 1.55874 -2.12132 2.12132 
C -1.55874 2.683901 -0.795609 3 0 3 
z
" id="C5_0_85effbce4a"/>
    </defs>
    <g clip-path="url(#p3b4e7aa077)">
     <use style="fill:#808080;fill-opacity:0.8;stroke:#808080;stroke-opacity:0.8;" x="489.74083" xlink:href="#C5_0_85effbce4a" y="458.399925"/>
    </g>
    <g clip-path="url(#p3b4e7aa077)">
     <use style="fill:#808080;fill-opacity:0.8;stroke:#808080;stroke-opacity:0.8;" x="505.727891" xlink:href="#C5_0_85effbce4a" y="522.273814"/>
    </g>
    <g clip-path="url(#p3b4e7aa077)">
     <use style="fill:#808080;fill-opacity:0.8;stroke:#808080;stroke-opacity:0.8;" x="511.685906" xlink:href="#C5_0_85effbce4a" y="547.028844"/>
    </g>
    <g clip-path="url(#p3b4e7aa077)">
     <use style="fill:#808080;fill-opacity:0.8;stroke:#808080;stroke-opacity:0.8;" x="515.305394" xlink:href="#C5_0_85effbce4a" y="512.981943"/>
    </g>
    <g clip-path="url(#p3b4e7aa077)">
     <use style="fill:#808080;fill-opacity:0.8;stroke:#808080;stroke-opacity:0.8;" x="528.393062" xlink:href="#C5_0_85effbce4a" y="559.021997"/>
    </g>
    <g clip-path="url(#p3b4e7aa077)">
     <use style="fill:#808080;fill-opacity:0.8;stroke:#808080;stroke-opacity:0.8;" x="533.433728" xlink:href="#C5_0_85effbce4a" y="480.093502"/>
    </g>
    <g clip-path="url(#p3b4e7aa077)">
     <use style="fill:#808080;fill-opacity:0.8;stroke:#808080;stroke-opacity:0.8;" x="534.626757" xlink:href="#C5_0_85effbce4a" y="414.617659"/>
    </g>
    <g clip-path="url(#p3b4e7aa077)">
     <use style="fill:#808080;fill-opacity:0.8;stroke:#808080;stroke-opacity:0.8;" x="541.675608" xlink:href="#C5_0_85effbce4a" y="535.336729"/>
    </g>
    <g clip-path="url(#p3b4e7aa077)">
     <use style="fill:#808080;fill-opacity:0.8;stroke:#808080;stroke-opacity:0.8;" x="554.951025" xlink:href="#C5_0_85effbce4a" y="393.020844"/>
    </g>
    <g clip-path="url(#p3b4e7aa077)">
     <use style="fill:#808080;fill-opacity:0.8;stroke:#808080;stroke-opacity:0.8;" x="560.469377" xlink:href="#C5_0_85effbce4a" y="557.377037"/>
    </g>
    <g clip-path="url(#p3b4e7aa077)">
     <use style="fill:#808080;fill-opacity:0.8;stroke:#808080;stroke-opacity:0.8;" x="563.64445" xlink:href="#C5_0_85effbce4a" y="546.545032"/>
    </g>
    <g clip-path="url(#p3b4e7aa077)">
     <use style="fill:#808080;fill-opacity:0.8;stroke:#808080;stroke-opacity:0.8;" x="567.261561" xlink:href="#C5_0_85effbce4a" y="534.946992"/>
    </g>
    <g clip-path="url(#p3b4e7aa077)">
     <use style="fill:#808080;fill-opacity:0.8;stroke:#808080;stroke-opacity:0.8;" x="569.07487" xlink:href="#C5_0_85effbce4a" y="376.745958"/>
    </g>
    <g clip-path="url(#p3b4e7aa077)">
     <use style="fill:#808080;fill-opacity:0.8;stroke:#808080;stroke-opacity:0.8;" x="575.665047" xlink:href="#C5_0_85effbce4a" y="519.618226"/>
    </g>
    <g clip-path="url(#p3b4e7aa077)">
     <use style="fill:#808080;fill-opacity:0.8;stroke:#808080;stroke-opacity:0.8;" x="577.870487" xlink:href="#C5_0_85effbce4a" y="414.459076"/>
    </g>
    <g clip-path="url(#p3b4e7aa077)">
     <use style="fill:#808080;fill-opacity:0.8;stroke:#808080;stroke-opacity:0.8;" x="580.482317" xlink:href="#C5_0_85effbce4a" y="545.093597"/>
    </g>
    <g clip-path="url(#p3b4e7aa077)">
     <use style="fill:#808080;fill-opacity:0.8;stroke:#808080;stroke-opacity:0.8;" x="585.874712" xlink:href="#C5_0_85effbce4a" y="447.852831"/>
    </g>
    <g clip-path="url(#p3b4e7aa077)">
     <use style="fill:#808080;fill-opacity:0.8;stroke:#808080;stroke-opacity:0.8;" x="595.074343" xlink:href="#C5_0_85effbce4a" y="493.387571"/>
    </g>
    <g clip-path="url(#p3b4e7aa077)">
     <use style="fill:#808080;fill-opacity:0.8;stroke:#808080;stroke-opacity:0.8;" x="595.903759" xlink:href="#C5_0_85effbce4a" y="402.549246"/>
    </g>
    <g clip-path="url(#p3b4e7aa077)">
     <use style="fill:#808080;fill-opacity:0.8;stroke:#808080;stroke-opacity:0.8;" x="603.827182" xlink:href="#C5_0_85effbce4a" y="578.342209"/>
    </g>
    <g clip-path="url(#p3b4e7aa077)">
     <use style="fill:#808080;fill-opacity:0.8;stroke:#808080;stroke-opacity:0.8;" x="608.04556" xlink:href="#C5_0_85effbce4a" y="519.45158"/>
    </g>
    <g clip-path="url(#p3b4e7aa077)">
     <use style="fill:#808080;fill-opacity:0.8;stroke:#808080;stroke-opacity:0.8;" x="608.287969" xlink:href="#C5_0_85effbce4a" y="485.697654"/>
    </g>
    <g clip-path="url(#p3b4e7aa077)">
     <use style="fill:#808080;fill-opacity:0.8;stroke:#808080;stroke-opacity:0.8;" x="610.906928" xlink:href="#C5_0_85effbce4a" y="445.025221"/>
    </g>
    <g clip-path="url(#p3b4e7aa077)">
     <use style="fill:#808080;fill-opacity:0.8;stroke:#808080;stroke-opacity:0.8;" x="611.971623" xlink:href="#C5_0_85effbce4a" y="399.649064"/>
    </g>
    <g clip-path="url(#p3b4e7aa077)">
     <use style="fill:#808080;fill-opacity:0.8;stroke:#808080;stroke-opacity:0.8;" x="615.617253" xlink:href="#C5_0_85effbce4a" y="367.239059"/>
    </g>
    <g clip-path="url(#p3b4e7aa077)">
     <use style="fill:#808080;fill-opacity:0.8;stroke:#808080;stroke-opacity:0.8;" x="616.900591" xlink:href="#C5_0_85effbce4a" y="594.189728"/>
    </g>
    <g clip-path="url(#p3b4e7aa077)">
     <use style="fill:#808080;fill-opacity:0.8;stroke:#808080;stroke-opacity:0.8;" x="621.827182" xlink:href="#C5_0_85effbce4a" y="476.378904"/>
    </g>
    <g clip-path="url(#p3b4e7aa077)">
     <use style="fill:#808080;fill-opacity:0.8;stroke:#808080;stroke-opacity:0.8;" x="626.240438" xlink:href="#C5_0_85effbce4a" y="584.338785"/>
    </g>
    <g clip-path="url(#p3b4e7aa077)">
     <use style="fill:#808080;fill-opacity:0.8;stroke:#808080;stroke-opacity:0.8;" x="628.876034" xlink:href="#C5_0_85effbce4a" y="565.972758"/>
    </g>
    <g clip-path="url(#p3b4e7aa077)">
     <use style="fill:#808080;fill-opacity:0.8;stroke:#808080;stroke-opacity:0.8;" x="638.472548" xlink:href="#C5_0_85effbce4a" y="463.826679"/>
    </g>
    <g clip-path="url(#p3b4e7aa077)">
     <use style="fill:#808080;fill-opacity:0.8;stroke:#808080;stroke-opacity:0.8;" x="647.99539" xlink:href="#C5_0_85effbce4a" y="556.877099"/>
    </g>
    <g clip-path="url(#p3b4e7aa077)">
     <use style="fill:#808080;fill-opacity:0.8;stroke:#808080;stroke-opacity:0.8;" x="650.070119" xlink:href="#C5_0_85effbce4a" y="497.71231"/>
    </g>
    <g clip-path="url(#p3b4e7aa077)">
     <use style="fill:#808080;fill-opacity:0.8;stroke:#808080;stroke-opacity:0.8;" x="681.019949" xlink:href="#C5_0_85effbce4a" y="506.990742"/>
    </g>
    <g clip-path="url(#p3b4e7aa077)">
     <use style="fill:#808080;fill-opacity:0.8;stroke:#808080;stroke-opacity:0.8;" x="621.235421" xlink:href="#C5_0_85effbce4a" y="549.023223"/>
    </g>
    <g clip-path="url(#p3b4e7aa077)">
     <use style="fill:#808080;fill-opacity:0.8;stroke:#808080;stroke-opacity:0.8;" x="626.21192" xlink:href="#C5_0_85effbce4a" y="472.376706"/>
    </g>
    <g clip-path="url(#p3b4e7aa077)">
     <use style="fill:#808080;fill-opacity:0.8;stroke:#808080;stroke-opacity:0.8;" x="611.07804" xlink:href="#C5_0_85effbce4a" y="531.487738"/>
    </g>
    <g clip-path="url(#p3b4e7aa077)">
     <use style="fill:#808080;fill-opacity:0.8;stroke:#808080;stroke-opacity:0.8;" x="581.665839" xlink:href="#C5_0_85effbce4a" y="589.41612"/>
    </g>
    <g clip-path="url(#p3b4e7aa077)">
     <use style="fill:#808080;fill-opacity:0.8;stroke:#808080;stroke-opacity:0.8;" x="605.200828" xlink:href="#C5_0_85effbce4a" y="413.725295"/>
    </g>
    <g clip-path="url(#p3b4e7aa077)">
     <use style="fill:#808080;fill-opacity:0.8;stroke:#808080;stroke-opacity:0.8;" x="538.75245" xlink:href="#C5_0_85effbce4a" y="533.471366"/>
    </g>
    <g clip-path="url(#p3b4e7aa077)">
     <use style="fill:#808080;fill-opacity:0.8;stroke:#808080;stroke-opacity:0.8;" x="577.295361" xlink:href="#C5_0_85effbce4a" y="358.490132"/>
    </g>
    <g clip-path="url(#p3b4e7aa077)">
     <use style="fill:#808080;fill-opacity:0.8;stroke:#808080;stroke-opacity:0.8;" x="626.409173" xlink:href="#C5_0_85effbce4a" y="534.847542"/>
    </g>
    <g clip-path="url(#p3b4e7aa077)">
     <use style="fill:#808080;fill-opacity:0.8;stroke:#808080;stroke-opacity:0.8;" x="619.355569" xlink:href="#C5_0_85effbce4a" y="514.597336"/>
    </g>
    <g clip-path="url(#p3b4e7aa077)">
     <use style="fill:#808080;fill-opacity:0.8;stroke:#808080;stroke-opacity:0.8;" x="539.322822" xlink:href="#C5_0_85effbce4a" y="500.292638"/>
    </g>
    <g clip-path="url(#p3b4e7aa077)">
     <use style="fill:#808080;fill-opacity:0.8;stroke:#808080;stroke-opacity:0.8;" x="642.308302" xlink:href="#C5_0_85effbce4a" y="558.952113"/>
    </g>
    <g clip-path="url(#p3b4e7aa077)">
     <use style="fill:#808080;fill-opacity:0.8;stroke:#808080;stroke-opacity:0.8;" x="539.741095" xlink:href="#C5_0_85effbce4a" y="461.743601"/>
    </g>
    <g clip-path="url(#p3b4e7aa077)">
     <use style="fill:#808080;fill-opacity:0.8;stroke:#808080;stroke-opacity:0.8;" x="623.616725" xlink:href="#C5_0_85effbce4a" y="538.548701"/>
    </g>
    <g clip-path="url(#p3b4e7aa077)">
     <use style="fill:#808080;fill-opacity:0.8;stroke:#808080;stroke-opacity:0.8;" x="575.151712" xlink:href="#C5_0_85effbce4a" y="497.075291"/>
    </g>
    <g clip-path="url(#p3b4e7aa077)">
     <use style="fill:#808080;fill-opacity:0.8;stroke:#808080;stroke-opacity:0.8;" x="656.016251" xlink:href="#C5_0_85effbce4a" y="475.040358"/>
    </g>
    <g clip-path="url(#p3b4e7aa077)">
     <use style="fill:#808080;fill-opacity:0.8;stroke:#808080;stroke-opacity:0.8;" x="526.156727" xlink:href="#C5_0_85effbce4a" y="567.730607"/>
    </g>
    <g clip-path="url(#p3b4e7aa077)">
     <use style="fill:#808080;fill-opacity:0.8;stroke:#808080;stroke-opacity:0.8;" x="534.49367" xlink:href="#C5_0_85effbce4a" y="549.662929"/>
    </g>
    <g clip-path="url(#p3b4e7aa077)">
     <use style="fill:#808080;fill-opacity:0.8;stroke:#808080;stroke-opacity:0.8;" x="601.533809" xlink:href="#C5_0_85effbce4a" y="443.103414"/>
    </g>
   </g>
   <g id="PathCollection_12">
    <defs>
     <path d="M 0 4.242641 
C 1.125161 4.242641 2.204391 3.795609 3 3 
C 3.795609 2.204391 4.242641 1.125161 4.242641 -0 
C 4.242641 -1.125161 3.795609 -2.204391 3 -3 
C 2.204391 -3.795609 1.125161 -4.242641 0 -4.242641 
C -1.125161 -4.242641 -2.204391 -3.795609 -3 -3 
C -3.795609 -2.204391 -4.242641 -1.125161 -4.242641 0 
C -4.242641 1.125161 -3.795609 2.204391 -3 3 
C -2.204391 3.795609 -1.125161 4.242641 0 4.242641 
z
" id="C6_0_da20cbbae9"/>
    </defs>
    <g clip-path="url(#p3b4e7aa077)">
     <use style="fill:#ff0000;fill-opacity:0.8;stroke:#ff0000;stroke-opacity:0.8;" x="535.337346" xlink:href="#C6_0_da20cbbae9" y="403.782966"/>
    </g>
    <g clip-path="url(#p3b4e7aa077)">
     <use style="fill:#ff0000;fill-opacity:0.8;stroke:#ff0000;stroke-opacity:0.8;" x="627.053219" xlink:href="#C6_0_da20cbbae9" y="389.386881"/>
    </g>
    <g clip-path="url(#p3b4e7aa077)">
     <use style="fill:#ff0000;fill-opacity:0.8;stroke:#ff0000;stroke-opacity:0.8;" x="598.21852" xlink:href="#C6_0_da20cbbae9" y="374.719325"/>
    </g>
    <g clip-path="url(#p3b4e7aa077)">
     <use style="fill:#ff0000;fill-opacity:0.8;stroke:#ff0000;stroke-opacity:0.8;" x="609.770937" xlink:href="#C6_0_da20cbbae9" y="375.230015"/>
    </g>
   </g>
   <g id="patch_33">
    <path clip-path="url(#p3b4e7aa077)" d="M 707.057301 472.227682 
L 707.057301 486.809227 
L 704.478743 498.474464 
L 701.642329 507.515021 
L 696.743068 518.888627 
L 693.906654 527.929185 
L 689.007394 539.30279 
L 683.850277 548.051717 
L 678.693161 556.800644 
L 673.536044 565.549571 
L 668.378928 574.298498 
L 662.963956 580.422747 
L 657.806839 589.171674 
L 650.32902 597.62897 
L 644.914048 603.753219 
L 637.436229 612.210515 
L 629.700555 618.043133 
L 621.707024 621.251073 
L 611.392791 624.167382 
L 598.5 624.167382 
L 588.185767 621.251073 
L 580.450092 615.418455 
L 572.456562 612.210515 
L 562.400185 606.669528 
L 554.66451 600.83691 
L 546.67098 597.62897 
L 536.614603 592.087983 
L 528.878928 586.255365 
L 520.885397 583.047425 
L 513.407579 574.590129 
L 505.671904 568.757511 
L 500.256932 562.633262 
L 492.779113 554.175966 
L 487.36414 548.051717 
L 479.628466 542.219099 
L 469.314233 539.30279 
L 459.257856 533.761803 
L 459 521.804936 
L 464.414972 515.680687 
L 471.892791 507.223391 
L 477.049908 498.474464 
L 479.628466 486.809227 
L 482.207024 475.143991 
L 482.46488 463.187124 
L 485.043438 451.521888 
L 489.942699 440.148283 
L 495.099815 431.399356 
L 497.936229 422.358798 
L 503.093346 413.609871 
L 508.250462 404.860944 
L 513.149723 393.487339 
L 518.306839 384.738412 
L 523.463956 375.989485 
L 531.19963 370.156867 
L 539.193161 366.948927 
L 549.507394 364.032618 
L 559.821627 361.116309 
L 570.13586 358.2 
L 583.028651 358.2 
L 595.921442 358.2 
L 606.235675 361.116309 
L 616.807763 361.40794 
L 624.543438 367.240558 
L 629.700555 375.989485 
L 632.279113 387.654721 
L 637.436229 396.403648 
L 644.914048 404.860944 
L 652.649723 410.693562 
L 660.385397 416.52618 
L 668.121072 422.358798 
L 675.856747 428.191416 
L 683.592421 434.024034 
L 689.007394 440.148283 
L 696.485213 448.605579 
L 701.900185 454.729828 
L 704.478743 466.395064 
z
" style="fill:none;stroke:#000000;stroke-linejoin:miter;"/>
   </g>
   <g id="matplotlib.axis_11"/>
   <g id="matplotlib.axis_12"/>
   <g id="patch_34">
    <path d="M 459 630 
L 459 358.2 
" style="fill:none;stroke:#000000;stroke-linecap:square;stroke-linejoin:miter;stroke-width:0.8;"/>
   </g>
   <g id="patch_35">
    <path d="M 738 630 
L 738 358.2 
" style="fill:none;stroke:#000000;stroke-linecap:square;stroke-linejoin:miter;stroke-width:0.8;"/>
   </g>
   <g id="patch_36">
    <path d="M 459 630 
L 738 630 
" style="fill:none;stroke:#000000;stroke-linecap:square;stroke-linejoin:miter;stroke-width:0.8;"/>
   </g>
   <g id="patch_37">
    <path d="M 459 358.2 
L 738 358.2 
" style="fill:none;stroke:#000000;stroke-linecap:square;stroke-linejoin:miter;stroke-width:0.8;"/>
   </g>
  </g>
  <g id="axes_7">
   <g id="patch_38">
    <path d="M 738 630 
L 1017 630 
L 1017 358.2 
L 738 358.2 
z
" style="fill:#ffffff;"/>
   </g>
   <g id="PathCollection_13">
    <defs>
     <path d="M 0 3 
C 0.795609 3 1.55874 2.683901 2.12132 2.12132 
C 2.683901 1.55874 3 0.795609 3 -0 
C 3 -0.795609 2.683901 -1.55874 2.12132 -2.12132 
C 1.55874 -2.683901 0.795609 -3 0 -3 
C -0.795609 -3 -1.55874 -2.683901 -2.12132 -2.12132 
C -2.683901 -1.55874 -3 -0.795609 -3 0 
C -3 0.795609 -2.683901 1.55874 -2.12132 2.12132 
C -1.55874 2.683901 -0.795609 3 0 3 
z
" id="C7_0_3850847a46"/>
    </defs>
    <g clip-path="url(#p1df35d9822)">
     <use style="fill:#808080;fill-opacity:0.8;stroke:#808080;stroke-opacity:0.8;" x="846.69647" xlink:href="#C7_0_3850847a46" y="376.334718"/>
    </g>
    <g clip-path="url(#p1df35d9822)">
     <use style="fill:#808080;fill-opacity:0.8;stroke:#808080;stroke-opacity:0.8;" x="803.783081" xlink:href="#C7_0_3850847a46" y="386.032454"/>
    </g>
    <g clip-path="url(#p1df35d9822)">
     <use style="fill:#808080;fill-opacity:0.8;stroke:#808080;stroke-opacity:0.8;" x="812.516907" xlink:href="#C7_0_3850847a46" y="386.994701"/>
    </g>
    <g clip-path="url(#p1df35d9822)">
     <use style="fill:#808080;fill-opacity:0.8;stroke:#808080;stroke-opacity:0.8;" x="831.945215" xlink:href="#C7_0_3850847a46" y="394.00997"/>
    </g>
    <g clip-path="url(#p1df35d9822)">
     <use style="fill:#808080;fill-opacity:0.8;stroke:#808080;stroke-opacity:0.8;" x="814.230401" xlink:href="#C7_0_3850847a46" y="402.234768"/>
    </g>
    <g clip-path="url(#p1df35d9822)">
     <use style="fill:#808080;fill-opacity:0.8;stroke:#808080;stroke-opacity:0.8;" x="818.470169" xlink:href="#C7_0_3850847a46" y="410.319799"/>
    </g>
    <g clip-path="url(#p1df35d9822)">
     <use style="fill:#808080;fill-opacity:0.8;stroke:#808080;stroke-opacity:0.8;" x="912.667161" xlink:href="#C7_0_3850847a46" y="398.565863"/>
    </g>
    <g clip-path="url(#p1df35d9822)">
     <use style="fill:#808080;fill-opacity:0.8;stroke:#808080;stroke-opacity:0.8;" x="887.796551" xlink:href="#C7_0_3850847a46" y="426.836591"/>
    </g>
    <g clip-path="url(#p1df35d9822)">
     <use style="fill:#808080;fill-opacity:0.8;stroke:#808080;stroke-opacity:0.8;" x="873.064308" xlink:href="#C7_0_3850847a46" y="435.131273"/>
    </g>
    <g clip-path="url(#p1df35d9822)">
     <use style="fill:#808080;fill-opacity:0.8;stroke:#808080;stroke-opacity:0.8;" x="852.307508" xlink:href="#C7_0_3850847a46" y="443.227054"/>
    </g>
    <g clip-path="url(#p1df35d9822)">
     <use style="fill:#808080;fill-opacity:0.8;stroke:#808080;stroke-opacity:0.8;" x="898.272389" xlink:href="#C7_0_3850847a46" y="425.215822"/>
    </g>
    <g clip-path="url(#p1df35d9822)">
     <use style="fill:#808080;fill-opacity:0.8;stroke:#808080;stroke-opacity:0.8;" x="890.465418" xlink:href="#C7_0_3850847a46" y="443.904391"/>
    </g>
    <g clip-path="url(#p1df35d9822)">
     <use style="fill:#808080;fill-opacity:0.8;stroke:#808080;stroke-opacity:0.8;" x="899.265788" xlink:href="#C7_0_3850847a46" y="441.186982"/>
    </g>
    <g clip-path="url(#p1df35d9822)">
     <use style="fill:#808080;fill-opacity:0.8;stroke:#808080;stroke-opacity:0.8;" x="879.435843" xlink:href="#C7_0_3850847a46" y="443.09535"/>
    </g>
    <g clip-path="url(#p1df35d9822)">
     <use style="fill:#808080;fill-opacity:0.8;stroke:#808080;stroke-opacity:0.8;" x="931.216145" xlink:href="#C7_0_3850847a46" y="438.155096"/>
    </g>
    <g clip-path="url(#p1df35d9822)">
     <use style="fill:#808080;fill-opacity:0.8;stroke:#808080;stroke-opacity:0.8;" x="853.797606" xlink:href="#C7_0_3850847a46" y="417.950583"/>
    </g>
    <g clip-path="url(#p1df35d9822)">
     <use style="fill:#808080;fill-opacity:0.8;stroke:#808080;stroke-opacity:0.8;" x="882.446933" xlink:href="#C7_0_3850847a46" y="621.678293"/>
    </g>
    <g clip-path="url(#p1df35d9822)">
     <use style="fill:#808080;fill-opacity:0.8;stroke:#808080;stroke-opacity:0.8;" x="890.700696" xlink:href="#C7_0_3850847a46" y="616.152089"/>
    </g>
    <g clip-path="url(#p1df35d9822)">
     <use style="fill:#808080;fill-opacity:0.8;stroke:#808080;stroke-opacity:0.8;" x="882.199772" xlink:href="#C7_0_3850847a46" y="612.209024"/>
    </g>
    <g clip-path="url(#p1df35d9822)">
     <use style="fill:#808080;fill-opacity:0.8;stroke:#808080;stroke-opacity:0.8;" x="909.477829" xlink:href="#C7_0_3850847a46" y="603.769199"/>
    </g>
    <g clip-path="url(#p1df35d9822)">
     <use style="fill:#808080;fill-opacity:0.8;stroke:#808080;stroke-opacity:0.8;" x="855.178382" xlink:href="#C7_0_3850847a46" y="601.546353"/>
    </g>
    <g clip-path="url(#p1df35d9822)">
     <use style="fill:#808080;fill-opacity:0.8;stroke:#808080;stroke-opacity:0.8;" x="845.688812" xlink:href="#C7_0_3850847a46" y="595.791682"/>
    </g>
    <g clip-path="url(#p1df35d9822)">
     <use style="fill:#808080;fill-opacity:0.8;stroke:#808080;stroke-opacity:0.8;" x="898.039487" xlink:href="#C7_0_3850847a46" y="586.271344"/>
    </g>
    <g clip-path="url(#p1df35d9822)">
     <use style="fill:#808080;fill-opacity:0.8;stroke:#808080;stroke-opacity:0.8;" x="902.847251" xlink:href="#C7_0_3850847a46" y="576.038728"/>
    </g>
    <g clip-path="url(#p1df35d9822)">
     <use style="fill:#808080;fill-opacity:0.8;stroke:#808080;stroke-opacity:0.8;" x="880.077512" xlink:href="#C7_0_3850847a46" y="570.808186"/>
    </g>
    <g clip-path="url(#p1df35d9822)">
     <use style="fill:#808080;fill-opacity:0.8;stroke:#808080;stroke-opacity:0.8;" x="889.400723" xlink:href="#C7_0_3850847a46" y="569.587906"/>
    </g>
    <g clip-path="url(#p1df35d9822)">
     <use style="fill:#808080;fill-opacity:0.8;stroke:#808080;stroke-opacity:0.8;" x="941.005161" xlink:href="#C7_0_3850847a46" y="564.46219"/>
    </g>
    <g clip-path="url(#p1df35d9822)">
     <use style="fill:#808080;fill-opacity:0.8;stroke:#808080;stroke-opacity:0.8;" x="911.020211" xlink:href="#C7_0_3850847a46" y="558.734398"/>
    </g>
    <g clip-path="url(#p1df35d9822)">
     <use style="fill:#808080;fill-opacity:0.8;stroke:#808080;stroke-opacity:0.8;" x="950.72288" xlink:href="#C7_0_3850847a46" y="547.499216"/>
    </g>
    <g clip-path="url(#p1df35d9822)">
     <use style="fill:#808080;fill-opacity:0.8;stroke:#808080;stroke-opacity:0.8;" x="843.530903" xlink:href="#C7_0_3850847a46" y="546.128417"/>
    </g>
    <g clip-path="url(#p1df35d9822)">
     <use style="fill:#808080;fill-opacity:0.8;stroke:#808080;stroke-opacity:0.8;" x="918.078569" xlink:href="#C7_0_3850847a46" y="544.636664"/>
    </g>
    <g clip-path="url(#p1df35d9822)">
     <use style="fill:#808080;fill-opacity:0.8;stroke:#808080;stroke-opacity:0.8;" x="841.111574" xlink:href="#C7_0_3850847a46" y="539.016385"/>
    </g>
    <g clip-path="url(#p1df35d9822)">
     <use style="fill:#808080;fill-opacity:0.8;stroke:#808080;stroke-opacity:0.8;" x="866.345797" xlink:href="#C7_0_3850847a46" y="536.358109"/>
    </g>
    <g clip-path="url(#p1df35d9822)">
     <use style="fill:#808080;fill-opacity:0.8;stroke:#808080;stroke-opacity:0.8;" x="895.332595" xlink:href="#C7_0_3850847a46" y="529.383158"/>
    </g>
    <g clip-path="url(#p1df35d9822)">
     <use style="fill:#808080;fill-opacity:0.8;stroke:#808080;stroke-opacity:0.8;" x="909.216409" xlink:href="#C7_0_3850847a46" y="527.066238"/>
    </g>
    <g clip-path="url(#p1df35d9822)">
     <use style="fill:#808080;fill-opacity:0.8;stroke:#808080;stroke-opacity:0.8;" x="864.556254" xlink:href="#C7_0_3850847a46" y="524.964345"/>
    </g>
    <g clip-path="url(#p1df35d9822)">
     <use style="fill:#808080;fill-opacity:0.8;stroke:#808080;stroke-opacity:0.8;" x="954.311472" xlink:href="#C7_0_3850847a46" y="509.001248"/>
    </g>
    <g clip-path="url(#p1df35d9822)">
     <use style="fill:#808080;fill-opacity:0.8;stroke:#808080;stroke-opacity:0.8;" x="867.783611" xlink:href="#C7_0_3850847a46" y="507.221896"/>
    </g>
    <g clip-path="url(#p1df35d9822)">
     <use style="fill:#808080;fill-opacity:0.8;stroke:#808080;stroke-opacity:0.8;" x="848.985089" xlink:href="#C7_0_3850847a46" y="503.875532"/>
    </g>
    <g clip-path="url(#p1df35d9822)">
     <use style="fill:#808080;fill-opacity:0.8;stroke:#808080;stroke-opacity:0.8;" x="919.437956" xlink:href="#C7_0_3850847a46" y="499.432529"/>
    </g>
    <g clip-path="url(#p1df35d9822)">
     <use style="fill:#808080;fill-opacity:0.8;stroke:#808080;stroke-opacity:0.8;" x="949.287443" xlink:href="#C7_0_3850847a46" y="493.218237"/>
    </g>
    <g clip-path="url(#p1df35d9822)">
     <use style="fill:#808080;fill-opacity:0.8;stroke:#808080;stroke-opacity:0.8;" x="876.624382" xlink:href="#C7_0_3850847a46" y="492.293619"/>
    </g>
    <g clip-path="url(#p1df35d9822)">
     <use style="fill:#808080;fill-opacity:0.8;stroke:#808080;stroke-opacity:0.8;" x="841.990898" xlink:href="#C7_0_3850847a46" y="482.9238"/>
    </g>
    <g clip-path="url(#p1df35d9822)">
     <use style="fill:#808080;fill-opacity:0.8;stroke:#808080;stroke-opacity:0.8;" x="939.384353" xlink:href="#C7_0_3850847a46" y="477.279331"/>
    </g>
    <g clip-path="url(#p1df35d9822)">
     <use style="fill:#808080;fill-opacity:0.8;stroke:#808080;stroke-opacity:0.8;" x="847.647091" xlink:href="#C7_0_3850847a46" y="476.518672"/>
    </g>
    <g clip-path="url(#p1df35d9822)">
     <use style="fill:#808080;fill-opacity:0.8;stroke:#808080;stroke-opacity:0.8;" x="874.632832" xlink:href="#C7_0_3850847a46" y="469.586726"/>
    </g>
    <g clip-path="url(#p1df35d9822)">
     <use style="fill:#808080;fill-opacity:0.8;stroke:#808080;stroke-opacity:0.8;" x="921.48892" xlink:href="#C7_0_3850847a46" y="466.03071"/>
    </g>
    <g clip-path="url(#p1df35d9822)">
     <use style="fill:#808080;fill-opacity:0.8;stroke:#808080;stroke-opacity:0.8;" x="924.509517" xlink:href="#C7_0_3850847a46" y="460.560951"/>
    </g>
    <g clip-path="url(#p1df35d9822)">
     <use style="fill:#808080;fill-opacity:0.8;stroke:#808080;stroke-opacity:0.8;" x="924.740043" xlink:href="#C7_0_3850847a46" y="453.588687"/>
    </g>
    <g clip-path="url(#p1df35d9822)">
     <use style="fill:#808080;fill-opacity:0.8;stroke:#808080;stroke-opacity:0.8;" x="923.913003" xlink:href="#C7_0_3850847a46" y="547.899705"/>
    </g>
    <g clip-path="url(#p1df35d9822)">
     <use style="fill:#808080;fill-opacity:0.8;stroke:#808080;stroke-opacity:0.8;" x="963.934129" xlink:href="#C7_0_3850847a46" y="526.117429"/>
    </g>
    <g clip-path="url(#p1df35d9822)">
     <use style="fill:#808080;fill-opacity:0.8;stroke:#808080;stroke-opacity:0.8;" x="843.447724" xlink:href="#C7_0_3850847a46" y="460.319045"/>
    </g>
    <g clip-path="url(#p1df35d9822)">
     <use style="fill:#808080;fill-opacity:0.8;stroke:#808080;stroke-opacity:0.8;" x="867.719444" xlink:href="#C7_0_3850847a46" y="589.386554"/>
    </g>
    <g clip-path="url(#p1df35d9822)">
     <use style="fill:#808080;fill-opacity:0.8;stroke:#808080;stroke-opacity:0.8;" x="911.020211" xlink:href="#C7_0_3850847a46" y="579.135122"/>
    </g>
    <g clip-path="url(#p1df35d9822)">
     <use style="fill:#808080;fill-opacity:0.8;stroke:#808080;stroke-opacity:0.8;" x="909.349496" xlink:href="#C7_0_3850847a46" y="536.331231"/>
    </g>
    <g clip-path="url(#p1df35d9822)">
     <use style="fill:#808080;fill-opacity:0.8;stroke:#808080;stroke-opacity:0.8;" x="832.056913" xlink:href="#C7_0_3850847a46" y="556.823342"/>
    </g>
    <g clip-path="url(#p1df35d9822)">
     <use style="fill:#808080;fill-opacity:0.8;stroke:#808080;stroke-opacity:0.8;" x="854.855171" xlink:href="#C7_0_3850847a46" y="498.967532"/>
    </g>
    <g clip-path="url(#p1df35d9822)">
     <use style="fill:#808080;fill-opacity:0.8;stroke:#808080;stroke-opacity:0.8;" x="926.515327" xlink:href="#C7_0_3850847a46" y="568.440197"/>
    </g>
    <g clip-path="url(#p1df35d9822)">
     <use style="fill:#808080;fill-opacity:0.8;stroke:#808080;stroke-opacity:0.8;" x="856.870487" xlink:href="#C7_0_3850847a46" y="566.811365"/>
    </g>
    <g clip-path="url(#p1df35d9822)">
     <use style="fill:#808080;fill-opacity:0.8;stroke:#808080;stroke-opacity:0.8;" x="936.805794" xlink:href="#C7_0_3850847a46" y="564.8358"/>
    </g>
    <g clip-path="url(#p1df35d9822)">
     <use style="fill:#808080;fill-opacity:0.8;stroke:#808080;stroke-opacity:0.8;" x="946.007802" xlink:href="#C7_0_3850847a46" y="534.632514"/>
    </g>
    <g clip-path="url(#p1df35d9822)">
     <use style="fill:#808080;fill-opacity:0.8;stroke:#808080;stroke-opacity:0.8;" x="974.961328" xlink:href="#C7_0_3850847a46" y="503.926601"/>
    </g>
    <g clip-path="url(#p1df35d9822)">
     <use style="fill:#808080;fill-opacity:0.8;stroke:#808080;stroke-opacity:0.8;" x="779.608799" xlink:href="#C7_0_3850847a46" y="515.62678"/>
    </g>
    <g clip-path="url(#p1df35d9822)">
     <use style="fill:#808080;fill-opacity:0.8;stroke:#808080;stroke-opacity:0.8;" x="783.190262" xlink:href="#C7_0_3850847a46" y="541.491888"/>
    </g>
    <g clip-path="url(#p1df35d9822)">
     <use style="fill:#808080;fill-opacity:0.8;stroke:#808080;stroke-opacity:0.8;" x="785.333912" xlink:href="#C7_0_3850847a46" y="521.107291"/>
    </g>
    <g clip-path="url(#p1df35d9822)">
     <use style="fill:#808080;fill-opacity:0.8;stroke:#808080;stroke-opacity:0.8;" x="807.877879" xlink:href="#C7_0_3850847a46" y="560.715338"/>
    </g>
    <g clip-path="url(#p1df35d9822)">
     <use style="fill:#808080;fill-opacity:0.8;stroke:#808080;stroke-opacity:0.8;" x="812.875766" xlink:href="#C7_0_3850847a46" y="488.622026"/>
    </g>
    <g clip-path="url(#p1df35d9822)">
     <use style="fill:#808080;fill-opacity:0.8;stroke:#808080;stroke-opacity:0.8;" x="815.459078" xlink:href="#C7_0_3850847a46" y="524.518163"/>
    </g>
    <g clip-path="url(#p1df35d9822)">
     <use style="fill:#808080;fill-opacity:0.8;stroke:#808080;stroke-opacity:0.8;" x="818.187359" xlink:href="#C7_0_3850847a46" y="507.063314"/>
    </g>
    <g clip-path="url(#p1df35d9822)">
     <use style="fill:#808080;fill-opacity:0.8;stroke:#808080;stroke-opacity:0.8;" x="823.786514" xlink:href="#C7_0_3850847a46" y="535.928054"/>
    </g>
    <g clip-path="url(#p1df35d9822)">
     <use style="fill:#808080;fill-opacity:0.8;stroke:#808080;stroke-opacity:0.8;" x="828.506345" xlink:href="#C7_0_3850847a46" y="557.527557"/>
    </g>
    <g clip-path="url(#p1df35d9822)">
     <use style="fill:#808080;fill-opacity:0.8;stroke:#808080;stroke-opacity:0.8;" x="805.085431" xlink:href="#C7_0_3850847a46" y="581.486985"/>
    </g>
    <g clip-path="url(#p1df35d9822)">
     <use style="fill:#808080;fill-opacity:0.8;stroke:#808080;stroke-opacity:0.8;" x="813.034995" xlink:href="#C7_0_3850847a46" y="532.834348"/>
    </g>
    <g clip-path="url(#p1df35d9822)">
     <use style="fill:#808080;fill-opacity:0.8;stroke:#808080;stroke-opacity:0.8;" x="800.011494" xlink:href="#C7_0_3850847a46" y="500.908154"/>
    </g>
    <g clip-path="url(#p1df35d9822)">
     <use style="fill:#808080;fill-opacity:0.8;stroke:#808080;stroke-opacity:0.8;" x="791.883688" xlink:href="#C7_0_3850847a46" y="531.901666"/>
    </g>
    <g clip-path="url(#p1df35d9822)">
     <use style="fill:#808080;fill-opacity:0.8;stroke:#808080;stroke-opacity:0.8;" x="788.93914" xlink:href="#C7_0_3850847a46" y="513.054515"/>
    </g>
    <g clip-path="url(#p1df35d9822)">
     <use style="fill:#808080;fill-opacity:0.8;stroke:#808080;stroke-opacity:0.8;" x="817.060874" xlink:href="#C7_0_3850847a46" y="501.389278"/>
    </g>
    <g clip-path="url(#p1df35d9822)">
     <use style="fill:#808080;fill-opacity:0.8;stroke:#808080;stroke-opacity:0.8;" x="790.336553" xlink:href="#C7_0_3850847a46" y="498.475657"/>
    </g>
    <g clip-path="url(#p1df35d9822)">
     <use style="fill:#808080;fill-opacity:0.8;stroke:#808080;stroke-opacity:0.8;" x="817.647882" xlink:href="#C7_0_3850847a46" y="460.560951"/>
    </g>
    <g clip-path="url(#p1df35d9822)">
     <use style="fill:#808080;fill-opacity:0.8;stroke:#808080;stroke-opacity:0.8;" x="799.555196" xlink:href="#C7_0_3850847a46" y="527.308143"/>
    </g>
    <g clip-path="url(#p1df35d9822)">
     <use style="fill:#808080;fill-opacity:0.8;stroke:#808080;stroke-opacity:0.8;" x="804.160952" xlink:href="#C7_0_3850847a46" y="568.62297"/>
    </g>
    <g clip-path="url(#p1df35d9822)">
     <use style="fill:#808080;fill-opacity:0.8;stroke:#808080;stroke-opacity:0.8;" x="807.877879" xlink:href="#C7_0_3850847a46" y="533.758965"/>
    </g>
   </g>
   <g id="PathCollection_14">
    <defs>
     <path d="M 0 4.242641 
C 1.125161 4.242641 2.204391 3.795609 3 3 
C 3.795609 2.204391 4.242641 1.125161 4.242641 -0 
C 4.242641 -1.125161 3.795609 -2.204391 3 -3 
C 2.204391 -3.795609 1.125161 -4.242641 0 -4.242641 
C -1.125161 -4.242641 -2.204391 -3.795609 -3 -3 
C -3.795609 -2.204391 -4.242641 -1.125161 -4.242641 0 
C -4.242641 1.125161 -3.795609 2.204391 -3 3 
C -2.204391 3.795609 -1.125161 4.242641 0 4.242641 
z
" id="C8_0_00906edb4a"/>
    </defs>
    <g clip-path="url(#p1df35d9822)">
     <use style="fill:#ff0000;fill-opacity:0.8;stroke:#ff0000;stroke-opacity:0.8;" x="812.863884" xlink:href="#C8_0_00906edb4a" y="407.398114"/>
    </g>
    <g clip-path="url(#p1df35d9822)">
     <use style="fill:#ff0000;fill-opacity:0.8;stroke:#ff0000;stroke-opacity:0.8;" x="902.963702" xlink:href="#C8_0_00906edb4a" y="389.752428"/>
    </g>
   </g>
   <g id="patch_39">
    <path clip-path="url(#p1df35d9822)" d="M 980.900185 475.143991 
L 980.900185 489.725536 
L 980.642329 501.682403 
L 978.321627 515.972318 
L 975.743068 527.637554 
L 970.585952 536.386481 
L 968.007394 548.051717 
L 962.850277 556.800644 
L 957.435305 562.924893 
L 949.957486 571.382189 
L 944.542514 577.506438 
L 937.064695 585.963734 
L 931.907579 594.712661 
L 926.492606 600.83691 
L 921.33549 609.585837 
L 913.857671 618.043133 
L 906.121996 623.875751 
L 898.128466 627.083691 
L 887.814233 630 
L 877.5 627.083691 
L 869.50647 623.875751 
L 862.028651 615.418455 
L 854.292976 609.585837 
L 846.557301 603.753219 
L 838.821627 597.920601 
L 830.828096 594.712661 
L 820.771719 589.171674 
L 812.778189 585.963734 
L 802.721811 580.422747 
L 794.986137 574.590129 
L 787.250462 568.757511 
L 781.83549 562.633262 
L 774.357671 554.175966 
L 768.942699 548.051717 
L 761.46488 539.594421 
L 756.049908 533.470172 
L 753.729205 524.429614 
L 758.628466 513.056009 
L 761.207024 501.390773 
L 761.207024 486.809227 
L 763.785582 475.143991 
L 764.043438 463.187124 
L 768.942699 451.813519 
L 771.521257 440.148283 
L 776.678373 431.399356 
L 781.83549 422.650429 
L 786.992606 413.901502 
L 792.407579 407.777253 
L 797.306839 396.403648 
L 802.463956 387.654721 
L 807.621072 378.905794 
L 813.036044 372.781545 
L 823.350277 369.865236 
L 833.66451 366.948927 
L 846.557301 366.948927 
L 859.450092 366.948927 
L 869.764325 369.865236 
L 882.657116 369.865236 
L 893.229205 370.156867 
L 903.285582 375.697854 
L 908.442699 384.446781 
L 913.599815 393.195708 
L 918.756932 401.944635 
L 923.914048 410.693562 
L 931.649723 416.52618 
L 939.385397 422.358798 
L 947.378928 425.566738 
L 955.114603 431.399356 
L 962.592421 439.856652 
L 968.007394 445.980901 
L 973.16451 454.729828 
L 978.063771 466.103433 
z
" style="fill:none;stroke:#000000;stroke-linejoin:miter;"/>
   </g>
   <g id="matplotlib.axis_13"/>
   <g id="matplotlib.axis_14"/>
   <g id="patch_40">
    <path d="M 738 630 
L 738 358.2 
" style="fill:none;stroke:#000000;stroke-linecap:square;stroke-linejoin:miter;stroke-width:0.8;"/>
   </g>
   <g id="patch_41">
    <path d="M 1017 630 
L 1017 358.2 
" style="fill:none;stroke:#000000;stroke-linecap:square;stroke-linejoin:miter;stroke-width:0.8;"/>
   </g>
   <g id="patch_42">
    <path d="M 738 630 
L 1017 630 
" style="fill:none;stroke:#000000;stroke-linecap:square;stroke-linejoin:miter;stroke-width:0.8;"/>
   </g>
   <g id="patch_43">
    <path d="M 738 358.2 
L 1017 358.2 
" style="fill:none;stroke:#000000;stroke-linecap:square;stroke-linejoin:miter;stroke-width:0.8;"/>
   </g>
  </g>
  <g id="axes_8"/>
  <g id="text_1">
   <!-- L6 IT cell has Timp3 peripheral score 0.65 -->
   <g transform="translate(594.285 23.518125)scale(0.12 -0.12)">
    <defs>
     <path d="M 9.8125 72.90625 
L 19.671875 72.90625 
L 19.671875 8.296875 
L 55.171875 8.296875 
L 55.171875 0 
L 9.8125 0 
z
" id="DejaVuSans-76"/>
     <path d="M 33.015625 40.375 
Q 26.375 40.375 22.484375 35.828125 
Q 18.609375 31.296875 18.609375 23.390625 
Q 18.609375 15.53125 22.484375 10.953125 
Q 26.375 6.390625 33.015625 6.390625 
Q 39.65625 6.390625 43.53125 10.953125 
Q 47.40625 15.53125 47.40625 23.390625 
Q 47.40625 31.296875 43.53125 35.828125 
Q 39.65625 40.375 33.015625 40.375 
z
M 52.59375 71.296875 
L 52.59375 62.3125 
Q 48.875 64.0625 45.09375 64.984375 
Q 41.3125 65.921875 37.59375 65.921875 
Q 27.828125 65.921875 22.671875 59.328125 
Q 17.53125 52.734375 16.796875 39.40625 
Q 19.671875 43.65625 24.015625 45.921875 
Q 28.375 48.1875 33.59375 48.1875 
Q 44.578125 48.1875 50.953125 41.515625 
Q 57.328125 34.859375 57.328125 23.390625 
Q 57.328125 12.15625 50.6875 5.359375 
Q 44.046875 -1.421875 33.015625 -1.421875 
Q 20.359375 -1.421875 13.671875 8.265625 
Q 6.984375 17.96875 6.984375 36.375 
Q 6.984375 53.65625 15.1875 63.9375 
Q 23.390625 74.21875 37.203125 74.21875 
Q 40.921875 74.21875 44.703125 73.484375 
Q 48.484375 72.75 52.59375 71.296875 
z
" id="DejaVuSans-54"/>
     <path id="DejaVuSans-32"/>
     <path d="M 9.8125 72.90625 
L 19.671875 72.90625 
L 19.671875 0 
L 9.8125 0 
z
" id="DejaVuSans-73"/>
     <path d="M -0.296875 72.90625 
L 61.375 72.90625 
L 61.375 64.59375 
L 35.5 64.59375 
L 35.5 0 
L 25.59375 0 
L 25.59375 64.59375 
L -0.296875 64.59375 
z
" id="DejaVuSans-84"/>
     <path d="M 48.78125 52.59375 
L 48.78125 44.1875 
Q 44.96875 46.296875 41.140625 47.34375 
Q 37.3125 48.390625 33.40625 48.390625 
Q 24.65625 48.390625 19.8125 42.84375 
Q 14.984375 37.3125 14.984375 27.296875 
Q 14.984375 17.28125 19.8125 11.734375 
Q 24.65625 6.203125 33.40625 6.203125 
Q 37.3125 6.203125 41.140625 7.25 
Q 44.96875 8.296875 48.78125 10.40625 
L 48.78125 2.09375 
Q 45.015625 0.34375 40.984375 -0.53125 
Q 36.96875 -1.421875 32.421875 -1.421875 
Q 20.0625 -1.421875 12.78125 6.34375 
Q 5.515625 14.109375 5.515625 27.296875 
Q 5.515625 40.671875 12.859375 48.328125 
Q 20.21875 56 33.015625 56 
Q 37.15625 56 41.109375 55.140625 
Q 45.0625 54.296875 48.78125 52.59375 
z
" id="DejaVuSans-99"/>
     <path d="M 56.203125 29.59375 
L 56.203125 25.203125 
L 14.890625 25.203125 
Q 15.484375 15.921875 20.484375 11.0625 
Q 25.484375 6.203125 34.421875 6.203125 
Q 39.59375 6.203125 44.453125 7.46875 
Q 49.3125 8.734375 54.109375 11.28125 
L 54.109375 2.78125 
Q 49.265625 0.734375 44.1875 -0.34375 
Q 39.109375 -1.421875 33.890625 -1.421875 
Q 20.796875 -1.421875 13.15625 6.1875 
Q 5.515625 13.8125 5.515625 26.8125 
Q 5.515625 40.234375 12.765625 48.109375 
Q 20.015625 56 32.328125 56 
Q 43.359375 56 49.78125 48.890625 
Q 56.203125 41.796875 56.203125 29.59375 
z
M 47.21875 32.234375 
Q 47.125 39.59375 43.09375 43.984375 
Q 39.0625 48.390625 32.421875 48.390625 
Q 24.90625 48.390625 20.390625 44.140625 
Q 15.875 39.890625 15.1875 32.171875 
z
" id="DejaVuSans-101"/>
     <path d="M 9.421875 75.984375 
L 18.40625 75.984375 
L 18.40625 0 
L 9.421875 0 
z
" id="DejaVuSans-108"/>
     <path d="M 54.890625 33.015625 
L 54.890625 0 
L 45.90625 0 
L 45.90625 32.71875 
Q 45.90625 40.484375 42.875 44.328125 
Q 39.84375 48.1875 33.796875 48.1875 
Q 26.515625 48.1875 22.3125 43.546875 
Q 18.109375 38.921875 18.109375 30.90625 
L 18.109375 0 
L 9.078125 0 
L 9.078125 75.984375 
L 18.109375 75.984375 
L 18.109375 46.1875 
Q 21.34375 51.125 25.703125 53.5625 
Q 30.078125 56 35.796875 56 
Q 45.21875 56 50.046875 50.171875 
Q 54.890625 44.34375 54.890625 33.015625 
z
" id="DejaVuSans-104"/>
     <path d="M 34.28125 27.484375 
Q 23.390625 27.484375 19.1875 25 
Q 14.984375 22.515625 14.984375 16.5 
Q 14.984375 11.71875 18.140625 8.90625 
Q 21.296875 6.109375 26.703125 6.109375 
Q 34.1875 6.109375 38.703125 11.40625 
Q 43.21875 16.703125 43.21875 25.484375 
L 43.21875 27.484375 
z
M 52.203125 31.203125 
L 52.203125 0 
L 43.21875 0 
L 43.21875 8.296875 
Q 40.140625 3.328125 35.546875 0.953125 
Q 30.953125 -1.421875 24.3125 -1.421875 
Q 15.921875 -1.421875 10.953125 3.296875 
Q 6 8.015625 6 15.921875 
Q 6 25.140625 12.171875 29.828125 
Q 18.359375 34.515625 30.609375 34.515625 
L 43.21875 34.515625 
L 43.21875 35.40625 
Q 43.21875 41.609375 39.140625 45 
Q 35.0625 48.390625 27.6875 48.390625 
Q 23 48.390625 18.546875 47.265625 
Q 14.109375 46.140625 10.015625 43.890625 
L 10.015625 52.203125 
Q 14.9375 54.109375 19.578125 55.046875 
Q 24.21875 56 28.609375 56 
Q 40.484375 56 46.34375 49.84375 
Q 52.203125 43.703125 52.203125 31.203125 
z
" id="DejaVuSans-97"/>
     <path d="M 44.28125 53.078125 
L 44.28125 44.578125 
Q 40.484375 46.53125 36.375 47.5 
Q 32.28125 48.484375 27.875 48.484375 
Q 21.1875 48.484375 17.84375 46.4375 
Q 14.5 44.390625 14.5 40.28125 
Q 14.5 37.15625 16.890625 35.375 
Q 19.28125 33.59375 26.515625 31.984375 
L 29.59375 31.296875 
Q 39.15625 29.25 43.1875 25.515625 
Q 47.21875 21.78125 47.21875 15.09375 
Q 47.21875 7.46875 41.1875 3.015625 
Q 35.15625 -1.421875 24.609375 -1.421875 
Q 20.21875 -1.421875 15.453125 -0.5625 
Q 10.6875 0.296875 5.421875 2 
L 5.421875 11.28125 
Q 10.40625 8.6875 15.234375 7.390625 
Q 20.0625 6.109375 24.8125 6.109375 
Q 31.15625 6.109375 34.5625 8.28125 
Q 37.984375 10.453125 37.984375 14.40625 
Q 37.984375 18.0625 35.515625 20.015625 
Q 33.0625 21.96875 24.703125 23.78125 
L 21.578125 24.515625 
Q 13.234375 26.265625 9.515625 29.90625 
Q 5.8125 33.546875 5.8125 39.890625 
Q 5.8125 47.609375 11.28125 51.796875 
Q 16.75 56 26.8125 56 
Q 31.78125 56 36.171875 55.265625 
Q 40.578125 54.546875 44.28125 53.078125 
z
" id="DejaVuSans-115"/>
     <path d="M 9.421875 54.6875 
L 18.40625 54.6875 
L 18.40625 0 
L 9.421875 0 
z
M 9.421875 75.984375 
L 18.40625 75.984375 
L 18.40625 64.59375 
L 9.421875 64.59375 
z
" id="DejaVuSans-105"/>
     <path d="M 52 44.1875 
Q 55.375 50.25 60.0625 53.125 
Q 64.75 56 71.09375 56 
Q 79.640625 56 84.28125 50.015625 
Q 88.921875 44.046875 88.921875 33.015625 
L 88.921875 0 
L 79.890625 0 
L 79.890625 32.71875 
Q 79.890625 40.578125 77.09375 44.375 
Q 74.3125 48.1875 68.609375 48.1875 
Q 61.625 48.1875 57.5625 43.546875 
Q 53.515625 38.921875 53.515625 30.90625 
L 53.515625 0 
L 44.484375 0 
L 44.484375 32.71875 
Q 44.484375 40.625 41.703125 44.40625 
Q 38.921875 48.1875 33.109375 48.1875 
Q 26.21875 48.1875 22.15625 43.53125 
Q 18.109375 38.875 18.109375 30.90625 
L 18.109375 0 
L 9.078125 0 
L 9.078125 54.6875 
L 18.109375 54.6875 
L 18.109375 46.1875 
Q 21.1875 51.21875 25.484375 53.609375 
Q 29.78125 56 35.6875 56 
Q 41.65625 56 45.828125 52.96875 
Q 50 49.953125 52 44.1875 
z
" id="DejaVuSans-109"/>
     <path d="M 18.109375 8.203125 
L 18.109375 -20.796875 
L 9.078125 -20.796875 
L 9.078125 54.6875 
L 18.109375 54.6875 
L 18.109375 46.390625 
Q 20.953125 51.265625 25.265625 53.625 
Q 29.59375 56 35.59375 56 
Q 45.5625 56 51.78125 48.09375 
Q 58.015625 40.1875 58.015625 27.296875 
Q 58.015625 14.40625 51.78125 6.484375 
Q 45.5625 -1.421875 35.59375 -1.421875 
Q 29.59375 -1.421875 25.265625 0.953125 
Q 20.953125 3.328125 18.109375 8.203125 
z
M 48.6875 27.296875 
Q 48.6875 37.203125 44.609375 42.84375 
Q 40.53125 48.484375 33.40625 48.484375 
Q 26.265625 48.484375 22.1875 42.84375 
Q 18.109375 37.203125 18.109375 27.296875 
Q 18.109375 17.390625 22.1875 11.75 
Q 26.265625 6.109375 33.40625 6.109375 
Q 40.53125 6.109375 44.609375 11.75 
Q 48.6875 17.390625 48.6875 27.296875 
z
" id="DejaVuSans-112"/>
     <path d="M 40.578125 39.3125 
Q 47.65625 37.796875 51.625 33 
Q 55.609375 28.21875 55.609375 21.1875 
Q 55.609375 10.40625 48.1875 4.484375 
Q 40.765625 -1.421875 27.09375 -1.421875 
Q 22.515625 -1.421875 17.65625 -0.515625 
Q 12.796875 0.390625 7.625 2.203125 
L 7.625 11.71875 
Q 11.71875 9.328125 16.59375 8.109375 
Q 21.484375 6.890625 26.8125 6.890625 
Q 36.078125 6.890625 40.9375 10.546875 
Q 45.796875 14.203125 45.796875 21.1875 
Q 45.796875 27.640625 41.28125 31.265625 
Q 36.765625 34.90625 28.71875 34.90625 
L 20.21875 34.90625 
L 20.21875 43.015625 
L 29.109375 43.015625 
Q 36.375 43.015625 40.234375 45.921875 
Q 44.09375 48.828125 44.09375 54.296875 
Q 44.09375 59.90625 40.109375 62.90625 
Q 36.140625 65.921875 28.71875 65.921875 
Q 24.65625 65.921875 20.015625 65.03125 
Q 15.375 64.15625 9.8125 62.3125 
L 9.8125 71.09375 
Q 15.4375 72.65625 20.34375 73.4375 
Q 25.25 74.21875 29.59375 74.21875 
Q 40.828125 74.21875 47.359375 69.109375 
Q 53.90625 64.015625 53.90625 55.328125 
Q 53.90625 49.265625 50.4375 45.09375 
Q 46.96875 40.921875 40.578125 39.3125 
z
" id="DejaVuSans-51"/>
     <path d="M 41.109375 46.296875 
Q 39.59375 47.171875 37.8125 47.578125 
Q 36.03125 48 33.890625 48 
Q 26.265625 48 22.1875 43.046875 
Q 18.109375 38.09375 18.109375 28.8125 
L 18.109375 0 
L 9.078125 0 
L 9.078125 54.6875 
L 18.109375 54.6875 
L 18.109375 46.1875 
Q 20.953125 51.171875 25.484375 53.578125 
Q 30.03125 56 36.53125 56 
Q 37.453125 56 38.578125 55.875 
Q 39.703125 55.765625 41.0625 55.515625 
z
" id="DejaVuSans-114"/>
     <path d="M 30.609375 48.390625 
Q 23.390625 48.390625 19.1875 42.75 
Q 14.984375 37.109375 14.984375 27.296875 
Q 14.984375 17.484375 19.15625 11.84375 
Q 23.34375 6.203125 30.609375 6.203125 
Q 37.796875 6.203125 41.984375 11.859375 
Q 46.1875 17.53125 46.1875 27.296875 
Q 46.1875 37.015625 41.984375 42.703125 
Q 37.796875 48.390625 30.609375 48.390625 
z
M 30.609375 56 
Q 42.328125 56 49.015625 48.375 
Q 55.71875 40.765625 55.71875 27.296875 
Q 55.71875 13.875 49.015625 6.21875 
Q 42.328125 -1.421875 30.609375 -1.421875 
Q 18.84375 -1.421875 12.171875 6.21875 
Q 5.515625 13.875 5.515625 27.296875 
Q 5.515625 40.765625 12.171875 48.375 
Q 18.84375 56 30.609375 56 
z
" id="DejaVuSans-111"/>
     <path d="M 31.78125 66.40625 
Q 24.171875 66.40625 20.328125 58.90625 
Q 16.5 51.421875 16.5 36.375 
Q 16.5 21.390625 20.328125 13.890625 
Q 24.171875 6.390625 31.78125 6.390625 
Q 39.453125 6.390625 43.28125 13.890625 
Q 47.125 21.390625 47.125 36.375 
Q 47.125 51.421875 43.28125 58.90625 
Q 39.453125 66.40625 31.78125 66.40625 
z
M 31.78125 74.21875 
Q 44.046875 74.21875 50.515625 64.515625 
Q 56.984375 54.828125 56.984375 36.375 
Q 56.984375 17.96875 50.515625 8.265625 
Q 44.046875 -1.421875 31.78125 -1.421875 
Q 19.53125 -1.421875 13.0625 8.265625 
Q 6.59375 17.96875 6.59375 36.375 
Q 6.59375 54.828125 13.0625 64.515625 
Q 19.53125 74.21875 31.78125 74.21875 
z
" id="DejaVuSans-48"/>
     <path d="M 10.6875 12.40625 
L 21 12.40625 
L 21 0 
L 10.6875 0 
z
" id="DejaVuSans-46"/>
     <path d="M 10.796875 72.90625 
L 49.515625 72.90625 
L 49.515625 64.59375 
L 19.828125 64.59375 
L 19.828125 46.734375 
Q 21.96875 47.46875 24.109375 47.828125 
Q 26.265625 48.1875 28.421875 48.1875 
Q 40.625 48.1875 47.75 41.5 
Q 54.890625 34.8125 54.890625 23.390625 
Q 54.890625 11.625 47.5625 5.09375 
Q 40.234375 -1.421875 26.90625 -1.421875 
Q 22.3125 -1.421875 17.546875 -0.640625 
Q 12.796875 0.140625 7.71875 1.703125 
L 7.71875 11.625 
Q 12.109375 9.234375 16.796875 8.0625 
Q 21.484375 6.890625 26.703125 6.890625 
Q 35.15625 6.890625 40.078125 11.328125 
Q 45.015625 15.765625 45.015625 23.390625 
Q 45.015625 31 40.078125 35.4375 
Q 35.15625 39.890625 26.703125 39.890625 
Q 22.75 39.890625 18.8125 39.015625 
Q 14.890625 38.140625 10.796875 36.28125 
z
" id="DejaVuSans-53"/>
    </defs>
    <use xlink:href="#DejaVuSans-76"/>
    <use x="55.712891" xlink:href="#DejaVuSans-54"/>
    <use x="119.335938" xlink:href="#DejaVuSans-32"/>
    <use x="151.123047" xlink:href="#DejaVuSans-73"/>
    <use x="180.615234" xlink:href="#DejaVuSans-84"/>
    <use x="241.699219" xlink:href="#DejaVuSans-32"/>
    <use x="273.486328" xlink:href="#DejaVuSans-99"/>
    <use x="328.466797" xlink:href="#DejaVuSans-101"/>
    <use x="389.990234" xlink:href="#DejaVuSans-108"/>
    <use x="417.773438" xlink:href="#DejaVuSans-108"/>
    <use x="445.556641" xlink:href="#DejaVuSans-32"/>
    <use x="477.34375" xlink:href="#DejaVuSans-104"/>
    <use x="540.722656" xlink:href="#DejaVuSans-97"/>
    <use x="602.001953" xlink:href="#DejaVuSans-115"/>
    <use x="654.101562" xlink:href="#DejaVuSans-32"/>
    <use x="685.888672" xlink:href="#DejaVuSans-84"/>
    <use x="743.847656" xlink:href="#DejaVuSans-105"/>
    <use x="771.630859" xlink:href="#DejaVuSans-109"/>
    <use x="869.042969" xlink:href="#DejaVuSans-112"/>
    <use x="932.519531" xlink:href="#DejaVuSans-51"/>
    <use x="996.142578" xlink:href="#DejaVuSans-32"/>
    <use x="1027.929688" xlink:href="#DejaVuSans-112"/>
    <use x="1091.40625" xlink:href="#DejaVuSans-101"/>
    <use x="1152.929688" xlink:href="#DejaVuSans-114"/>
    <use x="1194.042969" xlink:href="#DejaVuSans-105"/>
    <use x="1221.826172" xlink:href="#DejaVuSans-112"/>
    <use x="1285.302734" xlink:href="#DejaVuSans-104"/>
    <use x="1348.681641" xlink:href="#DejaVuSans-101"/>
    <use x="1410.205078" xlink:href="#DejaVuSans-114"/>
    <use x="1451.318359" xlink:href="#DejaVuSans-97"/>
    <use x="1512.597656" xlink:href="#DejaVuSans-108"/>
    <use x="1540.380859" xlink:href="#DejaVuSans-32"/>
    <use x="1572.167969" xlink:href="#DejaVuSans-115"/>
    <use x="1624.267578" xlink:href="#DejaVuSans-99"/>
    <use x="1679.248047" xlink:href="#DejaVuSans-111"/>
    <use x="1740.429688" xlink:href="#DejaVuSans-114"/>
    <use x="1779.292969" xlink:href="#DejaVuSans-101"/>
    <use x="1840.816406" xlink:href="#DejaVuSans-32"/>
    <use x="1872.603516" xlink:href="#DejaVuSans-48"/>
    <use x="1936.226562" xlink:href="#DejaVuSans-46"/>
    <use x="1968.013672" xlink:href="#DejaVuSans-54"/>
    <use x="2031.636719" xlink:href="#DejaVuSans-53"/>
   </g>
  </g>
  <g id="legend_1">
   <g id="patch_44">
    <path d="M 1369.975 22.678125 
L 1433 22.678125 
Q 1435 22.678125 1435 20.678125 
L 1435 7 
Q 1435 5 1433 5 
L 1369.975 5 
Q 1367.975 5 1367.975 7 
L 1367.975 20.678125 
Q 1367.975 22.678125 1369.975 22.678125 
z
" style="fill:#ffffff;opacity:0.8;stroke:#cccccc;stroke-linejoin:miter;"/>
   </g>
   <g id="patch_45">
    <path d="M 1371.975 16.598438 
L 1391.975 16.598438 
L 1391.975 9.598438 
L 1371.975 9.598438 
z
" style="fill:#ff0000;"/>
   </g>
   <g id="text_2">
    <!-- Timp3 -->
    <g transform="translate(1399.975 16.598438)scale(0.1 -0.1)">
     <use xlink:href="#DejaVuSans-84"/>
     <use x="57.958984" xlink:href="#DejaVuSans-105"/>
     <use x="85.742188" xlink:href="#DejaVuSans-109"/>
     <use x="183.154297" xlink:href="#DejaVuSans-112"/>
     <use x="246.630859" xlink:href="#DejaVuSans-51"/>
    </g>
   </g>
  </g>
 </g>
 <defs>
  <clipPath id="pd6146ec335">
   <rect height="271.8" width="279" x="180" y="86.4"/>
  </clipPath>
  <clipPath id="p0d6a1eac9c">
   <rect height="271.8" width="279" x="459" y="86.4"/>
  </clipPath>
  <clipPath id="p5f47a23d5f">
   <rect height="271.8" width="279" x="738" y="86.4"/>
  </clipPath>
  <clipPath id="p92a8eb32b4">
   <rect height="271.8" width="279" x="1017" y="86.4"/>
  </clipPath>
  <clipPath id="p89a456ac99">
   <rect height="271.8" width="279" x="180" y="358.2"/>
  </clipPath>
  <clipPath id="p3b4e7aa077">
   <rect height="271.8" width="279" x="459" y="358.2"/>
  </clipPath>
  <clipPath id="p1df35d9822">
   <rect height="271.8" width="279" x="738" y="358.2"/>
  </clipPath>
 </defs>
</svg>
