<?xml version="1.0" encoding="utf-8" standalone="no"?>
<!DOCTYPE svg PUBLIC "-//W3C//DTD SVG 1.1//EN"
  "http://www.w3.org/Graphics/SVG/1.1/DTD/svg11.dtd">
<!-- Created with matplotlib (https://matplotlib.org/) -->
<svg height="432pt" version="1.1" viewBox="0 0 432 432" width="432pt" xmlns="http://www.w3.org/2000/svg" xmlns:xlink="http://www.w3.org/1999/xlink">
 <metadata>
  <rdf:RDF xmlns:cc="http://creativecommons.org/ns#" xmlns:dc="http://purl.org/dc/elements/1.1/" xmlns:rdf="http://www.w3.org/1999/02/22-rdf-syntax-ns#">
   <cc:Work>
    <dc:type rdf:resource="http://purl.org/dc/dcmitype/StillImage"/>
    <dc:date>2022-03-23T21:24:10.998344</dc:date>
    <dc:format>image/svg+xml</dc:format>
    <dc:creator>
     <cc:Agent>
      <dc:title>Matplotlib v3.3.3, https://matplotlib.org/</dc:title>
     </cc:Agent>
    </dc:creator>
   </cc:Work>
  </rdf:RDF>
 </metadata>
 <defs>
  <style type="text/css">*{stroke-linecap:butt;stroke-linejoin:round;}</style>
 </defs>
 <g id="figure_1">
  <g id="patch_1">
   <path d="M 0 432 
L 432 432 
L 432 0 
L 0 0 
z
" style="fill:none;"/>
  </g>
  <g id="patch_2">
   <path d="M 58.32 378 
L 384.48 378 
L 384.48 51.84 
L 58.32 51.84 
z
" style="fill:#ffffff;"/>
  </g>
  <g id="pane3d_1">
   <g id="patch_3">
    <path d="M 82.947329 297.579397 
L 190.656013 207.295842 
L 189.158759 77.090817 
L 76.29566 159.453166 
" style="fill:#f2f2f2;opacity:0.5;stroke:#f2f2f2;stroke-linejoin:miter;"/>
   </g>
  </g>
  <g id="pane3d_2">
   <g id="patch_4">
    <path d="M 190.656013 207.295842 
L 363.49002 257.531864 
L 369.657857 122.842076 
L 189.158759 77.090817 
" style="fill:#e6e6e6;opacity:0.5;stroke:#e6e6e6;stroke-linejoin:miter;"/>
   </g>
  </g>
  <g id="pane3d_3">
   <g id="patch_5">
    <path d="M 82.947329 297.579397 
L 266.159818 357.416595 
L 363.49002 257.531864 
L 190.656013 207.295842 
" style="fill:#ececec;opacity:0.5;stroke:#ececec;stroke-linejoin:miter;"/>
   </g>
  </g>
  <g id="axis3d_1">
   <g id="line2d_1">
    <path d="M 82.947329 297.579397 
L 266.159818 357.416595 
" style="fill:none;stroke:#000000;stroke-linecap:square;stroke-width:0.8;"/>
   </g>
  </g>
  <g id="axis3d_2">
   <g id="line2d_2">
    <path d="M 363.49002 257.531864 
L 266.159818 357.416595 
" style="fill:none;stroke:#000000;stroke-linecap:square;stroke-width:0.8;"/>
   </g>
  </g>
  <g id="axis3d_3">
   <g id="line2d_3">
    <path d="M 363.49002 257.531864 
L 369.657857 122.842076 
" style="fill:none;stroke:#000000;stroke-linecap:square;stroke-width:0.8;"/>
   </g>
  </g>
  <g id="axes_1">
   <g id="line2d_4">
    <path clip-path="url(#peff9ea65a0)" d="M 277.368907 284.547765 
L 273.540451 286.636651 
L 268.735815 288.332459 
L 262.955734 289.631493 
L 258.761595 290.574097 
L 252.957826 291.878454 
L 247.789084 292.420839 
L 242.615239 292.96376 
L 238.092054 292.741694 
L 231.668274 291.71229 
L 227.152439 291.490729 
L 221.025912 291.629227 
L 216.788034 292.575269 
L 210.923719 293.884389 
L 206.934262 296.009185 
L 201.30028 298.506685 
L 196.586305 301.425945 
L 192.099582 305.555931 
L 190.340713 308.464378 
L 184.572294 306.620388 
L 178.355963 306.762726 
L 173.079891 307.319902 
L 167.798539 307.877636 
L 163.00775 306.449737 
L 157.294817 304.612394 
L 151.600702 302.781103 
L 145.92531 300.955833 
L 140.26855 299.136556 
L 134.630331 297.323241 
L 129.010561 295.51586 
L 125.835628 294.271774 
L 131.617861 291.793344 
L 136.650535 290.086815 
L 141.472617 287.226881 
L 146.269633 284.381814 
L 148.813167 280.848345 
L 153.357724 276.899374 
L 157.869417 272.978959 
L 162.348602 269.086792 
L 164.805302 265.651478 
L 167.246372 262.238021 
L 167.694614 259.270037 
L 168.140376 256.318479 
L 167.513856 253.15812 
L 167.957568 250.240244 
L 169.462981 247.561006 
L 169.899023 244.673806 
L 171.218125 241.172276 
L 172.702474 238.538728 
L 175.057566 235.295331 
L 175.473418 232.474789 
L 176.758936 229.053861 
L 177.16773 226.266941 
L 178.616299 223.707642 
L 179.018022 220.949362 
L 183.209694 217.422448 
L 187.372712 213.919645 
L 191.968906 212.446197 
L 196.551856 210.976994 
L 200.731036 211.167274 
L 205.783991 211.704329 
L 210.054262 213.038879 
L 214.538883 215.18439 
L 218.83526 216.528076 
L 223.090287 217.672249 
L 228.456077 219.233317 
L 234.453061 220.131374 
L 237.075419 221.740941 
L 240.600476 223.710478 
L 244.139051 225.687569 
L 244.741525 227.857177 
L 245.577685 230.868328 
L 246.186223 233.059774 
L 245.96205 235.883495 
L 246.80829 238.941588 
L 248.498679 241.387313 
L 252.113443 243.432842 
L 253.823559 245.899634 
L 254.458584 248.155063 
L 254.253927 251.061429 
L 254.048141 253.983844 
L 254.933222 257.149134 
L 255.577445 259.453051 
L 256.471685 262.651095 
L 258.223571 265.209053 
L 259.983853 267.779269 
L 263.71273 269.92915 
L 267.456549 272.087646 
L 271.2154 274.25481 
L 274.989375 276.430692 
L 277.659362 278.379422 
L 278.636888 281.692121 
L 277.368907 284.547765 
" style="fill:none;stroke:#808080;stroke-linecap:square;stroke-width:1.5;"/>
   </g>
   <g id="line2d_5">
    <path clip-path="url(#peff9ea65a0)" d="M 290.583805 269.028288 
L 286.468991 273.01648 
L 281.627205 274.711192 
L 277.404137 275.650984 
L 271.860675 275.029467 
L 266.323572 274.408663 
L 261.118008 274.946917 
L 255.258338 276.24572 
L 251.006342 277.188181 
L 245.122365 278.492372 
L 239.886551 279.034699 
L 235.012289 277.646243 
L 233.253865 274.964222 
L 232.634308 272.534476 
L 229.762967 269.63976 
L 224.277444 269.025121 
L 218.405906 270.309742 
L 214.145347 271.241901 
L 209.198265 272.931046 
L 203.55102 275.384296 
L 198.827568 278.251879 
L 194.33447 282.308841 
L 189.807665 286.396239 
L 187.780096 288.08562 
L 181.273724 287.039728 
L 175.964536 287.590629 
L 170.65 288.142084 
L 166.050277 287.916526 
L 160.288706 286.095972 
L 154.546257 284.28146 
L 148.822834 282.47296 
L 143.118343 280.670443 
L 137.432691 278.873878 
L 132.878813 277.32441 
L 137.427279 277.545626 
L 143.435369 276.243707 
L 148.296151 273.386709 
L 152.922602 269.395789 
L 155.471314 265.873912 
L 158.003407 262.374999 
L 161.447247 258.231982 
L 165.03917 255.013995 
L 169.526477 251.157369 
L 171.978767 247.753602 
L 174.415336 244.371654 
L 174.846921 241.431201 
L 173.290817 238.925022 
L 172.643917 235.791746 
L 172.177885 233.534511 
L 172.611227 230.654259 
L 173.042177 227.789902 
L 174.361574 224.316251 
L 175.850131 221.703796 
L 178.214629 218.486525 
L 178.62526 215.688836 
L 177.098453 213.304034 
L 176.456223 210.322111 
L 175.993498 208.173641 
L 177.278258 204.830181 
L 179.599713 201.717392 
L 182.949762 198.831226 
L 187.138989 195.371054 
L 191.531237 192.92411 
L 196.138051 191.475728 
L 200.33834 191.66331 
L 204.376163 191.987945 
L 206.976665 194.479812 
L 209.38964 196.185933 
L 212.013647 198.698805 
L 213.598965 201.015768 
L 217.093232 202.953483 
L 222.503418 204.507511 
L 227.659018 205.050659 
L 232.820156 205.59439 
L 238.268759 207.15656 
L 239.92841 209.512689 
L 241.595788 211.879787 
L 242.1995 214.043983 
L 241.963103 216.83267 
L 241.725411 219.636627 
L 241.486414 222.455979 
L 243.178738 224.883791 
L 247.899992 227.133786 
L 253.488386 228.763151 
L 254.127791 230.999717 
L 253.070133 234.518597 
L 251.761473 237.196606 
L 251.546402 240.11333 
L 252.433969 243.272661 
L 253.080039 245.572374 
L 254.838389 248.110538 
L 255.742758 251.318367 
L 257.51718 253.884341 
L 261.283844 256.030782 
L 266.723984 256.630666 
L 273.128794 257.619217 
L 277.960849 258.956859 
L 283.770235 260.688093 
L 287.614536 262.862172 
L 290.339225 264.809374 
L 290.229027 267.882569 
L 290.583805 269.028288 
" style="fill:none;stroke:#808080;stroke-linecap:square;stroke-width:1.5;"/>
   </g>
   <g id="line2d_6">
    <path clip-path="url(#peff9ea65a0)" d="M 294.56176 250.393733 
L 290.430546 254.342646 
L 286.544877 256.417645 
L 280.670413 257.704135 
L 275.422662 258.239106 
L 270.813705 258.020291 
L 265.559443 258.55558 
L 260.299898 259.091407 
L 255.035062 259.627773 
L 249.764929 260.164679 
L 243.825111 261.460254 
L 238.540272 261.999006 
L 233.922656 261.778644 
L 228.336953 261.157617 
L 226.578113 258.490704 
L 223.919032 256.517737 
L 220.365826 254.385331 
L 215.784799 254.168095 
L 210.795287 255.845631 
L 205.10019 258.282105 
L 201.032686 260.372547 
L 195.549641 263.993573 
L 193.075403 267.592246 
L 191.037305 269.26537 
L 185.188684 267.461781 
L 179.601764 266.834136 
L 174.257805 267.378321 
L 168.908428 267.923057 
L 163.328623 267.294874 
L 157.537022 265.497875 
L 151.764756 263.706875 
L 146.011731 261.921846 
L 141.403141 260.382372 
L 146.523863 258.6905 
L 151.418645 255.855373 
L 154.003895 252.334725 
L 157.517299 248.166439 
L 160.063866 244.696444 
L 162.593744 241.24919 
L 166.214315 238.054152 
L 168.708247 234.650219 
L 171.18599 231.26838 
L 173.647703 227.908421 
L 174.085443 224.987249 
L 174.520719 222.082514 
L 173.864421 218.972592 
L 174.297786 216.101559 
L 173.825382 213.873754 
L 174.256709 211.031136 
L 174.685642 208.2043 
L 176.007272 204.776274 
L 177.500393 202.198223 
L 176.847906 199.207105 
L 176.377823 197.052163 
L 175.73196 194.091416 
L 176.149751 191.357712 
L 177.622769 188.84748 
L 179.964276 185.755968 
L 184.213958 182.299945 
L 188.665792 179.856106 
L 193.095693 177.424307 
L 197.101401 176.627538 
L 202.228273 177.15417 
L 207.610924 178.667203 
L 209.193842 180.94919 
L 211.638357 182.651606 
L 214.298283 185.15914 
L 217.826093 187.083953 
L 223.28733 188.627684 
L 228.490945 189.167243 
L 233.98023 190.717453 
L 238.412486 192.06247 
L 240.089213 194.406954 
L 240.925607 197.36957 
L 240.683668 200.13633 
L 241.293587 202.304539 
L 242.140184 205.314122 
L 243.848056 207.721264 
L 245.564067 210.139878 
L 246.190662 212.351405 
L 245.959821 215.201407 
L 244.863901 218.700536 
L 244.627887 221.58619 
L 246.369276 224.071406 
L 248.987478 225.92576 
L 250.746803 228.432009 
L 253.633701 231.177132 
L 255.413316 233.708951 
L 257.201629 236.253144 
L 260.99891 238.381442 
L 266.812798 240.08868 
L 273.277799 241.070995 
L 277.813915 241.282902 
L 283.323885 241.881036 
L 289.19383 243.599728 
L 293.0836 245.758127 
L 294.985788 248.361626 
L 294.56176 250.393733 
" style="fill:none;stroke:#808080;stroke-linecap:square;stroke-width:1.5;"/>
   </g>
   <g id="line2d_7">
    <path clip-path="url(#peff9ea65a0)" d="M 293.357915 231.997208 
L 288.828252 234.776919 
L 284.911915 236.828102 
L 278.993816 238.099854 
L 274.699289 239.022713 
L 269.406624 239.552497 
L 264.108597 240.082817 
L 258.8052 240.613674 
L 252.833708 241.89467 
L 248.500403 242.824244 
L 243.175188 243.357885 
L 237.168885 244.645602 
L 231.828661 245.181096 
L 227.167021 244.962066 
L 221.241273 243.194236 
L 215.617554 242.57904 
L 209.306062 242.715335 
L 204.930772 243.646365 
L 199.140975 246.089169 
L 194.555336 250.108069 
L 189.623863 248.724272 
L 183.740259 246.94379 
L 178.118519 246.324196 
L 172.503382 245.705329 
L 167.124827 246.241902 
L 161.740789 246.779023 
L 155.914926 245.005089 
L 150.108638 243.237115 
L 144.321826 241.475072 
L 143.154178 239.821575 
L 149.038662 237.407719 
L 153.740348 233.484594 
L 158.406856 229.590821 
L 160.970574 226.154987 
L 163.517359 222.741847 
L 164.931764 219.123867 
L 167.448287 215.756932 
L 169.948355 212.412013 
L 172.43213 209.088893 
L 173.979824 206.421498 
L 174.418665 203.547603 
L 173.757769 200.470834 
L 173.281694 198.254494 
L 172.62769 195.209812 
L 173.065482 192.399043 
L 172.594722 190.218024 
L 173.030433 187.435136 
L 173.463719 184.667731 
L 175.86899 181.522691 
L 177.185338 178.18799 
L 178.674005 175.68011 
L 181.041185 172.591709 
L 185.339475 169.139447 
L 189.185348 167.345346 
L 193.910865 165.898701 
L 198.86687 165.440822 
L 204.068106 165.968922 
L 209.530813 167.486216 
L 215.010578 169.008247 
L 220.507481 170.535039 
L 226.021602 172.066613 
L 231.553022 173.602992 
L 235.164352 175.532134 
L 237.70435 177.259735 
L 238.540688 180.19621 
L 239.149434 182.333581 
L 240.854786 184.692447 
L 242.568287 187.062584 
L 244.289995 189.444073 
L 246.019969 191.836996 
L 246.893896 194.861197 
L 247.530048 197.062588 
L 246.430994 200.526463 
L 246.197575 203.383182 
L 246.837606 205.622211 
L 247.726135 208.730561 
L 249.498071 211.217092 
L 250.150443 213.491002 
L 251.936661 216.000916 
L 254.866299 218.750245 
L 258.692136 220.861233 
L 263.89568 220.350193 
L 270.06583 220.219641 
L 274.626562 220.428491 
L 280.165417 221.017997 
L 285.710628 221.608179 
L 289.610774 223.730955 
L 293.527045 225.862508 
L 294.288525 228.202352 
L 293.321543 231.884726 
L 293.357915 231.997208 
" style="fill:none;stroke:#808080;stroke-linecap:square;stroke-width:1.5;"/>
   </g>
   <g id="line2d_8">
    <path clip-path="url(#peff9ea65a0)" d="M 300.828489 206.7383 
L 296.311044 209.455126 
L 292.134333 213.299087 
L 288.202926 215.319083 
L 282.612305 217.693655 
L 278.292506 218.604503 
L 272.314433 219.865007 
L 267.976305 220.77972 
L 262.633779 221.304833 
L 256.620664 222.571984 
L 251.26301 223.09893 
L 246.892408 224.019415 
L 240.843963 225.293267 
L 235.464053 225.823002 
L 230.765369 225.606327 
L 224.392296 225.74177 
L 218.712695 225.130982 
L 214.020668 224.914597 
L 208.628977 225.443944 
L 203.503779 227.116681 
L 197.91635 230.697188 
L 192.941924 229.32818 
L 187.006803 227.56677 
L 180.369006 226.558585 
L 175.437435 225.200465 
L 170.02446 225.730105 
L 164.605929 226.260288 
L 158.958843 225.648887 
L 153.102285 223.899947 
L 147.265525 222.156918 
L 142.589934 220.653734 
L 146.830917 218.61263 
L 151.791914 215.846714 
L 157.456506 212.367748 
L 160.047969 208.956604 
L 161.492936 205.341059 
L 164.053192 201.976686 
L 166.596494 198.634592 
L 170.242738 195.537228 
L 171.632903 192.016365 
L 173.197258 189.369125 
L 175.678996 186.109866 
L 176.115659 183.276428 
L 175.44556 180.24308 
L 173.861624 177.843111 
L 172.285368 175.454778 
L 171.811973 173.2909 
L 173.16602 169.92424 
L 176.688864 167.000888 
L 180.64475 165.167086 
L 186.173656 163.029381 
L 190.766243 160.554676 
L 195.335465 158.092561 
L 200.131539 156.635439 
L 205.168261 156.17426 
L 210.200165 155.713522 
L 214.576846 155.901865 
L 220.520343 155.784114 
L 225.175279 156.965664 
L 230.765399 158.494775 
L 232.454042 160.801295 
L 235.017925 162.522233 
L 237.824079 165.057394 
L 239.541194 167.395401 
L 243.241537 169.351078 
L 244.979336 171.709802 
L 248.707049 173.682847 
L 249.350374 175.848457 
L 249.124884 178.639504 
L 246.901 181.849853 
L 246.667135 184.675124 
L 247.559984 187.735801 
L 249.341198 190.184268 
L 251.1312 192.644814 
L 252.930054 195.117529 
L 254.737826 197.602502 
L 255.41051 199.875124 
L 256.344471 203.030459 
L 261.924216 203.615371 
L 267.820386 202.394408 
L 272.081143 201.512102 
L 277.95282 200.296211 
L 282.195897 199.417566 
L 287.415033 198.914555 
L 292.628956 198.412047 
L 298.204091 198.991623 
L 302.631652 199.347402 
L 303.712971 202.499426 
L 300.456414 205.64001 
L 300.828489 206.7383 
" style="fill:none;stroke:#808080;stroke-linecap:square;stroke-width:1.5;"/>
   </g>
   <g id="line2d_9">
    <path clip-path="url(#peff9ea65a0)" d="M 312.325222 183.460081 
L 308.204373 187.210027 
L 303.672354 189.894877 
L 299.115802 192.594261 
L 295.172476 194.586281 
L 290.203912 196.20368 
L 285.219282 197.82631 
L 279.210329 199.069434 
L 273.843089 199.586392 
L 269.475437 200.489434 
L 264.095614 201.007852 
L 258.710253 201.526804 
L 253.319346 202.04629 
L 247.922885 202.566312 
L 242.520861 203.086869 
L 236.117471 203.220022 
L 230.70586 203.741254 
L 225.982626 203.528056 
L 220.271959 202.927232 
L 214.28304 201.208565 
L 208.314462 199.495736 
L 202.908517 200.013132 
L 199.43426 203.06871 
L 199.046509 206.097675 
L 197.698558 209.818203 
L 193.91475 208.929372 
L 187.935415 207.190241 
L 181.976509 205.457052 
L 176.281156 204.853933 
L 169.857823 204.987552 
L 164.402507 205.510609 
L 159.685015 205.296665 
L 153.785382 203.569934 
L 147.905835 201.849081 
L 146.715031 200.234317 
L 151.935697 198.60391 
L 157.656721 195.149197 
L 160.496489 192.859754 
L 164.058887 188.841337 
L 166.637724 185.496622 
L 168.247871 182.812372 
L 170.797175 179.507952 
L 173.32952 176.225512 
L 175.845076 172.964836 
L 179.696562 170.007395 
L 185.40696 167.789366 
L 189.457429 165.902373 
L 195.121839 163.702915 
L 200.07803 162.188499 
L 204.493047 158.624522 
L 208.875725 155.086651 
L 212.828709 153.248452 
L 218.642675 152.115881 
L 222.844237 151.297409 
L 228.920331 151.177586 
L 234.3432 151.718419 
L 239.122964 152.922148 
L 244.864994 154.480063 
L 249.502963 155.831932 
L 253.279992 157.79386 
L 253.063823 160.557097 
L 250.833785 163.735624 
L 249.724516 167.151099 
L 249.495967 169.968252 
L 251.298154 172.394827 
L 249.927756 175.022819 
L 247.653826 178.297222 
L 243.311052 182.008118 
L 238.935454 185.747061 
L 239.8293 188.898668 
L 245.472094 189.482918 
L 250.799927 188.976279 
L 255.795815 187.382073 
L 260.77574 185.792961 
L 265.739781 184.208918 
L 271.67651 183.002211 
L 276.609286 181.42705 
L 280.888132 180.55783 
L 285.794138 178.990429 
L 291.675384 177.796383 
L 295.925337 176.933531 
L 301.782095 175.744457 
L 306.391035 175.946095 
L 312.382715 177.579674 
L 313.191332 179.822483 
L 312.286585 183.352258 
L 312.325222 183.460081 
" style="fill:none;stroke:#808080;stroke-linecap:square;stroke-width:1.5;"/>
   </g>
   <g id="line2d_10">
    <path clip-path="url(#peff9ea65a0)" d="M 319.420169 162.615135 
L 315.299301 166.310286 
L 310.756735 168.956016 
L 306.189415 171.616163 
L 301.215834 173.203761 
L 296.226096 174.796517 
L 291.220122 176.394456 
L 285.832209 176.902297 
L 280.438729 177.410663 
L 275.69841 177.202728 
L 270.298048 177.711404 
L 264.550084 177.124805 
L 259.654207 175.672826 
L 257.773852 173.161371 
L 260.065095 169.829976 
L 263.751741 166.808869 
L 269.407979 164.54339 
L 274.388748 162.983689 
L 278.356452 161.062702 
L 283.945641 158.823838 
L 288.873953 157.282426 
L 293.155079 156.431835 
L 299.054713 155.259674 
L 304.317542 154.773915 
L 308.95576 154.972483 
L 314.600176 155.532973 
L 318.61891 157.549029 
L 319.447713 159.762214 
L 319.420169 162.615135 
" style="fill:none;stroke:#808080;stroke-linecap:square;stroke-width:1.5;"/>
   </g>
   <g id="Path3DCollection_1">
    <defs>
     <path d="M 0 5 
C 1.326016 5 2.597899 4.473168 3.535534 3.535534 
C 4.473168 2.597899 5 1.326016 5 -0 
C 5 -1.326016 4.473168 -2.597899 3.535534 -3.535534 
C 2.597899 -4.473168 1.326016 -5 0 -5 
C -1.326016 -5 -2.597899 -4.473168 -3.535534 -3.535534 
C -4.473168 -2.597899 -5 -1.326016 -5 0 
C -5 1.326016 -4.473168 2.597899 -3.535534 3.535534 
C -2.597899 4.473168 -1.326016 5 0 5 
z
" id="C0_0_a368795819"/>
    </defs>
    <g clip-path="url(#peff9ea65a0)">
     <use style="fill:#ff0000;fill-opacity:0.3;stroke:#ff0000;stroke-opacity:0.3;" x="175.343137" xlink:href="#C0_0_a368795819" y="191.768371"/>
    </g>
    <g clip-path="url(#peff9ea65a0)">
     <use style="fill:#ff0000;fill-opacity:0.680674;stroke:#ff0000;stroke-opacity:0.680674;" x="179.082132" xlink:href="#C0_0_a368795819" y="192.688196"/>
    </g>
    <g clip-path="url(#peff9ea65a0)">
     <use style="fill:#ff0000;fill-opacity:0.768749;stroke:#ff0000;stroke-opacity:0.768749;" x="178.681332" xlink:href="#C0_0_a368795819" y="172.071283"/>
    </g>
    <g clip-path="url(#peff9ea65a0)">
     <use style="fill:#ff0000;fill-opacity:0.874488;stroke:#ff0000;stroke-opacity:0.874488;" x="210.238601" xlink:href="#C0_0_a368795819" y="206.369331"/>
    </g>
    <g clip-path="url(#peff9ea65a0)">
     <use style="fill:#ff0000;fill-opacity:0.983691;stroke:#ff0000;stroke-opacity:0.983691;" x="215.517109" xlink:href="#C0_0_a368795819" y="186.839283"/>
    </g>
    <g clip-path="url(#peff9ea65a0)">
     <use style="fill:#ff0000;stroke:#ff0000;" x="204.085438" xlink:href="#C0_0_a368795819" y="187.959794"/>
    </g>
   </g>
   <g id="text_1">
    <!-- L6 IT cell has Timp3 peripheral score -0.06 -->
    <g transform="translate(93.520313 45.84)scale(0.12 -0.12)">
     <defs>
      <path d="M 9.8125 72.90625 
L 19.671875 72.90625 
L 19.671875 8.296875 
L 55.171875 8.296875 
L 55.171875 0 
L 9.8125 0 
z
" id="DejaVuSans-76"/>
      <path d="M 33.015625 40.375 
Q 26.375 40.375 22.484375 35.828125 
Q 18.609375 31.296875 18.609375 23.390625 
Q 18.609375 15.53125 22.484375 10.953125 
Q 26.375 6.390625 33.015625 6.390625 
Q 39.65625 6.390625 43.53125 10.953125 
Q 47.40625 15.53125 47.40625 23.390625 
Q 47.40625 31.296875 43.53125 35.828125 
Q 39.65625 40.375 33.015625 40.375 
z
M 52.59375 71.296875 
L 52.59375 62.3125 
Q 48.875 64.0625 45.09375 64.984375 
Q 41.3125 65.921875 37.59375 65.921875 
Q 27.828125 65.921875 22.671875 59.328125 
Q 17.53125 52.734375 16.796875 39.40625 
Q 19.671875 43.65625 24.015625 45.921875 
Q 28.375 48.1875 33.59375 48.1875 
Q 44.578125 48.1875 50.953125 41.515625 
Q 57.328125 34.859375 57.328125 23.390625 
Q 57.328125 12.15625 50.6875 5.359375 
Q 44.046875 -1.421875 33.015625 -1.421875 
Q 20.359375 -1.421875 13.671875 8.265625 
Q 6.984375 17.96875 6.984375 36.375 
Q 6.984375 53.65625 15.1875 63.9375 
Q 23.390625 74.21875 37.203125 74.21875 
Q 40.921875 74.21875 44.703125 73.484375 
Q 48.484375 72.75 52.59375 71.296875 
z
" id="DejaVuSans-54"/>
      <path id="DejaVuSans-32"/>
      <path d="M 9.8125 72.90625 
L 19.671875 72.90625 
L 19.671875 0 
L 9.8125 0 
z
" id="DejaVuSans-73"/>
      <path d="M -0.296875 72.90625 
L 61.375 72.90625 
L 61.375 64.59375 
L 35.5 64.59375 
L 35.5 0 
L 25.59375 0 
L 25.59375 64.59375 
L -0.296875 64.59375 
z
" id="DejaVuSans-84"/>
      <path d="M 48.78125 52.59375 
L 48.78125 44.1875 
Q 44.96875 46.296875 41.140625 47.34375 
Q 37.3125 48.390625 33.40625 48.390625 
Q 24.65625 48.390625 19.8125 42.84375 
Q 14.984375 37.3125 14.984375 27.296875 
Q 14.984375 17.28125 19.8125 11.734375 
Q 24.65625 6.203125 33.40625 6.203125 
Q 37.3125 6.203125 41.140625 7.25 
Q 44.96875 8.296875 48.78125 10.40625 
L 48.78125 2.09375 
Q 45.015625 0.34375 40.984375 -0.53125 
Q 36.96875 -1.421875 32.421875 -1.421875 
Q 20.0625 -1.421875 12.78125 6.34375 
Q 5.515625 14.109375 5.515625 27.296875 
Q 5.515625 40.671875 12.859375 48.328125 
Q 20.21875 56 33.015625 56 
Q 37.15625 56 41.109375 55.140625 
Q 45.0625 54.296875 48.78125 52.59375 
z
" id="DejaVuSans-99"/>
      <path d="M 56.203125 29.59375 
L 56.203125 25.203125 
L 14.890625 25.203125 
Q 15.484375 15.921875 20.484375 11.0625 
Q 25.484375 6.203125 34.421875 6.203125 
Q 39.59375 6.203125 44.453125 7.46875 
Q 49.3125 8.734375 54.109375 11.28125 
L 54.109375 2.78125 
Q 49.265625 0.734375 44.1875 -0.34375 
Q 39.109375 -1.421875 33.890625 -1.421875 
Q 20.796875 -1.421875 13.15625 6.1875 
Q 5.515625 13.8125 5.515625 26.8125 
Q 5.515625 40.234375 12.765625 48.109375 
Q 20.015625 56 32.328125 56 
Q 43.359375 56 49.78125 48.890625 
Q 56.203125 41.796875 56.203125 29.59375 
z
M 47.21875 32.234375 
Q 47.125 39.59375 43.09375 43.984375 
Q 39.0625 48.390625 32.421875 48.390625 
Q 24.90625 48.390625 20.390625 44.140625 
Q 15.875 39.890625 15.1875 32.171875 
z
" id="DejaVuSans-101"/>
      <path d="M 9.421875 75.984375 
L 18.40625 75.984375 
L 18.40625 0 
L 9.421875 0 
z
" id="DejaVuSans-108"/>
      <path d="M 54.890625 33.015625 
L 54.890625 0 
L 45.90625 0 
L 45.90625 32.71875 
Q 45.90625 40.484375 42.875 44.328125 
Q 39.84375 48.1875 33.796875 48.1875 
Q 26.515625 48.1875 22.3125 43.546875 
Q 18.109375 38.921875 18.109375 30.90625 
L 18.109375 0 
L 9.078125 0 
L 9.078125 75.984375 
L 18.109375 75.984375 
L 18.109375 46.1875 
Q 21.34375 51.125 25.703125 53.5625 
Q 30.078125 56 35.796875 56 
Q 45.21875 56 50.046875 50.171875 
Q 54.890625 44.34375 54.890625 33.015625 
z
" id="DejaVuSans-104"/>
      <path d="M 34.28125 27.484375 
Q 23.390625 27.484375 19.1875 25 
Q 14.984375 22.515625 14.984375 16.5 
Q 14.984375 11.71875 18.140625 8.90625 
Q 21.296875 6.109375 26.703125 6.109375 
Q 34.1875 6.109375 38.703125 11.40625 
Q 43.21875 16.703125 43.21875 25.484375 
L 43.21875 27.484375 
z
M 52.203125 31.203125 
L 52.203125 0 
L 43.21875 0 
L 43.21875 8.296875 
Q 40.140625 3.328125 35.546875 0.953125 
Q 30.953125 -1.421875 24.3125 -1.421875 
Q 15.921875 -1.421875 10.953125 3.296875 
Q 6 8.015625 6 15.921875 
Q 6 25.140625 12.171875 29.828125 
Q 18.359375 34.515625 30.609375 34.515625 
L 43.21875 34.515625 
L 43.21875 35.40625 
Q 43.21875 41.609375 39.140625 45 
Q 35.0625 48.390625 27.6875 48.390625 
Q 23 48.390625 18.546875 47.265625 
Q 14.109375 46.140625 10.015625 43.890625 
L 10.015625 52.203125 
Q 14.9375 54.109375 19.578125 55.046875 
Q 24.21875 56 28.609375 56 
Q 40.484375 56 46.34375 49.84375 
Q 52.203125 43.703125 52.203125 31.203125 
z
" id="DejaVuSans-97"/>
      <path d="M 44.28125 53.078125 
L 44.28125 44.578125 
Q 40.484375 46.53125 36.375 47.5 
Q 32.28125 48.484375 27.875 48.484375 
Q 21.1875 48.484375 17.84375 46.4375 
Q 14.5 44.390625 14.5 40.28125 
Q 14.5 37.15625 16.890625 35.375 
Q 19.28125 33.59375 26.515625 31.984375 
L 29.59375 31.296875 
Q 39.15625 29.25 43.1875 25.515625 
Q 47.21875 21.78125 47.21875 15.09375 
Q 47.21875 7.46875 41.1875 3.015625 
Q 35.15625 -1.421875 24.609375 -1.421875 
Q 20.21875 -1.421875 15.453125 -0.5625 
Q 10.6875 0.296875 5.421875 2 
L 5.421875 11.28125 
Q 10.40625 8.6875 15.234375 7.390625 
Q 20.0625 6.109375 24.8125 6.109375 
Q 31.15625 6.109375 34.5625 8.28125 
Q 37.984375 10.453125 37.984375 14.40625 
Q 37.984375 18.0625 35.515625 20.015625 
Q 33.0625 21.96875 24.703125 23.78125 
L 21.578125 24.515625 
Q 13.234375 26.265625 9.515625 29.90625 
Q 5.8125 33.546875 5.8125 39.890625 
Q 5.8125 47.609375 11.28125 51.796875 
Q 16.75 56 26.8125 56 
Q 31.78125 56 36.171875 55.265625 
Q 40.578125 54.546875 44.28125 53.078125 
z
" id="DejaVuSans-115"/>
      <path d="M 9.421875 54.6875 
L 18.40625 54.6875 
L 18.40625 0 
L 9.421875 0 
z
M 9.421875 75.984375 
L 18.40625 75.984375 
L 18.40625 64.59375 
L 9.421875 64.59375 
z
" id="DejaVuSans-105"/>
      <path d="M 52 44.1875 
Q 55.375 50.25 60.0625 53.125 
Q 64.75 56 71.09375 56 
Q 79.640625 56 84.28125 50.015625 
Q 88.921875 44.046875 88.921875 33.015625 
L 88.921875 0 
L 79.890625 0 
L 79.890625 32.71875 
Q 79.890625 40.578125 77.09375 44.375 
Q 74.3125 48.1875 68.609375 48.1875 
Q 61.625 48.1875 57.5625 43.546875 
Q 53.515625 38.921875 53.515625 30.90625 
L 53.515625 0 
L 44.484375 0 
L 44.484375 32.71875 
Q 44.484375 40.625 41.703125 44.40625 
Q 38.921875 48.1875 33.109375 48.1875 
Q 26.21875 48.1875 22.15625 43.53125 
Q 18.109375 38.875 18.109375 30.90625 
L 18.109375 0 
L 9.078125 0 
L 9.078125 54.6875 
L 18.109375 54.6875 
L 18.109375 46.1875 
Q 21.1875 51.21875 25.484375 53.609375 
Q 29.78125 56 35.6875 56 
Q 41.65625 56 45.828125 52.96875 
Q 50 49.953125 52 44.1875 
z
" id="DejaVuSans-109"/>
      <path d="M 18.109375 8.203125 
L 18.109375 -20.796875 
L 9.078125 -20.796875 
L 9.078125 54.6875 
L 18.109375 54.6875 
L 18.109375 46.390625 
Q 20.953125 51.265625 25.265625 53.625 
Q 29.59375 56 35.59375 56 
Q 45.5625 56 51.78125 48.09375 
Q 58.015625 40.1875 58.015625 27.296875 
Q 58.015625 14.40625 51.78125 6.484375 
Q 45.5625 -1.421875 35.59375 -1.421875 
Q 29.59375 -1.421875 25.265625 0.953125 
Q 20.953125 3.328125 18.109375 8.203125 
z
M 48.6875 27.296875 
Q 48.6875 37.203125 44.609375 42.84375 
Q 40.53125 48.484375 33.40625 48.484375 
Q 26.265625 48.484375 22.1875 42.84375 
Q 18.109375 37.203125 18.109375 27.296875 
Q 18.109375 17.390625 22.1875 11.75 
Q 26.265625 6.109375 33.40625 6.109375 
Q 40.53125 6.109375 44.609375 11.75 
Q 48.6875 17.390625 48.6875 27.296875 
z
" id="DejaVuSans-112"/>
      <path d="M 40.578125 39.3125 
Q 47.65625 37.796875 51.625 33 
Q 55.609375 28.21875 55.609375 21.1875 
Q 55.609375 10.40625 48.1875 4.484375 
Q 40.765625 -1.421875 27.09375 -1.421875 
Q 22.515625 -1.421875 17.65625 -0.515625 
Q 12.796875 0.390625 7.625 2.203125 
L 7.625 11.71875 
Q 11.71875 9.328125 16.59375 8.109375 
Q 21.484375 6.890625 26.8125 6.890625 
Q 36.078125 6.890625 40.9375 10.546875 
Q 45.796875 14.203125 45.796875 21.1875 
Q 45.796875 27.640625 41.28125 31.265625 
Q 36.765625 34.90625 28.71875 34.90625 
L 20.21875 34.90625 
L 20.21875 43.015625 
L 29.109375 43.015625 
Q 36.375 43.015625 40.234375 45.921875 
Q 44.09375 48.828125 44.09375 54.296875 
Q 44.09375 59.90625 40.109375 62.90625 
Q 36.140625 65.921875 28.71875 65.921875 
Q 24.65625 65.921875 20.015625 65.03125 
Q 15.375 64.15625 9.8125 62.3125 
L 9.8125 71.09375 
Q 15.4375 72.65625 20.34375 73.4375 
Q 25.25 74.21875 29.59375 74.21875 
Q 40.828125 74.21875 47.359375 69.109375 
Q 53.90625 64.015625 53.90625 55.328125 
Q 53.90625 49.265625 50.4375 45.09375 
Q 46.96875 40.921875 40.578125 39.3125 
z
" id="DejaVuSans-51"/>
      <path d="M 41.109375 46.296875 
Q 39.59375 47.171875 37.8125 47.578125 
Q 36.03125 48 33.890625 48 
Q 26.265625 48 22.1875 43.046875 
Q 18.109375 38.09375 18.109375 28.8125 
L 18.109375 0 
L 9.078125 0 
L 9.078125 54.6875 
L 18.109375 54.6875 
L 18.109375 46.1875 
Q 20.953125 51.171875 25.484375 53.578125 
Q 30.03125 56 36.53125 56 
Q 37.453125 56 38.578125 55.875 
Q 39.703125 55.765625 41.0625 55.515625 
z
" id="DejaVuSans-114"/>
      <path d="M 30.609375 48.390625 
Q 23.390625 48.390625 19.1875 42.75 
Q 14.984375 37.109375 14.984375 27.296875 
Q 14.984375 17.484375 19.15625 11.84375 
Q 23.34375 6.203125 30.609375 6.203125 
Q 37.796875 6.203125 41.984375 11.859375 
Q 46.1875 17.53125 46.1875 27.296875 
Q 46.1875 37.015625 41.984375 42.703125 
Q 37.796875 48.390625 30.609375 48.390625 
z
M 30.609375 56 
Q 42.328125 56 49.015625 48.375 
Q 55.71875 40.765625 55.71875 27.296875 
Q 55.71875 13.875 49.015625 6.21875 
Q 42.328125 -1.421875 30.609375 -1.421875 
Q 18.84375 -1.421875 12.171875 6.21875 
Q 5.515625 13.875 5.515625 27.296875 
Q 5.515625 40.765625 12.171875 48.375 
Q 18.84375 56 30.609375 56 
z
" id="DejaVuSans-111"/>
      <path d="M 4.890625 31.390625 
L 31.203125 31.390625 
L 31.203125 23.390625 
L 4.890625 23.390625 
z
" id="DejaVuSans-45"/>
      <path d="M 31.78125 66.40625 
Q 24.171875 66.40625 20.328125 58.90625 
Q 16.5 51.421875 16.5 36.375 
Q 16.5 21.390625 20.328125 13.890625 
Q 24.171875 6.390625 31.78125 6.390625 
Q 39.453125 6.390625 43.28125 13.890625 
Q 47.125 21.390625 47.125 36.375 
Q 47.125 51.421875 43.28125 58.90625 
Q 39.453125 66.40625 31.78125 66.40625 
z
M 31.78125 74.21875 
Q 44.046875 74.21875 50.515625 64.515625 
Q 56.984375 54.828125 56.984375 36.375 
Q 56.984375 17.96875 50.515625 8.265625 
Q 44.046875 -1.421875 31.78125 -1.421875 
Q 19.53125 -1.421875 13.0625 8.265625 
Q 6.59375 17.96875 6.59375 36.375 
Q 6.59375 54.828125 13.0625 64.515625 
Q 19.53125 74.21875 31.78125 74.21875 
z
" id="DejaVuSans-48"/>
      <path d="M 10.6875 12.40625 
L 21 12.40625 
L 21 0 
L 10.6875 0 
z
" id="DejaVuSans-46"/>
     </defs>
     <use xlink:href="#DejaVuSans-76"/>
     <use x="55.712891" xlink:href="#DejaVuSans-54"/>
     <use x="119.335938" xlink:href="#DejaVuSans-32"/>
     <use x="151.123047" xlink:href="#DejaVuSans-73"/>
     <use x="180.615234" xlink:href="#DejaVuSans-84"/>
     <use x="241.699219" xlink:href="#DejaVuSans-32"/>
     <use x="273.486328" xlink:href="#DejaVuSans-99"/>
     <use x="328.466797" xlink:href="#DejaVuSans-101"/>
     <use x="389.990234" xlink:href="#DejaVuSans-108"/>
     <use x="417.773438" xlink:href="#DejaVuSans-108"/>
     <use x="445.556641" xlink:href="#DejaVuSans-32"/>
     <use x="477.34375" xlink:href="#DejaVuSans-104"/>
     <use x="540.722656" xlink:href="#DejaVuSans-97"/>
     <use x="602.001953" xlink:href="#DejaVuSans-115"/>
     <use x="654.101562" xlink:href="#DejaVuSans-32"/>
     <use x="685.888672" xlink:href="#DejaVuSans-84"/>
     <use x="743.847656" xlink:href="#DejaVuSans-105"/>
     <use x="771.630859" xlink:href="#DejaVuSans-109"/>
     <use x="869.042969" xlink:href="#DejaVuSans-112"/>
     <use x="932.519531" xlink:href="#DejaVuSans-51"/>
     <use x="996.142578" xlink:href="#DejaVuSans-32"/>
     <use x="1027.929688" xlink:href="#DejaVuSans-112"/>
     <use x="1091.40625" xlink:href="#DejaVuSans-101"/>
     <use x="1152.929688" xlink:href="#DejaVuSans-114"/>
     <use x="1194.042969" xlink:href="#DejaVuSans-105"/>
     <use x="1221.826172" xlink:href="#DejaVuSans-112"/>
     <use x="1285.302734" xlink:href="#DejaVuSans-104"/>
     <use x="1348.681641" xlink:href="#DejaVuSans-101"/>
     <use x="1410.205078" xlink:href="#DejaVuSans-114"/>
     <use x="1451.318359" xlink:href="#DejaVuSans-97"/>
     <use x="1512.597656" xlink:href="#DejaVuSans-108"/>
     <use x="1540.380859" xlink:href="#DejaVuSans-32"/>
     <use x="1572.167969" xlink:href="#DejaVuSans-115"/>
     <use x="1624.267578" xlink:href="#DejaVuSans-99"/>
     <use x="1679.248047" xlink:href="#DejaVuSans-111"/>
     <use x="1740.429688" xlink:href="#DejaVuSans-114"/>
     <use x="1779.292969" xlink:href="#DejaVuSans-101"/>
     <use x="1840.816406" xlink:href="#DejaVuSans-32"/>
     <use x="1872.603516" xlink:href="#DejaVuSans-45"/>
     <use x="1908.6875" xlink:href="#DejaVuSans-48"/>
     <use x="1972.310547" xlink:href="#DejaVuSans-46"/>
     <use x="2004.097656" xlink:href="#DejaVuSans-48"/>
     <use x="2067.720703" xlink:href="#DejaVuSans-54"/>
    </g>
   </g>
   <g id="Path3DCollection_2">
    <defs>
     <path d="M 0 3 
C 0.795609 3 1.55874 2.683901 2.12132 2.12132 
C 2.683901 1.55874 3 0.795609 3 -0 
C 3 -0.795609 2.683901 -1.55874 2.12132 -2.12132 
C 1.55874 -2.683901 0.795609 -3 0 -3 
C -0.795609 -3 -1.55874 -2.683901 -2.12132 -2.12132 
C -2.683901 -1.55874 -3 -0.795609 -3 0 
C -3 0.795609 -2.683901 1.55874 -2.12132 2.12132 
C -1.55874 2.683901 -0.795609 3 0 3 
z
" id="C1_0_9369b61c74"/>
    </defs>
    <g clip-path="url(#peff9ea65a0)">
     <use style="fill:#808080;fill-opacity:0.3;stroke:#808080;stroke-opacity:0.3;" x="195.426228" xlink:href="#C1_0_9369b61c74" y="196.001259"/>
    </g>
    <g clip-path="url(#peff9ea65a0)">
     <use style="fill:#808080;fill-opacity:0.304576;stroke:#808080;stroke-opacity:0.304576;" x="197.668353" xlink:href="#C1_0_9369b61c74" y="221.536375"/>
    </g>
    <g clip-path="url(#peff9ea65a0)">
     <use style="fill:#808080;fill-opacity:0.360742;stroke:#808080;stroke-opacity:0.360742;" x="199.068518" xlink:href="#C1_0_9369b61c74" y="205.852675"/>
    </g>
    <g clip-path="url(#peff9ea65a0)">
     <use style="fill:#808080;fill-opacity:0.36206;stroke:#808080;stroke-opacity:0.36206;" x="183.915824" xlink:href="#C1_0_9369b61c74" y="206.066465"/>
    </g>
    <g clip-path="url(#peff9ea65a0)">
     <use style="fill:#808080;fill-opacity:0.382231;stroke:#808080;stroke-opacity:0.382231;" x="194.302349" xlink:href="#C1_0_9369b61c74" y="184.234058"/>
    </g>
    <g clip-path="url(#peff9ea65a0)">
     <use style="fill:#808080;fill-opacity:0.389323;stroke:#808080;stroke-opacity:0.389323;" x="204.819884" xlink:href="#C1_0_9369b61c74" y="185.355778"/>
    </g>
    <g clip-path="url(#peff9ea65a0)">
     <use style="fill:#808080;fill-opacity:0.392463;stroke:#808080;stroke-opacity:0.392463;" x="236.476197" xlink:href="#C1_0_9369b61c74" y="210.9974"/>
    </g>
    <g clip-path="url(#peff9ea65a0)">
     <use style="fill:#808080;fill-opacity:0.403334;stroke:#808080;stroke-opacity:0.403334;" x="214.000455" xlink:href="#C1_0_9369b61c74" y="187.57212"/>
    </g>
    <g clip-path="url(#peff9ea65a0)">
     <use style="fill:#808080;fill-opacity:0.423779;stroke:#808080;stroke-opacity:0.423779;" x="183.52369" xlink:href="#C1_0_9369b61c74" y="190.806068"/>
    </g>
    <g clip-path="url(#peff9ea65a0)">
     <use style="fill:#808080;fill-opacity:0.427639;stroke:#808080;stroke-opacity:0.427639;" x="197.792452" xlink:href="#C1_0_9369b61c74" y="191.416659"/>
    </g>
    <g clip-path="url(#peff9ea65a0)">
     <use style="fill:#808080;fill-opacity:0.434433;stroke:#808080;stroke-opacity:0.434433;" x="202.915223" xlink:href="#C1_0_9369b61c74" y="192.491353"/>
    </g>
    <g clip-path="url(#peff9ea65a0)">
     <use style="fill:#808080;fill-opacity:0.435229;stroke:#808080;stroke-opacity:0.435229;" x="226.655132" xlink:href="#C1_0_9369b61c74" y="192.617187"/>
    </g>
    <g clip-path="url(#peff9ea65a0)">
     <use style="fill:#808080;fill-opacity:0.440875;stroke:#808080;stroke-opacity:0.440875;" x="220.527151" xlink:href="#C1_0_9369b61c74" y="193.510294"/>
    </g>
    <g clip-path="url(#peff9ea65a0)">
     <use style="fill:#808080;fill-opacity:0.442117;stroke:#808080;stroke-opacity:0.442117;" x="179.898716" xlink:href="#C1_0_9369b61c74" y="193.706763"/>
    </g>
    <g clip-path="url(#peff9ea65a0)">
     <use style="fill:#808080;fill-opacity:0.444593;stroke:#808080;stroke-opacity:0.444593;" x="205.326865" xlink:href="#C1_0_9369b61c74" y="168.744843"/>
    </g>
    <g clip-path="url(#peff9ea65a0)">
     <use style="fill:#808080;fill-opacity:0.449161;stroke:#808080;stroke-opacity:0.449161;" x="234.71183" xlink:href="#C1_0_9369b61c74" y="194.82099"/>
    </g>
    <g clip-path="url(#peff9ea65a0)">
     <use style="fill:#808080;fill-opacity:0.451025;stroke:#808080;stroke-opacity:0.451025;" x="204.060997" xlink:href="#C1_0_9369b61c74" y="195.115839"/>
    </g>
    <g clip-path="url(#peff9ea65a0)">
     <use style="fill:#808080;fill-opacity:0.457693;stroke:#808080;stroke-opacity:0.457693;" x="210.145458" xlink:href="#C1_0_9369b61c74" y="196.170577"/>
    </g>
    <g clip-path="url(#peff9ea65a0)">
     <use style="fill:#808080;fill-opacity:0.462366;stroke:#808080;stroke-opacity:0.462366;" x="228.405643" xlink:href="#C1_0_9369b61c74" y="222.334594"/>
    </g>
    <g clip-path="url(#peff9ea65a0)">
     <use style="fill:#808080;fill-opacity:0.465726;stroke:#808080;stroke-opacity:0.465726;" x="180.121886" xlink:href="#C1_0_9369b61c74" y="222.879528"/>
    </g>
    <g clip-path="url(#peff9ea65a0)">
     <use style="fill:#808080;fill-opacity:0.482221;stroke:#808080;stroke-opacity:0.482221;" x="196.4726" xlink:href="#C1_0_9369b61c74" y="174.546132"/>
    </g>
    <g clip-path="url(#peff9ea65a0)">
     <use style="fill:#808080;fill-opacity:0.493265;stroke:#808080;stroke-opacity:0.493265;" x="195.945943" xlink:href="#C1_0_9369b61c74" y="201.797494"/>
    </g>
    <g clip-path="url(#peff9ea65a0)">
     <use style="fill:#808080;fill-opacity:0.493519;stroke:#808080;stroke-opacity:0.493519;" x="192.895442" xlink:href="#C1_0_9369b61c74" y="227.387186"/>
    </g>
    <g clip-path="url(#peff9ea65a0)">
     <use style="fill:#808080;fill-opacity:0.496456;stroke:#808080;stroke-opacity:0.496456;" x="191.325585" xlink:href="#C1_0_9369b61c74" y="202.302188"/>
    </g>
    <g clip-path="url(#peff9ea65a0)">
     <use style="fill:#808080;fill-opacity:0.499111;stroke:#808080;stroke-opacity:0.499111;" x="185.864664" xlink:href="#C1_0_9369b61c74" y="228.294236"/>
    </g>
    <g clip-path="url(#peff9ea65a0)">
     <use style="fill:#808080;fill-opacity:0.500628;stroke:#808080;stroke-opacity:0.500628;" x="188.315585" xlink:href="#C1_0_9369b61c74" y="177.384033"/>
    </g>
    <g clip-path="url(#peff9ea65a0)">
     <use style="fill:#808080;fill-opacity:0.501874;stroke:#808080;stroke-opacity:0.501874;" x="224.80233" xlink:href="#C1_0_9369b61c74" y="203.159168"/>
    </g>
    <g clip-path="url(#peff9ea65a0)">
     <use style="fill:#808080;fill-opacity:0.502229;stroke:#808080;stroke-opacity:0.502229;" x="202.807292" xlink:href="#C1_0_9369b61c74" y="228.799906"/>
    </g>
    <g clip-path="url(#peff9ea65a0)">
     <use style="fill:#808080;fill-opacity:0.502431;stroke:#808080;stroke-opacity:0.502431;" x="202.826092" xlink:href="#C1_0_9369b61c74" y="177.662039"/>
    </g>
    <g clip-path="url(#peff9ea65a0)">
     <use style="fill:#808080;fill-opacity:0.504725;stroke:#808080;stroke-opacity:0.504725;" x="234.927362" xlink:href="#C1_0_9369b61c74" y="229.204653"/>
    </g>
    <g clip-path="url(#peff9ea65a0)">
     <use style="fill:#808080;fill-opacity:0.505641;stroke:#808080;stroke-opacity:0.505641;" x="226.477132" xlink:href="#C1_0_9369b61c74" y="229.353225"/>
    </g>
    <g clip-path="url(#peff9ea65a0)">
     <use style="fill:#808080;fill-opacity:0.506896;stroke:#808080;stroke-opacity:0.506896;" x="194.725603" xlink:href="#C1_0_9369b61c74" y="178.350505"/>
    </g>
    <g clip-path="url(#peff9ea65a0)">
     <use style="fill:#808080;fill-opacity:0.510176;stroke:#808080;stroke-opacity:0.510176;" x="232.170703" xlink:href="#C1_0_9369b61c74" y="204.472419"/>
    </g>
    <g clip-path="url(#peff9ea65a0)">
     <use style="fill:#808080;fill-opacity:0.511227;stroke:#808080;stroke-opacity:0.511227;" x="226.892026" xlink:href="#C1_0_9369b61c74" y="179.018142"/>
    </g>
    <g clip-path="url(#peff9ea65a0)">
     <use style="fill:#808080;fill-opacity:0.515252;stroke:#808080;stroke-opacity:0.515252;" x="208.071908" xlink:href="#C1_0_9369b61c74" y="230.912083"/>
    </g>
    <g clip-path="url(#peff9ea65a0)">
     <use style="fill:#808080;fill-opacity:0.516993;stroke:#808080;stroke-opacity:0.516993;" x="188.888748" xlink:href="#C1_0_9369b61c74" y="205.550731"/>
    </g>
    <g clip-path="url(#peff9ea65a0)">
     <use style="fill:#808080;fill-opacity:0.536165;stroke:#808080;stroke-opacity:0.536165;" x="190.741247" xlink:href="#C1_0_9369b61c74" y="208.58347"/>
    </g>
    <g clip-path="url(#peff9ea65a0)">
     <use style="fill:#808080;fill-opacity:0.540208;stroke:#808080;stroke-opacity:0.540208;" x="197.523238" xlink:href="#C1_0_9369b61c74" y="209.222909"/>
    </g>
    <g clip-path="url(#peff9ea65a0)">
     <use style="fill:#808080;fill-opacity:0.545384;stroke:#808080;stroke-opacity:0.545384;" x="196.861035" xlink:href="#C1_0_9369b61c74" y="261.556223"/>
    </g>
    <g clip-path="url(#peff9ea65a0)">
     <use style="fill:#808080;fill-opacity:0.546724;stroke:#808080;stroke-opacity:0.546724;" x="222.069194" xlink:href="#C1_0_9369b61c74" y="210.253593"/>
    </g>
    <g clip-path="url(#peff9ea65a0)">
     <use style="fill:#808080;fill-opacity:0.547837;stroke:#808080;stroke-opacity:0.547837;" x="214.12223" xlink:href="#C1_0_9369b61c74" y="184.662637"/>
    </g>
    <g clip-path="url(#peff9ea65a0)">
     <use style="fill:#808080;fill-opacity:0.554794;stroke:#808080;stroke-opacity:0.554794;" x="195.287629" xlink:href="#C1_0_9369b61c74" y="159.940167"/>
    </g>
    <g clip-path="url(#peff9ea65a0)">
     <use style="fill:#808080;fill-opacity:0.562008;stroke:#808080;stroke-opacity:0.562008;" x="190.368027" xlink:href="#C1_0_9369b61c74" y="212.67126"/>
    </g>
    <g clip-path="url(#peff9ea65a0)">
     <use style="fill:#808080;fill-opacity:0.566719;stroke:#808080;stroke-opacity:0.566719;" x="215.865504" xlink:href="#C1_0_9369b61c74" y="161.730958"/>
    </g>
    <g clip-path="url(#peff9ea65a0)">
     <use style="fill:#808080;fill-opacity:0.584825;stroke:#808080;stroke-opacity:0.584825;" x="173.666002" xlink:href="#C1_0_9369b61c74" y="190.365304"/>
    </g>
    <g clip-path="url(#peff9ea65a0)">
     <use style="fill:#808080;fill-opacity:0.586933;stroke:#808080;stroke-opacity:0.586933;" x="226.495357" xlink:href="#C1_0_9369b61c74" y="164.766517"/>
    </g>
    <g clip-path="url(#peff9ea65a0)">
     <use style="fill:#808080;fill-opacity:0.587632;stroke:#808080;stroke-opacity:0.587632;" x="213.310074" xlink:href="#C1_0_9369b61c74" y="216.724481"/>
    </g>
    <g clip-path="url(#peff9ea65a0)">
     <use style="fill:#808080;fill-opacity:0.590717;stroke:#808080;stroke-opacity:0.590717;" x="203.204561" xlink:href="#C1_0_9369b61c74" y="191.2736"/>
    </g>
    <g clip-path="url(#peff9ea65a0)">
     <use style="fill:#808080;fill-opacity:0.5912;stroke:#808080;stroke-opacity:0.5912;" x="187.891269" xlink:href="#C1_0_9369b61c74" y="191.348064"/>
    </g>
    <g clip-path="url(#peff9ea65a0)">
     <use style="fill:#808080;fill-opacity:0.59585;stroke:#808080;stroke-opacity:0.59585;" x="197.429441" xlink:href="#C1_0_9369b61c74" y="166.105698"/>
    </g>
    <g clip-path="url(#peff9ea65a0)">
     <use style="fill:#808080;fill-opacity:0.608087;stroke:#808080;stroke-opacity:0.608087;" x="228.950285" xlink:href="#C1_0_9369b61c74" y="219.960068"/>
    </g>
    <g clip-path="url(#peff9ea65a0)">
     <use style="fill:#808080;fill-opacity:0.608194;stroke:#808080;stroke-opacity:0.608194;" x="180.998027" xlink:href="#C1_0_9369b61c74" y="219.977093"/>
    </g>
    <g clip-path="url(#peff9ea65a0)">
     <use style="fill:#808080;fill-opacity:0.610451;stroke:#808080;stroke-opacity:0.610451;" x="245.921151" xlink:href="#C1_0_9369b61c74" y="246.35187"/>
    </g>
    <g clip-path="url(#peff9ea65a0)">
     <use style="fill:#808080;fill-opacity:0.617258;stroke:#808080;stroke-opacity:0.617258;" x="195.317929" xlink:href="#C1_0_9369b61c74" y="195.365697"/>
    </g>
    <g clip-path="url(#peff9ea65a0)">
     <use style="fill:#808080;fill-opacity:0.618729;stroke:#808080;stroke-opacity:0.618729;" x="185.804296" xlink:href="#C1_0_9369b61c74" y="221.643468"/>
    </g>
    <g clip-path="url(#peff9ea65a0)">
     <use style="fill:#808080;fill-opacity:0.620219;stroke:#808080;stroke-opacity:0.620219;" x="241.987786" xlink:href="#C1_0_9369b61c74" y="247.936101"/>
    </g>
    <g clip-path="url(#peff9ea65a0)">
     <use style="fill:#808080;fill-opacity:0.629012;stroke:#808080;stroke-opacity:0.629012;" x="238.608882" xlink:href="#C1_0_9369b61c74" y="249.362169"/>
    </g>
    <g clip-path="url(#peff9ea65a0)">
     <use style="fill:#808080;fill-opacity:0.629238;stroke:#808080;stroke-opacity:0.629238;" x="228.976746" xlink:href="#C1_0_9369b61c74" y="249.398893"/>
    </g>
    <g clip-path="url(#peff9ea65a0)">
     <use style="fill:#808080;fill-opacity:0.630021;stroke:#808080;stroke-opacity:0.630021;" x="246.036234" xlink:href="#C1_0_9369b61c74" y="249.525901"/>
    </g>
    <g clip-path="url(#peff9ea65a0)">
     <use style="fill:#808080;fill-opacity:0.631743;stroke:#808080;stroke-opacity:0.631743;" x="224.137786" xlink:href="#C1_0_9369b61c74" y="249.80521"/>
    </g>
    <g clip-path="url(#peff9ea65a0)">
     <use style="fill:#808080;fill-opacity:0.633741;stroke:#808080;stroke-opacity:0.633741;" x="237.770626" xlink:href="#C1_0_9369b61c74" y="250.129192"/>
    </g>
    <g clip-path="url(#peff9ea65a0)">
     <use style="fill:#808080;fill-opacity:0.641153;stroke:#808080;stroke-opacity:0.641153;" x="198.044161" xlink:href="#C1_0_9369b61c74" y="225.190497"/>
    </g>
    <g clip-path="url(#peff9ea65a0)">
     <use style="fill:#808080;fill-opacity:0.642867;stroke:#808080;stroke-opacity:0.642867;" x="176.979234" xlink:href="#C1_0_9369b61c74" y="173.166217"/>
    </g>
    <g clip-path="url(#peff9ea65a0)">
     <use style="fill:#808080;fill-opacity:0.643097;stroke:#808080;stroke-opacity:0.643097;" x="216.872164" xlink:href="#C1_0_9369b61c74" y="199.349359"/>
    </g>
    <g clip-path="url(#peff9ea65a0)">
     <use style="fill:#808080;fill-opacity:0.651363;stroke:#808080;stroke-opacity:0.651363;" x="228.113197" xlink:href="#C1_0_9369b61c74" y="174.442151"/>
    </g>
    <g clip-path="url(#peff9ea65a0)">
     <use style="fill:#808080;fill-opacity:0.65776;stroke:#808080;stroke-opacity:0.65776;" x="237.864852" xlink:href="#C1_0_9369b61c74" y="201.610163"/>
    </g>
    <g clip-path="url(#peff9ea65a0)">
     <use style="fill:#808080;fill-opacity:0.663894;stroke:#808080;stroke-opacity:0.663894;" x="202.937464" xlink:href="#C1_0_9369b61c74" y="255.019603"/>
    </g>
    <g clip-path="url(#peff9ea65a0)">
     <use style="fill:#808080;fill-opacity:0.66708;stroke:#808080;stroke-opacity:0.66708;" x="196.642929" xlink:href="#C1_0_9369b61c74" y="229.291631"/>
    </g>
    <g clip-path="url(#peff9ea65a0)">
     <use style="fill:#808080;fill-opacity:0.669638;stroke:#808080;stroke-opacity:0.669638;" x="249.680279" xlink:href="#C1_0_9369b61c74" y="229.696229"/>
    </g>
    <g clip-path="url(#peff9ea65a0)">
     <use style="fill:#808080;fill-opacity:0.671699;stroke:#808080;stroke-opacity:0.671699;" x="182.599989" xlink:href="#C1_0_9369b61c74" y="203.759118"/>
    </g>
    <g clip-path="url(#peff9ea65a0)">
     <use style="fill:#808080;fill-opacity:0.672145;stroke:#808080;stroke-opacity:0.672145;" x="218.370898" xlink:href="#C1_0_9369b61c74" y="230.092815"/>
    </g>
    <g clip-path="url(#peff9ea65a0)">
     <use style="fill:#808080;fill-opacity:0.676825;stroke:#808080;stroke-opacity:0.676825;" x="193.759478" xlink:href="#C1_0_9369b61c74" y="230.833107"/>
    </g>
    <g clip-path="url(#peff9ea65a0)">
     <use style="fill:#808080;fill-opacity:0.67973;stroke:#808080;stroke-opacity:0.67973;" x="168.931182" xlink:href="#C1_0_9369b61c74" y="257.587947"/>
    </g>
    <g clip-path="url(#peff9ea65a0)">
     <use style="fill:#808080;fill-opacity:0.689311;stroke:#808080;stroke-opacity:0.689311;" x="224.046251" xlink:href="#C1_0_9369b61c74" y="232.808254"/>
    </g>
    <g clip-path="url(#peff9ea65a0)">
     <use style="fill:#808080;fill-opacity:0.698417;stroke:#808080;stroke-opacity:0.698417;" x="235.042287" xlink:href="#C1_0_9369b61c74" y="260.618663"/>
    </g>
    <g clip-path="url(#peff9ea65a0)">
     <use style="fill:#808080;fill-opacity:0.701436;stroke:#808080;stroke-opacity:0.701436;" x="232.85374" xlink:href="#C1_0_9369b61c74" y="155.579436"/>
    </g>
    <g clip-path="url(#peff9ea65a0)">
     <use style="fill:#808080;fill-opacity:0.702151;stroke:#808080;stroke-opacity:0.702151;" x="231.261116" xlink:href="#C1_0_9369b61c74" y="234.839269"/>
    </g>
    <g clip-path="url(#peff9ea65a0)">
     <use style="fill:#808080;fill-opacity:0.703615;stroke:#808080;stroke-opacity:0.703615;" x="186.86169" xlink:href="#C1_0_9369b61c74" y="261.461775"/>
    </g>
    <g clip-path="url(#peff9ea65a0)">
     <use style="fill:#808080;fill-opacity:0.704514;stroke:#808080;stroke-opacity:0.704514;" x="219.488921" xlink:href="#C1_0_9369b61c74" y="261.607613"/>
    </g>
    <g clip-path="url(#peff9ea65a0)">
     <use style="fill:#808080;fill-opacity:0.705189;stroke:#808080;stroke-opacity:0.705189;" x="195.958644" xlink:href="#C1_0_9369b61c74" y="288.114346"/>
    </g>
    <g clip-path="url(#peff9ea65a0)">
     <use style="fill:#808080;fill-opacity:0.705406;stroke:#808080;stroke-opacity:0.705406;" x="216.193645" xlink:href="#C1_0_9369b61c74" y="235.354076"/>
    </g>
    <g clip-path="url(#peff9ea65a0)">
     <use style="fill:#808080;fill-opacity:0.710776;stroke:#808080;stroke-opacity:0.710776;" x="207.715359" xlink:href="#C1_0_9369b61c74" y="236.203603"/>
    </g>
    <g clip-path="url(#peff9ea65a0)">
     <use style="fill:#808080;fill-opacity:0.712971;stroke:#808080;stroke-opacity:0.712971;" x="189.08655" xlink:href="#C1_0_9369b61c74" y="210.122309"/>
    </g>
    <g clip-path="url(#peff9ea65a0)">
     <use style="fill:#808080;fill-opacity:0.716303;stroke:#808080;stroke-opacity:0.716303;" x="219.50277" xlink:href="#C1_0_9369b61c74" y="157.752523"/>
    </g>
    <g clip-path="url(#peff9ea65a0)">
     <use style="fill:#808080;fill-opacity:0.717158;stroke:#808080;stroke-opacity:0.717158;" x="171.889329" xlink:href="#C1_0_9369b61c74" y="237.21301"/>
    </g>
    <g clip-path="url(#peff9ea65a0)">
     <use style="fill:#808080;fill-opacity:0.717542;stroke:#808080;stroke-opacity:0.717542;" x="186.530543" xlink:href="#C1_0_9369b61c74" y="263.720525"/>
    </g>
    <g clip-path="url(#peff9ea65a0)">
     <use style="fill:#808080;fill-opacity:0.717912;stroke:#808080;stroke-opacity:0.717912;" x="199.221105" xlink:href="#C1_0_9369b61c74" y="237.332261"/>
    </g>
    <g clip-path="url(#peff9ea65a0)">
     <use style="fill:#808080;fill-opacity:0.722581;stroke:#808080;stroke-opacity:0.722581;" x="174.664192" xlink:href="#C1_0_9369b61c74" y="238.070824"/>
    </g>
    <g clip-path="url(#peff9ea65a0)">
     <use style="fill:#808080;fill-opacity:0.723004;stroke:#808080;stroke-opacity:0.723004;" x="255.713346" xlink:href="#C1_0_9369b61c74" y="291.075008"/>
    </g>
    <g clip-path="url(#peff9ea65a0)">
     <use style="fill:#808080;fill-opacity:0.723691;stroke:#808080;stroke-opacity:0.723691;" x="173.43169" xlink:href="#C1_0_9369b61c74" y="264.71786"/>
    </g>
    <g clip-path="url(#peff9ea65a0)">
     <use style="fill:#808080;fill-opacity:0.724327;stroke:#808080;stroke-opacity:0.724327;" x="221.232461" xlink:href="#C1_0_9369b61c74" y="291.294817"/>
    </g>
    <g clip-path="url(#peff9ea65a0)">
     <use style="fill:#808080;fill-opacity:0.727201;stroke:#808080;stroke-opacity:0.727201;" x="198.548237" xlink:href="#C1_0_9369b61c74" y="265.287127"/>
    </g>
    <g clip-path="url(#peff9ea65a0)">
     <use style="fill:#808080;fill-opacity:0.727656;stroke:#808080;stroke-opacity:0.727656;" x="238.650941" xlink:href="#C1_0_9369b61c74" y="238.873686"/>
    </g>
    <g clip-path="url(#peff9ea65a0)">
     <use style="fill:#808080;fill-opacity:0.731235;stroke:#808080;stroke-opacity:0.731235;" x="189.466678" xlink:href="#C1_0_9369b61c74" y="239.439757"/>
    </g>
    <g clip-path="url(#peff9ea65a0)">
     <use style="fill:#808080;fill-opacity:0.73258;stroke:#808080;stroke-opacity:0.73258;" x="215.572007" xlink:href="#C1_0_9369b61c74" y="292.666372"/>
    </g>
    <g clip-path="url(#peff9ea65a0)">
     <use style="fill:#808080;fill-opacity:0.738657;stroke:#808080;stroke-opacity:0.738657;" x="229.488856" xlink:href="#C1_0_9369b61c74" y="267.145074"/>
    </g>
    <g clip-path="url(#peff9ea65a0)">
     <use style="fill:#808080;fill-opacity:0.738852;stroke:#808080;stroke-opacity:0.738852;" x="169.614709" xlink:href="#C1_0_9369b61c74" y="240.644672"/>
    </g>
    <g clip-path="url(#peff9ea65a0)">
     <use style="fill:#808080;fill-opacity:0.739989;stroke:#808080;stroke-opacity:0.739989;" x="226.346418" xlink:href="#C1_0_9369b61c74" y="240.824408"/>
    </g>
    <g clip-path="url(#peff9ea65a0)">
     <use style="fill:#808080;fill-opacity:0.741496;stroke:#808080;stroke-opacity:0.741496;" x="173.376149" xlink:href="#C1_0_9369b61c74" y="267.60557"/>
    </g>
    <g clip-path="url(#peff9ea65a0)">
     <use style="fill:#808080;fill-opacity:0.741764;stroke:#808080;stroke-opacity:0.741764;" x="262.995021" xlink:href="#C1_0_9369b61c74" y="241.105219"/>
    </g>
    <g clip-path="url(#peff9ea65a0)">
     <use style="fill:#808080;fill-opacity:0.743538;stroke:#808080;stroke-opacity:0.743538;" x="269.390985" xlink:href="#C1_0_9369b61c74" y="267.936688"/>
    </g>
    <g clip-path="url(#peff9ea65a0)">
     <use style="fill:#808080;fill-opacity:0.744182;stroke:#808080;stroke-opacity:0.744182;" x="172.783136" xlink:href="#C1_0_9369b61c74" y="214.934243"/>
    </g>
    <g clip-path="url(#peff9ea65a0)">
     <use style="fill:#808080;fill-opacity:0.745915;stroke:#808080;stroke-opacity:0.745915;" x="223.129002" xlink:href="#C1_0_9369b61c74" y="241.761906"/>
    </g>
    <g clip-path="url(#peff9ea65a0)">
     <use style="fill:#808080;fill-opacity:0.747389;stroke:#808080;stroke-opacity:0.747389;" x="187.940838" xlink:href="#C1_0_9369b61c74" y="268.56127"/>
    </g>
    <g clip-path="url(#peff9ea65a0)">
     <use style="fill:#808080;fill-opacity:0.747657;stroke:#808080;stroke-opacity:0.747657;" x="219.691847" xlink:href="#C1_0_9369b61c74" y="268.604644"/>
    </g>
    <g clip-path="url(#peff9ea65a0)">
     <use style="fill:#808080;fill-opacity:0.748661;stroke:#808080;stroke-opacity:0.748661;" x="281.699158" xlink:href="#C1_0_9369b61c74" y="268.767517"/>
    </g>
    <g clip-path="url(#peff9ea65a0)">
     <use style="fill:#808080;fill-opacity:0.752703;stroke:#808080;stroke-opacity:0.752703;" x="246.175935" xlink:href="#C1_0_9369b61c74" y="269.423089"/>
    </g>
    <g clip-path="url(#peff9ea65a0)">
     <use style="fill:#808080;fill-opacity:0.760611;stroke:#808080;stroke-opacity:0.760611;" x="196.245233" xlink:href="#C1_0_9369b61c74" y="270.705705"/>
    </g>
    <g clip-path="url(#peff9ea65a0)">
     <use style="fill:#808080;fill-opacity:0.760726;stroke:#808080;stroke-opacity:0.760726;" x="200.82697" xlink:href="#C1_0_9369b61c74" y="244.104683"/>
    </g>
    <g clip-path="url(#peff9ea65a0)">
     <use style="fill:#808080;fill-opacity:0.767148;stroke:#808080;stroke-opacity:0.767148;" x="278.837447" xlink:href="#C1_0_9369b61c74" y="271.765838"/>
    </g>
    <g clip-path="url(#peff9ea65a0)">
     <use style="fill:#808080;fill-opacity:0.770551;stroke:#808080;stroke-opacity:0.770551;" x="199.241271" xlink:href="#C1_0_9369b61c74" y="192.340811"/>
    </g>
    <g clip-path="url(#peff9ea65a0)">
     <use style="fill:#808080;fill-opacity:0.772431;stroke:#808080;stroke-opacity:0.772431;" x="174.595727" xlink:href="#C1_0_9369b61c74" y="272.622783"/>
    </g>
    <g clip-path="url(#peff9ea65a0)">
     <use style="fill:#808080;fill-opacity:0.772499;stroke:#808080;stroke-opacity:0.772499;" x="204.181033" xlink:href="#C1_0_9369b61c74" y="219.300178"/>
    </g>
    <g clip-path="url(#peff9ea65a0)">
     <use style="fill:#808080;fill-opacity:0.772935;stroke:#808080;stroke-opacity:0.772935;" x="228.848185" xlink:href="#C1_0_9369b61c74" y="192.69876"/>
    </g>
    <g clip-path="url(#peff9ea65a0)">
     <use style="fill:#808080;fill-opacity:0.773472;stroke:#808080;stroke-opacity:0.773472;" x="242.355126" xlink:href="#C1_0_9369b61c74" y="272.791558"/>
    </g>
    <g clip-path="url(#peff9ea65a0)">
     <use style="fill:#808080;fill-opacity:0.774351;stroke:#808080;stroke-opacity:0.774351;" x="190.013957" xlink:href="#C1_0_9369b61c74" y="219.585671"/>
    </g>
    <g clip-path="url(#peff9ea65a0)">
     <use style="fill:#808080;fill-opacity:0.776699;stroke:#808080;stroke-opacity:0.776699;" x="172.747241" xlink:href="#C1_0_9369b61c74" y="246.631324"/>
    </g>
    <g clip-path="url(#peff9ea65a0)">
     <use style="fill:#808080;fill-opacity:0.778456;stroke:#808080;stroke-opacity:0.778456;" x="198.249189" xlink:href="#C1_0_9369b61c74" y="246.909154"/>
    </g>
    <g clip-path="url(#peff9ea65a0)">
     <use style="fill:#808080;fill-opacity:0.778969;stroke:#808080;stroke-opacity:0.778969;" x="190.721156" xlink:href="#C1_0_9369b61c74" y="246.990427"/>
    </g>
    <g clip-path="url(#peff9ea65a0)">
     <use style="fill:#808080;fill-opacity:0.780269;stroke:#808080;stroke-opacity:0.780269;" x="261.941624" xlink:href="#C1_0_9369b61c74" y="273.893868"/>
    </g>
    <g clip-path="url(#peff9ea65a0)">
     <use style="fill:#808080;fill-opacity:0.783638;stroke:#808080;stroke-opacity:0.783638;" x="172.585696" xlink:href="#C1_0_9369b61c74" y="274.440307"/>
    </g>
    <g clip-path="url(#peff9ea65a0)">
     <use style="fill:#808080;fill-opacity:0.788033;stroke:#808080;stroke-opacity:0.788033;" x="174.16014" xlink:href="#C1_0_9369b61c74" y="248.424144"/>
    </g>
    <g clip-path="url(#peff9ea65a0)">
     <use style="fill:#808080;fill-opacity:0.789256;stroke:#808080;stroke-opacity:0.789256;" x="216.944345" xlink:href="#C1_0_9369b61c74" y="248.617593"/>
    </g>
    <g clip-path="url(#peff9ea65a0)">
     <use style="fill:#808080;fill-opacity:0.791369;stroke:#808080;stroke-opacity:0.791369;" x="249.879128" xlink:href="#C1_0_9369b61c74" y="275.694182"/>
    </g>
    <g clip-path="url(#peff9ea65a0)">
     <use style="fill:#808080;fill-opacity:0.797683;stroke:#808080;stroke-opacity:0.797683;" x="274.362075" xlink:href="#C1_0_9369b61c74" y="249.950515"/>
    </g>
    <g clip-path="url(#peff9ea65a0)">
     <use style="fill:#808080;fill-opacity:0.798667;stroke:#808080;stroke-opacity:0.798667;" x="169.351537" xlink:href="#C1_0_9369b61c74" y="250.106203"/>
    </g>
    <g clip-path="url(#peff9ea65a0)">
     <use style="fill:#808080;fill-opacity:0.798901;stroke:#808080;stroke-opacity:0.798901;" x="176.86562" xlink:href="#C1_0_9369b61c74" y="223.370654"/>
    </g>
    <g clip-path="url(#peff9ea65a0)">
     <use style="fill:#808080;fill-opacity:0.800843;stroke:#808080;stroke-opacity:0.800843;" x="165.348942" xlink:href="#C1_0_9369b61c74" y="277.230745"/>
    </g>
    <g clip-path="url(#peff9ea65a0)">
     <use style="fill:#808080;fill-opacity:0.801183;stroke:#808080;stroke-opacity:0.801183;" x="227.628368" xlink:href="#C1_0_9369b61c74" y="250.504216"/>
    </g>
    <g clip-path="url(#peff9ea65a0)">
     <use style="fill:#808080;fill-opacity:0.803494;stroke:#808080;stroke-opacity:0.803494;" x="182.460428" xlink:href="#C1_0_9369b61c74" y="197.287953"/>
    </g>
    <g clip-path="url(#peff9ea65a0)">
     <use style="fill:#808080;fill-opacity:0.803814;stroke:#808080;stroke-opacity:0.803814;" x="166.833925" xlink:href="#C1_0_9369b61c74" y="277.712647"/>
    </g>
    <g clip-path="url(#peff9ea65a0)">
     <use style="fill:#808080;fill-opacity:0.804269;stroke:#808080;stroke-opacity:0.804269;" x="171.32022" xlink:href="#C1_0_9369b61c74" y="277.786386"/>
    </g>
    <g clip-path="url(#peff9ea65a0)">
     <use style="fill:#808080;fill-opacity:0.805085;stroke:#808080;stroke-opacity:0.805085;" x="200.573069" xlink:href="#C1_0_9369b61c74" y="251.121339"/>
    </g>
    <g clip-path="url(#peff9ea65a0)">
     <use style="fill:#808080;fill-opacity:0.805537;stroke:#808080;stroke-opacity:0.805537;" x="265.175635" xlink:href="#C1_0_9369b61c74" y="251.1929"/>
    </g>
    <g clip-path="url(#peff9ea65a0)">
     <use style="fill:#808080;fill-opacity:0.806764;stroke:#808080;stroke-opacity:0.806764;" x="233.331972" xlink:href="#C1_0_9369b61c74" y="170.975012"/>
    </g>
    <g clip-path="url(#peff9ea65a0)">
     <use style="fill:#808080;fill-opacity:0.808415;stroke:#808080;stroke-opacity:0.808415;" x="186.070471" xlink:href="#C1_0_9369b61c74" y="251.648232"/>
    </g>
    <g clip-path="url(#peff9ea65a0)">
     <use style="fill:#808080;fill-opacity:0.811348;stroke:#808080;stroke-opacity:0.811348;" x="176.50734" xlink:href="#C1_0_9369b61c74" y="278.934492"/>
    </g>
    <g clip-path="url(#peff9ea65a0)">
     <use style="fill:#808080;fill-opacity:0.811599;stroke:#808080;stroke-opacity:0.811599;" x="288.559062" xlink:href="#C1_0_9369b61c74" y="225.328491"/>
    </g>
    <g clip-path="url(#peff9ea65a0)">
     <use style="fill:#808080;fill-opacity:0.811857;stroke:#808080;stroke-opacity:0.811857;" x="192.828069" xlink:href="#C1_0_9369b61c74" y="279.017012"/>
    </g>
    <g clip-path="url(#peff9ea65a0)">
     <use style="fill:#808080;fill-opacity:0.815971;stroke:#808080;stroke-opacity:0.815971;" x="175.602622" xlink:href="#C1_0_9369b61c74" y="226.002505"/>
    </g>
    <g clip-path="url(#peff9ea65a0)">
     <use style="fill:#808080;fill-opacity:0.817032;stroke:#808080;stroke-opacity:0.817032;" x="254.891572" xlink:href="#C1_0_9369b61c74" y="253.011173"/>
    </g>
    <g clip-path="url(#peff9ea65a0)">
     <use style="fill:#808080;fill-opacity:0.819573;stroke:#808080;stroke-opacity:0.819573;" x="184.280787" xlink:href="#C1_0_9369b61c74" y="280.268472"/>
    </g>
    <g clip-path="url(#peff9ea65a0)">
     <use style="fill:#808080;fill-opacity:0.823118;stroke:#808080;stroke-opacity:0.823118;" x="287.550626" xlink:href="#C1_0_9369b61c74" y="253.973964"/>
    </g>
    <g clip-path="url(#peff9ea65a0)">
     <use style="fill:#808080;fill-opacity:0.825056;stroke:#808080;stroke-opacity:0.825056;" x="241.657822" xlink:href="#C1_0_9369b61c74" y="254.280397"/>
    </g>
    <g clip-path="url(#peff9ea65a0)">
     <use style="fill:#808080;fill-opacity:0.82704;stroke:#808080;stroke-opacity:0.82704;" x="178.925037" xlink:href="#C1_0_9369b61c74" y="254.594249"/>
    </g>
    <g clip-path="url(#peff9ea65a0)">
     <use style="fill:#808080;fill-opacity:0.827802;stroke:#808080;stroke-opacity:0.827802;" x="272.976815" xlink:href="#C1_0_9369b61c74" y="227.826612"/>
    </g>
    <g clip-path="url(#peff9ea65a0)">
     <use style="fill:#808080;fill-opacity:0.832564;stroke:#808080;stroke-opacity:0.832564;" x="198.282806" xlink:href="#C1_0_9369b61c74" y="255.468095"/>
    </g>
    <g clip-path="url(#peff9ea65a0)">
     <use style="fill:#808080;fill-opacity:0.835839;stroke:#808080;stroke-opacity:0.835839;" x="190.7138" xlink:href="#C1_0_9369b61c74" y="282.906546"/>
    </g>
    <g clip-path="url(#peff9ea65a0)">
     <use style="fill:#808080;fill-opacity:0.842575;stroke:#808080;stroke-opacity:0.842575;" x="205.091698" xlink:href="#C1_0_9369b61c74" y="203.156765"/>
    </g>
    <g clip-path="url(#peff9ea65a0)">
     <use style="fill:#808080;fill-opacity:0.84357;stroke:#808080;stroke-opacity:0.84357;" x="178.295682" xlink:href="#C1_0_9369b61c74" y="176.354842"/>
    </g>
    <g clip-path="url(#peff9ea65a0)">
     <use style="fill:#808080;fill-opacity:0.846449;stroke:#808080;stroke-opacity:0.846449;" x="166.885427" xlink:href="#C1_0_9369b61c74" y="257.664473"/>
    </g>
    <g clip-path="url(#peff9ea65a0)">
     <use style="fill:#808080;fill-opacity:0.846564;stroke:#808080;stroke-opacity:0.846564;" x="255.948525" xlink:href="#C1_0_9369b61c74" y="257.682538"/>
    </g>
    <g clip-path="url(#peff9ea65a0)">
     <use style="fill:#808080;fill-opacity:0.847123;stroke:#808080;stroke-opacity:0.847123;" x="190.371668" xlink:href="#C1_0_9369b61c74" y="230.805402"/>
    </g>
    <g clip-path="url(#peff9ea65a0)">
     <use style="fill:#808080;fill-opacity:0.847987;stroke:#808080;stroke-opacity:0.847987;" x="236.200907" xlink:href="#C1_0_9369b61c74" y="230.938561"/>
    </g>
    <g clip-path="url(#peff9ea65a0)">
     <use style="fill:#808080;fill-opacity:0.849148;stroke:#808080;stroke-opacity:0.849148;" x="193.904975" xlink:href="#C1_0_9369b61c74" y="258.0914"/>
    </g>
    <g clip-path="url(#peff9ea65a0)">
     <use style="fill:#808080;fill-opacity:0.852366;stroke:#808080;stroke-opacity:0.852366;" x="179.549851" xlink:href="#C1_0_9369b61c74" y="285.58695"/>
    </g>
    <g clip-path="url(#peff9ea65a0)">
     <use style="fill:#808080;fill-opacity:0.854695;stroke:#808080;stroke-opacity:0.854695;" x="260.600404" xlink:href="#C1_0_9369b61c74" y="258.968693"/>
    </g>
    <g clip-path="url(#peff9ea65a0)">
     <use style="fill:#808080;fill-opacity:0.858469;stroke:#808080;stroke-opacity:0.858469;" x="263.758445" xlink:href="#C1_0_9369b61c74" y="205.543523"/>
    </g>
    <g clip-path="url(#peff9ea65a0)">
     <use style="fill:#808080;fill-opacity:0.860264;stroke:#808080;stroke-opacity:0.860264;" x="227.955131" xlink:href="#C1_0_9369b61c74" y="232.83147"/>
    </g>
    <g clip-path="url(#peff9ea65a0)">
     <use style="fill:#808080;fill-opacity:0.860889;stroke:#808080;stroke-opacity:0.860889;" x="229.178983" xlink:href="#C1_0_9369b61c74" y="259.948494"/>
    </g>
    <g clip-path="url(#peff9ea65a0)">
     <use style="fill:#808080;fill-opacity:0.863733;stroke:#808080;stroke-opacity:0.863733;" x="177.491037" xlink:href="#C1_0_9369b61c74" y="206.334082"/>
    </g>
    <g clip-path="url(#peff9ea65a0)">
     <use style="fill:#808080;fill-opacity:0.866986;stroke:#808080;stroke-opacity:0.866986;" x="277.266483" xlink:href="#C1_0_9369b61c74" y="206.822606"/>
    </g>
    <g clip-path="url(#peff9ea65a0)">
     <use style="fill:#808080;fill-opacity:0.868119;stroke:#808080;stroke-opacity:0.868119;" x="172.77342" xlink:href="#C1_0_9369b61c74" y="206.992758"/>
    </g>
    <g clip-path="url(#peff9ea65a0)">
     <use style="fill:#808080;fill-opacity:0.869096;stroke:#808080;stroke-opacity:0.869096;" x="289.276447" xlink:href="#C1_0_9369b61c74" y="207.1394"/>
    </g>
    <g clip-path="url(#peff9ea65a0)">
     <use style="fill:#808080;fill-opacity:0.875301;stroke:#808080;stroke-opacity:0.875301;" x="269.464389" xlink:href="#C1_0_9369b61c74" y="235.149706"/>
    </g>
    <g clip-path="url(#peff9ea65a0)">
     <use style="fill:#808080;fill-opacity:0.880304;stroke:#808080;stroke-opacity:0.880304;" x="273.002987" xlink:href="#C1_0_9369b61c74" y="208.822577"/>
    </g>
    <g clip-path="url(#peff9ea65a0)">
     <use style="fill:#808080;fill-opacity:0.888377;stroke:#808080;stroke-opacity:0.888377;" x="279.189715" xlink:href="#C1_0_9369b61c74" y="210.035004"/>
    </g>
    <g clip-path="url(#peff9ea65a0)">
     <use style="fill:#808080;fill-opacity:0.892445;stroke:#808080;stroke-opacity:0.892445;" x="302.405046" xlink:href="#C1_0_9369b61c74" y="183.498633"/>
    </g>
    <g clip-path="url(#peff9ea65a0)">
     <use style="fill:#808080;fill-opacity:0.893481;stroke:#808080;stroke-opacity:0.893481;" x="189.090982" xlink:href="#C1_0_9369b61c74" y="265.103994"/>
    </g>
    <g clip-path="url(#peff9ea65a0)">
     <use style="fill:#808080;fill-opacity:0.904759;stroke:#808080;stroke-opacity:0.904759;" x="224.698213" xlink:href="#C1_0_9369b61c74" y="212.495097"/>
    </g>
    <g clip-path="url(#peff9ea65a0)">
     <use style="fill:#808080;fill-opacity:0.907295;stroke:#808080;stroke-opacity:0.907295;" x="208.946428" xlink:href="#C1_0_9369b61c74" y="185.669244"/>
    </g>
    <g clip-path="url(#peff9ea65a0)">
     <use style="fill:#808080;fill-opacity:0.90951;stroke:#808080;stroke-opacity:0.90951;" x="244.928307" xlink:href="#C1_0_9369b61c74" y="240.423929"/>
    </g>
    <g clip-path="url(#peff9ea65a0)">
     <use style="fill:#808080;fill-opacity:0.913389;stroke:#808080;stroke-opacity:0.913389;" x="233.874337" xlink:href="#C1_0_9369b61c74" y="213.791052"/>
    </g>
    <g clip-path="url(#peff9ea65a0)">
     <use style="fill:#808080;fill-opacity:0.919559;stroke:#808080;stroke-opacity:0.919559;" x="223.827091" xlink:href="#C1_0_9369b61c74" y="214.717601"/>
    </g>
    <g clip-path="url(#peff9ea65a0)">
     <use style="fill:#808080;fill-opacity:0.921906;stroke:#808080;stroke-opacity:0.921906;" x="268.148798" xlink:href="#C1_0_9369b61c74" y="215.070045"/>
    </g>
    <g clip-path="url(#peff9ea65a0)">
     <use style="fill:#808080;fill-opacity:0.923778;stroke:#808080;stroke-opacity:0.923778;" x="283.03235" xlink:href="#C1_0_9369b61c74" y="215.35121"/>
    </g>
    <g clip-path="url(#peff9ea65a0)">
     <use style="fill:#808080;fill-opacity:0.927341;stroke:#808080;stroke-opacity:0.927341;" x="233.285014" xlink:href="#C1_0_9369b61c74" y="243.173034"/>
    </g>
    <g clip-path="url(#peff9ea65a0)">
     <use style="fill:#808080;fill-opacity:0.930347;stroke:#808080;stroke-opacity:0.930347;" x="256.718913" xlink:href="#C1_0_9369b61c74" y="189.038766"/>
    </g>
    <g clip-path="url(#peff9ea65a0)">
     <use style="fill:#808080;fill-opacity:0.93157;stroke:#808080;stroke-opacity:0.93157;" x="277.552623" xlink:href="#C1_0_9369b61c74" y="161.913698"/>
    </g>
    <g clip-path="url(#peff9ea65a0)">
     <use style="fill:#808080;fill-opacity:0.936158;stroke:#808080;stroke-opacity:0.936158;" x="297.205819" xlink:href="#C1_0_9369b61c74" y="162.565899"/>
    </g>
    <g clip-path="url(#peff9ea65a0)">
     <use style="fill:#808080;fill-opacity:0.941675;stroke:#808080;stroke-opacity:0.941675;" x="209.612502" xlink:href="#C1_0_9369b61c74" y="190.694443"/>
    </g>
    <g clip-path="url(#peff9ea65a0)">
     <use style="fill:#808080;fill-opacity:0.954795;stroke:#808080;stroke-opacity:0.954795;" x="256.393353" xlink:href="#C1_0_9369b61c74" y="220.009074"/>
    </g>
    <g clip-path="url(#peff9ea65a0)">
     <use style="fill:#808080;fill-opacity:0.963723;stroke:#808080;stroke-opacity:0.963723;" x="288.325907" xlink:href="#C1_0_9369b61c74" y="193.917265"/>
    </g>
    <g clip-path="url(#peff9ea65a0)">
     <use style="fill:#808080;fill-opacity:0.967351;stroke:#808080;stroke-opacity:0.967351;" x="237.287777" xlink:href="#C1_0_9369b61c74" y="194.447554"/>
    </g>
    <g clip-path="url(#peff9ea65a0)">
     <use style="fill:#808080;fill-opacity:0.975386;stroke:#808080;stroke-opacity:0.975386;" x="229.705829" xlink:href="#C1_0_9369b61c74" y="195.621899"/>
    </g>
    <g clip-path="url(#peff9ea65a0)">
     <use style="fill:#808080;fill-opacity:0.995497;stroke:#808080;stroke-opacity:0.995497;" x="280.104417" xlink:href="#C1_0_9369b61c74" y="198.561528"/>
    </g>
    <g clip-path="url(#peff9ea65a0)">
     <use style="fill:#808080;fill-opacity:0.996566;stroke:#808080;stroke-opacity:0.996566;" x="242.744633" xlink:href="#C1_0_9369b61c74" y="198.717727"/>
    </g>
    <g clip-path="url(#peff9ea65a0)">
     <use style="fill:#808080;stroke:#808080;" x="271.147611" xlink:href="#C1_0_9369b61c74" y="199.219702"/>
    </g>
   </g>
   <g id="legend_1">
    <g id="patch_6">
     <path d="M 314.455 74.518125 
L 377.48 74.518125 
Q 379.48 74.518125 379.48 72.518125 
L 379.48 58.84 
Q 379.48 56.84 377.48 56.84 
L 314.455 56.84 
Q 312.455 56.84 312.455 58.84 
L 312.455 72.518125 
Q 312.455 74.518125 314.455 74.518125 
z
" style="fill:#ffffff;opacity:0.8;stroke:#cccccc;stroke-linejoin:miter;"/>
    </g>
    <g id="Path3DCollection_3">
     <defs>
      <path d="M 0 5 
C 1.326016 5 2.597899 4.473168 3.535534 3.535534 
C 4.473168 2.597899 5 1.326016 5 0 
C 5 -1.326016 4.473168 -2.597899 3.535534 -3.535534 
C 2.597899 -4.473168 1.326016 -5 0 -5 
C -1.326016 -5 -2.597899 -4.473168 -3.535534 -3.535534 
C -4.473168 -2.597899 -5 -1.326016 -5 0 
C -5 1.326016 -4.473168 2.597899 -3.535534 3.535534 
C -2.597899 4.473168 -1.326016 5 0 5 
z
" id="m8a110ab2fb" style="stroke:#ff0000;"/>
     </defs>
     <g>
      <use style="fill:#ff0000;stroke:#ff0000;" x="326.455" xlink:href="#m8a110ab2fb" y="65.813438"/>
     </g>
    </g>
    <g id="text_2">
     <!-- Timp3 -->
     <g transform="translate(344.455 68.438438)scale(0.1 -0.1)">
      <use xlink:href="#DejaVuSans-84"/>
      <use x="57.958984" xlink:href="#DejaVuSans-105"/>
      <use x="85.742188" xlink:href="#DejaVuSans-109"/>
      <use x="183.154297" xlink:href="#DejaVuSans-112"/>
      <use x="246.630859" xlink:href="#DejaVuSans-51"/>
     </g>
    </g>
   </g>
  </g>
 </g>
 <defs>
  <clipPath id="peff9ea65a0">
   <rect height="326.16" width="326.16" x="58.32" y="51.84"/>
  </clipPath>
 </defs>
</svg>
