<?xml version="1.0" encoding="utf-8" standalone="no"?>
<!DOCTYPE svg PUBLIC "-//W3C//DTD SVG 1.1//EN"
  "http://www.w3.org/Graphics/SVG/1.1/DTD/svg11.dtd">
<!-- Created with matplotlib (https://matplotlib.org/) -->
<svg height="432pt" version="1.1" viewBox="0 0 432 432" width="432pt" xmlns="http://www.w3.org/2000/svg" xmlns:xlink="http://www.w3.org/1999/xlink">
 <metadata>
  <rdf:RDF xmlns:cc="http://creativecommons.org/ns#" xmlns:dc="http://purl.org/dc/elements/1.1/" xmlns:rdf="http://www.w3.org/1999/02/22-rdf-syntax-ns#">
   <cc:Work>
    <dc:type rdf:resource="http://purl.org/dc/dcmitype/StillImage"/>
    <dc:date>2022-03-23T21:23:49.129295</dc:date>
    <dc:format>image/svg+xml</dc:format>
    <dc:creator>
     <cc:Agent>
      <dc:title>Matplotlib v3.3.3, https://matplotlib.org/</dc:title>
     </cc:Agent>
    </dc:creator>
   </cc:Work>
  </rdf:RDF>
 </metadata>
 <defs>
  <style type="text/css">*{stroke-linecap:butt;stroke-linejoin:round;}</style>
 </defs>
 <g id="figure_1">
  <g id="patch_1">
   <path d="M 0 432 
L 432 432 
L 432 0 
L 0 0 
z
" style="fill:none;"/>
  </g>
  <g id="patch_2">
   <path d="M 58.32 378 
L 384.48 378 
L 384.48 51.84 
L 58.32 51.84 
z
" style="fill:#ffffff;"/>
  </g>
  <g id="pane3d_1">
   <g id="patch_3">
    <path d="M 82.947329 297.579397 
L 190.656013 207.295842 
L 189.158759 77.090817 
L 76.29566 159.453166 
" style="fill:#f2f2f2;opacity:0.5;stroke:#f2f2f2;stroke-linejoin:miter;"/>
   </g>
  </g>
  <g id="pane3d_2">
   <g id="patch_4">
    <path d="M 190.656013 207.295842 
L 363.49002 257.531864 
L 369.657857 122.842076 
L 189.158759 77.090817 
" style="fill:#e6e6e6;opacity:0.5;stroke:#e6e6e6;stroke-linejoin:miter;"/>
   </g>
  </g>
  <g id="pane3d_3">
   <g id="patch_5">
    <path d="M 82.947329 297.579397 
L 266.159818 357.416595 
L 363.49002 257.531864 
L 190.656013 207.295842 
" style="fill:#ececec;opacity:0.5;stroke:#ececec;stroke-linejoin:miter;"/>
   </g>
  </g>
  <g id="axis3d_1">
   <g id="line2d_1">
    <path d="M 82.947329 297.579397 
L 266.159818 357.416595 
" style="fill:none;stroke:#000000;stroke-linecap:square;stroke-width:0.8;"/>
   </g>
  </g>
  <g id="axis3d_2">
   <g id="line2d_2">
    <path d="M 363.49002 257.531864 
L 266.159818 357.416595 
" style="fill:none;stroke:#000000;stroke-linecap:square;stroke-width:0.8;"/>
   </g>
  </g>
  <g id="axis3d_3">
   <g id="line2d_3">
    <path d="M 363.49002 257.531864 
L 369.657857 122.842076 
" style="fill:none;stroke:#000000;stroke-linecap:square;stroke-width:0.8;"/>
   </g>
  </g>
  <g id="axes_1">
   <g id="line2d_4">
    <path clip-path="url(#p6deaf1c7e9)" d="M 294.344538 292.106363 
L 291.813211 294.620911 
L 289.270278 297.146988 
L 286.715661 299.684673 
L 284.149278 302.234045 
L 280.761684 303.870546 
L 278.506158 305.934726 
L 275.098898 307.582169 
L 271.68154 309.234495 
L 267.110791 310.465107 
L 263.672714 312.125996 
L 260.224406 313.791827 
L 256.76582 315.462623 
L 252.502339 316.193137 
L 248.233307 316.924602 
L 245.100424 318.089147 
L 240.819356 318.823084 
L 235.392793 319.124724 
L 230.323657 318.910164 
L 226.392028 319.12861 
L 221.324588 318.914049 
L 215.494582 317.751675 
L 210.915172 316.918063 
L 206.220329 314.713612 
L 202.176105 312.091216 
L 197.51844 309.905634 
L 192.878927 307.728569 
L 188.257459 305.559972 
L 185.504076 303.298645 
L 182.128531 301.464684 
L 179.397667 299.219952 
L 177.310657 296.569467 
L 174.601535 294.344492 
L 171.903312 292.128466 
L 169.215922 289.921338 
L 165.907538 288.131253 
L 163.24189 285.940128 
L 160.586884 283.75775 
L 158.573394 281.180731 
L 157.121276 279.3222 
L 155.124102 276.766066 
L 154.312375 274.524148 
L 153.503998 272.291484 
L 152.69895 270.068016 
L 151.897211 267.853687 
L 150.474101 266.040347 
L 149.679908 263.842525 
L 148.888961 261.653685 
L 148.10124 259.473772 
L 150.869501 257.116893 
L 151.85348 254.862906 
L 152.8333 252.618445 
L 153.808989 250.383448 
L 154.780572 248.157857 
L 155.748075 245.941611 
L 158.464619 243.644079 
L 161.169338 241.356548 
L 164.532851 239.898873 
L 167.887027 238.445245 
L 171.231905 236.995646 
L 173.891939 234.736933 
L 177.216679 233.297589 
L 179.500869 231.493757 
L 182.807553 230.063352 
L 187.136021 229.003315 
L 190.424301 227.579756 
L 192.673195 225.795674 
L 196.287958 223.947965 
L 199.54771 222.538249 
L 202.798563 221.132383 
L 205.701811 220.159757 
L 209.62893 219.548749 
L 214.944072 220.516982 
L 219.834943 222.005877 
L 225.637777 223.7028 
L 229.566533 223.087573 
L 232.778119 221.680207 
L 235.980945 220.27668 
L 240.282541 220.885317 
L 242.934471 222.823214 
L 242.736215 224.580667 
L 239.529222 225.995983 
L 235.923633 226.179871 
L 230.559366 225.200945 
L 226.291047 226.253213 
L 225.487313 228.387298 
L 226.405543 230.4419 
L 227.327424 232.504669 
L 229.406148 234.856123 
L 232.073401 236.847088 
L 234.750864 238.845676 
L 239.179947 240.76185 
L 243.625283 242.685056 
L 248.086962 244.615333 
L 251.392664 246.265922 
L 255.307058 248.588668 
L 259.815463 250.54073 
L 264.340568 252.500024 
L 267.696779 254.175468 
L 271.676836 256.533257 
L 275.05748 258.221487 
L 279.069152 260.597303 
L 283.673351 262.594059 
L 287.09243 264.301594 
L 289.948505 266.406762 
L 291.033083 268.615129 
L 291.546208 271.228302 
L 291.425452 273.154942 
L 290.725765 275.487311 
L 291.821146 277.733226 
L 292.34056 280.39093 
L 293.444276 282.657253 
L 294.552601 284.93304 
L 294.435747 286.908996 
L 294.966022 289.611893 
L 294.263414 292.015929 
L 294.344538 292.106363 
" style="fill:none;stroke:#808080;stroke-linecap:square;stroke-width:1.5;"/>
   </g>
   <g id="line2d_5">
    <path clip-path="url(#p6deaf1c7e9)" d="M 300.228072 277.53181 
L 296.85786 279.13489 
L 293.477673 280.742716 
L 289.267747 281.445687 
L 285.869104 283.060363 
L 282.794323 284.182852 
L 279.04149 286.304126 
L 276.42556 288.853751 
L 275.664455 291.313871 
L 272.214608 292.957971 
L 267.943499 293.676819 
L 262.860332 293.466783 
L 258.928955 293.680624 
L 253.4974 293.976065 
L 249.210097 294.696244 
L 246.858329 296.776674 
L 242.991469 298.947227 
L 239.468384 300.614269 
L 235.145994 301.343159 
L 231.181061 301.560072 
L 225.703126 301.859757 
L 220.958042 301.134045 
L 215.078826 299.980289 
L 209.695945 298.215004 
L 203.72385 295.708571 
L 199.018064 293.534134 
L 192.456143 291.469684 
L 187.790531 289.311911 
L 183.143207 287.162595 
L 180.378994 284.921443 
L 179.48711 282.589634 
L 177.960643 280.680365 
L 175.861435 278.054725 
L 173.134964 275.850679 
L 170.419543 273.655565 
L 167.077793 271.875286 
L 164.384547 269.696239 
L 160.502743 267.220286 
L 157.834308 265.059977 
L 156.369669 263.211575 
L 154.355352 260.66947 
L 153.537552 258.43995 
L 152.089299 256.614279 
L 151.27931 254.40164 
L 149.293518 251.901153 
L 147.86136 250.097794 
L 147.065061 247.912148 
L 146.272046 245.735518 
L 145.482296 243.567849 
L 144.69579 241.409084 
L 144.539018 238.877377 
L 144.918695 237.026408 
L 145.920597 234.803151 
L 146.918242 232.58934 
L 149.685989 230.294446 
L 152.068492 228.456797 
L 155.856465 226.553792 
L 159.261792 225.102015 
L 162.657569 223.654308 
L 166.043836 222.210656 
L 169.420634 220.771041 
L 171.74668 218.966938 
L 175.464191 217.098612 
L 178.128744 214.871503 
L 181.464727 213.452324 
L 184.106819 211.241023 
L 187.422701 209.8319 
L 190.042582 207.63624 
L 192.30324 205.877899 
L 195.936481 204.05688 
L 198.523248 201.886053 
L 201.788958 200.502677 
L 205.738386 199.90031 
L 210.040817 200.499489 
L 214.368139 202.321638 
L 216.987379 204.236355 
L 221.343379 206.072054 
L 222.835902 207.728262 
L 223.752764 209.750464 
L 222.937035 211.868008 
L 222.117903 213.994387 
L 224.198211 216.318918 
L 226.872731 218.287141 
L 229.557556 220.262947 
L 235.758686 222.068287 
L 240.226277 223.969334 
L 244.710399 225.877415 
L 249.211145 227.79257 
L 253.728605 229.714837 
L 258.262875 231.644257 
L 262.814047 233.580869 
L 266.189344 235.236955 
L 270.191602 237.567557 
L 273.591629 239.236362 
L 277.625884 241.584899 
L 280.471809 243.651576 
L 283.328971 245.726412 
L 284.985262 247.514879 
L 287.861889 249.605012 
L 288.951548 251.797683 
L 291.266786 254.297682 
L 292.368387 256.509887 
L 292.247821 258.430623 
L 293.355772 260.660103 
L 292.6513 262.995173 
L 293.764854 265.243811 
L 294.295805 267.904891 
L 296.006057 269.769549 
L 297.133766 272.04677 
L 299.513055 274.643389 
L 299.403549 276.630222 
L 300.228072 277.53181 
" style="fill:none;stroke:#808080;stroke-linecap:square;stroke-width:1.5;"/>
   </g>
   <g id="line2d_6">
    <path clip-path="url(#p6deaf1c7e9)" d="M 302.574147 257.65409 
L 300.017038 260.133086 
L 295.786522 260.826811 
L 291.881501 261.033257 
L 286.486371 261.31848 
L 283.06192 262.913408 
L 279.627232 264.513104 
L 278.871386 266.924747 
L 276.236313 269.447139 
L 272.770362 271.066441 
L 269.293971 272.69062 
L 265.340394 272.901677 
L 259.878151 273.193273 
L 255.56944 273.904082 
L 251.608736 274.115614 
L 246.93499 275.32851 
L 243.405776 276.965562 
L 241.02217 279.03061 
L 237.471899 280.678885 
L 232.753807 281.906555 
L 227.60449 281.695782 
L 222.826487 280.978506 
L 216.906119 279.838177 
L 210.624103 279.204699 
L 205.102525 277.564673 
L 201.114392 276.330311 
L 196.379484 274.1785 
L 191.663341 272.035218 
L 186.965854 269.900414 
L 181.6413 268.187428 
L 178.859383 265.968555 
L 177.964069 263.659999 
L 175.845426 261.051512 
L 173.093805 258.861955 
L 170.35344 256.681354 
L 167.624261 254.509653 
L 164.26327 252.748409 
L 160.346183 250.289089 
L 157.653668 248.143376 
L 154.972056 246.006353 
L 152.30128 243.877965 
L 150.83882 242.05691 
L 150.022337 239.849961 
L 148.017223 237.356029 
L 147.210297 235.168787 
L 147.593364 233.284462 
L 146.79046 231.114218 
L 145.990898 228.953007 
L 145.194657 226.800773 
L 144.401717 224.65746 
L 142.438815 222.23528 
L 141.655055 220.11083 
L 140.874522 217.995128 
L 141.262552 216.172317 
L 142.277117 213.982923 
L 142.906845 212.247095 
L 146.368401 210.799496 
L 150.869837 209.726797 
L 153.262109 207.916593 
L 157.066725 206.042044 
L 160.487263 204.611998 
L 162.850495 202.819938 
L 166.252037 201.398965 
L 170.691201 200.345972 
L 174.073423 198.931945 
L 176.399489 197.159929 
L 180.121603 195.324854 
L 183.473829 193.924873 
L 184.378055 191.829523 
L 186.669715 190.08241 
L 189.995344 188.69702 
L 194.004436 188.093792 
L 199.052985 187.846312 
L 203.753436 188.022321 
L 208.816803 189.402636 
L 213.202693 191.230049 
L 215.856572 193.150396 
L 218.520677 195.078142 
L 221.195067 197.013332 
L 223.879804 198.956008 
L 227.163994 200.542915 
L 231.04448 202.776088 
L 233.76381 204.741142 
L 238.851911 206.257852 
L 244.553104 208.427559 
L 249.089631 210.325462 
L 253.643142 212.230469 
L 257.018279 213.859553 
L 261.01717 216.152192 
L 265.619256 218.079097 
L 268.448144 220.1042 
L 271.288226 222.137317 
L 272.927919 223.889838 
L 277.002245 226.227786 
L 280.461626 227.901942 
L 284.568985 230.258137 
L 286.24442 232.038439 
L 287.339733 234.212552 
L 286.622161 236.489631 
L 287.134275 239.073741 
L 288.238891 241.277416 
L 289.34817 243.490391 
L 290.462139 245.712726 
L 293.417799 247.848558 
L 296.385473 249.99307 
L 299.365233 252.146317 
L 301.101996 254.002587 
L 302.252239 256.269654 
L 302.574147 257.65409 
" style="fill:none;stroke:#808080;stroke-linecap:square;stroke-width:1.5;"/>
   </g>
   <g id="line2d_7">
    <path clip-path="url(#p6deaf1c7e9)" d="M 296.023562 234.292552 
L 293.442261 236.725602 
L 290.020108 238.287516 
L 286.5877 239.854111 
L 283.144992 241.425407 
L 280.515687 243.891931 
L 277.873985 246.370083 
L 274.396668 247.961008 
L 270.908835 249.556745 
L 267.410438 251.157314 
L 263.084928 251.857148 
L 258.753695 252.557907 
L 254.416726 253.259594 
L 250.074012 253.962211 
L 246.888009 255.080861 
L 242.171886 256.281852 
L 237.808654 256.988481 
L 234.600592 258.113522 
L 229.064775 258.404557 
L 225.054192 258.615407 
L 219.88559 258.408308 
L 214.718996 258.201289 
L 209.554409 257.994351 
L 204.391827 257.787493 
L 199.23125 257.580715 
L 194.571354 256.775699 
L 190.465132 254.233468 
L 188.881509 252.328242 
L 186.703922 249.70843 
L 183.888302 247.509515 
L 181.084371 245.319729 
L 178.292058 243.139016 
L 174.862819 241.37056 
L 172.093799 239.206161 
L 168.108027 236.747088 
L 165.365069 234.601711 
L 162.63336 232.465133 
L 159.264999 230.732403 
L 156.555875 228.611647 
L 152.646497 226.202051 
L 149.962634 224.099746 
L 148.494512 222.301053 
L 146.475504 219.827431 
L 145.019508 218.043595 
L 144.213259 215.881772 
L 145.24735 213.636909 
L 145.085446 211.11301 
L 145.473242 209.267936 
L 144.67293 207.14292 
L 143.875956 205.026768 
L 143.082301 202.919426 
L 142.291942 200.820838 
L 141.504861 198.730951 
L 142.527499 196.56063 
L 143.545735 194.399653 
L 147.034082 192.966008 
L 149.834345 190.732412 
L 153.300973 189.309238 
L 156.07708 187.091923 
L 159.522214 185.679104 
L 161.903159 183.908671 
L 165.698301 182.075319 
L 169.11248 180.676708 
L 172.51702 179.282045 
L 175.54867 178.317246 
L 179.989185 177.285779 
L 183.366758 175.900666 
L 187.431174 175.297574 
L 190.436068 174.340548 
L 195.545069 174.093607 
L 199.948897 174.692038 
L 205.418695 175.646559 
L 211.616139 177.384375 
L 216.067007 179.21436 
L 222.305877 180.964824 
L 226.792895 182.808153 
L 230.113008 184.384471 
L 234.037139 186.602822 
L 238.571806 188.467261 
L 243.715474 189.973747 
L 247.692367 192.217201 
L 252.278455 194.102781 
L 255.086571 196.08447 
L 257.905824 198.074016 
L 259.525964 199.788992 
L 261.772409 202.166933 
L 263.405779 203.895911 
L 266.263644 205.916585 
L 270.355787 208.232419 
L 275.389573 209.725057 
L 280.003832 210.367742 
L 285.27692 210.102347 
L 289.899142 210.745508 
L 294.849552 210.934496 
L 301.433661 212.799436 
L 308.041931 214.67122 
L 311.602572 216.350705 
L 310.932461 218.607531 
L 306.767934 219.264973 
L 301.774804 219.07288 
L 297.107237 218.419158 
L 290.168807 216.993639 
L 285.518065 216.342562 
L 280.212693 216.611223 
L 279.473194 218.869199 
L 279.971901 221.431733 
L 281.070908 223.617095 
L 282.772798 225.420393 
L 286.982349 227.826342 
L 291.80889 229.848795 
L 295.395424 231.578574 
L 295.940574 234.205054 
L 296.023562 234.292552 
" style="fill:none;stroke:#808080;stroke-linecap:square;stroke-width:1.5;"/>
   </g>
   <g id="line2d_8">
    <path clip-path="url(#p6deaf1c7e9)" d="M 317.700243 200.877724 
L 314.343481 202.373048 
L 310.137735 203.026834 
L 305.415261 202.376504 
L 298.71744 200.500811 
L 293.888938 198.540257 
L 289.079184 196.587316 
L 284.288071 194.641943 
L 282.590221 192.899248 
L 281.492308 190.787296 
L 284.858702 189.326066 
L 289.833262 189.512016 
L 294.485625 190.145876 
L 300.285715 191.156978 
L 305.091083 193.088829 
L 311.751331 194.93701 
L 316.597193 196.88353 
L 318.361302 198.640148 
L 317.700243 200.877724 
" style="fill:none;stroke:#808080;stroke-linecap:square;stroke-width:1.5;"/>
   </g>
   <g id="line2d_9">
    <path clip-path="url(#p6deaf1c7e9)" d="M 315.439834 181.527792 
L 312.053876 183.005698 
L 308.138921 183.197745 
L 301.383298 181.3432 
L 294.652924 179.495586 
L 291.060765 177.849377 
L 288.079239 175.834525 
L 285.109883 173.827897 
L 283.998054 171.74007 
L 284.401453 170.013855 
L 288.597812 169.38533 
L 293.607118 169.568807 
L 299.442332 170.565202 
L 306.120573 172.379497 
L 309.128442 174.380199 
L 312.148619 176.389089 
L 313.916261 178.120944 
L 315.099565 180.236101 
L 315.439834 181.527792 
" style="fill:none;stroke:#808080;stroke-linecap:square;stroke-width:1.5;"/>
   </g>
   <g id="line2d_10">
    <path clip-path="url(#p6deaf1c7e9)" d="M 311.954664 159.783748 
L 308.544609 161.237209 
L 303.76348 160.605895 
L 297.820621 159.602211 
L 292.326644 158.066526 
L 288.056552 155.797135 
L 286.325968 154.096269 
L 287.061995 151.946918 
L 290.471319 150.521184 
L 294.367182 150.336539 
L 301.082118 152.125591 
L 305.961498 154.009916 
L 308.995839 155.990598 
L 310.770021 157.69818 
L 311.954664 159.783748 
" style="fill:none;stroke:#808080;stroke-linecap:square;stroke-width:1.5;"/>
   </g>
   <g id="Path3DCollection_1">
    <defs>
     <path d="M 0 5 
C 1.326016 5 2.597899 4.473168 3.535534 3.535534 
C 4.473168 2.597899 5 1.326016 5 -0 
C 5 -1.326016 4.473168 -2.597899 3.535534 -3.535534 
C 2.597899 -4.473168 1.326016 -5 0 -5 
C -1.326016 -5 -2.597899 -4.473168 -3.535534 -3.535534 
C -4.473168 -2.597899 -5 -1.326016 -5 0 
C -5 1.326016 -4.473168 2.597899 -3.535534 3.535534 
C -2.597899 4.473168 -1.326016 5 0 5 
z
" id="C0_0_3b364353fa"/>
    </defs>
    <g clip-path="url(#p6deaf1c7e9)">
     <use style="fill:#ff0000;fill-opacity:0.3;stroke:#ff0000;stroke-opacity:0.3;" x="178.720434" xlink:href="#C0_0_3b364353fa" y="186.389417"/>
    </g>
    <g clip-path="url(#p6deaf1c7e9)">
     <use style="fill:#ff0000;fill-opacity:0.329819;stroke:#ff0000;stroke-opacity:0.329819;" x="210.946846" xlink:href="#C0_0_3b364353fa" y="266.038107"/>
    </g>
    <g clip-path="url(#p6deaf1c7e9)">
     <use style="fill:#ff0000;fill-opacity:0.331002;stroke:#ff0000;stroke-opacity:0.331002;" x="180.298328" xlink:href="#C0_0_3b364353fa" y="240.258492"/>
    </g>
    <g clip-path="url(#p6deaf1c7e9)">
     <use style="fill:#ff0000;fill-opacity:0.765716;stroke:#ff0000;stroke-opacity:0.765716;" x="305.670266" xlink:href="#C0_0_3b364353fa" y="218.450296"/>
    </g>
    <g clip-path="url(#p6deaf1c7e9)">
     <use style="fill:#ff0000;fill-opacity:0.84635;stroke:#ff0000;stroke-opacity:0.84635;" x="296.534919" xlink:href="#C0_0_3b364353fa" y="170.423497"/>
    </g>
    <g clip-path="url(#p6deaf1c7e9)">
     <use style="fill:#ff0000;fill-opacity:0.93464;stroke:#ff0000;stroke-opacity:0.93464;" x="178.243536" xlink:href="#C0_0_3b364353fa" y="257.026103"/>
    </g>
    <g clip-path="url(#p6deaf1c7e9)">
     <use style="fill:#ff0000;stroke:#ff0000;" x="194.152292" xlink:href="#C0_0_3b364353fa" y="261.642516"/>
    </g>
   </g>
   <g id="text_1">
    <!-- L6 IT cell has Timp3 peripheral score 0.19 -->
    <g transform="translate(95.685 45.84)scale(0.12 -0.12)">
     <defs>
      <path d="M 9.8125 72.90625 
L 19.671875 72.90625 
L 19.671875 8.296875 
L 55.171875 8.296875 
L 55.171875 0 
L 9.8125 0 
z
" id="DejaVuSans-76"/>
      <path d="M 33.015625 40.375 
Q 26.375 40.375 22.484375 35.828125 
Q 18.609375 31.296875 18.609375 23.390625 
Q 18.609375 15.53125 22.484375 10.953125 
Q 26.375 6.390625 33.015625 6.390625 
Q 39.65625 6.390625 43.53125 10.953125 
Q 47.40625 15.53125 47.40625 23.390625 
Q 47.40625 31.296875 43.53125 35.828125 
Q 39.65625 40.375 33.015625 40.375 
z
M 52.59375 71.296875 
L 52.59375 62.3125 
Q 48.875 64.0625 45.09375 64.984375 
Q 41.3125 65.921875 37.59375 65.921875 
Q 27.828125 65.921875 22.671875 59.328125 
Q 17.53125 52.734375 16.796875 39.40625 
Q 19.671875 43.65625 24.015625 45.921875 
Q 28.375 48.1875 33.59375 48.1875 
Q 44.578125 48.1875 50.953125 41.515625 
Q 57.328125 34.859375 57.328125 23.390625 
Q 57.328125 12.15625 50.6875 5.359375 
Q 44.046875 -1.421875 33.015625 -1.421875 
Q 20.359375 -1.421875 13.671875 8.265625 
Q 6.984375 17.96875 6.984375 36.375 
Q 6.984375 53.65625 15.1875 63.9375 
Q 23.390625 74.21875 37.203125 74.21875 
Q 40.921875 74.21875 44.703125 73.484375 
Q 48.484375 72.75 52.59375 71.296875 
z
" id="DejaVuSans-54"/>
      <path id="DejaVuSans-32"/>
      <path d="M 9.8125 72.90625 
L 19.671875 72.90625 
L 19.671875 0 
L 9.8125 0 
z
" id="DejaVuSans-73"/>
      <path d="M -0.296875 72.90625 
L 61.375 72.90625 
L 61.375 64.59375 
L 35.5 64.59375 
L 35.5 0 
L 25.59375 0 
L 25.59375 64.59375 
L -0.296875 64.59375 
z
" id="DejaVuSans-84"/>
      <path d="M 48.78125 52.59375 
L 48.78125 44.1875 
Q 44.96875 46.296875 41.140625 47.34375 
Q 37.3125 48.390625 33.40625 48.390625 
Q 24.65625 48.390625 19.8125 42.84375 
Q 14.984375 37.3125 14.984375 27.296875 
Q 14.984375 17.28125 19.8125 11.734375 
Q 24.65625 6.203125 33.40625 6.203125 
Q 37.3125 6.203125 41.140625 7.25 
Q 44.96875 8.296875 48.78125 10.40625 
L 48.78125 2.09375 
Q 45.015625 0.34375 40.984375 -0.53125 
Q 36.96875 -1.421875 32.421875 -1.421875 
Q 20.0625 -1.421875 12.78125 6.34375 
Q 5.515625 14.109375 5.515625 27.296875 
Q 5.515625 40.671875 12.859375 48.328125 
Q 20.21875 56 33.015625 56 
Q 37.15625 56 41.109375 55.140625 
Q 45.0625 54.296875 48.78125 52.59375 
z
" id="DejaVuSans-99"/>
      <path d="M 56.203125 29.59375 
L 56.203125 25.203125 
L 14.890625 25.203125 
Q 15.484375 15.921875 20.484375 11.0625 
Q 25.484375 6.203125 34.421875 6.203125 
Q 39.59375 6.203125 44.453125 7.46875 
Q 49.3125 8.734375 54.109375 11.28125 
L 54.109375 2.78125 
Q 49.265625 0.734375 44.1875 -0.34375 
Q 39.109375 -1.421875 33.890625 -1.421875 
Q 20.796875 -1.421875 13.15625 6.1875 
Q 5.515625 13.8125 5.515625 26.8125 
Q 5.515625 40.234375 12.765625 48.109375 
Q 20.015625 56 32.328125 56 
Q 43.359375 56 49.78125 48.890625 
Q 56.203125 41.796875 56.203125 29.59375 
z
M 47.21875 32.234375 
Q 47.125 39.59375 43.09375 43.984375 
Q 39.0625 48.390625 32.421875 48.390625 
Q 24.90625 48.390625 20.390625 44.140625 
Q 15.875 39.890625 15.1875 32.171875 
z
" id="DejaVuSans-101"/>
      <path d="M 9.421875 75.984375 
L 18.40625 75.984375 
L 18.40625 0 
L 9.421875 0 
z
" id="DejaVuSans-108"/>
      <path d="M 54.890625 33.015625 
L 54.890625 0 
L 45.90625 0 
L 45.90625 32.71875 
Q 45.90625 40.484375 42.875 44.328125 
Q 39.84375 48.1875 33.796875 48.1875 
Q 26.515625 48.1875 22.3125 43.546875 
Q 18.109375 38.921875 18.109375 30.90625 
L 18.109375 0 
L 9.078125 0 
L 9.078125 75.984375 
L 18.109375 75.984375 
L 18.109375 46.1875 
Q 21.34375 51.125 25.703125 53.5625 
Q 30.078125 56 35.796875 56 
Q 45.21875 56 50.046875 50.171875 
Q 54.890625 44.34375 54.890625 33.015625 
z
" id="DejaVuSans-104"/>
      <path d="M 34.28125 27.484375 
Q 23.390625 27.484375 19.1875 25 
Q 14.984375 22.515625 14.984375 16.5 
Q 14.984375 11.71875 18.140625 8.90625 
Q 21.296875 6.109375 26.703125 6.109375 
Q 34.1875 6.109375 38.703125 11.40625 
Q 43.21875 16.703125 43.21875 25.484375 
L 43.21875 27.484375 
z
M 52.203125 31.203125 
L 52.203125 0 
L 43.21875 0 
L 43.21875 8.296875 
Q 40.140625 3.328125 35.546875 0.953125 
Q 30.953125 -1.421875 24.3125 -1.421875 
Q 15.921875 -1.421875 10.953125 3.296875 
Q 6 8.015625 6 15.921875 
Q 6 25.140625 12.171875 29.828125 
Q 18.359375 34.515625 30.609375 34.515625 
L 43.21875 34.515625 
L 43.21875 35.40625 
Q 43.21875 41.609375 39.140625 45 
Q 35.0625 48.390625 27.6875 48.390625 
Q 23 48.390625 18.546875 47.265625 
Q 14.109375 46.140625 10.015625 43.890625 
L 10.015625 52.203125 
Q 14.9375 54.109375 19.578125 55.046875 
Q 24.21875 56 28.609375 56 
Q 40.484375 56 46.34375 49.84375 
Q 52.203125 43.703125 52.203125 31.203125 
z
" id="DejaVuSans-97"/>
      <path d="M 44.28125 53.078125 
L 44.28125 44.578125 
Q 40.484375 46.53125 36.375 47.5 
Q 32.28125 48.484375 27.875 48.484375 
Q 21.1875 48.484375 17.84375 46.4375 
Q 14.5 44.390625 14.5 40.28125 
Q 14.5 37.15625 16.890625 35.375 
Q 19.28125 33.59375 26.515625 31.984375 
L 29.59375 31.296875 
Q 39.15625 29.25 43.1875 25.515625 
Q 47.21875 21.78125 47.21875 15.09375 
Q 47.21875 7.46875 41.1875 3.015625 
Q 35.15625 -1.421875 24.609375 -1.421875 
Q 20.21875 -1.421875 15.453125 -0.5625 
Q 10.6875 0.296875 5.421875 2 
L 5.421875 11.28125 
Q 10.40625 8.6875 15.234375 7.390625 
Q 20.0625 6.109375 24.8125 6.109375 
Q 31.15625 6.109375 34.5625 8.28125 
Q 37.984375 10.453125 37.984375 14.40625 
Q 37.984375 18.0625 35.515625 20.015625 
Q 33.0625 21.96875 24.703125 23.78125 
L 21.578125 24.515625 
Q 13.234375 26.265625 9.515625 29.90625 
Q 5.8125 33.546875 5.8125 39.890625 
Q 5.8125 47.609375 11.28125 51.796875 
Q 16.75 56 26.8125 56 
Q 31.78125 56 36.171875 55.265625 
Q 40.578125 54.546875 44.28125 53.078125 
z
" id="DejaVuSans-115"/>
      <path d="M 9.421875 54.6875 
L 18.40625 54.6875 
L 18.40625 0 
L 9.421875 0 
z
M 9.421875 75.984375 
L 18.40625 75.984375 
L 18.40625 64.59375 
L 9.421875 64.59375 
z
" id="DejaVuSans-105"/>
      <path d="M 52 44.1875 
Q 55.375 50.25 60.0625 53.125 
Q 64.75 56 71.09375 56 
Q 79.640625 56 84.28125 50.015625 
Q 88.921875 44.046875 88.921875 33.015625 
L 88.921875 0 
L 79.890625 0 
L 79.890625 32.71875 
Q 79.890625 40.578125 77.09375 44.375 
Q 74.3125 48.1875 68.609375 48.1875 
Q 61.625 48.1875 57.5625 43.546875 
Q 53.515625 38.921875 53.515625 30.90625 
L 53.515625 0 
L 44.484375 0 
L 44.484375 32.71875 
Q 44.484375 40.625 41.703125 44.40625 
Q 38.921875 48.1875 33.109375 48.1875 
Q 26.21875 48.1875 22.15625 43.53125 
Q 18.109375 38.875 18.109375 30.90625 
L 18.109375 0 
L 9.078125 0 
L 9.078125 54.6875 
L 18.109375 54.6875 
L 18.109375 46.1875 
Q 21.1875 51.21875 25.484375 53.609375 
Q 29.78125 56 35.6875 56 
Q 41.65625 56 45.828125 52.96875 
Q 50 49.953125 52 44.1875 
z
" id="DejaVuSans-109"/>
      <path d="M 18.109375 8.203125 
L 18.109375 -20.796875 
L 9.078125 -20.796875 
L 9.078125 54.6875 
L 18.109375 54.6875 
L 18.109375 46.390625 
Q 20.953125 51.265625 25.265625 53.625 
Q 29.59375 56 35.59375 56 
Q 45.5625 56 51.78125 48.09375 
Q 58.015625 40.1875 58.015625 27.296875 
Q 58.015625 14.40625 51.78125 6.484375 
Q 45.5625 -1.421875 35.59375 -1.421875 
Q 29.59375 -1.421875 25.265625 0.953125 
Q 20.953125 3.328125 18.109375 8.203125 
z
M 48.6875 27.296875 
Q 48.6875 37.203125 44.609375 42.84375 
Q 40.53125 48.484375 33.40625 48.484375 
Q 26.265625 48.484375 22.1875 42.84375 
Q 18.109375 37.203125 18.109375 27.296875 
Q 18.109375 17.390625 22.1875 11.75 
Q 26.265625 6.109375 33.40625 6.109375 
Q 40.53125 6.109375 44.609375 11.75 
Q 48.6875 17.390625 48.6875 27.296875 
z
" id="DejaVuSans-112"/>
      <path d="M 40.578125 39.3125 
Q 47.65625 37.796875 51.625 33 
Q 55.609375 28.21875 55.609375 21.1875 
Q 55.609375 10.40625 48.1875 4.484375 
Q 40.765625 -1.421875 27.09375 -1.421875 
Q 22.515625 -1.421875 17.65625 -0.515625 
Q 12.796875 0.390625 7.625 2.203125 
L 7.625 11.71875 
Q 11.71875 9.328125 16.59375 8.109375 
Q 21.484375 6.890625 26.8125 6.890625 
Q 36.078125 6.890625 40.9375 10.546875 
Q 45.796875 14.203125 45.796875 21.1875 
Q 45.796875 27.640625 41.28125 31.265625 
Q 36.765625 34.90625 28.71875 34.90625 
L 20.21875 34.90625 
L 20.21875 43.015625 
L 29.109375 43.015625 
Q 36.375 43.015625 40.234375 45.921875 
Q 44.09375 48.828125 44.09375 54.296875 
Q 44.09375 59.90625 40.109375 62.90625 
Q 36.140625 65.921875 28.71875 65.921875 
Q 24.65625 65.921875 20.015625 65.03125 
Q 15.375 64.15625 9.8125 62.3125 
L 9.8125 71.09375 
Q 15.4375 72.65625 20.34375 73.4375 
Q 25.25 74.21875 29.59375 74.21875 
Q 40.828125 74.21875 47.359375 69.109375 
Q 53.90625 64.015625 53.90625 55.328125 
Q 53.90625 49.265625 50.4375 45.09375 
Q 46.96875 40.921875 40.578125 39.3125 
z
" id="DejaVuSans-51"/>
      <path d="M 41.109375 46.296875 
Q 39.59375 47.171875 37.8125 47.578125 
Q 36.03125 48 33.890625 48 
Q 26.265625 48 22.1875 43.046875 
Q 18.109375 38.09375 18.109375 28.8125 
L 18.109375 0 
L 9.078125 0 
L 9.078125 54.6875 
L 18.109375 54.6875 
L 18.109375 46.1875 
Q 20.953125 51.171875 25.484375 53.578125 
Q 30.03125 56 36.53125 56 
Q 37.453125 56 38.578125 55.875 
Q 39.703125 55.765625 41.0625 55.515625 
z
" id="DejaVuSans-114"/>
      <path d="M 30.609375 48.390625 
Q 23.390625 48.390625 19.1875 42.75 
Q 14.984375 37.109375 14.984375 27.296875 
Q 14.984375 17.484375 19.15625 11.84375 
Q 23.34375 6.203125 30.609375 6.203125 
Q 37.796875 6.203125 41.984375 11.859375 
Q 46.1875 17.53125 46.1875 27.296875 
Q 46.1875 37.015625 41.984375 42.703125 
Q 37.796875 48.390625 30.609375 48.390625 
z
M 30.609375 56 
Q 42.328125 56 49.015625 48.375 
Q 55.71875 40.765625 55.71875 27.296875 
Q 55.71875 13.875 49.015625 6.21875 
Q 42.328125 -1.421875 30.609375 -1.421875 
Q 18.84375 -1.421875 12.171875 6.21875 
Q 5.515625 13.875 5.515625 27.296875 
Q 5.515625 40.765625 12.171875 48.375 
Q 18.84375 56 30.609375 56 
z
" id="DejaVuSans-111"/>
      <path d="M 31.78125 66.40625 
Q 24.171875 66.40625 20.328125 58.90625 
Q 16.5 51.421875 16.5 36.375 
Q 16.5 21.390625 20.328125 13.890625 
Q 24.171875 6.390625 31.78125 6.390625 
Q 39.453125 6.390625 43.28125 13.890625 
Q 47.125 21.390625 47.125 36.375 
Q 47.125 51.421875 43.28125 58.90625 
Q 39.453125 66.40625 31.78125 66.40625 
z
M 31.78125 74.21875 
Q 44.046875 74.21875 50.515625 64.515625 
Q 56.984375 54.828125 56.984375 36.375 
Q 56.984375 17.96875 50.515625 8.265625 
Q 44.046875 -1.421875 31.78125 -1.421875 
Q 19.53125 -1.421875 13.0625 8.265625 
Q 6.59375 17.96875 6.59375 36.375 
Q 6.59375 54.828125 13.0625 64.515625 
Q 19.53125 74.21875 31.78125 74.21875 
z
" id="DejaVuSans-48"/>
      <path d="M 10.6875 12.40625 
L 21 12.40625 
L 21 0 
L 10.6875 0 
z
" id="DejaVuSans-46"/>
      <path d="M 12.40625 8.296875 
L 28.515625 8.296875 
L 28.515625 63.921875 
L 10.984375 60.40625 
L 10.984375 69.390625 
L 28.421875 72.90625 
L 38.28125 72.90625 
L 38.28125 8.296875 
L 54.390625 8.296875 
L 54.390625 0 
L 12.40625 0 
z
" id="DejaVuSans-49"/>
      <path d="M 10.984375 1.515625 
L 10.984375 10.5 
Q 14.703125 8.734375 18.5 7.8125 
Q 22.3125 6.890625 25.984375 6.890625 
Q 35.75 6.890625 40.890625 13.453125 
Q 46.046875 20.015625 46.78125 33.40625 
Q 43.953125 29.203125 39.59375 26.953125 
Q 35.25 24.703125 29.984375 24.703125 
Q 19.046875 24.703125 12.671875 31.3125 
Q 6.296875 37.9375 6.296875 49.421875 
Q 6.296875 60.640625 12.9375 67.421875 
Q 19.578125 74.21875 30.609375 74.21875 
Q 43.265625 74.21875 49.921875 64.515625 
Q 56.59375 54.828125 56.59375 36.375 
Q 56.59375 19.140625 48.40625 8.859375 
Q 40.234375 -1.421875 26.421875 -1.421875 
Q 22.703125 -1.421875 18.890625 -0.6875 
Q 15.09375 0.046875 10.984375 1.515625 
z
M 30.609375 32.421875 
Q 37.25 32.421875 41.125 36.953125 
Q 45.015625 41.5 45.015625 49.421875 
Q 45.015625 57.28125 41.125 61.84375 
Q 37.25 66.40625 30.609375 66.40625 
Q 23.96875 66.40625 20.09375 61.84375 
Q 16.21875 57.28125 16.21875 49.421875 
Q 16.21875 41.5 20.09375 36.953125 
Q 23.96875 32.421875 30.609375 32.421875 
z
" id="DejaVuSans-57"/>
     </defs>
     <use xlink:href="#DejaVuSans-76"/>
     <use x="55.712891" xlink:href="#DejaVuSans-54"/>
     <use x="119.335938" xlink:href="#DejaVuSans-32"/>
     <use x="151.123047" xlink:href="#DejaVuSans-73"/>
     <use x="180.615234" xlink:href="#DejaVuSans-84"/>
     <use x="241.699219" xlink:href="#DejaVuSans-32"/>
     <use x="273.486328" xlink:href="#DejaVuSans-99"/>
     <use x="328.466797" xlink:href="#DejaVuSans-101"/>
     <use x="389.990234" xlink:href="#DejaVuSans-108"/>
     <use x="417.773438" xlink:href="#DejaVuSans-108"/>
     <use x="445.556641" xlink:href="#DejaVuSans-32"/>
     <use x="477.34375" xlink:href="#DejaVuSans-104"/>
     <use x="540.722656" xlink:href="#DejaVuSans-97"/>
     <use x="602.001953" xlink:href="#DejaVuSans-115"/>
     <use x="654.101562" xlink:href="#DejaVuSans-32"/>
     <use x="685.888672" xlink:href="#DejaVuSans-84"/>
     <use x="743.847656" xlink:href="#DejaVuSans-105"/>
     <use x="771.630859" xlink:href="#DejaVuSans-109"/>
     <use x="869.042969" xlink:href="#DejaVuSans-112"/>
     <use x="932.519531" xlink:href="#DejaVuSans-51"/>
     <use x="996.142578" xlink:href="#DejaVuSans-32"/>
     <use x="1027.929688" xlink:href="#DejaVuSans-112"/>
     <use x="1091.40625" xlink:href="#DejaVuSans-101"/>
     <use x="1152.929688" xlink:href="#DejaVuSans-114"/>
     <use x="1194.042969" xlink:href="#DejaVuSans-105"/>
     <use x="1221.826172" xlink:href="#DejaVuSans-112"/>
     <use x="1285.302734" xlink:href="#DejaVuSans-104"/>
     <use x="1348.681641" xlink:href="#DejaVuSans-101"/>
     <use x="1410.205078" xlink:href="#DejaVuSans-114"/>
     <use x="1451.318359" xlink:href="#DejaVuSans-97"/>
     <use x="1512.597656" xlink:href="#DejaVuSans-108"/>
     <use x="1540.380859" xlink:href="#DejaVuSans-32"/>
     <use x="1572.167969" xlink:href="#DejaVuSans-115"/>
     <use x="1624.267578" xlink:href="#DejaVuSans-99"/>
     <use x="1679.248047" xlink:href="#DejaVuSans-111"/>
     <use x="1740.429688" xlink:href="#DejaVuSans-114"/>
     <use x="1779.292969" xlink:href="#DejaVuSans-101"/>
     <use x="1840.816406" xlink:href="#DejaVuSans-32"/>
     <use x="1872.603516" xlink:href="#DejaVuSans-48"/>
     <use x="1936.226562" xlink:href="#DejaVuSans-46"/>
     <use x="1968.013672" xlink:href="#DejaVuSans-49"/>
     <use x="2031.636719" xlink:href="#DejaVuSans-57"/>
    </g>
   </g>
   <g id="Path3DCollection_2">
    <defs>
     <path d="M 0 3 
C 0.795609 3 1.55874 2.683901 2.12132 2.12132 
C 2.683901 1.55874 3 0.795609 3 -0 
C 3 -0.795609 2.683901 -1.55874 2.12132 -2.12132 
C 1.55874 -2.683901 0.795609 -3 0 -3 
C -0.795609 -3 -1.55874 -2.683901 -2.12132 -2.12132 
C -2.683901 -1.55874 -3 -0.795609 -3 0 
C -3 0.795609 -2.683901 1.55874 -2.12132 2.12132 
C -1.55874 2.683901 -0.795609 3 0 3 
z
" id="C1_0_39eb5caeba"/>
    </defs>
    <g clip-path="url(#p6deaf1c7e9)">
     <use style="fill:#808080;fill-opacity:0.3;stroke:#808080;stroke-opacity:0.3;" x="219.645587" xlink:href="#C1_0_39eb5caeba" y="225.347796"/>
    </g>
    <g clip-path="url(#p6deaf1c7e9)">
     <use style="fill:#808080;fill-opacity:0.343214;stroke:#808080;stroke-opacity:0.343214;" x="214.087504" xlink:href="#C1_0_39eb5caeba" y="206.672061"/>
    </g>
    <g clip-path="url(#p6deaf1c7e9)">
     <use style="fill:#808080;fill-opacity:0.350056;stroke:#808080;stroke-opacity:0.350056;" x="203.030591" xlink:href="#C1_0_39eb5caeba" y="207.655129"/>
    </g>
    <g clip-path="url(#p6deaf1c7e9)">
     <use style="fill:#808080;fill-opacity:0.387342;stroke:#808080;stroke-opacity:0.387342;" x="220.396333" xlink:href="#C1_0_39eb5caeba" y="213.012441"/>
    </g>
    <g clip-path="url(#p6deaf1c7e9)">
     <use style="fill:#808080;fill-opacity:0.387344;stroke:#808080;stroke-opacity:0.387344;" x="178.756622" xlink:href="#C1_0_39eb5caeba" y="238.20751"/>
    </g>
    <g clip-path="url(#p6deaf1c7e9)">
     <use style="fill:#808080;fill-opacity:0.387789;stroke:#808080;stroke-opacity:0.387789;" x="193.186296" xlink:href="#C1_0_39eb5caeba" y="238.272918"/>
    </g>
    <g clip-path="url(#p6deaf1c7e9)">
     <use style="fill:#808080;fill-opacity:0.419792;stroke:#808080;stroke-opacity:0.419792;" x="199.967022" xlink:href="#C1_0_39eb5caeba" y="217.675028"/>
    </g>
    <g clip-path="url(#p6deaf1c7e9)">
     <use style="fill:#808080;fill-opacity:0.420579;stroke:#808080;stroke-opacity:0.420579;" x="186.631357" xlink:href="#C1_0_39eb5caeba" y="192.47548"/>
    </g>
    <g clip-path="url(#p6deaf1c7e9)">
     <use style="fill:#808080;fill-opacity:0.430935;stroke:#808080;stroke-opacity:0.430935;" x="182.148317" xlink:href="#C1_0_39eb5caeba" y="219.276055"/>
    </g>
    <g clip-path="url(#p6deaf1c7e9)">
     <use style="fill:#808080;fill-opacity:0.442269;stroke:#808080;stroke-opacity:0.442269;" x="202.350021" xlink:href="#C1_0_39eb5caeba" y="195.515006"/>
    </g>
    <g clip-path="url(#p6deaf1c7e9)">
     <use style="fill:#808080;fill-opacity:0.446705;stroke:#808080;stroke-opacity:0.446705;" x="219.309421" xlink:href="#C1_0_39eb5caeba" y="221.541927"/>
    </g>
    <g clip-path="url(#p6deaf1c7e9)">
     <use style="fill:#808080;fill-opacity:0.4605;stroke:#808080;stroke-opacity:0.4605;" x="211.344352" xlink:href="#C1_0_39eb5caeba" y="223.52402"/>
    </g>
    <g clip-path="url(#p6deaf1c7e9)">
     <use style="fill:#808080;fill-opacity:0.461818;stroke:#808080;stroke-opacity:0.461818;" x="194.733912" xlink:href="#C1_0_39eb5caeba" y="198.254533"/>
    </g>
    <g clip-path="url(#p6deaf1c7e9)">
     <use style="fill:#808080;fill-opacity:0.465003;stroke:#808080;stroke-opacity:0.465003;" x="197.56166" xlink:href="#C1_0_39eb5caeba" y="224.170925"/>
    </g>
    <g clip-path="url(#p6deaf1c7e9)">
     <use style="fill:#808080;fill-opacity:0.465836;stroke:#808080;stroke-opacity:0.465836;" x="230.555847" xlink:href="#C1_0_39eb5caeba" y="249.763873"/>
    </g>
    <g clip-path="url(#p6deaf1c7e9)">
     <use style="fill:#808080;fill-opacity:0.480726;stroke:#808080;stroke-opacity:0.480726;" x="188.874353" xlink:href="#C1_0_39eb5caeba" y="175.378184"/>
    </g>
    <g clip-path="url(#p6deaf1c7e9)">
     <use style="fill:#808080;fill-opacity:0.488866;stroke:#808080;stroke-opacity:0.488866;" x="185.30084" xlink:href="#C1_0_39eb5caeba" y="253.154474"/>
    </g>
    <g clip-path="url(#p6deaf1c7e9)">
     <use style="fill:#808080;fill-opacity:0.490213;stroke:#808080;stroke-opacity:0.490213;" x="197.258927" xlink:href="#C1_0_39eb5caeba" y="227.793262"/>
    </g>
    <g clip-path="url(#p6deaf1c7e9)">
     <use style="fill:#808080;fill-opacity:0.49269;stroke:#808080;stroke-opacity:0.49269;" x="237.633117" xlink:href="#C1_0_39eb5caeba" y="253.717565"/>
    </g>
    <g clip-path="url(#p6deaf1c7e9)">
     <use style="fill:#808080;fill-opacity:0.496686;stroke:#808080;stroke-opacity:0.496686;" x="182.408785" xlink:href="#C1_0_39eb5caeba" y="203.140722"/>
    </g>
    <g clip-path="url(#p6deaf1c7e9)">
     <use style="fill:#808080;fill-opacity:0.511642;stroke:#808080;stroke-opacity:0.511642;" x="183.722945" xlink:href="#C1_0_39eb5caeba" y="205.236479"/>
    </g>
    <g clip-path="url(#p6deaf1c7e9)">
     <use style="fill:#808080;fill-opacity:0.519266;stroke:#808080;stroke-opacity:0.519266;" x="150.338102" xlink:href="#C1_0_39eb5caeba" y="231.967607"/>
    </g>
    <g clip-path="url(#p6deaf1c7e9)">
     <use style="fill:#808080;fill-opacity:0.519557;stroke:#808080;stroke-opacity:0.519557;" x="195.513711" xlink:href="#C1_0_39eb5caeba" y="206.345702"/>
    </g>
    <g clip-path="url(#p6deaf1c7e9)">
     <use style="fill:#808080;fill-opacity:0.527181;stroke:#808080;stroke-opacity:0.527181;" x="201.278434" xlink:href="#C1_0_39eb5caeba" y="207.414057"/>
    </g>
    <g clip-path="url(#p6deaf1c7e9)">
     <use style="fill:#808080;fill-opacity:0.531689;stroke:#808080;stroke-opacity:0.531689;" x="149.216851" xlink:href="#C1_0_39eb5caeba" y="233.752654"/>
    </g>
    <g clip-path="url(#p6deaf1c7e9)">
     <use style="fill:#808080;fill-opacity:0.532049;stroke:#808080;stroke-opacity:0.532049;" x="175.818299" xlink:href="#C1_0_39eb5caeba" y="233.804347"/>
    </g>
    <g clip-path="url(#p6deaf1c7e9)">
     <use style="fill:#808080;fill-opacity:0.53468;stroke:#808080;stroke-opacity:0.53468;" x="200.852297" xlink:href="#C1_0_39eb5caeba" y="208.464922"/>
    </g>
    <g clip-path="url(#p6deaf1c7e9)">
     <use style="fill:#808080;fill-opacity:0.534959;stroke:#808080;stroke-opacity:0.534959;" x="193.586637" xlink:href="#C1_0_39eb5caeba" y="234.222467"/>
    </g>
    <g clip-path="url(#p6deaf1c7e9)">
     <use style="fill:#808080;fill-opacity:0.540783;stroke:#808080;stroke-opacity:0.540783;" x="197.433526" xlink:href="#C1_0_39eb5caeba" y="209.320263"/>
    </g>
    <g clip-path="url(#p6deaf1c7e9)">
     <use style="fill:#808080;fill-opacity:0.562958;stroke:#808080;stroke-opacity:0.562958;" x="255.680454" xlink:href="#C1_0_39eb5caeba" y="238.245381"/>
    </g>
    <g clip-path="url(#p6deaf1c7e9)">
     <use style="fill:#808080;fill-opacity:0.564051;stroke:#808080;stroke-opacity:0.564051;" x="280.293801" xlink:href="#C1_0_39eb5caeba" y="264.223974"/>
    </g>
    <g clip-path="url(#p6deaf1c7e9)">
     <use style="fill:#808080;fill-opacity:0.566694;stroke:#808080;stroke-opacity:0.566694;" x="156.091216" xlink:href="#C1_0_39eb5caeba" y="187.120228"/>
    </g>
    <g clip-path="url(#p6deaf1c7e9)">
     <use style="fill:#808080;fill-opacity:0.570767;stroke:#808080;stroke-opacity:0.570767;" x="177.654801" xlink:href="#C1_0_39eb5caeba" y="213.522"/>
    </g>
    <g clip-path="url(#p6deaf1c7e9)">
     <use style="fill:#808080;fill-opacity:0.571084;stroke:#808080;stroke-opacity:0.571084;" x="185.40231" xlink:href="#C1_0_39eb5caeba" y="265.259536"/>
    </g>
    <g clip-path="url(#p6deaf1c7e9)">
     <use style="fill:#808080;fill-opacity:0.571592;stroke:#808080;stroke-opacity:0.571592;" x="184.981145" xlink:href="#C1_0_39eb5caeba" y="187.789249"/>
    </g>
    <g clip-path="url(#p6deaf1c7e9)">
     <use style="fill:#808080;fill-opacity:0.575923;stroke:#808080;stroke-opacity:0.575923;" x="181.595284" xlink:href="#C1_0_39eb5caeba" y="188.380756"/>
    </g>
    <g clip-path="url(#p6deaf1c7e9)">
     <use style="fill:#808080;fill-opacity:0.58073;stroke:#808080;stroke-opacity:0.58073;" x="207.404384" xlink:href="#C1_0_39eb5caeba" y="189.037378"/>
    </g>
    <g clip-path="url(#p6deaf1c7e9)">
     <use style="fill:#808080;fill-opacity:0.585716;stroke:#808080;stroke-opacity:0.585716;" x="156.174269" xlink:href="#C1_0_39eb5caeba" y="215.61681"/>
    </g>
    <g clip-path="url(#p6deaf1c7e9)">
     <use style="fill:#808080;fill-opacity:0.58648;stroke:#808080;stroke-opacity:0.58648;" x="224.514358" xlink:href="#C1_0_39eb5caeba" y="267.52626"/>
    </g>
    <g clip-path="url(#p6deaf1c7e9)">
     <use style="fill:#808080;fill-opacity:0.593204;stroke:#808080;stroke-opacity:0.593204;" x="251.246311" xlink:href="#C1_0_39eb5caeba" y="268.516264"/>
    </g>
    <g clip-path="url(#p6deaf1c7e9)">
     <use style="fill:#808080;fill-opacity:0.594276;stroke:#808080;stroke-opacity:0.594276;" x="196.774791" xlink:href="#C1_0_39eb5caeba" y="190.887651"/>
    </g>
    <g clip-path="url(#p6deaf1c7e9)">
     <use style="fill:#808080;fill-opacity:0.596274;stroke:#808080;stroke-opacity:0.596274;" x="152.83811" xlink:href="#C1_0_39eb5caeba" y="191.160474"/>
    </g>
    <g clip-path="url(#p6deaf1c7e9)">
     <use style="fill:#808080;fill-opacity:0.598635;stroke:#808080;stroke-opacity:0.598635;" x="218.340303" xlink:href="#C1_0_39eb5caeba" y="243.371573"/>
    </g>
    <g clip-path="url(#p6deaf1c7e9)">
     <use style="fill:#808080;fill-opacity:0.600551;stroke:#808080;stroke-opacity:0.600551;" x="218.013592" xlink:href="#C1_0_39eb5caeba" y="191.744627"/>
    </g>
    <g clip-path="url(#p6deaf1c7e9)">
     <use style="fill:#808080;fill-opacity:0.60623;stroke:#808080;stroke-opacity:0.60623;" x="230.880438" xlink:href="#C1_0_39eb5caeba" y="244.462785"/>
    </g>
    <g clip-path="url(#p6deaf1c7e9)">
     <use style="fill:#808080;fill-opacity:0.614024;stroke:#808080;stroke-opacity:0.614024;" x="184.105415" xlink:href="#C1_0_39eb5caeba" y="193.584973"/>
    </g>
    <g clip-path="url(#p6deaf1c7e9)">
     <use style="fill:#808080;fill-opacity:0.616721;stroke:#808080;stroke-opacity:0.616721;" x="177.779878" xlink:href="#C1_0_39eb5caeba" y="193.953339"/>
    </g>
    <g clip-path="url(#p6deaf1c7e9)">
     <use style="fill:#808080;fill-opacity:0.61723;stroke:#808080;stroke-opacity:0.61723;" x="209.914475" xlink:href="#C1_0_39eb5caeba" y="194.022796"/>
    </g>
    <g clip-path="url(#p6deaf1c7e9)">
     <use style="fill:#808080;fill-opacity:0.621066;stroke:#808080;stroke-opacity:0.621066;" x="148.899951" xlink:href="#C1_0_39eb5caeba" y="220.57067"/>
    </g>
    <g clip-path="url(#p6deaf1c7e9)">
     <use style="fill:#808080;fill-opacity:0.622529;stroke:#808080;stroke-opacity:0.622529;" x="200.046018" xlink:href="#C1_0_39eb5caeba" y="220.775578"/>
    </g>
    <g clip-path="url(#p6deaf1c7e9)">
     <use style="fill:#808080;fill-opacity:0.624963;stroke:#808080;stroke-opacity:0.624963;" x="201.311343" xlink:href="#C1_0_39eb5caeba" y="273.192104"/>
    </g>
    <g clip-path="url(#p6deaf1c7e9)">
     <use style="fill:#808080;fill-opacity:0.629142;stroke:#808080;stroke-opacity:0.629142;" x="206.530847" xlink:href="#C1_0_39eb5caeba" y="195.649854"/>
    </g>
    <g clip-path="url(#p6deaf1c7e9)">
     <use style="fill:#808080;fill-opacity:0.635108;stroke:#808080;stroke-opacity:0.635108;" x="187.840812" xlink:href="#C1_0_39eb5caeba" y="248.612066"/>
    </g>
    <g clip-path="url(#p6deaf1c7e9)">
     <use style="fill:#808080;fill-opacity:0.640667;stroke:#808080;stroke-opacity:0.640667;" x="205.601525" xlink:href="#C1_0_39eb5caeba" y="197.224021"/>
    </g>
    <g clip-path="url(#p6deaf1c7e9)">
     <use style="fill:#808080;fill-opacity:0.643194;stroke:#808080;stroke-opacity:0.643194;" x="256.393531" xlink:href="#C1_0_39eb5caeba" y="197.569159"/>
    </g>
    <g clip-path="url(#p6deaf1c7e9)">
     <use style="fill:#808080;fill-opacity:0.64686;stroke:#808080;stroke-opacity:0.64686;" x="229.605236" xlink:href="#C1_0_39eb5caeba" y="198.069866"/>
    </g>
    <g clip-path="url(#p6deaf1c7e9)">
     <use style="fill:#808080;fill-opacity:0.648251;stroke:#808080;stroke-opacity:0.648251;" x="179.962342" xlink:href="#C1_0_39eb5caeba" y="198.259838"/>
    </g>
    <g clip-path="url(#p6deaf1c7e9)">
     <use style="fill:#808080;fill-opacity:0.664757;stroke:#808080;stroke-opacity:0.664757;" x="263.173192" xlink:href="#C1_0_39eb5caeba" y="279.050944"/>
    </g>
    <g clip-path="url(#p6deaf1c7e9)">
     <use style="fill:#808080;fill-opacity:0.668989;stroke:#808080;stroke-opacity:0.668989;" x="148.893761" xlink:href="#C1_0_39eb5caeba" y="201.092468"/>
    </g>
    <g clip-path="url(#p6deaf1c7e9)">
     <use style="fill:#808080;fill-opacity:0.669939;stroke:#808080;stroke-opacity:0.669939;" x="176.674788" xlink:href="#C1_0_39eb5caeba" y="227.419443"/>
    </g>
    <g clip-path="url(#p6deaf1c7e9)">
     <use style="fill:#808080;fill-opacity:0.670608;stroke:#808080;stroke-opacity:0.670608;" x="253.165223" xlink:href="#C1_0_39eb5caeba" y="253.71282"/>
    </g>
    <g clip-path="url(#p6deaf1c7e9)">
     <use style="fill:#808080;fill-opacity:0.670862;stroke:#808080;stroke-opacity:0.670862;" x="204.637013" xlink:href="#C1_0_39eb5caeba" y="201.348269"/>
    </g>
    <g clip-path="url(#p6deaf1c7e9)">
     <use style="fill:#808080;fill-opacity:0.681704;stroke:#808080;stroke-opacity:0.681704;" x="223.822446" xlink:href="#C1_0_39eb5caeba" y="202.82906"/>
    </g>
    <g clip-path="url(#p6deaf1c7e9)">
     <use style="fill:#808080;fill-opacity:0.70502;stroke:#808080;stroke-opacity:0.70502;" x="216.606074" xlink:href="#C1_0_39eb5caeba" y="206.013786"/>
    </g>
    <g clip-path="url(#p6deaf1c7e9)">
     <use style="fill:#808080;fill-opacity:0.705771;stroke:#808080;stroke-opacity:0.705771;" x="171.033554" xlink:href="#C1_0_39eb5caeba" y="206.116305"/>
    </g>
    <g clip-path="url(#p6deaf1c7e9)">
     <use style="fill:#808080;fill-opacity:0.706755;stroke:#808080;stroke-opacity:0.706755;" x="290.719916" xlink:href="#C1_0_39eb5caeba" y="258.906452"/>
    </g>
    <g clip-path="url(#p6deaf1c7e9)">
     <use style="fill:#808080;fill-opacity:0.71156;stroke:#808080;stroke-opacity:0.71156;" x="199.924254" xlink:href="#C1_0_39eb5caeba" y="206.907045"/>
    </g>
    <g clip-path="url(#p6deaf1c7e9)">
     <use style="fill:#808080;fill-opacity:0.714061;stroke:#808080;stroke-opacity:0.714061;" x="245.396382" xlink:href="#C1_0_39eb5caeba" y="233.602419"/>
    </g>
    <g clip-path="url(#p6deaf1c7e9)">
     <use style="fill:#808080;fill-opacity:0.714122;stroke:#808080;stroke-opacity:0.714122;" x="193.350378" xlink:href="#C1_0_39eb5caeba" y="207.257043"/>
    </g>
    <g clip-path="url(#p6deaf1c7e9)">
     <use style="fill:#808080;fill-opacity:0.714787;stroke:#808080;stroke-opacity:0.714787;" x="183.964535" xlink:href="#C1_0_39eb5caeba" y="207.347837"/>
    </g>
    <g clip-path="url(#p6deaf1c7e9)">
     <use style="fill:#808080;fill-opacity:0.715342;stroke:#808080;stroke-opacity:0.715342;" x="213.603557" xlink:href="#C1_0_39eb5caeba" y="207.423591"/>
    </g>
    <g clip-path="url(#p6deaf1c7e9)">
     <use style="fill:#808080;fill-opacity:0.738426;stroke:#808080;stroke-opacity:0.738426;" x="198.441577" xlink:href="#C1_0_39eb5caeba" y="210.576622"/>
    </g>
    <g clip-path="url(#p6deaf1c7e9)">
     <use style="fill:#808080;fill-opacity:0.741553;stroke:#808080;stroke-opacity:0.741553;" x="289.863706" xlink:href="#C1_0_39eb5caeba" y="211.003754"/>
    </g>
    <g clip-path="url(#p6deaf1c7e9)">
     <use style="fill:#808080;fill-opacity:0.748985;stroke:#808080;stroke-opacity:0.748985;" x="214.518978" xlink:href="#C1_0_39eb5caeba" y="212.018815"/>
    </g>
    <g clip-path="url(#p6deaf1c7e9)">
     <use style="fill:#808080;fill-opacity:0.750514;stroke:#808080;stroke-opacity:0.750514;" x="175.396896" xlink:href="#C1_0_39eb5caeba" y="212.227691"/>
    </g>
    <g clip-path="url(#p6deaf1c7e9)">
     <use style="fill:#808080;fill-opacity:0.751269;stroke:#808080;stroke-opacity:0.751269;" x="208.841405" xlink:href="#C1_0_39eb5caeba" y="212.330743"/>
    </g>
    <g clip-path="url(#p6deaf1c7e9)">
     <use style="fill:#808080;fill-opacity:0.753742;stroke:#808080;stroke-opacity:0.753742;" x="240.31414" xlink:href="#C1_0_39eb5caeba" y="292.152215"/>
    </g>
    <g clip-path="url(#p6deaf1c7e9)">
     <use style="fill:#808080;fill-opacity:0.766483;stroke:#808080;stroke-opacity:0.766483;" x="194.299142" xlink:href="#C1_0_39eb5caeba" y="240.948614"/>
    </g>
    <g clip-path="url(#p6deaf1c7e9)">
     <use style="fill:#808080;fill-opacity:0.768317;stroke:#808080;stroke-opacity:0.768317;" x="245.914436" xlink:href="#C1_0_39eb5caeba" y="294.298123"/>
    </g>
    <g clip-path="url(#p6deaf1c7e9)">
     <use style="fill:#808080;fill-opacity:0.771777;stroke:#808080;stroke-opacity:0.771777;" x="254.10645" xlink:href="#C1_0_39eb5caeba" y="268.249037"/>
    </g>
    <g clip-path="url(#p6deaf1c7e9)">
     <use style="fill:#808080;fill-opacity:0.773652;stroke:#808080;stroke-opacity:0.773652;" x="297.872333" xlink:href="#C1_0_39eb5caeba" y="215.388054"/>
    </g>
    <g clip-path="url(#p6deaf1c7e9)">
     <use style="fill:#808080;fill-opacity:0.775102;stroke:#808080;stroke-opacity:0.775102;" x="252.614257" xlink:href="#C1_0_39eb5caeba" y="295.297015"/>
    </g>
    <g clip-path="url(#p6deaf1c7e9)">
     <use style="fill:#808080;fill-opacity:0.776142;stroke:#808080;stroke-opacity:0.776142;" x="205.020083" xlink:href="#C1_0_39eb5caeba" y="215.728161"/>
    </g>
    <g clip-path="url(#p6deaf1c7e9)">
     <use style="fill:#808080;fill-opacity:0.777081;stroke:#808080;stroke-opacity:0.777081;" x="219.463814" xlink:href="#C1_0_39eb5caeba" y="242.433691"/>
    </g>
    <g clip-path="url(#p6deaf1c7e9)">
     <use style="fill:#808080;fill-opacity:0.781637;stroke:#808080;stroke-opacity:0.781637;" x="207.599202" xlink:href="#C1_0_39eb5caeba" y="216.478624"/>
    </g>
    <g clip-path="url(#p6deaf1c7e9)">
     <use style="fill:#808080;fill-opacity:0.781979;stroke:#808080;stroke-opacity:0.781979;" x="302.389586" xlink:href="#C1_0_39eb5caeba" y="216.525374"/>
    </g>
    <g clip-path="url(#p6deaf1c7e9)">
     <use style="fill:#808080;fill-opacity:0.782286;stroke:#808080;stroke-opacity:0.782286;" x="307.626967" xlink:href="#C1_0_39eb5caeba" y="216.567312"/>
    </g>
    <g clip-path="url(#p6deaf1c7e9)">
     <use style="fill:#808080;fill-opacity:0.784454;stroke:#808080;stroke-opacity:0.784454;" x="285.675465" xlink:href="#C1_0_39eb5caeba" y="243.466905"/>
    </g>
    <g clip-path="url(#p6deaf1c7e9)">
     <use style="fill:#808080;fill-opacity:0.785529;stroke:#808080;stroke-opacity:0.785529;" x="196.724138" xlink:href="#C1_0_39eb5caeba" y="217.010193"/>
    </g>
    <g clip-path="url(#p6deaf1c7e9)">
     <use style="fill:#808080;fill-opacity:0.785685;stroke:#808080;stroke-opacity:0.785685;" x="290.606755" xlink:href="#C1_0_39eb5caeba" y="190.423684"/>
    </g>
    <g clip-path="url(#p6deaf1c7e9)">
     <use style="fill:#808080;fill-opacity:0.79283;stroke:#808080;stroke-opacity:0.79283;" x="211.344413" xlink:href="#C1_0_39eb5caeba" y="218.007498"/>
    </g>
    <g clip-path="url(#p6deaf1c7e9)">
     <use style="fill:#808080;fill-opacity:0.796137;stroke:#808080;stroke-opacity:0.796137;" x="285.177779" xlink:href="#C1_0_39eb5caeba" y="191.814192"/>
    </g>
    <g clip-path="url(#p6deaf1c7e9)">
     <use style="fill:#808080;fill-opacity:0.803157;stroke:#808080;stroke-opacity:0.803157;" x="254.638632" xlink:href="#C1_0_39eb5caeba" y="272.757661"/>
    </g>
    <g clip-path="url(#p6deaf1c7e9)">
     <use style="fill:#808080;fill-opacity:0.807434;stroke:#808080;stroke-opacity:0.807434;" x="287.923944" xlink:href="#C1_0_39eb5caeba" y="273.372193"/>
    </g>
    <g clip-path="url(#p6deaf1c7e9)">
     <use style="fill:#808080;fill-opacity:0.811289;stroke:#808080;stroke-opacity:0.811289;" x="301.834896" xlink:href="#C1_0_39eb5caeba" y="193.829946"/>
    </g>
    <g clip-path="url(#p6deaf1c7e9)">
     <use style="fill:#808080;fill-opacity:0.814898;stroke:#808080;stroke-opacity:0.814898;" x="242.821221" xlink:href="#C1_0_39eb5caeba" y="274.444627"/>
    </g>
    <g clip-path="url(#p6deaf1c7e9)">
     <use style="fill:#808080;fill-opacity:0.82879;stroke:#808080;stroke-opacity:0.82879;" x="165.156377" xlink:href="#C1_0_39eb5caeba" y="222.919106"/>
    </g>
    <g clip-path="url(#p6deaf1c7e9)">
     <use style="fill:#808080;fill-opacity:0.830783;stroke:#808080;stroke-opacity:0.830783;" x="257.342625" xlink:href="#C1_0_39eb5caeba" y="303.494923"/>
    </g>
    <g clip-path="url(#p6deaf1c7e9)">
     <use style="fill:#808080;fill-opacity:0.831115;stroke:#808080;stroke-opacity:0.831115;" x="233.980211" xlink:href="#C1_0_39eb5caeba" y="223.236735"/>
    </g>
    <g clip-path="url(#p6deaf1c7e9)">
     <use style="fill:#808080;fill-opacity:0.835344;stroke:#808080;stroke-opacity:0.835344;" x="286.478656" xlink:href="#C1_0_39eb5caeba" y="277.382471"/>
    </g>
    <g clip-path="url(#p6deaf1c7e9)">
     <use style="fill:#808080;fill-opacity:0.836702;stroke:#808080;stroke-opacity:0.836702;" x="292.640643" xlink:href="#C1_0_39eb5caeba" y="170.422079"/>
    </g>
    <g clip-path="url(#p6deaf1c7e9)">
     <use style="fill:#808080;fill-opacity:0.83784;stroke:#808080;stroke-opacity:0.83784;" x="261.866461" xlink:href="#C1_0_39eb5caeba" y="277.741"/>
    </g>
    <g clip-path="url(#p6deaf1c7e9)">
     <use style="fill:#808080;fill-opacity:0.83798;stroke:#808080;stroke-opacity:0.83798;" x="219.068685" xlink:href="#C1_0_39eb5caeba" y="224.174304"/>
    </g>
    <g clip-path="url(#p6deaf1c7e9)">
     <use style="fill:#808080;fill-opacity:0.840636;stroke:#808080;stroke-opacity:0.840636;" x="234.000478" xlink:href="#C1_0_39eb5caeba" y="224.537163"/>
    </g>
    <g clip-path="url(#p6deaf1c7e9)">
     <use style="fill:#808080;fill-opacity:0.847881;stroke:#808080;stroke-opacity:0.847881;" x="235.090778" xlink:href="#C1_0_39eb5caeba" y="225.526706"/>
    </g>
    <g clip-path="url(#p6deaf1c7e9)">
     <use style="fill:#808080;fill-opacity:0.85022;stroke:#808080;stroke-opacity:0.85022;" x="250.325197" xlink:href="#C1_0_39eb5caeba" y="279.519899"/>
    </g>
    <g clip-path="url(#p6deaf1c7e9)">
     <use style="fill:#808080;fill-opacity:0.853772;stroke:#808080;stroke-opacity:0.853772;" x="215.387513" xlink:href="#C1_0_39eb5caeba" y="226.331321"/>
    </g>
    <g clip-path="url(#p6deaf1c7e9)">
     <use style="fill:#808080;fill-opacity:0.854652;stroke:#808080;stroke-opacity:0.854652;" x="303.431441" xlink:href="#C1_0_39eb5caeba" y="199.598919"/>
    </g>
    <g clip-path="url(#p6deaf1c7e9)">
     <use style="fill:#808080;fill-opacity:0.869422;stroke:#808080;stroke-opacity:0.869422;" x="201.836877" xlink:href="#C1_0_39eb5caeba" y="228.46898"/>
    </g>
    <g clip-path="url(#p6deaf1c7e9)">
     <use style="fill:#808080;fill-opacity:0.881652;stroke:#808080;stroke-opacity:0.881652;" x="189.751678" xlink:href="#C1_0_39eb5caeba" y="230.139384"/>
    </g>
    <g clip-path="url(#p6deaf1c7e9)">
     <use style="fill:#808080;fill-opacity:0.887636;stroke:#808080;stroke-opacity:0.887636;" x="181.859919" xlink:href="#C1_0_39eb5caeba" y="257.926345"/>
    </g>
    <g clip-path="url(#p6deaf1c7e9)">
     <use style="fill:#808080;fill-opacity:0.892729;stroke:#808080;stroke-opacity:0.892729;" x="299.870708" xlink:href="#C1_0_39eb5caeba" y="177.677115"/>
    </g>
    <g clip-path="url(#p6deaf1c7e9)">
     <use style="fill:#808080;fill-opacity:0.897383;stroke:#808080;stroke-opacity:0.897383;" x="288.061264" xlink:href="#C1_0_39eb5caeba" y="259.292231"/>
    </g>
    <g clip-path="url(#p6deaf1c7e9)">
     <use style="fill:#808080;fill-opacity:0.898211;stroke:#808080;stroke-opacity:0.898211;" x="176.314764" xlink:href="#C1_0_39eb5caeba" y="232.401128"/>
    </g>
    <g clip-path="url(#p6deaf1c7e9)">
     <use style="fill:#808080;fill-opacity:0.899497;stroke:#808080;stroke-opacity:0.899497;" x="290.461459" xlink:href="#C1_0_39eb5caeba" y="232.57677"/>
    </g>
    <g clip-path="url(#p6deaf1c7e9)">
     <use style="fill:#808080;fill-opacity:0.902855;stroke:#808080;stroke-opacity:0.902855;" x="278.065032" xlink:href="#C1_0_39eb5caeba" y="233.035428"/>
    </g>
    <g clip-path="url(#p6deaf1c7e9)">
     <use style="fill:#808080;fill-opacity:0.903397;stroke:#808080;stroke-opacity:0.903397;" x="200.198415" xlink:href="#C1_0_39eb5caeba" y="233.109478"/>
    </g>
    <g clip-path="url(#p6deaf1c7e9)">
     <use style="fill:#808080;fill-opacity:0.905659;stroke:#808080;stroke-opacity:0.905659;" x="185.488261" xlink:href="#C1_0_39eb5caeba" y="260.451871"/>
    </g>
    <g clip-path="url(#p6deaf1c7e9)">
     <use style="fill:#808080;fill-opacity:0.91359;stroke:#808080;stroke-opacity:0.91359;" x="302.988959" xlink:href="#C1_0_39eb5caeba" y="180.378447"/>
    </g>
    <g clip-path="url(#p6deaf1c7e9)">
     <use style="fill:#808080;fill-opacity:0.923018;stroke:#808080;stroke-opacity:0.923018;" x="305.903205" xlink:href="#C1_0_39eb5caeba" y="181.599217"/>
    </g>
    <g clip-path="url(#p6deaf1c7e9)">
     <use style="fill:#808080;fill-opacity:0.938311;stroke:#808080;stroke-opacity:0.938311;" x="233.791544" xlink:href="#C1_0_39eb5caeba" y="292.176962"/>
    </g>
    <g clip-path="url(#p6deaf1c7e9)">
     <use style="fill:#808080;fill-opacity:0.939446;stroke:#808080;stroke-opacity:0.939446;" x="179.712397" xlink:href="#C1_0_39eb5caeba" y="265.186709"/>
    </g>
    <g clip-path="url(#p6deaf1c7e9)">
     <use style="fill:#808080;fill-opacity:0.945617;stroke:#808080;stroke-opacity:0.945617;" x="266.481286" xlink:href="#C1_0_39eb5caeba" y="293.226679"/>
    </g>
    <g clip-path="url(#p6deaf1c7e9)">
     <use style="fill:#808080;fill-opacity:0.948009;stroke:#808080;stroke-opacity:0.948009;" x="297.152239" xlink:href="#C1_0_39eb5caeba" y="157.651595"/>
    </g>
    <g clip-path="url(#p6deaf1c7e9)">
     <use style="fill:#808080;fill-opacity:0.950266;stroke:#808080;stroke-opacity:0.950266;" x="217.239777" xlink:href="#C1_0_39eb5caeba" y="239.511162"/>
    </g>
    <g clip-path="url(#p6deaf1c7e9)">
     <use style="fill:#808080;fill-opacity:0.953019;stroke:#808080;stroke-opacity:0.953019;" x="299.325641" xlink:href="#C1_0_39eb5caeba" y="158.282551"/>
    </g>
    <g clip-path="url(#p6deaf1c7e9)">
     <use style="fill:#808080;fill-opacity:0.958492;stroke:#808080;stroke-opacity:0.958492;" x="196.674445" xlink:href="#C1_0_39eb5caeba" y="240.63476"/>
    </g>
    <g clip-path="url(#p6deaf1c7e9)">
     <use style="fill:#808080;fill-opacity:0.97214;stroke:#808080;stroke-opacity:0.97214;" x="195.592826" xlink:href="#C1_0_39eb5caeba" y="269.768182"/>
    </g>
    <g clip-path="url(#p6deaf1c7e9)">
     <use style="fill:#808080;fill-opacity:0.976461;stroke:#808080;stroke-opacity:0.976461;" x="210.139007" xlink:href="#C1_0_39eb5caeba" y="297.658362"/>
    </g>
    <g clip-path="url(#p6deaf1c7e9)">
     <use style="fill:#808080;fill-opacity:0.986716;stroke:#808080;stroke-opacity:0.986716;" x="217.97672" xlink:href="#C1_0_39eb5caeba" y="299.131878"/>
    </g>
    <g clip-path="url(#p6deaf1c7e9)">
     <use style="fill:#808080;fill-opacity:0.991814;stroke:#808080;stroke-opacity:0.991814;" x="235.533053" xlink:href="#C1_0_39eb5caeba" y="272.52516"/>
    </g>
    <g clip-path="url(#p6deaf1c7e9)">
     <use style="fill:#808080;stroke:#808080;" x="182.345823" xlink:href="#C1_0_39eb5caeba" y="246.304158"/>
    </g>
   </g>
   <g id="legend_1">
    <g id="patch_6">
     <path d="M 314.455 74.518125 
L 377.48 74.518125 
Q 379.48 74.518125 379.48 72.518125 
L 379.48 58.84 
Q 379.48 56.84 377.48 56.84 
L 314.455 56.84 
Q 312.455 56.84 312.455 58.84 
L 312.455 72.518125 
Q 312.455 74.518125 314.455 74.518125 
z
" style="fill:#ffffff;opacity:0.8;stroke:#cccccc;stroke-linejoin:miter;"/>
    </g>
    <g id="Path3DCollection_3">
     <defs>
      <path d="M 0 5 
C 1.326016 5 2.597899 4.473168 3.535534 3.535534 
C 4.473168 2.597899 5 1.326016 5 0 
C 5 -1.326016 4.473168 -2.597899 3.535534 -3.535534 
C 2.597899 -4.473168 1.326016 -5 0 -5 
C -1.326016 -5 -2.597899 -4.473168 -3.535534 -3.535534 
C -4.473168 -2.597899 -5 -1.326016 -5 0 
C -5 1.326016 -4.473168 2.597899 -3.535534 3.535534 
C -2.597899 4.473168 -1.326016 5 0 5 
z
" id="mac8c2ffd43" style="stroke:#ff0000;"/>
     </defs>
     <g>
      <use style="fill:#ff0000;stroke:#ff0000;" x="326.455" xlink:href="#mac8c2ffd43" y="65.813438"/>
     </g>
    </g>
    <g id="text_2">
     <!-- Timp3 -->
     <g transform="translate(344.455 68.438438)scale(0.1 -0.1)">
      <use xlink:href="#DejaVuSans-84"/>
      <use x="57.958984" xlink:href="#DejaVuSans-105"/>
      <use x="85.742188" xlink:href="#DejaVuSans-109"/>
      <use x="183.154297" xlink:href="#DejaVuSans-112"/>
      <use x="246.630859" xlink:href="#DejaVuSans-51"/>
     </g>
    </g>
   </g>
  </g>
 </g>
 <defs>
  <clipPath id="p6deaf1c7e9">
   <rect height="326.16" width="326.16" x="58.32" y="51.84"/>
  </clipPath>
 </defs>
</svg>
