<?xml version="1.0" encoding="utf-8" standalone="no"?>
<!DOCTYPE svg PUBLIC "-//W3C//DTD SVG 1.1//EN"
  "http://www.w3.org/Graphics/SVG/1.1/DTD/svg11.dtd">
<!-- Created with matplotlib (https://matplotlib.org/) -->
<svg height="720pt" version="1.1" viewBox="0 0 1080 720" width="1080pt" xmlns="http://www.w3.org/2000/svg" xmlns:xlink="http://www.w3.org/1999/xlink">
 <metadata>
  <rdf:RDF xmlns:cc="http://creativecommons.org/ns#" xmlns:dc="http://purl.org/dc/elements/1.1/" xmlns:rdf="http://www.w3.org/1999/02/22-rdf-syntax-ns#">
   <cc:Work>
    <dc:type rdf:resource="http://purl.org/dc/dcmitype/StillImage"/>
    <dc:date>2022-03-23T21:24:32.183973</dc:date>
    <dc:format>image/svg+xml</dc:format>
    <dc:creator>
     <cc:Agent>
      <dc:title>Matplotlib v3.3.3, https://matplotlib.org/</dc:title>
     </cc:Agent>
    </dc:creator>
   </cc:Work>
  </rdf:RDF>
 </metadata>
 <defs>
  <style type="text/css">*{stroke-linecap:butt;stroke-linejoin:round;}</style>
 </defs>
 <g id="figure_1">
  <g id="patch_1">
   <path d="M 0 720 
L 1080 720 
L 1080 0 
L 0 0 
z
" style="fill:none;"/>
  </g>
  <g id="axes_1">
   <g id="patch_2">
    <path d="M 135 358.2 
L 414 358.2 
L 414 86.4 
L 135 86.4 
z
" style="fill:#ffffff;"/>
   </g>
   <g id="PathCollection_1">
    <defs>
     <path d="M 0 3 
C 0.795609 3 1.55874 2.683901 2.12132 2.12132 
C 2.683901 1.55874 3 0.795609 3 -0 
C 3 -0.795609 2.683901 -1.55874 2.12132 -2.12132 
C 1.55874 -2.683901 0.795609 -3 0 -3 
C -0.795609 -3 -1.55874 -2.683901 -2.12132 -2.12132 
C -2.683901 -1.55874 -3 -0.795609 -3 0 
C -3 0.795609 -2.683901 1.55874 -2.12132 2.12132 
C -1.55874 2.683901 -0.795609 3 0 3 
z
" id="C0_0_05f0266fdb"/>
    </defs>
    <g clip-path="url(#p770871aad2)">
     <use style="fill:#808080;fill-opacity:0.8;stroke:#808080;stroke-opacity:0.8;" x="379.105579" xlink:href="#C0_0_05f0266fdb" y="153.197423"/>
    </g>
    <g clip-path="url(#p770871aad2)">
     <use style="fill:#808080;fill-opacity:0.8;stroke:#808080;stroke-opacity:0.8;" x="380.875921" xlink:href="#C0_0_05f0266fdb" y="167.23779"/>
    </g>
    <g clip-path="url(#p770871aad2)">
     <use style="fill:#808080;fill-opacity:0.8;stroke:#808080;stroke-opacity:0.8;" x="383.667495" xlink:href="#C0_0_05f0266fdb" y="163.045058"/>
    </g>
    <g clip-path="url(#p770871aad2)">
     <use style="fill:#808080;fill-opacity:0.8;stroke:#808080;stroke-opacity:0.8;" x="250.576952" xlink:href="#C0_0_05f0266fdb" y="306.401255"/>
    </g>
    <g clip-path="url(#p770871aad2)">
     <use style="fill:#808080;fill-opacity:0.8;stroke:#808080;stroke-opacity:0.8;" x="325.478603" xlink:href="#C0_0_05f0266fdb" y="197.346185"/>
    </g>
    <g clip-path="url(#p770871aad2)">
     <use style="fill:#808080;fill-opacity:0.8;stroke:#808080;stroke-opacity:0.8;" x="354.941488" xlink:href="#C0_0_05f0266fdb" y="352.820786"/>
    </g>
    <g clip-path="url(#p770871aad2)">
     <use style="fill:#808080;fill-opacity:0.8;stroke:#808080;stroke-opacity:0.8;" x="331.807803" xlink:href="#C0_0_05f0266fdb" y="227.542663"/>
    </g>
    <g clip-path="url(#p770871aad2)">
     <use style="fill:#808080;fill-opacity:0.8;stroke:#808080;stroke-opacity:0.8;" x="331.275783" xlink:href="#C0_0_05f0266fdb" y="344.183406"/>
    </g>
   </g>
   <g id="PathCollection_2"/>
   <g id="patch_3">
    <path clip-path="url(#p770871aad2)" d="M 401.061831 235.679747 
L 401.061831 245.236709 
L 401.061831 254.793671 
L 401.061831 264.350633 
L 401.061831 273.907595 
L 397.744352 281.553165 
L 397.744352 291.110127 
L 394.426873 298.755696 
L 394.095125 306.592405 
L 391.109394 315.958228 
L 387.791914 323.603797 
L 384.474435 331.249367 
L 381.156956 338.894937 
L 377.839477 346.540506 
L 374.521998 354.186076 
L 367.555291 358.2 
L 357.602854 354.377215 
L 341.015458 354.377215 
L 327.745541 352.465823 
L 314.475624 350.55443 
L 307.508918 346.540506 
L 297.888228 340.997468 
L 290.921522 336.983544 
L 280.969084 333.160759 
L 271.016647 329.337975 
L 261.064209 325.51519 
L 251.111772 321.692405 
L 241.159334 317.86962 
L 231.206897 314.046835 
L 221.586207 308.503797 
L 211.302021 306.401266 
L 198.363853 302.76962 
L 188.411415 298.946835 
L 188.079667 291.110127 
L 188.079667 281.553165 
L 188.411415 273.716456 
L 195.046373 267.982278 
L 204.667063 262.439241 
L 211.302021 256.705063 
L 218.268728 252.691139 
L 227.889417 247.148101 
L 238.173603 245.04557 
L 247.794293 239.502532 
L 254.429251 233.768354 
L 257.74673 226.122785 
L 264.381688 220.388608 
L 271.016647 214.65443 
L 277.983353 210.640506 
L 287.604043 205.097468 
L 294.570749 201.083544 
L 307.840666 199.172152 
L 321.110583 197.260759 
L 334.380499 195.349367 
L 347.318668 191.717722 
L 354.285375 187.703797 
L 360.588585 180.249367 
L 360.588585 170.692405 
L 360.588585 161.135443 
L 360.588585 151.578481 
L 360.588585 142.021519 
L 360.588585 132.464557 
L 360.588585 122.907595 
L 360.588585 113.350633 
L 360.588585 103.793671 
L 367.223543 98.059494 
L 380.825208 97.868354 
L 384.474435 103.793671 
L 384.474435 113.350633 
L 387.791914 120.996203 
L 387.791914 130.553165 
L 391.109394 138.198734 
L 391.109394 147.755696 
L 391.109394 157.312658 
L 391.109394 166.86962 
L 391.109394 176.426582 
L 394.426873 184.072152 
L 394.426873 193.629114 
L 397.412604 202.994937 
L 397.744352 210.831646 
L 397.744352 220.388608 
L 397.744352 229.94557 
z
" style="fill:none;stroke:#000000;stroke-linejoin:miter;"/>
   </g>
   <g id="matplotlib.axis_1"/>
   <g id="matplotlib.axis_2"/>
   <g id="patch_4">
    <path d="M 135 358.2 
L 135 86.4 
" style="fill:none;stroke:#000000;stroke-linecap:square;stroke-linejoin:miter;stroke-width:0.8;"/>
   </g>
   <g id="patch_5">
    <path d="M 414 358.2 
L 414 86.4 
" style="fill:none;stroke:#000000;stroke-linecap:square;stroke-linejoin:miter;stroke-width:0.8;"/>
   </g>
   <g id="patch_6">
    <path d="M 135 358.2 
L 414 358.2 
" style="fill:none;stroke:#000000;stroke-linecap:square;stroke-linejoin:miter;stroke-width:0.8;"/>
   </g>
   <g id="patch_7">
    <path d="M 135 86.4 
L 414 86.4 
" style="fill:none;stroke:#000000;stroke-linecap:square;stroke-linejoin:miter;stroke-width:0.8;"/>
   </g>
  </g>
  <g id="axes_2">
   <g id="patch_8">
    <path d="M 414 358.2 
L 693 358.2 
L 693 86.4 
L 414 86.4 
z
" style="fill:#ffffff;"/>
   </g>
   <g id="PathCollection_3">
    <defs>
     <path d="M 0 3 
C 0.795609 3 1.55874 2.683901 2.12132 2.12132 
C 2.683901 1.55874 3 0.795609 3 -0 
C 3 -0.795609 2.683901 -1.55874 2.12132 -2.12132 
C 1.55874 -2.683901 0.795609 -3 0 -3 
C -0.795609 -3 -1.55874 -2.683901 -2.12132 -2.12132 
C -2.683901 -1.55874 -3 -0.795609 -3 0 
C -3 0.795609 -2.683901 1.55874 -2.12132 2.12132 
C -1.55874 2.683901 -0.795609 3 0 3 
z
" id="C1_0_516ce0d5fa"/>
    </defs>
    <g clip-path="url(#p34aad60a1c)">
     <use style="fill:#808080;fill-opacity:0.8;stroke:#808080;stroke-opacity:0.8;" x="621.335066" xlink:href="#C1_0_516ce0d5fa" y="253.035529"/>
    </g>
    <g clip-path="url(#p34aad60a1c)">
     <use style="fill:#808080;fill-opacity:0.8;stroke:#808080;stroke-opacity:0.8;" x="647.608891" xlink:href="#C1_0_516ce0d5fa" y="202.911244"/>
    </g>
    <g clip-path="url(#p34aad60a1c)">
     <use style="fill:#808080;fill-opacity:0.8;stroke:#808080;stroke-opacity:0.8;" x="650.782664" xlink:href="#C1_0_516ce0d5fa" y="147.56366"/>
    </g>
    <g clip-path="url(#p34aad60a1c)">
     <use style="fill:#808080;fill-opacity:0.8;stroke:#808080;stroke-opacity:0.8;" x="535.190678" xlink:href="#C1_0_516ce0d5fa" y="239.25941"/>
    </g>
    <g clip-path="url(#p34aad60a1c)">
     <use style="fill:#808080;fill-opacity:0.8;stroke:#808080;stroke-opacity:0.8;" x="573.306527" xlink:href="#C1_0_516ce0d5fa" y="228.402349"/>
    </g>
   </g>
   <g id="PathCollection_4">
    <defs>
     <path d="M 0 4.242641 
C 1.125161 4.242641 2.204391 3.795609 3 3 
C 3.795609 2.204391 4.242641 1.125161 4.242641 0 
C 4.242641 -1.125161 3.795609 -2.204391 3 -3 
C 2.204391 -3.795609 1.125161 -4.242641 0 -4.242641 
C -1.125161 -4.242641 -2.204391 -3.795609 -3 -3 
C -3.795609 -2.204391 -4.242641 -1.125161 -4.242641 0 
C -4.242641 1.125161 -3.795609 2.204391 -3 3 
C -2.204391 3.795609 -1.125161 4.242641 0 4.242641 
z
" id="m8692e63bba" style="stroke:#ff0000;stroke-opacity:0.8;"/>
    </defs>
    <g clip-path="url(#p34aad60a1c)">
     <use style="fill:#ff0000;fill-opacity:0.8;stroke:#ff0000;stroke-opacity:0.8;" x="602.934522" xlink:href="#m8692e63bba" y="258.614681"/>
    </g>
   </g>
   <g id="patch_9">
    <path clip-path="url(#p34aad60a1c)" d="M 680.061831 218.477215 
L 680.061831 228.034177 
L 680.061831 237.591139 
L 680.061831 247.148101 
L 680.061831 256.705063 
L 680.061831 266.262025 
L 676.744352 273.907595 
L 676.744352 283.464557 
L 673.426873 291.110127 
L 670.109394 298.755696 
L 670.109394 308.312658 
L 666.791914 315.958228 
L 663.474435 323.603797 
L 660.156956 331.249367 
L 656.507729 337.174684 
L 646.555291 340.997468 
L 633.285375 339.086076 
L 616.697979 339.086076 
L 603.428062 337.174684 
L 593.143876 335.072152 
L 580.205707 331.440506 
L 569.921522 329.337975 
L 556.983353 325.706329 
L 543.713436 323.794937 
L 533.760999 319.972152 
L 520.491082 318.060759 
L 510.538644 314.237975 
L 500.586207 310.41519 
L 490.633769 306.592405 
L 480.349584 304.489873 
L 467.411415 300.858228 
L 467.079667 293.021519 
L 467.079667 283.464557 
L 467.079667 273.907595 
L 473.714625 268.173418 
L 480.681332 264.159494 
L 487.31629 258.425316 
L 496.93698 252.882278 
L 503.903686 248.868354 
L 513.856124 245.04557 
L 526.794293 241.413924 
L 530.44352 235.488608 
L 536.74673 228.034177 
L 543.381688 222.3 
L 550.016647 216.565823 
L 556.651605 210.831646 
L 563.618312 206.817722 
L 573.239001 201.274684 
L 583.523187 199.172152 
L 596.793103 197.260759 
L 613.048751 195.540506 
L 623.332937 193.437975 
L 632.953627 187.894937 
L 639.588585 182.160759 
L 639.588585 172.603797 
L 639.588585 163.046835 
L 639.588585 153.489873 
L 639.588585 143.932911 
L 639.588585 134.375949 
L 639.588585 124.818987 
L 639.588585 115.262025 
L 639.588585 105.705063 
L 646.223543 99.970886 
L 656.507729 97.868354 
L 663.474435 101.882278 
L 666.791914 109.527848 
L 666.791914 119.08481 
L 670.109394 126.73038 
L 670.109394 136.287342 
L 670.109394 145.844304 
L 670.109394 155.401266 
L 673.426873 163.046835 
L 673.426873 172.603797 
L 673.426873 182.160759 
L 673.426873 191.717722 
L 676.744352 199.363291 
L 676.744352 208.920253 
L 679.730083 218.286076 
z
" style="fill:none;stroke:#000000;stroke-linejoin:miter;"/>
   </g>
   <g id="matplotlib.axis_3"/>
   <g id="matplotlib.axis_4"/>
   <g id="patch_10">
    <path d="M 414 358.2 
L 414 86.4 
" style="fill:none;stroke:#000000;stroke-linecap:square;stroke-linejoin:miter;stroke-width:0.8;"/>
   </g>
   <g id="patch_11">
    <path d="M 693 358.2 
L 693 86.4 
" style="fill:none;stroke:#000000;stroke-linecap:square;stroke-linejoin:miter;stroke-width:0.8;"/>
   </g>
   <g id="patch_12">
    <path d="M 414 358.2 
L 693 358.2 
" style="fill:none;stroke:#000000;stroke-linecap:square;stroke-linejoin:miter;stroke-width:0.8;"/>
   </g>
   <g id="patch_13">
    <path d="M 414 86.4 
L 693 86.4 
" style="fill:none;stroke:#000000;stroke-linecap:square;stroke-linejoin:miter;stroke-width:0.8;"/>
   </g>
  </g>
  <g id="axes_3">
   <g id="patch_14">
    <path d="M 693 358.2 
L 972 358.2 
L 972 86.4 
L 693 86.4 
z
" style="fill:#ffffff;"/>
   </g>
   <g id="PathCollection_5">
    <defs>
     <path d="M 0 3 
C 0.795609 3 1.55874 2.683901 2.12132 2.12132 
C 2.683901 1.55874 3 0.795609 3 -0 
C 3 -0.795609 2.683901 -1.55874 2.12132 -2.12132 
C 1.55874 -2.683901 0.795609 -3 0 -3 
C -0.795609 -3 -1.55874 -2.683901 -2.12132 -2.12132 
C -2.683901 -1.55874 -3 -0.795609 -3 0 
C -3 0.795609 -2.683901 1.55874 -2.12132 2.12132 
C -1.55874 2.683901 -0.795609 3 0 3 
z
" id="C2_0_96f0c54e71"/>
    </defs>
    <g clip-path="url(#pdc606d0237)">
     <use style="fill:#808080;fill-opacity:0.8;stroke:#808080;stroke-opacity:0.8;" x="833.545188" xlink:href="#C2_0_96f0c54e71" y="123.384985"/>
    </g>
    <g clip-path="url(#pdc606d0237)">
     <use style="fill:#808080;fill-opacity:0.8;stroke:#808080;stroke-opacity:0.8;" x="843.528202" xlink:href="#C2_0_96f0c54e71" y="132.291898"/>
    </g>
    <g clip-path="url(#pdc606d0237)">
     <use style="fill:#808080;fill-opacity:0.8;stroke:#808080;stroke-opacity:0.8;" x="845.032534" xlink:href="#C2_0_96f0c54e71" y="126.941761"/>
    </g>
    <g clip-path="url(#pdc606d0237)">
     <use style="fill:#808080;fill-opacity:0.8;stroke:#808080;stroke-opacity:0.8;" x="928.064301" xlink:href="#C2_0_96f0c54e71" y="149.667072"/>
    </g>
    <g clip-path="url(#pdc606d0237)">
     <use style="fill:#808080;fill-opacity:0.8;stroke:#808080;stroke-opacity:0.8;" x="858.128169" xlink:href="#C2_0_96f0c54e71" y="140.205239"/>
    </g>
    <g clip-path="url(#pdc606d0237)">
     <use style="fill:#808080;fill-opacity:0.8;stroke:#808080;stroke-opacity:0.8;" x="853.477582" xlink:href="#C2_0_96f0c54e71" y="108.627626"/>
    </g>
    <g clip-path="url(#pdc606d0237)">
     <use style="fill:#808080;fill-opacity:0.8;stroke:#808080;stroke-opacity:0.8;" x="835.419488" xlink:href="#C2_0_96f0c54e71" y="120.240437"/>
    </g>
    <g clip-path="url(#pdc606d0237)">
     <use style="fill:#808080;fill-opacity:0.8;stroke:#808080;stroke-opacity:0.8;" x="825.574065" xlink:href="#C2_0_96f0c54e71" y="130.803302"/>
    </g>
    <g clip-path="url(#pdc606d0237)">
     <use style="fill:#808080;fill-opacity:0.8;stroke:#808080;stroke-opacity:0.8;" x="823.476562" xlink:href="#C2_0_96f0c54e71" y="313.574702"/>
    </g>
    <g clip-path="url(#pdc606d0237)">
     <use style="fill:#808080;fill-opacity:0.8;stroke:#808080;stroke-opacity:0.8;" x="795.056313" xlink:href="#C2_0_96f0c54e71" y="302.50448"/>
    </g>
    <g clip-path="url(#pdc606d0237)">
     <use style="fill:#808080;fill-opacity:0.8;stroke:#808080;stroke-opacity:0.8;" x="893.706223" xlink:href="#C2_0_96f0c54e71" y="227.560279"/>
    </g>
    <g clip-path="url(#pdc606d0237)">
     <use style="fill:#808080;fill-opacity:0.8;stroke:#808080;stroke-opacity:0.8;" x="758.778072" xlink:href="#C2_0_96f0c54e71" y="236.150095"/>
    </g>
    <g clip-path="url(#pdc606d0237)">
     <use style="fill:#808080;fill-opacity:0.8;stroke:#808080;stroke-opacity:0.8;" x="928.587148" xlink:href="#C2_0_96f0c54e71" y="153.814001"/>
    </g>
   </g>
   <g id="PathCollection_6"/>
   <g id="patch_15">
    <path clip-path="url(#pdc606d0237)" d="M 962.37931 247.148101 
L 962.047562 254.98481 
L 959.061831 264.350633 
L 955.744352 271.996203 
L 955.412604 279.832911 
L 952.095125 287.478481 
L 949.109394 296.844304 
L 945.460166 302.76962 
L 939.156956 310.224051 
L 935.507729 316.149367 
L 928.872771 321.883544 
L 915.602854 323.794937 
L 902.332937 325.706329 
L 889.06302 327.617722 
L 875.793103 329.529114 
L 862.523187 331.440506 
L 845.935791 331.440506 
L 835.983353 331.440506 
L 819.395957 331.440506 
L 809.44352 327.617722 
L 799.491082 323.794937 
L 789.538644 319.972152 
L 782.571938 315.958228 
L 772.619501 312.135443 
L 762.667063 308.312658 
L 752.714625 304.489873 
L 742.762188 300.667089 
L 733.141498 295.124051 
L 726.174792 291.110127 
L 719.539834 285.375949 
L 712.904875 279.641772 
L 706.269917 273.907595 
L 709.587396 266.262025 
L 712.904875 258.616456 
L 716.554102 252.691139 
L 726.174792 247.148101 
L 736.127229 243.325316 
L 746.079667 239.502532 
L 753.046373 235.488608 
L 759.681332 229.75443 
L 769.302021 224.211392 
L 775.93698 218.477215 
L 782.571938 212.743038 
L 789.538644 208.729114 
L 799.491082 204.906329 
L 809.44352 201.083544 
L 822.713436 199.172152 
L 835.983353 197.260759 
L 852.239001 195.540506 
L 859.205707 191.526582 
L 868.826397 185.983544 
L 875.793103 181.96962 
L 885.745541 178.146835 
L 895.366231 172.603797 
L 898.68371 164.958228 
L 898.68371 155.401266 
L 898.68371 145.844304 
L 889.06302 140.301266 
L 875.793103 142.212658 
L 859.205707 142.212658 
L 842.618312 142.212658 
L 832.665874 138.389873 
L 825.699168 134.375949 
L 819.064209 128.641772 
L 815.74673 120.996203 
L 809.44352 113.541772 
L 802.476813 109.527848 
L 792.524376 105.705063 
L 796.173603 103.602532 
L 809.44352 101.691139 
L 826.030916 101.691139 
L 839.300832 99.779747 
L 855.888228 99.779747 
L 872.475624 99.779747 
L 889.06302 99.779747 
L 896.029727 103.793671 
L 899.347206 111.439241 
L 908.967895 116.982278 
L 918.588585 111.439241 
L 918.920333 103.602532 
L 925.555291 97.868354 
L 942.142687 97.868354 
L 942.474435 105.705063 
L 945.791914 113.350633 
L 948.777646 122.716456 
L 949.109394 130.553165 
L 952.426873 138.198734 
L 955.744352 145.844304 
L 958.730083 155.210127 
L 959.061831 163.046835 
L 955.744352 170.692405 
L 955.744352 180.249367 
L 955.744352 189.806329 
L 955.744352 199.363291 
L 955.744352 208.920253 
L 958.730083 218.286076 
L 959.061831 226.122785 
L 959.061831 235.679747 
L 959.061831 245.236709 
z
" style="fill:none;stroke:#000000;stroke-linejoin:miter;"/>
   </g>
   <g id="matplotlib.axis_5"/>
   <g id="matplotlib.axis_6"/>
   <g id="patch_16">
    <path d="M 693 358.2 
L 693 86.4 
" style="fill:none;stroke:#000000;stroke-linecap:square;stroke-linejoin:miter;stroke-width:0.8;"/>
   </g>
   <g id="patch_17">
    <path d="M 972 358.2 
L 972 86.4 
" style="fill:none;stroke:#000000;stroke-linecap:square;stroke-linejoin:miter;stroke-width:0.8;"/>
   </g>
   <g id="patch_18">
    <path d="M 693 358.2 
L 972 358.2 
" style="fill:none;stroke:#000000;stroke-linecap:square;stroke-linejoin:miter;stroke-width:0.8;"/>
   </g>
   <g id="patch_19">
    <path d="M 693 86.4 
L 972 86.4 
" style="fill:none;stroke:#000000;stroke-linecap:square;stroke-linejoin:miter;stroke-width:0.8;"/>
   </g>
  </g>
  <g id="axes_4">
   <g id="patch_20">
    <path d="M 135 630 
L 414 630 
L 414 358.2 
L 135 358.2 
z
" style="fill:#ffffff;"/>
   </g>
   <g id="PathCollection_7">
    <defs>
     <path d="M 0 3 
C 0.795609 3 1.55874 2.683901 2.12132 2.12132 
C 2.683901 1.55874 3 0.795609 3 -0 
C 3 -0.795609 2.683901 -1.55874 2.12132 -2.12132 
C 1.55874 -2.683901 0.795609 -3 0 -3 
C -0.795609 -3 -1.55874 -2.683901 -2.12132 -2.12132 
C -2.683901 -1.55874 -3 -0.795609 -3 0 
C -3 0.795609 -2.683901 1.55874 -2.12132 2.12132 
C -1.55874 2.683901 -0.795609 3 0 3 
z
" id="C3_0_e0055d854d"/>
    </defs>
    <g clip-path="url(#p9aa96bac7d)">
     <use style="fill:#808080;fill-opacity:0.8;stroke:#808080;stroke-opacity:0.8;" x="203.077375" xlink:href="#C3_0_e0055d854d" y="507.49735"/>
    </g>
    <g clip-path="url(#p9aa96bac7d)">
     <use style="fill:#808080;fill-opacity:0.8;stroke:#808080;stroke-opacity:0.8;" x="204.32487" xlink:href="#C3_0_e0055d854d" y="548.339491"/>
    </g>
    <g clip-path="url(#p9aa96bac7d)">
     <use style="fill:#808080;fill-opacity:0.8;stroke:#808080;stroke-opacity:0.8;" x="213.595466" xlink:href="#C3_0_e0055d854d" y="471.332395"/>
    </g>
    <g clip-path="url(#p9aa96bac7d)">
     <use style="fill:#808080;fill-opacity:0.8;stroke:#808080;stroke-opacity:0.8;" x="215.769409" xlink:href="#C3_0_e0055d854d" y="523.257089"/>
    </g>
    <g clip-path="url(#p9aa96bac7d)">
     <use style="fill:#808080;fill-opacity:0.8;stroke:#808080;stroke-opacity:0.8;" x="226.024548" xlink:href="#C3_0_e0055d854d" y="514.750071"/>
    </g>
    <g clip-path="url(#p9aa96bac7d)">
     <use style="fill:#808080;fill-opacity:0.8;stroke:#808080;stroke-opacity:0.8;" x="238.193735" xlink:href="#C3_0_e0055d854d" y="478.807085"/>
    </g>
    <g clip-path="url(#p9aa96bac7d)">
     <use style="fill:#808080;fill-opacity:0.8;stroke:#808080;stroke-opacity:0.8;" x="243.394686" xlink:href="#C3_0_e0055d854d" y="381.326069"/>
    </g>
    <g clip-path="url(#p9aa96bac7d)">
     <use style="fill:#808080;fill-opacity:0.8;stroke:#808080;stroke-opacity:0.8;" x="246.488962" xlink:href="#C3_0_e0055d854d" y="530.087014"/>
    </g>
    <g clip-path="url(#p9aa96bac7d)">
     <use style="fill:#808080;fill-opacity:0.8;stroke:#808080;stroke-opacity:0.8;" x="262.449553" xlink:href="#C3_0_e0055d854d" y="584.377607"/>
    </g>
    <g clip-path="url(#p9aa96bac7d)">
     <use style="fill:#808080;fill-opacity:0.8;stroke:#808080;stroke-opacity:0.8;" x="268.28954" xlink:href="#C3_0_e0055d854d" y="480.633918"/>
    </g>
    <g clip-path="url(#p9aa96bac7d)">
     <use style="fill:#808080;fill-opacity:0.8;stroke:#808080;stroke-opacity:0.8;" x="275.673607" xlink:href="#C3_0_e0055d854d" y="429.531915"/>
    </g>
    <g clip-path="url(#p9aa96bac7d)">
     <use style="fill:#808080;fill-opacity:0.8;stroke:#808080;stroke-opacity:0.8;" x="280.293617" xlink:href="#C3_0_e0055d854d" y="403.898116"/>
    </g>
    <g clip-path="url(#p9aa96bac7d)">
     <use style="fill:#808080;fill-opacity:0.8;stroke:#808080;stroke-opacity:0.8;" x="280.541282" xlink:href="#C3_0_e0055d854d" y="417.845116"/>
    </g>
    <g clip-path="url(#p9aa96bac7d)">
     <use style="fill:#808080;fill-opacity:0.8;stroke:#808080;stroke-opacity:0.8;" x="283.861818" xlink:href="#C3_0_e0055d854d" y="497.933341"/>
    </g>
    <g clip-path="url(#p9aa96bac7d)">
     <use style="fill:#808080;fill-opacity:0.8;stroke:#808080;stroke-opacity:0.8;" x="286.421017" xlink:href="#C3_0_e0055d854d" y="446.507194"/>
    </g>
    <g clip-path="url(#p9aa96bac7d)">
     <use style="fill:#808080;fill-opacity:0.8;stroke:#808080;stroke-opacity:0.8;" x="298.91125" xlink:href="#C3_0_e0055d854d" y="427.534202"/>
    </g>
    <g clip-path="url(#p9aa96bac7d)">
     <use style="fill:#808080;fill-opacity:0.8;stroke:#808080;stroke-opacity:0.8;" x="310.851118" xlink:href="#C3_0_e0055d854d" y="442.150629"/>
    </g>
    <g clip-path="url(#p9aa96bac7d)">
     <use style="fill:#808080;fill-opacity:0.8;stroke:#808080;stroke-opacity:0.8;" x="310.967306" xlink:href="#C3_0_e0055d854d" y="447.68574"/>
    </g>
    <g clip-path="url(#p9aa96bac7d)">
     <use style="fill:#808080;fill-opacity:0.8;stroke:#808080;stroke-opacity:0.8;" x="315.929766" xlink:href="#C3_0_e0055d854d" y="439.788254"/>
    </g>
    <g clip-path="url(#p9aa96bac7d)">
     <use style="fill:#808080;fill-opacity:0.8;stroke:#808080;stroke-opacity:0.8;" x="321.843134" xlink:href="#C3_0_e0055d854d" y="420.336092"/>
    </g>
    <g clip-path="url(#p9aa96bac7d)">
     <use style="fill:#808080;fill-opacity:0.8;stroke:#808080;stroke-opacity:0.8;" x="324.909892" xlink:href="#C3_0_e0055d854d" y="400.573879"/>
    </g>
    <g clip-path="url(#p9aa96bac7d)">
     <use style="fill:#808080;fill-opacity:0.8;stroke:#808080;stroke-opacity:0.8;" x="342.671401" xlink:href="#C3_0_e0055d854d" y="429.109119"/>
    </g>
    <g clip-path="url(#p9aa96bac7d)">
     <use style="fill:#808080;fill-opacity:0.8;stroke:#808080;stroke-opacity:0.8;" x="350.978858" xlink:href="#C3_0_e0055d854d" y="382.256221"/>
    </g>
    <g clip-path="url(#p9aa96bac7d)">
     <use style="fill:#808080;fill-opacity:0.8;stroke:#808080;stroke-opacity:0.8;" x="354.589866" xlink:href="#C3_0_e0055d854d" y="514.50344"/>
    </g>
    <g clip-path="url(#p9aa96bac7d)">
     <use style="fill:#808080;fill-opacity:0.8;stroke:#808080;stroke-opacity:0.8;" x="296.572198" xlink:href="#C3_0_e0055d854d" y="380.517471"/>
    </g>
    <g clip-path="url(#p9aa96bac7d)">
     <use style="fill:#808080;fill-opacity:0.8;stroke:#808080;stroke-opacity:0.8;" x="255.615852" xlink:href="#C3_0_e0055d854d" y="377.020591"/>
    </g>
    <g clip-path="url(#p9aa96bac7d)">
     <use style="fill:#808080;fill-opacity:0.8;stroke:#808080;stroke-opacity:0.8;" x="206.593598" xlink:href="#C3_0_e0055d854d" y="534.688449"/>
    </g>
    <g clip-path="url(#p9aa96bac7d)">
     <use style="fill:#808080;fill-opacity:0.8;stroke:#808080;stroke-opacity:0.8;" x="370.519881" xlink:href="#C3_0_e0055d854d" y="402.349624"/>
    </g>
    <g clip-path="url(#p9aa96bac7d)">
     <use style="fill:#808080;fill-opacity:0.8;stroke:#808080;stroke-opacity:0.8;" x="279.712676" xlink:href="#C3_0_e0055d854d" y="441.327937"/>
    </g>
    <g clip-path="url(#p9aa96bac7d)">
     <use style="fill:#808080;fill-opacity:0.8;stroke:#808080;stroke-opacity:0.8;" x="307.114749" xlink:href="#C3_0_e0055d854d" y="397.764044"/>
    </g>
    <g clip-path="url(#p9aa96bac7d)">
     <use style="fill:#808080;fill-opacity:0.8;stroke:#808080;stroke-opacity:0.8;" x="315.199003" xlink:href="#C3_0_e0055d854d" y="528.371165"/>
    </g>
    <g clip-path="url(#p9aa96bac7d)">
     <use style="fill:#808080;fill-opacity:0.8;stroke:#808080;stroke-opacity:0.8;" x="298.941826" xlink:href="#C3_0_e0055d854d" y="438.350746"/>
    </g>
    <g clip-path="url(#p9aa96bac7d)">
     <use style="fill:#808080;fill-opacity:0.8;stroke:#808080;stroke-opacity:0.8;" x="327.172504" xlink:href="#C3_0_e0055d854d" y="430.447974"/>
    </g>
    <g clip-path="url(#p9aa96bac7d)">
     <use style="fill:#808080;fill-opacity:0.8;stroke:#808080;stroke-opacity:0.8;" x="352.792006" xlink:href="#C3_0_e0055d854d" y="373.91656"/>
    </g>
    <g clip-path="url(#p9aa96bac7d)">
     <use style="fill:#808080;fill-opacity:0.8;stroke:#808080;stroke-opacity:0.8;" x="187.431715" xlink:href="#C3_0_e0055d854d" y="508.075172"/>
    </g>
    <g clip-path="url(#p9aa96bac7d)">
     <use style="fill:#808080;fill-opacity:0.8;stroke:#808080;stroke-opacity:0.8;" x="268.797099" xlink:href="#C3_0_e0055d854d" y="596.496011"/>
    </g>
    <g clip-path="url(#p9aa96bac7d)">
     <use style="fill:#808080;fill-opacity:0.8;stroke:#808080;stroke-opacity:0.8;" x="257.802025" xlink:href="#C3_0_e0055d854d" y="580.886012"/>
    </g>
    <g clip-path="url(#p9aa96bac7d)">
     <use style="fill:#808080;fill-opacity:0.8;stroke:#808080;stroke-opacity:0.8;" x="225.957281" xlink:href="#C3_0_e0055d854d" y="576.214111"/>
    </g>
   </g>
   <g id="PathCollection_8">
    <defs>
     <path d="M 0 4.242641 
C 1.125161 4.242641 2.204391 3.795609 3 3 
C 3.795609 2.204391 4.242641 1.125161 4.242641 -0 
C 4.242641 -1.125161 3.795609 -2.204391 3 -3 
C 2.204391 -3.795609 1.125161 -4.242641 0 -4.242641 
C -1.125161 -4.242641 -2.204391 -3.795609 -3 -3 
C -3.795609 -2.204391 -4.242641 -1.125161 -4.242641 0 
C -4.242641 1.125161 -3.795609 2.204391 -3 3 
C -2.204391 3.795609 -1.125161 4.242641 0 4.242641 
z
" id="C4_0_7f133df2b6"/>
    </defs>
    <g clip-path="url(#p9aa96bac7d)">
     <use style="fill:#ff0000;fill-opacity:0.8;stroke:#ff0000;stroke-opacity:0.8;" x="391.663079" xlink:href="#C4_0_7f133df2b6" y="432.012321"/>
    </g>
    <g clip-path="url(#p9aa96bac7d)">
     <use style="fill:#ff0000;fill-opacity:0.8;stroke:#ff0000;stroke-opacity:0.8;" x="194.04527" xlink:href="#C4_0_7f133df2b6" y="574.522925"/>
    </g>
   </g>
   <g id="patch_21">
    <path clip-path="url(#p9aa96bac7d)" d="M 404.37931 492.188608 
L 404.37931 501.74557 
L 404.37931 511.302532 
L 404.37931 520.859494 
L 404.37931 530.416456 
L 401.061831 538.062025 
L 401.061831 547.618987 
L 397.744352 555.264557 
L 394.426873 562.910127 
L 391.109394 570.555696 
L 384.474435 576.289873 
L 380.825208 582.21519 
L 371.204518 587.758228 
L 360.920333 589.860759 
L 347.650416 591.772152 
L 337.697979 595.594937 
L 327.745541 599.417722 
L 318.124851 604.960759 
L 307.840666 607.063291 
L 294.570749 608.974684 
L 280.969084 608.783544 
L 267.699168 606.872152 
L 254.760999 603.240506 
L 244.476813 601.137975 
L 234.524376 597.31519 
L 224.571938 593.492405 
L 214.619501 589.66962 
L 204.667063 585.846835 
L 194.714625 582.024051 
L 185.093936 576.481013 
L 178.127229 572.467089 
L 168.50654 566.924051 
L 161.539834 562.910127 
L 154.904875 557.175949 
L 145.284185 551.632911 
L 138.649227 545.898734 
L 135 539.973418 
L 141.634958 534.239241 
L 148.269917 528.505063 
L 148.269917 518.948101 
L 151.919144 513.022785 
L 158.554102 507.288608 
L 165.189061 501.55443 
L 171.824019 495.820253 
L 181.444709 490.277215 
L 188.079667 484.543038 
L 195.046373 480.529114 
L 204.667063 474.986076 
L 211.633769 470.972152 
L 221.254459 465.429114 
L 227.889417 459.694937 
L 234.524376 453.960759 
L 241.159334 448.226582 
L 241.159334 438.66962 
L 241.159334 429.112658 
L 241.159334 419.555696 
L 237.841855 411.910127 
L 234.856124 402.544304 
L 231.538644 394.898734 
L 227.889417 388.973418 
L 224.571938 381.327848 
L 231.206897 375.593671 
L 244.808561 375.402532 
L 258.078478 373.491139 
L 271.348395 371.579747 
L 287.935791 371.579747 
L 304.523187 371.579747 
L 321.110583 371.579747 
L 337.697979 371.579747 
L 347.982164 373.682278 
L 363.906064 373.682278 
L 370.872771 369.668354 
L 374.521998 375.593671 
L 381.156956 381.327848 
L 384.474435 388.973418 
L 391.109394 394.707595 
L 394.426873 402.353165 
L 397.744352 409.998734 
L 401.061831 417.644304 
L 401.061831 427.201266 
L 401.061831 436.758228 
L 397.744352 444.403797 
L 397.744352 453.960759 
L 397.744352 463.517722 
L 397.744352 473.074684 
L 401.061831 480.720253 
L 401.061831 490.277215 
z
" style="fill:none;stroke:#000000;stroke-linejoin:miter;"/>
   </g>
   <g id="matplotlib.axis_7"/>
   <g id="matplotlib.axis_8"/>
   <g id="patch_22">
    <path d="M 135 630 
L 135 358.2 
" style="fill:none;stroke:#000000;stroke-linecap:square;stroke-linejoin:miter;stroke-width:0.8;"/>
   </g>
   <g id="patch_23">
    <path d="M 414 630 
L 414 358.2 
" style="fill:none;stroke:#000000;stroke-linecap:square;stroke-linejoin:miter;stroke-width:0.8;"/>
   </g>
   <g id="patch_24">
    <path d="M 135 630 
L 414 630 
" style="fill:none;stroke:#000000;stroke-linecap:square;stroke-linejoin:miter;stroke-width:0.8;"/>
   </g>
   <g id="patch_25">
    <path d="M 135 358.2 
L 414 358.2 
" style="fill:none;stroke:#000000;stroke-linecap:square;stroke-linejoin:miter;stroke-width:0.8;"/>
   </g>
  </g>
  <g id="axes_5">
   <g id="patch_26">
    <path d="M 414 630 
L 693 630 
L 693 358.2 
L 414 358.2 
z
" style="fill:#ffffff;"/>
   </g>
   <g id="PathCollection_9">
    <defs>
     <path d="M 0 3 
C 0.795609 3 1.55874 2.683901 2.12132 2.12132 
C 2.683901 1.55874 3 0.795609 3 -0 
C 3 -0.795609 2.683901 -1.55874 2.12132 -2.12132 
C 1.55874 -2.683901 0.795609 -3 0 -3 
C -0.795609 -3 -1.55874 -2.683901 -2.12132 -2.12132 
C -2.683901 -1.55874 -3 -0.795609 -3 0 
C -3 0.795609 -2.683901 1.55874 -2.12132 2.12132 
C -1.55874 2.683901 -0.795609 3 0 3 
z
" id="C5_0_74d3ce712a"/>
    </defs>
    <g clip-path="url(#p871df71534)">
     <use style="fill:#808080;fill-opacity:0.8;stroke:#808080;stroke-opacity:0.8;" x="648.318251" xlink:href="#C5_0_74d3ce712a" y="512.831632"/>
    </g>
    <g clip-path="url(#p871df71534)">
     <use style="fill:#808080;fill-opacity:0.8;stroke:#808080;stroke-opacity:0.8;" x="648.945056" xlink:href="#C5_0_74d3ce712a" y="403.355528"/>
    </g>
    <g clip-path="url(#p871df71534)">
     <use style="fill:#808080;fill-opacity:0.8;stroke:#808080;stroke-opacity:0.8;" x="660.878808" xlink:href="#C5_0_74d3ce712a" y="413.06223"/>
    </g>
    <g clip-path="url(#p871df71534)">
     <use style="fill:#808080;fill-opacity:0.8;stroke:#808080;stroke-opacity:0.8;" x="666.688219" xlink:href="#C5_0_74d3ce712a" y="434.369412"/>
    </g>
    <g clip-path="url(#p871df71534)">
     <use style="fill:#808080;fill-opacity:0.8;stroke:#808080;stroke-opacity:0.8;" x="667.819525" xlink:href="#C5_0_74d3ce712a" y="458.292647"/>
    </g>
    <g clip-path="url(#p871df71534)">
     <use style="fill:#808080;fill-opacity:0.8;stroke:#808080;stroke-opacity:0.8;" x="670.803728" xlink:href="#C5_0_74d3ce712a" y="528.908469"/>
    </g>
    <g clip-path="url(#p871df71534)">
     <use style="fill:#808080;fill-opacity:0.8;stroke:#808080;stroke-opacity:0.8;" x="671.072795" xlink:href="#C5_0_74d3ce712a" y="440.887524"/>
    </g>
    <g clip-path="url(#p871df71534)">
     <use style="fill:#808080;fill-opacity:0.8;stroke:#808080;stroke-opacity:0.8;" x="489.969001" xlink:href="#C5_0_74d3ce712a" y="470.243694"/>
    </g>
    <g clip-path="url(#p871df71534)">
     <use style="fill:#808080;fill-opacity:0.8;stroke:#808080;stroke-opacity:0.8;" x="491.513082" xlink:href="#C5_0_74d3ce712a" y="417.549158"/>
    </g>
    <g clip-path="url(#p871df71534)">
     <use style="fill:#808080;fill-opacity:0.8;stroke:#808080;stroke-opacity:0.8;" x="495.760067" xlink:href="#C5_0_74d3ce712a" y="381.576223"/>
    </g>
    <g clip-path="url(#p871df71534)">
     <use style="fill:#808080;fill-opacity:0.8;stroke:#808080;stroke-opacity:0.8;" x="500.823427" xlink:href="#C5_0_74d3ce712a" y="413.876114"/>
    </g>
    <g clip-path="url(#p871df71534)">
     <use style="fill:#808080;fill-opacity:0.8;stroke:#808080;stroke-opacity:0.8;" x="501.343216" xlink:href="#C5_0_74d3ce712a" y="395.794517"/>
    </g>
    <g clip-path="url(#p871df71534)">
     <use style="fill:#808080;fill-opacity:0.8;stroke:#808080;stroke-opacity:0.8;" x="510.989895" xlink:href="#C5_0_74d3ce712a" y="373.680499"/>
    </g>
    <g clip-path="url(#p871df71534)">
     <use style="fill:#808080;fill-opacity:0.8;stroke:#808080;stroke-opacity:0.8;" x="511.485224" xlink:href="#C5_0_74d3ce712a" y="467.791474"/>
    </g>
    <g clip-path="url(#p871df71534)">
     <use style="fill:#808080;fill-opacity:0.8;stroke:#808080;stroke-opacity:0.8;" x="512.341348" xlink:href="#C5_0_74d3ce712a" y="446.730924"/>
    </g>
    <g clip-path="url(#p871df71534)">
     <use style="fill:#808080;fill-opacity:0.8;stroke:#808080;stroke-opacity:0.8;" x="516.316208" xlink:href="#C5_0_74d3ce712a" y="383.052488"/>
    </g>
    <g clip-path="url(#p871df71534)">
     <use style="fill:#808080;fill-opacity:0.8;stroke:#808080;stroke-opacity:0.8;" x="517.805252" xlink:href="#C5_0_74d3ce712a" y="492.909109"/>
    </g>
    <g clip-path="url(#p871df71534)">
     <use style="fill:#808080;fill-opacity:0.8;stroke:#808080;stroke-opacity:0.8;" x="521.477411" xlink:href="#C5_0_74d3ce712a" y="370.632841"/>
    </g>
    <g clip-path="url(#p871df71534)">
     <use style="fill:#808080;fill-opacity:0.8;stroke:#808080;stroke-opacity:0.8;" x="522.370225" xlink:href="#C5_0_74d3ce712a" y="393.860223"/>
    </g>
    <g clip-path="url(#p871df71534)">
     <use style="fill:#808080;fill-opacity:0.8;stroke:#808080;stroke-opacity:0.8;" x="523.128506" xlink:href="#C5_0_74d3ce712a" y="524.935944"/>
    </g>
    <g clip-path="url(#p871df71534)">
     <use style="fill:#808080;fill-opacity:0.8;stroke:#808080;stroke-opacity:0.8;" x="531.494058" xlink:href="#C5_0_74d3ce712a" y="578.467264"/>
    </g>
    <g clip-path="url(#p871df71534)">
     <use style="fill:#808080;fill-opacity:0.8;stroke:#808080;stroke-opacity:0.8;" x="534.160272" xlink:href="#C5_0_74d3ce712a" y="466.935312"/>
    </g>
    <g clip-path="url(#p871df71534)">
     <use style="fill:#808080;fill-opacity:0.8;stroke:#808080;stroke-opacity:0.8;" x="534.615852" xlink:href="#C5_0_74d3ce712a" y="567.435799"/>
    </g>
    <g clip-path="url(#p871df71534)">
     <use style="fill:#808080;fill-opacity:0.8;stroke:#808080;stroke-opacity:0.8;" x="534.814595" xlink:href="#C5_0_74d3ce712a" y="430.810875"/>
    </g>
    <g clip-path="url(#p871df71534)">
     <use style="fill:#808080;fill-opacity:0.8;stroke:#808080;stroke-opacity:0.8;" x="538.132074" xlink:href="#C5_0_74d3ce712a" y="471.727005"/>
    </g>
    <g clip-path="url(#p871df71534)">
     <use style="fill:#808080;fill-opacity:0.8;stroke:#808080;stroke-opacity:0.8;" x="538.443948" xlink:href="#C5_0_74d3ce712a" y="495.48993"/>
    </g>
    <g clip-path="url(#p871df71534)">
     <use style="fill:#808080;fill-opacity:0.8;stroke:#808080;stroke-opacity:0.8;" x="549.45431" xlink:href="#C5_0_74d3ce712a" y="480.570498"/>
    </g>
    <g clip-path="url(#p871df71534)">
     <use style="fill:#808080;fill-opacity:0.8;stroke:#808080;stroke-opacity:0.8;" x="551.463143" xlink:href="#C5_0_74d3ce712a" y="583.151497"/>
    </g>
    <g clip-path="url(#p871df71534)">
     <use style="fill:#808080;fill-opacity:0.8;stroke:#808080;stroke-opacity:0.8;" x="552.099121" xlink:href="#C5_0_74d3ce712a" y="434.845058"/>
    </g>
    <g clip-path="url(#p871df71534)">
     <use style="fill:#808080;fill-opacity:0.8;stroke:#808080;stroke-opacity:0.8;" x="554.248603" xlink:href="#C5_0_74d3ce712a" y="417.045326"/>
    </g>
    <g clip-path="url(#p871df71534)">
     <use style="fill:#808080;fill-opacity:0.8;stroke:#808080;stroke-opacity:0.8;" x="555.590882" xlink:href="#C5_0_74d3ce712a" y="445.513623"/>
    </g>
    <g clip-path="url(#p871df71534)">
     <use style="fill:#808080;fill-opacity:0.8;stroke:#808080;stroke-opacity:0.8;" x="556.737476" xlink:href="#C5_0_74d3ce712a" y="383.2357"/>
    </g>
    <g clip-path="url(#p871df71534)">
     <use style="fill:#808080;fill-opacity:0.8;stroke:#808080;stroke-opacity:0.8;" x="558.040007" xlink:href="#C5_0_74d3ce712a" y="584.419887"/>
    </g>
    <g clip-path="url(#p871df71534)">
     <use style="fill:#808080;fill-opacity:0.8;stroke:#808080;stroke-opacity:0.8;" x="563.256247" xlink:href="#C5_0_74d3ce712a" y="461.604553"/>
    </g>
    <g clip-path="url(#p871df71534)">
     <use style="fill:#808080;fill-opacity:0.8;stroke:#808080;stroke-opacity:0.8;" x="573.334046" xlink:href="#C5_0_74d3ce712a" y="462.362063"/>
    </g>
    <g clip-path="url(#p871df71534)">
     <use style="fill:#808080;fill-opacity:0.8;stroke:#808080;stroke-opacity:0.8;" x="573.820202" xlink:href="#C5_0_74d3ce712a" y="426.882391"/>
    </g>
    <g clip-path="url(#p871df71534)">
     <use style="fill:#808080;fill-opacity:0.8;stroke:#808080;stroke-opacity:0.8;" x="583.965267" xlink:href="#C5_0_74d3ce712a" y="467.030441"/>
    </g>
    <g clip-path="url(#p871df71534)">
     <use style="fill:#808080;fill-opacity:0.8;stroke:#808080;stroke-opacity:0.8;" x="590.511556" xlink:href="#C5_0_74d3ce712a" y="432.933665"/>
    </g>
    <g clip-path="url(#p871df71534)">
     <use style="fill:#808080;fill-opacity:0.8;stroke:#808080;stroke-opacity:0.8;" x="591.878296" xlink:href="#C5_0_74d3ce712a" y="382.280884"/>
    </g>
    <g clip-path="url(#p871df71534)">
     <use style="fill:#808080;fill-opacity:0.8;stroke:#808080;stroke-opacity:0.8;" x="594.648468" xlink:href="#C5_0_74d3ce712a" y="418.267912"/>
    </g>
    <g clip-path="url(#p871df71534)">
     <use style="fill:#808080;fill-opacity:0.8;stroke:#808080;stroke-opacity:0.8;" x="599.360206" xlink:href="#C5_0_74d3ce712a" y="382.363682"/>
    </g>
    <g clip-path="url(#p871df71534)">
     <use style="fill:#808080;fill-opacity:0.8;stroke:#808080;stroke-opacity:0.8;" x="603.200532" xlink:href="#C5_0_74d3ce712a" y="385.046678"/>
    </g>
    <g clip-path="url(#p871df71534)">
     <use style="fill:#808080;fill-opacity:0.8;stroke:#808080;stroke-opacity:0.8;" x="610.138192" xlink:href="#C5_0_74d3ce712a" y="511.48573"/>
    </g>
    <g clip-path="url(#p871df71534)">
     <use style="fill:#808080;fill-opacity:0.8;stroke:#808080;stroke-opacity:0.8;" x="625.88781" xlink:href="#C5_0_74d3ce712a" y="413.992383"/>
    </g>
    <g clip-path="url(#p871df71534)">
     <use style="fill:#808080;fill-opacity:0.8;stroke:#808080;stroke-opacity:0.8;" x="574.899529" xlink:href="#C5_0_74d3ce712a" y="501.484832"/>
    </g>
    <g clip-path="url(#p871df71534)">
     <use style="fill:#808080;fill-opacity:0.8;stroke:#808080;stroke-opacity:0.8;" x="576.180657" xlink:href="#C5_0_74d3ce712a" y="452.045829"/>
    </g>
    <g clip-path="url(#p871df71534)">
     <use style="fill:#808080;fill-opacity:0.8;stroke:#808080;stroke-opacity:0.8;" x="574.150421" xlink:href="#C5_0_74d3ce712a" y="437.96142"/>
    </g>
    <g clip-path="url(#p871df71534)">
     <use style="fill:#808080;fill-opacity:0.8;stroke:#808080;stroke-opacity:0.8;" x="604.478603" xlink:href="#C5_0_74d3ce712a" y="427.41441"/>
    </g>
    <g clip-path="url(#p871df71534)">
     <use style="fill:#808080;fill-opacity:0.8;stroke:#808080;stroke-opacity:0.8;" x="483.227027" xlink:href="#C5_0_74d3ce712a" y="472.843893"/>
    </g>
    <g clip-path="url(#p871df71534)">
     <use style="fill:#808080;fill-opacity:0.8;stroke:#808080;stroke-opacity:0.8;" x="465.327927" xlink:href="#C5_0_74d3ce712a" y="548.489231"/>
    </g>
    <g clip-path="url(#p871df71534)">
     <use style="fill:#808080;fill-opacity:0.8;stroke:#808080;stroke-opacity:0.8;" x="430.361389" xlink:href="#C5_0_74d3ce712a" y="551.565076"/>
    </g>
   </g>
   <g id="PathCollection_10">
    <g clip-path="url(#p871df71534)">
     <use style="fill:#ff0000;fill-opacity:0.8;stroke:#ff0000;stroke-opacity:0.8;" x="590.227201" xlink:href="#m8692e63bba" y="533.837571"/>
    </g>
   </g>
   <g id="patch_27">
    <path clip-path="url(#p871df71534)" d="M 690.014269 497.922785 
L 690.014269 507.479747 
L 686.69679 515.125316 
L 686.69679 524.682278 
L 686.69679 534.239241 
L 683.37931 541.88481 
L 683.37931 551.441772 
L 680.061831 559.087342 
L 676.744352 566.732911 
L 670.109394 572.467089 
L 666.460166 578.392405 
L 656.839477 583.935443 
L 649.872771 587.949367 
L 636.602854 589.860759 
L 623.332937 591.772152 
L 613.380499 595.594937 
L 603.428062 599.417722 
L 593.807372 604.960759 
L 583.523187 607.063291 
L 570.25327 608.974684 
L 553.665874 608.974684 
L 543.381688 606.872152 
L 530.44352 603.240506 
L 520.159334 601.137975 
L 507.221165 597.506329 
L 497.268728 593.683544 
L 487.31629 589.860759 
L 477.363853 586.037975 
L 467.411415 582.21519 
L 460.444709 578.201266 
L 450.824019 572.658228 
L 443.857313 568.644304 
L 437.222354 562.910127 
L 430.587396 557.175949 
L 420.966706 551.632911 
L 414.331748 545.898734 
L 414.331748 539.782278 
L 420.966706 534.048101 
L 427.269917 526.593671 
L 427.269917 517.036709 
L 427.269917 507.479747 
L 433.904875 501.74557 
L 440.871581 497.731646 
L 447.50654 491.997468 
L 453.80975 484.543038 
L 460.444709 478.808861 
L 464.093936 472.883544 
L 470.397146 465.429114 
L 477.032105 459.694937 
L 480.681332 453.76962 
L 486.984542 446.31519 
L 486.984542 436.758228 
L 490.302021 429.112658 
L 490.302021 419.555696 
L 490.302021 409.998734 
L 490.302021 400.441772 
L 490.302021 390.88481 
L 493.619501 383.239241 
L 493.951249 375.402532 
L 500.586207 369.668354 
L 513.856124 367.756962 
L 530.44352 367.756962 
L 543.713436 369.668354 
L 556.983353 371.579747 
L 573.570749 371.579747 
L 590.158145 371.579747 
L 606.745541 371.579747 
L 623.332937 371.579747 
L 636.602854 373.491139 
L 646.887039 375.593671 
L 656.507729 381.136709 
L 663.142687 386.870886 
L 666.791914 392.796203 
L 673.426873 398.53038 
L 676.744352 406.175949 
L 676.744352 415.732911 
L 676.744352 425.289873 
L 676.744352 434.846835 
L 676.744352 444.403797 
L 676.744352 453.960759 
L 676.744352 463.517722 
L 680.061831 471.163291 
L 683.37931 478.808861 
L 686.365042 488.174684 
L 686.69679 496.011392 
z
" style="fill:none;stroke:#000000;stroke-linejoin:miter;"/>
   </g>
   <g id="matplotlib.axis_9"/>
   <g id="matplotlib.axis_10"/>
   <g id="patch_28">
    <path d="M 414 630 
L 414 358.2 
" style="fill:none;stroke:#000000;stroke-linecap:square;stroke-linejoin:miter;stroke-width:0.8;"/>
   </g>
   <g id="patch_29">
    <path d="M 693 630 
L 693 358.2 
" style="fill:none;stroke:#000000;stroke-linecap:square;stroke-linejoin:miter;stroke-width:0.8;"/>
   </g>
   <g id="patch_30">
    <path d="M 414 630 
L 693 630 
" style="fill:none;stroke:#000000;stroke-linecap:square;stroke-linejoin:miter;stroke-width:0.8;"/>
   </g>
   <g id="patch_31">
    <path d="M 414 358.2 
L 693 358.2 
" style="fill:none;stroke:#000000;stroke-linecap:square;stroke-linejoin:miter;stroke-width:0.8;"/>
   </g>
  </g>
  <g id="axes_6">
   <g id="patch_32">
    <path d="M 693 630 
L 972 630 
L 972 358.2 
L 693 358.2 
z
" style="fill:#ffffff;"/>
   </g>
   <g id="PathCollection_11">
    <defs>
     <path d="M 0 3 
C 0.795609 3 1.55874 2.683901 2.12132 2.12132 
C 2.683901 1.55874 3 0.795609 3 -0 
C 3 -0.795609 2.683901 -1.55874 2.12132 -2.12132 
C 1.55874 -2.683901 0.795609 -3 0 -3 
C -0.795609 -3 -1.55874 -2.683901 -2.12132 -2.12132 
C -2.683901 -1.55874 -3 -0.795609 -3 0 
C -3 0.795609 -2.683901 1.55874 -2.12132 2.12132 
C -1.55874 2.683901 -0.795609 3 0 3 
z
" id="C6_0_df788bd0e6"/>
    </defs>
    <g clip-path="url(#pbaf9e708c2)">
     <use style="fill:#808080;fill-opacity:0.8;stroke:#808080;stroke-opacity:0.8;" x="803.217007" xlink:href="#C6_0_df788bd0e6" y="486.100324"/>
    </g>
    <g clip-path="url(#pbaf9e708c2)">
     <use style="fill:#808080;fill-opacity:0.8;stroke:#808080;stroke-opacity:0.8;" x="807.583237" xlink:href="#C6_0_df788bd0e6" y="432.743407"/>
    </g>
    <g clip-path="url(#pbaf9e708c2)">
     <use style="fill:#808080;fill-opacity:0.8;stroke:#808080;stroke-opacity:0.8;" x="812.469258" xlink:href="#C6_0_df788bd0e6" y="467.37044"/>
    </g>
    <g clip-path="url(#pbaf9e708c2)">
     <use style="fill:#808080;fill-opacity:0.8;stroke:#808080;stroke-opacity:0.8;" x="824.883051" xlink:href="#C6_0_df788bd0e6" y="457.809954"/>
    </g>
    <g clip-path="url(#pbaf9e708c2)">
     <use style="fill:#808080;fill-opacity:0.8;stroke:#808080;stroke-opacity:0.8;" x="825.55572" xlink:href="#C6_0_df788bd0e6" y="488.883734"/>
    </g>
    <g clip-path="url(#pbaf9e708c2)">
     <use style="fill:#808080;fill-opacity:0.8;stroke:#808080;stroke-opacity:0.8;" x="827.2007" xlink:href="#C6_0_df788bd0e6" y="500.087841"/>
    </g>
    <g clip-path="url(#pbaf9e708c2)">
     <use style="fill:#808080;fill-opacity:0.8;stroke:#808080;stroke-opacity:0.8;" x="829.023021" xlink:href="#C6_0_df788bd0e6" y="432.524962"/>
    </g>
    <g clip-path="url(#pbaf9e708c2)">
     <use style="fill:#808080;fill-opacity:0.8;stroke:#808080;stroke-opacity:0.8;" x="836.352051" xlink:href="#C6_0_df788bd0e6" y="453.958983"/>
    </g>
    <g clip-path="url(#pbaf9e708c2)">
     <use style="fill:#808080;fill-opacity:0.8;stroke:#808080;stroke-opacity:0.8;" x="843.92263" xlink:href="#C6_0_df788bd0e6" y="488.341146"/>
    </g>
    <g clip-path="url(#pbaf9e708c2)">
     <use style="fill:#808080;fill-opacity:0.8;stroke:#808080;stroke-opacity:0.8;" x="852.933332" xlink:href="#C6_0_df788bd0e6" y="449.924799"/>
    </g>
    <g clip-path="url(#pbaf9e708c2)">
     <use style="fill:#808080;fill-opacity:0.8;stroke:#808080;stroke-opacity:0.8;" x="856.522937" xlink:href="#C6_0_df788bd0e6" y="424.838874"/>
    </g>
    <g clip-path="url(#pbaf9e708c2)">
     <use style="fill:#808080;fill-opacity:0.8;stroke:#808080;stroke-opacity:0.8;" x="863.94981" xlink:href="#C6_0_df788bd0e6" y="466.572411"/>
    </g>
    <g clip-path="url(#pbaf9e708c2)">
     <use style="fill:#808080;fill-opacity:0.8;stroke:#808080;stroke-opacity:0.8;" x="869.48098" xlink:href="#C6_0_df788bd0e6" y="471.159753"/>
    </g>
    <g clip-path="url(#pbaf9e708c2)">
     <use style="fill:#808080;fill-opacity:0.8;stroke:#808080;stroke-opacity:0.8;" x="871.052579" xlink:href="#C6_0_df788bd0e6" y="461.202896"/>
    </g>
    <g clip-path="url(#pbaf9e708c2)">
     <use style="fill:#808080;fill-opacity:0.8;stroke:#808080;stroke-opacity:0.8;" x="884.047313" xlink:href="#C6_0_df788bd0e6" y="477.019008"/>
    </g>
    <g clip-path="url(#pbaf9e708c2)">
     <use style="fill:#808080;fill-opacity:0.8;stroke:#808080;stroke-opacity:0.8;" x="896.751577" xlink:href="#C6_0_df788bd0e6" y="451.591322"/>
    </g>
    <g clip-path="url(#pbaf9e708c2)">
     <use style="fill:#808080;fill-opacity:0.8;stroke:#808080;stroke-opacity:0.8;" x="898.625877" xlink:href="#C6_0_df788bd0e6" y="497.919248"/>
    </g>
    <g clip-path="url(#pbaf9e708c2)">
     <use style="fill:#808080;fill-opacity:0.8;stroke:#808080;stroke-opacity:0.8;" x="903.716755" xlink:href="#C6_0_df788bd0e6" y="435.333036"/>
    </g>
    <g clip-path="url(#pbaf9e708c2)">
     <use style="fill:#808080;fill-opacity:0.8;stroke:#808080;stroke-opacity:0.8;" x="908.859612" xlink:href="#C6_0_df788bd0e6" y="474.686581"/>
    </g>
    <g clip-path="url(#pbaf9e708c2)">
     <use style="fill:#808080;fill-opacity:0.8;stroke:#808080;stroke-opacity:0.8;" x="917.16707" xlink:href="#C6_0_df788bd0e6" y="457.91213"/>
    </g>
    <g clip-path="url(#pbaf9e708c2)">
     <use style="fill:#808080;fill-opacity:0.8;stroke:#808080;stroke-opacity:0.8;" x="923.639976" xlink:href="#C6_0_df788bd0e6" y="442.666793"/>
    </g>
    <g clip-path="url(#pbaf9e708c2)">
     <use style="fill:#808080;fill-opacity:0.8;stroke:#808080;stroke-opacity:0.8;" x="928.678876" xlink:href="#C6_0_df788bd0e6" y="466.015729"/>
    </g>
    <g clip-path="url(#pbaf9e708c2)">
     <use style="fill:#808080;fill-opacity:0.8;stroke:#808080;stroke-opacity:0.8;" x="941.743935" xlink:href="#C6_0_df788bd0e6" y="426.313377"/>
    </g>
    <g clip-path="url(#pbaf9e708c2)">
     <use style="fill:#808080;fill-opacity:0.8;stroke:#808080;stroke-opacity:0.8;" x="943.196288" xlink:href="#C6_0_df788bd0e6" y="440.972084"/>
    </g>
    <g clip-path="url(#pbaf9e708c2)">
     <use style="fill:#808080;fill-opacity:0.8;stroke:#808080;stroke-opacity:0.8;" x="906.171996" xlink:href="#C6_0_df788bd0e6" y="459.800621"/>
    </g>
    <g clip-path="url(#pbaf9e708c2)">
     <use style="fill:#808080;fill-opacity:0.8;stroke:#808080;stroke-opacity:0.8;" x="837.562854" xlink:href="#C6_0_df788bd0e6" y="450.43744"/>
    </g>
    <g clip-path="url(#pbaf9e708c2)">
     <use style="fill:#808080;fill-opacity:0.8;stroke:#808080;stroke-opacity:0.8;" x="892.443441" xlink:href="#C6_0_df788bd0e6" y="430.717507"/>
    </g>
    <g clip-path="url(#pbaf9e708c2)">
     <use style="fill:#808080;fill-opacity:0.8;stroke:#808080;stroke-opacity:0.8;" x="843.668851" xlink:href="#C6_0_df788bd0e6" y="412.95477"/>
    </g>
    <g clip-path="url(#pbaf9e708c2)">
     <use style="fill:#808080;fill-opacity:0.8;stroke:#808080;stroke-opacity:0.8;" x="879.470109" xlink:href="#C6_0_df788bd0e6" y="398.479275"/>
    </g>
    <g clip-path="url(#pbaf9e708c2)">
     <use style="fill:#808080;fill-opacity:0.8;stroke:#808080;stroke-opacity:0.8;" x="909.223465" xlink:href="#C6_0_df788bd0e6" y="407.764943"/>
    </g>
    <g clip-path="url(#pbaf9e708c2)">
     <use style="fill:#808080;fill-opacity:0.8;stroke:#808080;stroke-opacity:0.8;" x="933.708603" xlink:href="#C6_0_df788bd0e6" y="404.710238"/>
    </g>
    <g clip-path="url(#pbaf9e708c2)">
     <use style="fill:#808080;fill-opacity:0.8;stroke:#808080;stroke-opacity:0.8;" x="817.676324" xlink:href="#C6_0_df788bd0e6" y="406.53531"/>
    </g>
    <g clip-path="url(#pbaf9e708c2)">
     <use style="fill:#808080;fill-opacity:0.8;stroke:#808080;stroke-opacity:0.8;" x="833.933502" xlink:href="#C6_0_df788bd0e6" y="402.659675"/>
    </g>
    <g clip-path="url(#pbaf9e708c2)">
     <use style="fill:#808080;fill-opacity:0.8;stroke:#808080;stroke-opacity:0.8;" x="883.478603" xlink:href="#C6_0_df788bd0e6" y="420.311429"/>
    </g>
    <g clip-path="url(#pbaf9e708c2)">
     <use style="fill:#808080;fill-opacity:0.8;stroke:#808080;stroke-opacity:0.8;" x="850.945902" xlink:href="#C6_0_df788bd0e6" y="363.47701"/>
    </g>
    <g clip-path="url(#pbaf9e708c2)">
     <use style="fill:#808080;fill-opacity:0.8;stroke:#808080;stroke-opacity:0.8;" x="843.668851" xlink:href="#C6_0_df788bd0e6" y="365.48177"/>
    </g>
    <g clip-path="url(#pbaf9e708c2)">
     <use style="fill:#808080;fill-opacity:0.8;stroke:#808080;stroke-opacity:0.8;" x="734.280704" xlink:href="#C6_0_df788bd0e6" y="459.904558"/>
    </g>
    <g clip-path="url(#pbaf9e708c2)">
     <use style="fill:#808080;fill-opacity:0.8;stroke:#808080;stroke-opacity:0.8;" x="741.930781" xlink:href="#C6_0_df788bd0e6" y="456.855139"/>
    </g>
    <g clip-path="url(#pbaf9e708c2)">
     <use style="fill:#808080;fill-opacity:0.8;stroke:#808080;stroke-opacity:0.8;" x="753.418126" xlink:href="#C6_0_df788bd0e6" y="462.106623"/>
    </g>
    <g clip-path="url(#pbaf9e708c2)">
     <use style="fill:#808080;fill-opacity:0.8;stroke:#808080;stroke-opacity:0.8;" x="764.049348" xlink:href="#C6_0_df788bd0e6" y="466.281739"/>
    </g>
    <g clip-path="url(#pbaf9e708c2)">
     <use style="fill:#808080;fill-opacity:0.8;stroke:#808080;stroke-opacity:0.8;" x="772.521915" xlink:href="#C6_0_df788bd0e6" y="435.702982"/>
    </g>
    <g clip-path="url(#pbaf9e708c2)">
     <use style="fill:#808080;fill-opacity:0.8;stroke:#808080;stroke-opacity:0.8;" x="777.521065" xlink:href="#C6_0_df788bd0e6" y="477.903357"/>
    </g>
    <g clip-path="url(#pbaf9e708c2)">
     <use style="fill:#808080;fill-opacity:0.8;stroke:#808080;stroke-opacity:0.8;" x="782.082982" xlink:href="#C6_0_df788bd0e6" y="475.433521"/>
    </g>
    <g clip-path="url(#pbaf9e708c2)">
     <use style="fill:#808080;fill-opacity:0.8;stroke:#808080;stroke-opacity:0.8;" x="773.916173" xlink:href="#C6_0_df788bd0e6" y="407.639865"/>
    </g>
    <g clip-path="url(#pbaf9e708c2)">
     <use style="fill:#808080;fill-opacity:0.8;stroke:#808080;stroke-opacity:0.8;" x="777.897148" xlink:href="#C6_0_df788bd0e6" y="401.32082"/>
    </g>
    <g clip-path="url(#pbaf9e708c2)">
     <use style="fill:#808080;fill-opacity:0.8;stroke:#808080;stroke-opacity:0.8;" x="780.57865" xlink:href="#C6_0_df788bd0e6" y="386.364394"/>
    </g>
    <g clip-path="url(#pbaf9e708c2)">
     <use style="fill:#808080;fill-opacity:0.8;stroke:#808080;stroke-opacity:0.8;" x="783.941993" xlink:href="#C6_0_df788bd0e6" y="377.920795"/>
    </g>
    <g clip-path="url(#pbaf9e708c2)">
     <use style="fill:#808080;fill-opacity:0.8;stroke:#808080;stroke-opacity:0.8;" x="800.844321" xlink:href="#C6_0_df788bd0e6" y="383.450621"/>
    </g>
    <g clip-path="url(#pbaf9e708c2)">
     <use style="fill:#808080;fill-opacity:0.8;stroke:#808080;stroke-opacity:0.8;" x="837.914477" xlink:href="#C6_0_df788bd0e6" y="575.784268"/>
    </g>
    <g clip-path="url(#pbaf9e708c2)">
     <use style="fill:#808080;fill-opacity:0.8;stroke:#808080;stroke-opacity:0.8;" x="703.282911" xlink:href="#C6_0_df788bd0e6" y="551.075337"/>
    </g>
    <g clip-path="url(#pbaf9e708c2)">
     <use style="fill:#808080;fill-opacity:0.8;stroke:#808080;stroke-opacity:0.8;" x="866.894264" xlink:href="#C6_0_df788bd0e6" y="589.271476"/>
    </g>
    <g clip-path="url(#pbaf9e708c2)">
     <use style="fill:#808080;fill-opacity:0.8;stroke:#808080;stroke-opacity:0.8;" x="726.529727" xlink:href="#C6_0_df788bd0e6" y="545.970069"/>
    </g>
   </g>
   <g id="PathCollection_12">
    <g clip-path="url(#pbaf9e708c2)">
     <use style="fill:#ff0000;fill-opacity:0.8;stroke:#ff0000;stroke-opacity:0.8;" x="870.049691" xlink:href="#m8692e63bba" y="533.927416"/>
    </g>
   </g>
   <g id="patch_33">
    <path clip-path="url(#pbaf9e708c2)" d="M 972 547.810127 
L 965.69679 555.264557 
L 962.37931 562.910127 
L 955.744352 568.644304 
L 952.426873 576.289873 
L 945.791914 582.024051 
L 938.825208 586.037975 
L 925.887039 589.66962 
L 912.285375 589.860759 
L 899.015458 591.772152 
L 889.06302 595.594937 
L 879.110583 599.417722 
L 869.158145 603.240506 
L 856.219976 606.872152 
L 842.618312 607.063291 
L 829.016647 606.872152 
L 815.74673 604.960759 
L 802.808561 601.329114 
L 789.538644 599.417722 
L 779.586207 595.594937 
L 769.633769 591.772152 
L 759.349584 589.66962 
L 749.728894 584.126582 
L 739.776457 580.303797 
L 732.80975 576.289873 
L 723.189061 570.746835 
L 716.222354 566.732911 
L 709.587396 560.998734 
L 702.952438 555.264557 
L 696.317479 549.53038 
L 693 541.88481 
L 696.649227 535.959494 
L 703.284185 530.225316 
L 706.269917 520.859494 
L 706.269917 511.302532 
L 706.269917 501.74557 
L 709.587396 494.1 
L 716.222354 488.365823 
L 719.871581 482.440506 
L 723.189061 474.794937 
L 729.492271 467.340506 
L 732.80975 459.694937 
L 739.444709 453.960759 
L 746.079667 448.226582 
L 753.046373 444.212658 
L 759.349584 436.758228 
L 759.349584 427.201266 
L 759.349584 417.644304 
L 759.349584 408.087342 
L 762.667063 400.441772 
L 762.667063 390.88481 
L 765.984542 383.239241 
L 769.302021 375.593671 
L 775.93698 369.859494 
L 786.221165 367.756962 
L 799.159334 364.125316 
L 806.12604 360.111392 
L 819.395957 358.2 
L 835.983353 358.2 
L 852.570749 358.2 
L 859.205707 363.934177 
L 865.840666 369.668354 
L 879.110583 371.579747 
L 895.697979 371.579747 
L 912.285375 371.579747 
L 925.887039 371.770886 
L 932.521998 377.505063 
L 939.156956 383.239241 
L 945.791914 388.973418 
L 949.109394 396.618987 
L 952.426873 404.264557 
L 955.744352 411.910127 
L 955.412604 419.746835 
L 952.426873 429.112658 
L 952.426873 438.66962 
L 952.426873 448.226582 
L 952.426873 457.783544 
L 955.744352 465.429114 
L 959.061831 473.074684 
L 962.37931 480.720253 
L 965.69679 488.365823 
L 972 495.820253 
z
" style="fill:none;stroke:#000000;stroke-linejoin:miter;"/>
   </g>
   <g id="matplotlib.axis_11"/>
   <g id="matplotlib.axis_12"/>
   <g id="patch_34">
    <path d="M 693 630 
L 693 358.2 
" style="fill:none;stroke:#000000;stroke-linecap:square;stroke-linejoin:miter;stroke-width:0.8;"/>
   </g>
   <g id="patch_35">
    <path d="M 972 630 
L 972 358.2 
" style="fill:none;stroke:#000000;stroke-linecap:square;stroke-linejoin:miter;stroke-width:0.8;"/>
   </g>
   <g id="patch_36">
    <path d="M 693 630 
L 972 630 
" style="fill:none;stroke:#000000;stroke-linecap:square;stroke-linejoin:miter;stroke-width:0.8;"/>
   </g>
   <g id="patch_37">
    <path d="M 693 358.2 
L 972 358.2 
" style="fill:none;stroke:#000000;stroke-linecap:square;stroke-linejoin:miter;stroke-width:0.8;"/>
   </g>
  </g>
  <g id="text_1">
   <!-- L6 IT cell has Timp3 peripheral score -0.65 -->
   <g transform="translate(412.120313 23.518125)scale(0.12 -0.12)">
    <defs>
     <path d="M 9.8125 72.90625 
L 19.671875 72.90625 
L 19.671875 8.296875 
L 55.171875 8.296875 
L 55.171875 0 
L 9.8125 0 
z
" id="DejaVuSans-76"/>
     <path d="M 33.015625 40.375 
Q 26.375 40.375 22.484375 35.828125 
Q 18.609375 31.296875 18.609375 23.390625 
Q 18.609375 15.53125 22.484375 10.953125 
Q 26.375 6.390625 33.015625 6.390625 
Q 39.65625 6.390625 43.53125 10.953125 
Q 47.40625 15.53125 47.40625 23.390625 
Q 47.40625 31.296875 43.53125 35.828125 
Q 39.65625 40.375 33.015625 40.375 
z
M 52.59375 71.296875 
L 52.59375 62.3125 
Q 48.875 64.0625 45.09375 64.984375 
Q 41.3125 65.921875 37.59375 65.921875 
Q 27.828125 65.921875 22.671875 59.328125 
Q 17.53125 52.734375 16.796875 39.40625 
Q 19.671875 43.65625 24.015625 45.921875 
Q 28.375 48.1875 33.59375 48.1875 
Q 44.578125 48.1875 50.953125 41.515625 
Q 57.328125 34.859375 57.328125 23.390625 
Q 57.328125 12.15625 50.6875 5.359375 
Q 44.046875 -1.421875 33.015625 -1.421875 
Q 20.359375 -1.421875 13.671875 8.265625 
Q 6.984375 17.96875 6.984375 36.375 
Q 6.984375 53.65625 15.1875 63.9375 
Q 23.390625 74.21875 37.203125 74.21875 
Q 40.921875 74.21875 44.703125 73.484375 
Q 48.484375 72.75 52.59375 71.296875 
z
" id="DejaVuSans-54"/>
     <path id="DejaVuSans-32"/>
     <path d="M 9.8125 72.90625 
L 19.671875 72.90625 
L 19.671875 0 
L 9.8125 0 
z
" id="DejaVuSans-73"/>
     <path d="M -0.296875 72.90625 
L 61.375 72.90625 
L 61.375 64.59375 
L 35.5 64.59375 
L 35.5 0 
L 25.59375 0 
L 25.59375 64.59375 
L -0.296875 64.59375 
z
" id="DejaVuSans-84"/>
     <path d="M 48.78125 52.59375 
L 48.78125 44.1875 
Q 44.96875 46.296875 41.140625 47.34375 
Q 37.3125 48.390625 33.40625 48.390625 
Q 24.65625 48.390625 19.8125 42.84375 
Q 14.984375 37.3125 14.984375 27.296875 
Q 14.984375 17.28125 19.8125 11.734375 
Q 24.65625 6.203125 33.40625 6.203125 
Q 37.3125 6.203125 41.140625 7.25 
Q 44.96875 8.296875 48.78125 10.40625 
L 48.78125 2.09375 
Q 45.015625 0.34375 40.984375 -0.53125 
Q 36.96875 -1.421875 32.421875 -1.421875 
Q 20.0625 -1.421875 12.78125 6.34375 
Q 5.515625 14.109375 5.515625 27.296875 
Q 5.515625 40.671875 12.859375 48.328125 
Q 20.21875 56 33.015625 56 
Q 37.15625 56 41.109375 55.140625 
Q 45.0625 54.296875 48.78125 52.59375 
z
" id="DejaVuSans-99"/>
     <path d="M 56.203125 29.59375 
L 56.203125 25.203125 
L 14.890625 25.203125 
Q 15.484375 15.921875 20.484375 11.0625 
Q 25.484375 6.203125 34.421875 6.203125 
Q 39.59375 6.203125 44.453125 7.46875 
Q 49.3125 8.734375 54.109375 11.28125 
L 54.109375 2.78125 
Q 49.265625 0.734375 44.1875 -0.34375 
Q 39.109375 -1.421875 33.890625 -1.421875 
Q 20.796875 -1.421875 13.15625 6.1875 
Q 5.515625 13.8125 5.515625 26.8125 
Q 5.515625 40.234375 12.765625 48.109375 
Q 20.015625 56 32.328125 56 
Q 43.359375 56 49.78125 48.890625 
Q 56.203125 41.796875 56.203125 29.59375 
z
M 47.21875 32.234375 
Q 47.125 39.59375 43.09375 43.984375 
Q 39.0625 48.390625 32.421875 48.390625 
Q 24.90625 48.390625 20.390625 44.140625 
Q 15.875 39.890625 15.1875 32.171875 
z
" id="DejaVuSans-101"/>
     <path d="M 9.421875 75.984375 
L 18.40625 75.984375 
L 18.40625 0 
L 9.421875 0 
z
" id="DejaVuSans-108"/>
     <path d="M 54.890625 33.015625 
L 54.890625 0 
L 45.90625 0 
L 45.90625 32.71875 
Q 45.90625 40.484375 42.875 44.328125 
Q 39.84375 48.1875 33.796875 48.1875 
Q 26.515625 48.1875 22.3125 43.546875 
Q 18.109375 38.921875 18.109375 30.90625 
L 18.109375 0 
L 9.078125 0 
L 9.078125 75.984375 
L 18.109375 75.984375 
L 18.109375 46.1875 
Q 21.34375 51.125 25.703125 53.5625 
Q 30.078125 56 35.796875 56 
Q 45.21875 56 50.046875 50.171875 
Q 54.890625 44.34375 54.890625 33.015625 
z
" id="DejaVuSans-104"/>
     <path d="M 34.28125 27.484375 
Q 23.390625 27.484375 19.1875 25 
Q 14.984375 22.515625 14.984375 16.5 
Q 14.984375 11.71875 18.140625 8.90625 
Q 21.296875 6.109375 26.703125 6.109375 
Q 34.1875 6.109375 38.703125 11.40625 
Q 43.21875 16.703125 43.21875 25.484375 
L 43.21875 27.484375 
z
M 52.203125 31.203125 
L 52.203125 0 
L 43.21875 0 
L 43.21875 8.296875 
Q 40.140625 3.328125 35.546875 0.953125 
Q 30.953125 -1.421875 24.3125 -1.421875 
Q 15.921875 -1.421875 10.953125 3.296875 
Q 6 8.015625 6 15.921875 
Q 6 25.140625 12.171875 29.828125 
Q 18.359375 34.515625 30.609375 34.515625 
L 43.21875 34.515625 
L 43.21875 35.40625 
Q 43.21875 41.609375 39.140625 45 
Q 35.0625 48.390625 27.6875 48.390625 
Q 23 48.390625 18.546875 47.265625 
Q 14.109375 46.140625 10.015625 43.890625 
L 10.015625 52.203125 
Q 14.9375 54.109375 19.578125 55.046875 
Q 24.21875 56 28.609375 56 
Q 40.484375 56 46.34375 49.84375 
Q 52.203125 43.703125 52.203125 31.203125 
z
" id="DejaVuSans-97"/>
     <path d="M 44.28125 53.078125 
L 44.28125 44.578125 
Q 40.484375 46.53125 36.375 47.5 
Q 32.28125 48.484375 27.875 48.484375 
Q 21.1875 48.484375 17.84375 46.4375 
Q 14.5 44.390625 14.5 40.28125 
Q 14.5 37.15625 16.890625 35.375 
Q 19.28125 33.59375 26.515625 31.984375 
L 29.59375 31.296875 
Q 39.15625 29.25 43.1875 25.515625 
Q 47.21875 21.78125 47.21875 15.09375 
Q 47.21875 7.46875 41.1875 3.015625 
Q 35.15625 -1.421875 24.609375 -1.421875 
Q 20.21875 -1.421875 15.453125 -0.5625 
Q 10.6875 0.296875 5.421875 2 
L 5.421875 11.28125 
Q 10.40625 8.6875 15.234375 7.390625 
Q 20.0625 6.109375 24.8125 6.109375 
Q 31.15625 6.109375 34.5625 8.28125 
Q 37.984375 10.453125 37.984375 14.40625 
Q 37.984375 18.0625 35.515625 20.015625 
Q 33.0625 21.96875 24.703125 23.78125 
L 21.578125 24.515625 
Q 13.234375 26.265625 9.515625 29.90625 
Q 5.8125 33.546875 5.8125 39.890625 
Q 5.8125 47.609375 11.28125 51.796875 
Q 16.75 56 26.8125 56 
Q 31.78125 56 36.171875 55.265625 
Q 40.578125 54.546875 44.28125 53.078125 
z
" id="DejaVuSans-115"/>
     <path d="M 9.421875 54.6875 
L 18.40625 54.6875 
L 18.40625 0 
L 9.421875 0 
z
M 9.421875 75.984375 
L 18.40625 75.984375 
L 18.40625 64.59375 
L 9.421875 64.59375 
z
" id="DejaVuSans-105"/>
     <path d="M 52 44.1875 
Q 55.375 50.25 60.0625 53.125 
Q 64.75 56 71.09375 56 
Q 79.640625 56 84.28125 50.015625 
Q 88.921875 44.046875 88.921875 33.015625 
L 88.921875 0 
L 79.890625 0 
L 79.890625 32.71875 
Q 79.890625 40.578125 77.09375 44.375 
Q 74.3125 48.1875 68.609375 48.1875 
Q 61.625 48.1875 57.5625 43.546875 
Q 53.515625 38.921875 53.515625 30.90625 
L 53.515625 0 
L 44.484375 0 
L 44.484375 32.71875 
Q 44.484375 40.625 41.703125 44.40625 
Q 38.921875 48.1875 33.109375 48.1875 
Q 26.21875 48.1875 22.15625 43.53125 
Q 18.109375 38.875 18.109375 30.90625 
L 18.109375 0 
L 9.078125 0 
L 9.078125 54.6875 
L 18.109375 54.6875 
L 18.109375 46.1875 
Q 21.1875 51.21875 25.484375 53.609375 
Q 29.78125 56 35.6875 56 
Q 41.65625 56 45.828125 52.96875 
Q 50 49.953125 52 44.1875 
z
" id="DejaVuSans-109"/>
     <path d="M 18.109375 8.203125 
L 18.109375 -20.796875 
L 9.078125 -20.796875 
L 9.078125 54.6875 
L 18.109375 54.6875 
L 18.109375 46.390625 
Q 20.953125 51.265625 25.265625 53.625 
Q 29.59375 56 35.59375 56 
Q 45.5625 56 51.78125 48.09375 
Q 58.015625 40.1875 58.015625 27.296875 
Q 58.015625 14.40625 51.78125 6.484375 
Q 45.5625 -1.421875 35.59375 -1.421875 
Q 29.59375 -1.421875 25.265625 0.953125 
Q 20.953125 3.328125 18.109375 8.203125 
z
M 48.6875 27.296875 
Q 48.6875 37.203125 44.609375 42.84375 
Q 40.53125 48.484375 33.40625 48.484375 
Q 26.265625 48.484375 22.1875 42.84375 
Q 18.109375 37.203125 18.109375 27.296875 
Q 18.109375 17.390625 22.1875 11.75 
Q 26.265625 6.109375 33.40625 6.109375 
Q 40.53125 6.109375 44.609375 11.75 
Q 48.6875 17.390625 48.6875 27.296875 
z
" id="DejaVuSans-112"/>
     <path d="M 40.578125 39.3125 
Q 47.65625 37.796875 51.625 33 
Q 55.609375 28.21875 55.609375 21.1875 
Q 55.609375 10.40625 48.1875 4.484375 
Q 40.765625 -1.421875 27.09375 -1.421875 
Q 22.515625 -1.421875 17.65625 -0.515625 
Q 12.796875 0.390625 7.625 2.203125 
L 7.625 11.71875 
Q 11.71875 9.328125 16.59375 8.109375 
Q 21.484375 6.890625 26.8125 6.890625 
Q 36.078125 6.890625 40.9375 10.546875 
Q 45.796875 14.203125 45.796875 21.1875 
Q 45.796875 27.640625 41.28125 31.265625 
Q 36.765625 34.90625 28.71875 34.90625 
L 20.21875 34.90625 
L 20.21875 43.015625 
L 29.109375 43.015625 
Q 36.375 43.015625 40.234375 45.921875 
Q 44.09375 48.828125 44.09375 54.296875 
Q 44.09375 59.90625 40.109375 62.90625 
Q 36.140625 65.921875 28.71875 65.921875 
Q 24.65625 65.921875 20.015625 65.03125 
Q 15.375 64.15625 9.8125 62.3125 
L 9.8125 71.09375 
Q 15.4375 72.65625 20.34375 73.4375 
Q 25.25 74.21875 29.59375 74.21875 
Q 40.828125 74.21875 47.359375 69.109375 
Q 53.90625 64.015625 53.90625 55.328125 
Q 53.90625 49.265625 50.4375 45.09375 
Q 46.96875 40.921875 40.578125 39.3125 
z
" id="DejaVuSans-51"/>
     <path d="M 41.109375 46.296875 
Q 39.59375 47.171875 37.8125 47.578125 
Q 36.03125 48 33.890625 48 
Q 26.265625 48 22.1875 43.046875 
Q 18.109375 38.09375 18.109375 28.8125 
L 18.109375 0 
L 9.078125 0 
L 9.078125 54.6875 
L 18.109375 54.6875 
L 18.109375 46.1875 
Q 20.953125 51.171875 25.484375 53.578125 
Q 30.03125 56 36.53125 56 
Q 37.453125 56 38.578125 55.875 
Q 39.703125 55.765625 41.0625 55.515625 
z
" id="DejaVuSans-114"/>
     <path d="M 30.609375 48.390625 
Q 23.390625 48.390625 19.1875 42.75 
Q 14.984375 37.109375 14.984375 27.296875 
Q 14.984375 17.484375 19.15625 11.84375 
Q 23.34375 6.203125 30.609375 6.203125 
Q 37.796875 6.203125 41.984375 11.859375 
Q 46.1875 17.53125 46.1875 27.296875 
Q 46.1875 37.015625 41.984375 42.703125 
Q 37.796875 48.390625 30.609375 48.390625 
z
M 30.609375 56 
Q 42.328125 56 49.015625 48.375 
Q 55.71875 40.765625 55.71875 27.296875 
Q 55.71875 13.875 49.015625 6.21875 
Q 42.328125 -1.421875 30.609375 -1.421875 
Q 18.84375 -1.421875 12.171875 6.21875 
Q 5.515625 13.875 5.515625 27.296875 
Q 5.515625 40.765625 12.171875 48.375 
Q 18.84375 56 30.609375 56 
z
" id="DejaVuSans-111"/>
     <path d="M 4.890625 31.390625 
L 31.203125 31.390625 
L 31.203125 23.390625 
L 4.890625 23.390625 
z
" id="DejaVuSans-45"/>
     <path d="M 31.78125 66.40625 
Q 24.171875 66.40625 20.328125 58.90625 
Q 16.5 51.421875 16.5 36.375 
Q 16.5 21.390625 20.328125 13.890625 
Q 24.171875 6.390625 31.78125 6.390625 
Q 39.453125 6.390625 43.28125 13.890625 
Q 47.125 21.390625 47.125 36.375 
Q 47.125 51.421875 43.28125 58.90625 
Q 39.453125 66.40625 31.78125 66.40625 
z
M 31.78125 74.21875 
Q 44.046875 74.21875 50.515625 64.515625 
Q 56.984375 54.828125 56.984375 36.375 
Q 56.984375 17.96875 50.515625 8.265625 
Q 44.046875 -1.421875 31.78125 -1.421875 
Q 19.53125 -1.421875 13.0625 8.265625 
Q 6.59375 17.96875 6.59375 36.375 
Q 6.59375 54.828125 13.0625 64.515625 
Q 19.53125 74.21875 31.78125 74.21875 
z
" id="DejaVuSans-48"/>
     <path d="M 10.6875 12.40625 
L 21 12.40625 
L 21 0 
L 10.6875 0 
z
" id="DejaVuSans-46"/>
     <path d="M 10.796875 72.90625 
L 49.515625 72.90625 
L 49.515625 64.59375 
L 19.828125 64.59375 
L 19.828125 46.734375 
Q 21.96875 47.46875 24.109375 47.828125 
Q 26.265625 48.1875 28.421875 48.1875 
Q 40.625 48.1875 47.75 41.5 
Q 54.890625 34.8125 54.890625 23.390625 
Q 54.890625 11.625 47.5625 5.09375 
Q 40.234375 -1.421875 26.90625 -1.421875 
Q 22.3125 -1.421875 17.546875 -0.640625 
Q 12.796875 0.140625 7.71875 1.703125 
L 7.71875 11.625 
Q 12.109375 9.234375 16.796875 8.0625 
Q 21.484375 6.890625 26.703125 6.890625 
Q 35.15625 6.890625 40.078125 11.328125 
Q 45.015625 15.765625 45.015625 23.390625 
Q 45.015625 31 40.078125 35.4375 
Q 35.15625 39.890625 26.703125 39.890625 
Q 22.75 39.890625 18.8125 39.015625 
Q 14.890625 38.140625 10.796875 36.28125 
z
" id="DejaVuSans-53"/>
    </defs>
    <use xlink:href="#DejaVuSans-76"/>
    <use x="55.712891" xlink:href="#DejaVuSans-54"/>
    <use x="119.335938" xlink:href="#DejaVuSans-32"/>
    <use x="151.123047" xlink:href="#DejaVuSans-73"/>
    <use x="180.615234" xlink:href="#DejaVuSans-84"/>
    <use x="241.699219" xlink:href="#DejaVuSans-32"/>
    <use x="273.486328" xlink:href="#DejaVuSans-99"/>
    <use x="328.466797" xlink:href="#DejaVuSans-101"/>
    <use x="389.990234" xlink:href="#DejaVuSans-108"/>
    <use x="417.773438" xlink:href="#DejaVuSans-108"/>
    <use x="445.556641" xlink:href="#DejaVuSans-32"/>
    <use x="477.34375" xlink:href="#DejaVuSans-104"/>
    <use x="540.722656" xlink:href="#DejaVuSans-97"/>
    <use x="602.001953" xlink:href="#DejaVuSans-115"/>
    <use x="654.101562" xlink:href="#DejaVuSans-32"/>
    <use x="685.888672" xlink:href="#DejaVuSans-84"/>
    <use x="743.847656" xlink:href="#DejaVuSans-105"/>
    <use x="771.630859" xlink:href="#DejaVuSans-109"/>
    <use x="869.042969" xlink:href="#DejaVuSans-112"/>
    <use x="932.519531" xlink:href="#DejaVuSans-51"/>
    <use x="996.142578" xlink:href="#DejaVuSans-32"/>
    <use x="1027.929688" xlink:href="#DejaVuSans-112"/>
    <use x="1091.40625" xlink:href="#DejaVuSans-101"/>
    <use x="1152.929688" xlink:href="#DejaVuSans-114"/>
    <use x="1194.042969" xlink:href="#DejaVuSans-105"/>
    <use x="1221.826172" xlink:href="#DejaVuSans-112"/>
    <use x="1285.302734" xlink:href="#DejaVuSans-104"/>
    <use x="1348.681641" xlink:href="#DejaVuSans-101"/>
    <use x="1410.205078" xlink:href="#DejaVuSans-114"/>
    <use x="1451.318359" xlink:href="#DejaVuSans-97"/>
    <use x="1512.597656" xlink:href="#DejaVuSans-108"/>
    <use x="1540.380859" xlink:href="#DejaVuSans-32"/>
    <use x="1572.167969" xlink:href="#DejaVuSans-115"/>
    <use x="1624.267578" xlink:href="#DejaVuSans-99"/>
    <use x="1679.248047" xlink:href="#DejaVuSans-111"/>
    <use x="1740.429688" xlink:href="#DejaVuSans-114"/>
    <use x="1779.292969" xlink:href="#DejaVuSans-101"/>
    <use x="1840.816406" xlink:href="#DejaVuSans-32"/>
    <use x="1872.603516" xlink:href="#DejaVuSans-45"/>
    <use x="1908.6875" xlink:href="#DejaVuSans-48"/>
    <use x="1972.310547" xlink:href="#DejaVuSans-46"/>
    <use x="2004.097656" xlink:href="#DejaVuSans-54"/>
    <use x="2067.720703" xlink:href="#DejaVuSans-53"/>
   </g>
  </g>
  <g id="legend_1">
   <g id="patch_38">
    <path d="M 1009.975 22.678125 
L 1073 22.678125 
Q 1075 22.678125 1075 20.678125 
L 1075 7 
Q 1075 5 1073 5 
L 1009.975 5 
Q 1007.975 5 1007.975 7 
L 1007.975 20.678125 
Q 1007.975 22.678125 1009.975 22.678125 
z
" style="fill:#ffffff;opacity:0.8;stroke:#cccccc;stroke-linejoin:miter;"/>
   </g>
   <g id="patch_39">
    <path d="M 1011.975 16.598438 
L 1031.975 16.598438 
L 1031.975 9.598438 
L 1011.975 9.598438 
z
" style="fill:#ff0000;"/>
   </g>
   <g id="text_2">
    <!-- Timp3 -->
    <g transform="translate(1039.975 16.598438)scale(0.1 -0.1)">
     <use xlink:href="#DejaVuSans-84"/>
     <use x="57.958984" xlink:href="#DejaVuSans-105"/>
     <use x="85.742188" xlink:href="#DejaVuSans-109"/>
     <use x="183.154297" xlink:href="#DejaVuSans-112"/>
     <use x="246.630859" xlink:href="#DejaVuSans-51"/>
    </g>
   </g>
  </g>
 </g>
 <defs>
  <clipPath id="p770871aad2">
   <rect height="271.8" width="279" x="135" y="86.4"/>
  </clipPath>
  <clipPath id="p34aad60a1c">
   <rect height="271.8" width="279" x="414" y="86.4"/>
  </clipPath>
  <clipPath id="pdc606d0237">
   <rect height="271.8" width="279" x="693" y="86.4"/>
  </clipPath>
  <clipPath id="p9aa96bac7d">
   <rect height="271.8" width="279" x="135" y="358.2"/>
  </clipPath>
  <clipPath id="p871df71534">
   <rect height="271.8" width="279" x="414" y="358.2"/>
  </clipPath>
  <clipPath id="pbaf9e708c2">
   <rect height="271.8" width="279" x="693" y="358.2"/>
  </clipPath>
 </defs>
</svg>
