<?xml version="1.0" encoding="utf-8" standalone="no"?>
<!DOCTYPE svg PUBLIC "-//W3C//DTD SVG 1.1//EN"
  "http://www.w3.org/Graphics/SVG/1.1/DTD/svg11.dtd">
<!-- Created with matplotlib (https://matplotlib.org/) -->
<svg height="432pt" version="1.1" viewBox="0 0 432 432" width="432pt" xmlns="http://www.w3.org/2000/svg" xmlns:xlink="http://www.w3.org/1999/xlink">
 <metadata>
  <rdf:RDF xmlns:cc="http://creativecommons.org/ns#" xmlns:dc="http://purl.org/dc/elements/1.1/" xmlns:rdf="http://www.w3.org/1999/02/22-rdf-syntax-ns#">
   <cc:Work>
    <dc:type rdf:resource="http://purl.org/dc/dcmitype/StillImage"/>
    <dc:date>2022-03-23T21:24:32.334528</dc:date>
    <dc:format>image/svg+xml</dc:format>
    <dc:creator>
     <cc:Agent>
      <dc:title>Matplotlib v3.3.3, https://matplotlib.org/</dc:title>
     </cc:Agent>
    </dc:creator>
   </cc:Work>
  </rdf:RDF>
 </metadata>
 <defs>
  <style type="text/css">*{stroke-linecap:butt;stroke-linejoin:round;}</style>
 </defs>
 <g id="figure_1">
  <g id="patch_1">
   <path d="M 0 432 
L 432 432 
L 432 0 
L 0 0 
z
" style="fill:none;"/>
  </g>
  <g id="patch_2">
   <path d="M 58.32 378 
L 384.48 378 
L 384.48 51.84 
L 58.32 51.84 
z
" style="fill:#ffffff;"/>
  </g>
  <g id="pane3d_1">
   <g id="patch_3">
    <path d="M 82.947329 297.579397 
L 190.656013 207.295842 
L 189.158759 77.090817 
L 76.29566 159.453166 
" style="fill:#f2f2f2;opacity:0.5;stroke:#f2f2f2;stroke-linejoin:miter;"/>
   </g>
  </g>
  <g id="pane3d_2">
   <g id="patch_4">
    <path d="M 190.656013 207.295842 
L 363.49002 257.531864 
L 369.657857 122.842076 
L 189.158759 77.090817 
" style="fill:#e6e6e6;opacity:0.5;stroke:#e6e6e6;stroke-linejoin:miter;"/>
   </g>
  </g>
  <g id="pane3d_3">
   <g id="patch_5">
    <path d="M 82.947329 297.579397 
L 266.159818 357.416595 
L 363.49002 257.531864 
L 190.656013 207.295842 
" style="fill:#ececec;opacity:0.5;stroke:#ececec;stroke-linejoin:miter;"/>
   </g>
  </g>
  <g id="axis3d_1">
   <g id="line2d_1">
    <path d="M 82.947329 297.579397 
L 266.159818 357.416595 
" style="fill:none;stroke:#000000;stroke-linecap:square;stroke-width:0.8;"/>
   </g>
  </g>
  <g id="axis3d_2">
   <g id="line2d_2">
    <path d="M 363.49002 257.531864 
L 266.159818 357.416595 
" style="fill:none;stroke:#000000;stroke-linecap:square;stroke-width:0.8;"/>
   </g>
  </g>
  <g id="axis3d_3">
   <g id="line2d_3">
    <path d="M 363.49002 257.531864 
L 369.657857 122.842076 
" style="fill:none;stroke:#000000;stroke-linecap:square;stroke-width:0.8;"/>
   </g>
  </g>
  <g id="axes_1">
   <g id="line2d_4">
    <path clip-path="url(#pf12c3c829a)" d="M 293.581324 295.079288 
L 290.523757 298.122702 
L 287.449263 301.182966 
L 284.357699 304.26022 
L 281.248923 307.354606 
L 276.801008 309.234335 
L 273.657154 312.356514 
L 269.176387 314.253164 
L 266.375075 316.773529 
L 261.482916 319.317313 
L 256.953498 321.237637 
L 252.408613 323.164519 
L 247.848183 325.097992 
L 243.272127 327.038089 
L 238.680365 328.984845 
L 233.177343 329.017066 
L 228.642769 325.847192 
L 218.921075 322.725301 
L 211.851976 319.605473 
L 204.8218 316.502823 
L 202.204829 313.890946 
L 198.61085 310.303963 
L 196.022635 307.720786 
L 191.67451 304.668448 
L 187.350125 301.632775 
L 183.049286 298.61363 
L 178.771799 295.61088 
L 174.517477 292.62439 
L 170.286131 289.654029 
L 166.869505 286.220203 
L 161.891627 283.761174 
L 156.010069 280.378141 
L 151.875126 277.473463 
L 154.461815 275.011807 
L 157.822401 272.094143 
L 160.74634 269.769934 
L 166.380178 269.163248 
L 173.581742 269.123316 
L 179.204974 268.517358 
L 184.41648 268.488477 
L 191.612862 268.448595 
L 198.012111 269.563189 
L 205.215177 269.523228 
L 210.822684 268.916819 
L 215.217324 267.170278 
L 220.806966 266.566516 
L 226.390331 265.963432 
L 231.588202 265.934687 
L 238.765758 265.894995 
L 243.962967 265.866253 
L 252.013884 267.539908 
L 260.08995 269.218791 
L 268.191283 270.902926 
L 276.675524 272.01154 
L 281.90133 271.98247 
L 287.829476 270.793801 
L 290.818894 267.898803 
L 293.792302 265.019309 
L 296.749826 262.155196 
L 299.691595 259.306342 
L 302.617734 256.472623 
L 305.528367 253.653921 
L 308.423617 250.850116 
L 311.303605 248.061091 
L 316.74087 247.478606 
L 324.440586 249.651753 
L 324.733943 251.985948 
L 321.878839 254.795783 
L 321.463349 257.607087 
L 318.584334 260.44686 
L 318.157861 263.288198 
L 315.254585 266.15839 
L 312.335701 269.044013 
L 309.401083 271.94519 
L 306.450604 274.862047 
L 305.985635 277.780722 
L 303.009879 280.729249 
L 301.802305 284.156937 
L 299.531645 286.660415 
L 296.513792 289.657461 
L 293.479359 292.670973 
L 293.581324 295.079288 
" style="fill:none;stroke:#808080;stroke-linecap:square;stroke-width:1.5;"/>
   </g>
   <g id="line2d_5">
    <path clip-path="url(#pf12c3c829a)" d="M 299.521309 270.205142 
L 296.475348 273.184577 
L 293.412495 276.180534 
L 290.332612 279.19315 
L 287.235554 282.222565 
L 284.121179 285.268919 
L 279.658571 287.119507 
L 276.50888 290.193344 
L 272.013175 292.060664 
L 267.502146 293.934349 
L 264.298434 297.046638 
L 259.753705 298.93737 
L 255.193388 300.834588 
L 250.617404 302.738323 
L 246.420071 304.017635 
L 239.202618 303.430939 
L 232.026395 300.342368 
L 222.27957 297.285783 
L 215.189732 294.231244 
L 209.939808 291.674632 
L 203.716179 288.157953 
L 198.521614 285.629421 
L 192.368443 282.15126 
L 185.457054 279.179734 
L 181.144466 276.210076 
L 174.301108 273.270825 
L 170.042234 270.333336 
L 165.806451 267.411773 
L 161.593572 264.506008 
L 156.606028 262.085356 
L 150.715509 258.755198 
L 153.322941 256.319094 
L 156.710063 253.431815 
L 160.078846 250.560169 
L 165.749194 249.960481 
L 170.997634 249.931899 
L 176.658431 249.332923 
L 183.901495 249.293498 
L 189.146134 249.264952 
L 195.986317 249.795811 
L 204.435325 250.887765 
L 208.478246 249.727781 
L 214.508643 248.559476 
L 220.137478 247.962054 
L 225.759948 247.365307 
L 231.376063 246.769235 
L 236.606894 246.740825 
L 243.82996 246.701593 
L 250.309006 247.798006 
L 258.429889 249.455746 
L 268.213286 251.680104 
L 274.748447 252.786903 
L 282.011513 252.74722 
L 287.624316 252.145051 
L 290.635062 249.280358 
L 293.62957 246.431114 
L 296.607973 243.597194 
L 299.570399 240.778476 
L 302.516977 237.974837 
L 305.447834 235.186157 
L 308.363096 232.412316 
L 311.262886 229.653195 
L 316.737232 229.076969 
L 323.1824 230.137004 
L 325.930546 232.428199 
L 325.524517 235.188892 
L 322.647354 237.977587 
L 322.230389 240.767865 
L 319.32893 243.586526 
L 316.411824 246.420388 
L 313.478943 249.269574 
L 313.032723 252.120541 
L 310.07475 255.000676 
L 307.10065 257.896513 
L 304.110292 260.80818 
L 303.633632 263.721839 
L 300.617348 266.665481 
L 299.388284 270.087719 
L 299.521309 270.205142 
" style="fill:none;stroke:#808080;stroke-linecap:square;stroke-width:1.5;"/>
   </g>
   <g id="line2d_6">
    <path clip-path="url(#pf12c3c829a)" d="M 293.171002 239.905872 
L 290.405787 242.274438 
L 285.536556 244.665082 
L 281.018904 246.469847 
L 278.208662 248.868231 
L 273.66031 250.687457 
L 268.713516 253.116622 
L 264.516439 254.344776 
L 258.196138 255.587355 
L 253.977062 256.821242 
L 248.026229 257.460317 
L 239.436882 255.69011 
L 230.876046 253.925779 
L 222.343579 252.167294 
L 213.83934 250.414628 
L 205.36319 248.66775 
L 195.662206 245.745399 
L 189.867344 243.999739 
L 180.251816 241.103131 
L 175.888798 238.194436 
L 171.549921 235.301835 
L 167.234985 232.425195 
L 164.712224 230.015267 
L 160.437875 227.167684 
L 156.186927 224.33569 
L 151.959189 221.51916 
L 147.754472 218.717965 
L 144.38095 215.479856 
L 141.951316 213.147748 
L 140.338843 210.378623 
L 138.735097 207.624486 
L 137.140008 204.885214 
L 141.716379 203.219959 
L 146.277718 201.560174 
L 150.396343 200.451039 
L 157.664191 200.413315 
L 164.511179 200.92131 
L 171.365073 201.429817 
L 176.632593 201.402446 
L 182.310918 200.82887 
L 189.580295 200.791117 
L 195.247823 200.218236 
L 200.908913 199.646005 
L 206.16632 199.618731 
L 213.032336 200.125925 
L 219.905271 200.633629 
L 228.018233 202.225088 
L 236.156853 203.821579 
L 245.957032 205.963804 
L 251.246194 205.936186 
L 258.5498 205.89805 
L 263.838275 205.870437 
L 270.776167 206.383949 
L 278.082266 206.34578 
L 282.433033 204.675719 
L 285.472347 201.926225 
L 288.495192 199.19163 
L 284.749949 196.075402 
L 276.597444 194.503258 
L 267.205678 191.872622 
L 257.863104 189.255764 
L 253.510578 186.627268 
L 250.907514 184.42473 
L 249.052957 181.809089 
L 249.660322 179.194742 
L 248.551812 176.188528 
L 245.986898 174.031958 
L 241.73153 171.483048 
L 244.407866 171.469549 
L 252.323304 172.970181 
L 261.498512 175.502106 
L 269.472919 177.015138 
L 278.730559 179.568027 
L 288.03634 182.134192 
L 297.39064 184.713737 
L 300.097722 186.91756 
L 299.620296 189.573052 
L 303.387075 192.648962 
L 310.592979 192.61182 
L 313.18424 190.461853 
L 318.724215 189.900647 
L 328.232759 192.520897 
L 326.050564 194.785306 
L 325.639213 197.483047 
L 324.508106 200.634064 
L 322.299661 202.935411 
L 321.874776 205.67727 
L 321.447579 208.434051 
L 320.290818 211.654232 
L 318.04844 214.006233 
L 313.716809 215.707255 
L 310.713877 218.532451 
L 307.694314 221.373293 
L 304.657981 224.229912 
L 301.604739 227.10244 
L 300.362588 230.442263 
L 298.031923 232.881896 
L 294.934396 235.802878 
L 291.819424 238.74031 
L 293.171002 239.905872 
" style="fill:none;stroke:#808080;stroke-linecap:square;stroke-width:1.5;"/>
   </g>
   <g id="line2d_7">
    <path clip-path="url(#pf12c3c829a)" d="M 302.355482 211.468851 
L 299.252975 214.345581 
L 296.132898 217.238601 
L 292.995102 220.148051 
L 289.839435 223.074072 
L 285.303881 224.851707 
L 282.111725 227.804616 
L 277.54192 229.598624 
L 272.956249 231.398861 
L 268.354629 233.20536 
L 262.389339 233.832681 
L 258.151273 235.048158 
L 250.437155 235.089596 
L 243.524401 233.933902 
L 234.908409 232.195922 
L 227.623469 231.641542 
L 220.346293 231.087753 
L 212.659988 231.128876 
L 205.815191 229.981943 
L 197.294543 228.257119 
L 189.369234 225.830923 
L 182.299627 222.945079 
L 176.088234 219.607367 
L 170.893853 217.20768 
L 166.542661 214.356012 
L 162.215623 211.520175 
L 157.912537 208.700035 
L 153.633207 205.895464 
L 149.377435 203.106333 
L 145.961589 199.882379 
L 143.501621 197.560604 
L 140.123106 194.371884 
L 137.68995 192.075414 
L 136.080311 189.348681 
L 132.752674 186.211781 
L 131.165845 183.516906 
L 131.303664 181.257029 
L 137.042902 180.691444 
L 142.775576 180.126506 
L 146.200318 177.43899 
L 150.327756 176.354077 
L 156.027717 175.794087 
L 161.721193 175.234734 
L 167.408194 174.676017 
L 174.678382 174.639242 
L 180.354575 174.081202 
L 185.615709 174.054604 
L 192.880616 174.017877 
L 198.141071 173.991282 
L 205.40504 173.954559 
L 211.059829 173.397297 
L 216.7082 172.840667 
L 222.350163 172.284668 
L 225.532931 169.639609 
L 228.698558 167.008794 
L 231.847183 164.39211 
L 232.505614 161.801793 
L 233.906097 158.81108 
L 234.5553 156.250392 
L 234.460014 154.11304 
L 235.104608 151.577161 
L 240.61404 151.045017 
L 248.198466 153.03037 
L 256.17784 154.513538 
L 264.181898 156.001293 
L 273.469842 158.511585 
L 282.806316 161.034993 
L 292.191701 163.57162 
L 301.626383 166.121571 
L 306.852083 168.287672 
L 315.989665 170.759234 
L 321.229328 170.732816 
L 321.522492 172.944782 
L 323.604512 175.582382 
L 323.183645 178.246987 
L 325.28145 180.913234 
L 324.862865 183.606859 
L 324.441992 186.315208 
L 324.018813 189.0384 
L 321.044614 191.789687 
L 318.053946 194.556209 
L 313.691449 196.236732 
L 310.666983 199.02797 
L 307.625646 201.834777 
L 304.567297 204.657284 
L 304.080809 207.482081 
L 300.995329 210.336309 
L 302.355482 211.468851 
" style="fill:none;stroke:#808080;stroke-linecap:square;stroke-width:1.5;"/>
   </g>
   <g id="line2d_8">
    <path clip-path="url(#pf12c3c829a)" d="M 304.995842 193.772314 
L 301.871142 196.626155 
L 297.351696 198.359947 
L 294.190746 201.240041 
L 291.011639 204.136677 
L 286.439433 205.896529 
L 283.223243 208.820011 
L 278.616218 210.596211 
L 273.993058 212.378632 
L 267.990397 212.997601 
L 263.729899 214.196911 
L 255.963188 214.237798 
L 250.33863 214.267408 
L 241.642418 212.548645 
L 232.975418 210.835655 
L 225.645738 210.289254 
L 218.323921 209.743439 
L 210.589261 209.78397 
L 203.703823 208.653563 
L 195.133343 206.953621 
L 185.334026 204.109954 
L 180.056151 201.718435 
L 173.813495 198.429186 
L 168.592279 196.064423 
L 162.421647 192.811871 
L 158.081372 190.019958 
L 153.76526 187.243587 
L 149.473111 184.482631 
L 145.204725 181.736961 
L 142.724701 179.436793 
L 139.318808 176.277901 
L 136.866052 174.003024 
L 135.244524 171.302049 
L 133.631896 168.6159 
L 130.292021 165.525798 
L 128.702399 162.871221 
L 130.941836 161.163659 
L 136.718657 160.605961 
L 142.926264 159.519012 
L 146.370939 156.871947 
L 149.796804 154.239336 
L 155.521569 153.689581 
L 160.815214 153.663379 
L 166.530257 153.114282 
L 172.656657 152.044083 
L 178.355321 151.496835 
L 182.448698 150.44015 
L 188.540372 149.375899 
L 194.214162 148.83169 
L 198.278746 147.780867 
L 204.335986 146.722514 
L 207.569292 144.144958 
L 211.991956 142.592907 
L 215.190711 140.037586 
L 218.372303 137.495975 
L 221.53687 134.967964 
L 224.684549 132.453445 
L 229.025384 130.93927 
L 231.763695 128.94255 
L 237.292316 128.421332 
L 245.263393 129.868046 
L 254.497661 132.309084 
L 261.310294 134.774861 
L 268.158775 137.253614 
L 277.526104 139.733325 
L 286.942741 142.22609 
L 296.409079 144.732011 
L 305.92551 147.251193 
L 312.983863 149.796118 
L 318.288345 151.947597 
L 322.170212 154.951914 
L 324.271819 157.563275 
L 324.575943 159.775125 
L 326.694672 162.412765 
L 326.276544 165.077606 
L 323.30057 167.769978 
L 320.308072 170.477301 
L 317.29891 173.199698 
L 314.272947 175.937296 
L 311.23004 178.690222 
L 308.170048 181.458607 
L 307.691779 184.229296 
L 307.210822 187.015556 
L 305.969676 190.270794 
L 303.619748 192.648825 
L 304.995842 193.772314 
" style="fill:none;stroke:#808080;stroke-linecap:square;stroke-width:1.5;"/>
   </g>
   <g id="line2d_9">
    <path clip-path="url(#pf12c3c829a)" d="M 290.751019 188.322542 
L 284.353945 189.507765 
L 279.709088 191.265271 
L 273.668589 191.875599 
L 268.993796 193.641472 
L 262.932351 194.254709 
L 257.262675 194.283974 
L 248.081128 193.168016 
L 239.736581 190.892327 
L 231.017968 189.205102 
L 223.642996 188.666926 
L 216.275986 188.129332 
L 208.916924 187.592318 
L 199.850151 186.491212 
L 191.670132 184.24576 
L 183.667647 181.896142 
L 176.533643 179.101548 
L 170.270642 175.869597 
L 163.217592 173.1089 
L 158.840822 170.350385 
L 154.48861 167.607347 
L 149.330067 165.322685 
L 145.85704 162.167189 
L 141.577276 159.469813 
L 139.093303 157.210161 
L 135.682081 154.106997 
L 133.225556 151.872314 
L 131.606039 149.219128 
L 129.995456 146.580579 
L 128.393734 143.956546 
L 129.359719 141.334407 
L 133.578644 140.270884 
L 139.388519 139.721949 
L 144.466988 137.620617 
L 147.924197 135.020906 
L 151.362437 132.435459 
L 155.946712 130.878762 
L 161.68621 130.340652 
L 165.82048 129.301621 
L 170.365625 127.755279 
L 176.494007 126.712271 
L 181.009036 125.17446 
L 186.699373 124.642872 
L 192.383226 124.111889 
L 197.657481 124.086581 
L 203.731526 123.051736 
L 206.975048 120.531459 
L 210.201045 118.024799 
L 213.40966 115.531645 
L 217.810685 114.030398 
L 220.985074 111.558692 
L 225.354913 110.070333 
L 229.710621 108.586786 
L 235.272529 108.073936 
L 241.683123 109.017388 
L 250.085129 109.953436 
L 255.277674 109.928891 
L 263.339454 111.358168 
L 272.693975 113.769862 
L 282.097737 116.19425 
L 284.064145 118.667167 
L 286.041112 121.153361 
L 293.046881 123.628863 
L 302.605702 126.105495 
L 312.215515 128.59534 
L 320.074693 130.698319 
L 322.175354 133.249624 
L 324.287473 135.814845 
L 326.411143 138.394095 
L 325.9911 140.999983 
L 325.568735 143.620271 
L 325.14403 146.255079 
L 322.48479 148.384879 
L 317.748711 150.53441 
L 314.710647 153.22054 
L 311.655496 155.921777 
L 308.583114 158.638249 
L 308.103878 161.35705 
L 307.621937 164.091197 
L 307.137267 166.840823 
L 306.649846 169.606058 
L 308.035606 172.823585 
L 290.751019 188.322542 
" style="fill:none;stroke:#808080;stroke-linecap:square;stroke-width:1.5;"/>
   </g>
   <g id="Path3DCollection_1">
    <defs>
     <path d="M 0 5 
C 1.326016 5 2.597899 4.473168 3.535534 3.535534 
C 4.473168 2.597899 5 1.326016 5 -0 
C 5 -1.326016 4.473168 -2.597899 3.535534 -3.535534 
C 2.597899 -4.473168 1.326016 -5 0 -5 
C -1.326016 -5 -2.597899 -4.473168 -3.535534 -3.535534 
C -4.473168 -2.597899 -5 -1.326016 -5 0 
C -5 1.326016 -4.473168 2.597899 -3.535534 3.535534 
C -2.597899 4.473168 -1.326016 5 0 5 
z
" id="C0_0_37a8441fb6"/>
    </defs>
    <g clip-path="url(#pf12c3c829a)">
     <use style="fill:#ff0000;fill-opacity:0.3;stroke:#ff0000;stroke-opacity:0.3;" x="241.764083" xlink:href="#C0_0_37a8441fb6" y="269.197893"/>
    </g>
    <g clip-path="url(#pf12c3c829a)">
     <use style="fill:#ff0000;fill-opacity:0.347156;stroke:#ff0000;stroke-opacity:0.347156;" x="314.013306" xlink:href="#C0_0_37a8441fb6" y="191.652503"/>
    </g>
    <g clip-path="url(#pf12c3c829a)">
     <use style="fill:#ff0000;fill-opacity:0.542879;stroke:#ff0000;stroke-opacity:0.542879;" x="151.736152" xlink:href="#C0_0_37a8441fb6" y="200.785779"/>
    </g>
    <g clip-path="url(#pf12c3c829a)">
     <use style="fill:#ff0000;fill-opacity:0.848663;stroke:#ff0000;stroke-opacity:0.848663;" x="233.533715" xlink:href="#C0_0_37a8441fb6" y="187.79028"/>
    </g>
    <g clip-path="url(#pf12c3c829a)">
     <use style="fill:#ff0000;stroke:#ff0000;" x="234.041234" xlink:href="#C0_0_37a8441fb6" y="167.210962"/>
    </g>
   </g>
   <g id="text_1">
    <!-- L6 IT cell has Timp3 peripheral score -0.65 -->
    <g transform="translate(93.520313 45.84)scale(0.12 -0.12)">
     <defs>
      <path d="M 9.8125 72.90625 
L 19.671875 72.90625 
L 19.671875 8.296875 
L 55.171875 8.296875 
L 55.171875 0 
L 9.8125 0 
z
" id="DejaVuSans-76"/>
      <path d="M 33.015625 40.375 
Q 26.375 40.375 22.484375 35.828125 
Q 18.609375 31.296875 18.609375 23.390625 
Q 18.609375 15.53125 22.484375 10.953125 
Q 26.375 6.390625 33.015625 6.390625 
Q 39.65625 6.390625 43.53125 10.953125 
Q 47.40625 15.53125 47.40625 23.390625 
Q 47.40625 31.296875 43.53125 35.828125 
Q 39.65625 40.375 33.015625 40.375 
z
M 52.59375 71.296875 
L 52.59375 62.3125 
Q 48.875 64.0625 45.09375 64.984375 
Q 41.3125 65.921875 37.59375 65.921875 
Q 27.828125 65.921875 22.671875 59.328125 
Q 17.53125 52.734375 16.796875 39.40625 
Q 19.671875 43.65625 24.015625 45.921875 
Q 28.375 48.1875 33.59375 48.1875 
Q 44.578125 48.1875 50.953125 41.515625 
Q 57.328125 34.859375 57.328125 23.390625 
Q 57.328125 12.15625 50.6875 5.359375 
Q 44.046875 -1.421875 33.015625 -1.421875 
Q 20.359375 -1.421875 13.671875 8.265625 
Q 6.984375 17.96875 6.984375 36.375 
Q 6.984375 53.65625 15.1875 63.9375 
Q 23.390625 74.21875 37.203125 74.21875 
Q 40.921875 74.21875 44.703125 73.484375 
Q 48.484375 72.75 52.59375 71.296875 
z
" id="DejaVuSans-54"/>
      <path id="DejaVuSans-32"/>
      <path d="M 9.8125 72.90625 
L 19.671875 72.90625 
L 19.671875 0 
L 9.8125 0 
z
" id="DejaVuSans-73"/>
      <path d="M -0.296875 72.90625 
L 61.375 72.90625 
L 61.375 64.59375 
L 35.5 64.59375 
L 35.5 0 
L 25.59375 0 
L 25.59375 64.59375 
L -0.296875 64.59375 
z
" id="DejaVuSans-84"/>
      <path d="M 48.78125 52.59375 
L 48.78125 44.1875 
Q 44.96875 46.296875 41.140625 47.34375 
Q 37.3125 48.390625 33.40625 48.390625 
Q 24.65625 48.390625 19.8125 42.84375 
Q 14.984375 37.3125 14.984375 27.296875 
Q 14.984375 17.28125 19.8125 11.734375 
Q 24.65625 6.203125 33.40625 6.203125 
Q 37.3125 6.203125 41.140625 7.25 
Q 44.96875 8.296875 48.78125 10.40625 
L 48.78125 2.09375 
Q 45.015625 0.34375 40.984375 -0.53125 
Q 36.96875 -1.421875 32.421875 -1.421875 
Q 20.0625 -1.421875 12.78125 6.34375 
Q 5.515625 14.109375 5.515625 27.296875 
Q 5.515625 40.671875 12.859375 48.328125 
Q 20.21875 56 33.015625 56 
Q 37.15625 56 41.109375 55.140625 
Q 45.0625 54.296875 48.78125 52.59375 
z
" id="DejaVuSans-99"/>
      <path d="M 56.203125 29.59375 
L 56.203125 25.203125 
L 14.890625 25.203125 
Q 15.484375 15.921875 20.484375 11.0625 
Q 25.484375 6.203125 34.421875 6.203125 
Q 39.59375 6.203125 44.453125 7.46875 
Q 49.3125 8.734375 54.109375 11.28125 
L 54.109375 2.78125 
Q 49.265625 0.734375 44.1875 -0.34375 
Q 39.109375 -1.421875 33.890625 -1.421875 
Q 20.796875 -1.421875 13.15625 6.1875 
Q 5.515625 13.8125 5.515625 26.8125 
Q 5.515625 40.234375 12.765625 48.109375 
Q 20.015625 56 32.328125 56 
Q 43.359375 56 49.78125 48.890625 
Q 56.203125 41.796875 56.203125 29.59375 
z
M 47.21875 32.234375 
Q 47.125 39.59375 43.09375 43.984375 
Q 39.0625 48.390625 32.421875 48.390625 
Q 24.90625 48.390625 20.390625 44.140625 
Q 15.875 39.890625 15.1875 32.171875 
z
" id="DejaVuSans-101"/>
      <path d="M 9.421875 75.984375 
L 18.40625 75.984375 
L 18.40625 0 
L 9.421875 0 
z
" id="DejaVuSans-108"/>
      <path d="M 54.890625 33.015625 
L 54.890625 0 
L 45.90625 0 
L 45.90625 32.71875 
Q 45.90625 40.484375 42.875 44.328125 
Q 39.84375 48.1875 33.796875 48.1875 
Q 26.515625 48.1875 22.3125 43.546875 
Q 18.109375 38.921875 18.109375 30.90625 
L 18.109375 0 
L 9.078125 0 
L 9.078125 75.984375 
L 18.109375 75.984375 
L 18.109375 46.1875 
Q 21.34375 51.125 25.703125 53.5625 
Q 30.078125 56 35.796875 56 
Q 45.21875 56 50.046875 50.171875 
Q 54.890625 44.34375 54.890625 33.015625 
z
" id="DejaVuSans-104"/>
      <path d="M 34.28125 27.484375 
Q 23.390625 27.484375 19.1875 25 
Q 14.984375 22.515625 14.984375 16.5 
Q 14.984375 11.71875 18.140625 8.90625 
Q 21.296875 6.109375 26.703125 6.109375 
Q 34.1875 6.109375 38.703125 11.40625 
Q 43.21875 16.703125 43.21875 25.484375 
L 43.21875 27.484375 
z
M 52.203125 31.203125 
L 52.203125 0 
L 43.21875 0 
L 43.21875 8.296875 
Q 40.140625 3.328125 35.546875 0.953125 
Q 30.953125 -1.421875 24.3125 -1.421875 
Q 15.921875 -1.421875 10.953125 3.296875 
Q 6 8.015625 6 15.921875 
Q 6 25.140625 12.171875 29.828125 
Q 18.359375 34.515625 30.609375 34.515625 
L 43.21875 34.515625 
L 43.21875 35.40625 
Q 43.21875 41.609375 39.140625 45 
Q 35.0625 48.390625 27.6875 48.390625 
Q 23 48.390625 18.546875 47.265625 
Q 14.109375 46.140625 10.015625 43.890625 
L 10.015625 52.203125 
Q 14.9375 54.109375 19.578125 55.046875 
Q 24.21875 56 28.609375 56 
Q 40.484375 56 46.34375 49.84375 
Q 52.203125 43.703125 52.203125 31.203125 
z
" id="DejaVuSans-97"/>
      <path d="M 44.28125 53.078125 
L 44.28125 44.578125 
Q 40.484375 46.53125 36.375 47.5 
Q 32.28125 48.484375 27.875 48.484375 
Q 21.1875 48.484375 17.84375 46.4375 
Q 14.5 44.390625 14.5 40.28125 
Q 14.5 37.15625 16.890625 35.375 
Q 19.28125 33.59375 26.515625 31.984375 
L 29.59375 31.296875 
Q 39.15625 29.25 43.1875 25.515625 
Q 47.21875 21.78125 47.21875 15.09375 
Q 47.21875 7.46875 41.1875 3.015625 
Q 35.15625 -1.421875 24.609375 -1.421875 
Q 20.21875 -1.421875 15.453125 -0.5625 
Q 10.6875 0.296875 5.421875 2 
L 5.421875 11.28125 
Q 10.40625 8.6875 15.234375 7.390625 
Q 20.0625 6.109375 24.8125 6.109375 
Q 31.15625 6.109375 34.5625 8.28125 
Q 37.984375 10.453125 37.984375 14.40625 
Q 37.984375 18.0625 35.515625 20.015625 
Q 33.0625 21.96875 24.703125 23.78125 
L 21.578125 24.515625 
Q 13.234375 26.265625 9.515625 29.90625 
Q 5.8125 33.546875 5.8125 39.890625 
Q 5.8125 47.609375 11.28125 51.796875 
Q 16.75 56 26.8125 56 
Q 31.78125 56 36.171875 55.265625 
Q 40.578125 54.546875 44.28125 53.078125 
z
" id="DejaVuSans-115"/>
      <path d="M 9.421875 54.6875 
L 18.40625 54.6875 
L 18.40625 0 
L 9.421875 0 
z
M 9.421875 75.984375 
L 18.40625 75.984375 
L 18.40625 64.59375 
L 9.421875 64.59375 
z
" id="DejaVuSans-105"/>
      <path d="M 52 44.1875 
Q 55.375 50.25 60.0625 53.125 
Q 64.75 56 71.09375 56 
Q 79.640625 56 84.28125 50.015625 
Q 88.921875 44.046875 88.921875 33.015625 
L 88.921875 0 
L 79.890625 0 
L 79.890625 32.71875 
Q 79.890625 40.578125 77.09375 44.375 
Q 74.3125 48.1875 68.609375 48.1875 
Q 61.625 48.1875 57.5625 43.546875 
Q 53.515625 38.921875 53.515625 30.90625 
L 53.515625 0 
L 44.484375 0 
L 44.484375 32.71875 
Q 44.484375 40.625 41.703125 44.40625 
Q 38.921875 48.1875 33.109375 48.1875 
Q 26.21875 48.1875 22.15625 43.53125 
Q 18.109375 38.875 18.109375 30.90625 
L 18.109375 0 
L 9.078125 0 
L 9.078125 54.6875 
L 18.109375 54.6875 
L 18.109375 46.1875 
Q 21.1875 51.21875 25.484375 53.609375 
Q 29.78125 56 35.6875 56 
Q 41.65625 56 45.828125 52.96875 
Q 50 49.953125 52 44.1875 
z
" id="DejaVuSans-109"/>
      <path d="M 18.109375 8.203125 
L 18.109375 -20.796875 
L 9.078125 -20.796875 
L 9.078125 54.6875 
L 18.109375 54.6875 
L 18.109375 46.390625 
Q 20.953125 51.265625 25.265625 53.625 
Q 29.59375 56 35.59375 56 
Q 45.5625 56 51.78125 48.09375 
Q 58.015625 40.1875 58.015625 27.296875 
Q 58.015625 14.40625 51.78125 6.484375 
Q 45.5625 -1.421875 35.59375 -1.421875 
Q 29.59375 -1.421875 25.265625 0.953125 
Q 20.953125 3.328125 18.109375 8.203125 
z
M 48.6875 27.296875 
Q 48.6875 37.203125 44.609375 42.84375 
Q 40.53125 48.484375 33.40625 48.484375 
Q 26.265625 48.484375 22.1875 42.84375 
Q 18.109375 37.203125 18.109375 27.296875 
Q 18.109375 17.390625 22.1875 11.75 
Q 26.265625 6.109375 33.40625 6.109375 
Q 40.53125 6.109375 44.609375 11.75 
Q 48.6875 17.390625 48.6875 27.296875 
z
" id="DejaVuSans-112"/>
      <path d="M 40.578125 39.3125 
Q 47.65625 37.796875 51.625 33 
Q 55.609375 28.21875 55.609375 21.1875 
Q 55.609375 10.40625 48.1875 4.484375 
Q 40.765625 -1.421875 27.09375 -1.421875 
Q 22.515625 -1.421875 17.65625 -0.515625 
Q 12.796875 0.390625 7.625 2.203125 
L 7.625 11.71875 
Q 11.71875 9.328125 16.59375 8.109375 
Q 21.484375 6.890625 26.8125 6.890625 
Q 36.078125 6.890625 40.9375 10.546875 
Q 45.796875 14.203125 45.796875 21.1875 
Q 45.796875 27.640625 41.28125 31.265625 
Q 36.765625 34.90625 28.71875 34.90625 
L 20.21875 34.90625 
L 20.21875 43.015625 
L 29.109375 43.015625 
Q 36.375 43.015625 40.234375 45.921875 
Q 44.09375 48.828125 44.09375 54.296875 
Q 44.09375 59.90625 40.109375 62.90625 
Q 36.140625 65.921875 28.71875 65.921875 
Q 24.65625 65.921875 20.015625 65.03125 
Q 15.375 64.15625 9.8125 62.3125 
L 9.8125 71.09375 
Q 15.4375 72.65625 20.34375 73.4375 
Q 25.25 74.21875 29.59375 74.21875 
Q 40.828125 74.21875 47.359375 69.109375 
Q 53.90625 64.015625 53.90625 55.328125 
Q 53.90625 49.265625 50.4375 45.09375 
Q 46.96875 40.921875 40.578125 39.3125 
z
" id="DejaVuSans-51"/>
      <path d="M 41.109375 46.296875 
Q 39.59375 47.171875 37.8125 47.578125 
Q 36.03125 48 33.890625 48 
Q 26.265625 48 22.1875 43.046875 
Q 18.109375 38.09375 18.109375 28.8125 
L 18.109375 0 
L 9.078125 0 
L 9.078125 54.6875 
L 18.109375 54.6875 
L 18.109375 46.1875 
Q 20.953125 51.171875 25.484375 53.578125 
Q 30.03125 56 36.53125 56 
Q 37.453125 56 38.578125 55.875 
Q 39.703125 55.765625 41.0625 55.515625 
z
" id="DejaVuSans-114"/>
      <path d="M 30.609375 48.390625 
Q 23.390625 48.390625 19.1875 42.75 
Q 14.984375 37.109375 14.984375 27.296875 
Q 14.984375 17.484375 19.15625 11.84375 
Q 23.34375 6.203125 30.609375 6.203125 
Q 37.796875 6.203125 41.984375 11.859375 
Q 46.1875 17.53125 46.1875 27.296875 
Q 46.1875 37.015625 41.984375 42.703125 
Q 37.796875 48.390625 30.609375 48.390625 
z
M 30.609375 56 
Q 42.328125 56 49.015625 48.375 
Q 55.71875 40.765625 55.71875 27.296875 
Q 55.71875 13.875 49.015625 6.21875 
Q 42.328125 -1.421875 30.609375 -1.421875 
Q 18.84375 -1.421875 12.171875 6.21875 
Q 5.515625 13.875 5.515625 27.296875 
Q 5.515625 40.765625 12.171875 48.375 
Q 18.84375 56 30.609375 56 
z
" id="DejaVuSans-111"/>
      <path d="M 4.890625 31.390625 
L 31.203125 31.390625 
L 31.203125 23.390625 
L 4.890625 23.390625 
z
" id="DejaVuSans-45"/>
      <path d="M 31.78125 66.40625 
Q 24.171875 66.40625 20.328125 58.90625 
Q 16.5 51.421875 16.5 36.375 
Q 16.5 21.390625 20.328125 13.890625 
Q 24.171875 6.390625 31.78125 6.390625 
Q 39.453125 6.390625 43.28125 13.890625 
Q 47.125 21.390625 47.125 36.375 
Q 47.125 51.421875 43.28125 58.90625 
Q 39.453125 66.40625 31.78125 66.40625 
z
M 31.78125 74.21875 
Q 44.046875 74.21875 50.515625 64.515625 
Q 56.984375 54.828125 56.984375 36.375 
Q 56.984375 17.96875 50.515625 8.265625 
Q 44.046875 -1.421875 31.78125 -1.421875 
Q 19.53125 -1.421875 13.0625 8.265625 
Q 6.59375 17.96875 6.59375 36.375 
Q 6.59375 54.828125 13.0625 64.515625 
Q 19.53125 74.21875 31.78125 74.21875 
z
" id="DejaVuSans-48"/>
      <path d="M 10.6875 12.40625 
L 21 12.40625 
L 21 0 
L 10.6875 0 
z
" id="DejaVuSans-46"/>
      <path d="M 10.796875 72.90625 
L 49.515625 72.90625 
L 49.515625 64.59375 
L 19.828125 64.59375 
L 19.828125 46.734375 
Q 21.96875 47.46875 24.109375 47.828125 
Q 26.265625 48.1875 28.421875 48.1875 
Q 40.625 48.1875 47.75 41.5 
Q 54.890625 34.8125 54.890625 23.390625 
Q 54.890625 11.625 47.5625 5.09375 
Q 40.234375 -1.421875 26.90625 -1.421875 
Q 22.3125 -1.421875 17.546875 -0.640625 
Q 12.796875 0.140625 7.71875 1.703125 
L 7.71875 11.625 
Q 12.109375 9.234375 16.796875 8.0625 
Q 21.484375 6.890625 26.703125 6.890625 
Q 35.15625 6.890625 40.078125 11.328125 
Q 45.015625 15.765625 45.015625 23.390625 
Q 45.015625 31 40.078125 35.4375 
Q 35.15625 39.890625 26.703125 39.890625 
Q 22.75 39.890625 18.8125 39.015625 
Q 14.890625 38.140625 10.796875 36.28125 
z
" id="DejaVuSans-53"/>
     </defs>
     <use xlink:href="#DejaVuSans-76"/>
     <use x="55.712891" xlink:href="#DejaVuSans-54"/>
     <use x="119.335938" xlink:href="#DejaVuSans-32"/>
     <use x="151.123047" xlink:href="#DejaVuSans-73"/>
     <use x="180.615234" xlink:href="#DejaVuSans-84"/>
     <use x="241.699219" xlink:href="#DejaVuSans-32"/>
     <use x="273.486328" xlink:href="#DejaVuSans-99"/>
     <use x="328.466797" xlink:href="#DejaVuSans-101"/>
     <use x="389.990234" xlink:href="#DejaVuSans-108"/>
     <use x="417.773438" xlink:href="#DejaVuSans-108"/>
     <use x="445.556641" xlink:href="#DejaVuSans-32"/>
     <use x="477.34375" xlink:href="#DejaVuSans-104"/>
     <use x="540.722656" xlink:href="#DejaVuSans-97"/>
     <use x="602.001953" xlink:href="#DejaVuSans-115"/>
     <use x="654.101562" xlink:href="#DejaVuSans-32"/>
     <use x="685.888672" xlink:href="#DejaVuSans-84"/>
     <use x="743.847656" xlink:href="#DejaVuSans-105"/>
     <use x="771.630859" xlink:href="#DejaVuSans-109"/>
     <use x="869.042969" xlink:href="#DejaVuSans-112"/>
     <use x="932.519531" xlink:href="#DejaVuSans-51"/>
     <use x="996.142578" xlink:href="#DejaVuSans-32"/>
     <use x="1027.929688" xlink:href="#DejaVuSans-112"/>
     <use x="1091.40625" xlink:href="#DejaVuSans-101"/>
     <use x="1152.929688" xlink:href="#DejaVuSans-114"/>
     <use x="1194.042969" xlink:href="#DejaVuSans-105"/>
     <use x="1221.826172" xlink:href="#DejaVuSans-112"/>
     <use x="1285.302734" xlink:href="#DejaVuSans-104"/>
     <use x="1348.681641" xlink:href="#DejaVuSans-101"/>
     <use x="1410.205078" xlink:href="#DejaVuSans-114"/>
     <use x="1451.318359" xlink:href="#DejaVuSans-97"/>
     <use x="1512.597656" xlink:href="#DejaVuSans-108"/>
     <use x="1540.380859" xlink:href="#DejaVuSans-32"/>
     <use x="1572.167969" xlink:href="#DejaVuSans-115"/>
     <use x="1624.267578" xlink:href="#DejaVuSans-99"/>
     <use x="1679.248047" xlink:href="#DejaVuSans-111"/>
     <use x="1740.429688" xlink:href="#DejaVuSans-114"/>
     <use x="1779.292969" xlink:href="#DejaVuSans-101"/>
     <use x="1840.816406" xlink:href="#DejaVuSans-32"/>
     <use x="1872.603516" xlink:href="#DejaVuSans-45"/>
     <use x="1908.6875" xlink:href="#DejaVuSans-48"/>
     <use x="1972.310547" xlink:href="#DejaVuSans-46"/>
     <use x="2004.097656" xlink:href="#DejaVuSans-54"/>
     <use x="2067.720703" xlink:href="#DejaVuSans-53"/>
    </g>
   </g>
   <g id="Path3DCollection_2">
    <defs>
     <path d="M 0 3 
C 0.795609 3 1.55874 2.683901 2.12132 2.12132 
C 2.683901 1.55874 3 0.795609 3 -0 
C 3 -0.795609 2.683901 -1.55874 2.12132 -2.12132 
C 1.55874 -2.683901 0.795609 -3 0 -3 
C -0.795609 -3 -1.55874 -2.683901 -2.12132 -2.12132 
C -2.683901 -1.55874 -3 -0.795609 -3 0 
C -3 0.795609 -2.683901 1.55874 -2.12132 2.12132 
C -1.55874 2.683901 -0.795609 3 0 3 
z
" id="C1_0_e2660ec2e3"/>
    </defs>
    <g clip-path="url(#pf12c3c829a)">
     <use style="fill:#808080;fill-opacity:0.3;stroke:#808080;stroke-opacity:0.3;" x="245.514315" xlink:href="#C1_0_e2660ec2e3" y="154.400119"/>
    </g>
    <g clip-path="url(#pf12c3c829a)">
     <use style="fill:#808080;fill-opacity:0.305702;stroke:#808080;stroke-opacity:0.305702;" x="253.682209" xlink:href="#C1_0_e2660ec2e3" y="155.087578"/>
    </g>
    <g clip-path="url(#pf12c3c829a)">
     <use style="fill:#808080;fill-opacity:0.312767;stroke:#808080;stroke-opacity:0.312767;" x="274.612495" xlink:href="#C1_0_e2660ec2e3" y="181.627698"/>
    </g>
    <g clip-path="url(#pf12c3c829a)">
     <use style="fill:#808080;fill-opacity:0.316008;stroke:#808080;stroke-opacity:0.316008;" x="260.848742" xlink:href="#C1_0_e2660ec2e3" y="182.028978"/>
    </g>
    <g clip-path="url(#pf12c3c829a)">
     <use style="fill:#808080;fill-opacity:0.317607;stroke:#808080;stroke-opacity:0.317607;" x="230.753014" xlink:href="#C1_0_e2660ec2e3" y="130.819214"/>
    </g>
    <g clip-path="url(#pf12c3c829a)">
     <use style="fill:#808080;fill-opacity:0.319101;stroke:#808080;stroke-opacity:0.319101;" x="241.761219" xlink:href="#C1_0_e2660ec2e3" y="130.994529"/>
    </g>
    <g clip-path="url(#pf12c3c829a)">
     <use style="fill:#808080;fill-opacity:0.320667;stroke:#808080;stroke-opacity:0.320667;" x="258.802173" xlink:href="#C1_0_e2660ec2e3" y="182.60565"/>
    </g>
    <g clip-path="url(#pf12c3c829a)">
     <use style="fill:#808080;fill-opacity:0.325461;stroke:#808080;stroke-opacity:0.325461;" x="248.576184" xlink:href="#C1_0_e2660ec2e3" y="131.740936"/>
    </g>
    <g clip-path="url(#pf12c3c829a)">
     <use style="fill:#808080;fill-opacity:0.327217;stroke:#808080;stroke-opacity:0.327217;" x="251.984555" xlink:href="#C1_0_e2660ec2e3" y="183.416461"/>
    </g>
    <g clip-path="url(#pf12c3c829a)">
     <use style="fill:#808080;fill-opacity:0.343068;stroke:#808080;stroke-opacity:0.343068;" x="264.095792" xlink:href="#C1_0_e2660ec2e3" y="185.378665"/>
    </g>
    <g clip-path="url(#pf12c3c829a)">
     <use style="fill:#808080;fill-opacity:0.346765;stroke:#808080;stroke-opacity:0.346765;" x="241.689954" xlink:href="#C1_0_e2660ec2e3" y="134.24104"/>
    </g>
    <g clip-path="url(#pf12c3c829a)">
     <use style="fill:#808080;fill-opacity:0.353181;stroke:#808080;stroke-opacity:0.353181;" x="261.548334" xlink:href="#C1_0_e2660ec2e3" y="186.630482"/>
    </g>
    <g clip-path="url(#pf12c3c829a)">
     <use style="fill:#808080;fill-opacity:0.356474;stroke:#808080;stroke-opacity:0.356474;" x="229.197755" xlink:href="#C1_0_e2660ec2e3" y="135.380451"/>
    </g>
    <g clip-path="url(#pf12c3c829a)">
     <use style="fill:#808080;fill-opacity:0.365085;stroke:#808080;stroke-opacity:0.365085;" x="275.511145" xlink:href="#C1_0_e2660ec2e3" y="162.247513"/>
    </g>
    <g clip-path="url(#pf12c3c829a)">
     <use style="fill:#808080;fill-opacity:0.365763;stroke:#808080;stroke-opacity:0.365763;" x="306.75297" xlink:href="#C1_0_e2660ec2e3" y="265.764106"/>
    </g>
    <g clip-path="url(#pf12c3c829a)">
     <use style="fill:#808080;fill-opacity:0.371804;stroke:#808080;stroke-opacity:0.371804;" x="237.102078" xlink:href="#C1_0_e2660ec2e3" y="111.301368"/>
    </g>
    <g clip-path="url(#pf12c3c829a)">
     <use style="fill:#808080;fill-opacity:0.378793;stroke:#808080;stroke-opacity:0.378793;" x="241.557775" xlink:href="#C1_0_e2660ec2e3" y="137.999724"/>
    </g>
    <g clip-path="url(#pf12c3c829a)">
     <use style="fill:#808080;fill-opacity:0.386628;stroke:#808080;stroke-opacity:0.386628;" x="232.457695" xlink:href="#C1_0_e2660ec2e3" y="112.993493"/>
    </g>
    <g clip-path="url(#pf12c3c829a)">
     <use style="fill:#808080;fill-opacity:0.389596;stroke:#808080;stroke-opacity:0.389596;" x="267.2378" xlink:href="#C1_0_e2660ec2e3" y="191.138182"/>
    </g>
    <g clip-path="url(#pf12c3c829a)">
     <use style="fill:#808080;fill-opacity:0.393147;stroke:#808080;stroke-opacity:0.393147;" x="216.533981" xlink:href="#C1_0_e2660ec2e3" y="139.684294"/>
    </g>
    <g clip-path="url(#pf12c3c829a)">
     <use style="fill:#808080;fill-opacity:0.393855;stroke:#808080;stroke-opacity:0.393855;" x="306.324631" xlink:href="#C1_0_e2660ec2e3" y="269.51248"/>
    </g>
    <g clip-path="url(#pf12c3c829a)">
     <use style="fill:#808080;fill-opacity:0.394954;stroke:#808080;stroke-opacity:0.394954;" x="304.823167" xlink:href="#C1_0_e2660ec2e3" y="243.706599"/>
    </g>
    <g clip-path="url(#pf12c3c829a)">
     <use style="fill:#808080;fill-opacity:0.396699;stroke:#808080;stroke-opacity:0.396699;" x="222.942488" xlink:href="#C1_0_e2660ec2e3" y="140.101106"/>
    </g>
    <g clip-path="url(#pf12c3c829a)">
     <use style="fill:#808080;fill-opacity:0.397287;stroke:#808080;stroke-opacity:0.397287;" x="258.886393" xlink:href="#C1_0_e2660ec2e3" y="166.130131"/>
    </g>
    <g clip-path="url(#pf12c3c829a)">
     <use style="fill:#808080;fill-opacity:0.397428;stroke:#808080;stroke-opacity:0.397428;" x="262.524843" xlink:href="#C1_0_e2660ec2e3" y="269.989252"/>
    </g>
    <g clip-path="url(#pf12c3c829a)">
     <use style="fill:#808080;fill-opacity:0.398537;stroke:#808080;stroke-opacity:0.398537;" x="264.301712" xlink:href="#C1_0_e2660ec2e3" y="140.316776"/>
    </g>
    <g clip-path="url(#pf12c3c829a)">
     <use style="fill:#808080;fill-opacity:0.399815;stroke:#808080;stroke-opacity:0.399815;" x="303.437473" xlink:href="#C1_0_e2660ec2e3" y="270.307755"/>
    </g>
    <g clip-path="url(#pf12c3c829a)">
     <use style="fill:#808080;fill-opacity:0.405908;stroke:#808080;stroke-opacity:0.405908;" x="244.764692" xlink:href="#C1_0_e2660ec2e3" y="115.194076"/>
    </g>
    <g clip-path="url(#pf12c3c829a)">
     <use style="fill:#808080;fill-opacity:0.417229;stroke:#808080;stroke-opacity:0.417229;" x="226.021471" xlink:href="#C1_0_e2660ec2e3" y="116.486304"/>
    </g>
    <g clip-path="url(#pf12c3c829a)">
     <use style="fill:#808080;fill-opacity:0.417683;stroke:#808080;stroke-opacity:0.417683;" x="276.016159" xlink:href="#C1_0_e2660ec2e3" y="168.589406"/>
    </g>
    <g clip-path="url(#pf12c3c829a)">
     <use style="fill:#808080;fill-opacity:0.419867;stroke:#808080;stroke-opacity:0.419867;" x="274.734231" xlink:href="#C1_0_e2660ec2e3" y="116.787339"/>
    </g>
    <g clip-path="url(#pf12c3c829a)">
     <use style="fill:#808080;fill-opacity:0.421897;stroke:#808080;stroke-opacity:0.421897;" x="309.535027" xlink:href="#C1_0_e2660ec2e3" y="169.097485"/>
    </g>
    <g clip-path="url(#pf12c3c829a)">
     <use style="fill:#808080;fill-opacity:0.424642;stroke:#808080;stroke-opacity:0.424642;" x="279.505037" xlink:href="#C1_0_e2660ec2e3" y="117.332434"/>
    </g>
    <g clip-path="url(#pf12c3c829a)">
     <use style="fill:#808080;fill-opacity:0.426559;stroke:#808080;stroke-opacity:0.426559;" x="221.692847" xlink:href="#C1_0_e2660ec2e3" y="117.551207"/>
    </g>
    <g clip-path="url(#pf12c3c829a)">
     <use style="fill:#808080;fill-opacity:0.42943;stroke:#808080;stroke-opacity:0.42943;" x="254.523998" xlink:href="#C1_0_e2660ec2e3" y="170.005724"/>
    </g>
    <g clip-path="url(#pf12c3c829a)">
     <use style="fill:#808080;fill-opacity:0.43867;stroke:#808080;stroke-opacity:0.43867;" x="305.917583" xlink:href="#C1_0_e2660ec2e3" y="171.119853"/>
    </g>
    <g clip-path="url(#pf12c3c829a)">
     <use style="fill:#808080;fill-opacity:0.44153;stroke:#808080;stroke-opacity:0.44153;" x="284.550244" xlink:href="#C1_0_e2660ec2e3" y="145.36235"/>
    </g>
    <g clip-path="url(#pf12c3c829a)">
     <use style="fill:#808080;fill-opacity:0.447072;stroke:#808080;stroke-opacity:0.447072;" x="285.258995" xlink:href="#C1_0_e2660ec2e3" y="172.132855"/>
    </g>
    <g clip-path="url(#pf12c3c829a)">
     <use style="fill:#808080;fill-opacity:0.449984;stroke:#808080;stroke-opacity:0.449984;" x="247.969593" xlink:href="#C1_0_e2660ec2e3" y="172.483943"/>
    </g>
    <g clip-path="url(#pf12c3c829a)">
     <use style="fill:#808080;fill-opacity:0.451402;stroke:#808080;stroke-opacity:0.451402;" x="288.799099" xlink:href="#C1_0_e2660ec2e3" y="146.520889"/>
    </g>
    <g clip-path="url(#pf12c3c829a)">
     <use style="fill:#808080;fill-opacity:0.45602;stroke:#808080;stroke-opacity:0.45602;" x="209.859432" xlink:href="#C1_0_e2660ec2e3" y="251.65835"/>
    </g>
    <g clip-path="url(#pf12c3c829a)">
     <use style="fill:#808080;fill-opacity:0.462573;stroke:#808080;stroke-opacity:0.462573;" x="290.152107" xlink:href="#C1_0_e2660ec2e3" y="147.83185"/>
    </g>
    <g clip-path="url(#pf12c3c829a)">
     <use style="fill:#808080;fill-opacity:0.465867;stroke:#808080;stroke-opacity:0.465867;" x="199.113852" xlink:href="#C1_0_e2660ec2e3" y="174.399042"/>
    </g>
    <g clip-path="url(#pf12c3c829a)">
     <use style="fill:#808080;fill-opacity:0.4729;stroke:#808080;stroke-opacity:0.4729;" x="251.962619" xlink:href="#C1_0_e2660ec2e3" y="149.043848"/>
    </g>
    <g clip-path="url(#pf12c3c829a)">
     <use style="fill:#808080;fill-opacity:0.47489;stroke:#808080;stroke-opacity:0.47489;" x="256.357643" xlink:href="#C1_0_e2660ec2e3" y="280.325189"/>
    </g>
    <g clip-path="url(#pf12c3c829a)">
     <use style="fill:#808080;fill-opacity:0.475559;stroke:#808080;stroke-opacity:0.475559;" x="261.805605" xlink:href="#C1_0_e2660ec2e3" y="175.567625"/>
    </g>
    <g clip-path="url(#pf12c3c829a)">
     <use style="fill:#808080;fill-opacity:0.47947;stroke:#808080;stroke-opacity:0.47947;" x="236.422785" xlink:href="#C1_0_e2660ec2e3" y="149.814854"/>
    </g>
    <g clip-path="url(#pf12c3c829a)">
     <use style="fill:#808080;fill-opacity:0.480494;stroke:#808080;stroke-opacity:0.480494;" x="234.939281" xlink:href="#C1_0_e2660ec2e3" y="254.845308"/>
    </g>
    <g clip-path="url(#pf12c3c829a)">
     <use style="fill:#808080;fill-opacity:0.480738;stroke:#808080;stroke-opacity:0.480738;" x="246.71752" xlink:href="#C1_0_e2660ec2e3" y="123.735256"/>
    </g>
    <g clip-path="url(#pf12c3c829a)">
     <use style="fill:#808080;fill-opacity:0.481521;stroke:#808080;stroke-opacity:0.481521;" x="179.590385" xlink:href="#C1_0_e2660ec2e3" y="202.517262"/>
    </g>
    <g clip-path="url(#pf12c3c829a)">
     <use style="fill:#808080;fill-opacity:0.482506;stroke:#808080;stroke-opacity:0.482506;" x="246.39297" xlink:href="#C1_0_e2660ec2e3" y="176.405216"/>
    </g>
    <g clip-path="url(#pf12c3c829a)">
     <use style="fill:#808080;fill-opacity:0.487085;stroke:#808080;stroke-opacity:0.487085;" x="218.420859" xlink:href="#C1_0_e2660ec2e3" y="150.708461"/>
    </g>
    <g clip-path="url(#pf12c3c829a)">
     <use style="fill:#808080;fill-opacity:0.488788;stroke:#808080;stroke-opacity:0.488788;" x="277.220105" xlink:href="#C1_0_e2660ec2e3" y="177.162662"/>
    </g>
    <g clip-path="url(#pf12c3c829a)">
     <use style="fill:#808080;fill-opacity:0.489495;stroke:#808080;stroke-opacity:0.489495;" x="211.48256" xlink:href="#C1_0_e2660ec2e3" y="124.734826"/>
    </g>
    <g clip-path="url(#pf12c3c829a)">
     <use style="fill:#808080;fill-opacity:0.492979;stroke:#808080;stroke-opacity:0.492979;" x="257.230029" xlink:href="#C1_0_e2660ec2e3" y="125.132461"/>
    </g>
    <g clip-path="url(#pf12c3c829a)">
     <use style="fill:#808080;fill-opacity:0.495761;stroke:#808080;stroke-opacity:0.495761;" x="181.756819" xlink:href="#C1_0_e2660ec2e3" y="125.449995"/>
    </g>
    <g clip-path="url(#pf12c3c829a)">
     <use style="fill:#808080;fill-opacity:0.49868;stroke:#808080;stroke-opacity:0.49868;" x="187.087211" xlink:href="#C1_0_e2660ec2e3" y="125.783251"/>
    </g>
    <g clip-path="url(#pf12c3c829a)">
     <use style="fill:#808080;fill-opacity:0.50074;stroke:#808080;stroke-opacity:0.50074;" x="258.309447" xlink:href="#C1_0_e2660ec2e3" y="178.603707"/>
    </g>
    <g clip-path="url(#pf12c3c829a)">
     <use style="fill:#808080;fill-opacity:0.501834;stroke:#808080;stroke-opacity:0.501834;" x="304.192733" xlink:href="#C1_0_e2660ec2e3" y="205.031824"/>
    </g>
    <g clip-path="url(#pf12c3c829a)">
     <use style="fill:#808080;fill-opacity:0.503338;stroke:#808080;stroke-opacity:0.503338;" x="248.50373" xlink:href="#C1_0_e2660ec2e3" y="178.916992"/>
    </g>
    <g clip-path="url(#pf12c3c829a)">
     <use style="fill:#808080;fill-opacity:0.509775;stroke:#808080;stroke-opacity:0.509775;" x="193.159763" xlink:href="#C1_0_e2660ec2e3" y="153.371277"/>
    </g>
    <g clip-path="url(#pf12c3c829a)">
     <use style="fill:#808080;fill-opacity:0.51068;stroke:#808080;stroke-opacity:0.51068;" x="310.949489" xlink:href="#C1_0_e2660ec2e3" y="179.802128"/>
    </g>
    <g clip-path="url(#pf12c3c829a)">
     <use style="fill:#808080;fill-opacity:0.5115;stroke:#808080;stroke-opacity:0.5115;" x="244.89695" xlink:href="#C1_0_e2660ec2e3" y="153.573785"/>
    </g>
    <g clip-path="url(#pf12c3c829a)">
     <use style="fill:#808080;fill-opacity:0.512204;stroke:#808080;stroke-opacity:0.512204;" x="303.196582" xlink:href="#C1_0_e2660ec2e3" y="206.315488"/>
    </g>
    <g clip-path="url(#pf12c3c829a)">
     <use style="fill:#808080;fill-opacity:0.51256;stroke:#808080;stroke-opacity:0.51256;" x="197.838893" xlink:href="#C1_0_e2660ec2e3" y="153.698209"/>
    </g>
    <g clip-path="url(#pf12c3c829a)">
     <use style="fill:#808080;fill-opacity:0.515428;stroke:#808080;stroke-opacity:0.515428;" x="210.37578" xlink:href="#C1_0_e2660ec2e3" y="180.37464"/>
    </g>
    <g clip-path="url(#pf12c3c829a)">
     <use style="fill:#808080;fill-opacity:0.517106;stroke:#808080;stroke-opacity:0.517106;" x="171.785209" xlink:href="#C1_0_e2660ec2e3" y="180.576945"/>
    </g>
    <g clip-path="url(#pf12c3c829a)">
     <use style="fill:#808080;fill-opacity:0.518486;stroke:#808080;stroke-opacity:0.518486;" x="285.646694" xlink:href="#C1_0_e2660ec2e3" y="259.792505"/>
    </g>
    <g clip-path="url(#pf12c3c829a)">
     <use style="fill:#808080;fill-opacity:0.519377;stroke:#808080;stroke-opacity:0.519377;" x="277.036749" xlink:href="#C1_0_e2660ec2e3" y="180.850827"/>
    </g>
    <g clip-path="url(#pf12c3c829a)">
     <use style="fill:#808080;fill-opacity:0.521457;stroke:#808080;stroke-opacity:0.521457;" x="259.908174" xlink:href="#C1_0_e2660ec2e3" y="154.742319"/>
    </g>
    <g clip-path="url(#pf12c3c829a)">
     <use style="fill:#808080;fill-opacity:0.52529;stroke:#808080;stroke-opacity:0.52529;" x="263.883987" xlink:href="#C1_0_e2660ec2e3" y="181.563723"/>
    </g>
    <g clip-path="url(#pf12c3c829a)">
     <use style="fill:#808080;fill-opacity:0.526065;stroke:#808080;stroke-opacity:0.526065;" x="191.707733" xlink:href="#C1_0_e2660ec2e3" y="128.909017"/>
    </g>
    <g clip-path="url(#pf12c3c829a)">
     <use style="fill:#808080;fill-opacity:0.526449;stroke:#808080;stroke-opacity:0.526449;" x="267.56416" xlink:href="#C1_0_e2660ec2e3" y="181.703478"/>
    </g>
    <g clip-path="url(#pf12c3c829a)">
     <use style="fill:#808080;fill-opacity:0.528651;stroke:#808080;stroke-opacity:0.528651;" x="232.301542" xlink:href="#C1_0_e2660ec2e3" y="129.20419"/>
    </g>
    <g clip-path="url(#pf12c3c829a)">
     <use style="fill:#808080;fill-opacity:0.528729;stroke:#808080;stroke-opacity:0.528729;" x="274.652339" xlink:href="#C1_0_e2660ec2e3" y="155.595687"/>
    </g>
    <g clip-path="url(#pf12c3c829a)">
     <use style="fill:#808080;fill-opacity:0.529844;stroke:#808080;stroke-opacity:0.529844;" x="259.43393" xlink:href="#C1_0_e2660ec2e3" y="129.340253"/>
    </g>
    <g clip-path="url(#pf12c3c829a)">
     <use style="fill:#808080;fill-opacity:0.535185;stroke:#808080;stroke-opacity:0.535185;" x="210.804074" xlink:href="#C1_0_e2660ec2e3" y="156.353414"/>
    </g>
    <g clip-path="url(#pf12c3c829a)">
     <use style="fill:#808080;fill-opacity:0.536397;stroke:#808080;stroke-opacity:0.536397;" x="180.737654" xlink:href="#C1_0_e2660ec2e3" y="182.902971"/>
    </g>
    <g clip-path="url(#pf12c3c829a)">
     <use style="fill:#808080;fill-opacity:0.536695;stroke:#808080;stroke-opacity:0.536695;" x="286.39775" xlink:href="#C1_0_e2660ec2e3" y="182.938859"/>
    </g>
    <g clip-path="url(#pf12c3c829a)">
     <use style="fill:#808080;fill-opacity:0.538447;stroke:#808080;stroke-opacity:0.538447;" x="262.14769" xlink:href="#C1_0_e2660ec2e3" y="183.150069"/>
    </g>
    <g clip-path="url(#pf12c3c829a)">
     <use style="fill:#808080;fill-opacity:0.541137;stroke:#808080;stroke-opacity:0.541137;" x="243.357447" xlink:href="#C1_0_e2660ec2e3" y="157.051842"/>
    </g>
    <g clip-path="url(#pf12c3c829a)">
     <use style="fill:#808080;fill-opacity:0.543157;stroke:#808080;stroke-opacity:0.543157;" x="284.71265" xlink:href="#C1_0_e2660ec2e3" y="130.859929"/>
    </g>
    <g clip-path="url(#pf12c3c829a)">
     <use style="fill:#808080;fill-opacity:0.547939;stroke:#808080;stroke-opacity:0.547939;" x="256.472096" xlink:href="#C1_0_e2660ec2e3" y="157.850143"/>
    </g>
    <g clip-path="url(#pf12c3c829a)">
     <use style="fill:#808080;fill-opacity:0.549957;stroke:#808080;stroke-opacity:0.549957;" x="196.24834" xlink:href="#C1_0_e2660ec2e3" y="131.63602"/>
    </g>
    <g clip-path="url(#pf12c3c829a)">
     <use style="fill:#808080;fill-opacity:0.552469;stroke:#808080;stroke-opacity:0.552469;" x="183.834392" xlink:href="#C1_0_e2660ec2e3" y="290.676686"/>
    </g>
    <g clip-path="url(#pf12c3c829a)">
     <use style="fill:#808080;fill-opacity:0.55654;stroke:#808080;stroke-opacity:0.55654;" x="244.602817" xlink:href="#C1_0_e2660ec2e3" y="132.387436"/>
    </g>
    <g clip-path="url(#pf12c3c829a)">
     <use style="fill:#808080;fill-opacity:0.557796;stroke:#808080;stroke-opacity:0.557796;" x="267.521098" xlink:href="#C1_0_e2660ec2e3" y="159.006968"/>
    </g>
    <g clip-path="url(#pf12c3c829a)">
     <use style="fill:#808080;fill-opacity:0.559546;stroke:#808080;stroke-opacity:0.559546;" x="226.815661" xlink:href="#C1_0_e2660ec2e3" y="185.694071"/>
    </g>
    <g clip-path="url(#pf12c3c829a)">
     <use style="fill:#808080;fill-opacity:0.560057;stroke:#808080;stroke-opacity:0.560057;" x="294.073869" xlink:href="#C1_0_e2660ec2e3" y="159.272312"/>
    </g>
    <g clip-path="url(#pf12c3c829a)">
     <use style="fill:#808080;fill-opacity:0.563254;stroke:#808080;stroke-opacity:0.563254;" x="223.961141" xlink:href="#C1_0_e2660ec2e3" y="159.647404"/>
    </g>
    <g clip-path="url(#pf12c3c829a)">
     <use style="fill:#808080;fill-opacity:0.563324;stroke:#808080;stroke-opacity:0.563324;" x="277.370645" xlink:href="#C1_0_e2660ec2e3" y="159.655657"/>
    </g>
    <g clip-path="url(#pf12c3c829a)">
     <use style="fill:#808080;fill-opacity:0.565577;stroke:#808080;stroke-opacity:0.565577;" x="310.853013" xlink:href="#C1_0_e2660ec2e3" y="159.92002"/>
    </g>
    <g clip-path="url(#pf12c3c829a)">
     <use style="fill:#808080;fill-opacity:0.574971;stroke:#808080;stroke-opacity:0.574971;" x="262.934425" xlink:href="#C1_0_e2660ec2e3" y="134.491213"/>
    </g>
    <g clip-path="url(#pf12c3c829a)">
     <use style="fill:#808080;fill-opacity:0.579919;stroke:#808080;stroke-opacity:0.579919;" x="224.603694" xlink:href="#C1_0_e2660ec2e3" y="161.603157"/>
    </g>
    <g clip-path="url(#pf12c3c829a)">
     <use style="fill:#808080;fill-opacity:0.584007;stroke:#808080;stroke-opacity:0.584007;" x="252.998463" xlink:href="#C1_0_e2660ec2e3" y="162.082965"/>
    </g>
    <g clip-path="url(#pf12c3c829a)">
     <use style="fill:#808080;fill-opacity:0.584084;stroke:#808080;stroke-opacity:0.584084;" x="191.128156" xlink:href="#C1_0_e2660ec2e3" y="188.652669"/>
    </g>
    <g clip-path="url(#pf12c3c829a)">
     <use style="fill:#808080;fill-opacity:0.589458;stroke:#808080;stroke-opacity:0.589458;" x="242.39133" xlink:href="#C1_0_e2660ec2e3" y="162.722611"/>
    </g>
    <g clip-path="url(#pf12c3c829a)">
     <use style="fill:#808080;fill-opacity:0.590606;stroke:#808080;stroke-opacity:0.590606;" x="182.35641" xlink:href="#C1_0_e2660ec2e3" y="189.439022"/>
    </g>
    <g clip-path="url(#pf12c3c829a)">
     <use style="fill:#808080;fill-opacity:0.595509;stroke:#808080;stroke-opacity:0.595509;" x="199.850759" xlink:href="#C1_0_e2660ec2e3" y="136.835448"/>
    </g>
    <g clip-path="url(#pf12c3c829a)">
     <use style="fill:#808080;fill-opacity:0.595739;stroke:#808080;stroke-opacity:0.595739;" x="203.296728" xlink:href="#C1_0_e2660ec2e3" y="136.861596"/>
    </g>
    <g clip-path="url(#pf12c3c829a)">
     <use style="fill:#808080;fill-opacity:0.600293;stroke:#808080;stroke-opacity:0.600293;" x="280.011178" xlink:href="#C1_0_e2660ec2e3" y="137.381489"/>
    </g>
    <g clip-path="url(#pf12c3c829a)">
     <use style="fill:#808080;fill-opacity:0.602097;stroke:#808080;stroke-opacity:0.602097;" x="254.212056" xlink:href="#C1_0_e2660ec2e3" y="270.680211"/>
    </g>
    <g clip-path="url(#pf12c3c829a)">
     <use style="fill:#808080;fill-opacity:0.603156;stroke:#808080;stroke-opacity:0.603156;" x="205.775838" xlink:href="#C1_0_e2660ec2e3" y="164.330238"/>
    </g>
    <g clip-path="url(#pf12c3c829a)">
     <use style="fill:#808080;fill-opacity:0.60465;stroke:#808080;stroke-opacity:0.60465;" x="314.795613" xlink:href="#C1_0_e2660ec2e3" y="164.50558"/>
    </g>
    <g clip-path="url(#pf12c3c829a)">
     <use style="fill:#808080;fill-opacity:0.604794;stroke:#808080;stroke-opacity:0.604794;" x="247.935863" xlink:href="#C1_0_e2660ec2e3" y="164.522473"/>
    </g>
    <g clip-path="url(#pf12c3c829a)">
     <use style="fill:#808080;fill-opacity:0.604915;stroke:#808080;stroke-opacity:0.604915;" x="299.041808" xlink:href="#C1_0_e2660ec2e3" y="137.908987"/>
    </g>
    <g clip-path="url(#pf12c3c829a)">
     <use style="fill:#808080;fill-opacity:0.605576;stroke:#808080;stroke-opacity:0.605576;" x="173.143134" xlink:href="#C1_0_e2660ec2e3" y="191.243907"/>
    </g>
    <g clip-path="url(#pf12c3c829a)">
     <use style="fill:#808080;fill-opacity:0.610579;stroke:#808080;stroke-opacity:0.610579;" x="243.53663" xlink:href="#C1_0_e2660ec2e3" y="138.555456"/>
    </g>
    <g clip-path="url(#pf12c3c829a)">
     <use style="fill:#808080;fill-opacity:0.611155;stroke:#808080;stroke-opacity:0.611155;" x="233.767571" xlink:href="#C1_0_e2660ec2e3" y="138.62126"/>
    </g>
    <g clip-path="url(#pf12c3c829a)">
     <use style="fill:#808080;fill-opacity:0.616233;stroke:#808080;stroke-opacity:0.616233;" x="228.085473" xlink:href="#C1_0_e2660ec2e3" y="165.864918"/>
    </g>
    <g clip-path="url(#pf12c3c829a)">
     <use style="fill:#808080;fill-opacity:0.617334;stroke:#808080;stroke-opacity:0.617334;" x="223.404838" xlink:href="#C1_0_e2660ec2e3" y="139.326577"/>
    </g>
    <g clip-path="url(#pf12c3c829a)">
     <use style="fill:#808080;fill-opacity:0.617386;stroke:#808080;stroke-opacity:0.617386;" x="241.659892" xlink:href="#C1_0_e2660ec2e3" y="139.332447"/>
    </g>
    <g clip-path="url(#pf12c3c829a)">
     <use style="fill:#808080;fill-opacity:0.621641;stroke:#808080;stroke-opacity:0.621641;" x="229.875771" xlink:href="#C1_0_e2660ec2e3" y="193.180977"/>
    </g>
    <g clip-path="url(#pf12c3c829a)">
     <use style="fill:#808080;fill-opacity:0.625861;stroke:#808080;stroke-opacity:0.625861;" x="135.564229" xlink:href="#C1_0_e2660ec2e3" y="166.99481"/>
    </g>
    <g clip-path="url(#pf12c3c829a)">
     <use style="fill:#808080;fill-opacity:0.630098;stroke:#808080;stroke-opacity:0.630098;" x="252.581362" xlink:href="#C1_0_e2660ec2e3" y="140.78341"/>
    </g>
    <g clip-path="url(#pf12c3c829a)">
     <use style="fill:#808080;fill-opacity:0.630334;stroke:#808080;stroke-opacity:0.630334;" x="252.521452" xlink:href="#C1_0_e2660ec2e3" y="167.519706"/>
    </g>
    <g clip-path="url(#pf12c3c829a)">
     <use style="fill:#808080;fill-opacity:0.630621;stroke:#808080;stroke-opacity:0.630621;" x="314.373642" xlink:href="#C1_0_e2660ec2e3" y="140.843157"/>
    </g>
    <g clip-path="url(#pf12c3c829a)">
     <use style="fill:#808080;fill-opacity:0.635278;stroke:#808080;stroke-opacity:0.635278;" x="167.000605" xlink:href="#C1_0_e2660ec2e3" y="194.82519"/>
    </g>
    <g clip-path="url(#pf12c3c829a)">
     <use style="fill:#808080;fill-opacity:0.637211;stroke:#808080;stroke-opacity:0.637211;" x="216.678752" xlink:href="#C1_0_e2660ec2e3" y="168.32677"/>
    </g>
    <g clip-path="url(#pf12c3c829a)">
     <use style="fill:#808080;fill-opacity:0.637358;stroke:#808080;stroke-opacity:0.637358;" x="281.862266" xlink:href="#C1_0_e2660ec2e3" y="141.612115"/>
    </g>
    <g clip-path="url(#pf12c3c829a)">
     <use style="fill:#808080;fill-opacity:0.640741;stroke:#808080;stroke-opacity:0.640741;" x="259.215237" xlink:href="#C1_0_e2660ec2e3" y="222.226663"/>
    </g>
    <g clip-path="url(#pf12c3c829a)">
     <use style="fill:#808080;fill-opacity:0.648458;stroke:#808080;stroke-opacity:0.648458;" x="197.405943" xlink:href="#C1_0_e2660ec2e3" y="196.414278"/>
    </g>
    <g clip-path="url(#pf12c3c829a)">
     <use style="fill:#808080;fill-opacity:0.649903;stroke:#808080;stroke-opacity:0.649903;" x="211.677547" xlink:href="#C1_0_e2660ec2e3" y="143.043965"/>
    </g>
    <g clip-path="url(#pf12c3c829a)">
     <use style="fill:#808080;fill-opacity:0.663831;stroke:#808080;stroke-opacity:0.663831;" x="311.499423" xlink:href="#C1_0_e2660ec2e3" y="171.450768"/>
    </g>
    <g clip-path="url(#pf12c3c829a)">
     <use style="fill:#808080;fill-opacity:0.663847;stroke:#808080;stroke-opacity:0.663847;" x="286.964793" xlink:href="#C1_0_e2660ec2e3" y="144.635578"/>
    </g>
    <g clip-path="url(#pf12c3c829a)">
     <use style="fill:#808080;fill-opacity:0.665928;stroke:#808080;stroke-opacity:0.665928;" x="156.350925" xlink:href="#C1_0_e2660ec2e3" y="171.696908"/>
    </g>
    <g clip-path="url(#pf12c3c829a)">
     <use style="fill:#808080;fill-opacity:0.671149;stroke:#808080;stroke-opacity:0.671149;" x="131.730914" xlink:href="#C1_0_e2660ec2e3" y="145.469065"/>
    </g>
    <g clip-path="url(#pf12c3c829a)">
     <use style="fill:#808080;fill-opacity:0.682072;stroke:#808080;stroke-opacity:0.682072;" x="259.358192" xlink:href="#C1_0_e2660ec2e3" y="146.715808"/>
    </g>
    <g clip-path="url(#pf12c3c829a)">
     <use style="fill:#808080;fill-opacity:0.685422;stroke:#808080;stroke-opacity:0.685422;" x="253.424822" xlink:href="#C1_0_e2660ec2e3" y="147.098155"/>
    </g>
    <g clip-path="url(#pf12c3c829a)">
     <use style="fill:#808080;fill-opacity:0.685678;stroke:#808080;stroke-opacity:0.685678;" x="312.025516" xlink:href="#C1_0_e2660ec2e3" y="174.014691"/>
    </g>
    <g clip-path="url(#pf12c3c829a)">
     <use style="fill:#808080;fill-opacity:0.687169;stroke:#808080;stroke-opacity:0.687169;" x="223.579347" xlink:href="#C1_0_e2660ec2e3" y="147.297587"/>
    </g>
    <g clip-path="url(#pf12c3c829a)">
     <use style="fill:#808080;fill-opacity:0.687719;stroke:#808080;stroke-opacity:0.687719;" x="197.672401" xlink:href="#C1_0_e2660ec2e3" y="174.254244"/>
    </g>
    <g clip-path="url(#pf12c3c829a)">
     <use style="fill:#808080;fill-opacity:0.687941;stroke:#808080;stroke-opacity:0.687941;" x="176.659084" xlink:href="#C1_0_e2660ec2e3" y="228.069378"/>
    </g>
    <g clip-path="url(#pf12c3c829a)">
     <use style="fill:#808080;fill-opacity:0.690558;stroke:#808080;stroke-opacity:0.690558;" x="146.712329" xlink:href="#C1_0_e2660ec2e3" y="147.684446"/>
    </g>
    <g clip-path="url(#pf12c3c829a)">
     <use style="fill:#808080;fill-opacity:0.693886;stroke:#808080;stroke-opacity:0.693886;" x="277.576832" xlink:href="#C1_0_e2660ec2e3" y="148.064261"/>
    </g>
    <g clip-path="url(#pf12c3c829a)">
     <use style="fill:#808080;fill-opacity:0.693954;stroke:#808080;stroke-opacity:0.693954;" x="312.289362" xlink:href="#C1_0_e2660ec2e3" y="148.072082"/>
    </g>
    <g clip-path="url(#pf12c3c829a)">
     <use style="fill:#808080;fill-opacity:0.701567;stroke:#808080;stroke-opacity:0.701567;" x="235.669305" xlink:href="#C1_0_e2660ec2e3" y="175.879367"/>
    </g>
    <g clip-path="url(#pf12c3c829a)">
     <use style="fill:#808080;fill-opacity:0.704232;stroke:#808080;stroke-opacity:0.704232;" x="255.116807" xlink:href="#C1_0_e2660ec2e3" y="149.24521"/>
    </g>
    <g clip-path="url(#pf12c3c829a)">
     <use style="fill:#808080;fill-opacity:0.709057;stroke:#808080;stroke-opacity:0.709057;" x="296.328377" xlink:href="#C1_0_e2660ec2e3" y="149.795861"/>
    </g>
    <g clip-path="url(#pf12c3c829a)">
     <use style="fill:#808080;fill-opacity:0.71111;stroke:#808080;stroke-opacity:0.71111;" x="234.411908" xlink:href="#C1_0_e2660ec2e3" y="150.030223"/>
    </g>
    <g clip-path="url(#pf12c3c829a)">
     <use style="fill:#808080;fill-opacity:0.716857;stroke:#808080;stroke-opacity:0.716857;" x="220.672412" xlink:href="#C1_0_e2660ec2e3" y="150.686236"/>
    </g>
    <g clip-path="url(#pf12c3c829a)">
     <use style="fill:#808080;fill-opacity:0.723826;stroke:#808080;stroke-opacity:0.723826;" x="304.537541" xlink:href="#C1_0_e2660ec2e3" y="178.491558"/>
    </g>
    <g clip-path="url(#pf12c3c829a)">
     <use style="fill:#808080;fill-opacity:0.727015;stroke:#808080;stroke-opacity:0.727015;" x="280.428669" xlink:href="#C1_0_e2660ec2e3" y="151.84563"/>
    </g>
    <g clip-path="url(#pf12c3c829a)">
     <use style="fill:#808080;fill-opacity:0.731932;stroke:#808080;stroke-opacity:0.731932;" x="308.475126" xlink:href="#C1_0_e2660ec2e3" y="152.406875"/>
    </g>
    <g clip-path="url(#pf12c3c829a)">
     <use style="fill:#808080;fill-opacity:0.732864;stroke:#808080;stroke-opacity:0.732864;" x="169.283135" xlink:href="#C1_0_e2660ec2e3" y="206.591243"/>
    </g>
    <g clip-path="url(#pf12c3c829a)">
     <use style="fill:#808080;fill-opacity:0.737605;stroke:#808080;stroke-opacity:0.737605;" x="287.545736" xlink:href="#C1_0_e2660ec2e3" y="153.054445"/>
    </g>
    <g clip-path="url(#pf12c3c829a)">
     <use style="fill:#808080;fill-opacity:0.738665;stroke:#808080;stroke-opacity:0.738665;" x="237.671272" xlink:href="#C1_0_e2660ec2e3" y="207.290706"/>
    </g>
    <g clip-path="url(#pf12c3c829a)">
     <use style="fill:#808080;fill-opacity:0.738787;stroke:#808080;stroke-opacity:0.738787;" x="261.693107" xlink:href="#C1_0_e2660ec2e3" y="153.189324"/>
    </g>
    <g clip-path="url(#pf12c3c829a)">
     <use style="fill:#808080;fill-opacity:0.753641;stroke:#808080;stroke-opacity:0.753641;" x="216.796939" xlink:href="#C1_0_e2660ec2e3" y="317.519671"/>
    </g>
    <g clip-path="url(#pf12c3c829a)">
     <use style="fill:#808080;fill-opacity:0.754465;stroke:#808080;stroke-opacity:0.754465;" x="189.011836" xlink:href="#C1_0_e2660ec2e3" y="236.30421"/>
    </g>
    <g clip-path="url(#pf12c3c829a)">
     <use style="fill:#808080;fill-opacity:0.759178;stroke:#808080;stroke-opacity:0.759178;" x="265.470979" xlink:href="#C1_0_e2660ec2e3" y="209.764005"/>
    </g>
    <g clip-path="url(#pf12c3c829a)">
     <use style="fill:#808080;fill-opacity:0.767585;stroke:#808080;stroke-opacity:0.767585;" x="277.11054" xlink:href="#C1_0_e2660ec2e3" y="156.47638"/>
    </g>
    <g clip-path="url(#pf12c3c829a)">
     <use style="fill:#808080;fill-opacity:0.773746;stroke:#808080;stroke-opacity:0.773746;" x="291.731203" xlink:href="#C1_0_e2660ec2e3" y="157.179645"/>
    </g>
    <g clip-path="url(#pf12c3c829a)">
     <use style="fill:#808080;fill-opacity:0.775191;stroke:#808080;stroke-opacity:0.775191;" x="252.886035" xlink:href="#C1_0_e2660ec2e3" y="184.519693"/>
    </g>
    <g clip-path="url(#pf12c3c829a)">
     <use style="fill:#808080;fill-opacity:0.788918;stroke:#808080;stroke-opacity:0.788918;" x="185.926282" xlink:href="#C1_0_e2660ec2e3" y="213.349789"/>
    </g>
    <g clip-path="url(#pf12c3c829a)">
     <use style="fill:#808080;fill-opacity:0.804201;stroke:#808080;stroke-opacity:0.804201;" x="187.366214" xlink:href="#C1_0_e2660ec2e3" y="215.192548"/>
    </g>
    <g clip-path="url(#pf12c3c829a)">
     <use style="fill:#808080;fill-opacity:0.808379;stroke:#808080;stroke-opacity:0.808379;" x="227.619952" xlink:href="#C1_0_e2660ec2e3" y="324.823587"/>
    </g>
    <g clip-path="url(#pf12c3c829a)">
     <use style="fill:#808080;fill-opacity:0.80888;stroke:#808080;stroke-opacity:0.80888;" x="189.226546" xlink:href="#C1_0_e2660ec2e3" y="188.473207"/>
    </g>
    <g clip-path="url(#pf12c3c829a)">
     <use style="fill:#808080;fill-opacity:0.811259;stroke:#808080;stroke-opacity:0.811259;" x="263.288727" xlink:href="#C1_0_e2660ec2e3" y="161.461342"/>
    </g>
    <g clip-path="url(#pf12c3c829a)">
     <use style="fill:#808080;fill-opacity:0.83223;stroke:#808080;stroke-opacity:0.83223;" x="183.442654" xlink:href="#C1_0_e2660ec2e3" y="191.213518"/>
    </g>
    <g clip-path="url(#pf12c3c829a)">
     <use style="fill:#808080;fill-opacity:0.832412;stroke:#808080;stroke-opacity:0.832412;" x="275.063956" xlink:href="#C1_0_e2660ec2e3" y="191.23492"/>
    </g>
    <g clip-path="url(#pf12c3c829a)">
     <use style="fill:#808080;fill-opacity:0.843727;stroke:#808080;stroke-opacity:0.843727;" x="186.695495" xlink:href="#C1_0_e2660ec2e3" y="219.958247"/>
    </g>
    <g clip-path="url(#pf12c3c829a)">
     <use style="fill:#808080;fill-opacity:0.872597;stroke:#808080;stroke-opacity:0.872597;" x="193.405246" xlink:href="#C1_0_e2660ec2e3" y="195.95088"/>
    </g>
    <g clip-path="url(#pf12c3c829a)">
     <use style="fill:#808080;fill-opacity:0.885275;stroke:#808080;stroke-opacity:0.885275;" x="196.805824" xlink:href="#C1_0_e2660ec2e3" y="197.438691"/>
    </g>
    <g clip-path="url(#pf12c3c829a)">
     <use style="fill:#808080;fill-opacity:0.905547;stroke:#808080;stroke-opacity:0.905547;" x="283.176676" xlink:href="#C1_0_e2660ec2e3" y="199.817706"/>
    </g>
    <g clip-path="url(#pf12c3c829a)">
     <use style="fill:#808080;fill-opacity:0.922512;stroke:#808080;stroke-opacity:0.922512;" x="200.242709" xlink:href="#C1_0_e2660ec2e3" y="174.159977"/>
    </g>
    <g clip-path="url(#pf12c3c829a)">
     <use style="fill:#808080;stroke:#808080;" x="212.603409" xlink:href="#C1_0_e2660ec2e3" y="183.004516"/>
    </g>
   </g>
   <g id="legend_1">
    <g id="patch_6">
     <path d="M 314.455 74.518125 
L 377.48 74.518125 
Q 379.48 74.518125 379.48 72.518125 
L 379.48 58.84 
Q 379.48 56.84 377.48 56.84 
L 314.455 56.84 
Q 312.455 56.84 312.455 58.84 
L 312.455 72.518125 
Q 312.455 74.518125 314.455 74.518125 
z
" style="fill:#ffffff;opacity:0.8;stroke:#cccccc;stroke-linejoin:miter;"/>
    </g>
    <g id="Path3DCollection_3">
     <defs>
      <path d="M 0 5 
C 1.326016 5 2.597899 4.473168 3.535534 3.535534 
C 4.473168 2.597899 5 1.326016 5 0 
C 5 -1.326016 4.473168 -2.597899 3.535534 -3.535534 
C 2.597899 -4.473168 1.326016 -5 0 -5 
C -1.326016 -5 -2.597899 -4.473168 -3.535534 -3.535534 
C -4.473168 -2.597899 -5 -1.326016 -5 0 
C -5 1.326016 -4.473168 2.597899 -3.535534 3.535534 
C -2.597899 4.473168 -1.326016 5 0 5 
z
" id="m88d7b21710" style="stroke:#ff0000;"/>
     </defs>
     <g>
      <use style="fill:#ff0000;stroke:#ff0000;" x="326.455" xlink:href="#m88d7b21710" y="65.813438"/>
     </g>
    </g>
    <g id="text_2">
     <!-- Timp3 -->
     <g transform="translate(344.455 68.438438)scale(0.1 -0.1)">
      <use xlink:href="#DejaVuSans-84"/>
      <use x="57.958984" xlink:href="#DejaVuSans-105"/>
      <use x="85.742188" xlink:href="#DejaVuSans-109"/>
      <use x="183.154297" xlink:href="#DejaVuSans-112"/>
      <use x="246.630859" xlink:href="#DejaVuSans-51"/>
     </g>
    </g>
   </g>
  </g>
 </g>
 <defs>
  <clipPath id="pf12c3c829a">
   <rect height="326.16" width="326.16" x="58.32" y="51.84"/>
  </clipPath>
 </defs>
</svg>
