<?xml version="1.0" encoding="utf-8" standalone="no"?>
<!DOCTYPE svg PUBLIC "-//W3C//DTD SVG 1.1//EN"
  "http://www.w3.org/Graphics/SVG/1.1/DTD/svg11.dtd">
<!-- Created with matplotlib (https://matplotlib.org/) -->
<svg height="432pt" version="1.1" viewBox="0 0 432 432" width="432pt" xmlns="http://www.w3.org/2000/svg" xmlns:xlink="http://www.w3.org/1999/xlink">
 <metadata>
  <rdf:RDF xmlns:cc="http://creativecommons.org/ns#" xmlns:dc="http://purl.org/dc/elements/1.1/" xmlns:rdf="http://www.w3.org/1999/02/22-rdf-syntax-ns#">
   <cc:Work>
    <dc:type rdf:resource="http://purl.org/dc/dcmitype/StillImage"/>
    <dc:date>2022-03-23T21:24:35.524353</dc:date>
    <dc:format>image/svg+xml</dc:format>
    <dc:creator>
     <cc:Agent>
      <dc:title>Matplotlib v3.3.3, https://matplotlib.org/</dc:title>
     </cc:Agent>
    </dc:creator>
   </cc:Work>
  </rdf:RDF>
 </metadata>
 <defs>
  <style type="text/css">*{stroke-linecap:butt;stroke-linejoin:round;}</style>
 </defs>
 <g id="figure_1">
  <g id="patch_1">
   <path d="M 0 432 
L 432 432 
L 432 0 
L 0 0 
z
" style="fill:none;"/>
  </g>
  <g id="patch_2">
   <path d="M 58.32 378 
L 384.48 378 
L 384.48 51.84 
L 58.32 51.84 
z
" style="fill:#ffffff;"/>
  </g>
  <g id="pane3d_1">
   <g id="patch_3">
    <path d="M 82.947329 297.579397 
L 190.656013 207.295842 
L 189.158759 77.090817 
L 76.29566 159.453166 
" style="fill:#f2f2f2;opacity:0.5;stroke:#f2f2f2;stroke-linejoin:miter;"/>
   </g>
  </g>
  <g id="pane3d_2">
   <g id="patch_4">
    <path d="M 190.656013 207.295842 
L 363.49002 257.531864 
L 369.657857 122.842076 
L 189.158759 77.090817 
" style="fill:#e6e6e6;opacity:0.5;stroke:#e6e6e6;stroke-linejoin:miter;"/>
   </g>
  </g>
  <g id="pane3d_3">
   <g id="patch_5">
    <path d="M 82.947329 297.579397 
L 266.159818 357.416595 
L 363.49002 257.531864 
L 190.656013 207.295842 
" style="fill:#ececec;opacity:0.5;stroke:#ececec;stroke-linejoin:miter;"/>
   </g>
  </g>
  <g id="axis3d_1">
   <g id="line2d_1">
    <path d="M 82.947329 297.579397 
L 266.159818 357.416595 
" style="fill:none;stroke:#000000;stroke-linecap:square;stroke-width:0.8;"/>
   </g>
  </g>
  <g id="axis3d_2">
   <g id="line2d_2">
    <path d="M 363.49002 257.531864 
L 266.159818 357.416595 
" style="fill:none;stroke:#000000;stroke-linecap:square;stroke-width:0.8;"/>
   </g>
  </g>
  <g id="axis3d_3">
   <g id="line2d_3">
    <path d="M 363.49002 257.531864 
L 369.657857 122.842076 
" style="fill:none;stroke:#000000;stroke-linecap:square;stroke-width:0.8;"/>
   </g>
  </g>
  <g id="axes_1">
   <g id="line2d_4">
    <path clip-path="url(#p6ee4cbd618)" d="M 317.056667 273.663418 
L 312.57302 278.13438 
L 307.470324 281.28855 
L 303.011079 283.599061 
L 297.283393 285.420884 
L 290.852004 288.116623 
L 285.080172 289.953577 
L 280.53746 292.301055 
L 274.18007 292.769428 
L 269.176611 290.019444 
L 265.624111 287.600638 
L 261.66638 284.103987 
L 256.733268 281.397101 
L 251.824564 278.703608 
L 248.346469 276.334375 
L 245.885573 273.218376 
L 246.832725 268.924636 
L 251.060409 266.588376 
L 256.765282 264.828754 
L 261.759531 263.90479 
L 268.642216 262.631454 
L 273.616024 261.711271 
L 279.794246 261.268965 
L 287.18365 261.30335 
L 293.907556 262.164946 
L 299.979988 263.85776 
L 307.302358 266.036495 
L 313.23983 267.917781 
L 315.881887 271.003242 
L 317.056667 273.663418 
" style="fill:none;stroke:#808080;stroke-linecap:square;stroke-width:1.5;"/>
   </g>
   <g id="line2d_5">
    <path clip-path="url(#p6ee4cbd618)" d="M 324.514795 255.278998 
L 320.029508 259.705988 
L 314.911302 262.829297 
L 309.763046 265.970943 
L 304.000059 267.777933 
L 298.901335 268.731593 
L 291.845352 270.051336 
L 286.725033 271.009035 
L 280.895983 272.833042 
L 274.497083 273.296138 
L 267.551836 272.394822 
L 260.618164 271.495007 
L 252.974987 271.459098 
L 246.572275 271.921017 
L 240.164078 272.383331 
L 234.487754 271.981418 
L 226.842001 271.945476 
L 220.425207 272.407811 
L 215.230057 273.369706 
L 208.799811 273.833263 
L 201.599309 275.165557 
L 196.374065 276.132374 
L 189.919266 276.598304 
L 182.242301 276.562054 
L 176.565661 276.157024 
L 169.683937 275.250931 
L 161.609692 273.846287 
L 158.053134 271.622106 
L 152.227557 269.681159 
L 152.48981 266.074998 
L 157.70096 261.595115 
L 162.487093 259.322114 
L 167.419472 255.074549 
L 169.013777 251.869795 
L 171.653324 247.944409 
L 174.273379 244.048008 
L 176.874159 240.180274 
L 181.860792 235.913491 
L 186.806969 231.681325 
L 189.755459 229.158466 
L 195.066891 226.228329 
L 200.052788 225.348484 
L 206.19838 224.925562 
L 213.059705 223.713991 
L 218.018205 222.83842 
L 224.141527 222.417551 
L 230.259849 221.997025 
L 236.850996 222.816136 
L 243.939963 224.880814 
L 251.057403 226.953785 
L 255.845499 229.456881 
L 263.018569 231.54829 
L 267.857061 234.0737 
L 272.719133 236.611418 
L 279.976073 238.73182 
L 287.936536 240.046654 
L 294.020774 241.710272 
L 301.454512 241.744229 
L 306.995998 242.123935 
L 313.778381 242.975404 
L 321.163552 245.121762 
L 326.208605 247.713675 
L 326.524432 251.197324 
L 324.454564 255.146993 
L 324.514795 255.278998 
" style="fill:none;stroke:#808080;stroke-linecap:square;stroke-width:1.5;"/>
   </g>
   <g id="line2d_6">
    <path clip-path="url(#p6ee4cbd618)" d="M 321.847995 237.07371 
L 317.316602 241.458723 
L 313.420947 245.037906 
L 306.953707 247.664758 
L 301.826308 248.606325 
L 294.73055 249.909349 
L 288.884427 251.707081 
L 283.721178 252.65588 
L 277.284033 253.113129 
L 270.841333 253.570772 
L 264.39307 254.028811 
L 257.939236 254.487245 
L 250.749455 255.804833 
L 245.531914 256.760991 
L 239.563644 258.582119 
L 232.323213 259.909894 
L 227.068873 260.873454 
L 220.557177 261.337821 
L 214.039819 261.802592 
L 207.516789 262.267768 
L 200.98808 262.733349 
L 194.453685 263.199335 
L 187.913598 263.665727 
L 180.929457 262.758002 
L 173.957145 261.851814 
L 166.996632 260.94716 
L 159.638451 258.679974 
L 154.83625 255.967153 
L 150.058427 253.268103 
L 146.717773 250.89427 
L 145.592261 247.015315 
L 144.782371 244.22412 
L 146.161407 239.952194 
L 147.837563 236.759284 
L 149.194526 232.54767 
L 151.925394 228.668498 
L 156.0172 225.114715 
L 158.703352 221.290696 
L 163.798409 217.072362 
L 168.851849 212.888483 
L 173.86418 208.73864 
L 178.835901 204.622418 
L 184.183772 201.758657 
L 189.92398 200.126366 
L 195.645649 198.499346 
L 201.348867 196.877574 
L 206.310511 196.025959 
L 213.148488 194.852291 
L 218.090148 194.004106 
L 225.36307 194.035828 
L 230.759474 194.390541 
L 237.336629 195.185944 
L 243.924237 195.982611 
L 251.017486 197.990709 
L 256.76291 199.72455 
L 260.583975 202.851886 
L 263.042613 205.713025 
L 265.515217 208.590417 
L 268.977846 210.778061 
L 272.87933 213.974532 
L 277.780654 216.477066 
L 285.088231 218.568122 
L 292.42572 220.667737 
L 299.225789 221.505433 
L 306.036949 222.344495 
L 312.018984 224.16343 
L 317.066185 226.716206 
L 321.182281 230.013697 
L 322.443063 232.729868 
L 321.787631 236.942961 
L 321.847995 237.07371 
" style="fill:none;stroke:#808080;stroke-linecap:square;stroke-width:1.5;"/>
   </g>
   <g id="line2d_7">
    <path clip-path="url(#p6ee4cbd618)" d="M 314.278104 219.45397 
L 309.675218 223.802526 
L 304.441224 226.870858 
L 298.590488 228.635789 
L 292.719748 230.406755 
L 286.828903 232.183785 
L 281.627308 233.121675 
L 274.428704 234.419643 
L 268.483599 236.210454 
L 263.245223 237.155628 
L 257.265203 238.955866 
L 251.264535 240.76232 
L 243.974848 242.079432 
L 237.933221 243.896698 
L 232.628354 244.855852 
L 225.286651 246.183278 
L 219.958671 247.146611 
L 213.360522 247.610877 
L 205.975202 248.945268 
L 200.146779 248.540636 
L 193.53117 249.006131 
L 186.458954 248.100157 
L 179.398858 247.195736 
L 171.920277 244.929221 
L 164.473773 242.672428 
L 159.608517 239.972175 
L 156.202504 237.597432 
L 152.490987 234.165012 
L 149.119865 231.816501 
L 146.871305 228.728282 
L 144.636069 225.658364 
L 143.516507 221.866219 
L 142.710907 219.137516 
L 143.00578 215.691737 
L 143.298681 212.269015 
L 143.589629 208.869118 
L 146.348568 205.068404 
L 149.086948 201.296014 
L 154.252281 197.134828 
L 159.375171 193.007834 
L 164.854608 190.13686 
L 170.302685 187.282317 
L 175.719669 184.444065 
L 181.105827 181.621965 
L 186.46142 178.81588 
L 192.213112 177.216482 
L 197.946178 175.622262 
L 203.660708 174.033198 
L 208.189007 172.017648 
L 213.866118 170.440207 
L 219.524972 168.867838 
L 225.62833 168.470278 
L 232.197644 169.244656 
L 239.257742 171.196564 
L 246.346117 173.156291 
L 252.963521 173.938127 
L 260.099321 175.90886 
L 265.880256 177.610461 
L 268.354736 180.401061 
L 269.870395 183.893293 
L 272.37208 186.719658 
L 274.888072 189.562186 
L 278.394472 191.723397 
L 282.352228 194.881356 
L 287.310304 197.353834 
L 292.292903 199.838541 
L 297.300207 202.335568 
L 302.332401 204.845007 
L 307.38967 207.36695 
L 312.472203 209.901492 
L 313.71773 212.581248 
L 313.996976 216.006071 
L 314.278104 219.45397 
" style="fill:none;stroke:#808080;stroke-linecap:square;stroke-width:1.5;"/>
   </g>
   <g id="line2d_8">
    <path clip-path="url(#p6ee4cbd618)" d="M 305.389264 198.962245 
L 300.719942 203.250461 
L 295.426565 206.276352 
L 290.101394 209.320417 
L 284.171778 211.071466 
L 279.503632 213.309395 
L 272.810002 215.912163 
L 266.8119 217.686011 
L 260.792967 219.46602 
L 256.034461 221.741034 
L 249.972886 223.535166 
L 243.890139 225.335565 
L 236.506733 226.648307 
L 230.381997 228.459605 
L 225.008615 229.415638 
L 217.571905 230.73878 
L 210.902113 231.200711 
L 205.496473 232.161814 
L 198.341136 231.261115 
L 190.396508 231.225171 
L 184.067597 229.464392 
L 176.508708 227.215074 
L 171.556083 224.523913 
L 166.629157 221.846715 
L 163.176842 219.49235 
L 159.40937 216.089552 
L 155.992746 213.761423 
L 152.269905 210.396438 
L 149.999591 207.355276 
L 147.742805 204.332233 
L 145.499425 201.327149 
L 144.683571 198.63642 
L 143.564045 194.944164 
L 142.758471 192.287335 
L 141.653006 188.641452 
L 141.95029 185.310819 
L 141.156674 182.704749 
L 143.925358 179.001026 
L 149.13251 174.915713 
L 153.900551 172.842809 
L 159.428421 170.012956 
L 164.924465 167.199395 
L 170.388957 164.401986 
L 175.822169 161.62059 
L 182.395151 159.286366 
L 187.765659 156.534136 
L 193.535156 154.965458 
L 199.285905 153.401877 
L 203.846208 151.418688 
L 210.283354 149.133299 
L 215.972259 147.588597 
L 220.929589 146.777457 
L 227.053332 146.387558 
L 233.646356 147.147013 
L 240.249888 147.907679 
L 247.356115 149.825047 
L 253.989145 150.589989 
L 261.143021 152.51815 
L 268.325753 154.454088 
L 274.145685 156.125673 
L 276.654285 158.8671 
L 276.804823 162.022367 
L 278.36209 165.475639 
L 279.49671 167.991683 
L 282.051707 170.801148 
L 286.041597 173.909003 
L 288.631106 176.75271 
L 291.235667 179.612947 
L 293.855412 182.489858 
L 298.911717 184.965975 
L 301.568209 187.874223 
L 304.240316 190.799568 
L 305.473225 193.448484 
L 305.726657 196.834041 
L 305.389264 198.962245 
" style="fill:none;stroke:#808080;stroke-linecap:square;stroke-width:1.5;"/>
   </g>
   <g id="line2d_9">
    <path clip-path="url(#p6ee4cbd618)" d="M 296.615242 181.589115 
L 291.862868 185.844186 
L 286.491201 188.846901 
L 281.804891 191.046913 
L 275.083684 193.605644 
L 270.349626 195.826748 
L 263.566661 198.410068 
L 257.493344 200.170736 
L 251.398727 201.93758 
L 245.282698 203.71063 
L 239.145142 205.489922 
L 233.755067 206.429073 
L 227.58064 208.217953 
L 220.099639 209.522337 
L 214.670355 210.468985 
L 207.156133 211.779162 
L 200.424059 212.236573 
L 194.492123 211.838921 
L 187.294119 210.94938 
L 179.659903 208.720278 
L 174.654398 206.053418 
L 172.263575 202.955757 
L 168.768848 200.624915 
L 164.950697 197.256275 
L 162.609969 194.212079 
L 159.167496 191.92136 
L 155.414014 188.610547 
L 153.12202 185.618444 
L 149.730531 183.366821 
L 148.579099 179.687848 
L 146.327927 176.749036 
L 145.507935 174.117682 
L 144.382747 170.506954 
L 143.57311 167.90883 
L 141.36345 165.039638 
L 136.668789 162.596865 
L 133.09746 159.47721 
L 137.29493 156.127985 
L 142.502733 155.279678 
L 149.679402 154.110658 
L 155.655343 152.507161 
L 161.211643 149.719208 
L 166.73576 146.947404 
L 171.048491 143.76223 
L 176.510013 141.024772 
L 183.117787 138.727491 
L 188.943398 137.174852 
L 193.570976 135.205614 
L 199.357846 133.664504 
L 205.125823 132.128425 
L 211.603095 129.873989 
L 217.327968 128.350249 
L 223.034258 126.831456 
L 229.193373 126.447449 
L 234.640547 126.78125 
L 241.281069 127.529766 
L 247.932241 128.279483 
L 254.594089 129.030403 
L 261.779832 130.923243 
L 268.994684 132.823751 
L 273.867888 135.118687 
L 279.736833 136.767733 
L 282.278444 139.472281 
L 282.448497 142.585231 
L 280.223725 146.114505 
L 280.388171 149.271356 
L 281.980079 152.726688 
L 284.571311 155.523575 
L 287.177685 158.336804 
L 289.799333 161.16652 
L 292.43639 164.012868 
L 295.088992 166.875995 
L 296.300976 169.468612 
L 297.985311 173.071661 
L 299.212779 175.697403 
L 296.974622 179.477491 
L 296.615242 181.589115 
" style="fill:none;stroke:#808080;stroke-linecap:square;stroke-width:1.5;"/>
   </g>
   <g id="line2d_10">
    <path clip-path="url(#p6ee4cbd618)" d="M 293.050993 160.942592 
L 288.251182 165.136882 
L 284.129224 168.561214 
L 277.952226 172.353482 
L 272.461374 175.35761 
L 266.375693 177.085857 
L 260.822569 180.119122 
L 254.686781 181.864172 
L 249.288592 182.78526 
L 241.817403 184.060063 
L 236.395211 184.985247 
L 228.890763 186.265724 
L 222.659935 188.032585 
L 217.198048 188.965201 
L 210.929414 190.741684 
L 203.348328 192.03707 
L 196.558951 192.489324 
L 190.57958 192.096155 
L 183.325668 191.216652 
L 178.258236 188.568398 
L 174.702328 186.239738 
L 173.419559 182.435604 
L 171.022498 179.397443 
L 168.640108 176.377876 
L 166.272254 173.376733 
L 162.79806 171.118492 
L 159.00716 167.854743 
L 155.569116 165.621831 
L 151.823418 162.394587 
L 149.539696 159.478029 
L 147.269669 156.578962 
L 146.441338 153.983297 
L 145.304759 150.421705 
L 144.486962 147.85905 
L 143.36479 144.342607 
L 142.557328 141.812337 
L 144.547431 138.973693 
L 151.405646 136.622052 
L 157.036218 133.849746 
L 162.230037 129.920444 
L 167.78919 127.187303 
L 172.127951 124.046693 
L 178.810795 121.768565 
L 184.273808 119.082691 
L 190.137174 117.551939 
L 195.981197 116.026237 
L 201.805972 114.50556 
L 206.873359 113.707074 
L 213.398156 111.479183 
L 219.165753 109.973434 
L 224.914478 108.472611 
L 229.928847 107.684538 
L 236.613087 108.422999 
L 243.308125 109.162654 
L 250.516661 111.027129 
L 257.754586 112.899206 
L 262.631346 115.159875 
L 269.926714 117.048856 
L 275.838424 118.679988 
L 279.808781 121.622396 
L 279.972141 124.703585 
L 280.136589 127.80528 
L 280.302134 130.927687 
L 280.468789 134.071015 
L 283.076869 136.836084 
L 285.700314 139.617443 
L 289.336904 141.732466 
L 291.99253 144.54279 
L 293.664211 148.060715 
L 294.882473 150.624453 
L 295.102512 153.901366 
L 294.314523 157.905989 
L 293.050993 160.942592 
" style="fill:none;stroke:#808080;stroke-linecap:square;stroke-width:1.5;"/>
   </g>
   <g id="Path3DCollection_1">
    <defs>
     <path d="M 0 5 
C 1.326016 5 2.597899 4.473168 3.535534 3.535534 
C 4.473168 2.597899 5 1.326016 5 -0 
C 5 -1.326016 4.473168 -2.597899 3.535534 -3.535534 
C 2.597899 -4.473168 1.326016 -5 0 -5 
C -1.326016 -5 -2.597899 -4.473168 -3.535534 -3.535534 
C -4.473168 -2.597899 -5 -1.326016 -5 0 
C -5 1.326016 -4.473168 2.597899 -3.535534 3.535534 
C -2.597899 4.473168 -1.326016 5 0 5 
z
" id="C0_0_3c5fb92755"/>
    </defs>
    <g clip-path="url(#p6ee4cbd618)">
     <use style="fill:#ff0000;fill-opacity:0.3;stroke:#ff0000;stroke-opacity:0.3;" x="269.063253" xlink:href="#C0_0_3c5fb92755" y="157.147296"/>
    </g>
    <g clip-path="url(#p6ee4cbd618)">
     <use style="fill:#ff0000;fill-opacity:0.370136;stroke:#ff0000;stroke-opacity:0.370136;" x="220.452039" xlink:href="#C0_0_3c5fb92755" y="135.855489"/>
    </g>
    <g clip-path="url(#p6ee4cbd618)">
     <use style="fill:#ff0000;fill-opacity:0.396569;stroke:#ff0000;stroke-opacity:0.396569;" x="265.039095" xlink:href="#C0_0_3c5fb92755" y="137.524629"/>
    </g>
    <g clip-path="url(#p6ee4cbd618)">
     <use style="fill:#ff0000;fill-opacity:0.426066;stroke:#ff0000;stroke-opacity:0.426066;" x="271.391762" xlink:href="#C0_0_3c5fb92755" y="139.387232"/>
    </g>
    <g clip-path="url(#p6ee4cbd618)">
     <use style="fill:#ff0000;fill-opacity:0.477371;stroke:#ff0000;stroke-opacity:0.477371;" x="218.389638" xlink:href="#C0_0_3c5fb92755" y="116.599485"/>
    </g>
    <g clip-path="url(#p6ee4cbd618)">
     <use style="fill:#ff0000;fill-opacity:0.527442;stroke:#ff0000;stroke-opacity:0.527442;" x="276.693805" xlink:href="#C0_0_3c5fb92755" y="145.788577"/>
    </g>
    <g clip-path="url(#p6ee4cbd618)">
     <use style="fill:#ff0000;fill-opacity:0.618943;stroke:#ff0000;stroke-opacity:0.618943;" x="275.134303" xlink:href="#C0_0_3c5fb92755" y="125.29413"/>
    </g>
    <g clip-path="url(#p6ee4cbd618)">
     <use style="fill:#ff0000;stroke:#ff0000;" x="213.479324" xlink:href="#C0_0_3c5fb92755" y="229.491159"/>
    </g>
   </g>
   <g id="text_1">
    <!-- L6 IT cell has Timp3 peripheral score 0.65 -->
    <g transform="translate(95.685 45.84)scale(0.12 -0.12)">
     <defs>
      <path d="M 9.8125 72.90625 
L 19.671875 72.90625 
L 19.671875 8.296875 
L 55.171875 8.296875 
L 55.171875 0 
L 9.8125 0 
z
" id="DejaVuSans-76"/>
      <path d="M 33.015625 40.375 
Q 26.375 40.375 22.484375 35.828125 
Q 18.609375 31.296875 18.609375 23.390625 
Q 18.609375 15.53125 22.484375 10.953125 
Q 26.375 6.390625 33.015625 6.390625 
Q 39.65625 6.390625 43.53125 10.953125 
Q 47.40625 15.53125 47.40625 23.390625 
Q 47.40625 31.296875 43.53125 35.828125 
Q 39.65625 40.375 33.015625 40.375 
z
M 52.59375 71.296875 
L 52.59375 62.3125 
Q 48.875 64.0625 45.09375 64.984375 
Q 41.3125 65.921875 37.59375 65.921875 
Q 27.828125 65.921875 22.671875 59.328125 
Q 17.53125 52.734375 16.796875 39.40625 
Q 19.671875 43.65625 24.015625 45.921875 
Q 28.375 48.1875 33.59375 48.1875 
Q 44.578125 48.1875 50.953125 41.515625 
Q 57.328125 34.859375 57.328125 23.390625 
Q 57.328125 12.15625 50.6875 5.359375 
Q 44.046875 -1.421875 33.015625 -1.421875 
Q 20.359375 -1.421875 13.671875 8.265625 
Q 6.984375 17.96875 6.984375 36.375 
Q 6.984375 53.65625 15.1875 63.9375 
Q 23.390625 74.21875 37.203125 74.21875 
Q 40.921875 74.21875 44.703125 73.484375 
Q 48.484375 72.75 52.59375 71.296875 
z
" id="DejaVuSans-54"/>
      <path id="DejaVuSans-32"/>
      <path d="M 9.8125 72.90625 
L 19.671875 72.90625 
L 19.671875 0 
L 9.8125 0 
z
" id="DejaVuSans-73"/>
      <path d="M -0.296875 72.90625 
L 61.375 72.90625 
L 61.375 64.59375 
L 35.5 64.59375 
L 35.5 0 
L 25.59375 0 
L 25.59375 64.59375 
L -0.296875 64.59375 
z
" id="DejaVuSans-84"/>
      <path d="M 48.78125 52.59375 
L 48.78125 44.1875 
Q 44.96875 46.296875 41.140625 47.34375 
Q 37.3125 48.390625 33.40625 48.390625 
Q 24.65625 48.390625 19.8125 42.84375 
Q 14.984375 37.3125 14.984375 27.296875 
Q 14.984375 17.28125 19.8125 11.734375 
Q 24.65625 6.203125 33.40625 6.203125 
Q 37.3125 6.203125 41.140625 7.25 
Q 44.96875 8.296875 48.78125 10.40625 
L 48.78125 2.09375 
Q 45.015625 0.34375 40.984375 -0.53125 
Q 36.96875 -1.421875 32.421875 -1.421875 
Q 20.0625 -1.421875 12.78125 6.34375 
Q 5.515625 14.109375 5.515625 27.296875 
Q 5.515625 40.671875 12.859375 48.328125 
Q 20.21875 56 33.015625 56 
Q 37.15625 56 41.109375 55.140625 
Q 45.0625 54.296875 48.78125 52.59375 
z
" id="DejaVuSans-99"/>
      <path d="M 56.203125 29.59375 
L 56.203125 25.203125 
L 14.890625 25.203125 
Q 15.484375 15.921875 20.484375 11.0625 
Q 25.484375 6.203125 34.421875 6.203125 
Q 39.59375 6.203125 44.453125 7.46875 
Q 49.3125 8.734375 54.109375 11.28125 
L 54.109375 2.78125 
Q 49.265625 0.734375 44.1875 -0.34375 
Q 39.109375 -1.421875 33.890625 -1.421875 
Q 20.796875 -1.421875 13.15625 6.1875 
Q 5.515625 13.8125 5.515625 26.8125 
Q 5.515625 40.234375 12.765625 48.109375 
Q 20.015625 56 32.328125 56 
Q 43.359375 56 49.78125 48.890625 
Q 56.203125 41.796875 56.203125 29.59375 
z
M 47.21875 32.234375 
Q 47.125 39.59375 43.09375 43.984375 
Q 39.0625 48.390625 32.421875 48.390625 
Q 24.90625 48.390625 20.390625 44.140625 
Q 15.875 39.890625 15.1875 32.171875 
z
" id="DejaVuSans-101"/>
      <path d="M 9.421875 75.984375 
L 18.40625 75.984375 
L 18.40625 0 
L 9.421875 0 
z
" id="DejaVuSans-108"/>
      <path d="M 54.890625 33.015625 
L 54.890625 0 
L 45.90625 0 
L 45.90625 32.71875 
Q 45.90625 40.484375 42.875 44.328125 
Q 39.84375 48.1875 33.796875 48.1875 
Q 26.515625 48.1875 22.3125 43.546875 
Q 18.109375 38.921875 18.109375 30.90625 
L 18.109375 0 
L 9.078125 0 
L 9.078125 75.984375 
L 18.109375 75.984375 
L 18.109375 46.1875 
Q 21.34375 51.125 25.703125 53.5625 
Q 30.078125 56 35.796875 56 
Q 45.21875 56 50.046875 50.171875 
Q 54.890625 44.34375 54.890625 33.015625 
z
" id="DejaVuSans-104"/>
      <path d="M 34.28125 27.484375 
Q 23.390625 27.484375 19.1875 25 
Q 14.984375 22.515625 14.984375 16.5 
Q 14.984375 11.71875 18.140625 8.90625 
Q 21.296875 6.109375 26.703125 6.109375 
Q 34.1875 6.109375 38.703125 11.40625 
Q 43.21875 16.703125 43.21875 25.484375 
L 43.21875 27.484375 
z
M 52.203125 31.203125 
L 52.203125 0 
L 43.21875 0 
L 43.21875 8.296875 
Q 40.140625 3.328125 35.546875 0.953125 
Q 30.953125 -1.421875 24.3125 -1.421875 
Q 15.921875 -1.421875 10.953125 3.296875 
Q 6 8.015625 6 15.921875 
Q 6 25.140625 12.171875 29.828125 
Q 18.359375 34.515625 30.609375 34.515625 
L 43.21875 34.515625 
L 43.21875 35.40625 
Q 43.21875 41.609375 39.140625 45 
Q 35.0625 48.390625 27.6875 48.390625 
Q 23 48.390625 18.546875 47.265625 
Q 14.109375 46.140625 10.015625 43.890625 
L 10.015625 52.203125 
Q 14.9375 54.109375 19.578125 55.046875 
Q 24.21875 56 28.609375 56 
Q 40.484375 56 46.34375 49.84375 
Q 52.203125 43.703125 52.203125 31.203125 
z
" id="DejaVuSans-97"/>
      <path d="M 44.28125 53.078125 
L 44.28125 44.578125 
Q 40.484375 46.53125 36.375 47.5 
Q 32.28125 48.484375 27.875 48.484375 
Q 21.1875 48.484375 17.84375 46.4375 
Q 14.5 44.390625 14.5 40.28125 
Q 14.5 37.15625 16.890625 35.375 
Q 19.28125 33.59375 26.515625 31.984375 
L 29.59375 31.296875 
Q 39.15625 29.25 43.1875 25.515625 
Q 47.21875 21.78125 47.21875 15.09375 
Q 47.21875 7.46875 41.1875 3.015625 
Q 35.15625 -1.421875 24.609375 -1.421875 
Q 20.21875 -1.421875 15.453125 -0.5625 
Q 10.6875 0.296875 5.421875 2 
L 5.421875 11.28125 
Q 10.40625 8.6875 15.234375 7.390625 
Q 20.0625 6.109375 24.8125 6.109375 
Q 31.15625 6.109375 34.5625 8.28125 
Q 37.984375 10.453125 37.984375 14.40625 
Q 37.984375 18.0625 35.515625 20.015625 
Q 33.0625 21.96875 24.703125 23.78125 
L 21.578125 24.515625 
Q 13.234375 26.265625 9.515625 29.90625 
Q 5.8125 33.546875 5.8125 39.890625 
Q 5.8125 47.609375 11.28125 51.796875 
Q 16.75 56 26.8125 56 
Q 31.78125 56 36.171875 55.265625 
Q 40.578125 54.546875 44.28125 53.078125 
z
" id="DejaVuSans-115"/>
      <path d="M 9.421875 54.6875 
L 18.40625 54.6875 
L 18.40625 0 
L 9.421875 0 
z
M 9.421875 75.984375 
L 18.40625 75.984375 
L 18.40625 64.59375 
L 9.421875 64.59375 
z
" id="DejaVuSans-105"/>
      <path d="M 52 44.1875 
Q 55.375 50.25 60.0625 53.125 
Q 64.75 56 71.09375 56 
Q 79.640625 56 84.28125 50.015625 
Q 88.921875 44.046875 88.921875 33.015625 
L 88.921875 0 
L 79.890625 0 
L 79.890625 32.71875 
Q 79.890625 40.578125 77.09375 44.375 
Q 74.3125 48.1875 68.609375 48.1875 
Q 61.625 48.1875 57.5625 43.546875 
Q 53.515625 38.921875 53.515625 30.90625 
L 53.515625 0 
L 44.484375 0 
L 44.484375 32.71875 
Q 44.484375 40.625 41.703125 44.40625 
Q 38.921875 48.1875 33.109375 48.1875 
Q 26.21875 48.1875 22.15625 43.53125 
Q 18.109375 38.875 18.109375 30.90625 
L 18.109375 0 
L 9.078125 0 
L 9.078125 54.6875 
L 18.109375 54.6875 
L 18.109375 46.1875 
Q 21.1875 51.21875 25.484375 53.609375 
Q 29.78125 56 35.6875 56 
Q 41.65625 56 45.828125 52.96875 
Q 50 49.953125 52 44.1875 
z
" id="DejaVuSans-109"/>
      <path d="M 18.109375 8.203125 
L 18.109375 -20.796875 
L 9.078125 -20.796875 
L 9.078125 54.6875 
L 18.109375 54.6875 
L 18.109375 46.390625 
Q 20.953125 51.265625 25.265625 53.625 
Q 29.59375 56 35.59375 56 
Q 45.5625 56 51.78125 48.09375 
Q 58.015625 40.1875 58.015625 27.296875 
Q 58.015625 14.40625 51.78125 6.484375 
Q 45.5625 -1.421875 35.59375 -1.421875 
Q 29.59375 -1.421875 25.265625 0.953125 
Q 20.953125 3.328125 18.109375 8.203125 
z
M 48.6875 27.296875 
Q 48.6875 37.203125 44.609375 42.84375 
Q 40.53125 48.484375 33.40625 48.484375 
Q 26.265625 48.484375 22.1875 42.84375 
Q 18.109375 37.203125 18.109375 27.296875 
Q 18.109375 17.390625 22.1875 11.75 
Q 26.265625 6.109375 33.40625 6.109375 
Q 40.53125 6.109375 44.609375 11.75 
Q 48.6875 17.390625 48.6875 27.296875 
z
" id="DejaVuSans-112"/>
      <path d="M 40.578125 39.3125 
Q 47.65625 37.796875 51.625 33 
Q 55.609375 28.21875 55.609375 21.1875 
Q 55.609375 10.40625 48.1875 4.484375 
Q 40.765625 -1.421875 27.09375 -1.421875 
Q 22.515625 -1.421875 17.65625 -0.515625 
Q 12.796875 0.390625 7.625 2.203125 
L 7.625 11.71875 
Q 11.71875 9.328125 16.59375 8.109375 
Q 21.484375 6.890625 26.8125 6.890625 
Q 36.078125 6.890625 40.9375 10.546875 
Q 45.796875 14.203125 45.796875 21.1875 
Q 45.796875 27.640625 41.28125 31.265625 
Q 36.765625 34.90625 28.71875 34.90625 
L 20.21875 34.90625 
L 20.21875 43.015625 
L 29.109375 43.015625 
Q 36.375 43.015625 40.234375 45.921875 
Q 44.09375 48.828125 44.09375 54.296875 
Q 44.09375 59.90625 40.109375 62.90625 
Q 36.140625 65.921875 28.71875 65.921875 
Q 24.65625 65.921875 20.015625 65.03125 
Q 15.375 64.15625 9.8125 62.3125 
L 9.8125 71.09375 
Q 15.4375 72.65625 20.34375 73.4375 
Q 25.25 74.21875 29.59375 74.21875 
Q 40.828125 74.21875 47.359375 69.109375 
Q 53.90625 64.015625 53.90625 55.328125 
Q 53.90625 49.265625 50.4375 45.09375 
Q 46.96875 40.921875 40.578125 39.3125 
z
" id="DejaVuSans-51"/>
      <path d="M 41.109375 46.296875 
Q 39.59375 47.171875 37.8125 47.578125 
Q 36.03125 48 33.890625 48 
Q 26.265625 48 22.1875 43.046875 
Q 18.109375 38.09375 18.109375 28.8125 
L 18.109375 0 
L 9.078125 0 
L 9.078125 54.6875 
L 18.109375 54.6875 
L 18.109375 46.1875 
Q 20.953125 51.171875 25.484375 53.578125 
Q 30.03125 56 36.53125 56 
Q 37.453125 56 38.578125 55.875 
Q 39.703125 55.765625 41.0625 55.515625 
z
" id="DejaVuSans-114"/>
      <path d="M 30.609375 48.390625 
Q 23.390625 48.390625 19.1875 42.75 
Q 14.984375 37.109375 14.984375 27.296875 
Q 14.984375 17.484375 19.15625 11.84375 
Q 23.34375 6.203125 30.609375 6.203125 
Q 37.796875 6.203125 41.984375 11.859375 
Q 46.1875 17.53125 46.1875 27.296875 
Q 46.1875 37.015625 41.984375 42.703125 
Q 37.796875 48.390625 30.609375 48.390625 
z
M 30.609375 56 
Q 42.328125 56 49.015625 48.375 
Q 55.71875 40.765625 55.71875 27.296875 
Q 55.71875 13.875 49.015625 6.21875 
Q 42.328125 -1.421875 30.609375 -1.421875 
Q 18.84375 -1.421875 12.171875 6.21875 
Q 5.515625 13.875 5.515625 27.296875 
Q 5.515625 40.765625 12.171875 48.375 
Q 18.84375 56 30.609375 56 
z
" id="DejaVuSans-111"/>
      <path d="M 31.78125 66.40625 
Q 24.171875 66.40625 20.328125 58.90625 
Q 16.5 51.421875 16.5 36.375 
Q 16.5 21.390625 20.328125 13.890625 
Q 24.171875 6.390625 31.78125 6.390625 
Q 39.453125 6.390625 43.28125 13.890625 
Q 47.125 21.390625 47.125 36.375 
Q 47.125 51.421875 43.28125 58.90625 
Q 39.453125 66.40625 31.78125 66.40625 
z
M 31.78125 74.21875 
Q 44.046875 74.21875 50.515625 64.515625 
Q 56.984375 54.828125 56.984375 36.375 
Q 56.984375 17.96875 50.515625 8.265625 
Q 44.046875 -1.421875 31.78125 -1.421875 
Q 19.53125 -1.421875 13.0625 8.265625 
Q 6.59375 17.96875 6.59375 36.375 
Q 6.59375 54.828125 13.0625 64.515625 
Q 19.53125 74.21875 31.78125 74.21875 
z
" id="DejaVuSans-48"/>
      <path d="M 10.6875 12.40625 
L 21 12.40625 
L 21 0 
L 10.6875 0 
z
" id="DejaVuSans-46"/>
      <path d="M 10.796875 72.90625 
L 49.515625 72.90625 
L 49.515625 64.59375 
L 19.828125 64.59375 
L 19.828125 46.734375 
Q 21.96875 47.46875 24.109375 47.828125 
Q 26.265625 48.1875 28.421875 48.1875 
Q 40.625 48.1875 47.75 41.5 
Q 54.890625 34.8125 54.890625 23.390625 
Q 54.890625 11.625 47.5625 5.09375 
Q 40.234375 -1.421875 26.90625 -1.421875 
Q 22.3125 -1.421875 17.546875 -0.640625 
Q 12.796875 0.140625 7.71875 1.703125 
L 7.71875 11.625 
Q 12.109375 9.234375 16.796875 8.0625 
Q 21.484375 6.890625 26.703125 6.890625 
Q 35.15625 6.890625 40.078125 11.328125 
Q 45.015625 15.765625 45.015625 23.390625 
Q 45.015625 31 40.078125 35.4375 
Q 35.15625 39.890625 26.703125 39.890625 
Q 22.75 39.890625 18.8125 39.015625 
Q 14.890625 38.140625 10.796875 36.28125 
z
" id="DejaVuSans-53"/>
     </defs>
     <use xlink:href="#DejaVuSans-76"/>
     <use x="55.712891" xlink:href="#DejaVuSans-54"/>
     <use x="119.335938" xlink:href="#DejaVuSans-32"/>
     <use x="151.123047" xlink:href="#DejaVuSans-73"/>
     <use x="180.615234" xlink:href="#DejaVuSans-84"/>
     <use x="241.699219" xlink:href="#DejaVuSans-32"/>
     <use x="273.486328" xlink:href="#DejaVuSans-99"/>
     <use x="328.466797" xlink:href="#DejaVuSans-101"/>
     <use x="389.990234" xlink:href="#DejaVuSans-108"/>
     <use x="417.773438" xlink:href="#DejaVuSans-108"/>
     <use x="445.556641" xlink:href="#DejaVuSans-32"/>
     <use x="477.34375" xlink:href="#DejaVuSans-104"/>
     <use x="540.722656" xlink:href="#DejaVuSans-97"/>
     <use x="602.001953" xlink:href="#DejaVuSans-115"/>
     <use x="654.101562" xlink:href="#DejaVuSans-32"/>
     <use x="685.888672" xlink:href="#DejaVuSans-84"/>
     <use x="743.847656" xlink:href="#DejaVuSans-105"/>
     <use x="771.630859" xlink:href="#DejaVuSans-109"/>
     <use x="869.042969" xlink:href="#DejaVuSans-112"/>
     <use x="932.519531" xlink:href="#DejaVuSans-51"/>
     <use x="996.142578" xlink:href="#DejaVuSans-32"/>
     <use x="1027.929688" xlink:href="#DejaVuSans-112"/>
     <use x="1091.40625" xlink:href="#DejaVuSans-101"/>
     <use x="1152.929688" xlink:href="#DejaVuSans-114"/>
     <use x="1194.042969" xlink:href="#DejaVuSans-105"/>
     <use x="1221.826172" xlink:href="#DejaVuSans-112"/>
     <use x="1285.302734" xlink:href="#DejaVuSans-104"/>
     <use x="1348.681641" xlink:href="#DejaVuSans-101"/>
     <use x="1410.205078" xlink:href="#DejaVuSans-114"/>
     <use x="1451.318359" xlink:href="#DejaVuSans-97"/>
     <use x="1512.597656" xlink:href="#DejaVuSans-108"/>
     <use x="1540.380859" xlink:href="#DejaVuSans-32"/>
     <use x="1572.167969" xlink:href="#DejaVuSans-115"/>
     <use x="1624.267578" xlink:href="#DejaVuSans-99"/>
     <use x="1679.248047" xlink:href="#DejaVuSans-111"/>
     <use x="1740.429688" xlink:href="#DejaVuSans-114"/>
     <use x="1779.292969" xlink:href="#DejaVuSans-101"/>
     <use x="1840.816406" xlink:href="#DejaVuSans-32"/>
     <use x="1872.603516" xlink:href="#DejaVuSans-48"/>
     <use x="1936.226562" xlink:href="#DejaVuSans-46"/>
     <use x="1968.013672" xlink:href="#DejaVuSans-54"/>
     <use x="2031.636719" xlink:href="#DejaVuSans-53"/>
    </g>
   </g>
   <g id="Path3DCollection_2">
    <defs>
     <path d="M 0 3 
C 0.795609 3 1.55874 2.683901 2.12132 2.12132 
C 2.683901 1.55874 3 0.795609 3 -0 
C 3 -0.795609 2.683901 -1.55874 2.12132 -2.12132 
C 1.55874 -2.683901 0.795609 -3 0 -3 
C -0.795609 -3 -1.55874 -2.683901 -2.12132 -2.12132 
C -2.683901 -1.55874 -3 -0.795609 -3 0 
C -3 0.795609 -2.683901 1.55874 -2.12132 2.12132 
C -1.55874 2.683901 -0.795609 3 0 3 
z
" id="C1_0_5c5790d523"/>
    </defs>
    <g clip-path="url(#p6ee4cbd618)">
     <use style="fill:#808080;fill-opacity:0.3;stroke:#808080;stroke-opacity:0.3;" x="258.488493" xlink:href="#C1_0_5c5790d523" y="130.156328"/>
    </g>
    <g clip-path="url(#p6ee4cbd618)">
     <use style="fill:#808080;fill-opacity:0.301206;stroke:#808080;stroke-opacity:0.301206;" x="229.251119" xlink:href="#C1_0_5c5790d523" y="181.683356"/>
    </g>
    <g clip-path="url(#p6ee4cbd618)">
     <use style="fill:#808080;fill-opacity:0.329204;stroke:#808080;stroke-opacity:0.329204;" x="248.055805" xlink:href="#C1_0_5c5790d523" y="133.72961"/>
    </g>
    <g clip-path="url(#p6ee4cbd618)">
     <use style="fill:#808080;fill-opacity:0.335321;stroke:#808080;stroke-opacity:0.335321;" x="248.157151" xlink:href="#C1_0_5c5790d523" y="237.694545"/>
    </g>
    <g clip-path="url(#p6ee4cbd618)">
     <use style="fill:#808080;fill-opacity:0.344339;stroke:#808080;stroke-opacity:0.344339;" x="220.434413" xlink:href="#C1_0_5c5790d523" y="109.747206"/>
    </g>
    <g clip-path="url(#p6ee4cbd618)">
     <use style="fill:#808080;fill-opacity:0.34716;stroke:#808080;stroke-opacity:0.34716;" x="234.897364" xlink:href="#C1_0_5c5790d523" y="135.926755"/>
    </g>
    <g clip-path="url(#p6ee4cbd618)">
     <use style="fill:#808080;fill-opacity:0.353291;stroke:#808080;stroke-opacity:0.353291;" x="225.680413" xlink:href="#C1_0_5c5790d523" y="162.541252"/>
    </g>
    <g clip-path="url(#p6ee4cbd618)">
     <use style="fill:#808080;fill-opacity:0.357043;stroke:#808080;stroke-opacity:0.357043;" x="224.968517" xlink:href="#C1_0_5c5790d523" y="111.25899"/>
    </g>
    <g clip-path="url(#p6ee4cbd618)">
     <use style="fill:#808080;fill-opacity:0.362793;stroke:#808080;stroke-opacity:0.362793;" x="284.943911" xlink:href="#C1_0_5c5790d523" y="267.320458"/>
    </g>
    <g clip-path="url(#p6ee4cbd618)">
     <use style="fill:#808080;fill-opacity:0.365221;stroke:#808080;stroke-opacity:0.365221;" x="277.226656" xlink:href="#C1_0_5c5790d523" y="138.136594"/>
    </g>
    <g clip-path="url(#p6ee4cbd618)">
     <use style="fill:#808080;fill-opacity:0.369185;stroke:#808080;stroke-opacity:0.369185;" x="216.461345" xlink:href="#C1_0_5c5790d523" y="138.621656"/>
    </g>
    <g clip-path="url(#p6ee4cbd618)">
     <use style="fill:#808080;fill-opacity:0.375638;stroke:#808080;stroke-opacity:0.375638;" x="247.557157" xlink:href="#C1_0_5c5790d523" y="113.471911"/>
    </g>
    <g clip-path="url(#p6ee4cbd618)">
     <use style="fill:#808080;fill-opacity:0.378908;stroke:#808080;stroke-opacity:0.378908;" x="218.431427" xlink:href="#C1_0_5c5790d523" y="191.711816"/>
    </g>
    <g clip-path="url(#p6ee4cbd618)">
     <use style="fill:#808080;fill-opacity:0.392301;stroke:#808080;stroke-opacity:0.392301;" x="220.87342" xlink:href="#C1_0_5c5790d523" y="115.454875"/>
    </g>
    <g clip-path="url(#p6ee4cbd618)">
     <use style="fill:#808080;fill-opacity:0.396103;stroke:#808080;stroke-opacity:0.396103;" x="233.505337" xlink:href="#C1_0_5c5790d523" y="115.907436"/>
    </g>
    <g clip-path="url(#p6ee4cbd618)">
     <use style="fill:#808080;fill-opacity:0.402709;stroke:#808080;stroke-opacity:0.402709;" x="256.820593" xlink:href="#C1_0_5c5790d523" y="168.753504"/>
    </g>
    <g clip-path="url(#p6ee4cbd618)">
     <use style="fill:#808080;fill-opacity:0.405938;stroke:#808080;stroke-opacity:0.405938;" x="229.483985" xlink:href="#C1_0_5c5790d523" y="247.282017"/>
    </g>
    <g clip-path="url(#p6ee4cbd618)">
     <use style="fill:#808080;fill-opacity:0.409672;stroke:#808080;stroke-opacity:0.409672;" x="176.725455" xlink:href="#C1_0_5c5790d523" y="143.575523"/>
    </g>
    <g clip-path="url(#p6ee4cbd618)">
     <use style="fill:#808080;fill-opacity:0.414501;stroke:#808080;stroke-opacity:0.414501;" x="290.952414" xlink:href="#C1_0_5c5790d523" y="274.514131"/>
    </g>
    <g clip-path="url(#p6ee4cbd618)">
     <use style="fill:#808080;fill-opacity:0.414966;stroke:#808080;stroke-opacity:0.414966;" x="296.592945" xlink:href="#C1_0_5c5790d523" y="248.507641"/>
    </g>
    <g clip-path="url(#p6ee4cbd618)">
     <use style="fill:#808080;fill-opacity:0.415253;stroke:#808080;stroke-opacity:0.415253;" x="220.549438" xlink:href="#C1_0_5c5790d523" y="118.186385"/>
    </g>
    <g clip-path="url(#p6ee4cbd618)">
     <use style="fill:#808080;fill-opacity:0.418158;stroke:#808080;stroke-opacity:0.418158;" x="254.784047" xlink:href="#C1_0_5c5790d523" y="144.613863"/>
    </g>
    <g clip-path="url(#p6ee4cbd618)">
     <use style="fill:#808080;fill-opacity:0.422048;stroke:#808080;stroke-opacity:0.422048;" x="240.717668" xlink:href="#C1_0_5c5790d523" y="145.08985"/>
    </g>
    <g clip-path="url(#p6ee4cbd618)">
     <use style="fill:#808080;fill-opacity:0.425835;stroke:#808080;stroke-opacity:0.425835;" x="324.00393" xlink:href="#C1_0_5c5790d523" y="249.983361"/>
    </g>
    <g clip-path="url(#p6ee4cbd618)">
     <use style="fill:#808080;fill-opacity:0.431686;stroke:#808080;stroke-opacity:0.431686;" x="264.828282" xlink:href="#C1_0_5c5790d523" y="146.269123"/>
    </g>
    <g clip-path="url(#p6ee4cbd618)">
     <use style="fill:#808080;fill-opacity:0.454414;stroke:#808080;stroke-opacity:0.454414;" x="286.285132" xlink:href="#C1_0_5c5790d523" y="253.863386"/>
    </g>
    <g clip-path="url(#p6ee4cbd618)">
     <use style="fill:#808080;fill-opacity:0.454425;stroke:#808080;stroke-opacity:0.454425;" x="256.425752" xlink:href="#C1_0_5c5790d523" y="149.051404"/>
    </g>
    <g clip-path="url(#p6ee4cbd618)">
     <use style="fill:#808080;fill-opacity:0.458651;stroke:#808080;stroke-opacity:0.458651;" x="297.163521" xlink:href="#C1_0_5c5790d523" y="228.22115"/>
    </g>
    <g clip-path="url(#p6ee4cbd618)">
     <use style="fill:#808080;fill-opacity:0.460395;stroke:#808080;stroke-opacity:0.460395;" x="279.966343" xlink:href="#C1_0_5c5790d523" y="202.228672"/>
    </g>
    <g clip-path="url(#p6ee4cbd618)">
     <use style="fill:#808080;fill-opacity:0.469026;stroke:#808080;stroke-opacity:0.469026;" x="193.805263" xlink:href="#C1_0_5c5790d523" y="229.594869"/>
    </g>
    <g clip-path="url(#p6ee4cbd618)">
     <use style="fill:#808080;fill-opacity:0.476196;stroke:#808080;stroke-opacity:0.476196;" x="237.915669" xlink:href="#C1_0_5c5790d523" y="125.438865"/>
    </g>
    <g clip-path="url(#p6ee4cbd618)">
     <use style="fill:#808080;fill-opacity:0.479381;stroke:#808080;stroke-opacity:0.479381;" x="203.430765" xlink:href="#C1_0_5c5790d523" y="152.104914"/>
    </g>
    <g clip-path="url(#p6ee4cbd618)">
     <use style="fill:#808080;fill-opacity:0.50121;stroke:#808080;stroke-opacity:0.50121;" x="316.02053" xlink:href="#C1_0_5c5790d523" y="233.856472"/>
    </g>
    <g clip-path="url(#p6ee4cbd618)">
     <use style="fill:#808080;fill-opacity:0.502422;stroke:#808080;stroke-opacity:0.502422;" x="280.098657" xlink:href="#C1_0_5c5790d523" y="286.745483"/>
    </g>
    <g clip-path="url(#p6ee4cbd618)">
     <use style="fill:#808080;fill-opacity:0.505919;stroke:#808080;stroke-opacity:0.505919;" x="265.111796" xlink:href="#C1_0_5c5790d523" y="260.855986"/>
    </g>
    <g clip-path="url(#p6ee4cbd618)">
     <use style="fill:#808080;fill-opacity:0.506424;stroke:#808080;stroke-opacity:0.506424;" x="234.193308" xlink:href="#C1_0_5c5790d523" y="155.41385"/>
    </g>
    <g clip-path="url(#p6ee4cbd618)">
     <use style="fill:#808080;fill-opacity:0.506973;stroke:#808080;stroke-opacity:0.506973;" x="277.877307" xlink:href="#C1_0_5c5790d523" y="129.101505"/>
    </g>
    <g clip-path="url(#p6ee4cbd618)">
     <use style="fill:#808080;fill-opacity:0.512607;stroke:#808080;stroke-opacity:0.512607;" x="193.581405" xlink:href="#C1_0_5c5790d523" y="156.170428"/>
    </g>
    <g clip-path="url(#p6ee4cbd618)">
     <use style="fill:#808080;fill-opacity:0.515568;stroke:#808080;stroke-opacity:0.515568;" x="244.694724" xlink:href="#C1_0_5c5790d523" y="156.532675"/>
    </g>
    <g clip-path="url(#p6ee4cbd618)">
     <use style="fill:#808080;fill-opacity:0.521322;stroke:#808080;stroke-opacity:0.521322;" x="195.170838" xlink:href="#C1_0_5c5790d523" y="210.091952"/>
    </g>
    <g clip-path="url(#p6ee4cbd618)">
     <use style="fill:#808080;fill-opacity:0.524214;stroke:#808080;stroke-opacity:0.524214;" x="304.059779" xlink:href="#C1_0_5c5790d523" y="236.902523"/>
    </g>
    <g clip-path="url(#p6ee4cbd618)">
     <use style="fill:#808080;fill-opacity:0.524935;stroke:#808080;stroke-opacity:0.524935;" x="309.081449" xlink:href="#C1_0_5c5790d523" y="263.437728"/>
    </g>
    <g clip-path="url(#p6ee4cbd618)">
     <use style="fill:#808080;fill-opacity:0.526269;stroke:#808080;stroke-opacity:0.526269;" x="203.073853" xlink:href="#C1_0_5c5790d523" y="131.397849"/>
    </g>
    <g clip-path="url(#p6ee4cbd618)">
     <use style="fill:#808080;fill-opacity:0.526488;stroke:#808080;stroke-opacity:0.526488;" x="302.44007" xlink:href="#C1_0_5c5790d523" y="263.648675"/>
    </g>
    <g clip-path="url(#p6ee4cbd618)">
     <use style="fill:#808080;fill-opacity:0.531159;stroke:#808080;stroke-opacity:0.531159;" x="228.628365" xlink:href="#C1_0_5c5790d523" y="131.979785"/>
    </g>
    <g clip-path="url(#p6ee4cbd618)">
     <use style="fill:#808080;fill-opacity:0.53183;stroke:#808080;stroke-opacity:0.53183;" x="249.419726" xlink:href="#C1_0_5c5790d523" y="158.522422"/>
    </g>
    <g clip-path="url(#p6ee4cbd618)">
     <use style="fill:#808080;fill-opacity:0.532954;stroke:#808080;stroke-opacity:0.532954;" x="275.059647" xlink:href="#C1_0_5c5790d523" y="264.526473"/>
    </g>
    <g clip-path="url(#p6ee4cbd618)">
     <use style="fill:#808080;fill-opacity:0.538012;stroke:#808080;stroke-opacity:0.538012;" x="250.702195" xlink:href="#C1_0_5c5790d523" y="238.729578"/>
    </g>
    <g clip-path="url(#p6ee4cbd618)">
     <use style="fill:#808080;fill-opacity:0.539254;stroke:#808080;stroke-opacity:0.539254;" x="254.380051" xlink:href="#C1_0_5c5790d523" y="132.943083"/>
    </g>
    <g clip-path="url(#p6ee4cbd618)">
     <use style="fill:#808080;fill-opacity:0.539273;stroke:#808080;stroke-opacity:0.539273;" x="243.188005" xlink:href="#C1_0_5c5790d523" y="132.945384"/>
    </g>
    <g clip-path="url(#p6ee4cbd618)">
     <use style="fill:#808080;fill-opacity:0.539368;stroke:#808080;stroke-opacity:0.539368;" x="274.522703" xlink:href="#C1_0_5c5790d523" y="212.421101"/>
    </g>
    <g clip-path="url(#p6ee4cbd618)">
     <use style="fill:#808080;fill-opacity:0.548959;stroke:#808080;stroke-opacity:0.548959;" x="260.937641" xlink:href="#C1_0_5c5790d523" y="134.098112"/>
    </g>
    <g clip-path="url(#p6ee4cbd618)">
     <use style="fill:#808080;fill-opacity:0.5501;stroke:#808080;stroke-opacity:0.5501;" x="270.964242" xlink:href="#C1_0_5c5790d523" y="240.330202"/>
    </g>
    <g clip-path="url(#p6ee4cbd618)">
     <use style="fill:#808080;fill-opacity:0.550912;stroke:#808080;stroke-opacity:0.550912;" x="272.854357" xlink:href="#C1_0_5c5790d523" y="266.964589"/>
    </g>
    <g clip-path="url(#p6ee4cbd618)">
     <use style="fill:#808080;fill-opacity:0.553231;stroke:#808080;stroke-opacity:0.553231;" x="307.860213" xlink:href="#C1_0_5c5790d523" y="214.210212"/>
    </g>
    <g clip-path="url(#p6ee4cbd618)">
     <use style="fill:#808080;fill-opacity:0.558679;stroke:#808080;stroke-opacity:0.558679;" x="217.79478" xlink:href="#C1_0_5c5790d523" y="135.254804"/>
    </g>
    <g clip-path="url(#p6ee4cbd618)">
     <use style="fill:#808080;fill-opacity:0.560841;stroke:#808080;stroke-opacity:0.560841;" x="297.75037" xlink:href="#C1_0_5c5790d523" y="215.192383"/>
    </g>
    <g clip-path="url(#p6ee4cbd618)">
     <use style="fill:#808080;fill-opacity:0.560998;stroke:#808080;stroke-opacity:0.560998;" x="248.705861" xlink:href="#C1_0_5c5790d523" y="188.651983"/>
    </g>
    <g clip-path="url(#p6ee4cbd618)">
     <use style="fill:#808080;fill-opacity:0.564094;stroke:#808080;stroke-opacity:0.564094;" x="171.874194" xlink:href="#C1_0_5c5790d523" y="162.470242"/>
    </g>
    <g clip-path="url(#p6ee4cbd618)">
     <use style="fill:#808080;fill-opacity:0.565568;stroke:#808080;stroke-opacity:0.565568;" x="244.189815" xlink:href="#C1_0_5c5790d523" y="136.07459"/>
    </g>
    <g clip-path="url(#p6ee4cbd618)">
     <use style="fill:#808080;fill-opacity:0.565966;stroke:#808080;stroke-opacity:0.565966;" x="189.88696" xlink:href="#C1_0_5c5790d523" y="162.699244"/>
    </g>
    <g clip-path="url(#p6ee4cbd618)">
     <use style="fill:#808080;fill-opacity:0.567588;stroke:#808080;stroke-opacity:0.567588;" x="285.59224" xlink:href="#C1_0_5c5790d523" y="216.063198"/>
    </g>
    <g clip-path="url(#p6ee4cbd618)">
     <use style="fill:#808080;fill-opacity:0.569186;stroke:#808080;stroke-opacity:0.569186;" x="152.355947" xlink:href="#C1_0_5c5790d523" y="269.44553"/>
    </g>
    <g clip-path="url(#p6ee4cbd618)">
     <use style="fill:#808080;fill-opacity:0.573022;stroke:#808080;stroke-opacity:0.573022;" x="163.184283" xlink:href="#C1_0_5c5790d523" y="163.562668"/>
    </g>
    <g clip-path="url(#p6ee4cbd618)">
     <use style="fill:#808080;fill-opacity:0.57379;stroke:#808080;stroke-opacity:0.57379;" x="246.467658" xlink:href="#C1_0_5c5790d523" y="216.863687"/>
    </g>
    <g clip-path="url(#p6ee4cbd618)">
     <use style="fill:#808080;fill-opacity:0.577618;stroke:#808080;stroke-opacity:0.577618;" x="174.431348" xlink:href="#C1_0_5c5790d523" y="137.508583"/>
    </g>
    <g clip-path="url(#p6ee4cbd618)">
     <use style="fill:#808080;fill-opacity:0.581367;stroke:#808080;stroke-opacity:0.581367;" x="290.494924" xlink:href="#C1_0_5c5790d523" y="217.841552"/>
    </g>
    <g clip-path="url(#p6ee4cbd618)">
     <use style="fill:#808080;fill-opacity:0.581621;stroke:#808080;stroke-opacity:0.581621;" x="250.268905" xlink:href="#C1_0_5c5790d523" y="137.985055"/>
    </g>
    <g clip-path="url(#p6ee4cbd618)">
     <use style="fill:#808080;fill-opacity:0.584093;stroke:#808080;stroke-opacity:0.584093;" x="190.646629" xlink:href="#C1_0_5c5790d523" y="138.279223"/>
    </g>
    <g clip-path="url(#p6ee4cbd618)">
     <use style="fill:#808080;fill-opacity:0.586745;stroke:#808080;stroke-opacity:0.586745;" x="256.250635" xlink:href="#C1_0_5c5790d523" y="138.594848"/>
    </g>
    <g clip-path="url(#p6ee4cbd618)">
     <use style="fill:#808080;fill-opacity:0.595703;stroke:#808080;stroke-opacity:0.595703;" x="179.037774" xlink:href="#C1_0_5c5790d523" y="139.660829"/>
    </g>
    <g clip-path="url(#p6ee4cbd618)">
     <use style="fill:#808080;fill-opacity:0.599998;stroke:#808080;stroke-opacity:0.599998;" x="308.246842" xlink:href="#C1_0_5c5790d523" y="220.246114"/>
    </g>
    <g clip-path="url(#p6ee4cbd618)">
     <use style="fill:#808080;fill-opacity:0.601239;stroke:#808080;stroke-opacity:0.601239;" x="214.650882" xlink:href="#C1_0_5c5790d523" y="140.31965"/>
    </g>
    <g clip-path="url(#p6ee4cbd618)">
     <use style="fill:#808080;fill-opacity:0.603176;stroke:#808080;stroke-opacity:0.603176;" x="162.268855" xlink:href="#C1_0_5c5790d523" y="140.550121"/>
    </g>
    <g clip-path="url(#p6ee4cbd618)">
     <use style="fill:#808080;fill-opacity:0.604849;stroke:#808080;stroke-opacity:0.604849;" x="211.384541" xlink:href="#C1_0_5c5790d523" y="167.456849"/>
    </g>
    <g clip-path="url(#p6ee4cbd618)">
     <use style="fill:#808080;fill-opacity:0.605722;stroke:#808080;stroke-opacity:0.605722;" x="243.931237" xlink:href="#C1_0_5c5790d523" y="220.984802"/>
    </g>
    <g clip-path="url(#p6ee4cbd618)">
     <use style="fill:#808080;fill-opacity:0.606675;stroke:#808080;stroke-opacity:0.606675;" x="272.442298" xlink:href="#C1_0_5c5790d523" y="221.107849"/>
    </g>
    <g clip-path="url(#p6ee4cbd618)">
     <use style="fill:#808080;fill-opacity:0.60696;stroke:#808080;stroke-opacity:0.60696;" x="254.135293" xlink:href="#C1_0_5c5790d523" y="221.144671"/>
    </g>
    <g clip-path="url(#p6ee4cbd618)">
     <use style="fill:#808080;fill-opacity:0.608677;stroke:#808080;stroke-opacity:0.608677;" x="209.208934" xlink:href="#C1_0_5c5790d523" y="141.204872"/>
    </g>
    <g clip-path="url(#p6ee4cbd618)">
     <use style="fill:#808080;fill-opacity:0.609351;stroke:#808080;stroke-opacity:0.609351;" x="168.457642" xlink:href="#C1_0_5c5790d523" y="141.285053"/>
    </g>
    <g clip-path="url(#p6ee4cbd618)">
     <use style="fill:#808080;fill-opacity:0.610312;stroke:#808080;stroke-opacity:0.610312;" x="259.093647" xlink:href="#C1_0_5c5790d523" y="168.12534"/>
    </g>
    <g clip-path="url(#p6ee4cbd618)">
     <use style="fill:#808080;fill-opacity:0.612191;stroke:#808080;stroke-opacity:0.612191;" x="147.629006" xlink:href="#C1_0_5c5790d523" y="248.551962"/>
    </g>
    <g clip-path="url(#p6ee4cbd618)">
     <use style="fill:#808080;fill-opacity:0.614135;stroke:#808080;stroke-opacity:0.614135;" x="249.145681" xlink:href="#C1_0_5c5790d523" y="168.593164"/>
    </g>
    <g clip-path="url(#p6ee4cbd618)">
     <use style="fill:#808080;fill-opacity:0.617689;stroke:#808080;stroke-opacity:0.617689;" x="245.26911" xlink:href="#C1_0_5c5790d523" y="169.028008"/>
    </g>
    <g clip-path="url(#p6ee4cbd618)">
     <use style="fill:#808080;fill-opacity:0.618953;stroke:#808080;stroke-opacity:0.618953;" x="188.546847" xlink:href="#C1_0_5c5790d523" y="142.427743"/>
    </g>
    <g clip-path="url(#p6ee4cbd618)">
     <use style="fill:#808080;fill-opacity:0.620294;stroke:#808080;stroke-opacity:0.620294;" x="232.51784" xlink:href="#C1_0_5c5790d523" y="142.587275"/>
    </g>
    <g clip-path="url(#p6ee4cbd618)">
     <use style="fill:#808080;fill-opacity:0.621206;stroke:#808080;stroke-opacity:0.621206;" x="275.805363" xlink:href="#C1_0_5c5790d523" y="142.695811"/>
    </g>
    <g clip-path="url(#p6ee4cbd618)">
     <use style="fill:#808080;fill-opacity:0.621635;stroke:#808080;stroke-opacity:0.621635;" x="234.307306" xlink:href="#C1_0_5c5790d523" y="169.510755"/>
    </g>
    <g clip-path="url(#p6ee4cbd618)">
     <use style="fill:#808080;fill-opacity:0.622232;stroke:#808080;stroke-opacity:0.622232;" x="224.078755" xlink:href="#C1_0_5c5790d523" y="169.583878"/>
    </g>
    <g clip-path="url(#p6ee4cbd618)">
     <use style="fill:#808080;fill-opacity:0.623293;stroke:#808080;stroke-opacity:0.623293;" x="163.534428" xlink:href="#C1_0_5c5790d523" y="142.944182"/>
    </g>
    <g clip-path="url(#p6ee4cbd618)">
     <use style="fill:#808080;fill-opacity:0.627135;stroke:#808080;stroke-opacity:0.627135;" x="154.295795" xlink:href="#C1_0_5c5790d523" y="250.53075"/>
    </g>
    <g clip-path="url(#p6ee4cbd618)">
     <use style="fill:#808080;fill-opacity:0.633585;stroke:#808080;stroke-opacity:0.633585;" x="187.189525" xlink:href="#C1_0_5c5790d523" y="144.169031"/>
    </g>
    <g clip-path="url(#p6ee4cbd618)">
     <use style="fill:#808080;fill-opacity:0.637881;stroke:#808080;stroke-opacity:0.637881;" x="157.647357" xlink:href="#C1_0_5c5790d523" y="171.498574"/>
    </g>
    <g clip-path="url(#p6ee4cbd618)">
     <use style="fill:#808080;fill-opacity:0.641759;stroke:#808080;stroke-opacity:0.641759;" x="177.868422" xlink:href="#C1_0_5c5790d523" y="171.973088"/>
    </g>
    <g clip-path="url(#p6ee4cbd618)">
     <use style="fill:#808080;fill-opacity:0.648617;stroke:#808080;stroke-opacity:0.648617;" x="266.954701" xlink:href="#C1_0_5c5790d523" y="145.95791"/>
    </g>
    <g clip-path="url(#p6ee4cbd618)">
     <use style="fill:#808080;fill-opacity:0.64994;stroke:#808080;stroke-opacity:0.64994;" x="178.869318" xlink:href="#C1_0_5c5790d523" y="172.974102"/>
    </g>
    <g clip-path="url(#p6ee4cbd618)">
     <use style="fill:#808080;fill-opacity:0.651676;stroke:#808080;stroke-opacity:0.651676;" x="231.435889" xlink:href="#C1_0_5c5790d523" y="200.051085"/>
    </g>
    <g clip-path="url(#p6ee4cbd618)">
     <use style="fill:#808080;fill-opacity:0.65177;stroke:#808080;stroke-opacity:0.65177;" x="258.306058" xlink:href="#C1_0_5c5790d523" y="200.062926"/>
    </g>
    <g clip-path="url(#p6ee4cbd618)">
     <use style="fill:#808080;fill-opacity:0.651772;stroke:#808080;stroke-opacity:0.651772;" x="151.494185" xlink:href="#C1_0_5c5790d523" y="253.79314"/>
    </g>
    <g clip-path="url(#p6ee4cbd618)">
     <use style="fill:#808080;fill-opacity:0.654807;stroke:#808080;stroke-opacity:0.654807;" x="182.427693" xlink:href="#C1_0_5c5790d523" y="254.194934"/>
    </g>
    <g clip-path="url(#p6ee4cbd618)">
     <use style="fill:#808080;fill-opacity:0.656344;stroke:#808080;stroke-opacity:0.656344;" x="169.373235" xlink:href="#C1_0_5c5790d523" y="146.877434"/>
    </g>
    <g clip-path="url(#p6ee4cbd618)">
     <use style="fill:#808080;fill-opacity:0.656995;stroke:#808080;stroke-opacity:0.656995;" x="163.359799" xlink:href="#C1_0_5c5790d523" y="146.954952"/>
    </g>
    <g clip-path="url(#p6ee4cbd618)">
     <use style="fill:#808080;fill-opacity:0.657879;stroke:#808080;stroke-opacity:0.657879;" x="203.860877" xlink:href="#C1_0_5c5790d523" y="173.94552"/>
    </g>
    <g clip-path="url(#p6ee4cbd618)">
     <use style="fill:#808080;fill-opacity:0.659319;stroke:#808080;stroke-opacity:0.659319;" x="265.600389" xlink:href="#C1_0_5c5790d523" y="174.121707"/>
    </g>
    <g clip-path="url(#p6ee4cbd618)">
     <use style="fill:#808080;fill-opacity:0.662807;stroke:#808080;stroke-opacity:0.662807;" x="211.037808" xlink:href="#C1_0_5c5790d523" y="147.646538"/>
    </g>
    <g clip-path="url(#p6ee4cbd618)">
     <use style="fill:#808080;fill-opacity:0.664611;stroke:#808080;stroke-opacity:0.664611;" x="264.512365" xlink:href="#C1_0_5c5790d523" y="147.861261"/>
    </g>
    <g clip-path="url(#p6ee4cbd618)">
     <use style="fill:#808080;fill-opacity:0.666569;stroke:#808080;stroke-opacity:0.666569;" x="205.949663" xlink:href="#C1_0_5c5790d523" y="148.094269"/>
    </g>
    <g clip-path="url(#p6ee4cbd618)">
     <use style="fill:#808080;fill-opacity:0.667999;stroke:#808080;stroke-opacity:0.667999;" x="154.951112" xlink:href="#C1_0_5c5790d523" y="148.264399"/>
    </g>
    <g clip-path="url(#p6ee4cbd618)">
     <use style="fill:#808080;fill-opacity:0.670756;stroke:#808080;stroke-opacity:0.670756;" x="179.439423" xlink:href="#C1_0_5c5790d523" y="148.592531"/>
    </g>
    <g clip-path="url(#p6ee4cbd618)">
     <use style="fill:#808080;fill-opacity:0.673452;stroke:#808080;stroke-opacity:0.673452;" x="260.927272" xlink:href="#C1_0_5c5790d523" y="148.913411"/>
    </g>
    <g clip-path="url(#p6ee4cbd618)">
     <use style="fill:#808080;fill-opacity:0.674016;stroke:#808080;stroke-opacity:0.674016;" x="169.648628" xlink:href="#C1_0_5c5790d523" y="175.920008"/>
    </g>
    <g clip-path="url(#p6ee4cbd618)">
     <use style="fill:#808080;fill-opacity:0.675868;stroke:#808080;stroke-opacity:0.675868;" x="225.920521" xlink:href="#C1_0_5c5790d523" y="149.200876"/>
    </g>
    <g clip-path="url(#p6ee4cbd618)">
     <use style="fill:#808080;fill-opacity:0.682447;stroke:#808080;stroke-opacity:0.682447;" x="171.7991" xlink:href="#C1_0_5c5790d523" y="149.983783"/>
    </g>
    <g clip-path="url(#p6ee4cbd618)">
     <use style="fill:#808080;fill-opacity:0.682745;stroke:#808080;stroke-opacity:0.682745;" x="193.650262" xlink:href="#C1_0_5c5790d523" y="176.98809"/>
    </g>
    <g clip-path="url(#p6ee4cbd618)">
     <use style="fill:#808080;fill-opacity:0.687098;stroke:#808080;stroke-opacity:0.687098;" x="175.078462" xlink:href="#C1_0_5c5790d523" y="150.5373"/>
    </g>
    <g clip-path="url(#p6ee4cbd618)">
     <use style="fill:#808080;fill-opacity:0.687956;stroke:#808080;stroke-opacity:0.687956;" x="162.791769" xlink:href="#C1_0_5c5790d523" y="177.625657"/>
    </g>
    <g clip-path="url(#p6ee4cbd618)">
     <use style="fill:#808080;fill-opacity:0.69351;stroke:#808080;stroke-opacity:0.69351;" x="191.520753" xlink:href="#C1_0_5c5790d523" y="205.310067"/>
    </g>
    <g clip-path="url(#p6ee4cbd618)">
     <use style="fill:#808080;fill-opacity:0.699318;stroke:#808080;stroke-opacity:0.699318;" x="215.641189" xlink:href="#C1_0_5c5790d523" y="151.991629"/>
    </g>
    <g clip-path="url(#p6ee4cbd618)">
     <use style="fill:#808080;fill-opacity:0.700296;stroke:#808080;stroke-opacity:0.700296;" x="222.623014" xlink:href="#C1_0_5c5790d523" y="179.13551"/>
    </g>
    <g clip-path="url(#p6ee4cbd618)">
     <use style="fill:#808080;fill-opacity:0.703858;stroke:#808080;stroke-opacity:0.703858;" x="230.871194" xlink:href="#C1_0_5c5790d523" y="179.571432"/>
    </g>
    <g clip-path="url(#p6ee4cbd618)">
     <use style="fill:#808080;fill-opacity:0.704782;stroke:#808080;stroke-opacity:0.704782;" x="254.553773" xlink:href="#C1_0_5c5790d523" y="179.684418"/>
    </g>
    <g clip-path="url(#p6ee4cbd618)">
     <use style="fill:#808080;fill-opacity:0.705308;stroke:#808080;stroke-opacity:0.705308;" x="187.458727" xlink:href="#C1_0_5c5790d523" y="179.748831"/>
    </g>
    <g clip-path="url(#p6ee4cbd618)">
     <use style="fill:#808080;fill-opacity:0.705546;stroke:#808080;stroke-opacity:0.705546;" x="158.351596" xlink:href="#C1_0_5c5790d523" y="179.777946"/>
    </g>
    <g clip-path="url(#p6ee4cbd618)">
     <use style="fill:#808080;fill-opacity:0.708684;stroke:#808080;stroke-opacity:0.708684;" x="180.131327" xlink:href="#C1_0_5c5790d523" y="153.106194"/>
    </g>
    <g clip-path="url(#p6ee4cbd618)">
     <use style="fill:#808080;fill-opacity:0.709863;stroke:#808080;stroke-opacity:0.709863;" x="228.164821" xlink:href="#C1_0_5c5790d523" y="207.365854"/>
    </g>
    <g clip-path="url(#p6ee4cbd618)">
     <use style="fill:#808080;fill-opacity:0.712877;stroke:#808080;stroke-opacity:0.712877;" x="264.33064" xlink:href="#C1_0_5c5790d523" y="207.744651"/>
    </g>
    <g clip-path="url(#p6ee4cbd618)">
     <use style="fill:#808080;fill-opacity:0.7209;stroke:#808080;stroke-opacity:0.7209;" x="269.62872" xlink:href="#C1_0_5c5790d523" y="208.753294"/>
    </g>
    <g clip-path="url(#p6ee4cbd618)">
     <use style="fill:#808080;fill-opacity:0.723794;stroke:#808080;stroke-opacity:0.723794;" x="267.693042" xlink:href="#C1_0_5c5790d523" y="154.904359"/>
    </g>
    <g clip-path="url(#p6ee4cbd618)">
     <use style="fill:#808080;fill-opacity:0.724325;stroke:#808080;stroke-opacity:0.724325;" x="197.685781" xlink:href="#C1_0_5c5790d523" y="182.075668"/>
    </g>
    <g clip-path="url(#p6ee4cbd618)">
     <use style="fill:#808080;fill-opacity:0.726767;stroke:#808080;stroke-opacity:0.726767;" x="181.761661" xlink:href="#C1_0_5c5790d523" y="182.3745"/>
    </g>
    <g clip-path="url(#p6ee4cbd618)">
     <use style="fill:#808080;fill-opacity:0.732898;stroke:#808080;stroke-opacity:0.732898;" x="220.217024" xlink:href="#C1_0_5c5790d523" y="183.124626"/>
    </g>
    <g clip-path="url(#p6ee4cbd618)">
     <use style="fill:#808080;fill-opacity:0.737121;stroke:#808080;stroke-opacity:0.737121;" x="207.569469" xlink:href="#C1_0_5c5790d523" y="156.490287"/>
    </g>
    <g clip-path="url(#p6ee4cbd618)">
     <use style="fill:#808080;fill-opacity:0.739139;stroke:#808080;stroke-opacity:0.739139;" x="219.485699" xlink:href="#C1_0_5c5790d523" y="211.046077"/>
    </g>
    <g clip-path="url(#p6ee4cbd618)">
     <use style="fill:#808080;fill-opacity:0.739185;stroke:#808080;stroke-opacity:0.739185;" x="189.008314" xlink:href="#C1_0_5c5790d523" y="156.735974"/>
    </g>
    <g clip-path="url(#p6ee4cbd618)">
     <use style="fill:#808080;fill-opacity:0.746365;stroke:#808080;stroke-opacity:0.746365;" x="162.031321" xlink:href="#C1_0_5c5790d523" y="157.590373"/>
    </g>
    <g clip-path="url(#p6ee4cbd618)">
     <use style="fill:#808080;fill-opacity:0.749866;stroke:#808080;stroke-opacity:0.749866;" x="248.485218" xlink:href="#C1_0_5c5790d523" y="158.007023"/>
    </g>
    <g clip-path="url(#p6ee4cbd618)">
     <use style="fill:#808080;fill-opacity:0.75945;stroke:#808080;stroke-opacity:0.75945;" x="187.86495" xlink:href="#C1_0_5c5790d523" y="159.147586"/>
    </g>
    <g clip-path="url(#p6ee4cbd618)">
     <use style="fill:#808080;fill-opacity:0.760291;stroke:#808080;stroke-opacity:0.760291;" x="157.001093" xlink:href="#C1_0_5c5790d523" y="159.24772"/>
    </g>
    <g clip-path="url(#p6ee4cbd618)">
     <use style="fill:#808080;fill-opacity:0.761543;stroke:#808080;stroke-opacity:0.761543;" x="228.009846" xlink:href="#C1_0_5c5790d523" y="186.629555"/>
    </g>
    <g clip-path="url(#p6ee4cbd618)">
     <use style="fill:#808080;fill-opacity:0.766526;stroke:#808080;stroke-opacity:0.766526;" x="175.06841" xlink:href="#C1_0_5c5790d523" y="159.989669"/>
    </g>
    <g clip-path="url(#p6ee4cbd618)">
     <use style="fill:#808080;fill-opacity:0.766657;stroke:#808080;stroke-opacity:0.766657;" x="225.089371" xlink:href="#C1_0_5c5790d523" y="187.25533"/>
    </g>
    <g clip-path="url(#p6ee4cbd618)">
     <use style="fill:#808080;fill-opacity:0.766798;stroke:#808080;stroke-opacity:0.766798;" x="204.594214" xlink:href="#C1_0_5c5790d523" y="160.02208"/>
    </g>
    <g clip-path="url(#p6ee4cbd618)">
     <use style="fill:#808080;fill-opacity:0.768407;stroke:#808080;stroke-opacity:0.768407;" x="269.698586" xlink:href="#C1_0_5c5790d523" y="187.469493"/>
    </g>
    <g clip-path="url(#p6ee4cbd618)">
     <use style="fill:#808080;fill-opacity:0.769632;stroke:#808080;stroke-opacity:0.769632;" x="177.375161" xlink:href="#C1_0_5c5790d523" y="160.359345"/>
    </g>
    <g clip-path="url(#p6ee4cbd618)">
     <use style="fill:#808080;fill-opacity:0.77524;stroke:#808080;stroke-opacity:0.77524;" x="268.22762" xlink:href="#C1_0_5c5790d523" y="161.026696"/>
    </g>
    <g clip-path="url(#p6ee4cbd618)">
     <use style="fill:#808080;fill-opacity:0.788659;stroke:#808080;stroke-opacity:0.788659;" x="220.040472" xlink:href="#C1_0_5c5790d523" y="189.947428"/>
    </g>
    <g clip-path="url(#p6ee4cbd618)">
     <use style="fill:#808080;fill-opacity:0.789268;stroke:#808080;stroke-opacity:0.789268;" x="223.998909" xlink:href="#C1_0_5c5790d523" y="162.696143"/>
    </g>
    <g clip-path="url(#p6ee4cbd618)">
     <use style="fill:#808080;fill-opacity:0.792516;stroke:#808080;stroke-opacity:0.792516;" x="152.789675" xlink:href="#C1_0_5c5790d523" y="163.082684"/>
    </g>
    <g clip-path="url(#p6ee4cbd618)">
     <use style="fill:#808080;fill-opacity:0.802555;stroke:#808080;stroke-opacity:0.802555;" x="232.976348" xlink:href="#C1_0_5c5790d523" y="164.277357"/>
    </g>
    <g clip-path="url(#p6ee4cbd618)">
     <use style="fill:#808080;fill-opacity:0.82028;stroke:#808080;stroke-opacity:0.82028;" x="265.908384" xlink:href="#C1_0_5c5790d523" y="166.38674"/>
    </g>
    <g clip-path="url(#p6ee4cbd618)">
     <use style="fill:#808080;fill-opacity:0.825251;stroke:#808080;stroke-opacity:0.825251;" x="229.833875" xlink:href="#C1_0_5c5790d523" y="166.978262"/>
    </g>
    <g clip-path="url(#p6ee4cbd618)">
     <use style="fill:#808080;fill-opacity:0.827599;stroke:#808080;stroke-opacity:0.827599;" x="188.185374" xlink:href="#C1_0_5c5790d523" y="167.257675"/>
    </g>
    <g clip-path="url(#p6ee4cbd618)">
     <use style="fill:#808080;fill-opacity:0.832696;stroke:#808080;stroke-opacity:0.832696;" x="182.489709" xlink:href="#C1_0_5c5790d523" y="195.335746"/>
    </g>
    <g clip-path="url(#p6ee4cbd618)">
     <use style="fill:#808080;fill-opacity:0.836093;stroke:#808080;stroke-opacity:0.836093;" x="199.448594" xlink:href="#C1_0_5c5790d523" y="195.751332"/>
    </g>
    <g clip-path="url(#p6ee4cbd618)">
     <use style="fill:#808080;fill-opacity:0.836228;stroke:#808080;stroke-opacity:0.836228;" x="279.968917" xlink:href="#C1_0_5c5790d523" y="168.284596"/>
    </g>
    <g clip-path="url(#p6ee4cbd618)">
     <use style="fill:#808080;fill-opacity:0.840296;stroke:#808080;stroke-opacity:0.840296;" x="218.58212" xlink:href="#C1_0_5c5790d523" y="196.265568"/>
    </g>
    <g clip-path="url(#p6ee4cbd618)">
     <use style="fill:#808080;fill-opacity:0.841603;stroke:#808080;stroke-opacity:0.841603;" x="228.985928" xlink:href="#C1_0_5c5790d523" y="196.425497"/>
    </g>
    <g clip-path="url(#p6ee4cbd618)">
     <use style="fill:#808080;fill-opacity:0.844353;stroke:#808080;stroke-opacity:0.844353;" x="233.079157" xlink:href="#C1_0_5c5790d523" y="196.761982"/>
    </g>
    <g clip-path="url(#p6ee4cbd618)">
     <use style="fill:#808080;fill-opacity:0.85758;stroke:#808080;stroke-opacity:0.85758;" x="232.10566" xlink:href="#C1_0_5c5790d523" y="170.825573"/>
    </g>
    <g clip-path="url(#p6ee4cbd618)">
     <use style="fill:#808080;fill-opacity:0.86938;stroke:#808080;stroke-opacity:0.86938;" x="200.359492" xlink:href="#C1_0_5c5790d523" y="172.229881"/>
    </g>
    <g clip-path="url(#p6ee4cbd618)">
     <use style="fill:#808080;fill-opacity:0.871615;stroke:#808080;stroke-opacity:0.871615;" x="252.214239" xlink:href="#C1_0_5c5790d523" y="172.495777"/>
    </g>
    <g clip-path="url(#p6ee4cbd618)">
     <use style="fill:#808080;fill-opacity:0.873685;stroke:#808080;stroke-opacity:0.873685;" x="234.433943" xlink:href="#C1_0_5c5790d523" y="172.742178"/>
    </g>
    <g clip-path="url(#p6ee4cbd618)">
     <use style="fill:#808080;fill-opacity:0.87548;stroke:#808080;stroke-opacity:0.87548;" x="265.86941" xlink:href="#C1_0_5c5790d523" y="172.955734"/>
    </g>
    <g clip-path="url(#p6ee4cbd618)">
     <use style="fill:#808080;fill-opacity:0.879303;stroke:#808080;stroke-opacity:0.879303;" x="206.297823" xlink:href="#C1_0_5c5790d523" y="173.410687"/>
    </g>
    <g clip-path="url(#p6ee4cbd618)">
     <use style="fill:#808080;fill-opacity:0.881797;stroke:#808080;stroke-opacity:0.881797;" x="210.510241" xlink:href="#C1_0_5c5790d523" y="201.343559"/>
    </g>
    <g clip-path="url(#p6ee4cbd618)">
     <use style="fill:#808080;fill-opacity:0.882529;stroke:#808080;stroke-opacity:0.882529;" x="222.963479" xlink:href="#C1_0_5c5790d523" y="173.79469"/>
    </g>
    <g clip-path="url(#p6ee4cbd618)">
     <use style="fill:#808080;fill-opacity:0.883299;stroke:#808080;stroke-opacity:0.883299;" x="171.073381" xlink:href="#C1_0_5c5790d523" y="173.88632"/>
    </g>
    <g clip-path="url(#p6ee4cbd618)">
     <use style="fill:#808080;fill-opacity:0.893171;stroke:#808080;stroke-opacity:0.893171;" x="201.456078" xlink:href="#C1_0_5c5790d523" y="202.735307"/>
    </g>
    <g clip-path="url(#p6ee4cbd618)">
     <use style="fill:#808080;fill-opacity:0.89812;stroke:#808080;stroke-opacity:0.89812;" x="186.354741" xlink:href="#C1_0_5c5790d523" y="175.65004"/>
    </g>
    <g clip-path="url(#p6ee4cbd618)">
     <use style="fill:#808080;fill-opacity:0.910038;stroke:#808080;stroke-opacity:0.910038;" x="250.601881" xlink:href="#C1_0_5c5790d523" y="177.068312"/>
    </g>
    <g clip-path="url(#p6ee4cbd618)">
     <use style="fill:#808080;fill-opacity:0.910804;stroke:#808080;stroke-opacity:0.910804;" x="174.516466" xlink:href="#C1_0_5c5790d523" y="177.15951"/>
    </g>
    <g clip-path="url(#p6ee4cbd618)">
     <use style="fill:#808080;fill-opacity:0.914049;stroke:#808080;stroke-opacity:0.914049;" x="211.957406" xlink:href="#C1_0_5c5790d523" y="177.545678"/>
    </g>
    <g clip-path="url(#p6ee4cbd618)">
     <use style="fill:#808080;fill-opacity:0.928299;stroke:#808080;stroke-opacity:0.928299;" x="228.770863" xlink:href="#C1_0_5c5790d523" y="179.241584"/>
    </g>
    <g clip-path="url(#p6ee4cbd618)">
     <use style="fill:#808080;fill-opacity:0.932836;stroke:#808080;stroke-opacity:0.932836;" x="205.42444" xlink:href="#C1_0_5c5790d523" y="179.781499"/>
    </g>
    <g clip-path="url(#p6ee4cbd618)">
     <use style="fill:#808080;fill-opacity:0.933249;stroke:#808080;stroke-opacity:0.933249;" x="215.715546" xlink:href="#C1_0_5c5790d523" y="179.830555"/>
    </g>
    <g clip-path="url(#p6ee4cbd618)">
     <use style="fill:#808080;fill-opacity:0.933758;stroke:#808080;stroke-opacity:0.933758;" x="236.204778" xlink:href="#C1_0_5c5790d523" y="179.891227"/>
    </g>
    <g clip-path="url(#p6ee4cbd618)">
     <use style="fill:#808080;fill-opacity:0.938736;stroke:#808080;stroke-opacity:0.938736;" x="238.856538" xlink:href="#C1_0_5c5790d523" y="180.483551"/>
    </g>
    <g clip-path="url(#p6ee4cbd618)">
     <use style="fill:#808080;fill-opacity:0.975648;stroke:#808080;stroke-opacity:0.975648;" x="186.558323" xlink:href="#C1_0_5c5790d523" y="184.876324"/>
    </g>
    <g clip-path="url(#p6ee4cbd618)">
     <use style="fill:#808080;fill-opacity:0.993129;stroke:#808080;stroke-opacity:0.993129;" x="205.919798" xlink:href="#C1_0_5c5790d523" y="186.956581"/>
    </g>
    <g clip-path="url(#p6ee4cbd618)">
     <use style="fill:#808080;fill-opacity:0.997754;stroke:#808080;stroke-opacity:0.997754;" x="190.169254" xlink:href="#C1_0_5c5790d523" y="187.507028"/>
    </g>
    <g clip-path="url(#p6ee4cbd618)">
     <use style="fill:#808080;stroke:#808080;" x="183.20958" xlink:href="#C1_0_5c5790d523" y="187.774322"/>
    </g>
   </g>
   <g id="legend_1">
    <g id="patch_6">
     <path d="M 314.455 74.518125 
L 377.48 74.518125 
Q 379.48 74.518125 379.48 72.518125 
L 379.48 58.84 
Q 379.48 56.84 377.48 56.84 
L 314.455 56.84 
Q 312.455 56.84 312.455 58.84 
L 312.455 72.518125 
Q 312.455 74.518125 314.455 74.518125 
z
" style="fill:#ffffff;opacity:0.8;stroke:#cccccc;stroke-linejoin:miter;"/>
    </g>
    <g id="Path3DCollection_3">
     <defs>
      <path d="M 0 5 
C 1.326016 5 2.597899 4.473168 3.535534 3.535534 
C 4.473168 2.597899 5 1.326016 5 0 
C 5 -1.326016 4.473168 -2.597899 3.535534 -3.535534 
C 2.597899 -4.473168 1.326016 -5 0 -5 
C -1.326016 -5 -2.597899 -4.473168 -3.535534 -3.535534 
C -4.473168 -2.597899 -5 -1.326016 -5 0 
C -5 1.326016 -4.473168 2.597899 -3.535534 3.535534 
C -2.597899 4.473168 -1.326016 5 0 5 
z
" id="m5dee033495" style="stroke:#ff0000;"/>
     </defs>
     <g>
      <use style="fill:#ff0000;stroke:#ff0000;" x="326.455" xlink:href="#m5dee033495" y="65.813438"/>
     </g>
    </g>
    <g id="text_2">
     <!-- Timp3 -->
     <g transform="translate(344.455 68.438438)scale(0.1 -0.1)">
      <use xlink:href="#DejaVuSans-84"/>
      <use x="57.958984" xlink:href="#DejaVuSans-105"/>
      <use x="85.742188" xlink:href="#DejaVuSans-109"/>
      <use x="183.154297" xlink:href="#DejaVuSans-112"/>
      <use x="246.630859" xlink:href="#DejaVuSans-51"/>
     </g>
    </g>
   </g>
  </g>
 </g>
 <defs>
  <clipPath id="p6ee4cbd618">
   <rect height="326.16" width="326.16" x="58.32" y="51.84"/>
  </clipPath>
 </defs>
</svg>
