<?xml version="1.0" encoding="utf-8" standalone="no"?>
<!DOCTYPE svg PUBLIC "-//W3C//DTD SVG 1.1//EN"
  "http://www.w3.org/Graphics/SVG/1.1/DTD/svg11.dtd">
<!-- Created with matplotlib (https://matplotlib.org/) -->
<svg height="720pt" version="1.1" viewBox="0 0 1440 720" width="1440pt" xmlns="http://www.w3.org/2000/svg" xmlns:xlink="http://www.w3.org/1999/xlink">
 <metadata>
  <rdf:RDF xmlns:cc="http://creativecommons.org/ns#" xmlns:dc="http://purl.org/dc/elements/1.1/" xmlns:rdf="http://www.w3.org/1999/02/22-rdf-syntax-ns#">
   <cc:Work>
    <dc:type rdf:resource="http://purl.org/dc/dcmitype/StillImage"/>
    <dc:date>2022-03-23T21:24:10.848605</dc:date>
    <dc:format>image/svg+xml</dc:format>
    <dc:creator>
     <cc:Agent>
      <dc:title>Matplotlib v3.3.3, https://matplotlib.org/</dc:title>
     </cc:Agent>
    </dc:creator>
   </cc:Work>
  </rdf:RDF>
 </metadata>
 <defs>
  <style type="text/css">*{stroke-linecap:butt;stroke-linejoin:round;}</style>
 </defs>
 <g id="figure_1">
  <g id="patch_1">
   <path d="M 0 720 
L 1440 720 
L 1440 0 
L 0 0 
z
" style="fill:none;"/>
  </g>
  <g id="axes_1">
   <g id="patch_2">
    <path d="M 180 358.2 
L 459 358.2 
L 459 86.4 
L 180 86.4 
z
" style="fill:#ffffff;"/>
   </g>
   <g id="PathCollection_1">
    <defs>
     <path d="M 0 3 
C 0.795609 3 1.55874 2.683901 2.12132 2.12132 
C 2.683901 1.55874 3 0.795609 3 -0 
C 3 -0.795609 2.683901 -1.55874 2.12132 -2.12132 
C 1.55874 -2.683901 0.795609 -3 0 -3 
C -0.795609 -3 -1.55874 -2.683901 -2.12132 -2.12132 
C -2.683901 -1.55874 -3 -0.795609 -3 0 
C -3 0.795609 -2.683901 1.55874 -2.12132 2.12132 
C -1.55874 2.683901 -0.795609 3 0 3 
z
" id="C0_0_ef079ba2e9"/>
    </defs>
    <g clip-path="url(#p107ac501e5)">
     <use style="fill:#808080;fill-opacity:0.8;stroke:#808080;stroke-opacity:0.8;" x="307.842044" xlink:href="#C0_0_ef079ba2e9" y="291.35039"/>
    </g>
    <g clip-path="url(#p107ac501e5)">
     <use style="fill:#808080;fill-opacity:0.8;stroke:#808080;stroke-opacity:0.8;" x="340.236091" xlink:href="#C0_0_ef079ba2e9" y="287.586883"/>
    </g>
    <g clip-path="url(#p107ac501e5)">
     <use style="fill:#808080;fill-opacity:0.8;stroke:#808080;stroke-opacity:0.8;" x="345.745498" xlink:href="#C0_0_ef079ba2e9" y="280.144868"/>
    </g>
    <g clip-path="url(#p107ac501e5)">
     <use style="fill:#808080;fill-opacity:0.8;stroke:#808080;stroke-opacity:0.8;" x="390.866442" xlink:href="#C0_0_ef079ba2e9" y="254.069482"/>
    </g>
    <g clip-path="url(#p107ac501e5)">
     <use style="fill:#808080;fill-opacity:0.8;stroke:#808080;stroke-opacity:0.8;" x="269.503196" xlink:href="#C0_0_ef079ba2e9" y="226.114704"/>
    </g>
    <g clip-path="url(#p107ac501e5)">
     <use style="fill:#808080;fill-opacity:0.8;stroke:#808080;stroke-opacity:0.8;" x="207.215826" xlink:href="#C0_0_ef079ba2e9" y="121.888715"/>
    </g>
   </g>
   <g id="PathCollection_2"/>
   <g id="patch_3">
    <path clip-path="url(#p107ac501e5)" d="M 410.54848 222.171913 
L 408.327786 230.113289 
L 404.290159 237.798492 
L 398.435601 245.227521 
L 394.196093 250.607163 
L 388.341534 258.036192 
L 382.285094 263.159661 
L 376.228654 268.283129 
L 369.970333 271.101037 
L 360.078148 273.406598 
L 353.819826 276.224505 
L 345.946454 281.0918 
L 341.706946 286.471442 
L 335.852388 293.900471 
L 333.631693 301.841847 
L 329.795948 311.832611 
L 327.777135 322.079548 
L 327.777135 334.888219 
L 329.594067 342.829595 
L 319.5 342.829595 
L 311.626628 347.69689 
L 305.570188 352.820358 
L 299.513748 357.943827 
L 291.236614 358.2 
L 281.142547 358.2 
L 271.04848 358.2 
L 260.954414 358.2 
L 250.860347 358.2 
L 240.766281 358.2 
L 230.672214 358.2 
L 224.615774 357.687653 
L 228.45152 347.69689 
L 232.489146 340.011687 
L 234.507959 329.76475 
L 236.526773 319.517813 
L 234.507959 309.270877 
L 234.507959 296.462205 
L 234.507959 283.653534 
L 234.507959 270.844863 
L 232.489146 260.597926 
L 230.470333 250.35099 
L 226.432706 242.665787 
L 222.39508 234.980584 
L 216.540521 227.551555 
L 212.502894 219.866352 
L 210.2822 211.924976 
L 206.244573 204.239774 
L 202.408828 194.24901 
L 200.188133 186.307634 
L 198.16932 176.060697 
L 194.131693 168.375495 
L 190.295948 158.384731 
L 186.258321 150.699529 
L 184.037627 142.758153 
L 180 135.07295 
L 180 122.264279 
L 180 109.455608 
L 184.037627 101.770405 
L 188.075253 94.085203 
L 194.333575 91.267295 
L 202.408828 88.705561 
L 210.685962 88.961734 
L 220.578148 91.267295 
L 228.855282 91.523468 
L 236.728654 91.267295 
L 246.822721 91.267295 
L 256.714906 88.961734 
L 262.973227 91.267295 
L 271.04848 93.829029 
L 279.123734 96.390763 
L 283.363242 101.770405 
L 289.2178 109.199434 
L 293.457308 114.579076 
L 297.494935 122.264279 
L 303.349493 129.693308 
L 309.405933 134.816777 
L 317.481187 137.378511 
L 323.537627 142.501979 
L 327.777135 147.881621 
L 331.814761 155.566824 
L 335.852388 163.252026 
L 341.706946 170.681056 
L 345.946454 176.060697 
L 351.801013 183.489727 
L 357.857453 188.613195 
L 363.913893 193.736664 
L 371.989146 196.298398 
L 380.064399 198.860132 
L 388.139653 201.421866 
L 396.214906 203.9836 
L 402.473227 206.801508 
L 408.327786 214.230537 
z
" style="fill:none;stroke:#000000;stroke-linejoin:miter;"/>
   </g>
   <g id="matplotlib.axis_1"/>
   <g id="matplotlib.axis_2"/>
   <g id="patch_4">
    <path d="M 180 358.2 
L 180 86.4 
" style="fill:none;stroke:#000000;stroke-linecap:square;stroke-linejoin:miter;stroke-width:0.8;"/>
   </g>
   <g id="patch_5">
    <path d="M 459 358.2 
L 459 86.4 
" style="fill:none;stroke:#000000;stroke-linecap:square;stroke-linejoin:miter;stroke-width:0.8;"/>
   </g>
   <g id="patch_6">
    <path d="M 180 358.2 
L 459 358.2 
" style="fill:none;stroke:#000000;stroke-linecap:square;stroke-linejoin:miter;stroke-width:0.8;"/>
   </g>
   <g id="patch_7">
    <path d="M 180 86.4 
L 459 86.4 
" style="fill:none;stroke:#000000;stroke-linecap:square;stroke-linejoin:miter;stroke-width:0.8;"/>
   </g>
  </g>
  <g id="axes_2">
   <g id="patch_8">
    <path d="M 459 358.2 
L 738 358.2 
L 738 86.4 
L 459 86.4 
z
" style="fill:#ffffff;"/>
   </g>
   <g id="PathCollection_3">
    <defs>
     <path d="M 0 3 
C 0.795609 3 1.55874 2.683901 2.12132 2.12132 
C 2.683901 1.55874 3 0.795609 3 -0 
C 3 -0.795609 2.683901 -1.55874 2.12132 -2.12132 
C 1.55874 -2.683901 0.795609 -3 0 -3 
C -0.795609 -3 -1.55874 -2.683901 -2.12132 -2.12132 
C -2.683901 -1.55874 -3 -0.795609 -3 0 
C -3 0.795609 -2.683901 1.55874 -2.12132 2.12132 
C -1.55874 2.683901 -0.795609 3 0 3 
z
" id="C1_0_467f1ae17f"/>
    </defs>
    <g clip-path="url(#p77efbbf9d2)">
     <use style="fill:#808080;fill-opacity:0.8;stroke:#808080;stroke-opacity:0.8;" x="667.641096" xlink:href="#C1_0_467f1ae17f" y="268.339641"/>
    </g>
    <g clip-path="url(#p77efbbf9d2)">
     <use style="fill:#808080;fill-opacity:0.8;stroke:#808080;stroke-opacity:0.8;" x="653.768033" xlink:href="#C1_0_467f1ae17f" y="266.875793"/>
    </g>
    <g clip-path="url(#p77efbbf9d2)">
     <use style="fill:#808080;fill-opacity:0.8;stroke:#808080;stroke-opacity:0.8;" x="654.039689" xlink:href="#C1_0_467f1ae17f" y="255.906376"/>
    </g>
    <g clip-path="url(#p77efbbf9d2)">
     <use style="fill:#808080;fill-opacity:0.8;stroke:#808080;stroke-opacity:0.8;" x="680.89828" xlink:href="#C1_0_467f1ae17f" y="255.141397"/>
    </g>
    <g clip-path="url(#p77efbbf9d2)">
     <use style="fill:#808080;fill-opacity:0.8;stroke:#808080;stroke-opacity:0.8;" x="700.077938" xlink:href="#C1_0_467f1ae17f" y="237.542164"/>
    </g>
    <g clip-path="url(#p77efbbf9d2)">
     <use style="fill:#808080;fill-opacity:0.8;stroke:#808080;stroke-opacity:0.8;" x="682.438905" xlink:href="#C1_0_467f1ae17f" y="235.13862"/>
    </g>
    <g clip-path="url(#p77efbbf9d2)">
     <use style="fill:#808080;fill-opacity:0.8;stroke:#808080;stroke-opacity:0.8;" x="699.741159" xlink:href="#C1_0_467f1ae17f" y="228.088538"/>
    </g>
    <g clip-path="url(#p77efbbf9d2)">
     <use style="fill:#808080;fill-opacity:0.8;stroke:#808080;stroke-opacity:0.8;" x="471.739911" xlink:href="#C1_0_467f1ae17f" y="104.629472"/>
    </g>
    <g clip-path="url(#p77efbbf9d2)">
     <use style="fill:#808080;fill-opacity:0.8;stroke:#808080;stroke-opacity:0.8;" x="472.554879" xlink:href="#C1_0_467f1ae17f" y="141.140679"/>
    </g>
    <g clip-path="url(#p77efbbf9d2)">
     <use style="fill:#808080;fill-opacity:0.8;stroke:#808080;stroke-opacity:0.8;" x="493.319816" xlink:href="#C1_0_467f1ae17f" y="128.683803"/>
    </g>
    <g clip-path="url(#p77efbbf9d2)">
     <use style="fill:#808080;fill-opacity:0.8;stroke:#808080;stroke-opacity:0.8;" x="495.039064" xlink:href="#C1_0_467f1ae17f" y="188.63783"/>
    </g>
    <g clip-path="url(#p77efbbf9d2)">
     <use style="fill:#808080;fill-opacity:0.8;stroke:#808080;stroke-opacity:0.8;" x="511.623104" xlink:href="#C1_0_467f1ae17f" y="198.263812"/>
    </g>
    <g clip-path="url(#p77efbbf9d2)">
     <use style="fill:#808080;fill-opacity:0.8;stroke:#808080;stroke-opacity:0.8;" x="519.767202" xlink:href="#C1_0_467f1ae17f" y="190.521944"/>
    </g>
    <g clip-path="url(#p77efbbf9d2)">
     <use style="fill:#808080;fill-opacity:0.8;stroke:#808080;stroke-opacity:0.8;" x="534.754798" xlink:href="#C1_0_467f1ae17f" y="284.451415"/>
    </g>
    <g clip-path="url(#p77efbbf9d2)">
     <use style="fill:#808080;fill-opacity:0.8;stroke:#808080;stroke-opacity:0.8;" x="535.526971" xlink:href="#C1_0_467f1ae17f" y="186.578998"/>
    </g>
    <g clip-path="url(#p77efbbf9d2)">
     <use style="fill:#808080;fill-opacity:0.8;stroke:#808080;stroke-opacity:0.8;" x="546.011776" xlink:href="#C1_0_467f1ae17f" y="188.014514"/>
    </g>
    <g clip-path="url(#p77efbbf9d2)">
     <use style="fill:#808080;fill-opacity:0.8;stroke:#808080;stroke-opacity:0.8;" x="551.552814" xlink:href="#C1_0_467f1ae17f" y="298.327279"/>
    </g>
    <g clip-path="url(#p77efbbf9d2)">
     <use style="fill:#808080;fill-opacity:0.8;stroke:#808080;stroke-opacity:0.8;" x="553.668381" xlink:href="#C1_0_467f1ae17f" y="113.362979"/>
    </g>
    <g clip-path="url(#p77efbbf9d2)">
     <use style="fill:#808080;fill-opacity:0.8;stroke:#808080;stroke-opacity:0.8;" x="555.824884" xlink:href="#C1_0_467f1ae17f" y="305.282919"/>
    </g>
    <g clip-path="url(#p77efbbf9d2)">
     <use style="fill:#808080;fill-opacity:0.8;stroke:#808080;stroke-opacity:0.8;" x="559.687608" xlink:href="#C1_0_467f1ae17f" y="333.943649"/>
    </g>
    <g clip-path="url(#p77efbbf9d2)">
     <use style="fill:#808080;fill-opacity:0.8;stroke:#808080;stroke-opacity:0.8;" x="560.383494" xlink:href="#C1_0_467f1ae17f" y="149.966267"/>
    </g>
    <g clip-path="url(#p77efbbf9d2)">
     <use style="fill:#808080;fill-opacity:0.8;stroke:#808080;stroke-opacity:0.8;" x="562.335324" xlink:href="#C1_0_467f1ae17f" y="333.983787"/>
    </g>
    <g clip-path="url(#p77efbbf9d2)">
     <use style="fill:#808080;fill-opacity:0.8;stroke:#808080;stroke-opacity:0.8;" x="564.372744" xlink:href="#C1_0_467f1ae17f" y="280.503747"/>
    </g>
    <g clip-path="url(#p77efbbf9d2)">
     <use style="fill:#808080;fill-opacity:0.8;stroke:#808080;stroke-opacity:0.8;" x="564.914195" xlink:href="#C1_0_467f1ae17f" y="316.311362"/>
    </g>
    <g clip-path="url(#p77efbbf9d2)">
     <use style="fill:#808080;fill-opacity:0.8;stroke:#808080;stroke-opacity:0.8;" x="564.9849" xlink:href="#C1_0_467f1ae17f" y="322.081757"/>
    </g>
    <g clip-path="url(#p77efbbf9d2)">
     <use style="fill:#808080;fill-opacity:0.8;stroke:#808080;stroke-opacity:0.8;" x="567.320026" xlink:href="#C1_0_467f1ae17f" y="286.215116"/>
    </g>
    <g clip-path="url(#p77efbbf9d2)">
     <use style="fill:#808080;fill-opacity:0.8;stroke:#808080;stroke-opacity:0.8;" x="568.283846" xlink:href="#C1_0_467f1ae17f" y="330.871929"/>
    </g>
    <g clip-path="url(#p77efbbf9d2)">
     <use style="fill:#808080;fill-opacity:0.8;stroke:#808080;stroke-opacity:0.8;" x="568.646674" xlink:href="#C1_0_467f1ae17f" y="169.874602"/>
    </g>
    <g clip-path="url(#p77efbbf9d2)">
     <use style="fill:#808080;fill-opacity:0.8;stroke:#808080;stroke-opacity:0.8;" x="576.014878" xlink:href="#C1_0_467f1ae17f" y="252.766185"/>
    </g>
    <g clip-path="url(#p77efbbf9d2)">
     <use style="fill:#808080;fill-opacity:0.8;stroke:#808080;stroke-opacity:0.8;" x="576.377706" xlink:href="#C1_0_467f1ae17f" y="296.809127"/>
    </g>
    <g clip-path="url(#p77efbbf9d2)">
     <use style="fill:#808080;fill-opacity:0.8;stroke:#808080;stroke-opacity:0.8;" x="576.720067" xlink:href="#C1_0_467f1ae17f" y="329.764599"/>
    </g>
    <g clip-path="url(#p77efbbf9d2)">
     <use style="fill:#808080;fill-opacity:0.8;stroke:#808080;stroke-opacity:0.8;" x="579.931562" xlink:href="#C1_0_467f1ae17f" y="163.011043"/>
    </g>
    <g clip-path="url(#p77efbbf9d2)">
     <use style="fill:#808080;fill-opacity:0.8;stroke:#808080;stroke-opacity:0.8;" x="585.483764" xlink:href="#C1_0_467f1ae17f" y="281.091647"/>
    </g>
    <g clip-path="url(#p77efbbf9d2)">
     <use style="fill:#808080;fill-opacity:0.8;stroke:#808080;stroke-opacity:0.8;" x="588.767824" xlink:href="#C1_0_467f1ae17f" y="327.205226"/>
    </g>
    <g clip-path="url(#p77efbbf9d2)">
     <use style="fill:#808080;fill-opacity:0.8;stroke:#808080;stroke-opacity:0.8;" x="590.343801" xlink:href="#C1_0_467f1ae17f" y="343.028952"/>
    </g>
    <g clip-path="url(#p77efbbf9d2)">
     <use style="fill:#808080;fill-opacity:0.8;stroke:#808080;stroke-opacity:0.8;" x="590.42567" xlink:href="#C1_0_467f1ae17f" y="295.812766"/>
    </g>
    <g clip-path="url(#p77efbbf9d2)">
     <use style="fill:#808080;fill-opacity:0.8;stroke:#808080;stroke-opacity:0.8;" x="596.48211" xlink:href="#C1_0_467f1ae17f" y="223.91421"/>
    </g>
    <g clip-path="url(#p77efbbf9d2)">
     <use style="fill:#808080;fill-opacity:0.8;stroke:#808080;stroke-opacity:0.8;" x="598.059948" xlink:href="#C1_0_467f1ae17f" y="318.02312"/>
    </g>
    <g clip-path="url(#p77efbbf9d2)">
     <use style="fill:#808080;fill-opacity:0.8;stroke:#808080;stroke-opacity:0.8;" x="600.925361" xlink:href="#C1_0_467f1ae17f" y="328.676157"/>
    </g>
    <g clip-path="url(#p77efbbf9d2)">
     <use style="fill:#808080;fill-opacity:0.8;stroke:#808080;stroke-opacity:0.8;" x="602.345042" xlink:href="#C1_0_467f1ae17f" y="219.258228"/>
    </g>
    <g clip-path="url(#p77efbbf9d2)">
     <use style="fill:#808080;fill-opacity:0.8;stroke:#808080;stroke-opacity:0.8;" x="607.701875" xlink:href="#C1_0_467f1ae17f" y="256.609967"/>
    </g>
    <g clip-path="url(#p77efbbf9d2)">
     <use style="fill:#808080;fill-opacity:0.8;stroke:#808080;stroke-opacity:0.8;" x="615.164972" xlink:href="#C1_0_467f1ae17f" y="211.924821"/>
    </g>
    <g clip-path="url(#p77efbbf9d2)">
     <use style="fill:#808080;fill-opacity:0.8;stroke:#808080;stroke-opacity:0.8;" x="615.172415" xlink:href="#C1_0_467f1ae17f" y="214.484194"/>
    </g>
    <g clip-path="url(#p77efbbf9d2)">
     <use style="fill:#808080;fill-opacity:0.8;stroke:#808080;stroke-opacity:0.8;" x="617.587548" xlink:href="#C1_0_467f1ae17f" y="205.786103"/>
    </g>
    <g clip-path="url(#p77efbbf9d2)">
     <use style="fill:#808080;fill-opacity:0.8;stroke:#808080;stroke-opacity:0.8;" x="618.121557" xlink:href="#C1_0_467f1ae17f" y="273.470193"/>
    </g>
    <g clip-path="url(#p77efbbf9d2)">
     <use style="fill:#808080;fill-opacity:0.8;stroke:#808080;stroke-opacity:0.8;" x="620.527387" xlink:href="#C1_0_467f1ae17f" y="198.811575"/>
    </g>
    <g clip-path="url(#p77efbbf9d2)">
     <use style="fill:#808080;fill-opacity:0.8;stroke:#808080;stroke-opacity:0.8;" x="625.331605" xlink:href="#C1_0_467f1ae17f" y="206.754132"/>
    </g>
    <g clip-path="url(#p77efbbf9d2)">
     <use style="fill:#808080;fill-opacity:0.8;stroke:#808080;stroke-opacity:0.8;" x="626.825713" xlink:href="#C1_0_467f1ae17f" y="242.618412"/>
    </g>
    <g clip-path="url(#p77efbbf9d2)">
     <use style="fill:#808080;fill-opacity:0.8;stroke:#808080;stroke-opacity:0.8;" x="628.892903" xlink:href="#C1_0_467f1ae17f" y="262.696742"/>
    </g>
   </g>
   <g id="PathCollection_4"/>
   <g id="patch_9">
    <path clip-path="url(#p77efbbf9d2)" d="M 711.755427 222.171913 
L 711.755427 234.980584 
L 707.7178 242.665787 
L 703.478292 248.045429 
L 695.403039 250.607163 
L 687.327786 253.168897 
L 681.271346 258.292366 
L 675.416787 265.721395 
L 671.177279 271.101037 
L 665.322721 278.530066 
L 659.266281 283.653534 
L 650.989146 283.909708 
L 644.932706 278.786239 
L 640.693198 273.406598 
L 632.819826 268.539303 
L 624.744573 271.101037 
L 618.890014 278.530066 
L 614.650507 283.909708 
L 610.61288 291.59491 
L 606.777135 301.585674 
L 604.758321 311.832611 
L 604.758321 324.641282 
L 604.758321 337.449953 
L 604.55644 342.829595 
L 594.664255 345.135156 
L 588.607815 350.258624 
L 582.551375 355.382092 
L 576.293054 358.2 
L 566.198987 358.2 
L 556.10492 358.2 
L 546.010854 358.2 
L 535.916787 358.2 
L 525.822721 358.2 
L 517.545586 357.943827 
L 523.803907 355.125919 
L 529.658466 347.69689 
L 531.677279 337.449953 
L 531.677279 324.641282 
L 529.658466 314.394345 
L 527.639653 304.147408 
L 525.822721 291.59491 
L 525.620839 281.0918 
L 525.620839 268.283129 
L 523.602026 258.036192 
L 521.583213 247.789255 
L 517.545586 240.104053 
L 511.489146 234.980584 
L 505.634588 227.551555 
L 501.39508 222.171913 
L 497.357453 214.486711 
L 493.319826 206.801508 
L 489.484081 196.810745 
L 487.263386 188.869369 
L 485.244573 178.622432 
L 481.206946 170.937229 
L 475.150507 165.813761 
L 469.295948 158.384731 
L 465.05644 153.00509 
L 461.220695 143.014326 
L 459.201881 132.767389 
L 459 122.264279 
L 459 109.455608 
L 461.018813 99.208671 
L 465.05644 91.523468 
L 471.314761 88.705561 
L 477.573082 86.4 
L 485.446454 91.267295 
L 491.704776 94.085203 
L 499.578148 98.952498 
L 505.634588 104.075966 
L 513.709841 106.6377 
L 523.803907 106.6377 
L 531.879161 104.075966 
L 539.954414 101.514232 
L 550.04848 101.514232 
L 556.10492 106.6377 
L 562.16136 111.761169 
L 566.400868 117.140811 
L 570.438495 124.826013 
L 574.476122 132.511216 
L 578.513748 140.196418 
L 584.570188 145.319887 
L 594.462373 147.625448 
L 604.55644 147.625448 
L 608.795948 153.00509 
L 612.631693 162.995853 
L 614.852388 170.937229 
L 618.890014 178.622432 
L 624.744573 186.051461 
L 628.984081 191.431103 
L 635.040521 196.554571 
L 640.89508 203.9836 
L 646.95152 209.107069 
L 655.026773 211.668803 
L 663.102026 209.107069 
L 672.994211 206.801508 
L 681.271346 206.545335 
L 691.365412 206.545335 
L 699.440666 209.107069 
L 705.698987 211.924976 
L 709.736614 219.610179 
z
" style="fill:none;stroke:#000000;stroke-linejoin:miter;"/>
   </g>
   <g id="matplotlib.axis_3"/>
   <g id="matplotlib.axis_4"/>
   <g id="patch_10">
    <path d="M 459 358.2 
L 459 86.4 
" style="fill:none;stroke:#000000;stroke-linecap:square;stroke-linejoin:miter;stroke-width:0.8;"/>
   </g>
   <g id="patch_11">
    <path d="M 738 358.2 
L 738 86.4 
" style="fill:none;stroke:#000000;stroke-linecap:square;stroke-linejoin:miter;stroke-width:0.8;"/>
   </g>
   <g id="patch_12">
    <path d="M 459 358.2 
L 738 358.2 
" style="fill:none;stroke:#000000;stroke-linecap:square;stroke-linejoin:miter;stroke-width:0.8;"/>
   </g>
   <g id="patch_13">
    <path d="M 459 86.4 
L 738 86.4 
" style="fill:none;stroke:#000000;stroke-linecap:square;stroke-linejoin:miter;stroke-width:0.8;"/>
   </g>
  </g>
  <g id="axes_3">
   <g id="patch_14">
    <path d="M 738 358.2 
L 1017 358.2 
L 1017 86.4 
L 738 86.4 
z
" style="fill:#ffffff;"/>
   </g>
   <g id="PathCollection_5">
    <defs>
     <path d="M 0 3 
C 0.795609 3 1.55874 2.683901 2.12132 2.12132 
C 2.683901 1.55874 3 0.795609 3 -0 
C 3 -0.795609 2.683901 -1.55874 2.12132 -2.12132 
C 1.55874 -2.683901 0.795609 -3 0 -3 
C -0.795609 -3 -1.55874 -2.683901 -2.12132 -2.12132 
C -2.683901 -1.55874 -3 -0.795609 -3 0 
C -3 0.795609 -2.683901 1.55874 -2.12132 2.12132 
C -1.55874 2.683901 -0.795609 3 0 3 
z
" id="C2_0_b39c6fd6e7"/>
    </defs>
    <g clip-path="url(#pae04730aa2)">
     <use style="fill:#808080;fill-opacity:0.8;stroke:#808080;stroke-opacity:0.8;" x="925.325403" xlink:href="#C2_0_b39c6fd6e7" y="293.208532"/>
    </g>
    <g clip-path="url(#pae04730aa2)">
     <use style="fill:#808080;fill-opacity:0.8;stroke:#808080;stroke-opacity:0.8;" x="893.134168" xlink:href="#C2_0_b39c6fd6e7" y="274.693214"/>
    </g>
    <g clip-path="url(#pae04730aa2)">
     <use style="fill:#808080;fill-opacity:0.8;stroke:#808080;stroke-opacity:0.8;" x="956.731441" xlink:href="#C2_0_b39c6fd6e7" y="268.282976"/>
    </g>
    <g clip-path="url(#pae04730aa2)">
     <use style="fill:#808080;fill-opacity:0.8;stroke:#808080;stroke-opacity:0.8;" x="964.527596" xlink:href="#C2_0_b39c6fd6e7" y="268.023261"/>
    </g>
    <g clip-path="url(#pae04730aa2)">
     <use style="fill:#808080;fill-opacity:0.8;stroke:#808080;stroke-opacity:0.8;" x="948.83295" xlink:href="#C2_0_b39c6fd6e7" y="257.658271"/>
    </g>
    <g clip-path="url(#pae04730aa2)">
     <use style="fill:#808080;fill-opacity:0.8;stroke:#808080;stroke-opacity:0.8;" x="894.004956" xlink:href="#C2_0_b39c6fd6e7" y="248.556441"/>
    </g>
    <g clip-path="url(#pae04730aa2)">
     <use style="fill:#808080;fill-opacity:0.8;stroke:#808080;stroke-opacity:0.8;" x="909.801938" xlink:href="#C2_0_b39c6fd6e7" y="271.470387"/>
    </g>
    <g clip-path="url(#pae04730aa2)">
     <use style="fill:#808080;fill-opacity:0.8;stroke:#808080;stroke-opacity:0.8;" x="891.16001" xlink:href="#C2_0_b39c6fd6e7" y="253.262005"/>
    </g>
    <g clip-path="url(#pae04730aa2)">
     <use style="fill:#808080;fill-opacity:0.8;stroke:#808080;stroke-opacity:0.8;" x="933.441591" xlink:href="#C2_0_b39c6fd6e7" y="270.422083"/>
    </g>
    <g clip-path="url(#pae04730aa2)">
     <use style="fill:#808080;fill-opacity:0.8;stroke:#808080;stroke-opacity:0.8;" x="959.658255" xlink:href="#C2_0_b39c6fd6e7" y="245.668883"/>
    </g>
    <g clip-path="url(#pae04730aa2)">
     <use style="fill:#808080;fill-opacity:0.8;stroke:#808080;stroke-opacity:0.8;" x="866.139749" xlink:href="#C2_0_b39c6fd6e7" y="193.65033"/>
    </g>
    <g clip-path="url(#pae04730aa2)">
     <use style="fill:#808080;fill-opacity:0.8;stroke:#808080;stroke-opacity:0.8;" x="867.44407" xlink:href="#C2_0_b39c6fd6e7" y="227.547859"/>
    </g>
    <g clip-path="url(#pae04730aa2)">
     <use style="fill:#808080;fill-opacity:0.8;stroke:#808080;stroke-opacity:0.8;" x="872.492034" xlink:href="#C2_0_b39c6fd6e7" y="242.424806"/>
    </g>
    <g clip-path="url(#pae04730aa2)">
     <use style="fill:#808080;fill-opacity:0.8;stroke:#808080;stroke-opacity:0.8;" x="891.634478" xlink:href="#C2_0_b39c6fd6e7" y="229.932515"/>
    </g>
    <g clip-path="url(#pae04730aa2)">
     <use style="fill:#808080;fill-opacity:0.8;stroke:#808080;stroke-opacity:0.8;" x="908.432494" xlink:href="#C2_0_b39c6fd6e7" y="203.151176"/>
    </g>
    <g clip-path="url(#pae04730aa2)">
     <use style="fill:#808080;fill-opacity:0.8;stroke:#808080;stroke-opacity:0.8;" x="942.569977" xlink:href="#C2_0_b39c6fd6e7" y="222.171758"/>
    </g>
    <g clip-path="url(#pae04730aa2)">
     <use style="fill:#808080;fill-opacity:0.8;stroke:#808080;stroke-opacity:0.8;" x="992.573287" xlink:href="#C2_0_b39c6fd6e7" y="236.172758"/>
    </g>
    <g clip-path="url(#pae04730aa2)">
     <use style="fill:#808080;fill-opacity:0.8;stroke:#808080;stroke-opacity:0.8;" x="907.327263" xlink:href="#C2_0_b39c6fd6e7" y="234.583774"/>
    </g>
    <g clip-path="url(#pae04730aa2)">
     <use style="fill:#808080;fill-opacity:0.8;stroke:#808080;stroke-opacity:0.8;" x="969.890011" xlink:href="#C2_0_b39c6fd6e7" y="235.870544"/>
    </g>
    <g clip-path="url(#pae04730aa2)">
     <use style="fill:#808080;fill-opacity:0.8;stroke:#808080;stroke-opacity:0.8;" x="879.060155" xlink:href="#C2_0_b39c6fd6e7" y="230.180425"/>
    </g>
    <g clip-path="url(#pae04730aa2)">
     <use style="fill:#808080;fill-opacity:0.8;stroke:#808080;stroke-opacity:0.8;" x="757.538753" xlink:href="#C2_0_b39c6fd6e7" y="151.1704"/>
    </g>
    <g clip-path="url(#pae04730aa2)">
     <use style="fill:#808080;fill-opacity:0.8;stroke:#808080;stroke-opacity:0.8;" x="761.375429" xlink:href="#C2_0_b39c6fd6e7" y="124.825855"/>
    </g>
    <g clip-path="url(#pae04730aa2)">
     <use style="fill:#808080;fill-opacity:0.8;stroke:#808080;stroke-opacity:0.8;" x="777.864576" xlink:href="#C2_0_b39c6fd6e7" y="119.702386"/>
    </g>
    <g clip-path="url(#pae04730aa2)">
     <use style="fill:#808080;fill-opacity:0.8;stroke:#808080;stroke-opacity:0.8;" x="787.087855" xlink:href="#C2_0_b39c6fd6e7" y="140.701525"/>
    </g>
    <g clip-path="url(#pae04730aa2)">
     <use style="fill:#808080;fill-opacity:0.8;stroke:#808080;stroke-opacity:0.8;" x="787.316716" xlink:href="#C2_0_b39c6fd6e7" y="175.973182"/>
    </g>
    <g clip-path="url(#pae04730aa2)">
     <use style="fill:#808080;fill-opacity:0.8;stroke:#808080;stroke-opacity:0.8;" x="789.296455" xlink:href="#C2_0_b39c6fd6e7" y="186.430253"/>
    </g>
    <g clip-path="url(#pae04730aa2)">
     <use style="fill:#808080;fill-opacity:0.8;stroke:#808080;stroke-opacity:0.8;" x="792.984278" xlink:href="#C2_0_b39c6fd6e7" y="146.922879"/>
    </g>
    <g clip-path="url(#pae04730aa2)">
     <use style="fill:#808080;fill-opacity:0.8;stroke:#808080;stroke-opacity:0.8;" x="801.867057" xlink:href="#C2_0_b39c6fd6e7" y="229.859322"/>
    </g>
    <g clip-path="url(#pae04730aa2)">
     <use style="fill:#808080;fill-opacity:0.8;stroke:#808080;stroke-opacity:0.8;" x="802.802968" xlink:href="#C2_0_b39c6fd6e7" y="203.937405"/>
    </g>
    <g clip-path="url(#pae04730aa2)">
     <use style="fill:#808080;fill-opacity:0.8;stroke:#808080;stroke-opacity:0.8;" x="803.065321" xlink:href="#C2_0_b39c6fd6e7" y="145.07182"/>
    </g>
    <g clip-path="url(#pae04730aa2)">
     <use style="fill:#808080;fill-opacity:0.8;stroke:#808080;stroke-opacity:0.8;" x="810.950787" xlink:href="#C2_0_b39c6fd6e7" y="230.492083"/>
    </g>
    <g clip-path="url(#pae04730aa2)">
     <use style="fill:#808080;fill-opacity:0.8;stroke:#808080;stroke-opacity:0.8;" x="813.008674" xlink:href="#C2_0_b39c6fd6e7" y="129.831271"/>
    </g>
    <g clip-path="url(#pae04730aa2)">
     <use style="fill:#808080;fill-opacity:0.8;stroke:#808080;stroke-opacity:0.8;" x="819.999165" xlink:href="#C2_0_b39c6fd6e7" y="122.648971"/>
    </g>
    <g clip-path="url(#pae04730aa2)">
     <use style="fill:#808080;fill-opacity:0.8;stroke:#808080;stroke-opacity:0.8;" x="832.869332" xlink:href="#C2_0_b39c6fd6e7" y="230.324448"/>
    </g>
    <g clip-path="url(#pae04730aa2)">
     <use style="fill:#808080;fill-opacity:0.8;stroke:#808080;stroke-opacity:0.8;" x="834.352277" xlink:href="#C2_0_b39c6fd6e7" y="152.577583"/>
    </g>
    <g clip-path="url(#pae04730aa2)">
     <use style="fill:#808080;fill-opacity:0.8;stroke:#808080;stroke-opacity:0.8;" x="837.357238" xlink:href="#C2_0_b39c6fd6e7" y="241.75663"/>
    </g>
    <g clip-path="url(#pae04730aa2)">
     <use style="fill:#808080;fill-opacity:0.8;stroke:#808080;stroke-opacity:0.8;" x="840.1352" xlink:href="#C2_0_b39c6fd6e7" y="197.073845"/>
    </g>
    <g clip-path="url(#pae04730aa2)">
     <use style="fill:#808080;fill-opacity:0.8;stroke:#808080;stroke-opacity:0.8;" x="846.465157" xlink:href="#C2_0_b39c6fd6e7" y="150.443198"/>
    </g>
    <g clip-path="url(#pae04730aa2)">
     <use style="fill:#808080;fill-opacity:0.8;stroke:#808080;stroke-opacity:0.8;" x="794.273714" xlink:href="#C2_0_b39c6fd6e7" y="118.646999"/>
    </g>
    <g clip-path="url(#pae04730aa2)">
     <use style="fill:#808080;fill-opacity:0.8;stroke:#808080;stroke-opacity:0.8;" x="835.907786" xlink:href="#C2_0_b39c6fd6e7" y="247.789101"/>
    </g>
    <g clip-path="url(#pae04730aa2)">
     <use style="fill:#808080;fill-opacity:0.8;stroke:#808080;stroke-opacity:0.8;" x="834.631375" xlink:href="#C2_0_b39c6fd6e7" y="122.429394"/>
    </g>
    <g clip-path="url(#pae04730aa2)">
     <use style="fill:#808080;fill-opacity:0.8;stroke:#808080;stroke-opacity:0.8;" x="841.83212" xlink:href="#C2_0_b39c6fd6e7" y="173.501168"/>
    </g>
    <g clip-path="url(#pae04730aa2)">
     <use style="fill:#808080;fill-opacity:0.8;stroke:#808080;stroke-opacity:0.8;" x="796.729782" xlink:href="#C2_0_b39c6fd6e7" y="192.984515"/>
    </g>
    <g clip-path="url(#pae04730aa2)">
     <use style="fill:#808080;fill-opacity:0.8;stroke:#808080;stroke-opacity:0.8;" x="806.952234" xlink:href="#C2_0_b39c6fd6e7" y="189.490167"/>
    </g>
    <g clip-path="url(#pae04730aa2)">
     <use style="fill:#808080;fill-opacity:0.8;stroke:#808080;stroke-opacity:0.8;" x="792.798213" xlink:href="#C2_0_b39c6fd6e7" y="171.085818"/>
    </g>
    <g clip-path="url(#pae04730aa2)">
     <use style="fill:#808080;fill-opacity:0.8;stroke:#808080;stroke-opacity:0.8;" x="757.419671" xlink:href="#C2_0_b39c6fd6e7" y="161.811632"/>
    </g>
    <g clip-path="url(#pae04730aa2)">
     <use style="fill:#808080;fill-opacity:0.8;stroke:#808080;stroke-opacity:0.8;" x="778.24601" xlink:href="#C2_0_b39c6fd6e7" y="141.754551"/>
    </g>
    <g clip-path="url(#pae04730aa2)">
     <use style="fill:#808080;fill-opacity:0.8;stroke:#808080;stroke-opacity:0.8;" x="881.105017" xlink:href="#C2_0_b39c6fd6e7" y="334.48669"/>
    </g>
    <g clip-path="url(#pae04730aa2)">
     <use style="fill:#808080;fill-opacity:0.8;stroke:#808080;stroke-opacity:0.8;" x="841.508365" xlink:href="#C2_0_b39c6fd6e7" y="333.032286"/>
    </g>
    <g clip-path="url(#pae04730aa2)">
     <use style="fill:#808080;fill-opacity:0.8;stroke:#808080;stroke-opacity:0.8;" x="852.510433" xlink:href="#C2_0_b39c6fd6e7" y="316.955927"/>
    </g>
    <g clip-path="url(#pae04730aa2)">
     <use style="fill:#808080;fill-opacity:0.8;stroke:#808080;stroke-opacity:0.8;" x="877.082276" xlink:href="#C2_0_b39c6fd6e7" y="314.394193"/>
    </g>
    <g clip-path="url(#pae04730aa2)">
     <use style="fill:#808080;fill-opacity:0.8;stroke:#808080;stroke-opacity:0.8;" x="833.310308" xlink:href="#C2_0_b39c6fd6e7" y="313.197143"/>
    </g>
    <g clip-path="url(#pae04730aa2)">
     <use style="fill:#808080;fill-opacity:0.8;stroke:#808080;stroke-opacity:0.8;" x="837.027902" xlink:href="#C2_0_b39c6fd6e7" y="305.618187"/>
    </g>
    <g clip-path="url(#pae04730aa2)">
     <use style="fill:#808080;fill-opacity:0.8;stroke:#808080;stroke-opacity:0.8;" x="878.90386" xlink:href="#C2_0_b39c6fd6e7" y="304.931123"/>
    </g>
    <g clip-path="url(#pae04730aa2)">
     <use style="fill:#808080;fill-opacity:0.8;stroke:#808080;stroke-opacity:0.8;" x="857.394659" xlink:href="#C2_0_b39c6fd6e7" y="304.666686"/>
    </g>
    <g clip-path="url(#pae04730aa2)">
     <use style="fill:#808080;fill-opacity:0.8;stroke:#808080;stroke-opacity:0.8;" x="832.458127" xlink:href="#C2_0_b39c6fd6e7" y="302.319807"/>
    </g>
    <g clip-path="url(#pae04730aa2)">
     <use style="fill:#808080;fill-opacity:0.8;stroke:#808080;stroke-opacity:0.8;" x="875.48211" xlink:href="#C2_0_b39c6fd6e7" y="292.781183"/>
    </g>
    <g clip-path="url(#pae04730aa2)">
     <use style="fill:#808080;fill-opacity:0.8;stroke:#808080;stroke-opacity:0.8;" x="819.169311" xlink:href="#C2_0_b39c6fd6e7" y="290.051815"/>
    </g>
    <g clip-path="url(#pae04730aa2)">
     <use style="fill:#808080;fill-opacity:0.8;stroke:#808080;stroke-opacity:0.8;" x="856.488519" xlink:href="#C2_0_b39c6fd6e7" y="289.980983"/>
    </g>
    <g clip-path="url(#pae04730aa2)">
     <use style="fill:#808080;fill-opacity:0.8;stroke:#808080;stroke-opacity:0.8;" x="866.203012" xlink:href="#C2_0_b39c6fd6e7" y="284.250726"/>
    </g>
    <g clip-path="url(#pae04730aa2)">
     <use style="fill:#808080;fill-opacity:0.8;stroke:#808080;stroke-opacity:0.8;" x="821.837494" xlink:href="#C2_0_b39c6fd6e7" y="279.993761"/>
    </g>
    <g clip-path="url(#pae04730aa2)">
     <use style="fill:#808080;fill-opacity:0.8;stroke:#808080;stroke-opacity:0.8;" x="816.850932" xlink:href="#C2_0_b39c6fd6e7" y="279.937096"/>
    </g>
    <g clip-path="url(#pae04730aa2)">
     <use style="fill:#808080;fill-opacity:0.8;stroke:#808080;stroke-opacity:0.8;" x="865.388044" xlink:href="#C2_0_b39c6fd6e7" y="275.493609"/>
    </g>
    <g clip-path="url(#pae04730aa2)">
     <use style="fill:#808080;fill-opacity:0.8;stroke:#808080;stroke-opacity:0.8;" x="862.574729" xlink:href="#C2_0_b39c6fd6e7" y="250.846655"/>
    </g>
    <g clip-path="url(#pae04730aa2)">
     <use style="fill:#808080;fill-opacity:0.8;stroke:#808080;stroke-opacity:0.8;" x="853.076073" xlink:href="#C2_0_b39c6fd6e7" y="259.960291"/>
    </g>
    <g clip-path="url(#pae04730aa2)">
     <use style="fill:#808080;fill-opacity:0.8;stroke:#808080;stroke-opacity:0.8;" x="843.430424" xlink:href="#C2_0_b39c6fd6e7" y="272.405361"/>
    </g>
   </g>
   <g id="PathCollection_6"/>
   <g id="patch_15">
    <path clip-path="url(#pae04730aa2)" d="M 996.811867 222.171913 
L 996.811867 234.980584 
L 994.591172 242.92196 
L 988.736614 250.35099 
L 982.680174 255.474458 
L 976.421852 258.292366 
L 970.365412 263.415834 
L 964.308973 268.539303 
L 958.252533 273.662771 
L 952.196093 278.786239 
L 946.341534 286.215269 
L 940.285094 291.338737 
L 934.026773 294.156645 
L 925.95152 296.718379 
L 919.89508 291.59491 
L 913.636758 288.777003 
L 905.965268 286.215269 
L 899.706946 289.033176 
L 895.66932 296.718379 
L 891.833575 306.709142 
L 889.61288 314.650518 
L 887.795948 327.203016 
L 889.814761 337.449953 
L 889.61288 342.829595 
L 879.518813 342.829595 
L 871.44356 345.391329 
L 865.38712 350.514797 
L 859.33068 355.638266 
L 851.255427 358.2 
L 841.16136 358.2 
L 831.067294 358.2 
L 820.973227 358.2 
L 812.696093 357.943827 
L 816.733719 350.258624 
L 818.752533 340.011687 
L 816.733719 329.76475 
L 814.916787 317.212253 
L 812.897974 306.965316 
L 810.879161 296.718379 
L 810.677279 286.215269 
L 808.658466 275.968332 
L 806.639653 265.721395 
L 804.620839 255.474458 
L 800.583213 247.789255 
L 796.545586 240.104053 
L 790.691027 232.675024 
L 786.653401 224.989821 
L 782.413893 219.610179 
L 778.376266 211.924976 
L 774.33864 204.239774 
L 770.502894 194.24901 
L 768.2822 186.307634 
L 762.427641 178.878605 
L 758.188133 173.498963 
L 752.333575 166.069934 
L 748.295948 158.384731 
L 746.075253 150.443355 
L 744.05644 140.196418 
L 744.05644 127.387747 
L 746.075253 117.140811 
L 748.094067 106.893874 
L 752.333575 101.514232 
L 760.408828 98.952498 
L 770.502894 98.952498 
L 776.559334 104.075966 
L 782.817656 106.893874 
L 790.691027 111.761169 
L 798.766281 114.322903 
L 808.860347 114.322903 
L 816.935601 111.761169 
L 827.029667 111.761169 
L 835.306802 112.017342 
L 841.363242 117.140811 
L 847.2178 124.56984 
L 851.255427 132.255042 
L 855.494935 137.634684 
L 861.349493 145.063713 
L 867.405933 150.187182 
L 873.462373 155.31065 
L 877.701881 160.690292 
L 881.739508 168.375495 
L 885.575253 178.366258 
L 889.61288 186.051461 
L 895.66932 191.174929 
L 901.927641 193.992837 
L 907.984081 199.116305 
L 915.857453 203.9836 
L 921.913893 209.107069 
L 927.970333 214.230537 
L 936.045586 216.792271 
L 946.139653 216.792271 
L 956.031838 214.486711 
L 962.290159 211.668803 
L 970.365412 209.107069 
L 980.459479 209.107069 
L 988.534732 211.668803 
L 994.591172 216.792271 
z
" style="fill:none;stroke:#000000;stroke-linejoin:miter;"/>
   </g>
   <g id="matplotlib.axis_5"/>
   <g id="matplotlib.axis_6"/>
   <g id="patch_16">
    <path d="M 738 358.2 
L 738 86.4 
" style="fill:none;stroke:#000000;stroke-linecap:square;stroke-linejoin:miter;stroke-width:0.8;"/>
   </g>
   <g id="patch_17">
    <path d="M 1017 358.2 
L 1017 86.4 
" style="fill:none;stroke:#000000;stroke-linecap:square;stroke-linejoin:miter;stroke-width:0.8;"/>
   </g>
   <g id="patch_18">
    <path d="M 738 358.2 
L 1017 358.2 
" style="fill:none;stroke:#000000;stroke-linecap:square;stroke-linejoin:miter;stroke-width:0.8;"/>
   </g>
   <g id="patch_19">
    <path d="M 738 86.4 
L 1017 86.4 
" style="fill:none;stroke:#000000;stroke-linecap:square;stroke-linejoin:miter;stroke-width:0.8;"/>
   </g>
  </g>
  <g id="axes_4">
   <g id="patch_20">
    <path d="M 1017 358.2 
L 1296 358.2 
L 1296 86.4 
L 1017 86.4 
z
" style="fill:#ffffff;"/>
   </g>
   <g id="PathCollection_7">
    <defs>
     <path d="M 0 3 
C 0.795609 3 1.55874 2.683901 2.12132 2.12132 
C 2.683901 1.55874 3 0.795609 3 -0 
C 3 -0.795609 2.683901 -1.55874 2.12132 -2.12132 
C 1.55874 -2.683901 0.795609 -3 0 -3 
C -0.795609 -3 -1.55874 -2.683901 -2.12132 -2.12132 
C -2.683901 -1.55874 -3 -0.795609 -3 0 
C -3 0.795609 -2.683901 1.55874 -2.12132 2.12132 
C -1.55874 2.683901 -0.795609 3 0 3 
z
" id="C3_0_6cbb3b652c"/>
    </defs>
    <g clip-path="url(#p3729fba9b7)">
     <use style="fill:#808080;fill-opacity:0.8;stroke:#808080;stroke-opacity:0.8;" x="1053.223269" xlink:href="#C3_0_6cbb3b652c" y="163.044098"/>
    </g>
    <g clip-path="url(#p3729fba9b7)">
     <use style="fill:#808080;fill-opacity:0.8;stroke:#808080;stroke-opacity:0.8;" x="1055.024385" xlink:href="#C3_0_6cbb3b652c" y="208.94046"/>
    </g>
    <g clip-path="url(#p3729fba9b7)">
     <use style="fill:#808080;fill-opacity:0.8;stroke:#808080;stroke-opacity:0.8;" x="1059.597881" xlink:href="#C3_0_6cbb3b652c" y="149.038376"/>
    </g>
    <g clip-path="url(#p3729fba9b7)">
     <use style="fill:#808080;fill-opacity:0.8;stroke:#808080;stroke-opacity:0.8;" x="1061.986966" xlink:href="#C3_0_6cbb3b652c" y="126.204706"/>
    </g>
    <g clip-path="url(#p3729fba9b7)">
     <use style="fill:#808080;fill-opacity:0.8;stroke:#808080;stroke-opacity:0.8;" x="1063.575967" xlink:href="#C3_0_6cbb3b652c" y="160.756245"/>
    </g>
    <g clip-path="url(#p3729fba9b7)">
     <use style="fill:#808080;fill-opacity:0.8;stroke:#808080;stroke-opacity:0.8;" x="1073.469083" xlink:href="#C3_0_6cbb3b652c" y="152.674386"/>
    </g>
    <g clip-path="url(#p3729fba9b7)">
     <use style="fill:#808080;fill-opacity:0.8;stroke:#808080;stroke-opacity:0.8;" x="1075.774438" xlink:href="#C3_0_6cbb3b652c" y="200.771243"/>
    </g>
    <g clip-path="url(#p3729fba9b7)">
     <use style="fill:#808080;fill-opacity:0.8;stroke:#808080;stroke-opacity:0.8;" x="1088.76927" xlink:href="#C3_0_6cbb3b652c" y="237.098288"/>
    </g>
    <g clip-path="url(#p3729fba9b7)">
     <use style="fill:#808080;fill-opacity:0.8;stroke:#808080;stroke-opacity:0.8;" x="1092.254281" xlink:href="#C3_0_6cbb3b652c" y="205.745965"/>
    </g>
    <g clip-path="url(#p3729fba9b7)">
     <use style="fill:#808080;fill-opacity:0.8;stroke:#808080;stroke-opacity:0.8;" x="1093.564184" xlink:href="#C3_0_6cbb3b652c" y="272.785489"/>
    </g>
    <g clip-path="url(#p3729fba9b7)">
     <use style="fill:#808080;fill-opacity:0.8;stroke:#808080;stroke-opacity:0.8;" x="1096.24167" xlink:href="#C3_0_6cbb3b652c" y="188.994348"/>
    </g>
    <g clip-path="url(#p3729fba9b7)">
     <use style="fill:#808080;fill-opacity:0.8;stroke:#808080;stroke-opacity:0.8;" x="1100.284879" xlink:href="#C3_0_6cbb3b652c" y="163.02757"/>
    </g>
    <g clip-path="url(#p3729fba9b7)">
     <use style="fill:#808080;fill-opacity:0.8;stroke:#808080;stroke-opacity:0.8;" x="1107.44841" xlink:href="#C3_0_6cbb3b652c" y="248.551719"/>
    </g>
    <g clip-path="url(#p3729fba9b7)">
     <use style="fill:#808080;fill-opacity:0.8;stroke:#808080;stroke-opacity:0.8;" x="1108.473633" xlink:href="#C3_0_6cbb3b652c" y="137.941462"/>
    </g>
    <g clip-path="url(#p3729fba9b7)">
     <use style="fill:#808080;fill-opacity:0.8;stroke:#808080;stroke-opacity:0.8;" x="1112.087029" xlink:href="#C3_0_6cbb3b652c" y="290.793183"/>
    </g>
    <g clip-path="url(#p3729fba9b7)">
     <use style="fill:#808080;fill-opacity:0.8;stroke:#808080;stroke-opacity:0.8;" x="1114.507745" xlink:href="#C3_0_6cbb3b652c" y="298.204505"/>
    </g>
    <g clip-path="url(#p3729fba9b7)">
     <use style="fill:#808080;fill-opacity:0.8;stroke:#808080;stroke-opacity:0.8;" x="1123.399827" xlink:href="#C3_0_6cbb3b652c" y="271.734824"/>
    </g>
    <g clip-path="url(#p3729fba9b7)">
     <use style="fill:#808080;fill-opacity:0.8;stroke:#808080;stroke-opacity:0.8;" x="1127.390937" xlink:href="#C3_0_6cbb3b652c" y="199.994459"/>
    </g>
    <g clip-path="url(#p3729fba9b7)">
     <use style="fill:#808080;fill-opacity:0.8;stroke:#808080;stroke-opacity:0.8;" x="1140.975598" xlink:href="#C3_0_6cbb3b652c" y="299.212671"/>
    </g>
    <g clip-path="url(#p3729fba9b7)">
     <use style="fill:#808080;fill-opacity:0.8;stroke:#808080;stroke-opacity:0.8;" x="1141.487278" xlink:href="#C3_0_6cbb3b652c" y="260.600134"/>
    </g>
    <g clip-path="url(#p3729fba9b7)">
     <use style="fill:#808080;fill-opacity:0.8;stroke:#808080;stroke-opacity:0.8;" x="1158.865819" xlink:href="#C3_0_6cbb3b652c" y="190.193759"/>
    </g>
    <g clip-path="url(#p3729fba9b7)">
     <use style="fill:#808080;fill-opacity:0.8;stroke:#808080;stroke-opacity:0.8;" x="1214.257593" xlink:href="#C3_0_6cbb3b652c" y="298.256448"/>
    </g>
    <g clip-path="url(#p3729fba9b7)">
     <use style="fill:#808080;fill-opacity:0.8;stroke:#808080;stroke-opacity:0.8;" x="1225.261522" xlink:href="#C3_0_6cbb3b652c" y="283.200061"/>
    </g>
    <g clip-path="url(#p3729fba9b7)">
     <use style="fill:#808080;fill-opacity:0.8;stroke:#808080;stroke-opacity:0.8;" x="1192.538138" xlink:href="#C3_0_6cbb3b652c" y="276.872459"/>
    </g>
    <g clip-path="url(#p3729fba9b7)">
     <use style="fill:#808080;fill-opacity:0.8;stroke:#808080;stroke-opacity:0.8;" x="1200.440351" xlink:href="#C3_0_6cbb3b652c" y="266.205256"/>
    </g>
    <g clip-path="url(#p3729fba9b7)">
     <use style="fill:#808080;fill-opacity:0.8;stroke:#808080;stroke-opacity:0.8;" x="1249.366339" xlink:href="#C3_0_6cbb3b652c" y="252.499387"/>
    </g>
    <g clip-path="url(#p3729fba9b7)">
     <use style="fill:#808080;fill-opacity:0.8;stroke:#808080;stroke-opacity:0.8;" x="1243.611326" xlink:href="#C3_0_6cbb3b652c" y="231.644273"/>
    </g>
    <g clip-path="url(#p3729fba9b7)">
     <use style="fill:#808080;fill-opacity:0.8;stroke:#808080;stroke-opacity:0.8;" x="1260.331194" xlink:href="#C3_0_6cbb3b652c" y="213.943515"/>
    </g>
   </g>
   <g id="PathCollection_8">
    <defs>
     <path d="M 0 4.242641 
C 1.125161 4.242641 2.204391 3.795609 3 3 
C 3.795609 2.204391 4.242641 1.125161 4.242641 0 
C 4.242641 -1.125161 3.795609 -2.204391 3 -3 
C 2.204391 -3.795609 1.125161 -4.242641 0 -4.242641 
C -1.125161 -4.242641 -2.204391 -3.795609 -3 -3 
C -3.795609 -2.204391 -4.242641 -1.125161 -4.242641 0 
C -4.242641 1.125161 -3.795609 2.204391 -3 3 
C -2.204391 3.795609 -1.125161 4.242641 0 4.242641 
z
" id="ma537962ea3" style="stroke:#ff0000;stroke-opacity:0.8;"/>
    </defs>
    <g clip-path="url(#p3729fba9b7)">
     <use style="fill:#ff0000;fill-opacity:0.8;stroke:#ff0000;stroke-opacity:0.8;" x="1059.597881" xlink:href="#ma537962ea3" y="211.365253"/>
    </g>
   </g>
   <g id="patch_21">
    <path clip-path="url(#p3729fba9b7)" d="M 1275.811867 227.295382 
L 1273.793054 237.542319 
L 1271.572359 245.483695 
L 1265.7178 252.912724 
L 1261.478292 258.292366 
L 1255.421852 263.415834 
L 1249.365412 268.539303 
L 1243.308973 273.662771 
L 1237.454414 281.0918 
L 1233.214906 286.471442 
L 1227.158466 291.59491 
L 1221.303907 299.02394 
L 1215.247467 304.147408 
L 1208.989146 306.965316 
L 1198.89508 306.965316 
L 1190.819826 309.52705 
L 1182.946454 314.394345 
L 1178.706946 319.773987 
L 1174.871201 329.76475 
L 1174.871201 342.573421 
L 1166.594067 342.829595 
L 1156.5 342.829595 
L 1148.424747 345.391329 
L 1140.349493 347.953063 
L 1134.293054 353.076532 
L 1128.236614 358.2 
L 1118.142547 358.2 
L 1108.04848 358.2 
L 1097.954414 358.2 
L 1093.916787 355.125919 
L 1097.752533 345.135156 
L 1097.752533 332.326484 
L 1097.752533 319.517813 
L 1095.733719 309.270877 
L 1093.714906 299.02394 
L 1089.879161 289.033176 
L 1087.860347 278.786239 
L 1085.841534 268.539303 
L 1083.822721 258.292366 
L 1081.602026 250.35099 
L 1077.564399 242.665787 
L 1071.709841 235.236758 
L 1067.470333 229.857116 
L 1061.615774 222.428087 
L 1057.578148 214.742884 
L 1053.33864 209.363242 
L 1049.301013 201.67804 
L 1045.263386 193.992837 
L 1043.244573 183.7459 
L 1039.408828 173.755137 
L 1037.188133 165.813761 
L 1035.16932 155.566824 
L 1035.16932 142.758153 
L 1037.390014 134.816777 
L 1041.427641 127.131574 
L 1047.484081 122.008106 
L 1055.559334 119.446371 
L 1065.653401 119.446371 
L 1075.747467 119.446371 
L 1085.841534 119.446371 
L 1095.935601 119.446371 
L 1106.029667 119.446371 
L 1114.10492 122.008106 
L 1120.363242 124.826013 
L 1126.2178 132.255042 
L 1130.457308 137.634684 
L 1136.513748 142.758153 
L 1142.570188 147.881621 
L 1148.626628 153.00509 
L 1154.683068 158.128558 
L 1160.537627 165.557587 
L 1164.777135 170.937229 
L 1168.61288 180.927992 
L 1172.650507 188.613195 
L 1176.890014 193.992837 
L 1182.744573 201.421866 
L 1188.801013 206.545335 
L 1193.040521 211.924976 
L 1199.096961 217.048445 
L 1206.970333 221.91574 
L 1215.045586 224.477474 
L 1221.102026 219.354006 
L 1228.975398 214.486711 
L 1235.233719 211.668803 
L 1243.308973 209.107069 
L 1251.384226 206.545335 
L 1259.459479 209.107069 
L 1267.534732 211.668803 
L 1271.77424 217.048445 
L 1275.609986 227.039208 
z
" style="fill:none;stroke:#000000;stroke-linejoin:miter;"/>
   </g>
   <g id="matplotlib.axis_7"/>
   <g id="matplotlib.axis_8"/>
   <g id="patch_22">
    <path d="M 1017 358.2 
L 1017 86.4 
" style="fill:none;stroke:#000000;stroke-linecap:square;stroke-linejoin:miter;stroke-width:0.8;"/>
   </g>
   <g id="patch_23">
    <path d="M 1296 358.2 
L 1296 86.4 
" style="fill:none;stroke:#000000;stroke-linecap:square;stroke-linejoin:miter;stroke-width:0.8;"/>
   </g>
   <g id="patch_24">
    <path d="M 1017 358.2 
L 1296 358.2 
" style="fill:none;stroke:#000000;stroke-linecap:square;stroke-linejoin:miter;stroke-width:0.8;"/>
   </g>
   <g id="patch_25">
    <path d="M 1017 86.4 
L 1296 86.4 
" style="fill:none;stroke:#000000;stroke-linecap:square;stroke-linejoin:miter;stroke-width:0.8;"/>
   </g>
  </g>
  <g id="axes_5">
   <g id="patch_26">
    <path d="M 180 630 
L 459 630 
L 459 358.2 
L 180 358.2 
z
" style="fill:#ffffff;"/>
   </g>
   <g id="PathCollection_9">
    <defs>
     <path d="M 0 3 
C 0.795609 3 1.55874 2.683901 2.12132 2.12132 
C 2.683901 1.55874 3 0.795609 3 -0 
C 3 -0.795609 2.683901 -1.55874 2.12132 -2.12132 
C 1.55874 -2.683901 0.795609 -3 0 -3 
C -0.795609 -3 -1.55874 -2.683901 -2.12132 -2.12132 
C -2.683901 -1.55874 -3 -0.795609 -3 0 
C -3 0.795609 -2.683901 1.55874 -2.12132 2.12132 
C -1.55874 2.683901 -0.795609 3 0 3 
z
" id="C4_0_ca8750cc91"/>
    </defs>
    <g clip-path="url(#pe9505d94b3)">
     <use style="fill:#808080;fill-opacity:0.8;stroke:#808080;stroke-opacity:0.8;" x="353.381636" xlink:href="#C4_0_ca8750cc91" y="556.971534"/>
    </g>
    <g clip-path="url(#pe9505d94b3)">
     <use style="fill:#808080;fill-opacity:0.8;stroke:#808080;stroke-opacity:0.8;" x="351.215831" xlink:href="#C4_0_ca8750cc91" y="550.816288"/>
    </g>
    <g clip-path="url(#pe9505d94b3)">
     <use style="fill:#808080;fill-opacity:0.8;stroke:#808080;stroke-opacity:0.8;" x="364.88236" xlink:href="#C4_0_ca8750cc91" y="547.43291"/>
    </g>
    <g clip-path="url(#pe9505d94b3)">
     <use style="fill:#808080;fill-opacity:0.8;stroke:#808080;stroke-opacity:0.8;" x="402.596027" xlink:href="#C4_0_ca8750cc91" y="546.717513"/>
    </g>
    <g clip-path="url(#pe9505d94b3)">
     <use style="fill:#808080;fill-opacity:0.8;stroke:#808080;stroke-opacity:0.8;" x="273.397552" xlink:href="#C4_0_ca8750cc91" y="543.258582"/>
    </g>
    <g clip-path="url(#pe9505d94b3)">
     <use style="fill:#808080;fill-opacity:0.8;stroke:#808080;stroke-opacity:0.8;" x="311.900138" xlink:href="#C4_0_ca8750cc91" y="541.594045"/>
    </g>
    <g clip-path="url(#pe9505d94b3)">
     <use style="fill:#808080;fill-opacity:0.8;stroke:#808080;stroke-opacity:0.8;" x="410.593133" xlink:href="#C4_0_ca8750cc91" y="525.959202"/>
    </g>
    <g clip-path="url(#pe9505d94b3)">
     <use style="fill:#808080;fill-opacity:0.8;stroke:#808080;stroke-opacity:0.8;" x="287.499476" xlink:href="#C4_0_ca8750cc91" y="518.292887"/>
    </g>
    <g clip-path="url(#pe9505d94b3)">
     <use style="fill:#808080;fill-opacity:0.8;stroke:#808080;stroke-opacity:0.8;" x="430.023979" xlink:href="#C4_0_ca8750cc91" y="515.960175"/>
    </g>
    <g clip-path="url(#pe9505d94b3)">
     <use style="fill:#808080;fill-opacity:0.8;stroke:#808080;stroke-opacity:0.8;" x="407.930532" xlink:href="#C4_0_ca8750cc91" y="506.662378"/>
    </g>
    <g clip-path="url(#pe9505d94b3)">
     <use style="fill:#808080;fill-opacity:0.8;stroke:#808080;stroke-opacity:0.8;" x="417.613394" xlink:href="#C4_0_ca8750cc91" y="505.271722"/>
    </g>
    <g clip-path="url(#pe9505d94b3)">
     <use style="fill:#808080;fill-opacity:0.8;stroke:#808080;stroke-opacity:0.8;" x="391.294393" xlink:href="#C4_0_ca8750cc91" y="505.002563"/>
    </g>
    <g clip-path="url(#pe9505d94b3)">
     <use style="fill:#808080;fill-opacity:0.8;stroke:#808080;stroke-opacity:0.8;" x="410.565223" xlink:href="#C4_0_ca8750cc91" y="498.46955"/>
    </g>
    <g clip-path="url(#pe9505d94b3)">
     <use style="fill:#808080;fill-opacity:0.8;stroke:#808080;stroke-opacity:0.8;" x="326.779816" xlink:href="#C4_0_ca8750cc91" y="497.437773"/>
    </g>
    <g clip-path="url(#pe9505d94b3)">
     <use style="fill:#808080;fill-opacity:0.8;stroke:#808080;stroke-opacity:0.8;" x="426.499894" xlink:href="#C4_0_ca8750cc91" y="490.571853"/>
    </g>
    <g clip-path="url(#pe9505d94b3)">
     <use style="fill:#808080;fill-opacity:0.8;stroke:#808080;stroke-opacity:0.8;" x="297.293977" xlink:href="#C4_0_ca8750cc91" y="449.721045"/>
    </g>
    <g clip-path="url(#pe9505d94b3)">
     <use style="fill:#808080;fill-opacity:0.8;stroke:#808080;stroke-opacity:0.8;" x="279.565632" xlink:href="#C4_0_ca8750cc91" y="424.634937"/>
    </g>
    <g clip-path="url(#pe9505d94b3)">
     <use style="fill:#808080;fill-opacity:0.8;stroke:#808080;stroke-opacity:0.8;" x="260.270614" xlink:href="#C4_0_ca8750cc91" y="424.344528"/>
    </g>
    <g clip-path="url(#pe9505d94b3)">
     <use style="fill:#808080;fill-opacity:0.8;stroke:#808080;stroke-opacity:0.8;" x="227.059738" xlink:href="#C4_0_ca8750cc91" y="484.640907"/>
    </g>
    <g clip-path="url(#pe9505d94b3)">
     <use style="fill:#808080;fill-opacity:0.8;stroke:#808080;stroke-opacity:0.8;" x="242.691122" xlink:href="#C4_0_ca8750cc91" y="450.268807"/>
    </g>
    <g clip-path="url(#pe9505d94b3)">
     <use style="fill:#808080;fill-opacity:0.8;stroke:#808080;stroke-opacity:0.8;" x="229.487896" xlink:href="#C4_0_ca8750cc91" y="435.05187"/>
    </g>
    <g clip-path="url(#pe9505d94b3)">
     <use style="fill:#808080;fill-opacity:0.8;stroke:#808080;stroke-opacity:0.8;" x="276.086202" xlink:href="#C4_0_ca8750cc91" y="574.679375"/>
    </g>
    <g clip-path="url(#pe9505d94b3)">
     <use style="fill:#808080;fill-opacity:0.8;stroke:#808080;stroke-opacity:0.8;" x="281.14347" xlink:href="#C4_0_ca8750cc91" y="569.619654"/>
    </g>
   </g>
   <g id="PathCollection_10">
    <defs>
     <path d="M 0 4.242641 
C 1.125161 4.242641 2.204391 3.795609 3 3 
C 3.795609 2.204391 4.242641 1.125161 4.242641 -0 
C 4.242641 -1.125161 3.795609 -2.204391 3 -3 
C 2.204391 -3.795609 1.125161 -4.242641 0 -4.242641 
C -1.125161 -4.242641 -2.204391 -3.795609 -3 -3 
C -3.795609 -2.204391 -4.242641 -1.125161 -4.242641 0 
C -4.242641 1.125161 -3.795609 2.204391 -3 3 
C -2.204391 3.795609 -1.125161 4.242641 0 4.242641 
z
" id="C5_0_6c73f83b27"/>
    </defs>
    <g clip-path="url(#pe9505d94b3)">
     <use style="fill:#ff0000;fill-opacity:0.8;stroke:#ff0000;stroke-opacity:0.8;" x="323.445518" xlink:href="#C5_0_6c73f83b27" y="545.945452"/>
    </g>
    <g clip-path="url(#pe9505d94b3)">
     <use style="fill:#ff0000;fill-opacity:0.8;stroke:#ff0000;stroke-opacity:0.8;" x="261.682853" xlink:href="#C5_0_6c73f83b27" y="534.015089"/>
    </g>
   </g>
   <g id="patch_27">
    <path clip-path="url(#pe9505d94b3)" d="M 440.83068 481.163242 
L 438.811867 491.410179 
L 438.811867 504.21885 
L 436.591172 512.160226 
L 432.755427 522.15099 
L 428.515919 527.530631 
L 422.66136 534.959661 
L 418.421852 540.339303 
L 412.365412 545.462771 
L 406.510854 552.8918 
L 400.454414 558.015269 
L 396.214906 563.39491 
L 390.360347 570.82394 
L 384.303907 575.947408 
L 378.045586 578.765316 
L 370.172214 583.632611 
L 362.096961 586.194345 
L 355.83864 589.012253 
L 349.7822 594.135721 
L 345.744573 601.820924 
L 343.927641 614.373421 
L 335.650507 614.629595 
L 325.55644 614.629595 
L 315.664255 616.935156 
L 307.38712 617.191329 
L 301.33068 622.314797 
L 295.27424 627.438266 
L 287.198987 630 
L 277.10492 630 
L 267.010854 630 
L 258.733719 629.743827 
L 260.954414 621.802451 
L 262.973227 611.555514 
L 264.790159 599.003016 
L 262.771346 588.756079 
L 258.935601 578.765316 
L 256.916787 568.518379 
L 254.897974 558.271442 
L 254.696093 547.768332 
L 250.860347 537.777568 
L 248.639653 529.836192 
L 246.620839 519.589255 
L 242.583213 511.904053 
L 236.728654 504.475024 
L 230.672214 499.351555 
L 224.615774 494.228087 
L 220.376266 488.848445 
L 216.540521 478.857681 
L 216.33864 468.354571 
L 218.559334 460.413195 
L 222.39508 450.422432 
L 224.413893 440.175495 
L 226.432706 429.928558 
L 230.470333 422.243355 
L 236.526773 417.119887 
L 242.583213 411.996418 
L 248.841534 409.178511 
L 256.714906 404.311216 
L 264.992041 404.055042 
L 275.086107 404.055042 
L 281.142547 409.178511 
L 287.400868 411.996418 
L 295.27424 416.863713 
L 301.33068 421.987182 
L 309.405933 424.548916 
L 315.462373 429.672385 
L 323.537627 432.234119 
L 327.777135 437.613761 
L 331.814761 445.298963 
L 333.833575 455.5459 
L 337.871201 463.231103 
L 343.72576 470.660132 
L 349.7822 475.7836 
L 355.83864 480.907069 
L 361.89508 486.030537 
L 367.95152 491.154006 
L 372.191027 496.533648 
L 378.045586 503.962677 
L 386.120839 501.400943 
L 391.975398 493.971913 
L 396.214906 488.592271 
L 402.069465 481.163242 
L 406.308973 475.7836 
L 412.365412 470.660132 
L 418.421852 465.536664 
L 426.497106 462.974929 
L 432.755427 460.669369 
L 438.609986 468.098398 
L 438.811867 478.601508 
z
" style="fill:none;stroke:#000000;stroke-linejoin:miter;"/>
   </g>
   <g id="matplotlib.axis_9"/>
   <g id="matplotlib.axis_10"/>
   <g id="patch_28">
    <path d="M 180 630 
L 180 358.2 
" style="fill:none;stroke:#000000;stroke-linecap:square;stroke-linejoin:miter;stroke-width:0.8;"/>
   </g>
   <g id="patch_29">
    <path d="M 459 630 
L 459 358.2 
" style="fill:none;stroke:#000000;stroke-linecap:square;stroke-linejoin:miter;stroke-width:0.8;"/>
   </g>
   <g id="patch_30">
    <path d="M 180 630 
L 459 630 
" style="fill:none;stroke:#000000;stroke-linecap:square;stroke-linejoin:miter;stroke-width:0.8;"/>
   </g>
   <g id="patch_31">
    <path d="M 180 358.2 
L 459 358.2 
" style="fill:none;stroke:#000000;stroke-linecap:square;stroke-linejoin:miter;stroke-width:0.8;"/>
   </g>
  </g>
  <g id="axes_6">
   <g id="patch_32">
    <path d="M 459 630 
L 738 630 
L 738 358.2 
L 459 358.2 
z
" style="fill:#ffffff;"/>
   </g>
   <g id="PathCollection_11">
    <defs>
     <path d="M 0 3 
C 0.795609 3 1.55874 2.683901 2.12132 2.12132 
C 2.683901 1.55874 3 0.795609 3 -0 
C 3 -0.795609 2.683901 -1.55874 2.12132 -2.12132 
C 1.55874 -2.683901 0.795609 -3 0 -3 
C -0.795609 -3 -1.55874 -2.683901 -2.12132 -2.12132 
C -2.683901 -1.55874 -3 -0.795609 -3 0 
C -3 0.795609 -2.683901 1.55874 -2.12132 2.12132 
C -1.55874 2.683901 -0.795609 3 0 3 
z
" id="C6_0_1a0b4dae65"/>
    </defs>
    <g clip-path="url(#p2d0336e238)">
     <use style="fill:#808080;fill-opacity:0.8;stroke:#808080;stroke-opacity:0.8;" x="609.063876" xlink:href="#C6_0_1a0b4dae65" y="558.395244"/>
    </g>
    <g clip-path="url(#p2d0336e238)">
     <use style="fill:#808080;fill-opacity:0.8;stroke:#808080;stroke-opacity:0.8;" x="642.031006" xlink:href="#C6_0_1a0b4dae65" y="556.42141"/>
    </g>
    <g clip-path="url(#p2d0336e238)">
     <use style="fill:#808080;fill-opacity:0.8;stroke:#808080;stroke-opacity:0.8;" x="663.102952" xlink:href="#C6_0_1a0b4dae65" y="554.896175"/>
    </g>
    <g clip-path="url(#p2d0336e238)">
     <use style="fill:#808080;fill-opacity:0.8;stroke:#808080;stroke-opacity:0.8;" x="649.922054" xlink:href="#C6_0_1a0b4dae65" y="548.049143"/>
    </g>
    <g clip-path="url(#p2d0336e238)">
     <use style="fill:#808080;fill-opacity:0.8;stroke:#808080;stroke-opacity:0.8;" x="600.519737" xlink:href="#C6_0_1a0b4dae65" y="546.134335"/>
    </g>
    <g clip-path="url(#p2d0336e238)">
     <use style="fill:#808080;fill-opacity:0.8;stroke:#808080;stroke-opacity:0.8;" x="699.752323" xlink:href="#C6_0_1a0b4dae65" y="535.951146"/>
    </g>
    <g clip-path="url(#p2d0336e238)">
     <use style="fill:#808080;fill-opacity:0.8;stroke:#808080;stroke-opacity:0.8;" x="710.151537" xlink:href="#C6_0_1a0b4dae65" y="527.914148"/>
    </g>
    <g clip-path="url(#p2d0336e238)">
     <use style="fill:#808080;fill-opacity:0.8;stroke:#808080;stroke-opacity:0.8;" x="666.71821" xlink:href="#C6_0_1a0b4dae65" y="520.363524"/>
    </g>
    <g clip-path="url(#p2d0336e238)">
     <use style="fill:#808080;fill-opacity:0.8;stroke:#808080;stroke-opacity:0.8;" x="714.023566" xlink:href="#C6_0_1a0b4dae65" y="510.215751"/>
    </g>
    <g clip-path="url(#p2d0336e238)">
     <use style="fill:#808080;fill-opacity:0.8;stroke:#808080;stroke-opacity:0.8;" x="609.294598" xlink:href="#C6_0_1a0b4dae65" y="490.288528"/>
    </g>
    <g clip-path="url(#p2d0336e238)">
     <use style="fill:#808080;fill-opacity:0.8;stroke:#808080;stroke-opacity:0.8;" x="717.235061" xlink:href="#C6_0_1a0b4dae65" y="473.06234"/>
    </g>
    <g clip-path="url(#p2d0336e238)">
     <use style="fill:#808080;fill-opacity:0.8;stroke:#808080;stroke-opacity:0.8;" x="584.36923" xlink:href="#C6_0_1a0b4dae65" y="449.300779"/>
    </g>
    <g clip-path="url(#p2d0336e238)">
     <use style="fill:#808080;fill-opacity:0.8;stroke:#808080;stroke-opacity:0.8;" x="546.387629" xlink:href="#C6_0_1a0b4dae65" y="544.486326"/>
    </g>
    <g clip-path="url(#p2d0336e238)">
     <use style="fill:#808080;fill-opacity:0.8;stroke:#808080;stroke-opacity:0.8;" x="570.237536" xlink:href="#C6_0_1a0b4dae65" y="465.119783"/>
    </g>
   </g>
   <g id="PathCollection_12">
    <defs>
     <path d="M 0 4.242641 
C 1.125161 4.242641 2.204391 3.795609 3 3 
C 3.795609 2.204391 4.242641 1.125161 4.242641 -0 
C 4.242641 -1.125161 3.795609 -2.204391 3 -3 
C 2.204391 -3.795609 1.125161 -4.242641 0 -4.242641 
C -1.125161 -4.242641 -2.204391 -3.795609 -3 -3 
C -3.795609 -2.204391 -4.242641 -1.125161 -4.242641 0 
C -4.242641 1.125161 -3.795609 2.204391 -3 3 
C -2.204391 3.795609 -1.125161 4.242641 0 4.242641 
z
" id="C7_0_b4128f52c7"/>
    </defs>
    <g clip-path="url(#p2d0336e238)">
     <use style="fill:#ff0000;fill-opacity:0.8;stroke:#ff0000;stroke-opacity:0.8;" x="597.819923" xlink:href="#C7_0_b4128f52c7" y="555.453382"/>
    </g>
    <g clip-path="url(#p2d0336e238)">
     <use style="fill:#ff0000;fill-opacity:0.8;stroke:#ff0000;stroke-opacity:0.8;" x="610.731026" xlink:href="#C7_0_b4128f52c7" y="544.380078"/>
    </g>
    <g clip-path="url(#p2d0336e238)">
     <use style="fill:#ff0000;fill-opacity:0.8;stroke:#ff0000;stroke-opacity:0.8;" x="539.96836" xlink:href="#C7_0_b4128f52c7" y="533.132058"/>
    </g>
   </g>
   <g id="patch_33">
    <path clip-path="url(#p2d0336e238)" d="M 729.924747 465.792837 
L 729.924747 478.601508 
L 727.905933 488.848445 
L 725.88712 499.095382 
L 723.666425 507.036758 
L 719.628799 514.72196 
L 715.591172 522.407163 
L 709.736614 529.836192 
L 703.680174 534.959661 
L 699.440666 540.339303 
L 693.384226 545.462771 
L 687.327786 550.586239 
L 681.271346 555.709708 
L 675.214906 560.833176 
L 669.158466 565.956645 
L 661.285094 570.82394 
L 655.228654 575.947408 
L 648.970333 578.765316 
L 640.89508 581.32705 
L 630.801013 581.32705 
L 620.706946 581.32705 
L 614.650507 586.450518 
L 614.852388 596.441282 
L 618.890014 604.126484 
L 622.72576 614.117248 
L 616.66932 614.629595 
L 606.575253 614.629595 
L 596.481187 614.629595 
L 588.405933 617.191329 
L 580.532562 622.058624 
L 574.476122 627.182092 
L 568.2178 630 
L 558.123734 630 
L 548.029667 630 
L 543.992041 626.925919 
L 548.029667 619.240716 
L 549.846599 606.688219 
L 549.846599 599.003016 
L 548.029667 586.450518 
L 546.010854 576.203582 
L 543.790159 568.262205 
L 541.771346 558.015269 
L 539.752533 547.768332 
L 537.733719 537.521395 
L 537.935601 527.018285 
L 541.771346 517.027521 
L 543.992041 509.086145 
L 547.827786 499.095382 
L 551.865412 491.410179 
L 551.865412 478.601508 
L 551.865412 465.792837 
L 554.086107 457.851461 
L 559.940666 450.422432 
L 564.180174 445.04279 
L 572.053546 440.175495 
L 580.128799 437.613761 
L 588.405933 437.357587 
L 598.5 437.357587 
L 606.777135 437.613761 
L 614.852388 440.175495 
L 618.890014 447.860697 
L 620.908828 458.107634 
L 624.744573 468.098398 
L 628.7822 475.7836 
L 634.83864 480.907069 
L 637.059334 488.848445 
L 639.078148 499.095382 
L 639.078148 511.904053 
L 639.078148 524.712724 
L 644.932706 532.141753 
L 653.007959 529.580019 
L 659.064399 524.45655 
L 663.102026 516.771348 
L 667.139653 509.086145 
L 671.177279 501.400943 
L 677.031838 493.971913 
L 681.069465 486.286711 
L 685.308973 480.907069 
L 689.346599 473.221866 
L 695.201158 465.792837 
L 699.440666 460.413195 
L 705.295224 452.984166 
L 711.553546 450.166258 
L 721.647612 450.166258 
L 725.88712 455.5459 
L 729.722865 465.536664 
z
" style="fill:none;stroke:#000000;stroke-linejoin:miter;"/>
   </g>
   <g id="matplotlib.axis_11"/>
   <g id="matplotlib.axis_12"/>
   <g id="patch_34">
    <path d="M 459 630 
L 459 358.2 
" style="fill:none;stroke:#000000;stroke-linecap:square;stroke-linejoin:miter;stroke-width:0.8;"/>
   </g>
   <g id="patch_35">
    <path d="M 738 630 
L 738 358.2 
" style="fill:none;stroke:#000000;stroke-linecap:square;stroke-linejoin:miter;stroke-width:0.8;"/>
   </g>
   <g id="patch_36">
    <path d="M 459 630 
L 738 630 
" style="fill:none;stroke:#000000;stroke-linecap:square;stroke-linejoin:miter;stroke-width:0.8;"/>
   </g>
   <g id="patch_37">
    <path d="M 459 358.2 
L 738 358.2 
" style="fill:none;stroke:#000000;stroke-linecap:square;stroke-linejoin:miter;stroke-width:0.8;"/>
   </g>
  </g>
  <g id="axes_7">
   <g id="patch_38">
    <path d="M 738 630 
L 1017 630 
L 1017 358.2 
L 738 358.2 
z
" style="fill:#ffffff;"/>
   </g>
   <g id="PathCollection_13">
    <defs>
     <path d="M 0 3 
C 0.795609 3 1.55874 2.683901 2.12132 2.12132 
C 2.683901 1.55874 3 0.795609 3 -0 
C 3 -0.795609 2.683901 -1.55874 2.12132 -2.12132 
C 1.55874 -2.683901 0.795609 -3 0 -3 
C -0.795609 -3 -1.55874 -2.683901 -2.12132 -2.12132 
C -2.683901 -1.55874 -3 -0.795609 -3 0 
C -3 0.795609 -2.683901 1.55874 -2.12132 2.12132 
C -1.55874 2.683901 -0.795609 3 0 3 
z
" id="C8_0_6739895213"/>
    </defs>
    <g clip-path="url(#p3c74ebf09c)">
     <use style="fill:#808080;fill-opacity:0.8;stroke:#808080;stroke-opacity:0.8;" x="962.523668" xlink:href="#C8_0_6739895213" y="488.867178"/>
    </g>
    <g clip-path="url(#p3c74ebf09c)">
     <use style="fill:#808080;fill-opacity:0.8;stroke:#808080;stroke-opacity:0.8;" x="988.574734" xlink:href="#C8_0_6739895213" y="476.485856"/>
    </g>
   </g>
   <g id="PathCollection_14"/>
   <g id="patch_39">
    <path clip-path="url(#p3c74ebf09c)" d="M 1017 460.669369 
L 1017 473.47804 
L 1014.981187 483.724976 
L 1012.962373 493.971913 
L 1008.924747 501.657116 
L 1004.88712 509.342319 
L 1000.849493 517.027521 
L 994.793054 522.15099 
L 988.736614 527.274458 
L 982.478292 530.092366 
L 976.421852 535.215834 
L 968.346599 537.777568 
L 960.069465 537.521395 
L 954.013025 532.397926 
L 951.994211 522.15099 
L 952.196093 511.647879 
L 956.031838 501.657116 
L 960.069465 493.971913 
L 962.290159 486.030537 
L 966.125904 476.039774 
L 970.163531 468.354571 
L 974.403039 462.974929 
L 980.257598 455.5459 
L 986.314038 450.422432 
L 992.572359 447.604524 
L 1000.647612 445.04279 
L 1008.722865 447.604524 
L 1012.962373 452.984166 
z
" style="fill:none;stroke:#000000;stroke-linejoin:miter;"/>
   </g>
   <g id="matplotlib.axis_13"/>
   <g id="matplotlib.axis_14"/>
   <g id="patch_40">
    <path d="M 738 630 
L 738 358.2 
" style="fill:none;stroke:#000000;stroke-linecap:square;stroke-linejoin:miter;stroke-width:0.8;"/>
   </g>
   <g id="patch_41">
    <path d="M 1017 630 
L 1017 358.2 
" style="fill:none;stroke:#000000;stroke-linecap:square;stroke-linejoin:miter;stroke-width:0.8;"/>
   </g>
   <g id="patch_42">
    <path d="M 738 630 
L 1017 630 
" style="fill:none;stroke:#000000;stroke-linecap:square;stroke-linejoin:miter;stroke-width:0.8;"/>
   </g>
   <g id="patch_43">
    <path d="M 738 358.2 
L 1017 358.2 
" style="fill:none;stroke:#000000;stroke-linecap:square;stroke-linejoin:miter;stroke-width:0.8;"/>
   </g>
  </g>
  <g id="axes_8"/>
  <g id="text_1">
   <!-- L6 IT cell has Timp3 peripheral score -0.06 -->
   <g transform="translate(592.120312 23.518125)scale(0.12 -0.12)">
    <defs>
     <path d="M 9.8125 72.90625 
L 19.671875 72.90625 
L 19.671875 8.296875 
L 55.171875 8.296875 
L 55.171875 0 
L 9.8125 0 
z
" id="DejaVuSans-76"/>
     <path d="M 33.015625 40.375 
Q 26.375 40.375 22.484375 35.828125 
Q 18.609375 31.296875 18.609375 23.390625 
Q 18.609375 15.53125 22.484375 10.953125 
Q 26.375 6.390625 33.015625 6.390625 
Q 39.65625 6.390625 43.53125 10.953125 
Q 47.40625 15.53125 47.40625 23.390625 
Q 47.40625 31.296875 43.53125 35.828125 
Q 39.65625 40.375 33.015625 40.375 
z
M 52.59375 71.296875 
L 52.59375 62.3125 
Q 48.875 64.0625 45.09375 64.984375 
Q 41.3125 65.921875 37.59375 65.921875 
Q 27.828125 65.921875 22.671875 59.328125 
Q 17.53125 52.734375 16.796875 39.40625 
Q 19.671875 43.65625 24.015625 45.921875 
Q 28.375 48.1875 33.59375 48.1875 
Q 44.578125 48.1875 50.953125 41.515625 
Q 57.328125 34.859375 57.328125 23.390625 
Q 57.328125 12.15625 50.6875 5.359375 
Q 44.046875 -1.421875 33.015625 -1.421875 
Q 20.359375 -1.421875 13.671875 8.265625 
Q 6.984375 17.96875 6.984375 36.375 
Q 6.984375 53.65625 15.1875 63.9375 
Q 23.390625 74.21875 37.203125 74.21875 
Q 40.921875 74.21875 44.703125 73.484375 
Q 48.484375 72.75 52.59375 71.296875 
z
" id="DejaVuSans-54"/>
     <path id="DejaVuSans-32"/>
     <path d="M 9.8125 72.90625 
L 19.671875 72.90625 
L 19.671875 0 
L 9.8125 0 
z
" id="DejaVuSans-73"/>
     <path d="M -0.296875 72.90625 
L 61.375 72.90625 
L 61.375 64.59375 
L 35.5 64.59375 
L 35.5 0 
L 25.59375 0 
L 25.59375 64.59375 
L -0.296875 64.59375 
z
" id="DejaVuSans-84"/>
     <path d="M 48.78125 52.59375 
L 48.78125 44.1875 
Q 44.96875 46.296875 41.140625 47.34375 
Q 37.3125 48.390625 33.40625 48.390625 
Q 24.65625 48.390625 19.8125 42.84375 
Q 14.984375 37.3125 14.984375 27.296875 
Q 14.984375 17.28125 19.8125 11.734375 
Q 24.65625 6.203125 33.40625 6.203125 
Q 37.3125 6.203125 41.140625 7.25 
Q 44.96875 8.296875 48.78125 10.40625 
L 48.78125 2.09375 
Q 45.015625 0.34375 40.984375 -0.53125 
Q 36.96875 -1.421875 32.421875 -1.421875 
Q 20.0625 -1.421875 12.78125 6.34375 
Q 5.515625 14.109375 5.515625 27.296875 
Q 5.515625 40.671875 12.859375 48.328125 
Q 20.21875 56 33.015625 56 
Q 37.15625 56 41.109375 55.140625 
Q 45.0625 54.296875 48.78125 52.59375 
z
" id="DejaVuSans-99"/>
     <path d="M 56.203125 29.59375 
L 56.203125 25.203125 
L 14.890625 25.203125 
Q 15.484375 15.921875 20.484375 11.0625 
Q 25.484375 6.203125 34.421875 6.203125 
Q 39.59375 6.203125 44.453125 7.46875 
Q 49.3125 8.734375 54.109375 11.28125 
L 54.109375 2.78125 
Q 49.265625 0.734375 44.1875 -0.34375 
Q 39.109375 -1.421875 33.890625 -1.421875 
Q 20.796875 -1.421875 13.15625 6.1875 
Q 5.515625 13.8125 5.515625 26.8125 
Q 5.515625 40.234375 12.765625 48.109375 
Q 20.015625 56 32.328125 56 
Q 43.359375 56 49.78125 48.890625 
Q 56.203125 41.796875 56.203125 29.59375 
z
M 47.21875 32.234375 
Q 47.125 39.59375 43.09375 43.984375 
Q 39.0625 48.390625 32.421875 48.390625 
Q 24.90625 48.390625 20.390625 44.140625 
Q 15.875 39.890625 15.1875 32.171875 
z
" id="DejaVuSans-101"/>
     <path d="M 9.421875 75.984375 
L 18.40625 75.984375 
L 18.40625 0 
L 9.421875 0 
z
" id="DejaVuSans-108"/>
     <path d="M 54.890625 33.015625 
L 54.890625 0 
L 45.90625 0 
L 45.90625 32.71875 
Q 45.90625 40.484375 42.875 44.328125 
Q 39.84375 48.1875 33.796875 48.1875 
Q 26.515625 48.1875 22.3125 43.546875 
Q 18.109375 38.921875 18.109375 30.90625 
L 18.109375 0 
L 9.078125 0 
L 9.078125 75.984375 
L 18.109375 75.984375 
L 18.109375 46.1875 
Q 21.34375 51.125 25.703125 53.5625 
Q 30.078125 56 35.796875 56 
Q 45.21875 56 50.046875 50.171875 
Q 54.890625 44.34375 54.890625 33.015625 
z
" id="DejaVuSans-104"/>
     <path d="M 34.28125 27.484375 
Q 23.390625 27.484375 19.1875 25 
Q 14.984375 22.515625 14.984375 16.5 
Q 14.984375 11.71875 18.140625 8.90625 
Q 21.296875 6.109375 26.703125 6.109375 
Q 34.1875 6.109375 38.703125 11.40625 
Q 43.21875 16.703125 43.21875 25.484375 
L 43.21875 27.484375 
z
M 52.203125 31.203125 
L 52.203125 0 
L 43.21875 0 
L 43.21875 8.296875 
Q 40.140625 3.328125 35.546875 0.953125 
Q 30.953125 -1.421875 24.3125 -1.421875 
Q 15.921875 -1.421875 10.953125 3.296875 
Q 6 8.015625 6 15.921875 
Q 6 25.140625 12.171875 29.828125 
Q 18.359375 34.515625 30.609375 34.515625 
L 43.21875 34.515625 
L 43.21875 35.40625 
Q 43.21875 41.609375 39.140625 45 
Q 35.0625 48.390625 27.6875 48.390625 
Q 23 48.390625 18.546875 47.265625 
Q 14.109375 46.140625 10.015625 43.890625 
L 10.015625 52.203125 
Q 14.9375 54.109375 19.578125 55.046875 
Q 24.21875 56 28.609375 56 
Q 40.484375 56 46.34375 49.84375 
Q 52.203125 43.703125 52.203125 31.203125 
z
" id="DejaVuSans-97"/>
     <path d="M 44.28125 53.078125 
L 44.28125 44.578125 
Q 40.484375 46.53125 36.375 47.5 
Q 32.28125 48.484375 27.875 48.484375 
Q 21.1875 48.484375 17.84375 46.4375 
Q 14.5 44.390625 14.5 40.28125 
Q 14.5 37.15625 16.890625 35.375 
Q 19.28125 33.59375 26.515625 31.984375 
L 29.59375 31.296875 
Q 39.15625 29.25 43.1875 25.515625 
Q 47.21875 21.78125 47.21875 15.09375 
Q 47.21875 7.46875 41.1875 3.015625 
Q 35.15625 -1.421875 24.609375 -1.421875 
Q 20.21875 -1.421875 15.453125 -0.5625 
Q 10.6875 0.296875 5.421875 2 
L 5.421875 11.28125 
Q 10.40625 8.6875 15.234375 7.390625 
Q 20.0625 6.109375 24.8125 6.109375 
Q 31.15625 6.109375 34.5625 8.28125 
Q 37.984375 10.453125 37.984375 14.40625 
Q 37.984375 18.0625 35.515625 20.015625 
Q 33.0625 21.96875 24.703125 23.78125 
L 21.578125 24.515625 
Q 13.234375 26.265625 9.515625 29.90625 
Q 5.8125 33.546875 5.8125 39.890625 
Q 5.8125 47.609375 11.28125 51.796875 
Q 16.75 56 26.8125 56 
Q 31.78125 56 36.171875 55.265625 
Q 40.578125 54.546875 44.28125 53.078125 
z
" id="DejaVuSans-115"/>
     <path d="M 9.421875 54.6875 
L 18.40625 54.6875 
L 18.40625 0 
L 9.421875 0 
z
M 9.421875 75.984375 
L 18.40625 75.984375 
L 18.40625 64.59375 
L 9.421875 64.59375 
z
" id="DejaVuSans-105"/>
     <path d="M 52 44.1875 
Q 55.375 50.25 60.0625 53.125 
Q 64.75 56 71.09375 56 
Q 79.640625 56 84.28125 50.015625 
Q 88.921875 44.046875 88.921875 33.015625 
L 88.921875 0 
L 79.890625 0 
L 79.890625 32.71875 
Q 79.890625 40.578125 77.09375 44.375 
Q 74.3125 48.1875 68.609375 48.1875 
Q 61.625 48.1875 57.5625 43.546875 
Q 53.515625 38.921875 53.515625 30.90625 
L 53.515625 0 
L 44.484375 0 
L 44.484375 32.71875 
Q 44.484375 40.625 41.703125 44.40625 
Q 38.921875 48.1875 33.109375 48.1875 
Q 26.21875 48.1875 22.15625 43.53125 
Q 18.109375 38.875 18.109375 30.90625 
L 18.109375 0 
L 9.078125 0 
L 9.078125 54.6875 
L 18.109375 54.6875 
L 18.109375 46.1875 
Q 21.1875 51.21875 25.484375 53.609375 
Q 29.78125 56 35.6875 56 
Q 41.65625 56 45.828125 52.96875 
Q 50 49.953125 52 44.1875 
z
" id="DejaVuSans-109"/>
     <path d="M 18.109375 8.203125 
L 18.109375 -20.796875 
L 9.078125 -20.796875 
L 9.078125 54.6875 
L 18.109375 54.6875 
L 18.109375 46.390625 
Q 20.953125 51.265625 25.265625 53.625 
Q 29.59375 56 35.59375 56 
Q 45.5625 56 51.78125 48.09375 
Q 58.015625 40.1875 58.015625 27.296875 
Q 58.015625 14.40625 51.78125 6.484375 
Q 45.5625 -1.421875 35.59375 -1.421875 
Q 29.59375 -1.421875 25.265625 0.953125 
Q 20.953125 3.328125 18.109375 8.203125 
z
M 48.6875 27.296875 
Q 48.6875 37.203125 44.609375 42.84375 
Q 40.53125 48.484375 33.40625 48.484375 
Q 26.265625 48.484375 22.1875 42.84375 
Q 18.109375 37.203125 18.109375 27.296875 
Q 18.109375 17.390625 22.1875 11.75 
Q 26.265625 6.109375 33.40625 6.109375 
Q 40.53125 6.109375 44.609375 11.75 
Q 48.6875 17.390625 48.6875 27.296875 
z
" id="DejaVuSans-112"/>
     <path d="M 40.578125 39.3125 
Q 47.65625 37.796875 51.625 33 
Q 55.609375 28.21875 55.609375 21.1875 
Q 55.609375 10.40625 48.1875 4.484375 
Q 40.765625 -1.421875 27.09375 -1.421875 
Q 22.515625 -1.421875 17.65625 -0.515625 
Q 12.796875 0.390625 7.625 2.203125 
L 7.625 11.71875 
Q 11.71875 9.328125 16.59375 8.109375 
Q 21.484375 6.890625 26.8125 6.890625 
Q 36.078125 6.890625 40.9375 10.546875 
Q 45.796875 14.203125 45.796875 21.1875 
Q 45.796875 27.640625 41.28125 31.265625 
Q 36.765625 34.90625 28.71875 34.90625 
L 20.21875 34.90625 
L 20.21875 43.015625 
L 29.109375 43.015625 
Q 36.375 43.015625 40.234375 45.921875 
Q 44.09375 48.828125 44.09375 54.296875 
Q 44.09375 59.90625 40.109375 62.90625 
Q 36.140625 65.921875 28.71875 65.921875 
Q 24.65625 65.921875 20.015625 65.03125 
Q 15.375 64.15625 9.8125 62.3125 
L 9.8125 71.09375 
Q 15.4375 72.65625 20.34375 73.4375 
Q 25.25 74.21875 29.59375 74.21875 
Q 40.828125 74.21875 47.359375 69.109375 
Q 53.90625 64.015625 53.90625 55.328125 
Q 53.90625 49.265625 50.4375 45.09375 
Q 46.96875 40.921875 40.578125 39.3125 
z
" id="DejaVuSans-51"/>
     <path d="M 41.109375 46.296875 
Q 39.59375 47.171875 37.8125 47.578125 
Q 36.03125 48 33.890625 48 
Q 26.265625 48 22.1875 43.046875 
Q 18.109375 38.09375 18.109375 28.8125 
L 18.109375 0 
L 9.078125 0 
L 9.078125 54.6875 
L 18.109375 54.6875 
L 18.109375 46.1875 
Q 20.953125 51.171875 25.484375 53.578125 
Q 30.03125 56 36.53125 56 
Q 37.453125 56 38.578125 55.875 
Q 39.703125 55.765625 41.0625 55.515625 
z
" id="DejaVuSans-114"/>
     <path d="M 30.609375 48.390625 
Q 23.390625 48.390625 19.1875 42.75 
Q 14.984375 37.109375 14.984375 27.296875 
Q 14.984375 17.484375 19.15625 11.84375 
Q 23.34375 6.203125 30.609375 6.203125 
Q 37.796875 6.203125 41.984375 11.859375 
Q 46.1875 17.53125 46.1875 27.296875 
Q 46.1875 37.015625 41.984375 42.703125 
Q 37.796875 48.390625 30.609375 48.390625 
z
M 30.609375 56 
Q 42.328125 56 49.015625 48.375 
Q 55.71875 40.765625 55.71875 27.296875 
Q 55.71875 13.875 49.015625 6.21875 
Q 42.328125 -1.421875 30.609375 -1.421875 
Q 18.84375 -1.421875 12.171875 6.21875 
Q 5.515625 13.875 5.515625 27.296875 
Q 5.515625 40.765625 12.171875 48.375 
Q 18.84375 56 30.609375 56 
z
" id="DejaVuSans-111"/>
     <path d="M 4.890625 31.390625 
L 31.203125 31.390625 
L 31.203125 23.390625 
L 4.890625 23.390625 
z
" id="DejaVuSans-45"/>
     <path d="M 31.78125 66.40625 
Q 24.171875 66.40625 20.328125 58.90625 
Q 16.5 51.421875 16.5 36.375 
Q 16.5 21.390625 20.328125 13.890625 
Q 24.171875 6.390625 31.78125 6.390625 
Q 39.453125 6.390625 43.28125 13.890625 
Q 47.125 21.390625 47.125 36.375 
Q 47.125 51.421875 43.28125 58.90625 
Q 39.453125 66.40625 31.78125 66.40625 
z
M 31.78125 74.21875 
Q 44.046875 74.21875 50.515625 64.515625 
Q 56.984375 54.828125 56.984375 36.375 
Q 56.984375 17.96875 50.515625 8.265625 
Q 44.046875 -1.421875 31.78125 -1.421875 
Q 19.53125 -1.421875 13.0625 8.265625 
Q 6.59375 17.96875 6.59375 36.375 
Q 6.59375 54.828125 13.0625 64.515625 
Q 19.53125 74.21875 31.78125 74.21875 
z
" id="DejaVuSans-48"/>
     <path d="M 10.6875 12.40625 
L 21 12.40625 
L 21 0 
L 10.6875 0 
z
" id="DejaVuSans-46"/>
    </defs>
    <use xlink:href="#DejaVuSans-76"/>
    <use x="55.712891" xlink:href="#DejaVuSans-54"/>
    <use x="119.335938" xlink:href="#DejaVuSans-32"/>
    <use x="151.123047" xlink:href="#DejaVuSans-73"/>
    <use x="180.615234" xlink:href="#DejaVuSans-84"/>
    <use x="241.699219" xlink:href="#DejaVuSans-32"/>
    <use x="273.486328" xlink:href="#DejaVuSans-99"/>
    <use x="328.466797" xlink:href="#DejaVuSans-101"/>
    <use x="389.990234" xlink:href="#DejaVuSans-108"/>
    <use x="417.773438" xlink:href="#DejaVuSans-108"/>
    <use x="445.556641" xlink:href="#DejaVuSans-32"/>
    <use x="477.34375" xlink:href="#DejaVuSans-104"/>
    <use x="540.722656" xlink:href="#DejaVuSans-97"/>
    <use x="602.001953" xlink:href="#DejaVuSans-115"/>
    <use x="654.101562" xlink:href="#DejaVuSans-32"/>
    <use x="685.888672" xlink:href="#DejaVuSans-84"/>
    <use x="743.847656" xlink:href="#DejaVuSans-105"/>
    <use x="771.630859" xlink:href="#DejaVuSans-109"/>
    <use x="869.042969" xlink:href="#DejaVuSans-112"/>
    <use x="932.519531" xlink:href="#DejaVuSans-51"/>
    <use x="996.142578" xlink:href="#DejaVuSans-32"/>
    <use x="1027.929688" xlink:href="#DejaVuSans-112"/>
    <use x="1091.40625" xlink:href="#DejaVuSans-101"/>
    <use x="1152.929688" xlink:href="#DejaVuSans-114"/>
    <use x="1194.042969" xlink:href="#DejaVuSans-105"/>
    <use x="1221.826172" xlink:href="#DejaVuSans-112"/>
    <use x="1285.302734" xlink:href="#DejaVuSans-104"/>
    <use x="1348.681641" xlink:href="#DejaVuSans-101"/>
    <use x="1410.205078" xlink:href="#DejaVuSans-114"/>
    <use x="1451.318359" xlink:href="#DejaVuSans-97"/>
    <use x="1512.597656" xlink:href="#DejaVuSans-108"/>
    <use x="1540.380859" xlink:href="#DejaVuSans-32"/>
    <use x="1572.167969" xlink:href="#DejaVuSans-115"/>
    <use x="1624.267578" xlink:href="#DejaVuSans-99"/>
    <use x="1679.248047" xlink:href="#DejaVuSans-111"/>
    <use x="1740.429688" xlink:href="#DejaVuSans-114"/>
    <use x="1779.292969" xlink:href="#DejaVuSans-101"/>
    <use x="1840.816406" xlink:href="#DejaVuSans-32"/>
    <use x="1872.603516" xlink:href="#DejaVuSans-45"/>
    <use x="1908.6875" xlink:href="#DejaVuSans-48"/>
    <use x="1972.310547" xlink:href="#DejaVuSans-46"/>
    <use x="2004.097656" xlink:href="#DejaVuSans-48"/>
    <use x="2067.720703" xlink:href="#DejaVuSans-54"/>
   </g>
  </g>
  <g id="legend_1">
   <g id="patch_44">
    <path d="M 1369.975 22.678125 
L 1433 22.678125 
Q 1435 22.678125 1435 20.678125 
L 1435 7 
Q 1435 5 1433 5 
L 1369.975 5 
Q 1367.975 5 1367.975 7 
L 1367.975 20.678125 
Q 1367.975 22.678125 1369.975 22.678125 
z
" style="fill:#ffffff;opacity:0.8;stroke:#cccccc;stroke-linejoin:miter;"/>
   </g>
   <g id="patch_45">
    <path d="M 1371.975 16.598438 
L 1391.975 16.598438 
L 1391.975 9.598438 
L 1371.975 9.598438 
z
" style="fill:#ff0000;"/>
   </g>
   <g id="text_2">
    <!-- Timp3 -->
    <g transform="translate(1399.975 16.598438)scale(0.1 -0.1)">
     <use xlink:href="#DejaVuSans-84"/>
     <use x="57.958984" xlink:href="#DejaVuSans-105"/>
     <use x="85.742188" xlink:href="#DejaVuSans-109"/>
     <use x="183.154297" xlink:href="#DejaVuSans-112"/>
     <use x="246.630859" xlink:href="#DejaVuSans-51"/>
    </g>
   </g>
  </g>
 </g>
 <defs>
  <clipPath id="p107ac501e5">
   <rect height="271.8" width="279" x="180" y="86.4"/>
  </clipPath>
  <clipPath id="p77efbbf9d2">
   <rect height="271.8" width="279" x="459" y="86.4"/>
  </clipPath>
  <clipPath id="pae04730aa2">
   <rect height="271.8" width="279" x="738" y="86.4"/>
  </clipPath>
  <clipPath id="p3729fba9b7">
   <rect height="271.8" width="279" x="1017" y="86.4"/>
  </clipPath>
  <clipPath id="pe9505d94b3">
   <rect height="271.8" width="279" x="180" y="358.2"/>
  </clipPath>
  <clipPath id="p2d0336e238">
   <rect height="271.8" width="279" x="459" y="358.2"/>
  </clipPath>
  <clipPath id="p3c74ebf09c">
   <rect height="271.8" width="279" x="738" y="358.2"/>
  </clipPath>
 </defs>
</svg>
