<?xml version="1.0" encoding="utf-8" standalone="no"?>
<!DOCTYPE svg PUBLIC "-//W3C//DTD SVG 1.1//EN"
  "http://www.w3.org/Graphics/SVG/1.1/DTD/svg11.dtd">
<!-- Created with matplotlib (https://matplotlib.org/) -->
<svg height="720pt" version="1.1" viewBox="0 0 1440 720" width="1440pt" xmlns="http://www.w3.org/2000/svg" xmlns:xlink="http://www.w3.org/1999/xlink">
 <metadata>
  <rdf:RDF xmlns:cc="http://creativecommons.org/ns#" xmlns:dc="http://purl.org/dc/elements/1.1/" xmlns:rdf="http://www.w3.org/1999/02/22-rdf-syntax-ns#">
   <cc:Work>
    <dc:type rdf:resource="http://purl.org/dc/dcmitype/StillImage"/>
    <dc:date>2022-03-23T21:23:48.870655</dc:date>
    <dc:format>image/svg+xml</dc:format>
    <dc:creator>
     <cc:Agent>
      <dc:title>Matplotlib v3.3.3, https://matplotlib.org/</dc:title>
     </cc:Agent>
    </dc:creator>
   </cc:Work>
  </rdf:RDF>
 </metadata>
 <defs>
  <style type="text/css">*{stroke-linecap:butt;stroke-linejoin:round;}</style>
 </defs>
 <g id="figure_1">
  <g id="patch_1">
   <path d="M 0 720 
L 1440 720 
L 1440 0 
L 0 0 
z
" style="fill:none;"/>
  </g>
  <g id="axes_1">
   <g id="patch_2">
    <path d="M 180 358.2 
L 459 358.2 
L 459 86.4 
L 180 86.4 
z
" style="fill:#ffffff;"/>
   </g>
   <g id="PathCollection_1">
    <defs>
     <path d="M 0 3 
C 0.795609 3 1.55874 2.683901 2.12132 2.12132 
C 2.683901 1.55874 3 0.795609 3 -0 
C 3 -0.795609 2.683901 -1.55874 2.12132 -2.12132 
C 1.55874 -2.683901 0.795609 -3 0 -3 
C -0.795609 -3 -1.55874 -2.683901 -2.12132 -2.12132 
C -2.683901 -1.55874 -3 -0.795609 -3 0 
C -3 0.795609 -2.683901 1.55874 -2.12132 2.12132 
C -1.55874 2.683901 -0.795609 3 0 3 
z
" id="C0_0_d29d00649f"/>
    </defs>
    <g clip-path="url(#p28eaf913a1)">
     <use style="fill:#808080;fill-opacity:0.8;stroke:#808080;stroke-opacity:0.8;" x="409.863039" xlink:href="#C0_0_d29d00649f" y="282.338855"/>
    </g>
    <g clip-path="url(#p28eaf913a1)">
     <use style="fill:#808080;fill-opacity:0.8;stroke:#808080;stroke-opacity:0.8;" x="382.408704" xlink:href="#C0_0_d29d00649f" y="269.019969"/>
    </g>
    <g clip-path="url(#p28eaf913a1)">
     <use style="fill:#808080;fill-opacity:0.8;stroke:#808080;stroke-opacity:0.8;" x="372.074944" xlink:href="#C0_0_d29d00649f" y="268.052201"/>
    </g>
    <g clip-path="url(#p28eaf913a1)">
     <use style="fill:#808080;fill-opacity:0.8;stroke:#808080;stroke-opacity:0.8;" x="392.57744" xlink:href="#C0_0_d29d00649f" y="266.447551"/>
    </g>
    <g clip-path="url(#p28eaf913a1)">
     <use style="fill:#808080;fill-opacity:0.8;stroke:#808080;stroke-opacity:0.8;" x="293.022835" xlink:href="#C0_0_d29d00649f" y="251.440561"/>
    </g>
    <g clip-path="url(#p28eaf913a1)">
     <use style="fill:#808080;fill-opacity:0.8;stroke:#808080;stroke-opacity:0.8;" x="259.671552" xlink:href="#C0_0_d29d00649f" y="244.005879"/>
    </g>
    <g clip-path="url(#p28eaf913a1)">
     <use style="fill:#808080;fill-opacity:0.8;stroke:#808080;stroke-opacity:0.8;" x="315.79387" xlink:href="#C0_0_d29d00649f" y="219.963949"/>
    </g>
    <g clip-path="url(#p28eaf913a1)">
     <use style="fill:#808080;fill-opacity:0.8;stroke:#808080;stroke-opacity:0.8;" x="384.100708" xlink:href="#C0_0_d29d00649f" y="219.313891"/>
    </g>
    <g clip-path="url(#p28eaf913a1)">
     <use style="fill:#808080;fill-opacity:0.8;stroke:#808080;stroke-opacity:0.8;" x="240.808838" xlink:href="#C0_0_d29d00649f" y="213.889413"/>
    </g>
    <g clip-path="url(#p28eaf913a1)">
     <use style="fill:#808080;fill-opacity:0.8;stroke:#808080;stroke-opacity:0.8;" x="353.212231" xlink:href="#C0_0_d29d00649f" y="202.19421"/>
    </g>
    <g clip-path="url(#p28eaf913a1)">
     <use style="fill:#808080;fill-opacity:0.8;stroke:#808080;stroke-opacity:0.8;" x="208.029912" xlink:href="#C0_0_d29d00649f" y="180.737875"/>
    </g>
    <g clip-path="url(#p28eaf913a1)">
     <use style="fill:#808080;fill-opacity:0.8;stroke:#808080;stroke-opacity:0.8;" x="313.069952" xlink:href="#C0_0_d29d00649f" y="175.161131"/>
    </g>
    <g clip-path="url(#p28eaf913a1)">
     <use style="fill:#808080;fill-opacity:0.8;stroke:#808080;stroke-opacity:0.8;" x="297.445024" xlink:href="#C0_0_d29d00649f" y="170.459917"/>
    </g>
    <g clip-path="url(#p28eaf913a1)">
     <use style="fill:#808080;fill-opacity:0.8;stroke:#808080;stroke-opacity:0.8;" x="228.108362" xlink:href="#C0_0_d29d00649f" y="169.673697"/>
    </g>
    <g clip-path="url(#p28eaf913a1)">
     <use style="fill:#808080;fill-opacity:0.8;stroke:#808080;stroke-opacity:0.8;" x="386.248091" xlink:href="#C0_0_d29d00649f" y="169.364772"/>
    </g>
    <g clip-path="url(#p28eaf913a1)">
     <use style="fill:#808080;fill-opacity:0.8;stroke:#808080;stroke-opacity:0.8;" x="244.263869" xlink:href="#C0_0_d29d00649f" y="114.778861"/>
    </g>
   </g>
   <g id="PathCollection_2">
    <defs>
     <path d="M 0 4.242641 
C 1.125161 4.242641 2.204391 3.795609 3 3 
C 3.795609 2.204391 4.242641 1.125161 4.242641 0 
C 4.242641 -1.125161 3.795609 -2.204391 3 -3 
C 2.204391 -3.795609 1.125161 -4.242641 0 -4.242641 
C -1.125161 -4.242641 -2.204391 -3.795609 -3 -3 
C -3.795609 -2.204391 -4.242641 -1.125161 -4.242641 0 
C -4.242641 1.125161 -3.795609 2.204391 -3 3 
C -2.204391 3.795609 -1.125161 4.242641 0 4.242641 
z
" id="mf4da91ef36" style="stroke:#ff0000;stroke-opacity:0.8;"/>
    </defs>
    <g clip-path="url(#p28eaf913a1)">
     <use style="fill:#ff0000;fill-opacity:0.8;stroke:#ff0000;stroke-opacity:0.8;" x="295.303908" xlink:href="#mf4da91ef36" y="226.552384"/>
    </g>
   </g>
   <g id="patch_3">
    <path clip-path="url(#p28eaf913a1)" d="M 443.13485 227.939334 
L 443.13485 235.882057 
L 443.13485 243.824781 
L 443.13485 251.767504 
L 443.13485 259.710228 
L 440.8684 266.064407 
L 440.641755 272.57744 
L 438.375305 278.931619 
L 436.108855 285.285798 
L 431.8026 291.481122 
L 429.536149 297.835301 
L 427.269699 304.18948 
L 425.003249 310.543659 
L 420.470349 315.309293 
L 415.937449 320.074927 
L 413.444354 324.999416 
L 408.911454 329.76505 
L 402.338749 334.371829 
L 395.539399 337.548919 
L 390.779854 340.884863 
L 383.980504 344.061952 
L 374.914703 345.650497 
L 367.888708 347.080187 
L 358.822908 345.491642 
L 349.983753 342.473407 
L 340.917953 340.884863 
L 331.852153 339.296318 
L 322.786353 337.707773 
L 315.987002 334.530684 
L 308.961007 332.783285 
L 302.161657 329.606195 
L 295.588952 324.999416 
L 288.789602 321.822326 
L 281.990252 318.645237 
L 275.190902 315.468147 
L 268.164907 313.720748 
L 261.365556 310.543659 
L 254.566206 307.366569 
L 247.993501 302.75979 
L 243.233956 299.423846 
L 236.661251 294.817066 
L 232.128351 290.051432 
L 227.595451 285.285798 
L 223.062551 280.520164 
L 218.529651 275.75453 
L 213.770106 272.418586 
L 209.237206 267.652951 
L 204.704305 262.887317 
L 200.171405 258.121683 
L 200.171405 250.17896 
L 197.904955 243.824781 
L 195.638505 237.470602 
L 193.372055 231.116423 
L 191.105605 224.762244 
L 188.839155 218.408065 
L 188.839155 210.465342 
L 188.839155 202.522618 
L 191.105605 196.16844 
L 193.372055 189.814261 
L 195.638505 183.460082 
L 195.638505 175.517358 
L 197.904955 169.163179 
L 198.1316 162.650146 
L 200.39805 156.295967 
L 204.704305 150.100643 
L 206.970755 143.746464 
L 207.1974 137.233431 
L 209.237206 129.449562 
L 211.503656 123.095383 
L 213.770106 116.741204 
L 216.263201 111.816715 
L 220.796101 107.051081 
L 229.861901 105.462537 
L 239.154346 105.621391 
L 250.033306 105.621391 
L 254.566206 100.855757 
L 256.832656 94.501578 
L 259.099106 88.147399 
L 266.125102 86.4 
L 272.924452 89.577089 
L 275.417547 94.501578 
L 273.151097 100.855757 
L 268.391552 104.191701 
L 259.325751 105.780245 
L 255.019496 111.97557 
L 257.285946 118.329749 
L 261.818846 123.095383 
L 266.351747 127.861017 
L 272.924452 132.467797 
L 279.723802 135.644886 
L 286.523152 138.821975 
L 295.588952 140.41052 
L 304.654752 141.999065 
L 313.720552 143.58761 
L 320.746548 145.335009 
L 329.585703 148.353244 
L 338.651503 149.941788 
L 347.717303 151.530333 
L 354.743298 153.277732 
L 363.582453 156.295967 
L 370.608448 158.043366 
L 379.447604 161.061601 
L 388.513404 162.650146 
L 395.539399 164.397545 
L 402.338749 167.574635 
L 406.871649 172.340269 
L 411.177904 178.535593 
L 413.670999 183.460082 
L 415.937449 189.814261 
L 420.470349 194.579895 
L 424.776604 200.775219 
L 429.309504 205.540853 
L 433.842405 210.306487 
L 436.3355 215.230976 
L 440.641755 221.4263 
L 442.908205 227.780479 
z
" style="fill:none;stroke:#000000;stroke-linejoin:miter;"/>
   </g>
   <g id="matplotlib.axis_1"/>
   <g id="matplotlib.axis_2"/>
   <g id="patch_4">
    <path d="M 180 358.2 
L 180 86.4 
" style="fill:none;stroke:#000000;stroke-linecap:square;stroke-linejoin:miter;stroke-width:0.8;"/>
   </g>
   <g id="patch_5">
    <path d="M 459 358.2 
L 459 86.4 
" style="fill:none;stroke:#000000;stroke-linecap:square;stroke-linejoin:miter;stroke-width:0.8;"/>
   </g>
   <g id="patch_6">
    <path d="M 180 358.2 
L 459 358.2 
" style="fill:none;stroke:#000000;stroke-linecap:square;stroke-linejoin:miter;stroke-width:0.8;"/>
   </g>
   <g id="patch_7">
    <path d="M 180 86.4 
L 459 86.4 
" style="fill:none;stroke:#000000;stroke-linecap:square;stroke-linejoin:miter;stroke-width:0.8;"/>
   </g>
  </g>
  <g id="axes_2">
   <g id="patch_8">
    <path d="M 459 358.2 
L 738 358.2 
L 738 86.4 
L 459 86.4 
z
" style="fill:#ffffff;"/>
   </g>
   <g id="PathCollection_3">
    <defs>
     <path d="M 0 3 
C 0.795609 3 1.55874 2.683901 2.12132 2.12132 
C 2.683901 1.55874 3 0.795609 3 -0 
C 3 -0.795609 2.683901 -1.55874 2.12132 -2.12132 
C 1.55874 -2.683901 0.795609 -3 0 -3 
C -0.795609 -3 -1.55874 -2.683901 -2.12132 -2.12132 
C -2.683901 -1.55874 -3 -0.795609 -3 0 
C -3 0.795609 -2.683901 1.55874 -2.12132 2.12132 
C -1.55874 2.683901 -0.795609 3 0 3 
z
" id="C1_0_3d68b60d31"/>
    </defs>
    <g clip-path="url(#pd2e6eedf58)">
     <use style="fill:#808080;fill-opacity:0.8;stroke:#808080;stroke-opacity:0.8;" x="658.720297" xlink:href="#C1_0_3d68b60d31" y="346.401864"/>
    </g>
    <g clip-path="url(#pd2e6eedf58)">
     <use style="fill:#808080;fill-opacity:0.8;stroke:#808080;stroke-opacity:0.8;" x="646.688267" xlink:href="#C1_0_3d68b60d31" y="348.668285"/>
    </g>
    <g clip-path="url(#pd2e6eedf58)">
     <use style="fill:#808080;fill-opacity:0.8;stroke:#808080;stroke-opacity:0.8;" x="669.482279" xlink:href="#C1_0_3d68b60d31" y="318.998369"/>
    </g>
    <g clip-path="url(#pd2e6eedf58)">
     <use style="fill:#808080;fill-opacity:0.8;stroke:#808080;stroke-opacity:0.8;" x="712.864432" xlink:href="#C1_0_3d68b60d31" y="297.837781"/>
    </g>
    <g clip-path="url(#pd2e6eedf58)">
     <use style="fill:#808080;fill-opacity:0.8;stroke:#808080;stroke-opacity:0.8;" x="673.505489" xlink:href="#C1_0_3d68b60d31" y="277.179379"/>
    </g>
    <g clip-path="url(#pd2e6eedf58)">
     <use style="fill:#808080;fill-opacity:0.8;stroke:#808080;stroke-opacity:0.8;" x="656.691981" xlink:href="#C1_0_3d68b60d31" y="270.514811"/>
    </g>
    <g clip-path="url(#pd2e6eedf58)">
     <use style="fill:#808080;fill-opacity:0.8;stroke:#808080;stroke-opacity:0.8;" x="686.076454" xlink:href="#C1_0_3d68b60d31" y="264.475413"/>
    </g>
    <g clip-path="url(#pd2e6eedf58)">
     <use style="fill:#808080;fill-opacity:0.8;stroke:#808080;stroke-opacity:0.8;" x="669.78308" xlink:href="#C1_0_3d68b60d31" y="257.759602"/>
    </g>
    <g clip-path="url(#pd2e6eedf58)">
     <use style="fill:#808080;fill-opacity:0.8;stroke:#808080;stroke-opacity:0.8;" x="546.15606" xlink:href="#C1_0_3d68b60d31" y="248.228334"/>
    </g>
    <g clip-path="url(#pd2e6eedf58)">
     <use style="fill:#808080;fill-opacity:0.8;stroke:#808080;stroke-opacity:0.8;" x="662.799907" xlink:href="#C1_0_3d68b60d31" y="247.193217"/>
    </g>
    <g clip-path="url(#pd2e6eedf58)">
     <use style="fill:#808080;fill-opacity:0.8;stroke:#808080;stroke-opacity:0.8;" x="717.633378" xlink:href="#C1_0_3d68b60d31" y="245.588567"/>
    </g>
    <g clip-path="url(#pd2e6eedf58)">
     <use style="fill:#808080;fill-opacity:0.8;stroke:#808080;stroke-opacity:0.8;" x="470.594493" xlink:href="#C1_0_3d68b60d31" y="240.247543"/>
    </g>
    <g clip-path="url(#pd2e6eedf58)">
     <use style="fill:#808080;fill-opacity:0.8;stroke:#808080;stroke-opacity:0.8;" x="469.2012" xlink:href="#C1_0_3d68b60d31" y="234.869917"/>
    </g>
    <g clip-path="url(#pd2e6eedf58)">
     <use style="fill:#808080;fill-opacity:0.8;stroke:#808080;stroke-opacity:0.8;" x="714.136569" xlink:href="#C1_0_3d68b60d31" y="234.779143"/>
    </g>
    <g clip-path="url(#pd2e6eedf58)">
     <use style="fill:#808080;fill-opacity:0.8;stroke:#808080;stroke-opacity:0.8;" x="506.765783" xlink:href="#C1_0_3d68b60d31" y="220.081077"/>
    </g>
    <g clip-path="url(#pd2e6eedf58)">
     <use style="fill:#808080;fill-opacity:0.8;stroke:#808080;stroke-opacity:0.8;" x="579.06032" xlink:href="#C1_0_3d68b60d31" y="212.081254"/>
    </g>
    <g clip-path="url(#pd2e6eedf58)">
     <use style="fill:#808080;fill-opacity:0.8;stroke:#808080;stroke-opacity:0.8;" x="640.912475" xlink:href="#C1_0_3d68b60d31" y="211.934844"/>
    </g>
    <g clip-path="url(#pd2e6eedf58)">
     <use style="fill:#808080;fill-opacity:0.8;stroke:#808080;stroke-opacity:0.8;" x="531.527534" xlink:href="#C1_0_3d68b60d31" y="207.593798"/>
    </g>
    <g clip-path="url(#pd2e6eedf58)">
     <use style="fill:#808080;fill-opacity:0.8;stroke:#808080;stroke-opacity:0.8;" x="597.549122" xlink:href="#C1_0_3d68b60d31" y="205.369835"/>
    </g>
    <g clip-path="url(#pd2e6eedf58)">
     <use style="fill:#808080;fill-opacity:0.8;stroke:#808080;stroke-opacity:0.8;" x="698.102218" xlink:href="#C1_0_3d68b60d31" y="196.913213"/>
    </g>
    <g clip-path="url(#pd2e6eedf58)">
     <use style="fill:#808080;fill-opacity:0.8;stroke:#808080;stroke-opacity:0.8;" x="526.367966" xlink:href="#C1_0_3d68b60d31" y="188.225264"/>
    </g>
    <g clip-path="url(#pd2e6eedf58)">
     <use style="fill:#808080;fill-opacity:0.8;stroke:#808080;stroke-opacity:0.8;" x="521.01413" xlink:href="#C1_0_3d68b60d31" y="178.566619"/>
    </g>
    <g clip-path="url(#pd2e6eedf58)">
     <use style="fill:#808080;fill-opacity:0.8;stroke:#808080;stroke-opacity:0.8;" x="491.951346" xlink:href="#C1_0_3d68b60d31" y="177.650095"/>
    </g>
    <g clip-path="url(#pd2e6eedf58)">
     <use style="fill:#808080;fill-opacity:0.8;stroke:#808080;stroke-opacity:0.8;" x="621.705093" xlink:href="#C1_0_3d68b60d31" y="170.669283"/>
    </g>
    <g clip-path="url(#pd2e6eedf58)">
     <use style="fill:#808080;fill-opacity:0.8;stroke:#808080;stroke-opacity:0.8;" x="538.86373" xlink:href="#C1_0_3d68b60d31" y="166.255031"/>
    </g>
    <g clip-path="url(#pd2e6eedf58)">
     <use style="fill:#808080;fill-opacity:0.8;stroke:#808080;stroke-opacity:0.8;" x="513.884734" xlink:href="#C1_0_3d68b60d31" y="159.631459"/>
    </g>
    <g clip-path="url(#pd2e6eedf58)">
     <use style="fill:#808080;fill-opacity:0.8;stroke:#808080;stroke-opacity:0.8;" x="546.657394" xlink:href="#C1_0_3d68b60d31" y="154.892178"/>
    </g>
    <g clip-path="url(#pd2e6eedf58)">
     <use style="fill:#808080;fill-opacity:0.8;stroke:#808080;stroke-opacity:0.8;" x="534.600297" xlink:href="#C1_0_3d68b60d31" y="131.330472"/>
    </g>
    <g clip-path="url(#pd2e6eedf58)">
     <use style="fill:#808080;fill-opacity:0.8;stroke:#808080;stroke-opacity:0.8;" x="501.808838" xlink:href="#C1_0_3d68b60d31" y="130.454942"/>
    </g>
    <g clip-path="url(#pd2e6eedf58)">
     <use style="fill:#808080;fill-opacity:0.8;stroke:#808080;stroke-opacity:0.8;" x="515.59345" xlink:href="#C1_0_3d68b60d31" y="119.134548"/>
    </g>
   </g>
   <g id="PathCollection_4">
    <g clip-path="url(#pd2e6eedf58)">
     <use style="fill:#ff0000;fill-opacity:0.8;stroke:#ff0000;stroke-opacity:0.8;" x="523.046624" xlink:href="#mf4da91ef36" y="233.023691"/>
    </g>
   </g>
   <g id="patch_9">
    <path clip-path="url(#pd2e6eedf58)" d="M 735.73355 235.882057 
L 733.4671 242.236236 
L 731.20065 248.590415 
L 726.66775 253.356049 
L 724.4013 259.710228 
L 721.908205 264.634717 
L 719.8684 272.418586 
L 719.8684 280.361309 
L 722.13485 286.715488 
L 719.8684 293.069667 
L 715.3355 297.835301 
L 708.536149 301.01239 
L 703.776604 304.348334 
L 697.203899 308.955114 
L 692.670999 313.720748 
L 692.444354 320.233781 
L 690.404549 328.01765 
L 688.138099 334.371829 
L 683.605199 339.137463 
L 678.845654 342.473407 
L 672.272949 347.080187 
L 665.246954 348.827586 
L 656.181154 350.416131 
L 646.888708 350.257276 
L 635.783103 348.827586 
L 626.717303 347.239041 
L 615.385053 347.239041 
L 606.319253 345.650497 
L 597.253452 344.061952 
L 590.454102 340.884863 
L 585.921202 336.119229 
L 581.161657 332.783285 
L 574.588952 328.176505 
L 567.789602 324.999416 
L 560.990252 321.822326 
L 553.964257 320.074927 
L 547.164907 316.897838 
L 538.325751 313.879603 
L 531.526401 310.702513 
L 526.766856 307.366569 
L 520.194151 302.75979 
L 515.661251 297.994155 
L 510.901706 294.658212 
L 506.368806 289.892577 
L 499.796101 285.285798 
L 495.036556 281.949854 
L 490.503656 277.18422 
L 485.970755 272.418586 
L 481.437855 267.652951 
L 476.904955 262.887317 
L 472.5987 256.691993 
L 470.105605 251.767504 
L 467.839155 245.413326 
L 465.572705 239.059147 
L 465.572705 231.116423 
L 465.79935 224.60339 
L 467.839155 216.819521 
L 470.105605 210.465342 
L 472.372055 204.111163 
L 474.638505 197.756984 
L 476.904955 191.402805 
L 477.1316 184.889772 
L 479.171405 177.105903 
L 479.171405 169.163179 
L 481.437855 162.809001 
L 481.437855 154.866277 
L 483.704305 148.512098 
L 483.704305 140.569375 
L 483.93095 134.056341 
L 485.970755 126.272472 
L 485.970755 118.329749 
L 488.237206 111.97557 
L 492.770106 107.209936 
L 499.796101 105.462537 
L 508.861901 107.051081 
L 515.661251 110.228171 
L 524.727051 111.816715 
L 529.486596 115.152659 
L 534.019496 119.918293 
L 536.285946 126.272472 
L 538.552396 132.626651 
L 545.125102 137.233431 
L 551.924452 140.41052 
L 558.723802 143.58761 
L 570.056052 143.58761 
L 579.121852 145.176154 
L 588.187652 146.764699 
L 597.253452 148.353244 
L 606.319253 149.941788 
L 615.385053 151.530333 
L 624.450853 153.118878 
L 631.476848 154.866277 
L 640.316003 157.884512 
L 647.341998 159.631911 
L 656.181154 162.650146 
L 662.980504 165.827236 
L 669.779854 169.004325 
L 674.539399 172.340269 
L 681.338749 175.517358 
L 685.871649 180.282992 
L 692.444354 184.889772 
L 696.977254 189.655406 
L 699.470349 194.579895 
L 704.003249 199.345529 
L 706.269699 205.699708 
L 710.8026 210.465342 
L 715.108855 216.660666 
L 719.8684 219.99661 
L 724.4013 224.762244 
L 730.974005 229.369024 
L 733.4671 234.293513 
z
" style="fill:none;stroke:#000000;stroke-linejoin:miter;"/>
   </g>
   <g id="matplotlib.axis_3"/>
   <g id="matplotlib.axis_4"/>
   <g id="patch_10">
    <path d="M 459 358.2 
L 459 86.4 
" style="fill:none;stroke:#000000;stroke-linecap:square;stroke-linejoin:miter;stroke-width:0.8;"/>
   </g>
   <g id="patch_11">
    <path d="M 738 358.2 
L 738 86.4 
" style="fill:none;stroke:#000000;stroke-linecap:square;stroke-linejoin:miter;stroke-width:0.8;"/>
   </g>
   <g id="patch_12">
    <path d="M 459 358.2 
L 738 358.2 
" style="fill:none;stroke:#000000;stroke-linecap:square;stroke-linejoin:miter;stroke-width:0.8;"/>
   </g>
   <g id="patch_13">
    <path d="M 459 86.4 
L 738 86.4 
" style="fill:none;stroke:#000000;stroke-linecap:square;stroke-linejoin:miter;stroke-width:0.8;"/>
   </g>
  </g>
  <g id="axes_3">
   <g id="patch_14">
    <path d="M 738 358.2 
L 1017 358.2 
L 1017 86.4 
L 738 86.4 
z
" style="fill:#ffffff;"/>
   </g>
   <g id="PathCollection_5">
    <defs>
     <path d="M 0 3 
C 0.795609 3 1.55874 2.683901 2.12132 2.12132 
C 2.683901 1.55874 3 0.795609 3 -0 
C 3 -0.795609 2.683901 -1.55874 2.12132 -2.12132 
C 1.55874 -2.683901 0.795609 -3 0 -3 
C -0.795609 -3 -1.55874 -2.683901 -2.12132 -2.12132 
C -2.683901 -1.55874 -3 -0.795609 -3 0 
C -3 0.795609 -2.683901 1.55874 -2.12132 2.12132 
C -1.55874 2.683901 -0.795609 3 0 3 
z
" id="C2_0_d05439e2f8"/>
    </defs>
    <g clip-path="url(#p0dace67759)">
     <use style="fill:#808080;fill-opacity:0.8;stroke:#808080;stroke-opacity:0.8;" x="759.796652" xlink:href="#C2_0_d05439e2f8" y="255.569314"/>
    </g>
    <g clip-path="url(#p0dace67759)">
     <use style="fill:#808080;fill-opacity:0.8;stroke:#808080;stroke-opacity:0.8;" x="761.465678" xlink:href="#C2_0_d05439e2f8" y="237.470152"/>
    </g>
    <g clip-path="url(#p0dace67759)">
     <use style="fill:#808080;fill-opacity:0.8;stroke:#808080;stroke-opacity:0.8;" x="787.010764" xlink:href="#C2_0_d05439e2f8" y="215.795667"/>
    </g>
    <g clip-path="url(#p0dace67759)">
     <use style="fill:#808080;fill-opacity:0.8;stroke:#808080;stroke-opacity:0.8;" x="781.757195" xlink:href="#C2_0_d05439e2f8" y="189.554664"/>
    </g>
    <g clip-path="url(#p0dace67759)">
     <use style="fill:#808080;fill-opacity:0.8;stroke:#808080;stroke-opacity:0.8;" x="776.530782" xlink:href="#C2_0_d05439e2f8" y="185.033534"/>
    </g>
    <g clip-path="url(#p0dace67759)">
     <use style="fill:#808080;fill-opacity:0.8;stroke:#808080;stroke-opacity:0.8;" x="785.341738" xlink:href="#C2_0_d05439e2f8" y="162.56258"/>
    </g>
    <g clip-path="url(#p0dace67759)">
     <use style="fill:#808080;fill-opacity:0.8;stroke:#808080;stroke-opacity:0.8;" x="764.626175" xlink:href="#C2_0_d05439e2f8" y="153.27728"/>
    </g>
    <g clip-path="url(#p0dace67759)">
     <use style="fill:#808080;fill-opacity:0.8;stroke:#808080;stroke-opacity:0.8;" x="791.288819" xlink:href="#C2_0_d05439e2f8" y="149.322755"/>
    </g>
    <g clip-path="url(#p0dace67759)">
     <use style="fill:#808080;fill-opacity:0.8;stroke:#808080;stroke-opacity:0.8;" x="806.986859" xlink:href="#C2_0_d05439e2f8" y="189.813809"/>
    </g>
    <g clip-path="url(#p0dace67759)">
     <use style="fill:#808080;fill-opacity:0.8;stroke:#808080;stroke-opacity:0.8;" x="810.249711" xlink:href="#C2_0_d05439e2f8" y="184.961793"/>
    </g>
    <g clip-path="url(#p0dace67759)">
     <use style="fill:#808080;fill-opacity:0.8;stroke:#808080;stroke-opacity:0.8;" x="799.592173" xlink:href="#C2_0_d05439e2f8" y="183.45963"/>
    </g>
    <g clip-path="url(#p0dace67759)">
     <use style="fill:#808080;fill-opacity:0.8;stroke:#808080;stroke-opacity:0.8;" x="809.142597" xlink:href="#C2_0_d05439e2f8" y="181.871085"/>
    </g>
    <g clip-path="url(#p0dace67759)">
     <use style="fill:#808080;fill-opacity:0.8;stroke:#808080;stroke-opacity:0.8;" x="1000.439343" xlink:href="#C2_0_d05439e2f8" y="248.860823"/>
    </g>
    <g clip-path="url(#p0dace67759)">
     <use style="fill:#808080;fill-opacity:0.8;stroke:#808080;stroke-opacity:0.8;" x="975.66297" xlink:href="#C2_0_d05439e2f8" y="211.366775"/>
    </g>
    <g clip-path="url(#p0dace67759)">
     <use style="fill:#808080;fill-opacity:0.8;stroke:#808080;stroke-opacity:0.8;" x="896.161748" xlink:href="#C2_0_d05439e2f8" y="340.725562"/>
    </g>
    <g clip-path="url(#p0dace67759)">
     <use style="fill:#808080;fill-opacity:0.8;stroke:#808080;stroke-opacity:0.8;" x="908.502935" xlink:href="#C2_0_d05439e2f8" y="216.291995"/>
    </g>
    <g clip-path="url(#p0dace67759)">
     <use style="fill:#808080;fill-opacity:0.8;stroke:#808080;stroke-opacity:0.8;" x="807.878816" xlink:href="#C2_0_d05439e2f8" y="251.979349"/>
    </g>
    <g clip-path="url(#p0dace67759)">
     <use style="fill:#808080;fill-opacity:0.8;stroke:#808080;stroke-opacity:0.8;" x="861.264683" xlink:href="#C2_0_d05439e2f8" y="322.761097"/>
    </g>
    <g clip-path="url(#p0dace67759)">
     <use style="fill:#808080;fill-opacity:0.8;stroke:#808080;stroke-opacity:0.8;" x="828.659135" xlink:href="#C2_0_d05439e2f8" y="217.543798"/>
    </g>
    <g clip-path="url(#p0dace67759)">
     <use style="fill:#808080;fill-opacity:0.8;stroke:#808080;stroke-opacity:0.8;" x="852.075638" xlink:href="#C2_0_d05439e2f8" y="272.55137"/>
    </g>
    <g clip-path="url(#p0dace67759)">
     <use style="fill:#808080;fill-opacity:0.8;stroke:#808080;stroke-opacity:0.8;" x="887.340349" xlink:href="#C2_0_d05439e2f8" y="257.632226"/>
    </g>
    <g clip-path="url(#p0dace67759)">
     <use style="fill:#808080;fill-opacity:0.8;stroke:#808080;stroke-opacity:0.8;" x="869.179503" xlink:href="#C2_0_d05439e2f8" y="341.456146"/>
    </g>
    <g clip-path="url(#p0dace67759)">
     <use style="fill:#808080;fill-opacity:0.8;stroke:#808080;stroke-opacity:0.8;" x="951.047441" xlink:href="#C2_0_d05439e2f8" y="318.488863"/>
    </g>
    <g clip-path="url(#p0dace67759)">
     <use style="fill:#808080;fill-opacity:0.8;stroke:#808080;stroke-opacity:0.8;" x="869.674571" xlink:href="#C2_0_d05439e2f8" y="326.11827"/>
    </g>
   </g>
   <g id="PathCollection_6">
    <defs>
     <path d="M 0 4.242641 
C 1.125161 4.242641 2.204391 3.795609 3 3 
C 3.795609 2.204391 4.242641 1.125161 4.242641 -0 
C 4.242641 -1.125161 3.795609 -2.204391 3 -3 
C 2.204391 -3.795609 1.125161 -4.242641 0 -4.242641 
C -1.125161 -4.242641 -2.204391 -3.795609 -3 -3 
C -3.795609 -2.204391 -4.242641 -1.125161 -4.242641 0 
C -4.242641 1.125161 -3.795609 2.204391 -3 3 
C -2.204391 3.795609 -1.125161 4.242641 0 4.242641 
z
" id="C3_0_e50cfd0402"/>
    </defs>
    <g clip-path="url(#p0dace67759)">
     <use style="fill:#ff0000;fill-opacity:0.8;stroke:#ff0000;stroke-opacity:0.8;" x="882.586026" xlink:href="#C3_0_e50cfd0402" y="322.655682"/>
    </g>
    <g clip-path="url(#p0dace67759)">
     <use style="fill:#ff0000;fill-opacity:0.8;stroke:#ff0000;stroke-opacity:0.8;" x="855.250757" xlink:href="#C3_0_e50cfd0402" y="323.251569"/>
    </g>
   </g>
   <g id="patch_15">
    <path clip-path="url(#p0dace67759)" d="M 1017 234.293513 
L 1017 242.236236 
L 1012.4671 247.00187 
L 1007.707555 250.337814 
L 1001.13485 254.944594 
L 998.8684 261.298773 
L 996.60195 267.652951 
L 998.8684 274.00713 
L 998.8684 281.949854 
L 996.60195 288.304033 
L 994.3355 294.658212 
L 989.575955 297.994155 
L 983.003249 302.600935 
L 978.470349 307.366569 
L 973.710804 310.702513 
L 969.404549 316.897838 
L 967.138099 323.252016 
L 966.911454 329.76505 
L 964.645004 336.119229 
L 960.338749 342.314553 
L 953.539399 345.491642 
L 946.513404 347.239041 
L 937.447604 348.827586 
L 928.608448 351.845821 
L 919.316003 352.004676 
L 912.516653 352.004676 
L 903.450853 350.416131 
L 894.385053 348.827586 
L 885.319253 347.239041 
L 876.026807 347.080187 
L 869.227457 343.903098 
L 864.694557 339.137463 
L 858.121852 334.530684 
L 851.322502 331.353594 
L 844.523152 328.176505 
L 837.723802 324.999416 
L 830.697807 323.252016 
L 821.858652 320.233781 
L 815.059301 317.056692 
L 808.259951 313.879603 
L 801.460601 310.702513 
L 796.701056 307.366569 
L 792.168156 302.600935 
L 785.595451 297.994155 
L 781.062551 293.228521 
L 778.569456 288.304033 
L 774.036556 283.538399 
L 769.503656 278.772764 
L 764.970755 274.00713 
L 760.437855 269.241496 
L 753.86515 264.634717 
L 749.33225 259.869082 
L 744.79935 255.103448 
L 742.306255 250.17896 
L 740.039805 243.824781 
L 738 238.900292 
L 740.26645 232.546113 
L 744.572705 226.350789 
L 744.79935 219.837756 
L 746.839155 212.053887 
L 749.105605 205.699708 
L 749.33225 199.186674 
L 751.5987 192.832496 
L 755.904955 186.637171 
L 758.171405 180.282992 
L 758.39805 173.769959 
L 760.437855 165.98609 
L 762.704305 159.631911 
L 760.437855 153.277732 
L 760.6645 146.764699 
L 762.93095 140.41052 
L 767.463851 135.644886 
L 774.036556 131.038106 
L 780.835906 127.861017 
L 790.128351 127.702162 
L 799.194151 129.290707 
L 805.993501 132.467797 
L 812.792851 135.644886 
L 819.592201 138.821975 
L 826.391552 141.999065 
L 833.417547 143.746464 
L 842.256702 146.764699 
L 849.056052 149.941788 
L 858.348497 150.100643 
L 869.454102 151.530333 
L 878.519903 153.118878 
L 887.585703 154.707423 
L 894.611698 156.454822 
L 903.450853 159.473057 
L 912.516653 161.061601 
L 919.316003 164.238691 
L 926.115353 167.41578 
L 930.874898 170.751724 
L 939.714054 173.769959 
L 946.740049 175.517358 
L 955.579204 178.535593 
L 960.338749 181.871537 
L 964.871649 186.637171 
L 967.138099 192.99135 
L 971.444354 199.186674 
L 975.977254 203.952309 
L 980.510154 208.717943 
L 985.043054 213.483577 
L 991.842405 216.660666 
L 998.641755 219.837756 
L 1005.441105 223.014845 
L 1010.20065 226.350789 
L 1014.73355 231.116423 
z
" style="fill:none;stroke:#000000;stroke-linejoin:miter;"/>
   </g>
   <g id="matplotlib.axis_5"/>
   <g id="matplotlib.axis_6"/>
   <g id="patch_16">
    <path d="M 738 358.2 
L 738 86.4 
" style="fill:none;stroke:#000000;stroke-linecap:square;stroke-linejoin:miter;stroke-width:0.8;"/>
   </g>
   <g id="patch_17">
    <path d="M 1017 358.2 
L 1017 86.4 
" style="fill:none;stroke:#000000;stroke-linecap:square;stroke-linejoin:miter;stroke-width:0.8;"/>
   </g>
   <g id="patch_18">
    <path d="M 738 358.2 
L 1017 358.2 
" style="fill:none;stroke:#000000;stroke-linecap:square;stroke-linejoin:miter;stroke-width:0.8;"/>
   </g>
   <g id="patch_19">
    <path d="M 738 86.4 
L 1017 86.4 
" style="fill:none;stroke:#000000;stroke-linecap:square;stroke-linejoin:miter;stroke-width:0.8;"/>
   </g>
  </g>
  <g id="axes_4">
   <g id="patch_20">
    <path d="M 1017 358.2 
L 1296 358.2 
L 1296 86.4 
L 1017 86.4 
z
" style="fill:#ffffff;"/>
   </g>
   <g id="PathCollection_7">
    <defs>
     <path d="M 0 3 
C 0.795609 3 1.55874 2.683901 2.12132 2.12132 
C 2.683901 1.55874 3 0.795609 3 -0 
C 3 -0.795609 2.683901 -1.55874 2.12132 -2.12132 
C 1.55874 -2.683901 0.795609 -3 0 -3 
C -0.795609 -3 -1.55874 -2.683901 -2.12132 -2.12132 
C -2.683901 -1.55874 -3 -0.795609 -3 0 
C -3 0.795609 -2.683901 1.55874 -2.12132 2.12132 
C -1.55874 2.683901 -0.795609 3 0 3 
z
" id="C4_0_803f13f4d7"/>
    </defs>
    <g clip-path="url(#pa335bc0a09)">
     <use style="fill:#808080;fill-opacity:0.8;stroke:#808080;stroke-opacity:0.8;" x="1137.425876" xlink:href="#C4_0_803f13f4d7" y="217.543798"/>
    </g>
    <g clip-path="url(#pa335bc0a09)">
     <use style="fill:#808080;fill-opacity:0.8;stroke:#808080;stroke-opacity:0.8;" x="1066.459876" xlink:href="#C4_0_803f13f4d7" y="215.259807"/>
    </g>
    <g clip-path="url(#pa335bc0a09)">
     <use style="fill:#808080;fill-opacity:0.8;stroke:#808080;stroke-opacity:0.8;" x="1114.234974" xlink:href="#C4_0_803f13f4d7" y="214.382813"/>
    </g>
    <g clip-path="url(#pa335bc0a09)">
     <use style="fill:#808080;fill-opacity:0.8;stroke:#808080;stroke-opacity:0.8;" x="1025.906086" xlink:href="#C4_0_803f13f4d7" y="213.706401"/>
    </g>
    <g clip-path="url(#pa335bc0a09)">
     <use style="fill:#808080;fill-opacity:0.8;stroke:#808080;stroke-opacity:0.8;" x="1074.341274" xlink:href="#C4_0_803f13f4d7" y="209.522013"/>
    </g>
    <g clip-path="url(#pa335bc0a09)">
     <use style="fill:#808080;fill-opacity:0.8;stroke:#808080;stroke-opacity:0.8;" x="1142.069488" xlink:href="#C4_0_803f13f4d7" y="203.886705"/>
    </g>
    <g clip-path="url(#pa335bc0a09)">
     <use style="fill:#808080;fill-opacity:0.8;stroke:#808080;stroke-opacity:0.8;" x="1108.985583" xlink:href="#C4_0_803f13f4d7" y="202.885263"/>
    </g>
    <g clip-path="url(#pa335bc0a09)">
     <use style="fill:#808080;fill-opacity:0.8;stroke:#808080;stroke-opacity:0.8;" x="1107.721802" xlink:href="#C4_0_803f13f4d7" y="198.049352"/>
    </g>
    <g clip-path="url(#pa335bc0a09)">
     <use style="fill:#808080;fill-opacity:0.8;stroke:#808080;stroke-opacity:0.8;" x="1062.424133" xlink:href="#C4_0_803f13f4d7" y="197.686256"/>
    </g>
    <g clip-path="url(#pa335bc0a09)">
     <use style="fill:#808080;fill-opacity:0.8;stroke:#808080;stroke-opacity:0.8;" x="1066.014942" xlink:href="#C4_0_803f13f4d7" y="193.547255"/>
    </g>
    <g clip-path="url(#pa335bc0a09)">
     <use style="fill:#808080;fill-opacity:0.8;stroke:#808080;stroke-opacity:0.8;" x="1086.970728" xlink:href="#C4_0_803f13f4d7" y="192.83424"/>
    </g>
    <g clip-path="url(#pa335bc0a09)">
     <use style="fill:#808080;fill-opacity:0.8;stroke:#808080;stroke-opacity:0.8;" x="1109.660296" xlink:href="#C4_0_803f13f4d7" y="191.207629"/>
    </g>
    <g clip-path="url(#pa335bc0a09)">
     <use style="fill:#808080;fill-opacity:0.8;stroke:#808080;stroke-opacity:0.8;" x="1142.384911" xlink:href="#C4_0_803f13f4d7" y="187.07302"/>
    </g>
    <g clip-path="url(#pa335bc0a09)">
     <use style="fill:#808080;fill-opacity:0.8;stroke:#808080;stroke-opacity:0.8;" x="1098.286267" xlink:href="#C4_0_803f13f4d7" y="179.865273"/>
    </g>
    <g clip-path="url(#pa335bc0a09)">
     <use style="fill:#808080;fill-opacity:0.8;stroke:#808080;stroke-opacity:0.8;" x="1116.902492" xlink:href="#C4_0_803f13f4d7" y="179.049771"/>
    </g>
    <g clip-path="url(#pa335bc0a09)">
     <use style="fill:#808080;fill-opacity:0.8;stroke:#808080;stroke-opacity:0.8;" x="1241.703471" xlink:href="#C4_0_803f13f4d7" y="176.060086"/>
    </g>
    <g clip-path="url(#pa335bc0a09)">
     <use style="fill:#808080;fill-opacity:0.8;stroke:#808080;stroke-opacity:0.8;" x="1177.396865" xlink:href="#C4_0_803f13f4d7" y="165.621078"/>
    </g>
    <g clip-path="url(#pa335bc0a09)">
     <use style="fill:#808080;fill-opacity:0.8;stroke:#808080;stroke-opacity:0.8;" x="1050.611437" xlink:href="#C4_0_803f13f4d7" y="157.154207"/>
    </g>
    <g clip-path="url(#pa335bc0a09)">
     <use style="fill:#808080;fill-opacity:0.8;stroke:#808080;stroke-opacity:0.8;" x="1257.503866" xlink:href="#C4_0_803f13f4d7" y="241.001553"/>
    </g>
    <g clip-path="url(#pa335bc0a09)">
     <use style="fill:#808080;fill-opacity:0.8;stroke:#808080;stroke-opacity:0.8;" x="1272.869771" xlink:href="#C4_0_803f13f4d7" y="230.8539"/>
    </g>
    <g clip-path="url(#pa335bc0a09)">
     <use style="fill:#808080;fill-opacity:0.8;stroke:#808080;stroke-opacity:0.8;" x="1258.498179" xlink:href="#C4_0_803f13f4d7" y="181.559233"/>
    </g>
    <g clip-path="url(#pa335bc0a09)">
     <use style="fill:#808080;fill-opacity:0.8;stroke:#808080;stroke-opacity:0.8;" x="1266.030731" xlink:href="#C4_0_803f13f4d7" y="181.178568"/>
    </g>
    <g clip-path="url(#pa335bc0a09)">
     <use style="fill:#808080;fill-opacity:0.8;stroke:#808080;stroke-opacity:0.8;" x="1272.957504" xlink:href="#C4_0_803f13f4d7" y="177.424624"/>
    </g>
    <g clip-path="url(#pa335bc0a09)">
     <use style="fill:#808080;fill-opacity:0.8;stroke:#808080;stroke-opacity:0.8;" x="1153.781917" xlink:href="#C4_0_803f13f4d7" y="342.314106"/>
    </g>
    <g clip-path="url(#pa335bc0a09)">
     <use style="fill:#808080;fill-opacity:0.8;stroke:#808080;stroke-opacity:0.8;" x="1163.737587" xlink:href="#C4_0_803f13f4d7" y="318.485935"/>
    </g>
    <g clip-path="url(#pa335bc0a09)">
     <use style="fill:#808080;fill-opacity:0.8;stroke:#808080;stroke-opacity:0.8;" x="1125.226735" xlink:href="#C4_0_803f13f4d7" y="313.319138"/>
    </g>
    <g clip-path="url(#pa335bc0a09)">
     <use style="fill:#808080;fill-opacity:0.8;stroke:#808080;stroke-opacity:0.8;" x="1188.457559" xlink:href="#C4_0_803f13f4d7" y="300.946058"/>
    </g>
    <g clip-path="url(#pa335bc0a09)">
     <use style="fill:#808080;fill-opacity:0.8;stroke:#808080;stroke-opacity:0.8;" x="1096.12844" xlink:href="#C4_0_803f13f4d7" y="298.259441"/>
    </g>
    <g clip-path="url(#pa335bc0a09)">
     <use style="fill:#808080;fill-opacity:0.8;stroke:#808080;stroke-opacity:0.8;" x="1139.168014" xlink:href="#C4_0_803f13f4d7" y="298.03397"/>
    </g>
    <g clip-path="url(#pa335bc0a09)">
     <use style="fill:#808080;fill-opacity:0.8;stroke:#808080;stroke-opacity:0.8;" x="1157.124148" xlink:href="#C4_0_803f13f4d7" y="297.703084"/>
    </g>
    <g clip-path="url(#pa335bc0a09)">
     <use style="fill:#808080;fill-opacity:0.8;stroke:#808080;stroke-opacity:0.8;" x="1152.305069" xlink:href="#C4_0_803f13f4d7" y="285.126495"/>
    </g>
    <g clip-path="url(#pa335bc0a09)">
     <use style="fill:#808080;fill-opacity:0.8;stroke:#808080;stroke-opacity:0.8;" x="1166.691283" xlink:href="#C4_0_803f13f4d7" y="269.946742"/>
    </g>
    <g clip-path="url(#pa335bc0a09)">
     <use style="fill:#808080;fill-opacity:0.8;stroke:#808080;stroke-opacity:0.8;" x="1128.213853" xlink:href="#C4_0_803f13f4d7" y="260.334948"/>
    </g>
    <g clip-path="url(#pa335bc0a09)">
     <use style="fill:#808080;fill-opacity:0.8;stroke:#808080;stroke-opacity:0.8;" x="1191.104188" xlink:href="#C4_0_803f13f4d7" y="253.540076"/>
    </g>
    <g clip-path="url(#pa335bc0a09)">
     <use style="fill:#808080;fill-opacity:0.8;stroke:#808080;stroke-opacity:0.8;" x="1148.893905" xlink:href="#C4_0_803f13f4d7" y="252.074515"/>
    </g>
    <g clip-path="url(#pa335bc0a09)">
     <use style="fill:#808080;fill-opacity:0.8;stroke:#808080;stroke-opacity:0.8;" x="1077.209326" xlink:href="#C4_0_803f13f4d7" y="251.767055"/>
    </g>
    <g clip-path="url(#pa335bc0a09)">
     <use style="fill:#808080;fill-opacity:0.8;stroke:#808080;stroke-opacity:0.8;" x="1137.122987" xlink:href="#C4_0_803f13f4d7" y="250.980835"/>
    </g>
    <g clip-path="url(#pa335bc0a09)">
     <use style="fill:#808080;fill-opacity:0.8;stroke:#808080;stroke-opacity:0.8;" x="1141.655887" xlink:href="#C4_0_803f13f4d7" y="250.974979"/>
    </g>
    <g clip-path="url(#pa335bc0a09)">
     <use style="fill:#808080;fill-opacity:0.8;stroke:#808080;stroke-opacity:0.8;" x="1186.289287" xlink:href="#C4_0_803f13f4d7" y="248.610463"/>
    </g>
    <g clip-path="url(#pa335bc0a09)">
     <use style="fill:#808080;fill-opacity:0.8;stroke:#808080;stroke-opacity:0.8;" x="1096.29764" xlink:href="#C4_0_803f13f4d7" y="245.282571"/>
    </g>
    <g clip-path="url(#pa335bc0a09)">
     <use style="fill:#808080;fill-opacity:0.8;stroke:#808080;stroke-opacity:0.8;" x="1120.501656" xlink:href="#C4_0_803f13f4d7" y="242.767253"/>
    </g>
    <g clip-path="url(#pa335bc0a09)">
     <use style="fill:#808080;fill-opacity:0.8;stroke:#808080;stroke-opacity:0.8;" x="1136.924542" xlink:href="#C4_0_803f13f4d7" y="239.530136"/>
    </g>
    <g clip-path="url(#pa335bc0a09)">
     <use style="fill:#808080;fill-opacity:0.8;stroke:#808080;stroke-opacity:0.8;" x="1108.574071" xlink:href="#C4_0_803f13f4d7" y="238.064575"/>
    </g>
    <g clip-path="url(#pa335bc0a09)">
     <use style="fill:#808080;fill-opacity:0.8;stroke:#808080;stroke-opacity:0.8;" x="1143.922337" xlink:href="#C4_0_803f13f4d7" y="234.528782"/>
    </g>
    <g clip-path="url(#pa335bc0a09)">
     <use style="fill:#808080;fill-opacity:0.8;stroke:#808080;stroke-opacity:0.8;" x="1116.724936" xlink:href="#C4_0_803f13f4d7" y="232.272609"/>
    </g>
    <g clip-path="url(#pa335bc0a09)">
     <use style="fill:#808080;fill-opacity:0.8;stroke:#808080;stroke-opacity:0.8;" x="1028.333381" xlink:href="#C4_0_803f13f4d7" y="226.786639"/>
    </g>
    <g clip-path="url(#pa335bc0a09)">
     <use style="fill:#808080;fill-opacity:0.8;stroke:#808080;stroke-opacity:0.8;" x="1076.398835" xlink:href="#C4_0_803f13f4d7" y="224.854032"/>
    </g>
    <g clip-path="url(#pa335bc0a09)">
     <use style="fill:#808080;fill-opacity:0.8;stroke:#808080;stroke-opacity:0.8;" x="1135.633605" xlink:href="#C4_0_803f13f4d7" y="223.419217"/>
    </g>
    <g clip-path="url(#pa335bc0a09)">
     <use style="fill:#808080;fill-opacity:0.8;stroke:#808080;stroke-opacity:0.8;" x="1092.723542" xlink:href="#C4_0_803f13f4d7" y="264.039112"/>
    </g>
    <g clip-path="url(#pa335bc0a09)">
     <use style="fill:#808080;fill-opacity:0.8;stroke:#808080;stroke-opacity:0.8;" x="1168.262131" xlink:href="#C4_0_803f13f4d7" y="261.881034"/>
    </g>
    <g clip-path="url(#pa335bc0a09)">
     <use style="fill:#808080;fill-opacity:0.8;stroke:#808080;stroke-opacity:0.8;" x="1039.613409" xlink:href="#C4_0_803f13f4d7" y="255.460971"/>
    </g>
    <g clip-path="url(#pa335bc0a09)">
     <use style="fill:#808080;fill-opacity:0.8;stroke:#808080;stroke-opacity:0.8;" x="1188.231959" xlink:href="#C4_0_803f13f4d7" y="251.859293"/>
    </g>
   </g>
   <g id="PathCollection_8">
    <defs>
     <path d="M 0 4.242641 
C 1.125161 4.242641 2.204391 3.795609 3 3 
C 3.795609 2.204391 4.242641 1.125161 4.242641 -0 
C 4.242641 -1.125161 3.795609 -2.204391 3 -3 
C 2.204391 -3.795609 1.125161 -4.242641 0 -4.242641 
C -1.125161 -4.242641 -2.204391 -3.795609 -3 -3 
C -3.795609 -2.204391 -4.242641 -1.125161 -4.242641 0 
C -4.242641 1.125161 -3.795609 2.204391 -3 3 
C -2.204391 3.795609 -1.125161 4.242641 0 4.242641 
z
" id="C5_0_6737e09961"/>
    </defs>
    <g clip-path="url(#pa335bc0a09)">
     <use style="fill:#ff0000;fill-opacity:0.8;stroke:#ff0000;stroke-opacity:0.8;" x="1055.244604" xlink:href="#C5_0_6737e09961" y="194.579443"/>
    </g>
    <g clip-path="url(#pa335bc0a09)">
     <use style="fill:#ff0000;fill-opacity:0.8;stroke:#ff0000;stroke-opacity:0.8;" x="1273.028527" xlink:href="#C5_0_6737e09961" y="183.749521"/>
    </g>
   </g>
   <g id="patch_21">
    <path clip-path="url(#pa335bc0a09)" d="M 1282.4013 231.116423 
L 1282.4013 239.059147 
L 1280.13485 245.413326 
L 1277.8684 251.767504 
L 1275.60195 258.121683 
L 1275.60195 266.064407 
L 1275.60195 274.00713 
L 1273.3355 280.361309 
L 1271.06905 286.715488 
L 1268.8026 293.069667 
L 1264.269699 297.835301 
L 1259.736799 302.600935 
L 1255.203899 307.366569 
L 1250.670999 312.132203 
L 1248.177904 317.056692 
L 1243.871649 323.252016 
L 1239.338749 328.01765 
L 1236.845654 332.942139 
L 1230.272949 337.548919 
L 1225.513404 340.884863 
L 1218.714054 344.061952 
L 1211.914703 347.239041 
L 1205.115353 350.416131 
L 1198.316003 353.59322 
L 1191.516653 356.77031 
L 1184.490658 358.2 
L 1175.651503 355.181765 
L 1170.891958 351.845821 
L 1164.319253 347.239041 
L 1157.519903 344.061952 
L 1150.720552 340.884863 
L 1143.921202 337.707773 
L 1136.895207 335.960374 
L 1130.095857 332.783285 
L 1121.256702 329.76505 
L 1114.457352 326.58796 
L 1107.658002 323.410871 
L 1100.632006 321.663472 
L 1093.832656 318.486382 
L 1084.993501 315.468147 
L 1078.194151 312.291058 
L 1073.434606 308.955114 
L 1066.861901 304.348334 
L 1062.102356 301.01239 
L 1057.569456 296.246756 
L 1055.303006 289.892577 
L 1050.996751 283.697253 
L 1048.503656 278.772764 
L 1043.970755 274.00713 
L 1039.437855 269.241496 
L 1034.904955 264.475862 
L 1030.372055 259.710228 
L 1025.839155 254.944594 
L 1023.572705 248.590415 
L 1021.306255 242.236236 
L 1023.572705 235.882057 
L 1023.572705 227.939334 
L 1025.839155 221.585155 
L 1025.839155 213.642431 
L 1028.105605 207.288252 
L 1028.33225 200.775219 
L 1030.372055 192.99135 
L 1032.638505 186.637171 
L 1034.904955 180.282992 
L 1037.39805 175.358504 
L 1041.704305 169.163179 
L 1043.970755 162.809001 
L 1048.503656 158.043366 
L 1050.996751 153.118878 
L 1057.569456 148.512098 
L 1064.595451 146.764699 
L 1073.661251 145.176154 
L 1084.993501 145.176154 
L 1094.059301 146.764699 
L 1105.391552 146.764699 
L 1114.457352 148.353244 
L 1121.483347 150.100643 
L 1130.322502 153.118878 
L 1139.388302 154.707423 
L 1148.680747 154.866277 
L 1157.519903 157.884512 
L 1166.585703 159.473057 
L 1173.385053 162.650146 
L 1180.184403 165.827236 
L 1184.943948 169.163179 
L 1191.516653 173.769959 
L 1196.276198 177.105903 
L 1203.075548 180.282992 
L 1211.914703 183.301227 
L 1220.753859 183.460082 
L 1227.779854 181.712683 
L 1234.352559 177.105903 
L 1241.378554 175.358504 
L 1248.177904 172.181414 
L 1259.510154 172.181414 
L 1270.842405 172.181414 
L 1277.8684 173.928814 
L 1280.13485 180.282992 
L 1275.60195 185.048627 
L 1268.8026 188.225716 
L 1261.776604 189.973115 
L 1250.670999 191.402805 
L 1243.645004 193.150205 
L 1237.072299 197.756984 
L 1239.338749 204.111163 
L 1243.645004 210.306487 
L 1248.177904 215.072122 
L 1252.937449 218.408065 
L 1261.776604 221.4263 
L 1270.842405 223.014845 
L 1277.8684 224.762244 
L 1282.174655 230.957569 
z
" style="fill:none;stroke:#000000;stroke-linejoin:miter;"/>
   </g>
   <g id="matplotlib.axis_7"/>
   <g id="matplotlib.axis_8"/>
   <g id="patch_22">
    <path d="M 1017 358.2 
L 1017 86.4 
" style="fill:none;stroke:#000000;stroke-linecap:square;stroke-linejoin:miter;stroke-width:0.8;"/>
   </g>
   <g id="patch_23">
    <path d="M 1296 358.2 
L 1296 86.4 
" style="fill:none;stroke:#000000;stroke-linecap:square;stroke-linejoin:miter;stroke-width:0.8;"/>
   </g>
   <g id="patch_24">
    <path d="M 1017 358.2 
L 1296 358.2 
" style="fill:none;stroke:#000000;stroke-linecap:square;stroke-linejoin:miter;stroke-width:0.8;"/>
   </g>
   <g id="patch_25">
    <path d="M 1017 86.4 
L 1296 86.4 
" style="fill:none;stroke:#000000;stroke-linecap:square;stroke-linejoin:miter;stroke-width:0.8;"/>
   </g>
  </g>
  <g id="axes_5">
   <g id="patch_26">
    <path d="M 180 630 
L 459 630 
L 459 358.2 
L 180 358.2 
z
" style="fill:#ffffff;"/>
   </g>
   <g id="PathCollection_9">
    <defs>
     <path d="M 0 3 
C 0.795609 3 1.55874 2.683901 2.12132 2.12132 
C 2.683901 1.55874 3 0.795609 3 -0 
C 3 -0.795609 2.683901 -1.55874 2.12132 -2.12132 
C 1.55874 -2.683901 0.795609 -3 0 -3 
C -0.795609 -3 -1.55874 -2.683901 -2.12132 -2.12132 
C -2.683901 -1.55874 -3 -0.795609 -3 0 
C -3 0.795609 -2.683901 1.55874 -2.12132 2.12132 
C -1.55874 2.683901 -0.795609 3 0 3 
z
" id="C6_0_39100d0172"/>
    </defs>
    <g clip-path="url(#p719fdc3d61)">
     <use style="fill:#808080;fill-opacity:0.8;stroke:#808080;stroke-opacity:0.8;" x="399.15119" xlink:href="#C6_0_39100d0172" y="453.671085"/>
    </g>
    <g clip-path="url(#p719fdc3d61)">
     <use style="fill:#808080;fill-opacity:0.8;stroke:#808080;stroke-opacity:0.8;" x="404.23138" xlink:href="#C6_0_39100d0172" y="445.990435"/>
    </g>
    <g clip-path="url(#p719fdc3d61)">
     <use style="fill:#808080;fill-opacity:0.8;stroke:#808080;stroke-opacity:0.8;" x="423.850274" xlink:href="#C6_0_39100d0172" y="446.747373"/>
    </g>
    <g clip-path="url(#p719fdc3d61)">
     <use style="fill:#808080;fill-opacity:0.8;stroke:#808080;stroke-opacity:0.8;" x="434.150611" xlink:href="#C6_0_39100d0172" y="460.742672"/>
    </g>
   </g>
   <g id="PathCollection_10"/>
   <g id="patch_27">
    <path clip-path="url(#p719fdc3d61)" d="M 454.4671 453.671537 
L 452.20065 460.025716 
L 447.66775 464.79135 
L 440.641755 466.538749 
L 429.309504 466.538749 
L 420.243704 464.950205 
L 411.177904 463.36166 
L 402.112104 461.773115 
L 397.352559 458.437171 
L 392.819659 453.671537 
L 395.086109 447.317358 
L 401.885459 444.140269 
L 408.911454 442.39287 
L 417.977254 440.804325 
L 427.043054 442.39287 
L 438.375305 442.39287 
L 447.441105 443.981414 
L 452.20065 447.317358 
z
" style="fill:none;stroke:#000000;stroke-linejoin:miter;"/>
   </g>
   <g id="matplotlib.axis_9"/>
   <g id="matplotlib.axis_10"/>
   <g id="patch_28">
    <path d="M 180 630 
L 180 358.2 
" style="fill:none;stroke:#000000;stroke-linecap:square;stroke-linejoin:miter;stroke-width:0.8;"/>
   </g>
   <g id="patch_29">
    <path d="M 459 630 
L 459 358.2 
" style="fill:none;stroke:#000000;stroke-linecap:square;stroke-linejoin:miter;stroke-width:0.8;"/>
   </g>
   <g id="patch_30">
    <path d="M 180 630 
L 459 630 
" style="fill:none;stroke:#000000;stroke-linecap:square;stroke-linejoin:miter;stroke-width:0.8;"/>
   </g>
   <g id="patch_31">
    <path d="M 180 358.2 
L 459 358.2 
" style="fill:none;stroke:#000000;stroke-linecap:square;stroke-linejoin:miter;stroke-width:0.8;"/>
   </g>
  </g>
  <g id="axes_6">
   <g id="patch_32">
    <path d="M 459 630 
L 738 630 
L 738 358.2 
L 459 358.2 
z
" style="fill:#ffffff;"/>
   </g>
   <g id="PathCollection_11">
    <defs>
     <path d="M 0 3 
C 0.795609 3 1.55874 2.683901 2.12132 2.12132 
C 2.683901 1.55874 3 0.795609 3 -0 
C 3 -0.795609 2.683901 -1.55874 2.12132 -2.12132 
C 1.55874 -2.683901 0.795609 -3 0 -3 
C -0.795609 -3 -1.55874 -2.683901 -2.12132 -2.12132 
C -2.683901 -1.55874 -3 -0.795609 -3 0 
C -3 0.795609 -2.683901 1.55874 -2.12132 2.12132 
C -1.55874 2.683901 -0.795609 3 0 3 
z
" id="C7_0_f0a9acdb94"/>
    </defs>
    <g clip-path="url(#p6b5f4a4e70)">
     <use style="fill:#808080;fill-opacity:0.8;stroke:#808080;stroke-opacity:0.8;" x="719.02667" xlink:href="#C7_0_f0a9acdb94" y="465.530267"/>
    </g>
    <g clip-path="url(#p6b5f4a4e70)">
     <use style="fill:#808080;fill-opacity:0.8;stroke:#808080;stroke-opacity:0.8;" x="713.528701" xlink:href="#C7_0_f0a9acdb94" y="464.41609"/>
    </g>
    <g clip-path="url(#p6b5f4a4e70)">
     <use style="fill:#808080;fill-opacity:0.8;stroke:#808080;stroke-opacity:0.8;" x="705.618059" xlink:href="#C7_0_f0a9acdb94" y="459.520151"/>
    </g>
    <g clip-path="url(#p6b5f4a4e70)">
     <use style="fill:#808080;fill-opacity:0.8;stroke:#808080;stroke-opacity:0.8;" x="685.646142" xlink:href="#C7_0_f0a9acdb94" y="445.39894"/>
    </g>
   </g>
   <g id="PathCollection_12">
    <g clip-path="url(#p6b5f4a4e70)">
     <use style="fill:#ff0000;fill-opacity:0.8;stroke:#ff0000;stroke-opacity:0.8;" x="690.717977" xlink:href="#mf4da91ef36" y="442.551272"/>
    </g>
   </g>
   <g id="patch_33">
    <path clip-path="url(#p6b5f4a4e70)" d="M 731.20065 458.437171 
L 728.9342 464.79135 
L 724.174655 468.127294 
L 712.842405 468.127294 
L 701.510154 468.127294 
L 694.484159 466.379895 
L 687.684809 463.202805 
L 680.885459 460.025716 
L 676.352559 455.260082 
L 674.312754 450.335593 
L 678.845654 445.569959 
L 685.645004 442.39287 
L 694.710804 440.804325 
L 706.043054 440.804325 
L 712.842405 443.981414 
L 719.641755 447.158504 
L 724.4013 450.494448 
L 728.9342 455.260082 
z
" style="fill:none;stroke:#000000;stroke-linejoin:miter;"/>
   </g>
   <g id="matplotlib.axis_11"/>
   <g id="matplotlib.axis_12"/>
   <g id="patch_34">
    <path d="M 459 630 
L 459 358.2 
" style="fill:none;stroke:#000000;stroke-linecap:square;stroke-linejoin:miter;stroke-width:0.8;"/>
   </g>
   <g id="patch_35">
    <path d="M 738 630 
L 738 358.2 
" style="fill:none;stroke:#000000;stroke-linecap:square;stroke-linejoin:miter;stroke-width:0.8;"/>
   </g>
   <g id="patch_36">
    <path d="M 459 630 
L 738 630 
" style="fill:none;stroke:#000000;stroke-linecap:square;stroke-linejoin:miter;stroke-width:0.8;"/>
   </g>
   <g id="patch_37">
    <path d="M 459 358.2 
L 738 358.2 
" style="fill:none;stroke:#000000;stroke-linecap:square;stroke-linejoin:miter;stroke-width:0.8;"/>
   </g>
  </g>
  <g id="axes_7">
   <g id="patch_38">
    <path d="M 738 630 
L 1017 630 
L 1017 358.2 
L 738 358.2 
z
" style="fill:#ffffff;"/>
   </g>
   <g id="PathCollection_13">
    <defs>
     <path d="M 0 3 
C 0.795609 3 1.55874 2.683901 2.12132 2.12132 
C 2.683901 1.55874 3 0.795609 3 -0 
C 3 -0.795609 2.683901 -1.55874 2.12132 -2.12132 
C 1.55874 -2.683901 0.795609 -3 0 -3 
C -0.795609 -3 -1.55874 -2.683901 -2.12132 -2.12132 
C -2.683901 -1.55874 -3 -0.795609 -3 0 
C -3 0.795609 -2.683901 1.55874 -2.12132 2.12132 
C -1.55874 2.683901 -0.795609 3 0 3 
z
" id="C8_0_0cf654f003"/>
    </defs>
    <g clip-path="url(#pc4072685a1)">
     <use style="fill:#808080;fill-opacity:0.8;stroke:#808080;stroke-opacity:0.8;" x="985.042104" xlink:href="#C8_0_0cf654f003" y="463.50103"/>
    </g>
    <g clip-path="url(#pc4072685a1)">
     <use style="fill:#808080;fill-opacity:0.8;stroke:#808080;stroke-opacity:0.8;" x="981.330139" xlink:href="#C8_0_0cf654f003" y="463.372189"/>
    </g>
   </g>
   <g id="PathCollection_14"/>
   <g id="patch_39">
    <path clip-path="url(#pc4072685a1)" d="M 1003.4013 458.437171 
L 1001.13485 464.79135 
L 994.108855 466.538749 
L 985.043054 468.127294 
L 975.750609 467.96844 
L 966.911454 464.950205 
L 962.151909 461.614261 
L 959.885459 455.260082 
L 962.151909 448.905903 
L 966.911454 445.569959 
L 978.243704 445.569959 
L 987.309504 447.158504 
L 994.108855 450.335593 
L 998.8684 453.671537 
z
" style="fill:none;stroke:#000000;stroke-linejoin:miter;"/>
   </g>
   <g id="matplotlib.axis_13"/>
   <g id="matplotlib.axis_14"/>
   <g id="patch_40">
    <path d="M 738 630 
L 738 358.2 
" style="fill:none;stroke:#000000;stroke-linecap:square;stroke-linejoin:miter;stroke-width:0.8;"/>
   </g>
   <g id="patch_41">
    <path d="M 1017 630 
L 1017 358.2 
" style="fill:none;stroke:#000000;stroke-linecap:square;stroke-linejoin:miter;stroke-width:0.8;"/>
   </g>
   <g id="patch_42">
    <path d="M 738 630 
L 1017 630 
" style="fill:none;stroke:#000000;stroke-linecap:square;stroke-linejoin:miter;stroke-width:0.8;"/>
   </g>
   <g id="patch_43">
    <path d="M 738 358.2 
L 1017 358.2 
" style="fill:none;stroke:#000000;stroke-linecap:square;stroke-linejoin:miter;stroke-width:0.8;"/>
   </g>
  </g>
  <g id="axes_8"/>
  <g id="text_1">
   <!-- L6 IT cell has Timp3 peripheral score 0.19 -->
   <g transform="translate(594.285 23.518125)scale(0.12 -0.12)">
    <defs>
     <path d="M 9.8125 72.90625 
L 19.671875 72.90625 
L 19.671875 8.296875 
L 55.171875 8.296875 
L 55.171875 0 
L 9.8125 0 
z
" id="DejaVuSans-76"/>
     <path d="M 33.015625 40.375 
Q 26.375 40.375 22.484375 35.828125 
Q 18.609375 31.296875 18.609375 23.390625 
Q 18.609375 15.53125 22.484375 10.953125 
Q 26.375 6.390625 33.015625 6.390625 
Q 39.65625 6.390625 43.53125 10.953125 
Q 47.40625 15.53125 47.40625 23.390625 
Q 47.40625 31.296875 43.53125 35.828125 
Q 39.65625 40.375 33.015625 40.375 
z
M 52.59375 71.296875 
L 52.59375 62.3125 
Q 48.875 64.0625 45.09375 64.984375 
Q 41.3125 65.921875 37.59375 65.921875 
Q 27.828125 65.921875 22.671875 59.328125 
Q 17.53125 52.734375 16.796875 39.40625 
Q 19.671875 43.65625 24.015625 45.921875 
Q 28.375 48.1875 33.59375 48.1875 
Q 44.578125 48.1875 50.953125 41.515625 
Q 57.328125 34.859375 57.328125 23.390625 
Q 57.328125 12.15625 50.6875 5.359375 
Q 44.046875 -1.421875 33.015625 -1.421875 
Q 20.359375 -1.421875 13.671875 8.265625 
Q 6.984375 17.96875 6.984375 36.375 
Q 6.984375 53.65625 15.1875 63.9375 
Q 23.390625 74.21875 37.203125 74.21875 
Q 40.921875 74.21875 44.703125 73.484375 
Q 48.484375 72.75 52.59375 71.296875 
z
" id="DejaVuSans-54"/>
     <path id="DejaVuSans-32"/>
     <path d="M 9.8125 72.90625 
L 19.671875 72.90625 
L 19.671875 0 
L 9.8125 0 
z
" id="DejaVuSans-73"/>
     <path d="M -0.296875 72.90625 
L 61.375 72.90625 
L 61.375 64.59375 
L 35.5 64.59375 
L 35.5 0 
L 25.59375 0 
L 25.59375 64.59375 
L -0.296875 64.59375 
z
" id="DejaVuSans-84"/>
     <path d="M 48.78125 52.59375 
L 48.78125 44.1875 
Q 44.96875 46.296875 41.140625 47.34375 
Q 37.3125 48.390625 33.40625 48.390625 
Q 24.65625 48.390625 19.8125 42.84375 
Q 14.984375 37.3125 14.984375 27.296875 
Q 14.984375 17.28125 19.8125 11.734375 
Q 24.65625 6.203125 33.40625 6.203125 
Q 37.3125 6.203125 41.140625 7.25 
Q 44.96875 8.296875 48.78125 10.40625 
L 48.78125 2.09375 
Q 45.015625 0.34375 40.984375 -0.53125 
Q 36.96875 -1.421875 32.421875 -1.421875 
Q 20.0625 -1.421875 12.78125 6.34375 
Q 5.515625 14.109375 5.515625 27.296875 
Q 5.515625 40.671875 12.859375 48.328125 
Q 20.21875 56 33.015625 56 
Q 37.15625 56 41.109375 55.140625 
Q 45.0625 54.296875 48.78125 52.59375 
z
" id="DejaVuSans-99"/>
     <path d="M 56.203125 29.59375 
L 56.203125 25.203125 
L 14.890625 25.203125 
Q 15.484375 15.921875 20.484375 11.0625 
Q 25.484375 6.203125 34.421875 6.203125 
Q 39.59375 6.203125 44.453125 7.46875 
Q 49.3125 8.734375 54.109375 11.28125 
L 54.109375 2.78125 
Q 49.265625 0.734375 44.1875 -0.34375 
Q 39.109375 -1.421875 33.890625 -1.421875 
Q 20.796875 -1.421875 13.15625 6.1875 
Q 5.515625 13.8125 5.515625 26.8125 
Q 5.515625 40.234375 12.765625 48.109375 
Q 20.015625 56 32.328125 56 
Q 43.359375 56 49.78125 48.890625 
Q 56.203125 41.796875 56.203125 29.59375 
z
M 47.21875 32.234375 
Q 47.125 39.59375 43.09375 43.984375 
Q 39.0625 48.390625 32.421875 48.390625 
Q 24.90625 48.390625 20.390625 44.140625 
Q 15.875 39.890625 15.1875 32.171875 
z
" id="DejaVuSans-101"/>
     <path d="M 9.421875 75.984375 
L 18.40625 75.984375 
L 18.40625 0 
L 9.421875 0 
z
" id="DejaVuSans-108"/>
     <path d="M 54.890625 33.015625 
L 54.890625 0 
L 45.90625 0 
L 45.90625 32.71875 
Q 45.90625 40.484375 42.875 44.328125 
Q 39.84375 48.1875 33.796875 48.1875 
Q 26.515625 48.1875 22.3125 43.546875 
Q 18.109375 38.921875 18.109375 30.90625 
L 18.109375 0 
L 9.078125 0 
L 9.078125 75.984375 
L 18.109375 75.984375 
L 18.109375 46.1875 
Q 21.34375 51.125 25.703125 53.5625 
Q 30.078125 56 35.796875 56 
Q 45.21875 56 50.046875 50.171875 
Q 54.890625 44.34375 54.890625 33.015625 
z
" id="DejaVuSans-104"/>
     <path d="M 34.28125 27.484375 
Q 23.390625 27.484375 19.1875 25 
Q 14.984375 22.515625 14.984375 16.5 
Q 14.984375 11.71875 18.140625 8.90625 
Q 21.296875 6.109375 26.703125 6.109375 
Q 34.1875 6.109375 38.703125 11.40625 
Q 43.21875 16.703125 43.21875 25.484375 
L 43.21875 27.484375 
z
M 52.203125 31.203125 
L 52.203125 0 
L 43.21875 0 
L 43.21875 8.296875 
Q 40.140625 3.328125 35.546875 0.953125 
Q 30.953125 -1.421875 24.3125 -1.421875 
Q 15.921875 -1.421875 10.953125 3.296875 
Q 6 8.015625 6 15.921875 
Q 6 25.140625 12.171875 29.828125 
Q 18.359375 34.515625 30.609375 34.515625 
L 43.21875 34.515625 
L 43.21875 35.40625 
Q 43.21875 41.609375 39.140625 45 
Q 35.0625 48.390625 27.6875 48.390625 
Q 23 48.390625 18.546875 47.265625 
Q 14.109375 46.140625 10.015625 43.890625 
L 10.015625 52.203125 
Q 14.9375 54.109375 19.578125 55.046875 
Q 24.21875 56 28.609375 56 
Q 40.484375 56 46.34375 49.84375 
Q 52.203125 43.703125 52.203125 31.203125 
z
" id="DejaVuSans-97"/>
     <path d="M 44.28125 53.078125 
L 44.28125 44.578125 
Q 40.484375 46.53125 36.375 47.5 
Q 32.28125 48.484375 27.875 48.484375 
Q 21.1875 48.484375 17.84375 46.4375 
Q 14.5 44.390625 14.5 40.28125 
Q 14.5 37.15625 16.890625 35.375 
Q 19.28125 33.59375 26.515625 31.984375 
L 29.59375 31.296875 
Q 39.15625 29.25 43.1875 25.515625 
Q 47.21875 21.78125 47.21875 15.09375 
Q 47.21875 7.46875 41.1875 3.015625 
Q 35.15625 -1.421875 24.609375 -1.421875 
Q 20.21875 -1.421875 15.453125 -0.5625 
Q 10.6875 0.296875 5.421875 2 
L 5.421875 11.28125 
Q 10.40625 8.6875 15.234375 7.390625 
Q 20.0625 6.109375 24.8125 6.109375 
Q 31.15625 6.109375 34.5625 8.28125 
Q 37.984375 10.453125 37.984375 14.40625 
Q 37.984375 18.0625 35.515625 20.015625 
Q 33.0625 21.96875 24.703125 23.78125 
L 21.578125 24.515625 
Q 13.234375 26.265625 9.515625 29.90625 
Q 5.8125 33.546875 5.8125 39.890625 
Q 5.8125 47.609375 11.28125 51.796875 
Q 16.75 56 26.8125 56 
Q 31.78125 56 36.171875 55.265625 
Q 40.578125 54.546875 44.28125 53.078125 
z
" id="DejaVuSans-115"/>
     <path d="M 9.421875 54.6875 
L 18.40625 54.6875 
L 18.40625 0 
L 9.421875 0 
z
M 9.421875 75.984375 
L 18.40625 75.984375 
L 18.40625 64.59375 
L 9.421875 64.59375 
z
" id="DejaVuSans-105"/>
     <path d="M 52 44.1875 
Q 55.375 50.25 60.0625 53.125 
Q 64.75 56 71.09375 56 
Q 79.640625 56 84.28125 50.015625 
Q 88.921875 44.046875 88.921875 33.015625 
L 88.921875 0 
L 79.890625 0 
L 79.890625 32.71875 
Q 79.890625 40.578125 77.09375 44.375 
Q 74.3125 48.1875 68.609375 48.1875 
Q 61.625 48.1875 57.5625 43.546875 
Q 53.515625 38.921875 53.515625 30.90625 
L 53.515625 0 
L 44.484375 0 
L 44.484375 32.71875 
Q 44.484375 40.625 41.703125 44.40625 
Q 38.921875 48.1875 33.109375 48.1875 
Q 26.21875 48.1875 22.15625 43.53125 
Q 18.109375 38.875 18.109375 30.90625 
L 18.109375 0 
L 9.078125 0 
L 9.078125 54.6875 
L 18.109375 54.6875 
L 18.109375 46.1875 
Q 21.1875 51.21875 25.484375 53.609375 
Q 29.78125 56 35.6875 56 
Q 41.65625 56 45.828125 52.96875 
Q 50 49.953125 52 44.1875 
z
" id="DejaVuSans-109"/>
     <path d="M 18.109375 8.203125 
L 18.109375 -20.796875 
L 9.078125 -20.796875 
L 9.078125 54.6875 
L 18.109375 54.6875 
L 18.109375 46.390625 
Q 20.953125 51.265625 25.265625 53.625 
Q 29.59375 56 35.59375 56 
Q 45.5625 56 51.78125 48.09375 
Q 58.015625 40.1875 58.015625 27.296875 
Q 58.015625 14.40625 51.78125 6.484375 
Q 45.5625 -1.421875 35.59375 -1.421875 
Q 29.59375 -1.421875 25.265625 0.953125 
Q 20.953125 3.328125 18.109375 8.203125 
z
M 48.6875 27.296875 
Q 48.6875 37.203125 44.609375 42.84375 
Q 40.53125 48.484375 33.40625 48.484375 
Q 26.265625 48.484375 22.1875 42.84375 
Q 18.109375 37.203125 18.109375 27.296875 
Q 18.109375 17.390625 22.1875 11.75 
Q 26.265625 6.109375 33.40625 6.109375 
Q 40.53125 6.109375 44.609375 11.75 
Q 48.6875 17.390625 48.6875 27.296875 
z
" id="DejaVuSans-112"/>
     <path d="M 40.578125 39.3125 
Q 47.65625 37.796875 51.625 33 
Q 55.609375 28.21875 55.609375 21.1875 
Q 55.609375 10.40625 48.1875 4.484375 
Q 40.765625 -1.421875 27.09375 -1.421875 
Q 22.515625 -1.421875 17.65625 -0.515625 
Q 12.796875 0.390625 7.625 2.203125 
L 7.625 11.71875 
Q 11.71875 9.328125 16.59375 8.109375 
Q 21.484375 6.890625 26.8125 6.890625 
Q 36.078125 6.890625 40.9375 10.546875 
Q 45.796875 14.203125 45.796875 21.1875 
Q 45.796875 27.640625 41.28125 31.265625 
Q 36.765625 34.90625 28.71875 34.90625 
L 20.21875 34.90625 
L 20.21875 43.015625 
L 29.109375 43.015625 
Q 36.375 43.015625 40.234375 45.921875 
Q 44.09375 48.828125 44.09375 54.296875 
Q 44.09375 59.90625 40.109375 62.90625 
Q 36.140625 65.921875 28.71875 65.921875 
Q 24.65625 65.921875 20.015625 65.03125 
Q 15.375 64.15625 9.8125 62.3125 
L 9.8125 71.09375 
Q 15.4375 72.65625 20.34375 73.4375 
Q 25.25 74.21875 29.59375 74.21875 
Q 40.828125 74.21875 47.359375 69.109375 
Q 53.90625 64.015625 53.90625 55.328125 
Q 53.90625 49.265625 50.4375 45.09375 
Q 46.96875 40.921875 40.578125 39.3125 
z
" id="DejaVuSans-51"/>
     <path d="M 41.109375 46.296875 
Q 39.59375 47.171875 37.8125 47.578125 
Q 36.03125 48 33.890625 48 
Q 26.265625 48 22.1875 43.046875 
Q 18.109375 38.09375 18.109375 28.8125 
L 18.109375 0 
L 9.078125 0 
L 9.078125 54.6875 
L 18.109375 54.6875 
L 18.109375 46.1875 
Q 20.953125 51.171875 25.484375 53.578125 
Q 30.03125 56 36.53125 56 
Q 37.453125 56 38.578125 55.875 
Q 39.703125 55.765625 41.0625 55.515625 
z
" id="DejaVuSans-114"/>
     <path d="M 30.609375 48.390625 
Q 23.390625 48.390625 19.1875 42.75 
Q 14.984375 37.109375 14.984375 27.296875 
Q 14.984375 17.484375 19.15625 11.84375 
Q 23.34375 6.203125 30.609375 6.203125 
Q 37.796875 6.203125 41.984375 11.859375 
Q 46.1875 17.53125 46.1875 27.296875 
Q 46.1875 37.015625 41.984375 42.703125 
Q 37.796875 48.390625 30.609375 48.390625 
z
M 30.609375 56 
Q 42.328125 56 49.015625 48.375 
Q 55.71875 40.765625 55.71875 27.296875 
Q 55.71875 13.875 49.015625 6.21875 
Q 42.328125 -1.421875 30.609375 -1.421875 
Q 18.84375 -1.421875 12.171875 6.21875 
Q 5.515625 13.875 5.515625 27.296875 
Q 5.515625 40.765625 12.171875 48.375 
Q 18.84375 56 30.609375 56 
z
" id="DejaVuSans-111"/>
     <path d="M 31.78125 66.40625 
Q 24.171875 66.40625 20.328125 58.90625 
Q 16.5 51.421875 16.5 36.375 
Q 16.5 21.390625 20.328125 13.890625 
Q 24.171875 6.390625 31.78125 6.390625 
Q 39.453125 6.390625 43.28125 13.890625 
Q 47.125 21.390625 47.125 36.375 
Q 47.125 51.421875 43.28125 58.90625 
Q 39.453125 66.40625 31.78125 66.40625 
z
M 31.78125 74.21875 
Q 44.046875 74.21875 50.515625 64.515625 
Q 56.984375 54.828125 56.984375 36.375 
Q 56.984375 17.96875 50.515625 8.265625 
Q 44.046875 -1.421875 31.78125 -1.421875 
Q 19.53125 -1.421875 13.0625 8.265625 
Q 6.59375 17.96875 6.59375 36.375 
Q 6.59375 54.828125 13.0625 64.515625 
Q 19.53125 74.21875 31.78125 74.21875 
z
" id="DejaVuSans-48"/>
     <path d="M 10.6875 12.40625 
L 21 12.40625 
L 21 0 
L 10.6875 0 
z
" id="DejaVuSans-46"/>
     <path d="M 12.40625 8.296875 
L 28.515625 8.296875 
L 28.515625 63.921875 
L 10.984375 60.40625 
L 10.984375 69.390625 
L 28.421875 72.90625 
L 38.28125 72.90625 
L 38.28125 8.296875 
L 54.390625 8.296875 
L 54.390625 0 
L 12.40625 0 
z
" id="DejaVuSans-49"/>
     <path d="M 10.984375 1.515625 
L 10.984375 10.5 
Q 14.703125 8.734375 18.5 7.8125 
Q 22.3125 6.890625 25.984375 6.890625 
Q 35.75 6.890625 40.890625 13.453125 
Q 46.046875 20.015625 46.78125 33.40625 
Q 43.953125 29.203125 39.59375 26.953125 
Q 35.25 24.703125 29.984375 24.703125 
Q 19.046875 24.703125 12.671875 31.3125 
Q 6.296875 37.9375 6.296875 49.421875 
Q 6.296875 60.640625 12.9375 67.421875 
Q 19.578125 74.21875 30.609375 74.21875 
Q 43.265625 74.21875 49.921875 64.515625 
Q 56.59375 54.828125 56.59375 36.375 
Q 56.59375 19.140625 48.40625 8.859375 
Q 40.234375 -1.421875 26.421875 -1.421875 
Q 22.703125 -1.421875 18.890625 -0.6875 
Q 15.09375 0.046875 10.984375 1.515625 
z
M 30.609375 32.421875 
Q 37.25 32.421875 41.125 36.953125 
Q 45.015625 41.5 45.015625 49.421875 
Q 45.015625 57.28125 41.125 61.84375 
Q 37.25 66.40625 30.609375 66.40625 
Q 23.96875 66.40625 20.09375 61.84375 
Q 16.21875 57.28125 16.21875 49.421875 
Q 16.21875 41.5 20.09375 36.953125 
Q 23.96875 32.421875 30.609375 32.421875 
z
" id="DejaVuSans-57"/>
    </defs>
    <use xlink:href="#DejaVuSans-76"/>
    <use x="55.712891" xlink:href="#DejaVuSans-54"/>
    <use x="119.335938" xlink:href="#DejaVuSans-32"/>
    <use x="151.123047" xlink:href="#DejaVuSans-73"/>
    <use x="180.615234" xlink:href="#DejaVuSans-84"/>
    <use x="241.699219" xlink:href="#DejaVuSans-32"/>
    <use x="273.486328" xlink:href="#DejaVuSans-99"/>
    <use x="328.466797" xlink:href="#DejaVuSans-101"/>
    <use x="389.990234" xlink:href="#DejaVuSans-108"/>
    <use x="417.773438" xlink:href="#DejaVuSans-108"/>
    <use x="445.556641" xlink:href="#DejaVuSans-32"/>
    <use x="477.34375" xlink:href="#DejaVuSans-104"/>
    <use x="540.722656" xlink:href="#DejaVuSans-97"/>
    <use x="602.001953" xlink:href="#DejaVuSans-115"/>
    <use x="654.101562" xlink:href="#DejaVuSans-32"/>
    <use x="685.888672" xlink:href="#DejaVuSans-84"/>
    <use x="743.847656" xlink:href="#DejaVuSans-105"/>
    <use x="771.630859" xlink:href="#DejaVuSans-109"/>
    <use x="869.042969" xlink:href="#DejaVuSans-112"/>
    <use x="932.519531" xlink:href="#DejaVuSans-51"/>
    <use x="996.142578" xlink:href="#DejaVuSans-32"/>
    <use x="1027.929688" xlink:href="#DejaVuSans-112"/>
    <use x="1091.40625" xlink:href="#DejaVuSans-101"/>
    <use x="1152.929688" xlink:href="#DejaVuSans-114"/>
    <use x="1194.042969" xlink:href="#DejaVuSans-105"/>
    <use x="1221.826172" xlink:href="#DejaVuSans-112"/>
    <use x="1285.302734" xlink:href="#DejaVuSans-104"/>
    <use x="1348.681641" xlink:href="#DejaVuSans-101"/>
    <use x="1410.205078" xlink:href="#DejaVuSans-114"/>
    <use x="1451.318359" xlink:href="#DejaVuSans-97"/>
    <use x="1512.597656" xlink:href="#DejaVuSans-108"/>
    <use x="1540.380859" xlink:href="#DejaVuSans-32"/>
    <use x="1572.167969" xlink:href="#DejaVuSans-115"/>
    <use x="1624.267578" xlink:href="#DejaVuSans-99"/>
    <use x="1679.248047" xlink:href="#DejaVuSans-111"/>
    <use x="1740.429688" xlink:href="#DejaVuSans-114"/>
    <use x="1779.292969" xlink:href="#DejaVuSans-101"/>
    <use x="1840.816406" xlink:href="#DejaVuSans-32"/>
    <use x="1872.603516" xlink:href="#DejaVuSans-48"/>
    <use x="1936.226562" xlink:href="#DejaVuSans-46"/>
    <use x="1968.013672" xlink:href="#DejaVuSans-49"/>
    <use x="2031.636719" xlink:href="#DejaVuSans-57"/>
   </g>
  </g>
  <g id="legend_1">
   <g id="patch_44">
    <path d="M 1369.975 22.678125 
L 1433 22.678125 
Q 1435 22.678125 1435 20.678125 
L 1435 7 
Q 1435 5 1433 5 
L 1369.975 5 
Q 1367.975 5 1367.975 7 
L 1367.975 20.678125 
Q 1367.975 22.678125 1369.975 22.678125 
z
" style="fill:#ffffff;opacity:0.8;stroke:#cccccc;stroke-linejoin:miter;"/>
   </g>
   <g id="patch_45">
    <path d="M 1371.975 16.598438 
L 1391.975 16.598438 
L 1391.975 9.598438 
L 1371.975 9.598438 
z
" style="fill:#ff0000;"/>
   </g>
   <g id="text_2">
    <!-- Timp3 -->
    <g transform="translate(1399.975 16.598438)scale(0.1 -0.1)">
     <use xlink:href="#DejaVuSans-84"/>
     <use x="57.958984" xlink:href="#DejaVuSans-105"/>
     <use x="85.742188" xlink:href="#DejaVuSans-109"/>
     <use x="183.154297" xlink:href="#DejaVuSans-112"/>
     <use x="246.630859" xlink:href="#DejaVuSans-51"/>
    </g>
   </g>
  </g>
 </g>
 <defs>
  <clipPath id="p28eaf913a1">
   <rect height="271.8" width="279" x="180" y="86.4"/>
  </clipPath>
  <clipPath id="pd2e6eedf58">
   <rect height="271.8" width="279" x="459" y="86.4"/>
  </clipPath>
  <clipPath id="p0dace67759">
   <rect height="271.8" width="279" x="738" y="86.4"/>
  </clipPath>
  <clipPath id="pa335bc0a09">
   <rect height="271.8" width="279" x="1017" y="86.4"/>
  </clipPath>
  <clipPath id="p719fdc3d61">
   <rect height="271.8" width="279" x="180" y="358.2"/>
  </clipPath>
  <clipPath id="p6b5f4a4e70">
   <rect height="271.8" width="279" x="459" y="358.2"/>
  </clipPath>
  <clipPath id="pc4072685a1">
   <rect height="271.8" width="279" x="738" y="358.2"/>
  </clipPath>
 </defs>
</svg>
