<?xml version="1.0" encoding="utf-8" standalone="no"?>
<!DOCTYPE svg PUBLIC "-//W3C//DTD SVG 1.1//EN"
  "http://www.w3.org/Graphics/SVG/1.1/DTD/svg11.dtd">
<svg xmlns:xlink="http://www.w3.org/1999/xlink" width="460.8pt" height="345.6pt" viewBox="0 0 460.8 345.6" xmlns="http://www.w3.org/2000/svg" version="1.1">
 <metadata>
  <rdf:RDF xmlns:dc="http://purl.org/dc/elements/1.1/" xmlns:cc="http://creativecommons.org/ns#" xmlns:rdf="http://www.w3.org/1999/02/22-rdf-syntax-ns#">
   <cc:Work>
    <dc:type rdf:resource="http://purl.org/dc/dcmitype/StillImage"/>
    <dc:date>2023-01-25T08:07:29.653117</dc:date>
    <dc:format>image/svg+xml</dc:format>
    <dc:creator>
     <cc:Agent>
      <dc:title>Matplotlib v3.5.3, https://matplotlib.org/</dc:title>
     </cc:Agent>
    </dc:creator>
   </cc:Work>
  </rdf:RDF>
 </metadata>
 <defs>
  <style type="text/css">*{stroke-linejoin: round; stroke-linecap: butt}</style>
 </defs>
 <g id="figure_1">
  <g id="patch_1">
   <path d="M 0 345.6 
L 460.8 345.6 
L 460.8 0 
L 0 0 
z
" style="fill: #ffffff"/>
  </g>
  <g id="axes_1">
   <g id="patch_2">
    <path d="M 57.6 307.584 
L 414.72 307.584 
L 414.72 41.472 
L 57.6 41.472 
z
" style="fill: #ffffff"/>
   </g>
   <g id="PolyCollection_1">
    <defs>
     <path id="mf3cac507f0" d="M 73.832727 -82.109288 
L 73.832727 -56.262508 
L 162.374876 -170.261085 
L 280.431074 -222.326237 
L 398.487273 -115.570983 
L 398.487273 -167.557424 
L 398.487273 -167.557424 
L 280.431074 -262.743864 
L 162.374876 -179.053017 
L 73.832727 -82.109288 
z
" style="stroke: #d0a3d0; stroke-opacity: 0.2"/>
    </defs>
    <g clip-path="url(#p2b916005f9)">
     <use xlink:href="#mf3cac507f0" x="0" y="345.6" style="fill: #d0a3d0; fill-opacity: 0.2; stroke: #d0a3d0; stroke-opacity: 0.2"/>
    </g>
   </g>
   <g id="PolyCollection_2">
    <defs>
     <path id="m3fa89e1ade" d="M 73.832727 -202.996068 
L 73.832727 -175.758102 
L 162.374876 -250.589288 
L 280.431074 -248.099797 
L 398.487273 -162.651661 
L 398.487273 -220.093017 
L 398.487273 -220.093017 
L 280.431074 -281.26861 
L 162.374876 -262.670644 
L 73.832727 -202.996068 
z
" style="stroke: #a3a3ff; stroke-opacity: 0.2"/>
    </defs>
    <g clip-path="url(#p2b916005f9)">
     <use xlink:href="#m3fa89e1ade" x="0" y="345.6" style="fill: #a3a3ff; fill-opacity: 0.2; stroke: #a3a3ff; stroke-opacity: 0.2"/>
    </g>
   </g>
   <g id="PathCollection_1">
    <defs>
     <path id="C0_0_90463efb5f" d="M 0 3 
C 0.795609 3 1.55874 2.683901 2.12132 2.12132 
C 2.683901 1.55874 3 0.795609 3 -0 
C 3 -0.795609 2.683901 -1.55874 2.12132 -2.12132 
C 1.55874 -2.683901 0.795609 -3 0 -3 
C -0.795609 -3 -1.55874 -2.683901 -2.12132 -2.12132 
C -2.683901 -1.55874 -3 -0.795609 -3 0 
C -3 0.795609 -2.683901 1.55874 -2.12132 2.12132 
C -1.55874 2.683901 -0.795609 3 0 3 
z
"/>
    </defs>
    <g clip-path="url(#p2b916005f9)">
     <use xlink:href="#C0_0_90463efb5f" x="73.832727" y="270.885966" style="fill: #d0a3d0; stroke: #ffffff; stroke-width: 0.48"/>
    </g>
    <g clip-path="url(#p2b916005f9)">
     <use xlink:href="#C0_0_90463efb5f" x="73.832727" y="176.578169" style="fill: #a3a3ff; stroke: #ffffff; stroke-width: 0.48"/>
    </g>
    <g clip-path="url(#p2b916005f9)">
     <use xlink:href="#C0_0_90463efb5f" x="162.374876" y="176.871051" style="fill: #d0a3d0; stroke: #ffffff; stroke-width: 0.48"/>
    </g>
    <g clip-path="url(#p2b916005f9)">
     <use xlink:href="#C0_0_90463efb5f" x="162.374876" y="94.57139" style="fill: #a3a3ff; stroke: #ffffff; stroke-width: 0.48"/>
    </g>
    <g clip-path="url(#p2b916005f9)">
     <use xlink:href="#C0_0_90463efb5f" x="280.431074" y="90.763932" style="fill: #d0a3d0; stroke: #ffffff; stroke-width: 0.48"/>
    </g>
    <g clip-path="url(#p2b916005f9)">
     <use xlink:href="#C0_0_90463efb5f" x="280.431074" y="98.378847" style="fill: #a3a3ff; stroke: #ffffff; stroke-width: 0.48"/>
    </g>
    <g clip-path="url(#p2b916005f9)">
     <use xlink:href="#C0_0_90463efb5f" x="398.487273" y="238.669017" style="fill: #d0a3d0; stroke: #ffffff; stroke-width: 0.48"/>
    </g>
    <g clip-path="url(#p2b916005f9)">
     <use xlink:href="#C0_0_90463efb5f" x="398.487273" y="199.130034" style="fill: #a3a3ff; stroke: #ffffff; stroke-width: 0.48"/>
    </g>
    <g clip-path="url(#p2b916005f9)">
     <use xlink:href="#C0_0_90463efb5f" x="73.832727" y="271.178847" style="fill: #d0a3d0; stroke: #ffffff; stroke-width: 0.48"/>
    </g>
    <g clip-path="url(#p2b916005f9)">
     <use xlink:href="#C0_0_90463efb5f" x="73.832727" y="163.105627" style="fill: #a3a3ff; stroke: #ffffff; stroke-width: 0.48"/>
    </g>
    <g clip-path="url(#p2b916005f9)">
     <use xlink:href="#C0_0_90463efb5f" x="162.374876" y="164.862915" style="fill: #d0a3d0; stroke: #ffffff; stroke-width: 0.48"/>
    </g>
    <g clip-path="url(#p2b916005f9)">
     <use xlink:href="#C0_0_90463efb5f" x="162.374876" y="95.450034" style="fill: #a3a3ff; stroke: #ffffff; stroke-width: 0.48"/>
    </g>
    <g clip-path="url(#p2b916005f9)">
     <use xlink:href="#C0_0_90463efb5f" x="280.431074" y="74.948339" style="fill: #d0a3d0; stroke: #ffffff; stroke-width: 0.48"/>
    </g>
    <g clip-path="url(#p2b916005f9)">
     <use xlink:href="#C0_0_90463efb5f" x="280.431074" y="53.568" style="fill: #a3a3ff; stroke: #ffffff; stroke-width: 0.48"/>
    </g>
    <g clip-path="url(#p2b916005f9)">
     <use xlink:href="#C0_0_90463efb5f" x="398.487273" y="165.155797" style="fill: #d0a3d0; stroke: #ffffff; stroke-width: 0.48"/>
    </g>
    <g clip-path="url(#p2b916005f9)">
     <use xlink:href="#C0_0_90463efb5f" x="398.487273" y="116.830373" style="fill: #a3a3ff; stroke: #ffffff; stroke-width: 0.48"/>
    </g>
    <g clip-path="url(#p2b916005f9)">
     <use xlink:href="#C0_0_90463efb5f" x="73.832727" y="260.928" style="fill: #d0a3d0; stroke: #ffffff; stroke-width: 0.48"/>
    </g>
    <g clip-path="url(#p2b916005f9)">
     <use xlink:href="#C0_0_90463efb5f" x="73.832727" y="143.482576" style="fill: #a3a3ff; stroke: #ffffff; stroke-width: 0.48"/>
    </g>
    <g clip-path="url(#p2b916005f9)">
     <use xlink:href="#C0_0_90463efb5f" x="162.374876" y="171.599186" style="fill: #d0a3d0; stroke: #ffffff; stroke-width: 0.48"/>
    </g>
    <g clip-path="url(#p2b916005f9)">
     <use xlink:href="#C0_0_90463efb5f" x="162.374876" y="88.420881" style="fill: #a3a3ff; stroke: #ffffff; stroke-width: 0.48"/>
    </g>
    <g clip-path="url(#p2b916005f9)">
     <use xlink:href="#C0_0_90463efb5f" x="280.431074" y="128.545627" style="fill: #d0a3d0; stroke: #ffffff; stroke-width: 0.48"/>
    </g>
    <g clip-path="url(#p2b916005f9)">
     <use xlink:href="#C0_0_90463efb5f" x="280.431074" y="96.621559" style="fill: #a3a3ff; stroke: #ffffff; stroke-width: 0.48"/>
    </g>
    <g clip-path="url(#p2b916005f9)">
     <use xlink:href="#C0_0_90463efb5f" x="398.487273" y="221.389017" style="fill: #d0a3d0; stroke: #ffffff; stroke-width: 0.48"/>
    </g>
    <g clip-path="url(#p2b916005f9)">
     <use xlink:href="#C0_0_90463efb5f" x="398.487273" y="165.448678" style="fill: #a3a3ff; stroke: #ffffff; stroke-width: 0.48"/>
    </g>
    <g clip-path="url(#p2b916005f9)">
     <use xlink:href="#C0_0_90463efb5f" x="73.832727" y="295.488" style="fill: #d0a3d0; stroke: #ffffff; stroke-width: 0.48"/>
    </g>
    <g clip-path="url(#p2b916005f9)">
     <use xlink:href="#C0_0_90463efb5f" x="73.832727" y="141.725288" style="fill: #a3a3ff; stroke: #ffffff; stroke-width: 0.48"/>
    </g>
    <g clip-path="url(#p2b916005f9)">
     <use xlink:href="#C0_0_90463efb5f" x="162.374876" y="170.720542" style="fill: #d0a3d0; stroke: #ffffff; stroke-width: 0.48"/>
    </g>
    <g clip-path="url(#p2b916005f9)">
     <use xlink:href="#C0_0_90463efb5f" x="162.374876" y="79.048678" style="fill: #a3a3ff; stroke: #ffffff; stroke-width: 0.48"/>
    </g>
    <g clip-path="url(#p2b916005f9)">
     <use xlink:href="#C0_0_90463efb5f" x="280.431074" y="118.001898" style="fill: #d0a3d0; stroke: #ffffff; stroke-width: 0.48"/>
    </g>
    <g clip-path="url(#p2b916005f9)">
     <use xlink:href="#C0_0_90463efb5f" x="280.431074" y="79.634441" style="fill: #a3a3ff; stroke: #ffffff; stroke-width: 0.48"/>
    </g>
    <g clip-path="url(#p2b916005f9)">
     <use xlink:href="#C0_0_90463efb5f" x="398.487273" y="190.929356" style="fill: #d0a3d0; stroke: #ffffff; stroke-width: 0.48"/>
    </g>
    <g clip-path="url(#p2b916005f9)">
     <use xlink:href="#C0_0_90463efb5f" x="398.487273" y="134.403254" style="fill: #a3a3ff; stroke: #ffffff; stroke-width: 0.48"/>
    </g>
   </g>
   <g id="matplotlib.axis_1">
    <g id="xtick_1">
     <g id="line2d_1">
      <defs>
       <path id="mf38ceb8581" d="M 0 0 
L 0 3.5 
" style="stroke: #000000; stroke-width: 0.8"/>
      </defs>
      <g>
       <use xlink:href="#mf38ceb8581" x="73.832727" y="307.584" style="stroke: #000000; stroke-width: 0.8"/>
      </g>
     </g>
     <g id="text_1">
      <!-- 6 -->
      <g transform="translate(70.651477 322.182437)scale(0.1 -0.1)">
       <defs>
        <path id="DejaVuSans-36" d="M 2113 2584 
Q 1688 2584 1439 2293 
Q 1191 2003 1191 1497 
Q 1191 994 1439 701 
Q 1688 409 2113 409 
Q 2538 409 2786 701 
Q 3034 994 3034 1497 
Q 3034 2003 2786 2293 
Q 2538 2584 2113 2584 
z
M 3366 4563 
L 3366 3988 
Q 3128 4100 2886 4159 
Q 2644 4219 2406 4219 
Q 1781 4219 1451 3797 
Q 1122 3375 1075 2522 
Q 1259 2794 1537 2939 
Q 1816 3084 2150 3084 
Q 2853 3084 3261 2657 
Q 3669 2231 3669 1497 
Q 3669 778 3244 343 
Q 2819 -91 2113 -91 
Q 1303 -91 875 529 
Q 447 1150 447 2328 
Q 447 3434 972 4092 
Q 1497 4750 2381 4750 
Q 2619 4750 2861 4703 
Q 3103 4656 3366 4563 
z
" transform="scale(0.015625)"/>
       </defs>
       <use xlink:href="#DejaVuSans-36"/>
      </g>
     </g>
    </g>
    <g id="xtick_2">
     <g id="line2d_2">
      <g>
       <use xlink:href="#mf38ceb8581" x="162.374876" y="307.584" style="stroke: #000000; stroke-width: 0.8"/>
      </g>
     </g>
     <g id="text_2">
      <!-- 24 -->
      <g transform="translate(156.012376 322.182437)scale(0.1 -0.1)">
       <defs>
        <path id="DejaVuSans-32" d="M 1228 531 
L 3431 531 
L 3431 0 
L 469 0 
L 469 531 
Q 828 903 1448 1529 
Q 2069 2156 2228 2338 
Q 2531 2678 2651 2914 
Q 2772 3150 2772 3378 
Q 2772 3750 2511 3984 
Q 2250 4219 1831 4219 
Q 1534 4219 1204 4116 
Q 875 4013 500 3803 
L 500 4441 
Q 881 4594 1212 4672 
Q 1544 4750 1819 4750 
Q 2544 4750 2975 4387 
Q 3406 4025 3406 3419 
Q 3406 3131 3298 2873 
Q 3191 2616 2906 2266 
Q 2828 2175 2409 1742 
Q 1991 1309 1228 531 
z
" transform="scale(0.015625)"/>
        <path id="DejaVuSans-34" d="M 2419 4116 
L 825 1625 
L 2419 1625 
L 2419 4116 
z
M 2253 4666 
L 3047 4666 
L 3047 1625 
L 3713 1625 
L 3713 1100 
L 3047 1100 
L 3047 0 
L 2419 0 
L 2419 1100 
L 313 1100 
L 313 1709 
L 2253 4666 
z
" transform="scale(0.015625)"/>
       </defs>
       <use xlink:href="#DejaVuSans-32"/>
       <use xlink:href="#DejaVuSans-34" x="63.623047"/>
      </g>
     </g>
    </g>
    <g id="xtick_3">
     <g id="line2d_3">
      <g>
       <use xlink:href="#mf38ceb8581" x="280.431074" y="307.584" style="stroke: #000000; stroke-width: 0.8"/>
      </g>
     </g>
     <g id="text_3">
      <!-- 48 -->
      <g transform="translate(274.068574 322.182437)scale(0.1 -0.1)">
       <defs>
        <path id="DejaVuSans-38" d="M 2034 2216 
Q 1584 2216 1326 1975 
Q 1069 1734 1069 1313 
Q 1069 891 1326 650 
Q 1584 409 2034 409 
Q 2484 409 2743 651 
Q 3003 894 3003 1313 
Q 3003 1734 2745 1975 
Q 2488 2216 2034 2216 
z
M 1403 2484 
Q 997 2584 770 2862 
Q 544 3141 544 3541 
Q 544 4100 942 4425 
Q 1341 4750 2034 4750 
Q 2731 4750 3128 4425 
Q 3525 4100 3525 3541 
Q 3525 3141 3298 2862 
Q 3072 2584 2669 2484 
Q 3125 2378 3379 2068 
Q 3634 1759 3634 1313 
Q 3634 634 3220 271 
Q 2806 -91 2034 -91 
Q 1263 -91 848 271 
Q 434 634 434 1313 
Q 434 1759 690 2068 
Q 947 2378 1403 2484 
z
M 1172 3481 
Q 1172 3119 1398 2916 
Q 1625 2713 2034 2713 
Q 2441 2713 2670 2916 
Q 2900 3119 2900 3481 
Q 2900 3844 2670 4047 
Q 2441 4250 2034 4250 
Q 1625 4250 1398 4047 
Q 1172 3844 1172 3481 
z
" transform="scale(0.015625)"/>
       </defs>
       <use xlink:href="#DejaVuSans-34"/>
       <use xlink:href="#DejaVuSans-38" x="63.623047"/>
      </g>
     </g>
    </g>
    <g id="xtick_4">
     <g id="line2d_4">
      <g>
       <use xlink:href="#mf38ceb8581" x="398.487273" y="307.584" style="stroke: #000000; stroke-width: 0.8"/>
      </g>
     </g>
     <g id="text_4">
      <!-- 72 -->
      <g transform="translate(392.124773 322.182437)scale(0.1 -0.1)">
       <defs>
        <path id="DejaVuSans-37" d="M 525 4666 
L 3525 4666 
L 3525 4397 
L 1831 0 
L 1172 0 
L 2766 4134 
L 525 4134 
L 525 4666 
z
" transform="scale(0.015625)"/>
       </defs>
       <use xlink:href="#DejaVuSans-37"/>
       <use xlink:href="#DejaVuSans-32" x="63.623047"/>
      </g>
     </g>
    </g>
    <g id="text_5">
     <!-- Hours since pericyte plating -->
     <g transform="translate(130.913906 339.659781)scale(0.15 -0.15)">
      <defs>
       <path id="DejaVuSans-48" d="M 628 4666 
L 1259 4666 
L 1259 2753 
L 3553 2753 
L 3553 4666 
L 4184 4666 
L 4184 0 
L 3553 0 
L 3553 2222 
L 1259 2222 
L 1259 0 
L 628 0 
L 628 4666 
z
" transform="scale(0.015625)"/>
       <path id="DejaVuSans-6f" d="M 1959 3097 
Q 1497 3097 1228 2736 
Q 959 2375 959 1747 
Q 959 1119 1226 758 
Q 1494 397 1959 397 
Q 2419 397 2687 759 
Q 2956 1122 2956 1747 
Q 2956 2369 2687 2733 
Q 2419 3097 1959 3097 
z
M 1959 3584 
Q 2709 3584 3137 3096 
Q 3566 2609 3566 1747 
Q 3566 888 3137 398 
Q 2709 -91 1959 -91 
Q 1206 -91 779 398 
Q 353 888 353 1747 
Q 353 2609 779 3096 
Q 1206 3584 1959 3584 
z
" transform="scale(0.015625)"/>
       <path id="DejaVuSans-75" d="M 544 1381 
L 544 3500 
L 1119 3500 
L 1119 1403 
Q 1119 906 1312 657 
Q 1506 409 1894 409 
Q 2359 409 2629 706 
Q 2900 1003 2900 1516 
L 2900 3500 
L 3475 3500 
L 3475 0 
L 2900 0 
L 2900 538 
Q 2691 219 2414 64 
Q 2138 -91 1772 -91 
Q 1169 -91 856 284 
Q 544 659 544 1381 
z
M 1991 3584 
L 1991 3584 
z
" transform="scale(0.015625)"/>
       <path id="DejaVuSans-72" d="M 2631 2963 
Q 2534 3019 2420 3045 
Q 2306 3072 2169 3072 
Q 1681 3072 1420 2755 
Q 1159 2438 1159 1844 
L 1159 0 
L 581 0 
L 581 3500 
L 1159 3500 
L 1159 2956 
Q 1341 3275 1631 3429 
Q 1922 3584 2338 3584 
Q 2397 3584 2469 3576 
Q 2541 3569 2628 3553 
L 2631 2963 
z
" transform="scale(0.015625)"/>
       <path id="DejaVuSans-73" d="M 2834 3397 
L 2834 2853 
Q 2591 2978 2328 3040 
Q 2066 3103 1784 3103 
Q 1356 3103 1142 2972 
Q 928 2841 928 2578 
Q 928 2378 1081 2264 
Q 1234 2150 1697 2047 
L 1894 2003 
Q 2506 1872 2764 1633 
Q 3022 1394 3022 966 
Q 3022 478 2636 193 
Q 2250 -91 1575 -91 
Q 1294 -91 989 -36 
Q 684 19 347 128 
L 347 722 
Q 666 556 975 473 
Q 1284 391 1588 391 
Q 1994 391 2212 530 
Q 2431 669 2431 922 
Q 2431 1156 2273 1281 
Q 2116 1406 1581 1522 
L 1381 1569 
Q 847 1681 609 1914 
Q 372 2147 372 2553 
Q 372 3047 722 3315 
Q 1072 3584 1716 3584 
Q 2034 3584 2315 3537 
Q 2597 3491 2834 3397 
z
" transform="scale(0.015625)"/>
       <path id="DejaVuSans-20" transform="scale(0.015625)"/>
       <path id="DejaVuSans-69" d="M 603 3500 
L 1178 3500 
L 1178 0 
L 603 0 
L 603 3500 
z
M 603 4863 
L 1178 4863 
L 1178 4134 
L 603 4134 
L 603 4863 
z
" transform="scale(0.015625)"/>
       <path id="DejaVuSans-6e" d="M 3513 2113 
L 3513 0 
L 2938 0 
L 2938 2094 
Q 2938 2591 2744 2837 
Q 2550 3084 2163 3084 
Q 1697 3084 1428 2787 
Q 1159 2491 1159 1978 
L 1159 0 
L 581 0 
L 581 3500 
L 1159 3500 
L 1159 2956 
Q 1366 3272 1645 3428 
Q 1925 3584 2291 3584 
Q 2894 3584 3203 3211 
Q 3513 2838 3513 2113 
z
" transform="scale(0.015625)"/>
       <path id="DejaVuSans-63" d="M 3122 3366 
L 3122 2828 
Q 2878 2963 2633 3030 
Q 2388 3097 2138 3097 
Q 1578 3097 1268 2742 
Q 959 2388 959 1747 
Q 959 1106 1268 751 
Q 1578 397 2138 397 
Q 2388 397 2633 464 
Q 2878 531 3122 666 
L 3122 134 
Q 2881 22 2623 -34 
Q 2366 -91 2075 -91 
Q 1284 -91 818 406 
Q 353 903 353 1747 
Q 353 2603 823 3093 
Q 1294 3584 2113 3584 
Q 2378 3584 2631 3529 
Q 2884 3475 3122 3366 
z
" transform="scale(0.015625)"/>
       <path id="DejaVuSans-65" d="M 3597 1894 
L 3597 1613 
L 953 1613 
Q 991 1019 1311 708 
Q 1631 397 2203 397 
Q 2534 397 2845 478 
Q 3156 559 3463 722 
L 3463 178 
Q 3153 47 2828 -22 
Q 2503 -91 2169 -91 
Q 1331 -91 842 396 
Q 353 884 353 1716 
Q 353 2575 817 3079 
Q 1281 3584 2069 3584 
Q 2775 3584 3186 3129 
Q 3597 2675 3597 1894 
z
M 3022 2063 
Q 3016 2534 2758 2815 
Q 2500 3097 2075 3097 
Q 1594 3097 1305 2825 
Q 1016 2553 972 2059 
L 3022 2063 
z
" transform="scale(0.015625)"/>
       <path id="DejaVuSans-70" d="M 1159 525 
L 1159 -1331 
L 581 -1331 
L 581 3500 
L 1159 3500 
L 1159 2969 
Q 1341 3281 1617 3432 
Q 1894 3584 2278 3584 
Q 2916 3584 3314 3078 
Q 3713 2572 3713 1747 
Q 3713 922 3314 415 
Q 2916 -91 2278 -91 
Q 1894 -91 1617 61 
Q 1341 213 1159 525 
z
M 3116 1747 
Q 3116 2381 2855 2742 
Q 2594 3103 2138 3103 
Q 1681 3103 1420 2742 
Q 1159 2381 1159 1747 
Q 1159 1113 1420 752 
Q 1681 391 2138 391 
Q 2594 391 2855 752 
Q 3116 1113 3116 1747 
z
" transform="scale(0.015625)"/>
       <path id="DejaVuSans-79" d="M 2059 -325 
Q 1816 -950 1584 -1140 
Q 1353 -1331 966 -1331 
L 506 -1331 
L 506 -850 
L 844 -850 
Q 1081 -850 1212 -737 
Q 1344 -625 1503 -206 
L 1606 56 
L 191 3500 
L 800 3500 
L 1894 763 
L 2988 3500 
L 3597 3500 
L 2059 -325 
z
" transform="scale(0.015625)"/>
       <path id="DejaVuSans-74" d="M 1172 4494 
L 1172 3500 
L 2356 3500 
L 2356 3053 
L 1172 3053 
L 1172 1153 
Q 1172 725 1289 603 
Q 1406 481 1766 481 
L 2356 481 
L 2356 0 
L 1766 0 
Q 1100 0 847 248 
Q 594 497 594 1153 
L 594 3053 
L 172 3053 
L 172 3500 
L 594 3500 
L 594 4494 
L 1172 4494 
z
" transform="scale(0.015625)"/>
       <path id="DejaVuSans-6c" d="M 603 4863 
L 1178 4863 
L 1178 0 
L 603 0 
L 603 4863 
z
" transform="scale(0.015625)"/>
       <path id="DejaVuSans-61" d="M 2194 1759 
Q 1497 1759 1228 1600 
Q 959 1441 959 1056 
Q 959 750 1161 570 
Q 1363 391 1709 391 
Q 2188 391 2477 730 
Q 2766 1069 2766 1631 
L 2766 1759 
L 2194 1759 
z
M 3341 1997 
L 3341 0 
L 2766 0 
L 2766 531 
Q 2569 213 2275 61 
Q 1981 -91 1556 -91 
Q 1019 -91 701 211 
Q 384 513 384 1019 
Q 384 1609 779 1909 
Q 1175 2209 1959 2209 
L 2766 2209 
L 2766 2266 
Q 2766 2663 2505 2880 
Q 2244 3097 1772 3097 
Q 1472 3097 1187 3025 
Q 903 2953 641 2809 
L 641 3341 
Q 956 3463 1253 3523 
Q 1550 3584 1831 3584 
Q 2591 3584 2966 3190 
Q 3341 2797 3341 1997 
z
" transform="scale(0.015625)"/>
       <path id="DejaVuSans-67" d="M 2906 1791 
Q 2906 2416 2648 2759 
Q 2391 3103 1925 3103 
Q 1463 3103 1205 2759 
Q 947 2416 947 1791 
Q 947 1169 1205 825 
Q 1463 481 1925 481 
Q 2391 481 2648 825 
Q 2906 1169 2906 1791 
z
M 3481 434 
Q 3481 -459 3084 -895 
Q 2688 -1331 1869 -1331 
Q 1566 -1331 1297 -1286 
Q 1028 -1241 775 -1147 
L 775 -588 
Q 1028 -725 1275 -790 
Q 1522 -856 1778 -856 
Q 2344 -856 2625 -561 
Q 2906 -266 2906 331 
L 2906 616 
Q 2728 306 2450 153 
Q 2172 0 1784 0 
Q 1141 0 747 490 
Q 353 981 353 1791 
Q 353 2603 747 3093 
Q 1141 3584 1784 3584 
Q 2172 3584 2450 3431 
Q 2728 3278 2906 2969 
L 2906 3500 
L 3481 3500 
L 3481 434 
z
" transform="scale(0.015625)"/>
      </defs>
      <use xlink:href="#DejaVuSans-48"/>
      <use xlink:href="#DejaVuSans-6f" x="75.195312"/>
      <use xlink:href="#DejaVuSans-75" x="136.376953"/>
      <use xlink:href="#DejaVuSans-72" x="199.755859"/>
      <use xlink:href="#DejaVuSans-73" x="240.869141"/>
      <use xlink:href="#DejaVuSans-20" x="292.96875"/>
      <use xlink:href="#DejaVuSans-73" x="324.755859"/>
      <use xlink:href="#DejaVuSans-69" x="376.855469"/>
      <use xlink:href="#DejaVuSans-6e" x="404.638672"/>
      <use xlink:href="#DejaVuSans-63" x="468.017578"/>
      <use xlink:href="#DejaVuSans-65" x="522.998047"/>
      <use xlink:href="#DejaVuSans-20" x="584.521484"/>
      <use xlink:href="#DejaVuSans-70" x="616.308594"/>
      <use xlink:href="#DejaVuSans-65" x="679.785156"/>
      <use xlink:href="#DejaVuSans-72" x="741.308594"/>
      <use xlink:href="#DejaVuSans-69" x="782.421875"/>
      <use xlink:href="#DejaVuSans-63" x="810.205078"/>
      <use xlink:href="#DejaVuSans-79" x="865.185547"/>
      <use xlink:href="#DejaVuSans-74" x="924.365234"/>
      <use xlink:href="#DejaVuSans-65" x="963.574219"/>
      <use xlink:href="#DejaVuSans-20" x="1025.097656"/>
      <use xlink:href="#DejaVuSans-70" x="1056.884766"/>
      <use xlink:href="#DejaVuSans-6c" x="1120.361328"/>
      <use xlink:href="#DejaVuSans-61" x="1148.144531"/>
      <use xlink:href="#DejaVuSans-74" x="1209.423828"/>
      <use xlink:href="#DejaVuSans-69" x="1248.632812"/>
      <use xlink:href="#DejaVuSans-6e" x="1276.416016"/>
      <use xlink:href="#DejaVuSans-67" x="1339.794922"/>
     </g>
    </g>
   </g>
   <g id="matplotlib.axis_2">
    <g id="ytick_1">
     <g id="line2d_5">
      <defs>
       <path id="ma8c45ca324" d="M 0 0 
L -3.5 0 
" style="stroke: #000000; stroke-width: 0.8"/>
      </defs>
      <g>
       <use xlink:href="#ma8c45ca324" x="57.6" y="266.785627" style="stroke: #000000; stroke-width: 0.8"/>
      </g>
     </g>
     <g id="text_6">
      <!-- 13.0 -->
      <g transform="translate(28.334375 270.584846)scale(0.1 -0.1)">
       <defs>
        <path id="DejaVuSans-31" d="M 794 531 
L 1825 531 
L 1825 4091 
L 703 3866 
L 703 4441 
L 1819 4666 
L 2450 4666 
L 2450 531 
L 3481 531 
L 3481 0 
L 794 0 
L 794 531 
z
" transform="scale(0.015625)"/>
        <path id="DejaVuSans-33" d="M 2597 2516 
Q 3050 2419 3304 2112 
Q 3559 1806 3559 1356 
Q 3559 666 3084 287 
Q 2609 -91 1734 -91 
Q 1441 -91 1130 -33 
Q 819 25 488 141 
L 488 750 
Q 750 597 1062 519 
Q 1375 441 1716 441 
Q 2309 441 2620 675 
Q 2931 909 2931 1356 
Q 2931 1769 2642 2001 
Q 2353 2234 1838 2234 
L 1294 2234 
L 1294 2753 
L 1863 2753 
Q 2328 2753 2575 2939 
Q 2822 3125 2822 3475 
Q 2822 3834 2567 4026 
Q 2313 4219 1838 4219 
Q 1578 4219 1281 4162 
Q 984 4106 628 3988 
L 628 4550 
Q 988 4650 1302 4700 
Q 1616 4750 1894 4750 
Q 2613 4750 3031 4423 
Q 3450 4097 3450 3541 
Q 3450 3153 3228 2886 
Q 3006 2619 2597 2516 
z
" transform="scale(0.015625)"/>
        <path id="DejaVuSans-2e" d="M 684 794 
L 1344 794 
L 1344 0 
L 684 0 
L 684 794 
z
" transform="scale(0.015625)"/>
        <path id="DejaVuSans-30" d="M 2034 4250 
Q 1547 4250 1301 3770 
Q 1056 3291 1056 2328 
Q 1056 1369 1301 889 
Q 1547 409 2034 409 
Q 2525 409 2770 889 
Q 3016 1369 3016 2328 
Q 3016 3291 2770 3770 
Q 2525 4250 2034 4250 
z
M 2034 4750 
Q 2819 4750 3233 4129 
Q 3647 3509 3647 2328 
Q 3647 1150 3233 529 
Q 2819 -91 2034 -91 
Q 1250 -91 836 529 
Q 422 1150 422 2328 
Q 422 3509 836 4129 
Q 1250 4750 2034 4750 
z
" transform="scale(0.015625)"/>
       </defs>
       <use xlink:href="#DejaVuSans-31"/>
       <use xlink:href="#DejaVuSans-33" x="63.623047"/>
       <use xlink:href="#DejaVuSans-2e" x="127.246094"/>
       <use xlink:href="#DejaVuSans-30" x="159.033203"/>
      </g>
     </g>
    </g>
    <g id="ytick_2">
     <g id="line2d_6">
      <g>
       <use xlink:href="#ma8c45ca324" x="57.6" y="222.853424" style="stroke: #000000; stroke-width: 0.8"/>
      </g>
     </g>
     <g id="text_7">
      <!-- 13.5 -->
      <g transform="translate(28.334375 226.652642)scale(0.1 -0.1)">
       <defs>
        <path id="DejaVuSans-35" d="M 691 4666 
L 3169 4666 
L 3169 4134 
L 1269 4134 
L 1269 2991 
Q 1406 3038 1543 3061 
Q 1681 3084 1819 3084 
Q 2600 3084 3056 2656 
Q 3513 2228 3513 1497 
Q 3513 744 3044 326 
Q 2575 -91 1722 -91 
Q 1428 -91 1123 -41 
Q 819 9 494 109 
L 494 744 
Q 775 591 1075 516 
Q 1375 441 1709 441 
Q 2250 441 2565 725 
Q 2881 1009 2881 1497 
Q 2881 1984 2565 2268 
Q 2250 2553 1709 2553 
Q 1456 2553 1204 2497 
Q 953 2441 691 2322 
L 691 4666 
z
" transform="scale(0.015625)"/>
       </defs>
       <use xlink:href="#DejaVuSans-31"/>
       <use xlink:href="#DejaVuSans-33" x="63.623047"/>
       <use xlink:href="#DejaVuSans-2e" x="127.246094"/>
       <use xlink:href="#DejaVuSans-35" x="159.033203"/>
      </g>
     </g>
    </g>
    <g id="ytick_3">
     <g id="line2d_7">
      <g>
       <use xlink:href="#ma8c45ca324" x="57.6" y="178.92122" style="stroke: #000000; stroke-width: 0.8"/>
      </g>
     </g>
     <g id="text_8">
      <!-- 14.0 -->
      <g transform="translate(28.334375 182.720439)scale(0.1 -0.1)">
       <use xlink:href="#DejaVuSans-31"/>
       <use xlink:href="#DejaVuSans-34" x="63.623047"/>
       <use xlink:href="#DejaVuSans-2e" x="127.246094"/>
       <use xlink:href="#DejaVuSans-30" x="159.033203"/>
      </g>
     </g>
    </g>
    <g id="ytick_4">
     <g id="line2d_8">
      <g>
       <use xlink:href="#ma8c45ca324" x="57.6" y="134.989017" style="stroke: #000000; stroke-width: 0.8"/>
      </g>
     </g>
     <g id="text_9">
      <!-- 14.5 -->
      <g transform="translate(28.334375 138.788236)scale(0.1 -0.1)">
       <use xlink:href="#DejaVuSans-31"/>
       <use xlink:href="#DejaVuSans-34" x="63.623047"/>
       <use xlink:href="#DejaVuSans-2e" x="127.246094"/>
       <use xlink:href="#DejaVuSans-35" x="159.033203"/>
      </g>
     </g>
    </g>
    <g id="ytick_5">
     <g id="line2d_9">
      <g>
       <use xlink:href="#ma8c45ca324" x="57.6" y="91.056814" style="stroke: #000000; stroke-width: 0.8"/>
      </g>
     </g>
     <g id="text_10">
      <!-- 15.0 -->
      <g transform="translate(28.334375 94.856032)scale(0.1 -0.1)">
       <use xlink:href="#DejaVuSans-31"/>
       <use xlink:href="#DejaVuSans-35" x="63.623047"/>
       <use xlink:href="#DejaVuSans-2e" x="127.246094"/>
       <use xlink:href="#DejaVuSans-30" x="159.033203"/>
      </g>
     </g>
    </g>
    <g id="ytick_6">
     <g id="line2d_10">
      <g>
       <use xlink:href="#ma8c45ca324" x="57.6" y="47.12461" style="stroke: #000000; stroke-width: 0.8"/>
      </g>
     </g>
     <g id="text_11">
      <!-- 15.5 -->
      <g transform="translate(28.334375 50.923829)scale(0.1 -0.1)">
       <use xlink:href="#DejaVuSans-31"/>
       <use xlink:href="#DejaVuSans-35" x="63.623047"/>
       <use xlink:href="#DejaVuSans-2e" x="127.246094"/>
       <use xlink:href="#DejaVuSans-35" x="159.033203"/>
      </g>
     </g>
    </g>
    <g id="text_12">
     <!-- ${\Delta CT = CT_{Timp3}-CT_{18s}}$ -->
     <g transform="translate(18.754375 269.748)rotate(-90)scale(0.18 -0.18)">
      <defs>
       <path id="DejaVuSans-394" d="M 2188 4044 
L 906 525 
L 3472 525 
L 2188 4044 
z
M 50 0 
L 1831 4666 
L 2547 4666 
L 4325 0 
L 50 0 
z
" transform="scale(0.015625)"/>
       <path id="DejaVuSans-Oblique-43" d="M 4447 4306 
L 4319 3641 
Q 4019 3944 3683 4091 
Q 3347 4238 2956 4238 
Q 2422 4238 2017 3981 
Q 1613 3725 1319 3200 
Q 1131 2863 1032 2486 
Q 934 2109 934 1728 
Q 934 1091 1264 756 
Q 1594 422 2222 422 
Q 2656 422 3056 561 
Q 3456 700 3834 978 
L 3688 231 
Q 3316 72 2936 -9 
Q 2556 -91 2175 -91 
Q 1278 -91 773 396 
Q 269 884 269 1753 
Q 269 2309 461 2846 
Q 653 3384 1013 3828 
Q 1394 4300 1883 4525 
Q 2372 4750 3022 4750 
Q 3422 4750 3780 4639 
Q 4138 4528 4447 4306 
z
" transform="scale(0.015625)"/>
       <path id="DejaVuSans-Oblique-54" d="M 378 4666 
L 4325 4666 
L 4225 4134 
L 2559 4134 
L 1759 0 
L 1125 0 
L 1925 4134 
L 275 4134 
L 378 4666 
z
" transform="scale(0.015625)"/>
       <path id="DejaVuSans-3d" d="M 678 2906 
L 4684 2906 
L 4684 2381 
L 678 2381 
L 678 2906 
z
M 678 1631 
L 4684 1631 
L 4684 1100 
L 678 1100 
L 678 1631 
z
" transform="scale(0.015625)"/>
       <path id="DejaVuSans-Oblique-69" d="M 1172 4863 
L 1747 4863 
L 1606 4134 
L 1031 4134 
L 1172 4863 
z
M 909 3500 
L 1484 3500 
L 800 0 
L 225 0 
L 909 3500 
z
" transform="scale(0.015625)"/>
       <path id="DejaVuSans-Oblique-6d" d="M 5747 2113 
L 5338 0 
L 4763 0 
L 5166 2094 
Q 5191 2228 5203 2325 
Q 5216 2422 5216 2491 
Q 5216 2772 5059 2928 
Q 4903 3084 4622 3084 
Q 4203 3084 3875 2770 
Q 3547 2456 3450 1953 
L 3066 0 
L 2491 0 
L 2900 2094 
Q 2925 2209 2937 2307 
Q 2950 2406 2950 2484 
Q 2950 2769 2794 2926 
Q 2638 3084 2363 3084 
Q 1938 3084 1609 2770 
Q 1281 2456 1184 1953 
L 800 0 
L 225 0 
L 909 3500 
L 1484 3500 
L 1375 2956 
Q 1609 3263 1923 3423 
Q 2238 3584 2597 3584 
Q 2978 3584 3223 3384 
Q 3469 3184 3519 2828 
Q 3781 3197 4126 3390 
Q 4472 3584 4856 3584 
Q 5306 3584 5551 3325 
Q 5797 3066 5797 2591 
Q 5797 2488 5784 2364 
Q 5772 2241 5747 2113 
z
" transform="scale(0.015625)"/>
       <path id="DejaVuSans-Oblique-70" d="M 3175 2156 
Q 3175 2616 2975 2859 
Q 2775 3103 2400 3103 
Q 2144 3103 1911 2972 
Q 1678 2841 1497 2591 
Q 1319 2344 1212 1994 
Q 1106 1644 1106 1300 
Q 1106 863 1306 627 
Q 1506 391 1875 391 
Q 2147 391 2380 519 
Q 2613 647 2778 891 
Q 2956 1147 3065 1494 
Q 3175 1841 3175 2156 
z
M 1394 2969 
Q 1625 3272 1939 3428 
Q 2253 3584 2638 3584 
Q 3175 3584 3472 3232 
Q 3769 2881 3769 2247 
Q 3769 1728 3584 1258 
Q 3400 788 3053 416 
Q 2822 169 2531 39 
Q 2241 -91 1919 -91 
Q 1547 -91 1294 64 
Q 1041 219 916 525 
L 556 -1331 
L -19 -1331 
L 922 3500 
L 1497 3500 
L 1394 2969 
z
" transform="scale(0.015625)"/>
       <path id="DejaVuSans-2212" d="M 678 2272 
L 4684 2272 
L 4684 1741 
L 678 1741 
L 678 2272 
z
" transform="scale(0.015625)"/>
       <path id="DejaVuSans-Oblique-73" d="M 3200 3397 
L 3091 2853 
Q 2863 2978 2609 3040 
Q 2356 3103 2088 3103 
Q 1634 3103 1373 2948 
Q 1113 2794 1113 2528 
Q 1113 2219 1719 2053 
Q 1766 2041 1788 2034 
L 1972 1978 
Q 2547 1819 2739 1644 
Q 2931 1469 2931 1166 
Q 2931 609 2489 259 
Q 2047 -91 1331 -91 
Q 1053 -91 747 -37 
Q 441 16 72 128 
L 184 722 
Q 500 559 806 475 
Q 1113 391 1394 391 
Q 1816 391 2080 572 
Q 2344 753 2344 1031 
Q 2344 1331 1650 1516 
L 1591 1531 
L 1394 1581 
Q 956 1697 753 1886 
Q 550 2075 550 2369 
Q 550 2928 970 3256 
Q 1391 3584 2113 3584 
Q 2397 3584 2667 3537 
Q 2938 3491 3200 3397 
z
" transform="scale(0.015625)"/>
      </defs>
      <use xlink:href="#DejaVuSans-394" transform="translate(0 0.78125)"/>
      <use xlink:href="#DejaVuSans-Oblique-43" transform="translate(68.408203 0.78125)"/>
      <use xlink:href="#DejaVuSans-Oblique-54" transform="translate(138.232422 0.78125)"/>
      <use xlink:href="#DejaVuSans-3d" transform="translate(218.798828 0.78125)"/>
      <use xlink:href="#DejaVuSans-Oblique-43" transform="translate(322.070312 0.78125)"/>
      <use xlink:href="#DejaVuSans-Oblique-54" transform="translate(391.894531 0.78125)"/>
      <use xlink:href="#DejaVuSans-Oblique-54" transform="translate(452.978516 -15.625)scale(0.7)"/>
      <use xlink:href="#DejaVuSans-Oblique-69" transform="translate(495.737305 -15.625)scale(0.7)"/>
      <use xlink:href="#DejaVuSans-Oblique-6d" transform="translate(515.185547 -15.625)scale(0.7)"/>
      <use xlink:href="#DejaVuSans-Oblique-70" transform="translate(583.374023 -15.625)scale(0.7)"/>
      <use xlink:href="#DejaVuSans-33" transform="translate(627.807617 -15.625)scale(0.7)"/>
      <use xlink:href="#DejaVuSans-2212" transform="translate(694.560547 0.78125)"/>
      <use xlink:href="#DejaVuSans-Oblique-43" transform="translate(797.832031 0.78125)"/>
      <use xlink:href="#DejaVuSans-Oblique-54" transform="translate(867.65625 0.78125)"/>
      <use xlink:href="#DejaVuSans-31" transform="translate(928.740234 -15.625)scale(0.7)"/>
      <use xlink:href="#DejaVuSans-38" transform="translate(973.276367 -15.625)scale(0.7)"/>
      <use xlink:href="#DejaVuSans-Oblique-73" transform="translate(1017.8125 -15.625)scale(0.7)"/>
     </g>
    </g>
   </g>
   <g id="line2d_11">
    <path d="M 73.832727 274.620203 
L 162.374876 171.013424 
L 280.431074 103.064949 
L 398.487273 204.035797 
" clip-path="url(#p2b916005f9)" style="fill: none; stroke: #d0a3d0; stroke-width: 1.5; stroke-linecap: square"/>
   </g>
   <g id="line2d_12">
    <path d="M 73.832727 156.222915 
L 162.374876 89.372746 
L 280.431074 82.050712 
L 398.487273 153.953085 
" clip-path="url(#p2b916005f9)" style="fill: none; stroke: #a3a3ff; stroke-width: 1.5; stroke-linecap: square"/>
   </g>
   <g id="line2d_13"/>
   <g id="line2d_14"/>
   <g id="patch_3">
    <path d="M 57.6 307.584 
L 57.6 41.472 
" style="fill: none; stroke: #000000; stroke-width: 0.8; stroke-linejoin: miter; stroke-linecap: square"/>
   </g>
   <g id="patch_4">
    <path d="M 414.72 307.584 
L 414.72 41.472 
" style="fill: none; stroke: #000000; stroke-width: 0.8; stroke-linejoin: miter; stroke-linecap: square"/>
   </g>
   <g id="patch_5">
    <path d="M 57.6 307.584 
L 414.72 307.584 
" style="fill: none; stroke: #000000; stroke-width: 0.8; stroke-linejoin: miter; stroke-linecap: square"/>
   </g>
   <g id="patch_6">
    <path d="M 57.6 41.472 
L 414.72 41.472 
" style="fill: none; stroke: #000000; stroke-width: 0.8; stroke-linejoin: miter; stroke-linecap: square"/>
   </g>
   <g id="text_13">
    <!-- $\Delta$CT of Timp3 3' UTR normalized by 18s increases before decreasing -->
    <g transform="translate(30.36 35.472)scale(0.12 -0.12)">
     <defs>
      <path id="DejaVuSans-43" d="M 4122 4306 
L 4122 3641 
Q 3803 3938 3442 4084 
Q 3081 4231 2675 4231 
Q 1875 4231 1450 3742 
Q 1025 3253 1025 2328 
Q 1025 1406 1450 917 
Q 1875 428 2675 428 
Q 3081 428 3442 575 
Q 3803 722 4122 1019 
L 4122 359 
Q 3791 134 3420 21 
Q 3050 -91 2638 -91 
Q 1578 -91 968 557 
Q 359 1206 359 2328 
Q 359 3453 968 4101 
Q 1578 4750 2638 4750 
Q 3056 4750 3426 4639 
Q 3797 4528 4122 4306 
z
" transform="scale(0.015625)"/>
      <path id="DejaVuSans-54" d="M -19 4666 
L 3928 4666 
L 3928 4134 
L 2272 4134 
L 2272 0 
L 1638 0 
L 1638 4134 
L -19 4134 
L -19 4666 
z
" transform="scale(0.015625)"/>
      <path id="DejaVuSans-66" d="M 2375 4863 
L 2375 4384 
L 1825 4384 
Q 1516 4384 1395 4259 
Q 1275 4134 1275 3809 
L 1275 3500 
L 2222 3500 
L 2222 3053 
L 1275 3053 
L 1275 0 
L 697 0 
L 697 3053 
L 147 3053 
L 147 3500 
L 697 3500 
L 697 3744 
Q 697 4328 969 4595 
Q 1241 4863 1831 4863 
L 2375 4863 
z
" transform="scale(0.015625)"/>
      <path id="DejaVuSans-6d" d="M 3328 2828 
Q 3544 3216 3844 3400 
Q 4144 3584 4550 3584 
Q 5097 3584 5394 3201 
Q 5691 2819 5691 2113 
L 5691 0 
L 5113 0 
L 5113 2094 
Q 5113 2597 4934 2840 
Q 4756 3084 4391 3084 
Q 3944 3084 3684 2787 
Q 3425 2491 3425 1978 
L 3425 0 
L 2847 0 
L 2847 2094 
Q 2847 2600 2669 2842 
Q 2491 3084 2119 3084 
Q 1678 3084 1418 2786 
Q 1159 2488 1159 1978 
L 1159 0 
L 581 0 
L 581 3500 
L 1159 3500 
L 1159 2956 
Q 1356 3278 1631 3431 
Q 1906 3584 2284 3584 
Q 2666 3584 2933 3390 
Q 3200 3197 3328 2828 
z
" transform="scale(0.015625)"/>
      <path id="DejaVuSans-27" d="M 1147 4666 
L 1147 2931 
L 616 2931 
L 616 4666 
L 1147 4666 
z
" transform="scale(0.015625)"/>
      <path id="DejaVuSans-55" d="M 556 4666 
L 1191 4666 
L 1191 1831 
Q 1191 1081 1462 751 
Q 1734 422 2344 422 
Q 2950 422 3222 751 
Q 3494 1081 3494 1831 
L 3494 4666 
L 4128 4666 
L 4128 1753 
Q 4128 841 3676 375 
Q 3225 -91 2344 -91 
Q 1459 -91 1007 375 
Q 556 841 556 1753 
L 556 4666 
z
" transform="scale(0.015625)"/>
      <path id="DejaVuSans-52" d="M 2841 2188 
Q 3044 2119 3236 1894 
Q 3428 1669 3622 1275 
L 4263 0 
L 3584 0 
L 2988 1197 
Q 2756 1666 2539 1819 
Q 2322 1972 1947 1972 
L 1259 1972 
L 1259 0 
L 628 0 
L 628 4666 
L 2053 4666 
Q 2853 4666 3247 4331 
Q 3641 3997 3641 3322 
Q 3641 2881 3436 2590 
Q 3231 2300 2841 2188 
z
M 1259 4147 
L 1259 2491 
L 2053 2491 
Q 2509 2491 2742 2702 
Q 2975 2913 2975 3322 
Q 2975 3731 2742 3939 
Q 2509 4147 2053 4147 
L 1259 4147 
z
" transform="scale(0.015625)"/>
      <path id="DejaVuSans-7a" d="M 353 3500 
L 3084 3500 
L 3084 2975 
L 922 459 
L 3084 459 
L 3084 0 
L 275 0 
L 275 525 
L 2438 3041 
L 353 3041 
L 353 3500 
z
" transform="scale(0.015625)"/>
      <path id="DejaVuSans-64" d="M 2906 2969 
L 2906 4863 
L 3481 4863 
L 3481 0 
L 2906 0 
L 2906 525 
Q 2725 213 2448 61 
Q 2172 -91 1784 -91 
Q 1150 -91 751 415 
Q 353 922 353 1747 
Q 353 2572 751 3078 
Q 1150 3584 1784 3584 
Q 2172 3584 2448 3432 
Q 2725 3281 2906 2969 
z
M 947 1747 
Q 947 1113 1208 752 
Q 1469 391 1925 391 
Q 2381 391 2643 752 
Q 2906 1113 2906 1747 
Q 2906 2381 2643 2742 
Q 2381 3103 1925 3103 
Q 1469 3103 1208 2742 
Q 947 2381 947 1747 
z
" transform="scale(0.015625)"/>
      <path id="DejaVuSans-62" d="M 3116 1747 
Q 3116 2381 2855 2742 
Q 2594 3103 2138 3103 
Q 1681 3103 1420 2742 
Q 1159 2381 1159 1747 
Q 1159 1113 1420 752 
Q 1681 391 2138 391 
Q 2594 391 2855 752 
Q 3116 1113 3116 1747 
z
M 1159 2969 
Q 1341 3281 1617 3432 
Q 1894 3584 2278 3584 
Q 2916 3584 3314 3078 
Q 3713 2572 3713 1747 
Q 3713 922 3314 415 
Q 2916 -91 2278 -91 
Q 1894 -91 1617 61 
Q 1341 213 1159 525 
L 1159 0 
L 581 0 
L 581 4863 
L 1159 4863 
L 1159 2969 
z
" transform="scale(0.015625)"/>
     </defs>
     <use xlink:href="#DejaVuSans-394" transform="translate(0 0.015625)"/>
     <use xlink:href="#DejaVuSans-43" transform="translate(68.408203 0.015625)"/>
     <use xlink:href="#DejaVuSans-54" transform="translate(138.232422 0.015625)"/>
     <use xlink:href="#DejaVuSans-20" transform="translate(199.316406 0.015625)"/>
     <use xlink:href="#DejaVuSans-6f" transform="translate(231.103516 0.015625)"/>
     <use xlink:href="#DejaVuSans-66" transform="translate(292.285156 0.015625)"/>
     <use xlink:href="#DejaVuSans-20" transform="translate(327.490234 0.015625)"/>
     <use xlink:href="#DejaVuSans-54" transform="translate(359.277344 0.015625)"/>
     <use xlink:href="#DejaVuSans-69" transform="translate(420.361328 0.015625)"/>
     <use xlink:href="#DejaVuSans-6d" transform="translate(448.144531 0.015625)"/>
     <use xlink:href="#DejaVuSans-70" transform="translate(545.556641 0.015625)"/>
     <use xlink:href="#DejaVuSans-33" transform="translate(609.033203 0.015625)"/>
     <use xlink:href="#DejaVuSans-20" transform="translate(672.65625 0.015625)"/>
     <use xlink:href="#DejaVuSans-33" transform="translate(704.443359 0.015625)"/>
     <use xlink:href="#DejaVuSans-27" transform="translate(768.066406 0.015625)"/>
     <use xlink:href="#DejaVuSans-20" transform="translate(795.556641 0.015625)"/>
     <use xlink:href="#DejaVuSans-55" transform="translate(827.34375 0.015625)"/>
     <use xlink:href="#DejaVuSans-54" transform="translate(898.787109 0.015625)"/>
     <use xlink:href="#DejaVuSans-52" transform="translate(959.871094 0.015625)"/>
     <use xlink:href="#DejaVuSans-20" transform="translate(1029.353516 0.015625)"/>
     <use xlink:href="#DejaVuSans-6e" transform="translate(1061.140625 0.015625)"/>
     <use xlink:href="#DejaVuSans-6f" transform="translate(1124.519531 0.015625)"/>
     <use xlink:href="#DejaVuSans-72" transform="translate(1185.701172 0.015625)"/>
     <use xlink:href="#DejaVuSans-6d" transform="translate(1226.814453 0.015625)"/>
     <use xlink:href="#DejaVuSans-61" transform="translate(1324.226562 0.015625)"/>
     <use xlink:href="#DejaVuSans-6c" transform="translate(1385.505859 0.015625)"/>
     <use xlink:href="#DejaVuSans-69" transform="translate(1413.289062 0.015625)"/>
     <use xlink:href="#DejaVuSans-7a" transform="translate(1441.072266 0.015625)"/>
     <use xlink:href="#DejaVuSans-65" transform="translate(1493.5625 0.015625)"/>
     <use xlink:href="#DejaVuSans-64" transform="translate(1555.085938 0.015625)"/>
     <use xlink:href="#DejaVuSans-20" transform="translate(1618.5625 0.015625)"/>
     <use xlink:href="#DejaVuSans-62" transform="translate(1650.349609 0.015625)"/>
     <use xlink:href="#DejaVuSans-79" transform="translate(1713.826172 0.015625)"/>
     <use xlink:href="#DejaVuSans-20" transform="translate(1773.005859 0.015625)"/>
     <use xlink:href="#DejaVuSans-31" transform="translate(1804.792969 0.015625)"/>
     <use xlink:href="#DejaVuSans-38" transform="translate(1868.416016 0.015625)"/>
     <use xlink:href="#DejaVuSans-73" transform="translate(1932.039062 0.015625)"/>
     <use xlink:href="#DejaVuSans-20" transform="translate(1984.138672 0.015625)"/>
     <use xlink:href="#DejaVuSans-69" transform="translate(2015.925781 0.015625)"/>
     <use xlink:href="#DejaVuSans-6e" transform="translate(2043.708984 0.015625)"/>
     <use xlink:href="#DejaVuSans-63" transform="translate(2107.087891 0.015625)"/>
     <use xlink:href="#DejaVuSans-72" transform="translate(2162.068359 0.015625)"/>
     <use xlink:href="#DejaVuSans-65" transform="translate(2203.181641 0.015625)"/>
     <use xlink:href="#DejaVuSans-61" transform="translate(2264.705078 0.015625)"/>
     <use xlink:href="#DejaVuSans-73" transform="translate(2325.984375 0.015625)"/>
     <use xlink:href="#DejaVuSans-65" transform="translate(2378.083984 0.015625)"/>
     <use xlink:href="#DejaVuSans-73" transform="translate(2439.607422 0.015625)"/>
     <use xlink:href="#DejaVuSans-20" transform="translate(2491.707031 0.015625)"/>
     <use xlink:href="#DejaVuSans-62" transform="translate(2523.494141 0.015625)"/>
     <use xlink:href="#DejaVuSans-65" transform="translate(2586.970703 0.015625)"/>
     <use xlink:href="#DejaVuSans-66" transform="translate(2648.494141 0.015625)"/>
     <use xlink:href="#DejaVuSans-6f" transform="translate(2683.699219 0.015625)"/>
     <use xlink:href="#DejaVuSans-72" transform="translate(2744.880859 0.015625)"/>
     <use xlink:href="#DejaVuSans-65" transform="translate(2785.994141 0.015625)"/>
     <use xlink:href="#DejaVuSans-20" transform="translate(2847.517578 0.015625)"/>
     <use xlink:href="#DejaVuSans-64" transform="translate(2879.304688 0.015625)"/>
     <use xlink:href="#DejaVuSans-65" transform="translate(2942.78125 0.015625)"/>
     <use xlink:href="#DejaVuSans-63" transform="translate(3004.304688 0.015625)"/>
     <use xlink:href="#DejaVuSans-72" transform="translate(3059.285156 0.015625)"/>
     <use xlink:href="#DejaVuSans-65" transform="translate(3100.398438 0.015625)"/>
     <use xlink:href="#DejaVuSans-61" transform="translate(3161.921875 0.015625)"/>
     <use xlink:href="#DejaVuSans-73" transform="translate(3223.201172 0.015625)"/>
     <use xlink:href="#DejaVuSans-69" transform="translate(3275.300781 0.015625)"/>
     <use xlink:href="#DejaVuSans-6e" transform="translate(3303.083984 0.015625)"/>
     <use xlink:href="#DejaVuSans-67" transform="translate(3366.462891 0.015625)"/>
    </g>
   </g>
   <g id="legend_1">
    <g id="patch_7">
     <path d="M 332.829375 78.82825 
L 407.72 78.82825 
Q 409.72 78.82825 409.72 76.82825 
L 409.72 48.472 
Q 409.72 46.472 407.72 46.472 
L 332.829375 46.472 
Q 330.829375 46.472 330.829375 48.472 
L 330.829375 76.82825 
Q 330.829375 78.82825 332.829375 78.82825 
z
" style="fill: #ffffff; opacity: 0.8; stroke: #cccccc; stroke-linejoin: miter"/>
    </g>
    <g id="line2d_15">
     <path d="M 334.829375 54.570437 
L 344.829375 54.570437 
L 354.829375 54.570437 
" style="fill: none; stroke: #d0a3d0; stroke-width: 1.5; stroke-linecap: square"/>
    </g>
    <g id="text_14">
     <!-- Distal -->
     <g transform="translate(362.829375 58.070437)scale(0.1 -0.1)">
      <defs>
       <path id="DejaVuSans-44" d="M 1259 4147 
L 1259 519 
L 2022 519 
Q 2988 519 3436 956 
Q 3884 1394 3884 2338 
Q 3884 3275 3436 3711 
Q 2988 4147 2022 4147 
L 1259 4147 
z
M 628 4666 
L 1925 4666 
Q 3281 4666 3915 4102 
Q 4550 3538 4550 2338 
Q 4550 1131 3912 565 
Q 3275 0 1925 0 
L 628 0 
L 628 4666 
z
" transform="scale(0.015625)"/>
      </defs>
      <use xlink:href="#DejaVuSans-44"/>
      <use xlink:href="#DejaVuSans-69" x="77.001953"/>
      <use xlink:href="#DejaVuSans-73" x="104.785156"/>
      <use xlink:href="#DejaVuSans-74" x="156.884766"/>
      <use xlink:href="#DejaVuSans-61" x="196.09375"/>
      <use xlink:href="#DejaVuSans-6c" x="257.373047"/>
     </g>
    </g>
    <g id="line2d_16">
     <path d="M 334.829375 69.248562 
L 344.829375 69.248562 
L 354.829375 69.248562 
" style="fill: none; stroke: #a3a3ff; stroke-width: 1.5; stroke-linecap: square"/>
    </g>
    <g id="text_15">
     <!-- Proximal -->
     <g transform="translate(362.829375 72.748562)scale(0.1 -0.1)">
      <defs>
       <path id="DejaVuSans-50" d="M 1259 4147 
L 1259 2394 
L 2053 2394 
Q 2494 2394 2734 2622 
Q 2975 2850 2975 3272 
Q 2975 3691 2734 3919 
Q 2494 4147 2053 4147 
L 1259 4147 
z
M 628 4666 
L 2053 4666 
Q 2838 4666 3239 4311 
Q 3641 3956 3641 3272 
Q 3641 2581 3239 2228 
Q 2838 1875 2053 1875 
L 1259 1875 
L 1259 0 
L 628 0 
L 628 4666 
z
" transform="scale(0.015625)"/>
       <path id="DejaVuSans-78" d="M 3513 3500 
L 2247 1797 
L 3578 0 
L 2900 0 
L 1881 1375 
L 863 0 
L 184 0 
L 1544 1831 
L 300 3500 
L 978 3500 
L 1906 2253 
L 2834 3500 
L 3513 3500 
z
" transform="scale(0.015625)"/>
      </defs>
      <use xlink:href="#DejaVuSans-50"/>
      <use xlink:href="#DejaVuSans-72" x="58.552734"/>
      <use xlink:href="#DejaVuSans-6f" x="97.416016"/>
      <use xlink:href="#DejaVuSans-78" x="155.472656"/>
      <use xlink:href="#DejaVuSans-69" x="214.652344"/>
      <use xlink:href="#DejaVuSans-6d" x="242.435547"/>
      <use xlink:href="#DejaVuSans-61" x="339.847656"/>
      <use xlink:href="#DejaVuSans-6c" x="401.126953"/>
     </g>
    </g>
   </g>
  </g>
 </g>
 <defs>
  <clipPath id="p2b916005f9">
   <rect x="57.6" y="41.472" width="357.12" height="266.112"/>
  </clipPath>
 </defs>
</svg>
