<?xml version="1.0" encoding="utf-8" standalone="no"?>
<!DOCTYPE svg PUBLIC "-//W3C//DTD SVG 1.1//EN"
  "http://www.w3.org/Graphics/SVG/1.1/DTD/svg11.dtd">
<svg xmlns:xlink="http://www.w3.org/1999/xlink" width="460.8pt" height="345.6pt" viewBox="0 0 460.8 345.6" xmlns="http://www.w3.org/2000/svg" version="1.1">
 <metadata>
  <rdf:RDF xmlns:dc="http://purl.org/dc/elements/1.1/" xmlns:cc="http://creativecommons.org/ns#" xmlns:rdf="http://www.w3.org/1999/02/22-rdf-syntax-ns#">
   <cc:Work>
    <dc:type rdf:resource="http://purl.org/dc/dcmitype/StillImage"/>
    <dc:date>2023-01-25T07:58:05.860393</dc:date>
    <dc:format>image/svg+xml</dc:format>
    <dc:creator>
     <cc:Agent>
      <dc:title>Matplotlib v3.5.3, https://matplotlib.org/</dc:title>
     </cc:Agent>
    </dc:creator>
   </cc:Work>
  </rdf:RDF>
 </metadata>
 <defs>
  <style type="text/css">*{stroke-linejoin: round; stroke-linecap: butt}</style>
 </defs>
 <g id="figure_1">
  <g id="patch_1">
   <path d="M 0 345.6 
L 460.8 345.6 
L 460.8 0 
L 0 0 
z
" style="fill: #ffffff"/>
  </g>
  <g id="axes_1">
   <g id="patch_2">
    <path d="M 57.6 307.584 
L 414.72 307.584 
L 414.72 41.472 
L 57.6 41.472 
z
" style="fill: #ffffff"/>
   </g>
   <g id="PolyCollection_1">
    <defs>
     <path id="m35fb2c16cd" d="M 73.832727 -59.623131 
L 73.832727 -52.298645 
L 236.16 -60.513133 
L 398.487273 -176.237095 
L 398.487273 -267.004862 
L 398.487273 -267.004862 
L 236.16 -77.837105 
L 73.832727 -59.623131 
z
" style="stroke: #d0a3d0; stroke-opacity: 0.2"/>
    </defs>
    <g clip-path="url(#p74c60b6337)">
     <use xlink:href="#m35fb2c16cd" x="0" y="345.6" style="fill: #d0a3d0; fill-opacity: 0.2; stroke: #d0a3d0; stroke-opacity: 0.2"/>
    </g>
   </g>
   <g id="PolyCollection_2">
    <defs>
     <path id="mc5a2e37a40" d="M 73.832727 -72.159905 
L 73.832727 -64.73133 
L 236.16 -86.160541 
L 398.487273 -154.117376 
L 398.487273 -194.90673 
L 398.487273 -194.90673 
L 236.16 -108.4217 
L 73.832727 -72.159905 
z
" style="stroke: #a3a3ff; stroke-opacity: 0.2"/>
    </defs>
    <g clip-path="url(#p74c60b6337)">
     <use xlink:href="#mc5a2e37a40" x="0" y="345.6" style="fill: #a3a3ff; fill-opacity: 0.2; stroke: #a3a3ff; stroke-opacity: 0.2"/>
    </g>
   </g>
   <g id="PathCollection_1">
    <defs>
     <path id="C0_0_36c696e60a" d="M 0 3 
C 0.795609 3 1.55874 2.683901 2.12132 2.12132 
C 2.683901 1.55874 3 0.795609 3 -0 
C 3 -0.795609 2.683901 -1.55874 2.12132 -2.12132 
C 1.55874 -2.683901 0.795609 -3 0 -3 
C -0.795609 -3 -1.55874 -2.683901 -2.12132 -2.12132 
C -2.683901 -1.55874 -3 -0.795609 -3 0 
C -3 0.795609 -2.683901 1.55874 -2.12132 2.12132 
C -1.55874 2.683901 -0.795609 3 0 3 
z
"/>
    </defs>
    <g clip-path="url(#p74c60b6337)">
     <use xlink:href="#C0_0_36c696e60a" x="73.832727" y="286.741421" style="fill: #d0a3d0; stroke: #ffffff; stroke-width: 0.48"/>
    </g>
    <g clip-path="url(#p74c60b6337)">
     <use xlink:href="#C0_0_36c696e60a" x="73.832727" y="290.496441" style="fill: #d0a3d0; stroke: #ffffff; stroke-width: 0.48"/>
    </g>
    <g clip-path="url(#p74c60b6337)">
     <use xlink:href="#C0_0_36c696e60a" x="73.832727" y="285.212318" style="fill: #d0a3d0; stroke: #ffffff; stroke-width: 0.48"/>
    </g>
    <g clip-path="url(#p74c60b6337)">
     <use xlink:href="#C0_0_36c696e60a" x="73.832727" y="295.488" style="fill: #d0a3d0; stroke: #ffffff; stroke-width: 0.48"/>
    </g>
    <g clip-path="url(#p74c60b6337)">
     <use xlink:href="#C0_0_36c696e60a" x="73.832727" y="282.706999" style="fill: #a3a3ff; stroke: #ffffff; stroke-width: 0.48"/>
    </g>
    <g clip-path="url(#p74c60b6337)">
     <use xlink:href="#C0_0_36c696e60a" x="73.832727" y="277.356214" style="fill: #a3a3ff; stroke: #ffffff; stroke-width: 0.48"/>
    </g>
    <g clip-path="url(#p74c60b6337)">
     <use xlink:href="#C0_0_36c696e60a" x="73.832727" y="272.134722" style="fill: #a3a3ff; stroke: #ffffff; stroke-width: 0.48"/>
    </g>
    <g clip-path="url(#p74c60b6337)">
     <use xlink:href="#C0_0_36c696e60a" x="73.832727" y="275.353681" style="fill: #a3a3ff; stroke: #ffffff; stroke-width: 0.48"/>
    </g>
    <g clip-path="url(#p74c60b6337)">
     <use xlink:href="#C0_0_36c696e60a" x="236.16" y="284.127784" style="fill: #d0a3d0; stroke: #ffffff; stroke-width: 0.48"/>
    </g>
    <g clip-path="url(#p74c60b6337)">
     <use xlink:href="#C0_0_36c696e60a" x="236.16" y="285.406561" style="fill: #d0a3d0; stroke: #ffffff; stroke-width: 0.48"/>
    </g>
    <g clip-path="url(#p74c60b6337)">
     <use xlink:href="#C0_0_36c696e60a" x="236.16" y="266.648948" style="fill: #d0a3d0; stroke: #ffffff; stroke-width: 0.48"/>
    </g>
    <g clip-path="url(#p74c60b6337)">
     <use xlink:href="#C0_0_36c696e60a" x="236.16" y="271.104737" style="fill: #d0a3d0; stroke: #ffffff; stroke-width: 0.48"/>
    </g>
    <g clip-path="url(#p74c60b6337)">
     <use xlink:href="#C0_0_36c696e60a" x="236.16" y="239.501633" style="fill: #a3a3ff; stroke: #ffffff; stroke-width: 0.48"/>
    </g>
    <g clip-path="url(#p74c60b6337)">
     <use xlink:href="#C0_0_36c696e60a" x="236.16" y="266.085401" style="fill: #a3a3ff; stroke: #ffffff; stroke-width: 0.48"/>
    </g>
    <g clip-path="url(#p74c60b6337)">
     <use xlink:href="#C0_0_36c696e60a" x="236.16" y="236.403856" style="fill: #a3a3ff; stroke: #ffffff; stroke-width: 0.48"/>
    </g>
    <g clip-path="url(#p74c60b6337)">
     <use xlink:href="#C0_0_36c696e60a" x="236.16" y="241.706066" style="fill: #a3a3ff; stroke: #ffffff; stroke-width: 0.48"/>
    </g>
    <g clip-path="url(#p74c60b6337)">
     <use xlink:href="#C0_0_36c696e60a" x="398.487273" y="53.568" style="fill: #d0a3d0; stroke: #ffffff; stroke-width: 0.48"/>
    </g>
    <g clip-path="url(#p74c60b6337)">
     <use xlink:href="#C0_0_36c696e60a" x="398.487273" y="153.676551" style="fill: #d0a3d0; stroke: #ffffff; stroke-width: 0.48"/>
    </g>
    <g clip-path="url(#p74c60b6337)">
     <use xlink:href="#C0_0_36c696e60a" x="398.487273" y="150.027415" style="fill: #d0a3d0; stroke: #ffffff; stroke-width: 0.48"/>
    </g>
    <g clip-path="url(#p74c60b6337)">
     <use xlink:href="#C0_0_36c696e60a" x="398.487273" y="175.808068" style="fill: #d0a3d0; stroke: #ffffff; stroke-width: 0.48"/>
    </g>
    <g clip-path="url(#p74c60b6337)">
     <use xlink:href="#C0_0_36c696e60a" x="398.487273" y="138.613473" style="fill: #a3a3ff; stroke: #ffffff; stroke-width: 0.48"/>
    </g>
    <g clip-path="url(#p74c60b6337)">
     <use xlink:href="#C0_0_36c696e60a" x="398.487273" y="186.932661" style="fill: #a3a3ff; stroke: #ffffff; stroke-width: 0.48"/>
    </g>
    <g clip-path="url(#p74c60b6337)">
     <use xlink:href="#C0_0_36c696e60a" x="398.487273" y="180.631371" style="fill: #a3a3ff; stroke: #ffffff; stroke-width: 0.48"/>
    </g>
    <g clip-path="url(#p74c60b6337)">
     <use xlink:href="#C0_0_36c696e60a" x="398.487273" y="196.032586" style="fill: #a3a3ff; stroke: #ffffff; stroke-width: 0.48"/>
    </g>
   </g>
   <g id="matplotlib.axis_1">
    <g id="xtick_1">
     <g id="line2d_1">
      <defs>
       <path id="m071489e83e" d="M 0 0 
L 0 3.5 
" style="stroke: #000000; stroke-width: 0.8"/>
      </defs>
      <g>
       <use xlink:href="#m071489e83e" x="73.832727" y="307.584" style="stroke: #000000; stroke-width: 0.8"/>
      </g>
     </g>
     <g id="text_1">
      <!-- 6 to 24 hours -->
      <g transform="translate(40.445227 322.182437)scale(0.1 -0.1)">
       <defs>
        <path id="DejaVuSans-36" d="M 2113 2584 
Q 1688 2584 1439 2293 
Q 1191 2003 1191 1497 
Q 1191 994 1439 701 
Q 1688 409 2113 409 
Q 2538 409 2786 701 
Q 3034 994 3034 1497 
Q 3034 2003 2786 2293 
Q 2538 2584 2113 2584 
z
M 3366 4563 
L 3366 3988 
Q 3128 4100 2886 4159 
Q 2644 4219 2406 4219 
Q 1781 4219 1451 3797 
Q 1122 3375 1075 2522 
Q 1259 2794 1537 2939 
Q 1816 3084 2150 3084 
Q 2853 3084 3261 2657 
Q 3669 2231 3669 1497 
Q 3669 778 3244 343 
Q 2819 -91 2113 -91 
Q 1303 -91 875 529 
Q 447 1150 447 2328 
Q 447 3434 972 4092 
Q 1497 4750 2381 4750 
Q 2619 4750 2861 4703 
Q 3103 4656 3366 4563 
z
" transform="scale(0.015625)"/>
        <path id="DejaVuSans-20" transform="scale(0.015625)"/>
        <path id="DejaVuSans-74" d="M 1172 4494 
L 1172 3500 
L 2356 3500 
L 2356 3053 
L 1172 3053 
L 1172 1153 
Q 1172 725 1289 603 
Q 1406 481 1766 481 
L 2356 481 
L 2356 0 
L 1766 0 
Q 1100 0 847 248 
Q 594 497 594 1153 
L 594 3053 
L 172 3053 
L 172 3500 
L 594 3500 
L 594 4494 
L 1172 4494 
z
" transform="scale(0.015625)"/>
        <path id="DejaVuSans-6f" d="M 1959 3097 
Q 1497 3097 1228 2736 
Q 959 2375 959 1747 
Q 959 1119 1226 758 
Q 1494 397 1959 397 
Q 2419 397 2687 759 
Q 2956 1122 2956 1747 
Q 2956 2369 2687 2733 
Q 2419 3097 1959 3097 
z
M 1959 3584 
Q 2709 3584 3137 3096 
Q 3566 2609 3566 1747 
Q 3566 888 3137 398 
Q 2709 -91 1959 -91 
Q 1206 -91 779 398 
Q 353 888 353 1747 
Q 353 2609 779 3096 
Q 1206 3584 1959 3584 
z
" transform="scale(0.015625)"/>
        <path id="DejaVuSans-32" d="M 1228 531 
L 3431 531 
L 3431 0 
L 469 0 
L 469 531 
Q 828 903 1448 1529 
Q 2069 2156 2228 2338 
Q 2531 2678 2651 2914 
Q 2772 3150 2772 3378 
Q 2772 3750 2511 3984 
Q 2250 4219 1831 4219 
Q 1534 4219 1204 4116 
Q 875 4013 500 3803 
L 500 4441 
Q 881 4594 1212 4672 
Q 1544 4750 1819 4750 
Q 2544 4750 2975 4387 
Q 3406 4025 3406 3419 
Q 3406 3131 3298 2873 
Q 3191 2616 2906 2266 
Q 2828 2175 2409 1742 
Q 1991 1309 1228 531 
z
" transform="scale(0.015625)"/>
        <path id="DejaVuSans-34" d="M 2419 4116 
L 825 1625 
L 2419 1625 
L 2419 4116 
z
M 2253 4666 
L 3047 4666 
L 3047 1625 
L 3713 1625 
L 3713 1100 
L 3047 1100 
L 3047 0 
L 2419 0 
L 2419 1100 
L 313 1100 
L 313 1709 
L 2253 4666 
z
" transform="scale(0.015625)"/>
        <path id="DejaVuSans-68" d="M 3513 2113 
L 3513 0 
L 2938 0 
L 2938 2094 
Q 2938 2591 2744 2837 
Q 2550 3084 2163 3084 
Q 1697 3084 1428 2787 
Q 1159 2491 1159 1978 
L 1159 0 
L 581 0 
L 581 4863 
L 1159 4863 
L 1159 2956 
Q 1366 3272 1645 3428 
Q 1925 3584 2291 3584 
Q 2894 3584 3203 3211 
Q 3513 2838 3513 2113 
z
" transform="scale(0.015625)"/>
        <path id="DejaVuSans-75" d="M 544 1381 
L 544 3500 
L 1119 3500 
L 1119 1403 
Q 1119 906 1312 657 
Q 1506 409 1894 409 
Q 2359 409 2629 706 
Q 2900 1003 2900 1516 
L 2900 3500 
L 3475 3500 
L 3475 0 
L 2900 0 
L 2900 538 
Q 2691 219 2414 64 
Q 2138 -91 1772 -91 
Q 1169 -91 856 284 
Q 544 659 544 1381 
z
M 1991 3584 
L 1991 3584 
z
" transform="scale(0.015625)"/>
        <path id="DejaVuSans-72" d="M 2631 2963 
Q 2534 3019 2420 3045 
Q 2306 3072 2169 3072 
Q 1681 3072 1420 2755 
Q 1159 2438 1159 1844 
L 1159 0 
L 581 0 
L 581 3500 
L 1159 3500 
L 1159 2956 
Q 1341 3275 1631 3429 
Q 1922 3584 2338 3584 
Q 2397 3584 2469 3576 
Q 2541 3569 2628 3553 
L 2631 2963 
z
" transform="scale(0.015625)"/>
        <path id="DejaVuSans-73" d="M 2834 3397 
L 2834 2853 
Q 2591 2978 2328 3040 
Q 2066 3103 1784 3103 
Q 1356 3103 1142 2972 
Q 928 2841 928 2578 
Q 928 2378 1081 2264 
Q 1234 2150 1697 2047 
L 1894 2003 
Q 2506 1872 2764 1633 
Q 3022 1394 3022 966 
Q 3022 478 2636 193 
Q 2250 -91 1575 -91 
Q 1294 -91 989 -36 
Q 684 19 347 128 
L 347 722 
Q 666 556 975 473 
Q 1284 391 1588 391 
Q 1994 391 2212 530 
Q 2431 669 2431 922 
Q 2431 1156 2273 1281 
Q 2116 1406 1581 1522 
L 1381 1569 
Q 847 1681 609 1914 
Q 372 2147 372 2553 
Q 372 3047 722 3315 
Q 1072 3584 1716 3584 
Q 2034 3584 2315 3537 
Q 2597 3491 2834 3397 
z
" transform="scale(0.015625)"/>
       </defs>
       <use xlink:href="#DejaVuSans-36"/>
       <use xlink:href="#DejaVuSans-20" x="63.623047"/>
       <use xlink:href="#DejaVuSans-74" x="95.410156"/>
       <use xlink:href="#DejaVuSans-6f" x="134.619141"/>
       <use xlink:href="#DejaVuSans-20" x="195.800781"/>
       <use xlink:href="#DejaVuSans-32" x="227.587891"/>
       <use xlink:href="#DejaVuSans-34" x="291.210938"/>
       <use xlink:href="#DejaVuSans-20" x="354.833984"/>
       <use xlink:href="#DejaVuSans-68" x="386.621094"/>
       <use xlink:href="#DejaVuSans-6f" x="450"/>
       <use xlink:href="#DejaVuSans-75" x="511.181641"/>
       <use xlink:href="#DejaVuSans-72" x="574.560547"/>
       <use xlink:href="#DejaVuSans-73" x="615.673828"/>
      </g>
     </g>
    </g>
    <g id="xtick_2">
     <g id="line2d_2">
      <g>
       <use xlink:href="#m071489e83e" x="236.16" y="307.584" style="stroke: #000000; stroke-width: 0.8"/>
      </g>
     </g>
     <g id="text_2">
      <!-- 24 to 48 hours -->
      <g transform="translate(199.59125 322.182437)scale(0.1 -0.1)">
       <defs>
        <path id="DejaVuSans-38" d="M 2034 2216 
Q 1584 2216 1326 1975 
Q 1069 1734 1069 1313 
Q 1069 891 1326 650 
Q 1584 409 2034 409 
Q 2484 409 2743 651 
Q 3003 894 3003 1313 
Q 3003 1734 2745 1975 
Q 2488 2216 2034 2216 
z
M 1403 2484 
Q 997 2584 770 2862 
Q 544 3141 544 3541 
Q 544 4100 942 4425 
Q 1341 4750 2034 4750 
Q 2731 4750 3128 4425 
Q 3525 4100 3525 3541 
Q 3525 3141 3298 2862 
Q 3072 2584 2669 2484 
Q 3125 2378 3379 2068 
Q 3634 1759 3634 1313 
Q 3634 634 3220 271 
Q 2806 -91 2034 -91 
Q 1263 -91 848 271 
Q 434 634 434 1313 
Q 434 1759 690 2068 
Q 947 2378 1403 2484 
z
M 1172 3481 
Q 1172 3119 1398 2916 
Q 1625 2713 2034 2713 
Q 2441 2713 2670 2916 
Q 2900 3119 2900 3481 
Q 2900 3844 2670 4047 
Q 2441 4250 2034 4250 
Q 1625 4250 1398 4047 
Q 1172 3844 1172 3481 
z
" transform="scale(0.015625)"/>
       </defs>
       <use xlink:href="#DejaVuSans-32"/>
       <use xlink:href="#DejaVuSans-34" x="63.623047"/>
       <use xlink:href="#DejaVuSans-20" x="127.246094"/>
       <use xlink:href="#DejaVuSans-74" x="159.033203"/>
       <use xlink:href="#DejaVuSans-6f" x="198.242188"/>
       <use xlink:href="#DejaVuSans-20" x="259.423828"/>
       <use xlink:href="#DejaVuSans-34" x="291.210938"/>
       <use xlink:href="#DejaVuSans-38" x="354.833984"/>
       <use xlink:href="#DejaVuSans-20" x="418.457031"/>
       <use xlink:href="#DejaVuSans-68" x="450.244141"/>
       <use xlink:href="#DejaVuSans-6f" x="513.623047"/>
       <use xlink:href="#DejaVuSans-75" x="574.804688"/>
       <use xlink:href="#DejaVuSans-72" x="638.183594"/>
       <use xlink:href="#DejaVuSans-73" x="679.296875"/>
      </g>
     </g>
    </g>
    <g id="xtick_3">
     <g id="line2d_3">
      <g>
       <use xlink:href="#m071489e83e" x="398.487273" y="307.584" style="stroke: #000000; stroke-width: 0.8"/>
      </g>
     </g>
     <g id="text_3">
      <!-- 48 to 72 hours -->
      <g transform="translate(361.918523 322.182437)scale(0.1 -0.1)">
       <defs>
        <path id="DejaVuSans-37" d="M 525 4666 
L 3525 4666 
L 3525 4397 
L 1831 0 
L 1172 0 
L 2766 4134 
L 525 4134 
L 525 4666 
z
" transform="scale(0.015625)"/>
       </defs>
       <use xlink:href="#DejaVuSans-34"/>
       <use xlink:href="#DejaVuSans-38" x="63.623047"/>
       <use xlink:href="#DejaVuSans-20" x="127.246094"/>
       <use xlink:href="#DejaVuSans-74" x="159.033203"/>
       <use xlink:href="#DejaVuSans-6f" x="198.242188"/>
       <use xlink:href="#DejaVuSans-20" x="259.423828"/>
       <use xlink:href="#DejaVuSans-37" x="291.210938"/>
       <use xlink:href="#DejaVuSans-32" x="354.833984"/>
       <use xlink:href="#DejaVuSans-20" x="418.457031"/>
       <use xlink:href="#DejaVuSans-68" x="450.244141"/>
       <use xlink:href="#DejaVuSans-6f" x="513.623047"/>
       <use xlink:href="#DejaVuSans-75" x="574.804688"/>
       <use xlink:href="#DejaVuSans-72" x="638.183594"/>
       <use xlink:href="#DejaVuSans-73" x="679.296875"/>
      </g>
     </g>
    </g>
   </g>
   <g id="matplotlib.axis_2">
    <g id="ytick_1">
     <g id="line2d_4">
      <defs>
       <path id="m591b61bafd" d="M 0 0 
L -3.5 0 
" style="stroke: #000000; stroke-width: 0.8"/>
      </defs>
      <g>
       <use xlink:href="#m591b61bafd" x="57.6" y="284.722763" style="stroke: #000000; stroke-width: 0.8"/>
      </g>
     </g>
     <g id="text_4">
      <!-- 0.5 -->
      <g transform="translate(34.696875 288.521982)scale(0.1 -0.1)">
       <defs>
        <path id="DejaVuSans-30" d="M 2034 4250 
Q 1547 4250 1301 3770 
Q 1056 3291 1056 2328 
Q 1056 1369 1301 889 
Q 1547 409 2034 409 
Q 2525 409 2770 889 
Q 3016 1369 3016 2328 
Q 3016 3291 2770 3770 
Q 2525 4250 2034 4250 
z
M 2034 4750 
Q 2819 4750 3233 4129 
Q 3647 3509 3647 2328 
Q 3647 1150 3233 529 
Q 2819 -91 2034 -91 
Q 1250 -91 836 529 
Q 422 1150 422 2328 
Q 422 3509 836 4129 
Q 1250 4750 2034 4750 
z
" transform="scale(0.015625)"/>
        <path id="DejaVuSans-2e" d="M 684 794 
L 1344 794 
L 1344 0 
L 684 0 
L 684 794 
z
" transform="scale(0.015625)"/>
        <path id="DejaVuSans-35" d="M 691 4666 
L 3169 4666 
L 3169 4134 
L 1269 4134 
L 1269 2991 
Q 1406 3038 1543 3061 
Q 1681 3084 1819 3084 
Q 2600 3084 3056 2656 
Q 3513 2228 3513 1497 
Q 3513 744 3044 326 
Q 2575 -91 1722 -91 
Q 1428 -91 1123 -41 
Q 819 9 494 109 
L 494 744 
Q 775 591 1075 516 
Q 1375 441 1709 441 
Q 2250 441 2565 725 
Q 2881 1009 2881 1497 
Q 2881 1984 2565 2268 
Q 2250 2553 1709 2553 
Q 1456 2553 1204 2497 
Q 953 2441 691 2322 
L 691 4666 
z
" transform="scale(0.015625)"/>
       </defs>
       <use xlink:href="#DejaVuSans-30"/>
       <use xlink:href="#DejaVuSans-2e" x="63.623047"/>
       <use xlink:href="#DejaVuSans-35" x="95.410156"/>
      </g>
     </g>
    </g>
    <g id="ytick_2">
     <g id="line2d_5">
      <g>
       <use xlink:href="#m591b61bafd" x="57.6" y="242.100887" style="stroke: #000000; stroke-width: 0.8"/>
      </g>
     </g>
     <g id="text_5">
      <!-- 1.0 -->
      <g transform="translate(34.696875 245.900106)scale(0.1 -0.1)">
       <defs>
        <path id="DejaVuSans-31" d="M 794 531 
L 1825 531 
L 1825 4091 
L 703 3866 
L 703 4441 
L 1819 4666 
L 2450 4666 
L 2450 531 
L 3481 531 
L 3481 0 
L 794 0 
L 794 531 
z
" transform="scale(0.015625)"/>
       </defs>
       <use xlink:href="#DejaVuSans-31"/>
       <use xlink:href="#DejaVuSans-2e" x="63.623047"/>
       <use xlink:href="#DejaVuSans-30" x="95.410156"/>
      </g>
     </g>
    </g>
    <g id="ytick_3">
     <g id="line2d_6">
      <g>
       <use xlink:href="#m591b61bafd" x="57.6" y="199.47901" style="stroke: #000000; stroke-width: 0.8"/>
      </g>
     </g>
     <g id="text_6">
      <!-- 1.5 -->
      <g transform="translate(34.696875 203.278229)scale(0.1 -0.1)">
       <use xlink:href="#DejaVuSans-31"/>
       <use xlink:href="#DejaVuSans-2e" x="63.623047"/>
       <use xlink:href="#DejaVuSans-35" x="95.410156"/>
      </g>
     </g>
    </g>
    <g id="ytick_4">
     <g id="line2d_7">
      <g>
       <use xlink:href="#m591b61bafd" x="57.6" y="156.857134" style="stroke: #000000; stroke-width: 0.8"/>
      </g>
     </g>
     <g id="text_7">
      <!-- 2.0 -->
      <g transform="translate(34.696875 160.656352)scale(0.1 -0.1)">
       <use xlink:href="#DejaVuSans-32"/>
       <use xlink:href="#DejaVuSans-2e" x="63.623047"/>
       <use xlink:href="#DejaVuSans-30" x="95.410156"/>
      </g>
     </g>
    </g>
    <g id="ytick_5">
     <g id="line2d_8">
      <g>
       <use xlink:href="#m591b61bafd" x="57.6" y="114.235257" style="stroke: #000000; stroke-width: 0.8"/>
      </g>
     </g>
     <g id="text_8">
      <!-- 2.5 -->
      <g transform="translate(34.696875 118.034476)scale(0.1 -0.1)">
       <use xlink:href="#DejaVuSans-32"/>
       <use xlink:href="#DejaVuSans-2e" x="63.623047"/>
       <use xlink:href="#DejaVuSans-35" x="95.410156"/>
      </g>
     </g>
    </g>
    <g id="ytick_6">
     <g id="line2d_9">
      <g>
       <use xlink:href="#m591b61bafd" x="57.6" y="71.61338" style="stroke: #000000; stroke-width: 0.8"/>
      </g>
     </g>
     <g id="text_9">
      <!-- 3.0 -->
      <g transform="translate(34.696875 75.412599)scale(0.1 -0.1)">
       <defs>
        <path id="DejaVuSans-33" d="M 2597 2516 
Q 3050 2419 3304 2112 
Q 3559 1806 3559 1356 
Q 3559 666 3084 287 
Q 2609 -91 1734 -91 
Q 1441 -91 1130 -33 
Q 819 25 488 141 
L 488 750 
Q 750 597 1062 519 
Q 1375 441 1716 441 
Q 2309 441 2620 675 
Q 2931 909 2931 1356 
Q 2931 1769 2642 2001 
Q 2353 2234 1838 2234 
L 1294 2234 
L 1294 2753 
L 1863 2753 
Q 2328 2753 2575 2939 
Q 2822 3125 2822 3475 
Q 2822 3834 2567 4026 
Q 2313 4219 1838 4219 
Q 1578 4219 1281 4162 
Q 984 4106 628 3988 
L 628 4550 
Q 988 4650 1302 4700 
Q 1616 4750 1894 4750 
Q 2613 4750 3031 4423 
Q 3450 4097 3450 3541 
Q 3450 3153 3228 2886 
Q 3006 2619 2597 2516 
z
" transform="scale(0.015625)"/>
       </defs>
       <use xlink:href="#DejaVuSans-33"/>
       <use xlink:href="#DejaVuSans-2e" x="63.623047"/>
       <use xlink:href="#DejaVuSans-30" x="95.410156"/>
      </g>
     </g>
    </g>
    <g id="text_10">
     <!-- Fold change -->
     <g transform="translate(28.617187 204.835813)rotate(-90)scale(0.1 -0.1)">
      <defs>
       <path id="DejaVuSans-46" d="M 628 4666 
L 3309 4666 
L 3309 4134 
L 1259 4134 
L 1259 2759 
L 3109 2759 
L 3109 2228 
L 1259 2228 
L 1259 0 
L 628 0 
L 628 4666 
z
" transform="scale(0.015625)"/>
       <path id="DejaVuSans-6c" d="M 603 4863 
L 1178 4863 
L 1178 0 
L 603 0 
L 603 4863 
z
" transform="scale(0.015625)"/>
       <path id="DejaVuSans-64" d="M 2906 2969 
L 2906 4863 
L 3481 4863 
L 3481 0 
L 2906 0 
L 2906 525 
Q 2725 213 2448 61 
Q 2172 -91 1784 -91 
Q 1150 -91 751 415 
Q 353 922 353 1747 
Q 353 2572 751 3078 
Q 1150 3584 1784 3584 
Q 2172 3584 2448 3432 
Q 2725 3281 2906 2969 
z
M 947 1747 
Q 947 1113 1208 752 
Q 1469 391 1925 391 
Q 2381 391 2643 752 
Q 2906 1113 2906 1747 
Q 2906 2381 2643 2742 
Q 2381 3103 1925 3103 
Q 1469 3103 1208 2742 
Q 947 2381 947 1747 
z
" transform="scale(0.015625)"/>
       <path id="DejaVuSans-63" d="M 3122 3366 
L 3122 2828 
Q 2878 2963 2633 3030 
Q 2388 3097 2138 3097 
Q 1578 3097 1268 2742 
Q 959 2388 959 1747 
Q 959 1106 1268 751 
Q 1578 397 2138 397 
Q 2388 397 2633 464 
Q 2878 531 3122 666 
L 3122 134 
Q 2881 22 2623 -34 
Q 2366 -91 2075 -91 
Q 1284 -91 818 406 
Q 353 903 353 1747 
Q 353 2603 823 3093 
Q 1294 3584 2113 3584 
Q 2378 3584 2631 3529 
Q 2884 3475 3122 3366 
z
" transform="scale(0.015625)"/>
       <path id="DejaVuSans-61" d="M 2194 1759 
Q 1497 1759 1228 1600 
Q 959 1441 959 1056 
Q 959 750 1161 570 
Q 1363 391 1709 391 
Q 2188 391 2477 730 
Q 2766 1069 2766 1631 
L 2766 1759 
L 2194 1759 
z
M 3341 1997 
L 3341 0 
L 2766 0 
L 2766 531 
Q 2569 213 2275 61 
Q 1981 -91 1556 -91 
Q 1019 -91 701 211 
Q 384 513 384 1019 
Q 384 1609 779 1909 
Q 1175 2209 1959 2209 
L 2766 2209 
L 2766 2266 
Q 2766 2663 2505 2880 
Q 2244 3097 1772 3097 
Q 1472 3097 1187 3025 
Q 903 2953 641 2809 
L 641 3341 
Q 956 3463 1253 3523 
Q 1550 3584 1831 3584 
Q 2591 3584 2966 3190 
Q 3341 2797 3341 1997 
z
" transform="scale(0.015625)"/>
       <path id="DejaVuSans-6e" d="M 3513 2113 
L 3513 0 
L 2938 0 
L 2938 2094 
Q 2938 2591 2744 2837 
Q 2550 3084 2163 3084 
Q 1697 3084 1428 2787 
Q 1159 2491 1159 1978 
L 1159 0 
L 581 0 
L 581 3500 
L 1159 3500 
L 1159 2956 
Q 1366 3272 1645 3428 
Q 1925 3584 2291 3584 
Q 2894 3584 3203 3211 
Q 3513 2838 3513 2113 
z
" transform="scale(0.015625)"/>
       <path id="DejaVuSans-67" d="M 2906 1791 
Q 2906 2416 2648 2759 
Q 2391 3103 1925 3103 
Q 1463 3103 1205 2759 
Q 947 2416 947 1791 
Q 947 1169 1205 825 
Q 1463 481 1925 481 
Q 2391 481 2648 825 
Q 2906 1169 2906 1791 
z
M 3481 434 
Q 3481 -459 3084 -895 
Q 2688 -1331 1869 -1331 
Q 1566 -1331 1297 -1286 
Q 1028 -1241 775 -1147 
L 775 -588 
Q 1028 -725 1275 -790 
Q 1522 -856 1778 -856 
Q 2344 -856 2625 -561 
Q 2906 -266 2906 331 
L 2906 616 
Q 2728 306 2450 153 
Q 2172 0 1784 0 
Q 1141 0 747 490 
Q 353 981 353 1791 
Q 353 2603 747 3093 
Q 1141 3584 1784 3584 
Q 2172 3584 2450 3431 
Q 2728 3278 2906 2969 
L 2906 3500 
L 3481 3500 
L 3481 434 
z
" transform="scale(0.015625)"/>
       <path id="DejaVuSans-65" d="M 3597 1894 
L 3597 1613 
L 953 1613 
Q 991 1019 1311 708 
Q 1631 397 2203 397 
Q 2534 397 2845 478 
Q 3156 559 3463 722 
L 3463 178 
Q 3153 47 2828 -22 
Q 2503 -91 2169 -91 
Q 1331 -91 842 396 
Q 353 884 353 1716 
Q 353 2575 817 3079 
Q 1281 3584 2069 3584 
Q 2775 3584 3186 3129 
Q 3597 2675 3597 1894 
z
M 3022 2063 
Q 3016 2534 2758 2815 
Q 2500 3097 2075 3097 
Q 1594 3097 1305 2825 
Q 1016 2553 972 2059 
L 3022 2063 
z
" transform="scale(0.015625)"/>
      </defs>
      <use xlink:href="#DejaVuSans-46"/>
      <use xlink:href="#DejaVuSans-6f" x="53.894531"/>
      <use xlink:href="#DejaVuSans-6c" x="115.076172"/>
      <use xlink:href="#DejaVuSans-64" x="142.859375"/>
      <use xlink:href="#DejaVuSans-20" x="206.335938"/>
      <use xlink:href="#DejaVuSans-63" x="238.123047"/>
      <use xlink:href="#DejaVuSans-68" x="293.103516"/>
      <use xlink:href="#DejaVuSans-61" x="356.482422"/>
      <use xlink:href="#DejaVuSans-6e" x="417.761719"/>
      <use xlink:href="#DejaVuSans-67" x="481.140625"/>
      <use xlink:href="#DejaVuSans-65" x="544.617188"/>
     </g>
    </g>
   </g>
   <g id="line2d_10">
    <path d="M 73.832727 289.484545 
L 236.16 276.822008 
L 398.487273 133.270009 
" clip-path="url(#p74c60b6337)" style="fill: none; stroke: #d0a3d0; stroke-width: 1.5; stroke-linecap: square"/>
   </g>
   <g id="line2d_11">
    <path d="M 73.832727 276.887904 
L 236.16 245.924239 
L 398.487273 175.552523 
" clip-path="url(#p74c60b6337)" style="fill: none; stroke: #a3a3ff; stroke-width: 1.5; stroke-linecap: square"/>
   </g>
   <g id="line2d_12"/>
   <g id="line2d_13"/>
   <g id="line2d_14">
    <path d="M 57.6 242.100887 
L 414.72 242.100887 
" clip-path="url(#p74c60b6337)" style="fill: none; stroke-dasharray: 5.55,2.4; stroke-dashoffset: 0; stroke: #808080; stroke-width: 1.5"/>
   </g>
   <g id="patch_3">
    <path d="M 57.6 307.584 
L 57.6 41.472 
" style="fill: none; stroke: #000000; stroke-width: 0.8; stroke-linejoin: miter; stroke-linecap: square"/>
   </g>
   <g id="patch_4">
    <path d="M 414.72 307.584 
L 414.72 41.472 
" style="fill: none; stroke: #000000; stroke-width: 0.8; stroke-linejoin: miter; stroke-linecap: square"/>
   </g>
   <g id="patch_5">
    <path d="M 57.6 307.584 
L 414.72 307.584 
" style="fill: none; stroke: #000000; stroke-width: 0.8; stroke-linejoin: miter; stroke-linecap: square"/>
   </g>
   <g id="patch_6">
    <path d="M 57.6 41.472 
L 414.72 41.472 
" style="fill: none; stroke: #000000; stroke-width: 0.8; stroke-linejoin: miter; stroke-linecap: square"/>
   </g>
   <g id="text_11">
    <!--  -->
    <g transform="translate(236.16 8.59725)scale(0.12 -0.12)"/>
    <!-- Both Timp3 Distal and Proximal 3' UTR isoform abundances decrease by 0.5X from 6 to 24 hours -->
    <g transform="translate(-54.313125 22.034625)scale(0.12 -0.12)">
     <defs>
      <path id="DejaVuSans-42" d="M 1259 2228 
L 1259 519 
L 2272 519 
Q 2781 519 3026 730 
Q 3272 941 3272 1375 
Q 3272 1813 3026 2020 
Q 2781 2228 2272 2228 
L 1259 2228 
z
M 1259 4147 
L 1259 2741 
L 2194 2741 
Q 2656 2741 2882 2914 
Q 3109 3088 3109 3444 
Q 3109 3797 2882 3972 
Q 2656 4147 2194 4147 
L 1259 4147 
z
M 628 4666 
L 2241 4666 
Q 2963 4666 3353 4366 
Q 3744 4066 3744 3513 
Q 3744 3084 3544 2831 
Q 3344 2578 2956 2516 
Q 3422 2416 3680 2098 
Q 3938 1781 3938 1306 
Q 3938 681 3513 340 
Q 3088 0 2303 0 
L 628 0 
L 628 4666 
z
" transform="scale(0.015625)"/>
      <path id="DejaVuSans-54" d="M -19 4666 
L 3928 4666 
L 3928 4134 
L 2272 4134 
L 2272 0 
L 1638 0 
L 1638 4134 
L -19 4134 
L -19 4666 
z
" transform="scale(0.015625)"/>
      <path id="DejaVuSans-69" d="M 603 3500 
L 1178 3500 
L 1178 0 
L 603 0 
L 603 3500 
z
M 603 4863 
L 1178 4863 
L 1178 4134 
L 603 4134 
L 603 4863 
z
" transform="scale(0.015625)"/>
      <path id="DejaVuSans-6d" d="M 3328 2828 
Q 3544 3216 3844 3400 
Q 4144 3584 4550 3584 
Q 5097 3584 5394 3201 
Q 5691 2819 5691 2113 
L 5691 0 
L 5113 0 
L 5113 2094 
Q 5113 2597 4934 2840 
Q 4756 3084 4391 3084 
Q 3944 3084 3684 2787 
Q 3425 2491 3425 1978 
L 3425 0 
L 2847 0 
L 2847 2094 
Q 2847 2600 2669 2842 
Q 2491 3084 2119 3084 
Q 1678 3084 1418 2786 
Q 1159 2488 1159 1978 
L 1159 0 
L 581 0 
L 581 3500 
L 1159 3500 
L 1159 2956 
Q 1356 3278 1631 3431 
Q 1906 3584 2284 3584 
Q 2666 3584 2933 3390 
Q 3200 3197 3328 2828 
z
" transform="scale(0.015625)"/>
      <path id="DejaVuSans-70" d="M 1159 525 
L 1159 -1331 
L 581 -1331 
L 581 3500 
L 1159 3500 
L 1159 2969 
Q 1341 3281 1617 3432 
Q 1894 3584 2278 3584 
Q 2916 3584 3314 3078 
Q 3713 2572 3713 1747 
Q 3713 922 3314 415 
Q 2916 -91 2278 -91 
Q 1894 -91 1617 61 
Q 1341 213 1159 525 
z
M 3116 1747 
Q 3116 2381 2855 2742 
Q 2594 3103 2138 3103 
Q 1681 3103 1420 2742 
Q 1159 2381 1159 1747 
Q 1159 1113 1420 752 
Q 1681 391 2138 391 
Q 2594 391 2855 752 
Q 3116 1113 3116 1747 
z
" transform="scale(0.015625)"/>
      <path id="DejaVuSans-44" d="M 1259 4147 
L 1259 519 
L 2022 519 
Q 2988 519 3436 956 
Q 3884 1394 3884 2338 
Q 3884 3275 3436 3711 
Q 2988 4147 2022 4147 
L 1259 4147 
z
M 628 4666 
L 1925 4666 
Q 3281 4666 3915 4102 
Q 4550 3538 4550 2338 
Q 4550 1131 3912 565 
Q 3275 0 1925 0 
L 628 0 
L 628 4666 
z
" transform="scale(0.015625)"/>
      <path id="DejaVuSans-50" d="M 1259 4147 
L 1259 2394 
L 2053 2394 
Q 2494 2394 2734 2622 
Q 2975 2850 2975 3272 
Q 2975 3691 2734 3919 
Q 2494 4147 2053 4147 
L 1259 4147 
z
M 628 4666 
L 2053 4666 
Q 2838 4666 3239 4311 
Q 3641 3956 3641 3272 
Q 3641 2581 3239 2228 
Q 2838 1875 2053 1875 
L 1259 1875 
L 1259 0 
L 628 0 
L 628 4666 
z
" transform="scale(0.015625)"/>
      <path id="DejaVuSans-78" d="M 3513 3500 
L 2247 1797 
L 3578 0 
L 2900 0 
L 1881 1375 
L 863 0 
L 184 0 
L 1544 1831 
L 300 3500 
L 978 3500 
L 1906 2253 
L 2834 3500 
L 3513 3500 
z
" transform="scale(0.015625)"/>
      <path id="DejaVuSans-27" d="M 1147 4666 
L 1147 2931 
L 616 2931 
L 616 4666 
L 1147 4666 
z
" transform="scale(0.015625)"/>
      <path id="DejaVuSans-55" d="M 556 4666 
L 1191 4666 
L 1191 1831 
Q 1191 1081 1462 751 
Q 1734 422 2344 422 
Q 2950 422 3222 751 
Q 3494 1081 3494 1831 
L 3494 4666 
L 4128 4666 
L 4128 1753 
Q 4128 841 3676 375 
Q 3225 -91 2344 -91 
Q 1459 -91 1007 375 
Q 556 841 556 1753 
L 556 4666 
z
" transform="scale(0.015625)"/>
      <path id="DejaVuSans-52" d="M 2841 2188 
Q 3044 2119 3236 1894 
Q 3428 1669 3622 1275 
L 4263 0 
L 3584 0 
L 2988 1197 
Q 2756 1666 2539 1819 
Q 2322 1972 1947 1972 
L 1259 1972 
L 1259 0 
L 628 0 
L 628 4666 
L 2053 4666 
Q 2853 4666 3247 4331 
Q 3641 3997 3641 3322 
Q 3641 2881 3436 2590 
Q 3231 2300 2841 2188 
z
M 1259 4147 
L 1259 2491 
L 2053 2491 
Q 2509 2491 2742 2702 
Q 2975 2913 2975 3322 
Q 2975 3731 2742 3939 
Q 2509 4147 2053 4147 
L 1259 4147 
z
" transform="scale(0.015625)"/>
      <path id="DejaVuSans-66" d="M 2375 4863 
L 2375 4384 
L 1825 4384 
Q 1516 4384 1395 4259 
Q 1275 4134 1275 3809 
L 1275 3500 
L 2222 3500 
L 2222 3053 
L 1275 3053 
L 1275 0 
L 697 0 
L 697 3053 
L 147 3053 
L 147 3500 
L 697 3500 
L 697 3744 
Q 697 4328 969 4595 
Q 1241 4863 1831 4863 
L 2375 4863 
z
" transform="scale(0.015625)"/>
      <path id="DejaVuSans-62" d="M 3116 1747 
Q 3116 2381 2855 2742 
Q 2594 3103 2138 3103 
Q 1681 3103 1420 2742 
Q 1159 2381 1159 1747 
Q 1159 1113 1420 752 
Q 1681 391 2138 391 
Q 2594 391 2855 752 
Q 3116 1113 3116 1747 
z
M 1159 2969 
Q 1341 3281 1617 3432 
Q 1894 3584 2278 3584 
Q 2916 3584 3314 3078 
Q 3713 2572 3713 1747 
Q 3713 922 3314 415 
Q 2916 -91 2278 -91 
Q 1894 -91 1617 61 
Q 1341 213 1159 525 
L 1159 0 
L 581 0 
L 581 4863 
L 1159 4863 
L 1159 2969 
z
" transform="scale(0.015625)"/>
      <path id="DejaVuSans-79" d="M 2059 -325 
Q 1816 -950 1584 -1140 
Q 1353 -1331 966 -1331 
L 506 -1331 
L 506 -850 
L 844 -850 
Q 1081 -850 1212 -737 
Q 1344 -625 1503 -206 
L 1606 56 
L 191 3500 
L 800 3500 
L 1894 763 
L 2988 3500 
L 3597 3500 
L 2059 -325 
z
" transform="scale(0.015625)"/>
      <path id="DejaVuSans-58" d="M 403 4666 
L 1081 4666 
L 2241 2931 
L 3406 4666 
L 4084 4666 
L 2584 2425 
L 4184 0 
L 3506 0 
L 2194 1984 
L 872 0 
L 191 0 
L 1856 2491 
L 403 4666 
z
" transform="scale(0.015625)"/>
     </defs>
     <use xlink:href="#DejaVuSans-42"/>
     <use xlink:href="#DejaVuSans-6f" x="68.603516"/>
     <use xlink:href="#DejaVuSans-74" x="129.785156"/>
     <use xlink:href="#DejaVuSans-68" x="168.994141"/>
     <use xlink:href="#DejaVuSans-20" x="232.373047"/>
     <use xlink:href="#DejaVuSans-54" x="264.160156"/>
     <use xlink:href="#DejaVuSans-69" x="322.119141"/>
     <use xlink:href="#DejaVuSans-6d" x="349.902344"/>
     <use xlink:href="#DejaVuSans-70" x="447.314453"/>
     <use xlink:href="#DejaVuSans-33" x="510.791016"/>
     <use xlink:href="#DejaVuSans-20" x="574.414062"/>
     <use xlink:href="#DejaVuSans-44" x="606.201172"/>
     <use xlink:href="#DejaVuSans-69" x="683.203125"/>
     <use xlink:href="#DejaVuSans-73" x="710.986328"/>
     <use xlink:href="#DejaVuSans-74" x="763.085938"/>
     <use xlink:href="#DejaVuSans-61" x="802.294922"/>
     <use xlink:href="#DejaVuSans-6c" x="863.574219"/>
     <use xlink:href="#DejaVuSans-20" x="891.357422"/>
     <use xlink:href="#DejaVuSans-61" x="923.144531"/>
     <use xlink:href="#DejaVuSans-6e" x="984.423828"/>
     <use xlink:href="#DejaVuSans-64" x="1047.802734"/>
     <use xlink:href="#DejaVuSans-20" x="1111.279297"/>
     <use xlink:href="#DejaVuSans-50" x="1143.066406"/>
     <use xlink:href="#DejaVuSans-72" x="1201.619141"/>
     <use xlink:href="#DejaVuSans-6f" x="1240.482422"/>
     <use xlink:href="#DejaVuSans-78" x="1298.539062"/>
     <use xlink:href="#DejaVuSans-69" x="1357.71875"/>
     <use xlink:href="#DejaVuSans-6d" x="1385.501953"/>
     <use xlink:href="#DejaVuSans-61" x="1482.914062"/>
     <use xlink:href="#DejaVuSans-6c" x="1544.193359"/>
     <use xlink:href="#DejaVuSans-20" x="1571.976562"/>
     <use xlink:href="#DejaVuSans-33" x="1603.763672"/>
     <use xlink:href="#DejaVuSans-27" x="1667.386719"/>
     <use xlink:href="#DejaVuSans-20" x="1694.876953"/>
     <use xlink:href="#DejaVuSans-55" x="1726.664062"/>
     <use xlink:href="#DejaVuSans-54" x="1799.857422"/>
     <use xlink:href="#DejaVuSans-52" x="1860.941406"/>
     <use xlink:href="#DejaVuSans-20" x="1930.423828"/>
     <use xlink:href="#DejaVuSans-69" x="1962.210938"/>
     <use xlink:href="#DejaVuSans-73" x="1989.994141"/>
     <use xlink:href="#DejaVuSans-6f" x="2042.09375"/>
     <use xlink:href="#DejaVuSans-66" x="2103.275391"/>
     <use xlink:href="#DejaVuSans-6f" x="2138.480469"/>
     <use xlink:href="#DejaVuSans-72" x="2199.662109"/>
     <use xlink:href="#DejaVuSans-6d" x="2239.025391"/>
     <use xlink:href="#DejaVuSans-20" x="2336.4375"/>
     <use xlink:href="#DejaVuSans-61" x="2368.224609"/>
     <use xlink:href="#DejaVuSans-62" x="2429.503906"/>
     <use xlink:href="#DejaVuSans-75" x="2492.980469"/>
     <use xlink:href="#DejaVuSans-6e" x="2556.359375"/>
     <use xlink:href="#DejaVuSans-64" x="2619.738281"/>
     <use xlink:href="#DejaVuSans-61" x="2683.214844"/>
     <use xlink:href="#DejaVuSans-6e" x="2744.494141"/>
     <use xlink:href="#DejaVuSans-63" x="2807.873047"/>
     <use xlink:href="#DejaVuSans-65" x="2862.853516"/>
     <use xlink:href="#DejaVuSans-73" x="2924.376953"/>
     <use xlink:href="#DejaVuSans-20" x="2976.476562"/>
     <use xlink:href="#DejaVuSans-64" x="3008.263672"/>
     <use xlink:href="#DejaVuSans-65" x="3071.740234"/>
     <use xlink:href="#DejaVuSans-63" x="3133.263672"/>
     <use xlink:href="#DejaVuSans-72" x="3188.244141"/>
     <use xlink:href="#DejaVuSans-65" x="3227.107422"/>
     <use xlink:href="#DejaVuSans-61" x="3288.630859"/>
     <use xlink:href="#DejaVuSans-73" x="3349.910156"/>
     <use xlink:href="#DejaVuSans-65" x="3402.009766"/>
     <use xlink:href="#DejaVuSans-20" x="3463.533203"/>
     <use xlink:href="#DejaVuSans-62" x="3495.320312"/>
     <use xlink:href="#DejaVuSans-79" x="3558.796875"/>
     <use xlink:href="#DejaVuSans-20" x="3617.976562"/>
     <use xlink:href="#DejaVuSans-30" x="3649.763672"/>
     <use xlink:href="#DejaVuSans-2e" x="3713.386719"/>
     <use xlink:href="#DejaVuSans-35" x="3745.173828"/>
     <use xlink:href="#DejaVuSans-58" x="3808.796875"/>
     <use xlink:href="#DejaVuSans-20" x="3877.302734"/>
     <use xlink:href="#DejaVuSans-66" x="3909.089844"/>
     <use xlink:href="#DejaVuSans-72" x="3944.294922"/>
     <use xlink:href="#DejaVuSans-6f" x="3983.158203"/>
     <use xlink:href="#DejaVuSans-6d" x="4044.339844"/>
     <use xlink:href="#DejaVuSans-20" x="4141.751953"/>
     <use xlink:href="#DejaVuSans-36" x="4173.539062"/>
     <use xlink:href="#DejaVuSans-20" x="4237.162109"/>
     <use xlink:href="#DejaVuSans-74" x="4268.949219"/>
     <use xlink:href="#DejaVuSans-6f" x="4308.158203"/>
     <use xlink:href="#DejaVuSans-20" x="4369.339844"/>
     <use xlink:href="#DejaVuSans-32" x="4401.126953"/>
     <use xlink:href="#DejaVuSans-34" x="4464.75"/>
     <use xlink:href="#DejaVuSans-20" x="4528.373047"/>
     <use xlink:href="#DejaVuSans-68" x="4560.160156"/>
     <use xlink:href="#DejaVuSans-6f" x="4623.539062"/>
     <use xlink:href="#DejaVuSans-75" x="4684.720703"/>
     <use xlink:href="#DejaVuSans-72" x="4748.099609"/>
     <use xlink:href="#DejaVuSans-73" x="4789.212891"/>
    </g>
    <!-- before increasing 2X from 48 to 72 hours, relative to the 18s house-keeper gene -->
    <g transform="translate(-5.8875 35.472)scale(0.12 -0.12)">
     <defs>
      <path id="DejaVuSans-2c" d="M 750 794 
L 1409 794 
L 1409 256 
L 897 -744 
L 494 -744 
L 750 256 
L 750 794 
z
" transform="scale(0.015625)"/>
      <path id="DejaVuSans-76" d="M 191 3500 
L 800 3500 
L 1894 563 
L 2988 3500 
L 3597 3500 
L 2284 0 
L 1503 0 
L 191 3500 
z
" transform="scale(0.015625)"/>
      <path id="DejaVuSans-2d" d="M 313 2009 
L 1997 2009 
L 1997 1497 
L 313 1497 
L 313 2009 
z
" transform="scale(0.015625)"/>
      <path id="DejaVuSans-6b" d="M 581 4863 
L 1159 4863 
L 1159 1991 
L 2875 3500 
L 3609 3500 
L 1753 1863 
L 3688 0 
L 2938 0 
L 1159 1709 
L 1159 0 
L 581 0 
L 581 4863 
z
" transform="scale(0.015625)"/>
     </defs>
     <use xlink:href="#DejaVuSans-62"/>
     <use xlink:href="#DejaVuSans-65" x="63.476562"/>
     <use xlink:href="#DejaVuSans-66" x="125"/>
     <use xlink:href="#DejaVuSans-6f" x="160.205078"/>
     <use xlink:href="#DejaVuSans-72" x="221.386719"/>
     <use xlink:href="#DejaVuSans-65" x="260.25"/>
     <use xlink:href="#DejaVuSans-20" x="321.773438"/>
     <use xlink:href="#DejaVuSans-69" x="353.560547"/>
     <use xlink:href="#DejaVuSans-6e" x="381.34375"/>
     <use xlink:href="#DejaVuSans-63" x="444.722656"/>
     <use xlink:href="#DejaVuSans-72" x="499.703125"/>
     <use xlink:href="#DejaVuSans-65" x="538.566406"/>
     <use xlink:href="#DejaVuSans-61" x="600.089844"/>
     <use xlink:href="#DejaVuSans-73" x="661.369141"/>
     <use xlink:href="#DejaVuSans-69" x="713.46875"/>
     <use xlink:href="#DejaVuSans-6e" x="741.251953"/>
     <use xlink:href="#DejaVuSans-67" x="804.630859"/>
     <use xlink:href="#DejaVuSans-20" x="868.107422"/>
     <use xlink:href="#DejaVuSans-32" x="899.894531"/>
     <use xlink:href="#DejaVuSans-58" x="963.517578"/>
     <use xlink:href="#DejaVuSans-20" x="1032.023438"/>
     <use xlink:href="#DejaVuSans-66" x="1063.810547"/>
     <use xlink:href="#DejaVuSans-72" x="1099.015625"/>
     <use xlink:href="#DejaVuSans-6f" x="1137.878906"/>
     <use xlink:href="#DejaVuSans-6d" x="1199.060547"/>
     <use xlink:href="#DejaVuSans-20" x="1296.472656"/>
     <use xlink:href="#DejaVuSans-34" x="1328.259766"/>
     <use xlink:href="#DejaVuSans-38" x="1391.882812"/>
     <use xlink:href="#DejaVuSans-20" x="1455.505859"/>
     <use xlink:href="#DejaVuSans-74" x="1487.292969"/>
     <use xlink:href="#DejaVuSans-6f" x="1526.501953"/>
     <use xlink:href="#DejaVuSans-20" x="1587.683594"/>
     <use xlink:href="#DejaVuSans-37" x="1619.470703"/>
     <use xlink:href="#DejaVuSans-32" x="1683.09375"/>
     <use xlink:href="#DejaVuSans-20" x="1746.716797"/>
     <use xlink:href="#DejaVuSans-68" x="1778.503906"/>
     <use xlink:href="#DejaVuSans-6f" x="1841.882812"/>
     <use xlink:href="#DejaVuSans-75" x="1903.064453"/>
     <use xlink:href="#DejaVuSans-72" x="1966.443359"/>
     <use xlink:href="#DejaVuSans-73" x="2007.556641"/>
     <use xlink:href="#DejaVuSans-2c" x="2059.65625"/>
     <use xlink:href="#DejaVuSans-20" x="2091.443359"/>
     <use xlink:href="#DejaVuSans-72" x="2123.230469"/>
     <use xlink:href="#DejaVuSans-65" x="2162.09375"/>
     <use xlink:href="#DejaVuSans-6c" x="2223.617188"/>
     <use xlink:href="#DejaVuSans-61" x="2251.400391"/>
     <use xlink:href="#DejaVuSans-74" x="2312.679688"/>
     <use xlink:href="#DejaVuSans-69" x="2351.888672"/>
     <use xlink:href="#DejaVuSans-76" x="2379.671875"/>
     <use xlink:href="#DejaVuSans-65" x="2438.851562"/>
     <use xlink:href="#DejaVuSans-20" x="2500.375"/>
     <use xlink:href="#DejaVuSans-74" x="2532.162109"/>
     <use xlink:href="#DejaVuSans-6f" x="2571.371094"/>
     <use xlink:href="#DejaVuSans-20" x="2632.552734"/>
     <use xlink:href="#DejaVuSans-74" x="2664.339844"/>
     <use xlink:href="#DejaVuSans-68" x="2703.548828"/>
     <use xlink:href="#DejaVuSans-65" x="2766.927734"/>
     <use xlink:href="#DejaVuSans-20" x="2828.451172"/>
     <use xlink:href="#DejaVuSans-31" x="2860.238281"/>
     <use xlink:href="#DejaVuSans-38" x="2923.861328"/>
     <use xlink:href="#DejaVuSans-73" x="2987.484375"/>
     <use xlink:href="#DejaVuSans-20" x="3039.583984"/>
     <use xlink:href="#DejaVuSans-68" x="3071.371094"/>
     <use xlink:href="#DejaVuSans-6f" x="3134.75"/>
     <use xlink:href="#DejaVuSans-75" x="3195.931641"/>
     <use xlink:href="#DejaVuSans-73" x="3259.310547"/>
     <use xlink:href="#DejaVuSans-65" x="3311.410156"/>
     <use xlink:href="#DejaVuSans-2d" x="3372.933594"/>
     <use xlink:href="#DejaVuSans-6b" x="3409.017578"/>
     <use xlink:href="#DejaVuSans-65" x="3463.302734"/>
     <use xlink:href="#DejaVuSans-65" x="3524.826172"/>
     <use xlink:href="#DejaVuSans-70" x="3586.349609"/>
     <use xlink:href="#DejaVuSans-65" x="3649.826172"/>
     <use xlink:href="#DejaVuSans-72" x="3711.349609"/>
     <use xlink:href="#DejaVuSans-20" x="3752.462891"/>
     <use xlink:href="#DejaVuSans-67" x="3784.25"/>
     <use xlink:href="#DejaVuSans-65" x="3847.726562"/>
     <use xlink:href="#DejaVuSans-6e" x="3909.25"/>
     <use xlink:href="#DejaVuSans-65" x="3972.628906"/>
    </g>
   </g>
   <g id="legend_1">
    <g id="patch_7">
     <path d="M 64.6 78.82825 
L 139.490625 78.82825 
Q 141.490625 78.82825 141.490625 76.82825 
L 141.490625 48.472 
Q 141.490625 46.472 139.490625 46.472 
L 64.6 46.472 
Q 62.6 46.472 62.6 48.472 
L 62.6 76.82825 
Q 62.6 78.82825 64.6 78.82825 
z
" style="fill: #ffffff; opacity: 0.8; stroke: #cccccc; stroke-linejoin: miter"/>
    </g>
    <g id="line2d_15">
     <path d="M 66.6 54.570437 
L 76.6 54.570437 
L 86.6 54.570437 
" style="fill: none; stroke: #d0a3d0; stroke-width: 1.5; stroke-linecap: square"/>
    </g>
    <g id="text_12">
     <!-- Distal -->
     <g transform="translate(94.6 58.070437)scale(0.1 -0.1)">
      <use xlink:href="#DejaVuSans-44"/>
      <use xlink:href="#DejaVuSans-69" x="77.001953"/>
      <use xlink:href="#DejaVuSans-73" x="104.785156"/>
      <use xlink:href="#DejaVuSans-74" x="156.884766"/>
      <use xlink:href="#DejaVuSans-61" x="196.09375"/>
      <use xlink:href="#DejaVuSans-6c" x="257.373047"/>
     </g>
    </g>
    <g id="line2d_16">
     <path d="M 66.6 69.248562 
L 76.6 69.248562 
L 86.6 69.248562 
" style="fill: none; stroke: #a3a3ff; stroke-width: 1.5; stroke-linecap: square"/>
    </g>
    <g id="text_13">
     <!-- Proximal -->
     <g transform="translate(94.6 72.748562)scale(0.1 -0.1)">
      <use xlink:href="#DejaVuSans-50"/>
      <use xlink:href="#DejaVuSans-72" x="58.552734"/>
      <use xlink:href="#DejaVuSans-6f" x="97.416016"/>
      <use xlink:href="#DejaVuSans-78" x="155.472656"/>
      <use xlink:href="#DejaVuSans-69" x="214.652344"/>
      <use xlink:href="#DejaVuSans-6d" x="242.435547"/>
      <use xlink:href="#DejaVuSans-61" x="339.847656"/>
      <use xlink:href="#DejaVuSans-6c" x="401.126953"/>
     </g>
    </g>
   </g>
  </g>
 </g>
 <defs>
  <clipPath id="p74c60b6337">
   <rect x="57.6" y="41.472" width="357.12" height="266.112"/>
  </clipPath>
 </defs>
</svg>
