<?xml version="1.0" encoding="utf-8" standalone="no"?>
<!DOCTYPE svg PUBLIC "-//W3C//DTD SVG 1.1//EN"
  "http://www.w3.org/Graphics/SVG/1.1/DTD/svg11.dtd">
<!-- Created with matplotlib (https://matplotlib.org/) -->
<svg height="288pt" version="1.1" viewBox="0 0 432 288" width="432pt" xmlns="http://www.w3.org/2000/svg" xmlns:xlink="http://www.w3.org/1999/xlink">
 <metadata>
  <rdf:RDF xmlns:cc="http://creativecommons.org/ns#" xmlns:dc="http://purl.org/dc/elements/1.1/" xmlns:rdf="http://www.w3.org/1999/02/22-rdf-syntax-ns#">
   <cc:Work>
    <dc:type rdf:resource="http://purl.org/dc/dcmitype/StillImage"/>
    <dc:date>2022-02-26T15:00:22.826263</dc:date>
    <dc:format>image/svg+xml</dc:format>
    <dc:creator>
     <cc:Agent>
      <dc:title>Matplotlib v3.3.3, https://matplotlib.org/</dc:title>
     </cc:Agent>
    </dc:creator>
   </cc:Work>
  </rdf:RDF>
 </metadata>
 <defs>
  <style type="text/css">*{stroke-linecap:butt;stroke-linejoin:round;}</style>
 </defs>
 <g id="figure_1">
  <g id="patch_1">
   <path d="M 0 288 
L 432 288 
L 432 0 
L 0 0 
z
" style="fill:none;"/>
  </g>
  <g id="axes_1">
   <g id="patch_2">
    <path d="M 68.175 246.2 
L 321.71 246.2 
L 321.71 26.8 
L 68.175 26.8 
z
" style="fill:#ffffff;"/>
   </g>
   <g id="patch_3">
    <path clip-path="url(#pd443ee988f)" d="M 111.760442 32.706923 
L 111.760442 37.77 
L 163.475845 37.77 
L 163.475845 32.706923 
L 111.760442 32.706923 
z
" style="fill:#dee9f3;stroke:#8b8b8b;stroke-linejoin:miter;stroke-width:1.5;"/>
   </g>
   <g id="patch_4">
    <path clip-path="url(#pd443ee988f)" d="M 177.777364 49.583846 
L 177.777364 54.646923 
L 211.000597 54.646923 
L 211.000597 49.583846 
L 177.777364 49.583846 
z
" style="fill:#dee9f3;stroke:#8b8b8b;stroke-linejoin:miter;stroke-width:1.5;"/>
   </g>
   <g id="patch_5">
    <path clip-path="url(#pd443ee988f)" d="M 203.020119 66.460769 
L 203.020119 71.523846 
L 234.455776 71.523846 
L 234.455776 66.460769 
L 203.020119 66.460769 
z
" style="fill:#dee9f3;stroke:#8b8b8b;stroke-linejoin:miter;stroke-width:1.5;"/>
   </g>
   <g id="patch_6">
    <path clip-path="url(#pd443ee988f)" d="M 212.523171 83.337692 
L 212.523171 88.400769 
L 227.961609 88.400769 
L 227.961609 83.337692 
L 212.523171 83.337692 
z
" style="fill:#dee9f3;stroke:#8b8b8b;stroke-linejoin:miter;stroke-width:1.5;"/>
   </g>
   <g id="patch_7">
    <path clip-path="url(#pd443ee988f)" d="M 226.2428 100.214615 
L 226.2428 105.277692 
L 250.842929 105.277692 
L 250.842929 100.214615 
L 226.2428 100.214615 
z
" style="fill:#dee9f3;stroke:#8b8b8b;stroke-linejoin:miter;stroke-width:1.5;"/>
   </g>
   <g id="patch_8">
    <path clip-path="url(#pd443ee988f)" d="M 231.886027 117.091538 
L 231.886027 122.154615 
L 254.418432 122.154615 
L 254.418432 117.091538 
L 231.886027 117.091538 
z
" style="fill:#dee9f3;stroke:#8b8b8b;stroke-linejoin:miter;stroke-width:1.5;"/>
   </g>
   <g id="patch_9">
    <path clip-path="url(#pd443ee988f)" d="M 238.567764 133.968462 
L 238.567764 139.031538 
L 254.430964 139.031538 
L 254.430964 133.968462 
L 238.567764 133.968462 
z
" style="fill:#dee9f3;stroke:#8b8b8b;stroke-linejoin:miter;stroke-width:1.5;"/>
   </g>
   <g id="patch_10">
    <path clip-path="url(#pd443ee988f)" d="M 248.26373 150.845385 
L 248.26373 155.908462 
L 259.591692 155.908462 
L 259.591692 150.845385 
L 248.26373 150.845385 
z
" style="fill:#dee9f3;stroke:#8b8b8b;stroke-linejoin:miter;stroke-width:1.5;"/>
   </g>
   <g id="patch_11">
    <path clip-path="url(#pd443ee988f)" d="M 247.388201 167.722308 
L 247.388201 172.785385 
L 260.662219 172.785385 
L 260.662219 167.722308 
L 247.388201 167.722308 
z
" style="fill:#dee9f3;stroke:#8b8b8b;stroke-linejoin:miter;stroke-width:1.5;"/>
   </g>
   <g id="patch_12">
    <path clip-path="url(#pd443ee988f)" d="M 251.850124 184.599231 
L 251.850124 189.662308 
L 260.94923 189.662308 
L 260.94923 184.599231 
L 251.850124 184.599231 
z
" style="fill:#dee9f3;stroke:#8b8b8b;stroke-linejoin:miter;stroke-width:1.5;"/>
   </g>
   <g id="patch_13">
    <path clip-path="url(#pd443ee988f)" d="M 268.206729 201.476154 
L 268.206729 206.539231 
L 277.57447 206.539231 
L 277.57447 201.476154 
L 268.206729 201.476154 
z
" style="fill:#dee9f3;stroke:#8b8b8b;stroke-linejoin:miter;stroke-width:1.5;"/>
   </g>
   <g id="patch_14">
    <path clip-path="url(#pd443ee988f)" d="M 261.971964 218.353077 
L 261.971964 223.416154 
L 278.56828 223.416154 
L 278.56828 218.353077 
L 261.971964 218.353077 
z
" style="fill:#dee9f3;stroke:#8b8b8b;stroke-linejoin:miter;stroke-width:1.5;"/>
   </g>
   <g id="patch_15">
    <path clip-path="url(#pd443ee988f)" d="M 293.789586 235.23 
L 293.789586 240.293077 
L 302.448677 240.293077 
L 302.448677 235.23 
L 293.789586 235.23 
z
" style="fill:#dee9f3;stroke:#8b8b8b;stroke-linejoin:miter;stroke-width:1.5;"/>
   </g>
   <g id="PathCollection_1"/>
   <g id="PathCollection_2"/>
   <g id="PathCollection_3"/>
   <g id="PathCollection_4"/>
   <g id="PathCollection_5"/>
   <g id="PathCollection_6"/>
   <g id="patch_16">
    <path clip-path="url(#pd443ee988f)" d="M 273.010465 246.2 
L 273.010465 26.8 
L 310.185682 26.8 
L 310.185682 246.2 
z
" style="fill:#808080;opacity:0.5;"/>
   </g>
   <g id="matplotlib.axis_1">
    <g id="xtick_1">
     <g id="text_1">
      <!-- −15 -->
      <g transform="translate(106.023448 260.798437)scale(0.1 -0.1)">
       <defs>
        <path d="M 10.59375 35.5 
L 73.1875 35.5 
L 73.1875 27.203125 
L 10.59375 27.203125 
z
" id="DejaVuSans-8722"/>
        <path d="M 12.40625 8.296875 
L 28.515625 8.296875 
L 28.515625 63.921875 
L 10.984375 60.40625 
L 10.984375 69.390625 
L 28.421875 72.90625 
L 38.28125 72.90625 
L 38.28125 8.296875 
L 54.390625 8.296875 
L 54.390625 0 
L 12.40625 0 
z
" id="DejaVuSans-49"/>
        <path d="M 10.796875 72.90625 
L 49.515625 72.90625 
L 49.515625 64.59375 
L 19.828125 64.59375 
L 19.828125 46.734375 
Q 21.96875 47.46875 24.109375 47.828125 
Q 26.265625 48.1875 28.421875 48.1875 
Q 40.625 48.1875 47.75 41.5 
Q 54.890625 34.8125 54.890625 23.390625 
Q 54.890625 11.625 47.5625 5.09375 
Q 40.234375 -1.421875 26.90625 -1.421875 
Q 22.3125 -1.421875 17.546875 -0.640625 
Q 12.796875 0.140625 7.71875 1.703125 
L 7.71875 11.625 
Q 12.109375 9.234375 16.796875 8.0625 
Q 21.484375 6.890625 26.703125 6.890625 
Q 35.15625 6.890625 40.078125 11.328125 
Q 45.015625 15.765625 45.015625 23.390625 
Q 45.015625 31 40.078125 35.4375 
Q 35.15625 39.890625 26.703125 39.890625 
Q 22.75 39.890625 18.8125 39.015625 
Q 14.890625 38.140625 10.796875 36.28125 
z
" id="DejaVuSans-53"/>
       </defs>
       <use xlink:href="#DejaVuSans-8722"/>
       <use x="83.789062" xlink:href="#DejaVuSans-49"/>
       <use x="147.412109" xlink:href="#DejaVuSans-53"/>
      </g>
     </g>
    </g>
    <g id="xtick_2">
     <g id="text_2">
      <!-- −10 -->
      <g transform="translate(158.168339 260.798437)scale(0.1 -0.1)">
       <defs>
        <path d="M 31.78125 66.40625 
Q 24.171875 66.40625 20.328125 58.90625 
Q 16.5 51.421875 16.5 36.375 
Q 16.5 21.390625 20.328125 13.890625 
Q 24.171875 6.390625 31.78125 6.390625 
Q 39.453125 6.390625 43.28125 13.890625 
Q 47.125 21.390625 47.125 36.375 
Q 47.125 51.421875 43.28125 58.90625 
Q 39.453125 66.40625 31.78125 66.40625 
z
M 31.78125 74.21875 
Q 44.046875 74.21875 50.515625 64.515625 
Q 56.984375 54.828125 56.984375 36.375 
Q 56.984375 17.96875 50.515625 8.265625 
Q 44.046875 -1.421875 31.78125 -1.421875 
Q 19.53125 -1.421875 13.0625 8.265625 
Q 6.59375 17.96875 6.59375 36.375 
Q 6.59375 54.828125 13.0625 64.515625 
Q 19.53125 74.21875 31.78125 74.21875 
z
" id="DejaVuSans-48"/>
       </defs>
       <use xlink:href="#DejaVuSans-8722"/>
       <use x="83.789062" xlink:href="#DejaVuSans-49"/>
       <use x="147.412109" xlink:href="#DejaVuSans-48"/>
      </g>
     </g>
    </g>
    <g id="xtick_3">
     <g id="text_3">
      <!-- −5 -->
      <g transform="translate(213.49448 260.798437)scale(0.1 -0.1)">
       <use xlink:href="#DejaVuSans-8722"/>
       <use x="83.789062" xlink:href="#DejaVuSans-53"/>
      </g>
     </g>
    </g>
    <g id="xtick_4">
     <g id="text_4">
      <!-- 0 -->
      <g transform="translate(269.829215 260.798437)scale(0.1 -0.1)">
       <use xlink:href="#DejaVuSans-48"/>
      </g>
     </g>
    </g>
    <g id="text_5">
     <!-- Z score per sample/ontology -->
     <g transform="translate(123.318281 274.476562)scale(0.1 -0.1)">
      <defs>
       <path d="M 5.609375 72.90625 
L 62.890625 72.90625 
L 62.890625 65.375 
L 16.796875 8.296875 
L 64.015625 8.296875 
L 64.015625 0 
L 4.5 0 
L 4.5 7.515625 
L 50.59375 64.59375 
L 5.609375 64.59375 
z
" id="DejaVuSans-90"/>
       <path id="DejaVuSans-32"/>
       <path d="M 44.28125 53.078125 
L 44.28125 44.578125 
Q 40.484375 46.53125 36.375 47.5 
Q 32.28125 48.484375 27.875 48.484375 
Q 21.1875 48.484375 17.84375 46.4375 
Q 14.5 44.390625 14.5 40.28125 
Q 14.5 37.15625 16.890625 35.375 
Q 19.28125 33.59375 26.515625 31.984375 
L 29.59375 31.296875 
Q 39.15625 29.25 43.1875 25.515625 
Q 47.21875 21.78125 47.21875 15.09375 
Q 47.21875 7.46875 41.1875 3.015625 
Q 35.15625 -1.421875 24.609375 -1.421875 
Q 20.21875 -1.421875 15.453125 -0.5625 
Q 10.6875 0.296875 5.421875 2 
L 5.421875 11.28125 
Q 10.40625 8.6875 15.234375 7.390625 
Q 20.0625 6.109375 24.8125 6.109375 
Q 31.15625 6.109375 34.5625 8.28125 
Q 37.984375 10.453125 37.984375 14.40625 
Q 37.984375 18.0625 35.515625 20.015625 
Q 33.0625 21.96875 24.703125 23.78125 
L 21.578125 24.515625 
Q 13.234375 26.265625 9.515625 29.90625 
Q 5.8125 33.546875 5.8125 39.890625 
Q 5.8125 47.609375 11.28125 51.796875 
Q 16.75 56 26.8125 56 
Q 31.78125 56 36.171875 55.265625 
Q 40.578125 54.546875 44.28125 53.078125 
z
" id="DejaVuSans-115"/>
       <path d="M 48.78125 52.59375 
L 48.78125 44.1875 
Q 44.96875 46.296875 41.140625 47.34375 
Q 37.3125 48.390625 33.40625 48.390625 
Q 24.65625 48.390625 19.8125 42.84375 
Q 14.984375 37.3125 14.984375 27.296875 
Q 14.984375 17.28125 19.8125 11.734375 
Q 24.65625 6.203125 33.40625 6.203125 
Q 37.3125 6.203125 41.140625 7.25 
Q 44.96875 8.296875 48.78125 10.40625 
L 48.78125 2.09375 
Q 45.015625 0.34375 40.984375 -0.53125 
Q 36.96875 -1.421875 32.421875 -1.421875 
Q 20.0625 -1.421875 12.78125 6.34375 
Q 5.515625 14.109375 5.515625 27.296875 
Q 5.515625 40.671875 12.859375 48.328125 
Q 20.21875 56 33.015625 56 
Q 37.15625 56 41.109375 55.140625 
Q 45.0625 54.296875 48.78125 52.59375 
z
" id="DejaVuSans-99"/>
       <path d="M 30.609375 48.390625 
Q 23.390625 48.390625 19.1875 42.75 
Q 14.984375 37.109375 14.984375 27.296875 
Q 14.984375 17.484375 19.15625 11.84375 
Q 23.34375 6.203125 30.609375 6.203125 
Q 37.796875 6.203125 41.984375 11.859375 
Q 46.1875 17.53125 46.1875 27.296875 
Q 46.1875 37.015625 41.984375 42.703125 
Q 37.796875 48.390625 30.609375 48.390625 
z
M 30.609375 56 
Q 42.328125 56 49.015625 48.375 
Q 55.71875 40.765625 55.71875 27.296875 
Q 55.71875 13.875 49.015625 6.21875 
Q 42.328125 -1.421875 30.609375 -1.421875 
Q 18.84375 -1.421875 12.171875 6.21875 
Q 5.515625 13.875 5.515625 27.296875 
Q 5.515625 40.765625 12.171875 48.375 
Q 18.84375 56 30.609375 56 
z
" id="DejaVuSans-111"/>
       <path d="M 41.109375 46.296875 
Q 39.59375 47.171875 37.8125 47.578125 
Q 36.03125 48 33.890625 48 
Q 26.265625 48 22.1875 43.046875 
Q 18.109375 38.09375 18.109375 28.8125 
L 18.109375 0 
L 9.078125 0 
L 9.078125 54.6875 
L 18.109375 54.6875 
L 18.109375 46.1875 
Q 20.953125 51.171875 25.484375 53.578125 
Q 30.03125 56 36.53125 56 
Q 37.453125 56 38.578125 55.875 
Q 39.703125 55.765625 41.0625 55.515625 
z
" id="DejaVuSans-114"/>
       <path d="M 56.203125 29.59375 
L 56.203125 25.203125 
L 14.890625 25.203125 
Q 15.484375 15.921875 20.484375 11.0625 
Q 25.484375 6.203125 34.421875 6.203125 
Q 39.59375 6.203125 44.453125 7.46875 
Q 49.3125 8.734375 54.109375 11.28125 
L 54.109375 2.78125 
Q 49.265625 0.734375 44.1875 -0.34375 
Q 39.109375 -1.421875 33.890625 -1.421875 
Q 20.796875 -1.421875 13.15625 6.1875 
Q 5.515625 13.8125 5.515625 26.8125 
Q 5.515625 40.234375 12.765625 48.109375 
Q 20.015625 56 32.328125 56 
Q 43.359375 56 49.78125 48.890625 
Q 56.203125 41.796875 56.203125 29.59375 
z
M 47.21875 32.234375 
Q 47.125 39.59375 43.09375 43.984375 
Q 39.0625 48.390625 32.421875 48.390625 
Q 24.90625 48.390625 20.390625 44.140625 
Q 15.875 39.890625 15.1875 32.171875 
z
" id="DejaVuSans-101"/>
       <path d="M 18.109375 8.203125 
L 18.109375 -20.796875 
L 9.078125 -20.796875 
L 9.078125 54.6875 
L 18.109375 54.6875 
L 18.109375 46.390625 
Q 20.953125 51.265625 25.265625 53.625 
Q 29.59375 56 35.59375 56 
Q 45.5625 56 51.78125 48.09375 
Q 58.015625 40.1875 58.015625 27.296875 
Q 58.015625 14.40625 51.78125 6.484375 
Q 45.5625 -1.421875 35.59375 -1.421875 
Q 29.59375 -1.421875 25.265625 0.953125 
Q 20.953125 3.328125 18.109375 8.203125 
z
M 48.6875 27.296875 
Q 48.6875 37.203125 44.609375 42.84375 
Q 40.53125 48.484375 33.40625 48.484375 
Q 26.265625 48.484375 22.1875 42.84375 
Q 18.109375 37.203125 18.109375 27.296875 
Q 18.109375 17.390625 22.1875 11.75 
Q 26.265625 6.109375 33.40625 6.109375 
Q 40.53125 6.109375 44.609375 11.75 
Q 48.6875 17.390625 48.6875 27.296875 
z
" id="DejaVuSans-112"/>
       <path d="M 34.28125 27.484375 
Q 23.390625 27.484375 19.1875 25 
Q 14.984375 22.515625 14.984375 16.5 
Q 14.984375 11.71875 18.140625 8.90625 
Q 21.296875 6.109375 26.703125 6.109375 
Q 34.1875 6.109375 38.703125 11.40625 
Q 43.21875 16.703125 43.21875 25.484375 
L 43.21875 27.484375 
z
M 52.203125 31.203125 
L 52.203125 0 
L 43.21875 0 
L 43.21875 8.296875 
Q 40.140625 3.328125 35.546875 0.953125 
Q 30.953125 -1.421875 24.3125 -1.421875 
Q 15.921875 -1.421875 10.953125 3.296875 
Q 6 8.015625 6 15.921875 
Q 6 25.140625 12.171875 29.828125 
Q 18.359375 34.515625 30.609375 34.515625 
L 43.21875 34.515625 
L 43.21875 35.40625 
Q 43.21875 41.609375 39.140625 45 
Q 35.0625 48.390625 27.6875 48.390625 
Q 23 48.390625 18.546875 47.265625 
Q 14.109375 46.140625 10.015625 43.890625 
L 10.015625 52.203125 
Q 14.9375 54.109375 19.578125 55.046875 
Q 24.21875 56 28.609375 56 
Q 40.484375 56 46.34375 49.84375 
Q 52.203125 43.703125 52.203125 31.203125 
z
" id="DejaVuSans-97"/>
       <path d="M 52 44.1875 
Q 55.375 50.25 60.0625 53.125 
Q 64.75 56 71.09375 56 
Q 79.640625 56 84.28125 50.015625 
Q 88.921875 44.046875 88.921875 33.015625 
L 88.921875 0 
L 79.890625 0 
L 79.890625 32.71875 
Q 79.890625 40.578125 77.09375 44.375 
Q 74.3125 48.1875 68.609375 48.1875 
Q 61.625 48.1875 57.5625 43.546875 
Q 53.515625 38.921875 53.515625 30.90625 
L 53.515625 0 
L 44.484375 0 
L 44.484375 32.71875 
Q 44.484375 40.625 41.703125 44.40625 
Q 38.921875 48.1875 33.109375 48.1875 
Q 26.21875 48.1875 22.15625 43.53125 
Q 18.109375 38.875 18.109375 30.90625 
L 18.109375 0 
L 9.078125 0 
L 9.078125 54.6875 
L 18.109375 54.6875 
L 18.109375 46.1875 
Q 21.1875 51.21875 25.484375 53.609375 
Q 29.78125 56 35.6875 56 
Q 41.65625 56 45.828125 52.96875 
Q 50 49.953125 52 44.1875 
z
" id="DejaVuSans-109"/>
       <path d="M 9.421875 75.984375 
L 18.40625 75.984375 
L 18.40625 0 
L 9.421875 0 
z
" id="DejaVuSans-108"/>
       <path d="M 25.390625 72.90625 
L 33.6875 72.90625 
L 8.296875 -9.28125 
L 0 -9.28125 
z
" id="DejaVuSans-47"/>
       <path d="M 54.890625 33.015625 
L 54.890625 0 
L 45.90625 0 
L 45.90625 32.71875 
Q 45.90625 40.484375 42.875 44.328125 
Q 39.84375 48.1875 33.796875 48.1875 
Q 26.515625 48.1875 22.3125 43.546875 
Q 18.109375 38.921875 18.109375 30.90625 
L 18.109375 0 
L 9.078125 0 
L 9.078125 54.6875 
L 18.109375 54.6875 
L 18.109375 46.1875 
Q 21.34375 51.125 25.703125 53.5625 
Q 30.078125 56 35.796875 56 
Q 45.21875 56 50.046875 50.171875 
Q 54.890625 44.34375 54.890625 33.015625 
z
" id="DejaVuSans-110"/>
       <path d="M 18.3125 70.21875 
L 18.3125 54.6875 
L 36.8125 54.6875 
L 36.8125 47.703125 
L 18.3125 47.703125 
L 18.3125 18.015625 
Q 18.3125 11.328125 20.140625 9.421875 
Q 21.96875 7.515625 27.59375 7.515625 
L 36.8125 7.515625 
L 36.8125 0 
L 27.59375 0 
Q 17.1875 0 13.234375 3.875 
Q 9.28125 7.765625 9.28125 18.015625 
L 9.28125 47.703125 
L 2.6875 47.703125 
L 2.6875 54.6875 
L 9.28125 54.6875 
L 9.28125 70.21875 
z
" id="DejaVuSans-116"/>
       <path d="M 45.40625 27.984375 
Q 45.40625 37.75 41.375 43.109375 
Q 37.359375 48.484375 30.078125 48.484375 
Q 22.859375 48.484375 18.828125 43.109375 
Q 14.796875 37.75 14.796875 27.984375 
Q 14.796875 18.265625 18.828125 12.890625 
Q 22.859375 7.515625 30.078125 7.515625 
Q 37.359375 7.515625 41.375 12.890625 
Q 45.40625 18.265625 45.40625 27.984375 
z
M 54.390625 6.78125 
Q 54.390625 -7.171875 48.1875 -13.984375 
Q 42 -20.796875 29.203125 -20.796875 
Q 24.46875 -20.796875 20.265625 -20.09375 
Q 16.0625 -19.390625 12.109375 -17.921875 
L 12.109375 -9.1875 
Q 16.0625 -11.328125 19.921875 -12.34375 
Q 23.78125 -13.375 27.78125 -13.375 
Q 36.625 -13.375 41.015625 -8.765625 
Q 45.40625 -4.15625 45.40625 5.171875 
L 45.40625 9.625 
Q 42.625 4.78125 38.28125 2.390625 
Q 33.9375 0 27.875 0 
Q 17.828125 0 11.671875 7.65625 
Q 5.515625 15.328125 5.515625 27.984375 
Q 5.515625 40.671875 11.671875 48.328125 
Q 17.828125 56 27.875 56 
Q 33.9375 56 38.28125 53.609375 
Q 42.625 51.21875 45.40625 46.390625 
L 45.40625 54.6875 
L 54.390625 54.6875 
z
" id="DejaVuSans-103"/>
       <path d="M 32.171875 -5.078125 
Q 28.375 -14.84375 24.75 -17.8125 
Q 21.140625 -20.796875 15.09375 -20.796875 
L 7.90625 -20.796875 
L 7.90625 -13.28125 
L 13.1875 -13.28125 
Q 16.890625 -13.28125 18.9375 -11.515625 
Q 21 -9.765625 23.484375 -3.21875 
L 25.09375 0.875 
L 2.984375 54.6875 
L 12.5 54.6875 
L 29.59375 11.921875 
L 46.6875 54.6875 
L 56.203125 54.6875 
z
" id="DejaVuSans-121"/>
      </defs>
      <use xlink:href="#DejaVuSans-90"/>
      <use x="68.505859" xlink:href="#DejaVuSans-32"/>
      <use x="100.292969" xlink:href="#DejaVuSans-115"/>
      <use x="152.392578" xlink:href="#DejaVuSans-99"/>
      <use x="207.373047" xlink:href="#DejaVuSans-111"/>
      <use x="268.554688" xlink:href="#DejaVuSans-114"/>
      <use x="307.417969" xlink:href="#DejaVuSans-101"/>
      <use x="368.941406" xlink:href="#DejaVuSans-32"/>
      <use x="400.728516" xlink:href="#DejaVuSans-112"/>
      <use x="464.205078" xlink:href="#DejaVuSans-101"/>
      <use x="525.728516" xlink:href="#DejaVuSans-114"/>
      <use x="566.841797" xlink:href="#DejaVuSans-32"/>
      <use x="598.628906" xlink:href="#DejaVuSans-115"/>
      <use x="650.728516" xlink:href="#DejaVuSans-97"/>
      <use x="712.007812" xlink:href="#DejaVuSans-109"/>
      <use x="809.419922" xlink:href="#DejaVuSans-112"/>
      <use x="872.896484" xlink:href="#DejaVuSans-108"/>
      <use x="900.679688" xlink:href="#DejaVuSans-101"/>
      <use x="962.203125" xlink:href="#DejaVuSans-47"/>
      <use x="995.894531" xlink:href="#DejaVuSans-111"/>
      <use x="1057.076172" xlink:href="#DejaVuSans-110"/>
      <use x="1120.455078" xlink:href="#DejaVuSans-116"/>
      <use x="1159.664062" xlink:href="#DejaVuSans-111"/>
      <use x="1220.845703" xlink:href="#DejaVuSans-108"/>
      <use x="1248.628906" xlink:href="#DejaVuSans-111"/>
      <use x="1309.810547" xlink:href="#DejaVuSans-103"/>
      <use x="1373.287109" xlink:href="#DejaVuSans-121"/>
     </g>
    </g>
   </g>
   <g id="matplotlib.axis_2">
    <g id="ytick_1">
     <g id="text_6">
      <!-- Oligo -->
      <g transform="translate(35.279687 39.03768)scale(0.1 -0.1)">
       <defs>
        <path d="M 39.40625 66.21875 
Q 28.65625 66.21875 22.328125 58.203125 
Q 16.015625 50.203125 16.015625 36.375 
Q 16.015625 22.609375 22.328125 14.59375 
Q 28.65625 6.59375 39.40625 6.59375 
Q 50.140625 6.59375 56.421875 14.59375 
Q 62.703125 22.609375 62.703125 36.375 
Q 62.703125 50.203125 56.421875 58.203125 
Q 50.140625 66.21875 39.40625 66.21875 
z
M 39.40625 74.21875 
Q 54.734375 74.21875 63.90625 63.9375 
Q 73.09375 53.65625 73.09375 36.375 
Q 73.09375 19.140625 63.90625 8.859375 
Q 54.734375 -1.421875 39.40625 -1.421875 
Q 24.03125 -1.421875 14.8125 8.828125 
Q 5.609375 19.09375 5.609375 36.375 
Q 5.609375 53.65625 14.8125 63.9375 
Q 24.03125 74.21875 39.40625 74.21875 
z
" id="DejaVuSans-79"/>
        <path d="M 9.421875 54.6875 
L 18.40625 54.6875 
L 18.40625 0 
L 9.421875 0 
z
M 9.421875 75.984375 
L 18.40625 75.984375 
L 18.40625 64.59375 
L 9.421875 64.59375 
z
" id="DejaVuSans-105"/>
       </defs>
       <use xlink:href="#DejaVuSans-79"/>
       <use x="78.710938" xlink:href="#DejaVuSans-108"/>
       <use x="106.494141" xlink:href="#DejaVuSans-105"/>
       <use x="134.277344" xlink:href="#DejaVuSans-103"/>
       <use x="197.753906" xlink:href="#DejaVuSans-111"/>
      </g>
     </g>
    </g>
    <g id="ytick_2">
     <g id="text_7">
      <!-- OPC -->
      <g transform="translate(40.290625 55.914603)scale(0.1 -0.1)">
       <defs>
        <path d="M 19.671875 64.796875 
L 19.671875 37.40625 
L 32.078125 37.40625 
Q 38.96875 37.40625 42.71875 40.96875 
Q 46.484375 44.53125 46.484375 51.125 
Q 46.484375 57.671875 42.71875 61.234375 
Q 38.96875 64.796875 32.078125 64.796875 
z
M 9.8125 72.90625 
L 32.078125 72.90625 
Q 44.34375 72.90625 50.609375 67.359375 
Q 56.890625 61.8125 56.890625 51.125 
Q 56.890625 40.328125 50.609375 34.8125 
Q 44.34375 29.296875 32.078125 29.296875 
L 19.671875 29.296875 
L 19.671875 0 
L 9.8125 0 
z
" id="DejaVuSans-80"/>
        <path d="M 64.40625 67.28125 
L 64.40625 56.890625 
Q 59.421875 61.53125 53.78125 63.8125 
Q 48.140625 66.109375 41.796875 66.109375 
Q 29.296875 66.109375 22.65625 58.46875 
Q 16.015625 50.828125 16.015625 36.375 
Q 16.015625 21.96875 22.65625 14.328125 
Q 29.296875 6.6875 41.796875 6.6875 
Q 48.140625 6.6875 53.78125 8.984375 
Q 59.421875 11.28125 64.40625 15.921875 
L 64.40625 5.609375 
Q 59.234375 2.09375 53.4375 0.328125 
Q 47.65625 -1.421875 41.21875 -1.421875 
Q 24.65625 -1.421875 15.125 8.703125 
Q 5.609375 18.84375 5.609375 36.375 
Q 5.609375 53.953125 15.125 64.078125 
Q 24.65625 74.21875 41.21875 74.21875 
Q 47.75 74.21875 53.53125 72.484375 
Q 59.328125 70.75 64.40625 67.28125 
z
" id="DejaVuSans-67"/>
       </defs>
       <use xlink:href="#DejaVuSans-79"/>
       <use x="78.710938" xlink:href="#DejaVuSans-80"/>
       <use x="139.013672" xlink:href="#DejaVuSans-67"/>
      </g>
     </g>
    </g>
    <g id="ytick_3">
     <g id="text_8">
      <!-- L6 CT -->
      <g transform="translate(32.971875 72.791526)scale(0.1 -0.1)">
       <defs>
        <path d="M 9.8125 72.90625 
L 19.671875 72.90625 
L 19.671875 8.296875 
L 55.171875 8.296875 
L 55.171875 0 
L 9.8125 0 
z
" id="DejaVuSans-76"/>
        <path d="M 33.015625 40.375 
Q 26.375 40.375 22.484375 35.828125 
Q 18.609375 31.296875 18.609375 23.390625 
Q 18.609375 15.53125 22.484375 10.953125 
Q 26.375 6.390625 33.015625 6.390625 
Q 39.65625 6.390625 43.53125 10.953125 
Q 47.40625 15.53125 47.40625 23.390625 
Q 47.40625 31.296875 43.53125 35.828125 
Q 39.65625 40.375 33.015625 40.375 
z
M 52.59375 71.296875 
L 52.59375 62.3125 
Q 48.875 64.0625 45.09375 64.984375 
Q 41.3125 65.921875 37.59375 65.921875 
Q 27.828125 65.921875 22.671875 59.328125 
Q 17.53125 52.734375 16.796875 39.40625 
Q 19.671875 43.65625 24.015625 45.921875 
Q 28.375 48.1875 33.59375 48.1875 
Q 44.578125 48.1875 50.953125 41.515625 
Q 57.328125 34.859375 57.328125 23.390625 
Q 57.328125 12.15625 50.6875 5.359375 
Q 44.046875 -1.421875 33.015625 -1.421875 
Q 20.359375 -1.421875 13.671875 8.265625 
Q 6.984375 17.96875 6.984375 36.375 
Q 6.984375 53.65625 15.1875 63.9375 
Q 23.390625 74.21875 37.203125 74.21875 
Q 40.921875 74.21875 44.703125 73.484375 
Q 48.484375 72.75 52.59375 71.296875 
z
" id="DejaVuSans-54"/>
        <path d="M -0.296875 72.90625 
L 61.375 72.90625 
L 61.375 64.59375 
L 35.5 64.59375 
L 35.5 0 
L 25.59375 0 
L 25.59375 64.59375 
L -0.296875 64.59375 
z
" id="DejaVuSans-84"/>
       </defs>
       <use xlink:href="#DejaVuSans-76"/>
       <use x="55.712891" xlink:href="#DejaVuSans-54"/>
       <use x="119.335938" xlink:href="#DejaVuSans-32"/>
       <use x="151.123047" xlink:href="#DejaVuSans-67"/>
       <use x="220.947266" xlink:href="#DejaVuSans-84"/>
      </g>
     </g>
    </g>
    <g id="ytick_4">
     <g id="text_9">
      <!-- L5 ET -->
      <g transform="translate(33.635937 89.66845)scale(0.1 -0.1)">
       <defs>
        <path d="M 9.8125 72.90625 
L 55.90625 72.90625 
L 55.90625 64.59375 
L 19.671875 64.59375 
L 19.671875 43.015625 
L 54.390625 43.015625 
L 54.390625 34.71875 
L 19.671875 34.71875 
L 19.671875 8.296875 
L 56.78125 8.296875 
L 56.78125 0 
L 9.8125 0 
z
" id="DejaVuSans-69"/>
       </defs>
       <use xlink:href="#DejaVuSans-76"/>
       <use x="55.712891" xlink:href="#DejaVuSans-53"/>
       <use x="119.335938" xlink:href="#DejaVuSans-32"/>
       <use x="151.123047" xlink:href="#DejaVuSans-69"/>
       <use x="214.306641" xlink:href="#DejaVuSans-84"/>
      </g>
     </g>
    </g>
    <g id="ytick_5">
     <g id="text_10">
      <!-- Lamp5 -->
      <g transform="translate(27.023437 106.545373)scale(0.1 -0.1)">
       <use xlink:href="#DejaVuSans-76"/>
       <use x="55.712891" xlink:href="#DejaVuSans-97"/>
       <use x="116.992188" xlink:href="#DejaVuSans-109"/>
       <use x="214.404297" xlink:href="#DejaVuSans-112"/>
       <use x="277.880859" xlink:href="#DejaVuSans-53"/>
      </g>
     </g>
    </g>
    <g id="ytick_6">
     <g id="text_11">
      <!-- L6b -->
      <g transform="translate(42.892187 123.422296)scale(0.1 -0.1)">
       <defs>
        <path d="M 48.6875 27.296875 
Q 48.6875 37.203125 44.609375 42.84375 
Q 40.53125 48.484375 33.40625 48.484375 
Q 26.265625 48.484375 22.1875 42.84375 
Q 18.109375 37.203125 18.109375 27.296875 
Q 18.109375 17.390625 22.1875 11.75 
Q 26.265625 6.109375 33.40625 6.109375 
Q 40.53125 6.109375 44.609375 11.75 
Q 48.6875 17.390625 48.6875 27.296875 
z
M 18.109375 46.390625 
Q 20.953125 51.265625 25.265625 53.625 
Q 29.59375 56 35.59375 56 
Q 45.5625 56 51.78125 48.09375 
Q 58.015625 40.1875 58.015625 27.296875 
Q 58.015625 14.40625 51.78125 6.484375 
Q 45.5625 -1.421875 35.59375 -1.421875 
Q 29.59375 -1.421875 25.265625 0.953125 
Q 20.953125 3.328125 18.109375 8.203125 
L 18.109375 0 
L 9.078125 0 
L 9.078125 75.984375 
L 18.109375 75.984375 
z
" id="DejaVuSans-98"/>
       </defs>
       <use xlink:href="#DejaVuSans-76"/>
       <use x="55.712891" xlink:href="#DejaVuSans-54"/>
       <use x="119.335938" xlink:href="#DejaVuSans-98"/>
      </g>
     </g>
    </g>
    <g id="ytick_7">
     <g id="text_12">
      <!-- Sst -->
      <g transform="translate(45.696875 140.299219)scale(0.1 -0.1)">
       <defs>
        <path d="M 53.515625 70.515625 
L 53.515625 60.890625 
Q 47.90625 63.578125 42.921875 64.890625 
Q 37.9375 66.21875 33.296875 66.21875 
Q 25.25 66.21875 20.875 63.09375 
Q 16.5 59.96875 16.5 54.203125 
Q 16.5 49.359375 19.40625 46.890625 
Q 22.3125 44.4375 30.421875 42.921875 
L 36.375 41.703125 
Q 47.40625 39.59375 52.65625 34.296875 
Q 57.90625 29 57.90625 20.125 
Q 57.90625 9.515625 50.796875 4.046875 
Q 43.703125 -1.421875 29.984375 -1.421875 
Q 24.8125 -1.421875 18.96875 -0.25 
Q 13.140625 0.921875 6.890625 3.21875 
L 6.890625 13.375 
Q 12.890625 10.015625 18.65625 8.296875 
Q 24.421875 6.59375 29.984375 6.59375 
Q 38.421875 6.59375 43.015625 9.90625 
Q 47.609375 13.234375 47.609375 19.390625 
Q 47.609375 24.75 44.3125 27.78125 
Q 41.015625 30.8125 33.5 32.328125 
L 27.484375 33.5 
Q 16.453125 35.6875 11.515625 40.375 
Q 6.59375 45.0625 6.59375 53.421875 
Q 6.59375 63.09375 13.40625 68.65625 
Q 20.21875 74.21875 32.171875 74.21875 
Q 37.3125 74.21875 42.625 73.28125 
Q 47.953125 72.359375 53.515625 70.515625 
z
" id="DejaVuSans-83"/>
       </defs>
       <use xlink:href="#DejaVuSans-83"/>
       <use x="63.476562" xlink:href="#DejaVuSans-115"/>
       <use x="115.576172" xlink:href="#DejaVuSans-116"/>
      </g>
     </g>
    </g>
    <g id="ytick_8">
     <g id="text_13">
      <!-- Astro -->
      <g transform="translate(35.2 157.176142)scale(0.1 -0.1)">
       <defs>
        <path d="M 34.1875 63.1875 
L 20.796875 26.90625 
L 47.609375 26.90625 
z
M 28.609375 72.90625 
L 39.796875 72.90625 
L 67.578125 0 
L 57.328125 0 
L 50.6875 18.703125 
L 17.828125 18.703125 
L 11.1875 0 
L 0.78125 0 
z
" id="DejaVuSans-65"/>
       </defs>
       <use xlink:href="#DejaVuSans-65"/>
       <use x="68.408203" xlink:href="#DejaVuSans-115"/>
       <use x="120.507812" xlink:href="#DejaVuSans-116"/>
       <use x="159.716797" xlink:href="#DejaVuSans-114"/>
       <use x="198.580078" xlink:href="#DejaVuSans-111"/>
      </g>
     </g>
    </g>
    <g id="ytick_9">
     <g id="text_14">
      <!-- Pvalb -->
      <g transform="translate(33.971875 174.053065)scale(0.1 -0.1)">
       <defs>
        <path d="M 2.984375 54.6875 
L 12.5 54.6875 
L 29.59375 8.796875 
L 46.6875 54.6875 
L 56.203125 54.6875 
L 35.6875 0 
L 23.484375 0 
z
" id="DejaVuSans-118"/>
       </defs>
       <use xlink:href="#DejaVuSans-80"/>
       <use x="60.302734" xlink:href="#DejaVuSans-118"/>
       <use x="119.482422" xlink:href="#DejaVuSans-97"/>
       <use x="180.761719" xlink:href="#DejaVuSans-108"/>
       <use x="208.544922" xlink:href="#DejaVuSans-98"/>
      </g>
     </g>
    </g>
    <g id="ytick_10">
     <g id="text_15">
      <!-- L6 IT -->
      <g transform="translate(37.004687 190.929988)scale(0.1 -0.1)">
       <defs>
        <path d="M 9.8125 72.90625 
L 19.671875 72.90625 
L 19.671875 0 
L 9.8125 0 
z
" id="DejaVuSans-73"/>
       </defs>
       <use xlink:href="#DejaVuSans-76"/>
       <use x="55.712891" xlink:href="#DejaVuSans-54"/>
       <use x="119.335938" xlink:href="#DejaVuSans-32"/>
       <use x="151.123047" xlink:href="#DejaVuSans-73"/>
       <use x="180.615234" xlink:href="#DejaVuSans-84"/>
      </g>
     </g>
    </g>
    <g id="ytick_11">
     <g id="text_16">
      <!-- L5 IT -->
      <g transform="translate(37.004687 207.806911)scale(0.1 -0.1)">
       <use xlink:href="#DejaVuSans-76"/>
       <use x="55.712891" xlink:href="#DejaVuSans-53"/>
       <use x="119.335938" xlink:href="#DejaVuSans-32"/>
       <use x="151.123047" xlink:href="#DejaVuSans-73"/>
       <use x="180.615234" xlink:href="#DejaVuSans-84"/>
      </g>
     </g>
    </g>
    <g id="ytick_12">
     <g id="text_17">
      <!-- L6 IT Car3 -->
      <g transform="translate(10.242187 224.683834)scale(0.1 -0.1)">
       <defs>
        <path d="M 40.578125 39.3125 
Q 47.65625 37.796875 51.625 33 
Q 55.609375 28.21875 55.609375 21.1875 
Q 55.609375 10.40625 48.1875 4.484375 
Q 40.765625 -1.421875 27.09375 -1.421875 
Q 22.515625 -1.421875 17.65625 -0.515625 
Q 12.796875 0.390625 7.625 2.203125 
L 7.625 11.71875 
Q 11.71875 9.328125 16.59375 8.109375 
Q 21.484375 6.890625 26.8125 6.890625 
Q 36.078125 6.890625 40.9375 10.546875 
Q 45.796875 14.203125 45.796875 21.1875 
Q 45.796875 27.640625 41.28125 31.265625 
Q 36.765625 34.90625 28.71875 34.90625 
L 20.21875 34.90625 
L 20.21875 43.015625 
L 29.109375 43.015625 
Q 36.375 43.015625 40.234375 45.921875 
Q 44.09375 48.828125 44.09375 54.296875 
Q 44.09375 59.90625 40.109375 62.90625 
Q 36.140625 65.921875 28.71875 65.921875 
Q 24.65625 65.921875 20.015625 65.03125 
Q 15.375 64.15625 9.8125 62.3125 
L 9.8125 71.09375 
Q 15.4375 72.65625 20.34375 73.4375 
Q 25.25 74.21875 29.59375 74.21875 
Q 40.828125 74.21875 47.359375 69.109375 
Q 53.90625 64.015625 53.90625 55.328125 
Q 53.90625 49.265625 50.4375 45.09375 
Q 46.96875 40.921875 40.578125 39.3125 
z
" id="DejaVuSans-51"/>
       </defs>
       <use xlink:href="#DejaVuSans-76"/>
       <use x="55.712891" xlink:href="#DejaVuSans-54"/>
       <use x="119.335938" xlink:href="#DejaVuSans-32"/>
       <use x="151.123047" xlink:href="#DejaVuSans-73"/>
       <use x="180.615234" xlink:href="#DejaVuSans-84"/>
       <use x="241.699219" xlink:href="#DejaVuSans-32"/>
       <use x="273.486328" xlink:href="#DejaVuSans-67"/>
       <use x="343.310547" xlink:href="#DejaVuSans-97"/>
       <use x="404.589844" xlink:href="#DejaVuSans-114"/>
       <use x="445.703125" xlink:href="#DejaVuSans-51"/>
      </g>
     </g>
    </g>
    <g id="ytick_13">
     <g id="text_18">
      <!-- L2/3 IT -->
      <g transform="translate(27.273437 241.560757)scale(0.1 -0.1)">
       <defs>
        <path d="M 19.1875 8.296875 
L 53.609375 8.296875 
L 53.609375 0 
L 7.328125 0 
L 7.328125 8.296875 
Q 12.9375 14.109375 22.625 23.890625 
Q 32.328125 33.6875 34.8125 36.53125 
Q 39.546875 41.84375 41.421875 45.53125 
Q 43.3125 49.21875 43.3125 52.78125 
Q 43.3125 58.59375 39.234375 62.25 
Q 35.15625 65.921875 28.609375 65.921875 
Q 23.96875 65.921875 18.8125 64.3125 
Q 13.671875 62.703125 7.8125 59.421875 
L 7.8125 69.390625 
Q 13.765625 71.78125 18.9375 73 
Q 24.125 74.21875 28.421875 74.21875 
Q 39.75 74.21875 46.484375 68.546875 
Q 53.21875 62.890625 53.21875 53.421875 
Q 53.21875 48.921875 51.53125 44.890625 
Q 49.859375 40.875 45.40625 35.40625 
Q 44.1875 33.984375 37.640625 27.21875 
Q 31.109375 20.453125 19.1875 8.296875 
z
" id="DejaVuSans-50"/>
       </defs>
       <use xlink:href="#DejaVuSans-76"/>
       <use x="55.712891" xlink:href="#DejaVuSans-50"/>
       <use x="119.335938" xlink:href="#DejaVuSans-47"/>
       <use x="153.027344" xlink:href="#DejaVuSans-51"/>
       <use x="216.650391" xlink:href="#DejaVuSans-32"/>
       <use x="248.4375" xlink:href="#DejaVuSans-73"/>
       <use x="277.929688" xlink:href="#DejaVuSans-84"/>
      </g>
     </g>
    </g>
   </g>
   <g id="line2d_1">
    <path clip-path="url(#pd443ee988f)" d="M 273.010465 246.2 
L 273.010465 26.8 
" style="fill:none;stroke:#808080;stroke-dasharray:5.55,2.4;stroke-dashoffset:0;stroke-width:1.5;"/>
   </g>
   <g id="patch_17">
    <path d="M 68.175 246.2 
L 68.175 26.8 
" style="fill:none;stroke:#000000;stroke-linecap:square;stroke-linejoin:miter;stroke-width:0.8;"/>
   </g>
   <g id="PathCollection_7">
    <defs>
     <path d="M 0 2.5 
C 0.663008 2.5 1.29895 2.236584 1.767767 1.767767 
C 2.236584 1.29895 2.5 0.663008 2.5 -0 
C 2.5 -0.663008 2.236584 -1.29895 1.767767 -1.767767 
C 1.29895 -2.236584 0.663008 -2.5 0 -2.5 
C -0.663008 -2.5 -1.29895 -2.236584 -1.767767 -1.767767 
C -2.236584 -1.29895 -2.5 -0.663008 -2.5 0 
C -2.5 0.663008 -2.236584 1.29895 -1.767767 1.767767 
C -1.29895 2.236584 -0.663008 2.5 0 2.5 
z
" id="C0_0_f33afc5890"/>
    </defs>
    <g clip-path="url(#pd443ee988f)">
     <use style="fill:#539ecd;" x="108.027143" xlink:href="#C0_0_f33afc5890" y="34.657365"/>
    </g>
    <g clip-path="url(#pd443ee988f)">
     <use style="fill:#0b559f;" x="113.004875" xlink:href="#C0_0_f33afc5890" y="34.41569"/>
    </g>
    <g clip-path="url(#pd443ee988f)">
     <use style="fill:#2b7bba;" x="99.329525" xlink:href="#C0_0_f33afc5890" y="33.962308"/>
    </g>
    <g clip-path="url(#pd443ee988f)">
     <use style="fill:#bad6eb;" x="143.035587" xlink:href="#C0_0_f33afc5890" y="35.224423"/>
    </g>
    <g clip-path="url(#pd443ee988f)">
     <use style="fill:#bad6eb;" x="137.26978" xlink:href="#C0_0_f33afc5890" y="34.076836"/>
    </g>
    <g clip-path="url(#pd443ee988f)">
     <use style="fill:#dbe9f6;" x="236.148031" xlink:href="#C0_0_f33afc5890" y="33.678803"/>
    </g>
    <g clip-path="url(#pd443ee988f)">
     <use style="fill:#0b559f;" x="165.635695" xlink:href="#C0_0_f33afc5890" y="35.243121"/>
    </g>
    <g clip-path="url(#pd443ee988f)">
     <use style="fill:#dbe9f6;" x="165.564403" xlink:href="#C0_0_f33afc5890" y="35.45713"/>
    </g>
    <g clip-path="url(#pd443ee988f)">
     <use style="fill:#89bedc;" x="162.779659" xlink:href="#C0_0_f33afc5890" y="36.761099"/>
    </g>
    <g clip-path="url(#pd443ee988f)">
     <use style="fill:#539ecd;" x="79.699318" xlink:href="#C0_0_f33afc5890" y="33.785143"/>
    </g>
    <g clip-path="url(#pd443ee988f)">
     <use style="fill:#89bedc;" x="151.72987" xlink:href="#C0_0_f33afc5890" y="36.796872"/>
    </g>
    <g clip-path="url(#pd443ee988f)">
     <use style="fill:#2b7bba;" x="140.375776" xlink:href="#C0_0_f33afc5890" y="33.716182"/>
    </g>
   </g>
   <g id="PathCollection_8">
    <defs>
     <path d="M 0 2.5 
C 0.663008 2.5 1.29895 2.236584 1.767767 1.767767 
C 2.236584 1.29895 2.5 0.663008 2.5 -0 
C 2.5 -0.663008 2.236584 -1.29895 1.767767 -1.767767 
C 1.29895 -2.236584 0.663008 -2.5 0 -2.5 
C -0.663008 -2.5 -1.29895 -2.236584 -1.767767 -1.767767 
C -2.236584 -1.29895 -2.5 -0.663008 -2.5 0 
C -2.5 0.663008 -2.236584 1.29895 -1.767767 1.767767 
C -1.29895 2.236584 -0.663008 2.5 0 2.5 
z
" id="C1_0_4d38610cd7"/>
    </defs>
    <g clip-path="url(#pd443ee988f)">
     <use style="fill:#2b7bba;" x="177.319572" xlink:href="#C1_0_4d38610cd7" y="51.147784"/>
    </g>
    <g clip-path="url(#pd443ee988f)">
     <use style="fill:#539ecd;" x="192.319824" xlink:href="#C1_0_4d38610cd7" y="50.5884"/>
    </g>
    <g clip-path="url(#pd443ee988f)">
     <use style="fill:#bad6eb;" x="174.215636" xlink:href="#C1_0_4d38610cd7" y="52.852"/>
    </g>
    <g clip-path="url(#pd443ee988f)">
     <use style="fill:#2b7bba;" x="177.929961" xlink:href="#C1_0_4d38610cd7" y="51.295404"/>
    </g>
    <g clip-path="url(#pd443ee988f)">
     <use style="fill:#0b559f;" x="215.027043" xlink:href="#C1_0_4d38610cd7" y="51.263345"/>
    </g>
    <g clip-path="url(#pd443ee988f)">
     <use style="fill:#539ecd;" x="173.567441" xlink:href="#C1_0_4d38610cd7" y="53.36963"/>
    </g>
    <g clip-path="url(#pd443ee988f)">
     <use style="fill:#dbe9f6;" x="186.518865" xlink:href="#C1_0_4d38610cd7" y="52.361214"/>
    </g>
    <g clip-path="url(#pd443ee988f)">
     <use style="fill:#dbe9f6;" x="215.431276" xlink:href="#C1_0_4d38610cd7" y="50.508932"/>
    </g>
    <g clip-path="url(#pd443ee988f)">
     <use style="fill:#bad6eb;" x="196.82227" xlink:href="#C1_0_4d38610cd7" y="51.579518"/>
    </g>
    <g clip-path="url(#pd443ee988f)">
     <use style="fill:#0b559f;" x="186.9813" xlink:href="#C1_0_4d38610cd7" y="51.721964"/>
    </g>
    <g clip-path="url(#pd443ee988f)">
     <use style="fill:#89bedc;" x="209.658449" xlink:href="#C1_0_4d38610cd7" y="53.166977"/>
    </g>
    <g clip-path="url(#pd443ee988f)">
     <use style="fill:#89bedc;" x="231.947986" xlink:href="#C1_0_4d38610cd7" y="50.643936"/>
    </g>
   </g>
   <g id="PathCollection_9">
    <defs>
     <path d="M 0 2.5 
C 0.663008 2.5 1.29895 2.236584 1.767767 1.767767 
C 2.236584 1.29895 2.5 0.663008 2.5 -0 
C 2.5 -0.663008 2.236584 -1.29895 1.767767 -1.767767 
C 1.29895 -2.236584 0.663008 -2.5 0 -2.5 
C -0.663008 -2.5 -1.29895 -2.236584 -1.767767 -1.767767 
C -2.236584 -1.29895 -2.5 -0.663008 -2.5 0 
C -2.5 0.663008 -2.236584 1.29895 -1.767767 1.767767 
C -1.29895 2.236584 -0.663008 2.5 0 2.5 
z
" id="C2_0_169d710a5f"/>
    </defs>
    <g clip-path="url(#pd443ee988f)">
     <use style="fill:#bad6eb;" x="221.920908" xlink:href="#C2_0_169d710a5f" y="69.661811"/>
    </g>
    <g clip-path="url(#pd443ee988f)">
     <use style="fill:#539ecd;" x="233.770355" xlink:href="#C2_0_169d710a5f" y="68.495711"/>
    </g>
    <g clip-path="url(#pd443ee988f)">
     <use style="fill:#0b559f;" x="198.894719" xlink:href="#C2_0_169d710a5f" y="69.698934"/>
    </g>
    <g clip-path="url(#pd443ee988f)">
     <use style="fill:#2b7bba;" x="206.142874" xlink:href="#C2_0_169d710a5f" y="67.519079"/>
    </g>
    <g clip-path="url(#pd443ee988f)">
     <use style="fill:#2b7bba;" x="202.229485" xlink:href="#C2_0_169d710a5f" y="68.764792"/>
    </g>
    <g clip-path="url(#pd443ee988f)">
     <use style="fill:#89bedc;" x="222.077622" xlink:href="#C2_0_169d710a5f" y="67.393378"/>
    </g>
    <g clip-path="url(#pd443ee988f)">
     <use style="fill:#bad6eb;" x="185.844741" xlink:href="#C2_0_169d710a5f" y="68.792718"/>
    </g>
    <g clip-path="url(#pd443ee988f)">
     <use style="fill:#dbe9f6;" x="236.51204" xlink:href="#C2_0_169d710a5f" y="69.571403"/>
    </g>
    <g clip-path="url(#pd443ee988f)">
     <use style="fill:#0b559f;" x="238.898964" xlink:href="#C2_0_169d710a5f" y="70.601146"/>
    </g>
    <g clip-path="url(#pd443ee988f)">
     <use style="fill:#dbe9f6;" x="240.788361" xlink:href="#C2_0_169d710a5f" y="70.65088"/>
    </g>
    <g clip-path="url(#pd443ee988f)">
     <use style="fill:#89bedc;" x="204.226271" xlink:href="#C2_0_169d710a5f" y="68.83489"/>
    </g>
    <g clip-path="url(#pd443ee988f)">
     <use style="fill:#539ecd;" x="203.283664" xlink:href="#C2_0_169d710a5f" y="69.434394"/>
    </g>
   </g>
   <g id="PathCollection_10">
    <defs>
     <path d="M 0 2.5 
C 0.663008 2.5 1.29895 2.236584 1.767767 1.767767 
C 2.236584 1.29895 2.5 0.663008 2.5 -0 
C 2.5 -0.663008 2.236584 -1.29895 1.767767 -1.767767 
C 1.29895 -2.236584 0.663008 -2.5 0 -2.5 
C -0.663008 -2.5 -1.29895 -2.236584 -1.767767 -1.767767 
C -2.236584 -1.29895 -2.5 -0.663008 -2.5 0 
C -2.5 0.663008 -2.236584 1.29895 -1.767767 1.767767 
C -1.29895 2.236584 -0.663008 2.5 0 2.5 
z
" id="C3_0_49662e7852"/>
    </defs>
    <g clip-path="url(#pd443ee988f)">
     <use style="fill:#539ecd;" x="229.405037" xlink:href="#C3_0_49662e7852" y="85.59717"/>
    </g>
    <g clip-path="url(#pd443ee988f)">
     <use style="fill:#89bedc;" x="212.92956" xlink:href="#C3_0_49662e7852" y="86.304782"/>
    </g>
    <g clip-path="url(#pd443ee988f)">
     <use style="fill:#0b559f;" x="244.355282" xlink:href="#C3_0_49662e7852" y="84.680158"/>
    </g>
    <g clip-path="url(#pd443ee988f)">
     <use style="fill:#bad6eb;" x="224.14836" xlink:href="#C3_0_49662e7852" y="86.727484"/>
    </g>
    <g clip-path="url(#pd443ee988f)">
     <use style="fill:#2b7bba;" x="226.053982" xlink:href="#C3_0_49662e7852" y="84.338407"/>
    </g>
    <g clip-path="url(#pd443ee988f)">
     <use style="fill:#dbe9f6;" x="227.480466" xlink:href="#C3_0_49662e7852" y="84.52864"/>
    </g>
    <g clip-path="url(#pd443ee988f)">
     <use style="fill:#89bedc;" x="211.304001" xlink:href="#C3_0_49662e7852" y="84.277315"/>
    </g>
    <g clip-path="url(#pd443ee988f)">
     <use style="fill:#bad6eb;" x="202.488396" xlink:href="#C3_0_49662e7852" y="84.638073"/>
    </g>
    <g clip-path="url(#pd443ee988f)">
     <use style="fill:#0b559f;" x="222.984579" xlink:href="#C3_0_49662e7852" y="86.677686"/>
    </g>
    <g clip-path="url(#pd443ee988f)">
     <use style="fill:#dbe9f6;" x="235.175956" xlink:href="#C3_0_49662e7852" y="84.270809"/>
    </g>
    <g clip-path="url(#pd443ee988f)">
     <use style="fill:#539ecd;" x="210.424081" xlink:href="#C3_0_49662e7852" y="86.014551"/>
    </g>
    <g clip-path="url(#pd443ee988f)">
     <use style="fill:#2b7bba;" x="215.488308" xlink:href="#C3_0_49662e7852" y="84.428541"/>
    </g>
   </g>
   <g id="PathCollection_11">
    <defs>
     <path d="M 0 2.5 
C 0.663008 2.5 1.29895 2.236584 1.767767 1.767767 
C 2.236584 1.29895 2.5 0.663008 2.5 -0 
C 2.5 -0.663008 2.236584 -1.29895 1.767767 -1.767767 
C 1.29895 -2.236584 0.663008 -2.5 0 -2.5 
C -0.663008 -2.5 -1.29895 -2.236584 -1.767767 -1.767767 
C -2.236584 -1.29895 -2.5 -0.663008 -2.5 0 
C -2.5 0.663008 -2.236584 1.29895 -1.767767 1.767767 
C -1.29895 2.236584 -0.663008 2.5 0 2.5 
z
" id="C4_0_591a403e14"/>
    </defs>
    <g clip-path="url(#pd443ee988f)">
     <use style="fill:#2b7bba;" x="220.642136" xlink:href="#C4_0_591a403e14" y="102.346938"/>
    </g>
    <g clip-path="url(#pd443ee988f)">
     <use style="fill:#89bedc;" x="225.28498" xlink:href="#C4_0_591a403e14" y="103.293768"/>
    </g>
    <g clip-path="url(#pd443ee988f)">
     <use style="fill:#89bedc;" x="254.290317" xlink:href="#C4_0_591a403e14" y="101.727373"/>
    </g>
    <g clip-path="url(#pd443ee988f)">
     <use style="fill:#539ecd;" x="251.365923" xlink:href="#C4_0_591a403e14" y="102.291057"/>
    </g>
    <g clip-path="url(#pd443ee988f)">
     <use style="fill:#0b559f;" x="243.246855" xlink:href="#C4_0_591a403e14" y="103.046387"/>
    </g>
    <g clip-path="url(#pd443ee988f)">
     <use style="fill:#dbe9f6;" x="259.348031" xlink:href="#C4_0_591a403e14" y="103.5424"/>
    </g>
    <g clip-path="url(#pd443ee988f)">
     <use style="fill:#539ecd;" x="241.001665" xlink:href="#C4_0_591a403e14" y="104.173161"/>
    </g>
    <g clip-path="url(#pd443ee988f)">
     <use style="fill:#2b7bba;" x="223.440393" xlink:href="#C4_0_591a403e14" y="102.424741"/>
    </g>
    <g clip-path="url(#pd443ee988f)">
     <use style="fill:#bad6eb;" x="230.749159" xlink:href="#C4_0_591a403e14" y="101.742251"/>
    </g>
    <g clip-path="url(#pd443ee988f)">
     <use style="fill:#dbe9f6;" x="241.637462" xlink:href="#C4_0_591a403e14" y="103.82431"/>
    </g>
    <g clip-path="url(#pd443ee988f)">
     <use style="fill:#0b559f;" x="250.668598" xlink:href="#C4_0_591a403e14" y="104.412816"/>
    </g>
    <g clip-path="url(#pd443ee988f)">
     <use style="fill:#bad6eb;" x="226.562074" xlink:href="#C4_0_591a403e14" y="102.193214"/>
    </g>
   </g>
   <g id="PathCollection_12">
    <defs>
     <path d="M 0 2.5 
C 0.663008 2.5 1.29895 2.236584 1.767767 1.767767 
C 2.236584 1.29895 2.5 0.663008 2.5 -0 
C 2.5 -0.663008 2.236584 -1.29895 1.767767 -1.767767 
C 1.29895 -2.236584 0.663008 -2.5 0 -2.5 
C -0.663008 -2.5 -1.29895 -2.236584 -1.767767 -1.767767 
C -2.236584 -1.29895 -2.5 -0.663008 -2.5 0 
C -2.5 0.663008 -2.236584 1.29895 -1.767767 1.767767 
C -1.29895 2.236584 -0.663008 2.5 0 2.5 
z
" id="C5_0_1b41fcb872"/>
    </defs>
    <g clip-path="url(#pd443ee988f)">
     <use style="fill:#bad6eb;" x="219.786415" xlink:href="#C5_0_1b41fcb872" y="120.817069"/>
    </g>
    <g clip-path="url(#pd443ee988f)">
     <use style="fill:#0b559f;" x="254.370538" xlink:href="#C5_0_1b41fcb872" y="120.708175"/>
    </g>
    <g clip-path="url(#pd443ee988f)">
     <use style="fill:#dbe9f6;" x="258.223732" xlink:href="#C5_0_1b41fcb872" y="118.092949"/>
    </g>
    <g clip-path="url(#pd443ee988f)">
     <use style="fill:#2b7bba;" x="231.215146" xlink:href="#C5_0_1b41fcb872" y="118.55441"/>
    </g>
    <g clip-path="url(#pd443ee988f)">
     <use style="fill:#89bedc;" x="232.562671" xlink:href="#C5_0_1b41fcb872" y="119.564517"/>
    </g>
    <g clip-path="url(#pd443ee988f)">
     <use style="fill:#539ecd;" x="255.047667" xlink:href="#C5_0_1b41fcb872" y="120.763801"/>
    </g>
    <g clip-path="url(#pd443ee988f)">
     <use style="fill:#539ecd;" x="218.983004" xlink:href="#C5_0_1b41fcb872" y="120.831257"/>
    </g>
    <g clip-path="url(#pd443ee988f)">
     <use style="fill:#89bedc;" x="249.429324" xlink:href="#C5_0_1b41fcb872" y="119.830073"/>
    </g>
    <g clip-path="url(#pd443ee988f)">
     <use style="fill:#2b7bba;" x="232.556908" xlink:href="#C5_0_1b41fcb872" y="119.082378"/>
    </g>
    <g clip-path="url(#pd443ee988f)">
     <use style="fill:#bad6eb;" x="246.070894" xlink:href="#C5_0_1b41fcb872" y="120.014449"/>
    </g>
    <g clip-path="url(#pd443ee988f)">
     <use style="fill:#0b559f;" x="254.466325" xlink:href="#C5_0_1b41fcb872" y="118.30319"/>
    </g>
   </g>
   <g id="PathCollection_13">
    <defs>
     <path d="M 0 2.5 
C 0.663008 2.5 1.29895 2.236584 1.767767 1.767767 
C 2.236584 1.29895 2.5 0.663008 2.5 -0 
C 2.5 -0.663008 2.236584 -1.29895 1.767767 -1.767767 
C 1.29895 -2.236584 0.663008 -2.5 0 -2.5 
C -0.663008 -2.5 -1.29895 -2.236584 -1.767767 -1.767767 
C -2.236584 -1.29895 -2.5 -0.663008 -2.5 0 
C -2.5 0.663008 -2.236584 1.29895 -1.767767 1.767767 
C -1.29895 2.236584 -0.663008 2.5 0 2.5 
z
" id="C6_0_bfc27d6518"/>
    </defs>
    <g clip-path="url(#pd443ee988f)">
     <use style="fill:#89bedc;" x="260.591468" xlink:href="#C6_0_bfc27d6518" y="137.433902"/>
    </g>
    <g clip-path="url(#pd443ee988f)">
     <use style="fill:#539ecd;" x="221.287244" xlink:href="#C6_0_bfc27d6518" y="137.853336"/>
    </g>
    <g clip-path="url(#pd443ee988f)">
     <use style="fill:#dbe9f6;" x="254.12439" xlink:href="#C6_0_bfc27d6518" y="136.864593"/>
    </g>
    <g clip-path="url(#pd443ee988f)">
     <use style="fill:#2b7bba;" x="255.350684" xlink:href="#C6_0_bfc27d6518" y="135.25479"/>
    </g>
    <g clip-path="url(#pd443ee988f)">
     <use style="fill:#bad6eb;" x="239.39393" xlink:href="#C6_0_bfc27d6518" y="136.019045"/>
    </g>
    <g clip-path="url(#pd443ee988f)">
     <use style="fill:#0b559f;" x="258.827771" xlink:href="#C6_0_bfc27d6518" y="136.415925"/>
    </g>
    <g clip-path="url(#pd443ee988f)">
     <use style="fill:#0b559f;" x="236.089265" xlink:href="#C6_0_bfc27d6518" y="136.376009"/>
    </g>
    <g clip-path="url(#pd443ee988f)">
     <use style="fill:#dbe9f6;" x="247.231339" xlink:href="#C6_0_bfc27d6518" y="135.98352"/>
    </g>
    <g clip-path="url(#pd443ee988f)">
     <use style="fill:#89bedc;" x="245.999354" xlink:href="#C6_0_bfc27d6518" y="137.990024"/>
    </g>
    <g clip-path="url(#pd443ee988f)">
     <use style="fill:#2b7bba;" x="242.032493" xlink:href="#C6_0_bfc27d6518" y="135.454056"/>
    </g>
    <g clip-path="url(#pd443ee988f)">
     <use style="fill:#539ecd;" x="242.416637" xlink:href="#C6_0_bfc27d6518" y="134.923575"/>
    </g>
    <g clip-path="url(#pd443ee988f)">
     <use style="fill:#bad6eb;" x="223.694466" xlink:href="#C6_0_bfc27d6518" y="135.413318"/>
    </g>
   </g>
   <g id="PathCollection_14">
    <defs>
     <path d="M 0 2.5 
C 0.663008 2.5 1.29895 2.236584 1.767767 1.767767 
C 2.236584 1.29895 2.5 0.663008 2.5 -0 
C 2.5 -0.663008 2.236584 -1.29895 1.767767 -1.767767 
C 1.29895 -2.236584 0.663008 -2.5 0 -2.5 
C -0.663008 -2.5 -1.29895 -2.236584 -1.767767 -1.767767 
C -2.236584 -1.29895 -2.5 -0.663008 -2.5 0 
C -2.5 0.663008 -2.236584 1.29895 -1.767767 1.767767 
C -1.29895 2.236584 -0.663008 2.5 0 2.5 
z
" id="C7_0_b4f67d04a4"/>
    </defs>
    <g clip-path="url(#pd443ee988f)">
     <use style="fill:#bad6eb;" x="256.720225" xlink:href="#C7_0_b4f67d04a4" y="152.655819"/>
    </g>
    <g clip-path="url(#pd443ee988f)">
     <use style="fill:#539ecd;" x="262.463159" xlink:href="#C7_0_b4f67d04a4" y="152.964321"/>
    </g>
    <g clip-path="url(#pd443ee988f)">
     <use style="fill:#0b559f;" x="239.807236" xlink:href="#C7_0_b4f67d04a4" y="152.003976"/>
    </g>
   </g>
   <g id="PathCollection_15">
    <defs>
     <path d="M 0 2.5 
C 0.663008 2.5 1.29895 2.236584 1.767767 1.767767 
C 2.236584 1.29895 2.5 0.663008 2.5 -0 
C 2.5 -0.663008 2.236584 -1.29895 1.767767 -1.767767 
C 1.29895 -2.236584 0.663008 -2.5 0 -2.5 
C -0.663008 -2.5 -1.29895 -2.236584 -1.767767 -1.767767 
C -2.236584 -1.29895 -2.5 -0.663008 -2.5 0 
C -2.5 0.663008 -2.236584 1.29895 -1.767767 1.767767 
C -1.29895 2.236584 -0.663008 2.5 0 2.5 
z
" id="C8_0_ec5ad04ba2"/>
    </defs>
    <g clip-path="url(#pd443ee988f)">
     <use style="fill:#89bedc;" x="248.787629" xlink:href="#C8_0_ec5ad04ba2" y="170.264466"/>
    </g>
    <g clip-path="url(#pd443ee988f)">
     <use style="fill:#2b7bba;" x="261.291648" xlink:href="#C8_0_ec5ad04ba2" y="170.214596"/>
    </g>
    <g clip-path="url(#pd443ee988f)">
     <use style="fill:#bad6eb;" x="243.189915" xlink:href="#C8_0_ec5ad04ba2" y="170.062686"/>
    </g>
    <g clip-path="url(#pd443ee988f)">
     <use style="fill:#89bedc;" x="264.31382" xlink:href="#C8_0_ec5ad04ba2" y="169.151141"/>
    </g>
    <g clip-path="url(#pd443ee988f)">
     <use style="fill:#2b7bba;" x="238.370718" xlink:href="#C8_0_ec5ad04ba2" y="169.744389"/>
    </g>
    <g clip-path="url(#pd443ee988f)">
     <use style="fill:#bad6eb;" x="258.293709" xlink:href="#C8_0_ec5ad04ba2" y="171.812511"/>
    </g>
    <g clip-path="url(#pd443ee988f)">
     <use style="fill:#539ecd;" x="241.673972" xlink:href="#C8_0_ec5ad04ba2" y="170.079628"/>
    </g>
    <g clip-path="url(#pd443ee988f)">
     <use style="fill:#0b559f;" x="250.717882" xlink:href="#C8_0_ec5ad04ba2" y="170.074502"/>
    </g>
    <g clip-path="url(#pd443ee988f)">
     <use style="fill:#0b559f;" x="257.572368" xlink:href="#C8_0_ec5ad04ba2" y="171.020601"/>
    </g>
    <g clip-path="url(#pd443ee988f)">
     <use style="fill:#dbe9f6;" x="261.954828" xlink:href="#C8_0_ec5ad04ba2" y="169.319477"/>
    </g>
    <g clip-path="url(#pd443ee988f)">
     <use style="fill:#dbe9f6;" x="260.452409" xlink:href="#C8_0_ec5ad04ba2" y="169.31934"/>
    </g>
    <g clip-path="url(#pd443ee988f)">
     <use style="fill:#539ecd;" x="250.017204" xlink:href="#C8_0_ec5ad04ba2" y="169.545549"/>
    </g>
   </g>
   <g id="PathCollection_16">
    <defs>
     <path d="M 0 2.5 
C 0.663008 2.5 1.29895 2.236584 1.767767 1.767767 
C 2.236584 1.29895 2.5 0.663008 2.5 -0 
C 2.5 -0.663008 2.236584 -1.29895 1.767767 -1.767767 
C 1.29895 -2.236584 0.663008 -2.5 0 -2.5 
C -0.663008 -2.5 -1.29895 -2.236584 -1.767767 -1.767767 
C -2.236584 -1.29895 -2.5 -0.663008 -2.5 0 
C -2.5 0.663008 -2.236584 1.29895 -1.767767 1.767767 
C -1.29895 2.236584 -0.663008 2.5 0 2.5 
z
" id="C9_0_759deaafec"/>
    </defs>
    <g clip-path="url(#pd443ee988f)">
     <use style="fill:#2b7bba;" x="228.667574" xlink:href="#C9_0_759deaafec" y="188.585843"/>
    </g>
    <g clip-path="url(#pd443ee988f)">
     <use style="fill:#539ecd;" x="255.353522" xlink:href="#C9_0_759deaafec" y="186.96099"/>
    </g>
    <g clip-path="url(#pd443ee988f)">
     <use style="fill:#89bedc;" x="257.413729" xlink:href="#C9_0_759deaafec" y="188.100748"/>
    </g>
    <g clip-path="url(#pd443ee988f)">
     <use style="fill:#539ecd;" x="254.213391" xlink:href="#C9_0_759deaafec" y="186.053096"/>
    </g>
    <g clip-path="url(#pd443ee988f)">
     <use style="fill:#dbe9f6;" x="253.015041" xlink:href="#C9_0_759deaafec" y="188.011329"/>
    </g>
    <g clip-path="url(#pd443ee988f)">
     <use style="fill:#89bedc;" x="254.581188" xlink:href="#C9_0_759deaafec" y="188.184725"/>
    </g>
    <g clip-path="url(#pd443ee988f)">
     <use style="fill:#0b559f;" x="266.308571" xlink:href="#C9_0_759deaafec" y="187.464367"/>
    </g>
    <g clip-path="url(#pd443ee988f)">
     <use style="fill:#bad6eb;" x="226.579431" xlink:href="#C9_0_759deaafec" y="185.844286"/>
    </g>
    <g clip-path="url(#pd443ee988f)">
     <use style="fill:#0b559f;" x="278.233262" xlink:href="#C9_0_759deaafec" y="188.259952"/>
    </g>
    <g clip-path="url(#pd443ee988f)">
     <use style="fill:#dbe9f6;" x="288.546364" xlink:href="#C9_0_759deaafec" y="187.058513"/>
    </g>
    <g clip-path="url(#pd443ee988f)">
     <use style="fill:#bad6eb;" x="248.355374" xlink:href="#C9_0_759deaafec" y="188.136667"/>
    </g>
    <g clip-path="url(#pd443ee988f)">
     <use style="fill:#2b7bba;" x="259.162783" xlink:href="#C9_0_759deaafec" y="185.838626"/>
    </g>
   </g>
   <g id="PathCollection_17">
    <defs>
     <path d="M 0 2.5 
C 0.663008 2.5 1.29895 2.236584 1.767767 1.767767 
C 2.236584 1.29895 2.5 0.663008 2.5 -0 
C 2.5 -0.663008 2.236584 -1.29895 1.767767 -1.767767 
C 1.29895 -2.236584 0.663008 -2.5 0 -2.5 
C -0.663008 -2.5 -1.29895 -2.236584 -1.767767 -1.767767 
C -2.236584 -1.29895 -2.5 -0.663008 -2.5 0 
C -2.5 0.663008 -2.236584 1.29895 -1.767767 1.767767 
C -1.29895 2.236584 -0.663008 2.5 0 2.5 
z
" id="Ca_0_dee6b0fdf2"/>
    </defs>
    <g clip-path="url(#pd443ee988f)">
     <use style="fill:#bad6eb;" x="253.349021" xlink:href="#Ca_0_dee6b0fdf2" y="204.3995"/>
    </g>
    <g clip-path="url(#pd443ee988f)">
     <use style="fill:#0b559f;" x="268.592438" xlink:href="#Ca_0_dee6b0fdf2" y="204.85879"/>
    </g>
    <g clip-path="url(#pd443ee988f)">
     <use style="fill:#2b7bba;" x="268.914987" xlink:href="#Ca_0_dee6b0fdf2" y="202.854207"/>
    </g>
    <g clip-path="url(#pd443ee988f)">
     <use style="fill:#89bedc;" x="272.587379" xlink:href="#Ca_0_dee6b0fdf2" y="203.161803"/>
    </g>
    <g clip-path="url(#pd443ee988f)">
     <use style="fill:#dbe9f6;" x="271.088523" xlink:href="#Ca_0_dee6b0fdf2" y="203.291386"/>
    </g>
    <g clip-path="url(#pd443ee988f)">
     <use style="fill:#539ecd;" x="269.702818" xlink:href="#Ca_0_dee6b0fdf2" y="203.739067"/>
    </g>
    <g clip-path="url(#pd443ee988f)">
     <use style="fill:#2b7bba;" x="282.561562" xlink:href="#Ca_0_dee6b0fdf2" y="204.458803"/>
    </g>
    <g clip-path="url(#pd443ee988f)">
     <use style="fill:#dbe9f6;" x="245.031008" xlink:href="#Ca_0_dee6b0fdf2" y="203.107327"/>
    </g>
    <g clip-path="url(#pd443ee988f)">
     <use style="fill:#539ecd;" x="298.1083" xlink:href="#Ca_0_dee6b0fdf2" y="204.944915"/>
    </g>
    <g clip-path="url(#pd443ee988f)">
     <use style="fill:#bad6eb;" x="284.705489" xlink:href="#Ca_0_dee6b0fdf2" y="204.749566"/>
    </g>
    <g clip-path="url(#pd443ee988f)">
     <use style="fill:#0b559f;" x="267.82102" xlink:href="#Ca_0_dee6b0fdf2" y="204.820475"/>
    </g>
   </g>
   <g id="PathCollection_18">
    <defs>
     <path d="M 0 2.5 
C 0.663008 2.5 1.29895 2.236584 1.767767 1.767767 
C 2.236584 1.29895 2.5 0.663008 2.5 -0 
C 2.5 -0.663008 2.236584 -1.29895 1.767767 -1.767767 
C 1.29895 -2.236584 0.663008 -2.5 0 -2.5 
C -0.663008 -2.5 -1.29895 -2.236584 -1.767767 -1.767767 
C -2.236584 -1.29895 -2.5 -0.663008 -2.5 0 
C -2.5 0.663008 -2.236584 1.29895 -1.767767 1.767767 
C -1.29895 2.236584 -0.663008 2.5 0 2.5 
z
" id="Cb_0_92ff5e7ac3"/>
    </defs>
    <g clip-path="url(#pd443ee988f)">
     <use style="fill:#539ecd;" x="275.817072" xlink:href="#Cb_0_92ff5e7ac3" y="221.019135"/>
    </g>
    <g clip-path="url(#pd443ee988f)">
     <use style="fill:#dbe9f6;" x="278.093328" xlink:href="#Cb_0_92ff5e7ac3" y="222.305972"/>
    </g>
    <g clip-path="url(#pd443ee988f)">
     <use style="fill:#2b7bba;" x="264.360524" xlink:href="#Cb_0_92ff5e7ac3" y="222.488383"/>
    </g>
    <g clip-path="url(#pd443ee988f)">
     <use style="fill:#dbe9f6;" x="259.158806" xlink:href="#Cb_0_92ff5e7ac3" y="219.756801"/>
    </g>
    <g clip-path="url(#pd443ee988f)">
     <use style="fill:#539ecd;" x="295.977477" xlink:href="#Cb_0_92ff5e7ac3" y="220.037946"/>
    </g>
    <g clip-path="url(#pd443ee988f)">
     <use style="fill:#bad6eb;" x="279.043233" xlink:href="#Cb_0_92ff5e7ac3" y="221.382042"/>
    </g>
    <g clip-path="url(#pd443ee988f)">
     <use style="fill:#89bedc;" x="259.583403" xlink:href="#Cb_0_92ff5e7ac3" y="220.131318"/>
    </g>
   </g>
   <g id="PathCollection_19">
    <defs>
     <path d="M 0 2.5 
C 0.663008 2.5 1.29895 2.236584 1.767767 1.767767 
C 2.236584 1.29895 2.5 0.663008 2.5 -0 
C 2.5 -0.663008 2.236584 -1.29895 1.767767 -1.767767 
C 1.29895 -2.236584 0.663008 -2.5 0 -2.5 
C -0.663008 -2.5 -1.29895 -2.236584 -1.767767 -1.767767 
C -2.236584 -1.29895 -2.5 -0.663008 -2.5 0 
C -2.5 0.663008 -2.236584 1.29895 -1.767767 1.767767 
C -1.29895 2.236584 -0.663008 2.5 0 2.5 
z
" id="Cc_0_4043c66590"/>
    </defs>
    <g clip-path="url(#pd443ee988f)">
     <use style="fill:#dbe9f6;" x="309.956463" xlink:href="#Cc_0_4043c66590" y="238.765887"/>
    </g>
    <g clip-path="url(#pd443ee988f)">
     <use style="fill:#bad6eb;" x="296.756979" xlink:href="#Cc_0_4043c66590" y="237.839161"/>
    </g>
    <g clip-path="url(#pd443ee988f)">
     <use style="fill:#0b559f;" x="282.621919" xlink:href="#Cc_0_4043c66590" y="236.989133"/>
    </g>
    <g clip-path="url(#pd443ee988f)">
     <use style="fill:#539ecd;" x="294.600018" xlink:href="#Cc_0_4043c66590" y="236.121714"/>
    </g>
    <g clip-path="url(#pd443ee988f)">
     <use style="fill:#0b559f;" x="299.107872" xlink:href="#Cc_0_4043c66590" y="238.116227"/>
    </g>
    <g clip-path="url(#pd443ee988f)">
     <use style="fill:#89bedc;" x="294.33213" xlink:href="#Cc_0_4043c66590" y="236.96122"/>
    </g>
    <g clip-path="url(#pd443ee988f)">
     <use style="fill:#2b7bba;" x="304.869627" xlink:href="#Cc_0_4043c66590" y="236.168563"/>
    </g>
    <g clip-path="url(#pd443ee988f)">
     <use style="fill:#539ecd;" x="292.161956" xlink:href="#Cc_0_4043c66590" y="236.924761"/>
    </g>
    <g clip-path="url(#pd443ee988f)">
     <use style="fill:#89bedc;" x="301.170259" xlink:href="#Cc_0_4043c66590" y="239.371352"/>
    </g>
    <g clip-path="url(#pd443ee988f)">
     <use style="fill:#2b7bba;" x="264.220352" xlink:href="#Cc_0_4043c66590" y="237.946407"/>
    </g>
    <g clip-path="url(#pd443ee988f)">
     <use style="fill:#bad6eb;" x="301.641694" xlink:href="#Cc_0_4043c66590" y="239.421815"/>
    </g>
    <g clip-path="url(#pd443ee988f)">
     <use style="fill:#dbe9f6;" x="310.185682" xlink:href="#Cc_0_4043c66590" y="237.756711"/>
    </g>
   </g>
   <g id="text_19">
    <!-- Dscaml1 -->
    <g transform="translate(168.892188 20.8)scale(0.12 -0.12)">
     <defs>
      <path d="M 19.671875 64.796875 
L 19.671875 8.109375 
L 31.59375 8.109375 
Q 46.6875 8.109375 53.6875 14.9375 
Q 60.6875 21.78125 60.6875 36.53125 
Q 60.6875 51.171875 53.6875 57.984375 
Q 46.6875 64.796875 31.59375 64.796875 
z
M 9.8125 72.90625 
L 30.078125 72.90625 
Q 51.265625 72.90625 61.171875 64.09375 
Q 71.09375 55.28125 71.09375 36.53125 
Q 71.09375 17.671875 61.125 8.828125 
Q 51.171875 0 30.078125 0 
L 9.8125 0 
z
" id="DejaVuSans-68"/>
     </defs>
     <use xlink:href="#DejaVuSans-68"/>
     <use x="77.001953" xlink:href="#DejaVuSans-115"/>
     <use x="129.101562" xlink:href="#DejaVuSans-99"/>
     <use x="184.082031" xlink:href="#DejaVuSans-97"/>
     <use x="245.361328" xlink:href="#DejaVuSans-109"/>
     <use x="342.773438" xlink:href="#DejaVuSans-108"/>
     <use x="370.556641" xlink:href="#DejaVuSans-49"/>
    </g>
   </g>
   <g id="legend_1">
    <g id="patch_18">
     <path d="M 336.38675 117.86875 
L 415.42425 117.86875 
Q 417.42425 117.86875 417.42425 115.86875 
L 417.42425 28.8 
Q 417.42425 26.8 415.42425 26.8 
L 336.38675 26.8 
Q 334.38675 26.8 334.38675 28.8 
L 334.38675 115.86875 
Q 334.38675 117.86875 336.38675 117.86875 
z
" style="fill:#ffffff;opacity:0.8;stroke:#cccccc;stroke-linejoin:miter;"/>
    </g>
    <g id="PathCollection_20">
     <defs>
      <path d="M 0 3.872983 
C 1.027127 3.872983 2.012324 3.464901 2.738613 2.738613 
C 3.464901 2.012324 3.872983 1.027127 3.872983 0 
C 3.872983 -1.027127 3.464901 -2.012324 2.738613 -2.738613 
C 2.012324 -3.464901 1.027127 -3.872983 0 -3.872983 
C -1.027127 -3.872983 -2.012324 -3.464901 -2.738613 -2.738613 
C -3.464901 -2.012324 -3.872983 -1.027127 -3.872983 0 
C -3.872983 1.027127 -3.464901 2.012324 -2.738613 2.738613 
C -2.012324 3.464901 -1.027127 3.872983 0 3.872983 
z
" id="m7601a59d04" style="stroke:#dbe9f6;"/>
     </defs>
     <g>
      <use style="fill:#dbe9f6;stroke:#dbe9f6;" x="348.38675" xlink:href="#m7601a59d04" y="35.773437"/>
     </g>
    </g>
    <g id="text_20">
     <!-- Sample 1 -->
     <g transform="translate(366.38675 38.398437)scale(0.1 -0.1)">
      <use xlink:href="#DejaVuSans-83"/>
      <use x="63.476562" xlink:href="#DejaVuSans-97"/>
      <use x="124.755859" xlink:href="#DejaVuSans-109"/>
      <use x="222.167969" xlink:href="#DejaVuSans-112"/>
      <use x="285.644531" xlink:href="#DejaVuSans-108"/>
      <use x="313.427734" xlink:href="#DejaVuSans-101"/>
      <use x="374.951172" xlink:href="#DejaVuSans-32"/>
      <use x="406.738281" xlink:href="#DejaVuSans-49"/>
     </g>
    </g>
    <g id="PathCollection_21">
     <defs>
      <path d="M 0 3.872983 
C 1.027127 3.872983 2.012324 3.464901 2.738613 2.738613 
C 3.464901 2.012324 3.872983 1.027127 3.872983 0 
C 3.872983 -1.027127 3.464901 -2.012324 2.738613 -2.738613 
C 2.012324 -3.464901 1.027127 -3.872983 0 -3.872983 
C -1.027127 -3.872983 -2.012324 -3.464901 -2.738613 -2.738613 
C -3.464901 -2.012324 -3.872983 -1.027127 -3.872983 0 
C -3.872983 1.027127 -3.464901 2.012324 -2.738613 2.738613 
C -2.012324 3.464901 -1.027127 3.872983 0 3.872983 
z
" id="m7108f7e105" style="stroke:#bad6eb;"/>
     </defs>
     <g>
      <use style="fill:#bad6eb;stroke:#bad6eb;" x="348.38675" xlink:href="#m7108f7e105" y="50.451562"/>
     </g>
    </g>
    <g id="text_21">
     <!-- Sample 2 -->
     <g transform="translate(366.38675 53.076562)scale(0.1 -0.1)">
      <use xlink:href="#DejaVuSans-83"/>
      <use x="63.476562" xlink:href="#DejaVuSans-97"/>
      <use x="124.755859" xlink:href="#DejaVuSans-109"/>
      <use x="222.167969" xlink:href="#DejaVuSans-112"/>
      <use x="285.644531" xlink:href="#DejaVuSans-108"/>
      <use x="313.427734" xlink:href="#DejaVuSans-101"/>
      <use x="374.951172" xlink:href="#DejaVuSans-32"/>
      <use x="406.738281" xlink:href="#DejaVuSans-50"/>
     </g>
    </g>
    <g id="PathCollection_22">
     <defs>
      <path d="M 0 3.872983 
C 1.027127 3.872983 2.012324 3.464901 2.738613 2.738613 
C 3.464901 2.012324 3.872983 1.027127 3.872983 0 
C 3.872983 -1.027127 3.464901 -2.012324 2.738613 -2.738613 
C 2.012324 -3.464901 1.027127 -3.872983 0 -3.872983 
C -1.027127 -3.872983 -2.012324 -3.464901 -2.738613 -2.738613 
C -3.464901 -2.012324 -3.872983 -1.027127 -3.872983 0 
C -3.872983 1.027127 -3.464901 2.012324 -2.738613 2.738613 
C -2.012324 3.464901 -1.027127 3.872983 0 3.872983 
z
" id="ma6d68266c8" style="stroke:#89bedc;"/>
     </defs>
     <g>
      <use style="fill:#89bedc;stroke:#89bedc;" x="348.38675" xlink:href="#ma6d68266c8" y="65.129687"/>
     </g>
    </g>
    <g id="text_22">
     <!-- Sample 3 -->
     <g transform="translate(366.38675 67.754687)scale(0.1 -0.1)">
      <use xlink:href="#DejaVuSans-83"/>
      <use x="63.476562" xlink:href="#DejaVuSans-97"/>
      <use x="124.755859" xlink:href="#DejaVuSans-109"/>
      <use x="222.167969" xlink:href="#DejaVuSans-112"/>
      <use x="285.644531" xlink:href="#DejaVuSans-108"/>
      <use x="313.427734" xlink:href="#DejaVuSans-101"/>
      <use x="374.951172" xlink:href="#DejaVuSans-32"/>
      <use x="406.738281" xlink:href="#DejaVuSans-51"/>
     </g>
    </g>
    <g id="PathCollection_23">
     <defs>
      <path d="M 0 3.872983 
C 1.027127 3.872983 2.012324 3.464901 2.738613 2.738613 
C 3.464901 2.012324 3.872983 1.027127 3.872983 0 
C 3.872983 -1.027127 3.464901 -2.012324 2.738613 -2.738613 
C 2.012324 -3.464901 1.027127 -3.872983 0 -3.872983 
C -1.027127 -3.872983 -2.012324 -3.464901 -2.738613 -2.738613 
C -3.464901 -2.012324 -3.872983 -1.027127 -3.872983 0 
C -3.872983 1.027127 -3.464901 2.012324 -2.738613 2.738613 
C -2.012324 3.464901 -1.027127 3.872983 0 3.872983 
z
" id="m74a8b96c8d" style="stroke:#539ecd;"/>
     </defs>
     <g>
      <use style="fill:#539ecd;stroke:#539ecd;" x="348.38675" xlink:href="#m74a8b96c8d" y="79.807812"/>
     </g>
    </g>
    <g id="text_23">
     <!-- Sample 4 -->
     <g transform="translate(366.38675 82.432812)scale(0.1 -0.1)">
      <defs>
       <path d="M 37.796875 64.3125 
L 12.890625 25.390625 
L 37.796875 25.390625 
z
M 35.203125 72.90625 
L 47.609375 72.90625 
L 47.609375 25.390625 
L 58.015625 25.390625 
L 58.015625 17.1875 
L 47.609375 17.1875 
L 47.609375 0 
L 37.796875 0 
L 37.796875 17.1875 
L 4.890625 17.1875 
L 4.890625 26.703125 
z
" id="DejaVuSans-52"/>
      </defs>
      <use xlink:href="#DejaVuSans-83"/>
      <use x="63.476562" xlink:href="#DejaVuSans-97"/>
      <use x="124.755859" xlink:href="#DejaVuSans-109"/>
      <use x="222.167969" xlink:href="#DejaVuSans-112"/>
      <use x="285.644531" xlink:href="#DejaVuSans-108"/>
      <use x="313.427734" xlink:href="#DejaVuSans-101"/>
      <use x="374.951172" xlink:href="#DejaVuSans-32"/>
      <use x="406.738281" xlink:href="#DejaVuSans-52"/>
     </g>
    </g>
    <g id="PathCollection_24">
     <defs>
      <path d="M 0 3.872983 
C 1.027127 3.872983 2.012324 3.464901 2.738613 2.738613 
C 3.464901 2.012324 3.872983 1.027127 3.872983 0 
C 3.872983 -1.027127 3.464901 -2.012324 2.738613 -2.738613 
C 2.012324 -3.464901 1.027127 -3.872983 0 -3.872983 
C -1.027127 -3.872983 -2.012324 -3.464901 -2.738613 -2.738613 
C -3.464901 -2.012324 -3.872983 -1.027127 -3.872983 0 
C -3.872983 1.027127 -3.464901 2.012324 -2.738613 2.738613 
C -2.012324 3.464901 -1.027127 3.872983 0 3.872983 
z
" id="m90ea18a952" style="stroke:#2b7bba;"/>
     </defs>
     <g>
      <use style="fill:#2b7bba;stroke:#2b7bba;" x="348.38675" xlink:href="#m90ea18a952" y="94.485937"/>
     </g>
    </g>
    <g id="text_24">
     <!-- Sample 5 -->
     <g transform="translate(366.38675 97.110937)scale(0.1 -0.1)">
      <use xlink:href="#DejaVuSans-83"/>
      <use x="63.476562" xlink:href="#DejaVuSans-97"/>
      <use x="124.755859" xlink:href="#DejaVuSans-109"/>
      <use x="222.167969" xlink:href="#DejaVuSans-112"/>
      <use x="285.644531" xlink:href="#DejaVuSans-108"/>
      <use x="313.427734" xlink:href="#DejaVuSans-101"/>
      <use x="374.951172" xlink:href="#DejaVuSans-32"/>
      <use x="406.738281" xlink:href="#DejaVuSans-53"/>
     </g>
    </g>
    <g id="PathCollection_25">
     <defs>
      <path d="M 0 3.872983 
C 1.027127 3.872983 2.012324 3.464901 2.738613 2.738613 
C 3.464901 2.012324 3.872983 1.027127 3.872983 0 
C 3.872983 -1.027127 3.464901 -2.012324 2.738613 -2.738613 
C 2.012324 -3.464901 1.027127 -3.872983 0 -3.872983 
C -1.027127 -3.872983 -2.012324 -3.464901 -2.738613 -2.738613 
C -3.464901 -2.012324 -3.872983 -1.027127 -3.872983 0 
C -3.872983 1.027127 -3.464901 2.012324 -2.738613 2.738613 
C -2.012324 3.464901 -1.027127 3.872983 0 3.872983 
z
" id="m160921b12c" style="stroke:#0b559f;"/>
     </defs>
     <g>
      <use style="fill:#0b559f;stroke:#0b559f;" x="348.38675" xlink:href="#m160921b12c" y="109.164062"/>
     </g>
    </g>
    <g id="text_25">
     <!-- Sample 6 -->
     <g transform="translate(366.38675 111.789062)scale(0.1 -0.1)">
      <use xlink:href="#DejaVuSans-83"/>
      <use x="63.476562" xlink:href="#DejaVuSans-97"/>
      <use x="124.755859" xlink:href="#DejaVuSans-109"/>
      <use x="222.167969" xlink:href="#DejaVuSans-112"/>
      <use x="285.644531" xlink:href="#DejaVuSans-108"/>
      <use x="313.427734" xlink:href="#DejaVuSans-101"/>
      <use x="374.951172" xlink:href="#DejaVuSans-32"/>
      <use x="406.738281" xlink:href="#DejaVuSans-54"/>
     </g>
    </g>
   </g>
   <g id="line2d_2"/>
   <g id="line2d_3"/>
   <g id="line2d_4"/>
   <g id="line2d_5"/>
   <g id="line2d_6"/>
   <g id="line2d_7"/>
   <g id="line2d_8"/>
   <g id="line2d_9"/>
   <g id="line2d_10"/>
   <g id="line2d_11"/>
   <g id="line2d_12"/>
   <g id="line2d_13"/>
   <g id="line2d_14"/>
   <g id="line2d_15">
    <path clip-path="url(#pd443ee988f)" d="M 141.705681 32.706923 
L 141.705681 37.77 
" style="fill:none;stroke:#8b8b8b;stroke-linecap:square;stroke-width:1.5;"/>
   </g>
   <g id="line2d_16">
    <path clip-path="url(#pd443ee988f)" d="M 189.650562 49.583846 
L 189.650562 54.646923 
" style="fill:none;stroke:#8b8b8b;stroke-linecap:square;stroke-width:1.5;"/>
   </g>
   <g id="line2d_17">
    <path clip-path="url(#pd443ee988f)" d="M 214.031891 66.460769 
L 214.031891 71.523846 
" style="fill:none;stroke:#8b8b8b;stroke-linecap:square;stroke-width:1.5;"/>
   </g>
   <g id="line2d_18">
    <path clip-path="url(#pd443ee988f)" d="M 223.56647 83.337692 
L 223.56647 88.400769 
" style="fill:none;stroke:#8b8b8b;stroke-linecap:square;stroke-width:1.5;"/>
   </g>
   <g id="line2d_19">
    <path clip-path="url(#pd443ee988f)" d="M 241.319563 100.214615 
L 241.319563 105.277692 
" style="fill:none;stroke:#8b8b8b;stroke-linecap:square;stroke-width:1.5;"/>
   </g>
   <g id="line2d_20">
    <path clip-path="url(#pd443ee988f)" d="M 246.070894 117.091538 
L 246.070894 122.154615 
" style="fill:none;stroke:#8b8b8b;stroke-linecap:square;stroke-width:1.5;"/>
   </g>
   <g id="line2d_21">
    <path clip-path="url(#pd443ee988f)" d="M 244.207996 133.968462 
L 244.207996 139.031538 
" style="fill:none;stroke:#8b8b8b;stroke-linecap:square;stroke-width:1.5;"/>
   </g>
   <g id="line2d_22">
    <path clip-path="url(#pd443ee988f)" d="M 256.720225 150.845385 
L 256.720225 155.908462 
" style="fill:none;stroke:#8b8b8b;stroke-linecap:square;stroke-width:1.5;"/>
   </g>
   <g id="line2d_23">
    <path clip-path="url(#pd443ee988f)" d="M 254.145125 167.722308 
L 254.145125 172.785385 
" style="fill:none;stroke:#8b8b8b;stroke-linecap:square;stroke-width:1.5;"/>
   </g>
   <g id="line2d_24">
    <path clip-path="url(#pd443ee988f)" d="M 254.967355 184.599231 
L 254.967355 189.662308 
" style="fill:none;stroke:#8b8b8b;stroke-linecap:square;stroke-width:1.5;"/>
   </g>
   <g id="line2d_25">
    <path clip-path="url(#pd443ee988f)" d="M 269.702818 201.476154 
L 269.702818 206.539231 
" style="fill:none;stroke:#8b8b8b;stroke-linecap:square;stroke-width:1.5;"/>
   </g>
   <g id="line2d_26">
    <path clip-path="url(#pd443ee988f)" d="M 275.817072 218.353077 
L 275.817072 223.416154 
" style="fill:none;stroke:#8b8b8b;stroke-linecap:square;stroke-width:1.5;"/>
   </g>
   <g id="line2d_27">
    <path clip-path="url(#pd443ee988f)" d="M 297.932426 235.23 
L 297.932426 240.293077 
" style="fill:none;stroke:#8b8b8b;stroke-linecap:square;stroke-width:1.5;"/>
   </g>
  </g>
 </g>
 <defs>
  <clipPath id="pd443ee988f">
   <rect height="219.4" width="253.535" x="68.175" y="26.8"/>
  </clipPath>
 </defs>
</svg>
