<?xml version="1.0" encoding="utf-8" standalone="no"?>
<!DOCTYPE svg PUBLIC "-//W3C//DTD SVG 1.1//EN"
  "http://www.w3.org/Graphics/SVG/1.1/DTD/svg11.dtd">
<!-- Created with matplotlib (https://matplotlib.org/) -->
<svg height="288pt" version="1.1" viewBox="0 0 432 288" width="432pt" xmlns="http://www.w3.org/2000/svg" xmlns:xlink="http://www.w3.org/1999/xlink">
 <metadata>
  <rdf:RDF xmlns:cc="http://creativecommons.org/ns#" xmlns:dc="http://purl.org/dc/elements/1.1/" xmlns:rdf="http://www.w3.org/1999/02/22-rdf-syntax-ns#">
   <cc:Work>
    <dc:type rdf:resource="http://purl.org/dc/dcmitype/StillImage"/>
    <dc:date>2022-03-09T10:45:21.853361</dc:date>
    <dc:format>image/svg+xml</dc:format>
    <dc:creator>
     <cc:Agent>
      <dc:title>Matplotlib v3.3.3, https://matplotlib.org/</dc:title>
     </cc:Agent>
    </dc:creator>
   </cc:Work>
  </rdf:RDF>
 </metadata>
 <defs>
  <style type="text/css">*{stroke-linecap:butt;stroke-linejoin:round;}</style>
 </defs>
 <g id="figure_1">
  <g id="patch_1">
   <path d="M 0 288 
L 432 288 
L 432 0 
L 0 0 
z
" style="fill:none;"/>
  </g>
  <g id="axes_1">
   <g id="patch_2">
    <path d="M 54 252 
L 388.8 252 
L 388.8 34.56 
L 54 34.56 
z
" style="fill:#ffffff;"/>
   </g>
   <g id="PolyCollection_1">
    <defs>
     <path d="M 109.8 -53.040863 
L 109.799084 -53.040863 
L 109.788534 -54.924045 
L 109.743738 -56.807227 
L 109.651085 -58.690409 
L 109.517685 -60.573591 
L 109.366991 -62.456773 
L 109.19407 -64.339954 
L 108.993366 -66.223136 
L 108.742524 -68.106318 
L 108.449936 -69.9895 
L 108.120998 -71.872682 
L 107.775547 -73.755864 
L 107.428157 -75.639046 
L 107.021848 -77.522228 
L 106.533874 -79.405409 
L 105.96895 -81.288591 
L 105.388545 -83.171773 
L 104.796288 -85.054955 
L 104.16927 -86.938137 
L 103.489661 -88.821319 
L 102.731024 -90.704501 
L 101.87878 -92.587683 
L 100.985006 -94.470864 
L 100.060071 -96.354046 
L 99.078189 -98.237228 
L 98.059924 -100.12041 
L 97.046823 -102.003592 
L 95.972182 -103.886774 
L 94.744375 -105.769956 
L 93.361398 -107.653138 
L 92.002779 -109.536319 
L 90.700026 -111.419501 
L 89.309327 -113.302683 
L 87.875708 -115.185865 
L 86.399761 -117.069047 
L 84.850355 -118.952229 
L 83.195624 -120.835411 
L 81.494121 -122.718593 
L 79.871728 -124.601775 
L 78.328229 -126.484956 
L 76.744423 -128.368138 
L 75.146045 -130.25132 
L 73.529611 -132.134502 
L 71.890805 -134.017684 
L 70.344109 -135.900866 
L 69.06759 -137.784048 
L 68.07151 -139.66723 
L 67.056149 -141.550411 
L 66.081182 -143.433593 
L 65.403329 -145.316775 
L 65.166262 -147.199957 
L 65.16 -149.083139 
L 65.374945 -150.966321 
L 65.884188 -152.849503 
L 66.700057 -154.732685 
L 67.71596 -156.615866 
L 69.015056 -158.499048 
L 70.53065 -160.38223 
L 72.206876 -162.265412 
L 74.092515 -164.148594 
L 75.983065 -166.031776 
L 77.77379 -167.914958 
L 79.587164 -169.79814 
L 81.581203 -171.681321 
L 83.499745 -173.564503 
L 85.271638 -175.447685 
L 87.050321 -177.330867 
L 88.752165 -179.214049 
L 90.351902 -181.097231 
L 91.884254 -182.980413 
L 93.305863 -184.863595 
L 94.64161 -186.746776 
L 95.848539 -188.629958 
L 96.990905 -190.51314 
L 98.122475 -192.396322 
L 99.174349 -194.279504 
L 100.146091 -196.162686 
L 101.059958 -198.045868 
L 101.887679 -199.92905 
L 102.654026 -201.812231 
L 103.374387 -203.695413 
L 104.038989 -205.578595 
L 104.632312 -207.461777 
L 105.202078 -209.344959 
L 105.726683 -211.228141 
L 106.204534 -213.111323 
L 106.672257 -214.994505 
L 107.087055 -216.877686 
L 107.430135 -218.760868 
L 107.76932 -220.64405 
L 108.116476 -222.527232 
L 108.385896 -224.410414 
L 108.626108 -226.293596 
L 108.880867 -228.176778 
L 109.13376 -230.05996 
L 109.367023 -231.943141 
L 109.559136 -233.826323 
L 109.709172 -235.709505 
L 109.782327 -237.592687 
L 109.798616 -239.475869 
L 109.8 -239.475869 
L 109.8 -239.475869 
L 109.8 -237.592687 
L 109.8 -235.709505 
L 109.8 -233.826323 
L 109.8 -231.943141 
L 109.8 -230.05996 
L 109.8 -228.176778 
L 109.8 -226.293596 
L 109.8 -224.410414 
L 109.8 -222.527232 
L 109.8 -220.64405 
L 109.8 -218.760868 
L 109.8 -216.877686 
L 109.8 -214.994505 
L 109.8 -213.111323 
L 109.8 -211.228141 
L 109.8 -209.344959 
L 109.8 -207.461777 
L 109.8 -205.578595 
L 109.8 -203.695413 
L 109.8 -201.812231 
L 109.8 -199.92905 
L 109.8 -198.045868 
L 109.8 -196.162686 
L 109.8 -194.279504 
L 109.8 -192.396322 
L 109.8 -190.51314 
L 109.8 -188.629958 
L 109.8 -186.746776 
L 109.8 -184.863595 
L 109.8 -182.980413 
L 109.8 -181.097231 
L 109.8 -179.214049 
L 109.8 -177.330867 
L 109.8 -175.447685 
L 109.8 -173.564503 
L 109.8 -171.681321 
L 109.8 -169.79814 
L 109.8 -167.914958 
L 109.8 -166.031776 
L 109.8 -164.148594 
L 109.8 -162.265412 
L 109.8 -160.38223 
L 109.8 -158.499048 
L 109.8 -156.615866 
L 109.8 -154.732685 
L 109.8 -152.849503 
L 109.8 -150.966321 
L 109.8 -149.083139 
L 109.8 -147.199957 
L 109.8 -145.316775 
L 109.8 -143.433593 
L 109.8 -141.550411 
L 109.8 -139.66723 
L 109.8 -137.784048 
L 109.8 -135.900866 
L 109.8 -134.017684 
L 109.8 -132.134502 
L 109.8 -130.25132 
L 109.8 -128.368138 
L 109.8 -126.484956 
L 109.8 -124.601775 
L 109.8 -122.718593 
L 109.8 -120.835411 
L 109.8 -118.952229 
L 109.8 -117.069047 
L 109.8 -115.185865 
L 109.8 -113.302683 
L 109.8 -111.419501 
L 109.8 -109.536319 
L 109.8 -107.653138 
L 109.8 -105.769956 
L 109.8 -103.886774 
L 109.8 -102.003592 
L 109.8 -100.12041 
L 109.8 -98.237228 
L 109.8 -96.354046 
L 109.8 -94.470864 
L 109.8 -92.587683 
L 109.8 -90.704501 
L 109.8 -88.821319 
L 109.8 -86.938137 
L 109.8 -85.054955 
L 109.8 -83.171773 
L 109.8 -81.288591 
L 109.8 -79.405409 
L 109.8 -77.522228 
L 109.8 -75.639046 
L 109.8 -73.755864 
L 109.8 -71.872682 
L 109.8 -69.9895 
L 109.8 -68.106318 
L 109.8 -66.223136 
L 109.8 -64.339954 
L 109.8 -62.456773 
L 109.8 -60.573591 
L 109.8 -58.690409 
L 109.8 -56.807227 
L 109.8 -54.924045 
L 109.8 -53.040863 
z
" id="m4e8cebda82" style="stroke:#3e3e3e;stroke-width:1.5;"/>
    </defs>
    <g clip-path="url(#p4bc42b1595)">
     <use style="fill:#c6c6c6;stroke:#3e3e3e;stroke-width:1.5;" x="0" xlink:href="#m4e8cebda82" y="288"/>
    </g>
   </g>
   <g id="PolyCollection_2">
    <defs>
     <path d="M 109.800659 -53.278893 
L 109.8 -53.278893 
L 109.8 -55.157265 
L 109.8 -57.035637 
L 109.8 -58.914008 
L 109.8 -60.79238 
L 109.8 -62.670752 
L 109.8 -64.549123 
L 109.8 -66.427495 
L 109.8 -68.305867 
L 109.8 -70.184238 
L 109.8 -72.06261 
L 109.8 -73.940982 
L 109.8 -75.819353 
L 109.8 -77.697725 
L 109.8 -79.576097 
L 109.8 -81.454468 
L 109.8 -83.33284 
L 109.8 -85.211212 
L 109.8 -87.089583 
L 109.8 -88.967955 
L 109.8 -90.846327 
L 109.8 -92.724698 
L 109.8 -94.60307 
L 109.8 -96.481442 
L 109.8 -98.359814 
L 109.8 -100.238185 
L 109.8 -102.116557 
L 109.8 -103.994929 
L 109.8 -105.8733 
L 109.8 -107.751672 
L 109.8 -109.630044 
L 109.8 -111.508415 
L 109.8 -113.386787 
L 109.8 -115.265159 
L 109.8 -117.14353 
L 109.8 -119.021902 
L 109.8 -120.900274 
L 109.8 -122.778645 
L 109.8 -124.657017 
L 109.8 -126.535389 
L 109.8 -128.41376 
L 109.8 -130.292132 
L 109.8 -132.170504 
L 109.8 -134.048875 
L 109.8 -135.927247 
L 109.8 -137.805619 
L 109.8 -139.68399 
L 109.8 -141.562362 
L 109.8 -143.440734 
L 109.8 -145.319105 
L 109.8 -147.197477 
L 109.8 -149.075849 
L 109.8 -150.95422 
L 109.8 -152.832592 
L 109.8 -154.710964 
L 109.8 -156.589335 
L 109.8 -158.467707 
L 109.8 -160.346079 
L 109.8 -162.22445 
L 109.8 -164.102822 
L 109.8 -165.981194 
L 109.8 -167.859565 
L 109.8 -169.737937 
L 109.8 -171.616309 
L 109.8 -173.49468 
L 109.8 -175.373052 
L 109.8 -177.251424 
L 109.8 -179.129795 
L 109.8 -181.008167 
L 109.8 -182.886539 
L 109.8 -184.76491 
L 109.8 -186.643282 
L 109.8 -188.521654 
L 109.8 -190.400026 
L 109.8 -192.278397 
L 109.8 -194.156769 
L 109.8 -196.035141 
L 109.8 -197.913512 
L 109.8 -199.791884 
L 109.8 -201.670256 
L 109.8 -203.548627 
L 109.8 -205.426999 
L 109.8 -207.305371 
L 109.8 -209.183742 
L 109.8 -211.062114 
L 109.8 -212.940486 
L 109.8 -214.818857 
L 109.8 -216.697229 
L 109.8 -218.575601 
L 109.8 -220.453972 
L 109.8 -222.332344 
L 109.8 -224.210716 
L 109.8 -226.089087 
L 109.8 -227.967459 
L 109.8 -229.845831 
L 109.8 -231.724202 
L 109.8 -233.602574 
L 109.8 -235.480946 
L 109.8 -237.359317 
L 109.8 -239.237689 
L 109.800884 -239.237689 
L 109.800884 -239.237689 
L 109.816978 -237.359317 
L 109.899342 -235.480946 
L 110.066309 -233.602574 
L 110.267692 -231.724202 
L 110.494619 -229.845831 
L 110.748588 -227.967459 
L 110.992481 -226.089087 
L 111.254145 -224.210716 
L 111.55953 -222.332344 
L 111.888906 -220.453972 
L 112.237041 -218.575601 
L 112.605559 -216.697229 
L 113.0207 -214.818857 
L 113.482962 -212.940486 
L 113.990561 -211.062114 
L 114.515844 -209.183742 
L 115.05396 -207.305371 
L 115.678744 -205.426999 
L 116.343679 -203.548627 
L 117.034723 -201.670256 
L 117.805562 -199.791884 
L 118.637544 -197.913512 
L 119.53333 -196.035141 
L 120.457649 -194.156769 
L 121.478857 -192.278397 
L 122.587408 -190.400026 
L 123.698576 -188.521654 
L 124.884131 -186.643282 
L 126.238472 -184.76491 
L 127.555783 -182.886539 
L 128.956961 -181.008167 
L 130.482817 -179.129795 
L 132.048553 -177.251424 
L 133.581279 -175.373052 
L 135.242422 -173.49468 
L 136.96266 -171.616309 
L 138.719876 -169.737937 
L 140.568061 -167.859565 
L 142.278171 -165.981194 
L 143.959382 -164.102822 
L 145.635628 -162.22445 
L 147.198637 -160.346079 
L 148.710014 -158.467707 
L 149.928049 -156.589335 
L 150.993627 -154.710964 
L 152.033666 -152.832592 
L 152.811171 -150.95422 
L 153.386019 -149.075849 
L 153.545302 -147.197477 
L 153.45064 -145.319105 
L 153.159629 -143.440734 
L 152.499377 -141.562362 
L 151.737913 -139.68399 
L 150.801764 -137.805619 
L 149.651941 -135.927247 
L 148.359481 -134.048875 
L 146.835716 -132.170504 
L 145.232432 -130.292132 
L 143.70269 -128.41376 
L 142.097641 -126.535389 
L 140.431142 -124.657017 
L 138.80353 -122.778645 
L 137.139676 -120.900274 
L 135.544629 -119.021902 
L 134.096627 -117.14353 
L 132.669083 -115.265159 
L 131.261188 -113.386787 
L 129.808066 -111.508415 
L 128.355469 -109.630044 
L 127.051085 -107.751672 
L 125.723834 -105.8733 
L 124.509908 -103.994929 
L 123.417405 -102.116557 
L 122.28403 -100.238185 
L 121.25623 -98.359814 
L 120.310787 -96.481442 
L 119.372871 -94.60307 
L 118.479829 -92.724698 
L 117.634493 -90.846327 
L 116.888657 -88.967955 
L 116.183572 -87.089583 
L 115.462231 -85.211212 
L 114.814771 -83.33284 
L 114.229438 -81.454468 
L 113.679214 -79.576097 
L 113.169693 -77.697725 
L 112.706264 -75.819353 
L 112.274849 -73.940982 
L 111.880762 -72.06261 
L 111.527881 -70.184238 
L 111.204399 -68.305867 
L 110.895239 -66.427495 
L 110.62803 -64.549123 
L 110.407389 -62.670752 
L 110.212616 -60.79238 
L 110.025801 -58.914008 
L 109.881268 -57.035637 
L 109.813335 -55.157265 
L 109.800659 -53.278893 
z
" id="m1aad289907" style="stroke:#3e3e3e;stroke-width:1.5;"/>
    </defs>
    <g clip-path="url(#p4bc42b1595)">
     <use style="fill:#686868;stroke:#3e3e3e;stroke-width:1.5;" x="0" xlink:href="#m1aad289907" y="288"/>
    </g>
   </g>
   <g id="PolyCollection_3">
    <defs>
     <path d="M 221.4 -52.819532 
L 221.398966 -52.819532 
L 221.388407 -54.711084 
L 221.344267 -56.602636 
L 221.253842 -58.494187 
L 221.116183 -60.385739 
L 220.930016 -62.277291 
L 220.719401 -64.168843 
L 220.502974 -66.060395 
L 220.234714 -67.951946 
L 219.890712 -69.843498 
L 219.519137 -71.73505 
L 219.118747 -73.626602 
L 218.690278 -75.518154 
L 218.225086 -77.409705 
L 217.659848 -79.301257 
L 217.085002 -81.192809 
L 216.533774 -83.084361 
L 215.931245 -84.975913 
L 215.292214 -86.867464 
L 214.611584 -88.759016 
L 213.883278 -90.650568 
L 213.112679 -92.54212 
L 212.297964 -94.433672 
L 211.518086 -96.325223 
L 210.737295 -98.216775 
L 209.80035 -100.108327 
L 208.773565 -101.999879 
L 207.805828 -103.891431 
L 206.860594 -105.782983 
L 205.947136 -107.674534 
L 205.074503 -109.566086 
L 204.057533 -111.457638 
L 202.849719 -113.34919 
L 201.676308 -115.240742 
L 200.531513 -117.132293 
L 199.329317 -119.023845 
L 198.053999 -120.915397 
L 196.691042 -122.806949 
L 195.30143 -124.698501 
L 193.92985 -126.590052 
L 192.554777 -128.481604 
L 191.095316 -130.373156 
L 189.561579 -132.264708 
L 188.028004 -134.15626 
L 186.31891 -136.047811 
L 184.490473 -137.939363 
L 182.911234 -139.830915 
L 181.589195 -141.722467 
L 180.39139 -143.614019 
L 179.100476 -145.50557 
L 177.858419 -147.397122 
L 177.081236 -149.288674 
L 176.76 -151.180226 
L 176.800306 -153.071778 
L 177.353907 -154.963329 
L 178.455191 -156.854881 
L 180.015565 -158.746433 
L 182.006085 -160.637985 
L 184.310641 -162.529537 
L 186.862634 -164.421088 
L 189.663039 -166.31264 
L 192.420738 -168.204192 
L 195.087072 -170.095744 
L 197.725363 -171.987296 
L 200.331351 -173.878848 
L 202.679314 -175.770399 
L 204.696469 -177.661951 
L 206.63895 -179.553503 
L 208.438046 -181.445055 
L 209.934867 -183.336607 
L 211.254363 -185.228158 
L 212.478076 -187.11971 
L 213.562077 -189.011262 
L 214.471574 -190.902814 
L 215.222026 -192.794366 
L 215.998327 -194.685917 
L 216.744282 -196.577469 
L 217.370762 -198.469021 
L 217.884139 -200.360573 
L 218.29484 -202.252125 
L 218.683079 -204.143676 
L 219.081886 -206.035228 
L 219.397903 -207.92678 
L 219.651631 -209.818332 
L 219.908376 -211.709884 
L 220.141739 -213.601435 
L 220.350129 -215.492987 
L 220.548675 -217.384539 
L 220.704833 -219.276091 
L 220.810803 -221.167643 
L 220.896291 -223.059194 
L 221.005123 -224.950746 
L 221.112761 -226.842298 
L 221.1975 -228.73385 
L 221.257007 -230.625402 
L 221.301739 -232.516954 
L 221.349335 -234.408505 
L 221.384374 -236.300057 
L 221.397277 -238.191609 
L 221.399746 -240.083161 
L 221.4 -240.083161 
L 221.4 -240.083161 
L 221.4 -238.191609 
L 221.4 -236.300057 
L 221.4 -234.408505 
L 221.4 -232.516954 
L 221.4 -230.625402 
L 221.4 -228.73385 
L 221.4 -226.842298 
L 221.4 -224.950746 
L 221.4 -223.059194 
L 221.4 -221.167643 
L 221.4 -219.276091 
L 221.4 -217.384539 
L 221.4 -215.492987 
L 221.4 -213.601435 
L 221.4 -211.709884 
L 221.4 -209.818332 
L 221.4 -207.92678 
L 221.4 -206.035228 
L 221.4 -204.143676 
L 221.4 -202.252125 
L 221.4 -200.360573 
L 221.4 -198.469021 
L 221.4 -196.577469 
L 221.4 -194.685917 
L 221.4 -192.794366 
L 221.4 -190.902814 
L 221.4 -189.011262 
L 221.4 -187.11971 
L 221.4 -185.228158 
L 221.4 -183.336607 
L 221.4 -181.445055 
L 221.4 -179.553503 
L 221.4 -177.661951 
L 221.4 -175.770399 
L 221.4 -173.878848 
L 221.4 -171.987296 
L 221.4 -170.095744 
L 221.4 -168.204192 
L 221.4 -166.31264 
L 221.4 -164.421088 
L 221.4 -162.529537 
L 221.4 -160.637985 
L 221.4 -158.746433 
L 221.4 -156.854881 
L 221.4 -154.963329 
L 221.4 -153.071778 
L 221.4 -151.180226 
L 221.4 -149.288674 
L 221.4 -147.397122 
L 221.4 -145.50557 
L 221.4 -143.614019 
L 221.4 -141.722467 
L 221.4 -139.830915 
L 221.4 -137.939363 
L 221.4 -136.047811 
L 221.4 -134.15626 
L 221.4 -132.264708 
L 221.4 -130.373156 
L 221.4 -128.481604 
L 221.4 -126.590052 
L 221.4 -124.698501 
L 221.4 -122.806949 
L 221.4 -120.915397 
L 221.4 -119.023845 
L 221.4 -117.132293 
L 221.4 -115.240742 
L 221.4 -113.34919 
L 221.4 -111.457638 
L 221.4 -109.566086 
L 221.4 -107.674534 
L 221.4 -105.782983 
L 221.4 -103.891431 
L 221.4 -101.999879 
L 221.4 -100.108327 
L 221.4 -98.216775 
L 221.4 -96.325223 
L 221.4 -94.433672 
L 221.4 -92.54212 
L 221.4 -90.650568 
L 221.4 -88.759016 
L 221.4 -86.867464 
L 221.4 -84.975913 
L 221.4 -83.084361 
L 221.4 -81.192809 
L 221.4 -79.301257 
L 221.4 -77.409705 
L 221.4 -75.518154 
L 221.4 -73.626602 
L 221.4 -71.73505 
L 221.4 -69.843498 
L 221.4 -67.951946 
L 221.4 -66.060395 
L 221.4 -64.168843 
L 221.4 -62.277291 
L 221.4 -60.385739 
L 221.4 -58.494187 
L 221.4 -56.602636 
L 221.4 -54.711084 
L 221.4 -52.819532 
z
" id="md6650363e9" style="stroke:#3e3e3e;stroke-width:1.5;"/>
    </defs>
    <g clip-path="url(#p4bc42b1595)">
     <use style="fill:#c6c6c6;stroke:#3e3e3e;stroke-width:1.5;" x="0" xlink:href="#md6650363e9" y="288"/>
    </g>
   </g>
   <g id="PolyCollection_4">
    <defs>
     <path d="M 221.401027 -53.242154 
L 221.4 -53.242154 
L 221.4 -55.126149 
L 221.4 -57.010144 
L 221.4 -58.894139 
L 221.4 -60.778134 
L 221.4 -62.66213 
L 221.4 -64.546125 
L 221.4 -66.43012 
L 221.4 -68.314115 
L 221.4 -70.19811 
L 221.4 -72.082106 
L 221.4 -73.966101 
L 221.4 -75.850096 
L 221.4 -77.734091 
L 221.4 -79.618086 
L 221.4 -81.502082 
L 221.4 -83.386077 
L 221.4 -85.270072 
L 221.4 -87.154067 
L 221.4 -89.038062 
L 221.4 -90.922058 
L 221.4 -92.806053 
L 221.4 -94.690048 
L 221.4 -96.574043 
L 221.4 -98.458038 
L 221.4 -100.342034 
L 221.4 -102.226029 
L 221.4 -104.110024 
L 221.4 -105.994019 
L 221.4 -107.878014 
L 221.4 -109.76201 
L 221.4 -111.646005 
L 221.4 -113.53 
L 221.4 -115.413995 
L 221.4 -117.29799 
L 221.4 -119.181986 
L 221.4 -121.065981 
L 221.4 -122.949976 
L 221.4 -124.833971 
L 221.4 -126.717966 
L 221.4 -128.601962 
L 221.4 -130.485957 
L 221.4 -132.369952 
L 221.4 -134.253947 
L 221.4 -136.137942 
L 221.4 -138.021938 
L 221.4 -139.905933 
L 221.4 -141.789928 
L 221.4 -143.673923 
L 221.4 -145.557918 
L 221.4 -147.441913 
L 221.4 -149.325909 
L 221.4 -151.209904 
L 221.4 -153.093899 
L 221.4 -154.977894 
L 221.4 -156.861889 
L 221.4 -158.745885 
L 221.4 -160.62988 
L 221.4 -162.513875 
L 221.4 -164.39787 
L 221.4 -166.281865 
L 221.4 -168.165861 
L 221.4 -170.049856 
L 221.4 -171.933851 
L 221.4 -173.817846 
L 221.4 -175.701841 
L 221.4 -177.585837 
L 221.4 -179.469832 
L 221.4 -181.353827 
L 221.4 -183.237822 
L 221.4 -185.121817 
L 221.4 -187.005813 
L 221.4 -188.889808 
L 221.4 -190.773803 
L 221.4 -192.657798 
L 221.4 -194.541793 
L 221.4 -196.425789 
L 221.4 -198.309784 
L 221.4 -200.193779 
L 221.4 -202.077774 
L 221.4 -203.961769 
L 221.4 -205.845765 
L 221.4 -207.72976 
L 221.4 -209.613755 
L 221.4 -211.49775 
L 221.4 -213.381745 
L 221.4 -215.265741 
L 221.4 -217.149736 
L 221.4 -219.033731 
L 221.4 -220.917726 
L 221.4 -222.801721 
L 221.4 -224.685717 
L 221.4 -226.569712 
L 221.4 -228.453707 
L 221.4 -230.337702 
L 221.4 -232.221697 
L 221.4 -234.105693 
L 221.4 -235.989688 
L 221.4 -237.873683 
L 221.4 -239.757678 
L 221.400265 -239.757678 
L 221.400265 -239.757678 
L 221.405094 -237.873683 
L 221.433093 -235.989688 
L 221.493588 -234.105693 
L 221.566928 -232.221697 
L 221.65842 -230.337702 
L 221.763296 -228.453707 
L 221.868462 -226.569712 
L 222.006159 -224.685717 
L 222.161714 -222.801721 
L 222.2923 -220.917726 
L 222.444072 -219.033731 
L 222.642669 -217.149736 
L 222.854906 -215.265741 
L 223.081904 -213.381745 
L 223.348375 -211.49775 
L 223.644302 -209.613755 
L 223.983726 -207.72976 
L 224.353245 -205.845765 
L 224.771281 -203.961769 
L 225.241163 -202.077774 
L 225.764703 -200.193779 
L 226.310313 -198.309784 
L 226.902324 -196.425789 
L 227.620745 -194.541793 
L 228.38379 -192.657798 
L 229.233316 -190.773803 
L 230.243151 -188.889808 
L 231.29786 -187.005813 
L 232.399165 -185.121817 
L 233.661557 -183.237822 
L 235.091339 -181.353827 
L 236.52896 -179.469832 
L 238.115344 -177.585837 
L 239.909121 -175.701841 
L 241.888398 -173.817846 
L 244.026452 -171.933851 
L 246.24939 -170.049856 
L 248.523619 -168.165861 
L 250.791953 -166.281865 
L 252.853757 -164.39787 
L 254.805707 -162.513875 
L 256.573698 -160.62988 
L 257.943313 -158.745885 
L 258.85077 -156.861889 
L 259.435335 -154.977894 
L 259.737375 -153.093899 
L 259.796162 -151.209904 
L 259.770515 -149.325909 
L 259.45949 -147.441913 
L 258.997212 -145.557918 
L 258.537299 -143.673923 
L 258.01261 -141.789928 
L 257.378752 -139.905933 
L 256.699105 -138.021938 
L 255.967796 -136.137942 
L 255.072325 -134.253947 
L 254.024427 -132.369952 
L 252.933635 -130.485957 
L 251.89827 -128.601962 
L 250.838935 -126.717966 
L 249.778449 -124.833971 
L 248.727348 -122.949976 
L 247.662953 -121.065981 
L 246.513622 -119.181986 
L 245.321229 -117.29799 
L 244.102267 -115.413995 
L 243.026022 -113.53 
L 241.982827 -111.646005 
L 240.803496 -109.76201 
L 239.60165 -107.878014 
L 238.533269 -105.994019 
L 237.467997 -104.110024 
L 236.409493 -102.226029 
L 235.439736 -100.342034 
L 234.414855 -98.458038 
L 233.38236 -96.574043 
L 232.407561 -94.690048 
L 231.41916 -92.806053 
L 230.478282 -90.922058 
L 229.59833 -89.038062 
L 228.809207 -87.154067 
L 228.020877 -85.270072 
L 227.26644 -83.386077 
L 226.590801 -81.502082 
L 225.930949 -79.618086 
L 225.298016 -77.734091 
L 224.74093 -75.850096 
L 224.199374 -73.966101 
L 223.704931 -72.082106 
L 223.24805 -70.19811 
L 222.852949 -68.314115 
L 222.52684 -66.43012 
L 222.235711 -64.546125 
L 221.974773 -62.66213 
L 221.75805 -60.778134 
L 221.59239 -58.894139 
L 221.47362 -57.010144 
L 221.41452 -55.126149 
L 221.401027 -53.242154 
z
" id="m3fc7a88f83" style="stroke:#3e3e3e;stroke-width:1.5;"/>
    </defs>
    <g clip-path="url(#p4bc42b1595)">
     <use style="fill:#686868;stroke:#3e3e3e;stroke-width:1.5;" x="0" xlink:href="#m3fc7a88f83" y="288"/>
    </g>
   </g>
   <g id="PolyCollection_5">
    <defs>
     <path d="M 333 -45.883636 
L 332.974759 -45.883636 
L 332.946337 -47.870244 
L 332.897567 -49.856851 
L 332.823576 -51.843459 
L 332.723734 -53.830066 
L 332.601969 -55.816674 
L 332.462596 -57.803281 
L 332.302209 -59.789889 
L 332.10217 -61.776496 
L 331.828218 -63.763104 
L 331.44078 -65.749711 
L 330.912349 -67.736319 
L 330.241838 -69.722927 
L 329.455897 -71.709534 
L 328.595254 -73.696142 
L 327.694334 -75.682749 
L 326.7663 -77.669357 
L 325.800602 -79.655964 
L 324.771491 -81.642572 
L 323.651291 -83.629179 
L 322.423006 -85.615787 
L 321.089196 -87.602394 
L 319.674817 -89.589002 
L 318.221944 -91.575609 
L 316.776936 -93.562217 
L 315.375024 -95.548824 
L 314.029404 -97.535432 
L 312.729123 -99.522039 
L 311.444766 -101.508647 
L 310.1375 -103.495254 
L 308.767073 -105.481862 
L 307.29693 -107.468469 
L 305.698202 -109.455077 
L 303.956908 -111.441684 
L 302.085963 -113.428292 
L 300.134902 -115.414899 
L 298.18447 -117.401507 
L 296.321976 -119.388114 
L 294.612137 -121.374722 
L 293.08558 -123.361329 
L 291.751087 -125.347937 
L 290.615651 -127.334544 
L 289.693772 -129.321152 
L 289.003493 -131.307759 
L 288.558258 -133.294367 
L 288.36 -135.280974 
L 288.392174 -137.267582 
L 288.613823 -139.254189 
L 288.961385 -141.240797 
L 289.36336 -143.227404 
L 289.764766 -145.214012 
L 290.151072 -147.20062 
L 290.558933 -149.187227 
L 291.063936 -151.173835 
L 291.745571 -153.160442 
L 292.645774 -155.14705 
L 293.748291 -157.133657 
L 294.996337 -159.120265 
L 296.336469 -161.106872 
L 297.752388 -163.09348 
L 299.260442 -165.080087 
L 300.874187 -167.066695 
L 302.572909 -169.053302 
L 304.301524 -171.03991 
L 305.998565 -173.026517 
L 307.627502 -175.013125 
L 309.189982 -176.999732 
L 310.716977 -178.98634 
L 312.247638 -180.972947 
L 313.808684 -182.959555 
L 315.401881 -184.946162 
L 317.000302 -186.93277 
L 318.551499 -188.919377 
L 319.988003 -190.905985 
L 321.246843 -192.892592 
L 322.294245 -194.8792 
L 323.143252 -196.865807 
L 323.851184 -198.852415 
L 324.495664 -200.839022 
L 325.143209 -202.82563 
L 325.828543 -204.812237 
L 326.552618 -206.798845 
L 327.29395 -208.785452 
L 328.023335 -210.77206 
L 328.716031 -212.758667 
L 329.359518 -214.745275 
L 329.95497 -216.731882 
L 330.51094 -218.71849 
L 331.032257 -220.705097 
L 331.51195 -222.691705 
L 331.932613 -224.678313 
L 332.27613 -226.66492 
L 332.53425 -228.651528 
L 332.71277 -230.638135 
L 332.827896 -232.624743 
L 332.898845 -234.61135 
L 332.941809 -236.597958 
L 332.967736 -238.584565 
L 332.983137 -240.571173 
L 332.991868 -242.55778 
L 333 -242.55778 
L 333 -242.55778 
L 333 -240.571173 
L 333 -238.584565 
L 333 -236.597958 
L 333 -234.61135 
L 333 -232.624743 
L 333 -230.638135 
L 333 -228.651528 
L 333 -226.66492 
L 333 -224.678313 
L 333 -222.691705 
L 333 -220.705097 
L 333 -218.71849 
L 333 -216.731882 
L 333 -214.745275 
L 333 -212.758667 
L 333 -210.77206 
L 333 -208.785452 
L 333 -206.798845 
L 333 -204.812237 
L 333 -202.82563 
L 333 -200.839022 
L 333 -198.852415 
L 333 -196.865807 
L 333 -194.8792 
L 333 -192.892592 
L 333 -190.905985 
L 333 -188.919377 
L 333 -186.93277 
L 333 -184.946162 
L 333 -182.959555 
L 333 -180.972947 
L 333 -178.98634 
L 333 -176.999732 
L 333 -175.013125 
L 333 -173.026517 
L 333 -171.03991 
L 333 -169.053302 
L 333 -167.066695 
L 333 -165.080087 
L 333 -163.09348 
L 333 -161.106872 
L 333 -159.120265 
L 333 -157.133657 
L 333 -155.14705 
L 333 -153.160442 
L 333 -151.173835 
L 333 -149.187227 
L 333 -147.20062 
L 333 -145.214012 
L 333 -143.227404 
L 333 -141.240797 
L 333 -139.254189 
L 333 -137.267582 
L 333 -135.280974 
L 333 -133.294367 
L 333 -131.307759 
L 333 -129.321152 
L 333 -127.334544 
L 333 -125.347937 
L 333 -123.361329 
L 333 -121.374722 
L 333 -119.388114 
L 333 -117.401507 
L 333 -115.414899 
L 333 -113.428292 
L 333 -111.441684 
L 333 -109.455077 
L 333 -107.468469 
L 333 -105.481862 
L 333 -103.495254 
L 333 -101.508647 
L 333 -99.522039 
L 333 -97.535432 
L 333 -95.548824 
L 333 -93.562217 
L 333 -91.575609 
L 333 -89.589002 
L 333 -87.602394 
L 333 -85.615787 
L 333 -83.629179 
L 333 -81.642572 
L 333 -79.655964 
L 333 -77.669357 
L 333 -75.682749 
L 333 -73.696142 
L 333 -71.709534 
L 333 -69.722927 
L 333 -67.736319 
L 333 -65.749711 
L 333 -63.763104 
L 333 -61.776496 
L 333 -59.789889 
L 333 -57.803281 
L 333 -55.816674 
L 333 -53.830066 
L 333 -51.843459 
L 333 -49.856851 
L 333 -47.870244 
L 333 -45.883636 
z
" id="m0e0f532862" style="stroke:#3e3e3e;stroke-width:1.5;"/>
    </defs>
    <g clip-path="url(#p4bc42b1595)">
     <use style="fill:#c6c6c6;stroke:#3e3e3e;stroke-width:1.5;" x="0" xlink:href="#m0e0f532862" y="288"/>
    </g>
   </g>
   <g id="PolyCollection_6">
    <defs>
     <path d="M 333.00266 -48.752691 
L 333 -48.752691 
L 333 -50.720405 
L 333 -52.688118 
L 333 -54.655832 
L 333 -56.623546 
L 333 -58.59126 
L 333 -60.558974 
L 333 -62.526688 
L 333 -64.494402 
L 333 -66.462115 
L 333 -68.429829 
L 333 -70.397543 
L 333 -72.365257 
L 333 -74.332971 
L 333 -76.300685 
L 333 -78.268399 
L 333 -80.236113 
L 333 -82.203826 
L 333 -84.17154 
L 333 -86.139254 
L 333 -88.106968 
L 333 -90.074682 
L 333 -92.042396 
L 333 -94.01011 
L 333 -95.977824 
L 333 -97.945537 
L 333 -99.913251 
L 333 -101.880965 
L 333 -103.848679 
L 333 -105.816393 
L 333 -107.784107 
L 333 -109.751821 
L 333 -111.719534 
L 333 -113.687248 
L 333 -115.654962 
L 333 -117.622676 
L 333 -119.59039 
L 333 -121.558104 
L 333 -123.525818 
L 333 -125.493532 
L 333 -127.461245 
L 333 -129.428959 
L 333 -131.396673 
L 333 -133.364387 
L 333 -135.332101 
L 333 -137.299815 
L 333 -139.267529 
L 333 -141.235242 
L 333 -143.202956 
L 333 -145.17067 
L 333 -147.138384 
L 333 -149.106098 
L 333 -151.073812 
L 333 -153.041526 
L 333 -155.00924 
L 333 -156.976953 
L 333 -158.944667 
L 333 -160.912381 
L 333 -162.880095 
L 333 -164.847809 
L 333 -166.815523 
L 333 -168.783237 
L 333 -170.750951 
L 333 -172.718664 
L 333 -174.686378 
L 333 -176.654092 
L 333 -178.621806 
L 333 -180.58952 
L 333 -182.557234 
L 333 -184.524948 
L 333 -186.492661 
L 333 -188.460375 
L 333 -190.428089 
L 333 -192.395803 
L 333 -194.363517 
L 333 -196.331231 
L 333 -198.298945 
L 333 -200.266659 
L 333 -202.234372 
L 333 -204.202086 
L 333 -206.1698 
L 333 -208.137514 
L 333 -210.105228 
L 333 -212.072942 
L 333 -214.040656 
L 333 -216.008369 
L 333 -217.976083 
L 333 -219.943797 
L 333 -221.911511 
L 333 -223.879225 
L 333 -225.846939 
L 333 -227.814653 
L 333 -229.782367 
L 333 -231.75008 
L 333 -233.717794 
L 333 -235.685508 
L 333 -237.653222 
L 333 -239.620936 
L 333 -241.58865 
L 333 -243.556364 
L 333.003979 -243.556364 
L 333.003979 -243.556364 
L 333.01255 -241.58865 
L 333.033881 -239.620936 
L 333.080496 -237.653222 
L 333.170871 -235.685508 
L 333.324985 -233.717794 
L 333.554481 -231.75008 
L 333.857767 -229.782367 
L 334.23068 -227.814653 
L 334.682509 -225.846939 
L 335.235238 -223.879225 
L 335.905764 -221.911511 
L 336.692857 -219.943797 
L 337.577145 -217.976083 
L 338.521653 -216.008369 
L 339.471593 -214.040656 
L 340.376494 -212.072942 
L 341.236528 -210.105228 
L 342.12009 -208.137514 
L 343.11707 -206.1698 
L 344.275261 -204.202086 
L 345.577277 -202.234372 
L 346.957381 -200.266659 
L 348.338574 -198.298945 
L 349.672285 -196.331231 
L 350.951137 -194.363517 
L 352.189651 -192.395803 
L 353.413921 -190.428089 
L 354.673651 -188.460375 
L 356.02447 -186.492661 
L 357.470189 -184.524948 
L 358.944102 -182.557234 
L 360.362728 -180.58952 
L 361.681164 -178.621806 
L 362.898921 -176.654092 
L 364.042184 -174.686378 
L 365.148041 -172.718664 
L 366.246314 -170.750951 
L 367.347011 -168.783237 
L 368.444642 -166.815523 
L 369.523373 -164.847809 
L 370.549585 -162.880095 
L 371.465276 -160.912381 
L 372.205997 -158.944667 
L 372.748499 -156.976953 
L 373.141235 -155.00924 
L 373.461594 -153.041526 
L 373.739883 -151.073812 
L 373.94417 -149.106098 
L 374.027606 -147.138384 
L 373.971639 -145.17067 
L 373.79916 -143.202956 
L 373.555204 -141.235242 
L 373.257658 -139.267529 
L 372.864943 -137.299815 
L 372.310878 -135.332101 
L 371.575289 -133.364387 
L 370.697782 -131.396673 
L 369.710627 -129.428959 
L 368.597262 -127.461245 
L 367.355873 -125.493532 
L 366.065999 -123.525818 
L 364.837686 -121.558104 
L 363.715814 -119.59039 
L 362.664965 -117.622676 
L 361.613988 -115.654962 
L 360.493133 -113.687248 
L 359.264914 -111.719534 
L 357.93907 -109.751821 
L 356.536029 -107.784107 
L 355.039608 -105.816393 
L 353.421633 -103.848679 
L 351.720643 -101.880965 
L 350.066483 -99.913251 
L 348.600074 -97.945537 
L 347.36472 -95.977824 
L 346.284045 -94.01011 
L 345.243924 -92.042396 
L 344.182067 -90.074682 
L 343.10262 -88.106968 
L 342.032665 -86.139254 
L 340.98232 -84.17154 
L 339.945123 -82.203826 
L 338.930962 -80.236113 
L 337.983895 -78.268399 
L 337.153987 -76.300685 
L 336.458615 -74.332971 
L 335.879375 -72.365257 
L 335.384371 -70.397543 
L 334.942654 -68.429829 
L 334.529821 -66.462115 
L 334.138521 -64.494402 
L 333.784401 -62.526688 
L 333.493195 -60.558974 
L 333.280419 -58.59126 
L 333.14308 -56.623546 
L 333.06495 -54.655832 
L 333.025952 -52.688118 
L 333.009 -50.720405 
L 333.00266 -48.752691 
z
" id="m4008ce6612" style="stroke:#3e3e3e;stroke-width:1.5;"/>
    </defs>
    <g clip-path="url(#p4bc42b1595)">
     <use style="fill:#686868;stroke:#3e3e3e;stroke-width:1.5;" x="0" xlink:href="#m4008ce6612" y="288"/>
    </g>
   </g>
   <g id="patch_3">
    <path clip-path="url(#p4bc42b1595)" d="M 109.8 141.601171 
L 109.8 141.601171 
L 109.8 141.601171 
L 109.8 141.601171 
z
" style="fill:#c6c6c6;stroke:#3e3e3e;stroke-linejoin:miter;stroke-width:0.75;"/>
   </g>
   <g id="patch_4">
    <path clip-path="url(#p4bc42b1595)" d="M 109.8 141.601171 
L 109.8 141.601171 
L 109.8 141.601171 
L 109.8 141.601171 
z
" style="fill:#686868;stroke:#3e3e3e;stroke-linejoin:miter;stroke-width:0.75;"/>
   </g>
   <g id="matplotlib.axis_1">
    <g id="xtick_1">
     <g id="line2d_1">
      <defs>
       <path d="M 0 0 
L 0 3.5 
" id="m1b8f504de5" style="stroke:#000000;stroke-width:0.8;"/>
      </defs>
      <g>
       <use style="stroke:#000000;stroke-width:0.8;" x="109.8" xlink:href="#m1b8f504de5" y="252"/>
      </g>
     </g>
     <g id="text_1">
      <!-- MERFISH MOp -->
      <g transform="translate(74.553906 266.598437)scale(0.1 -0.1)">
       <defs>
        <path d="M 9.8125 72.90625 
L 24.515625 72.90625 
L 43.109375 23.296875 
L 61.8125 72.90625 
L 76.515625 72.90625 
L 76.515625 0 
L 66.890625 0 
L 66.890625 64.015625 
L 48.09375 14.015625 
L 38.1875 14.015625 
L 19.390625 64.015625 
L 19.390625 0 
L 9.8125 0 
z
" id="DejaVuSans-77"/>
        <path d="M 9.8125 72.90625 
L 55.90625 72.90625 
L 55.90625 64.59375 
L 19.671875 64.59375 
L 19.671875 43.015625 
L 54.390625 43.015625 
L 54.390625 34.71875 
L 19.671875 34.71875 
L 19.671875 8.296875 
L 56.78125 8.296875 
L 56.78125 0 
L 9.8125 0 
z
" id="DejaVuSans-69"/>
        <path d="M 44.390625 34.1875 
Q 47.5625 33.109375 50.5625 29.59375 
Q 53.5625 26.078125 56.59375 19.921875 
L 66.609375 0 
L 56 0 
L 46.6875 18.703125 
Q 43.0625 26.03125 39.671875 28.421875 
Q 36.28125 30.8125 30.421875 30.8125 
L 19.671875 30.8125 
L 19.671875 0 
L 9.8125 0 
L 9.8125 72.90625 
L 32.078125 72.90625 
Q 44.578125 72.90625 50.734375 67.671875 
Q 56.890625 62.453125 56.890625 51.90625 
Q 56.890625 45.015625 53.6875 40.46875 
Q 50.484375 35.9375 44.390625 34.1875 
z
M 19.671875 64.796875 
L 19.671875 38.921875 
L 32.078125 38.921875 
Q 39.203125 38.921875 42.84375 42.21875 
Q 46.484375 45.515625 46.484375 51.90625 
Q 46.484375 58.296875 42.84375 61.546875 
Q 39.203125 64.796875 32.078125 64.796875 
z
" id="DejaVuSans-82"/>
        <path d="M 9.8125 72.90625 
L 51.703125 72.90625 
L 51.703125 64.59375 
L 19.671875 64.59375 
L 19.671875 43.109375 
L 48.578125 43.109375 
L 48.578125 34.8125 
L 19.671875 34.8125 
L 19.671875 0 
L 9.8125 0 
z
" id="DejaVuSans-70"/>
        <path d="M 9.8125 72.90625 
L 19.671875 72.90625 
L 19.671875 0 
L 9.8125 0 
z
" id="DejaVuSans-73"/>
        <path d="M 53.515625 70.515625 
L 53.515625 60.890625 
Q 47.90625 63.578125 42.921875 64.890625 
Q 37.9375 66.21875 33.296875 66.21875 
Q 25.25 66.21875 20.875 63.09375 
Q 16.5 59.96875 16.5 54.203125 
Q 16.5 49.359375 19.40625 46.890625 
Q 22.3125 44.4375 30.421875 42.921875 
L 36.375 41.703125 
Q 47.40625 39.59375 52.65625 34.296875 
Q 57.90625 29 57.90625 20.125 
Q 57.90625 9.515625 50.796875 4.046875 
Q 43.703125 -1.421875 29.984375 -1.421875 
Q 24.8125 -1.421875 18.96875 -0.25 
Q 13.140625 0.921875 6.890625 3.21875 
L 6.890625 13.375 
Q 12.890625 10.015625 18.65625 8.296875 
Q 24.421875 6.59375 29.984375 6.59375 
Q 38.421875 6.59375 43.015625 9.90625 
Q 47.609375 13.234375 47.609375 19.390625 
Q 47.609375 24.75 44.3125 27.78125 
Q 41.015625 30.8125 33.5 32.328125 
L 27.484375 33.5 
Q 16.453125 35.6875 11.515625 40.375 
Q 6.59375 45.0625 6.59375 53.421875 
Q 6.59375 63.09375 13.40625 68.65625 
Q 20.21875 74.21875 32.171875 74.21875 
Q 37.3125 74.21875 42.625 73.28125 
Q 47.953125 72.359375 53.515625 70.515625 
z
" id="DejaVuSans-83"/>
        <path d="M 9.8125 72.90625 
L 19.671875 72.90625 
L 19.671875 43.015625 
L 55.515625 43.015625 
L 55.515625 72.90625 
L 65.375 72.90625 
L 65.375 0 
L 55.515625 0 
L 55.515625 34.71875 
L 19.671875 34.71875 
L 19.671875 0 
L 9.8125 0 
z
" id="DejaVuSans-72"/>
        <path id="DejaVuSans-32"/>
        <path d="M 39.40625 66.21875 
Q 28.65625 66.21875 22.328125 58.203125 
Q 16.015625 50.203125 16.015625 36.375 
Q 16.015625 22.609375 22.328125 14.59375 
Q 28.65625 6.59375 39.40625 6.59375 
Q 50.140625 6.59375 56.421875 14.59375 
Q 62.703125 22.609375 62.703125 36.375 
Q 62.703125 50.203125 56.421875 58.203125 
Q 50.140625 66.21875 39.40625 66.21875 
z
M 39.40625 74.21875 
Q 54.734375 74.21875 63.90625 63.9375 
Q 73.09375 53.65625 73.09375 36.375 
Q 73.09375 19.140625 63.90625 8.859375 
Q 54.734375 -1.421875 39.40625 -1.421875 
Q 24.03125 -1.421875 14.8125 8.828125 
Q 5.609375 19.09375 5.609375 36.375 
Q 5.609375 53.65625 14.8125 63.9375 
Q 24.03125 74.21875 39.40625 74.21875 
z
" id="DejaVuSans-79"/>
        <path d="M 18.109375 8.203125 
L 18.109375 -20.796875 
L 9.078125 -20.796875 
L 9.078125 54.6875 
L 18.109375 54.6875 
L 18.109375 46.390625 
Q 20.953125 51.265625 25.265625 53.625 
Q 29.59375 56 35.59375 56 
Q 45.5625 56 51.78125 48.09375 
Q 58.015625 40.1875 58.015625 27.296875 
Q 58.015625 14.40625 51.78125 6.484375 
Q 45.5625 -1.421875 35.59375 -1.421875 
Q 29.59375 -1.421875 25.265625 0.953125 
Q 20.953125 3.328125 18.109375 8.203125 
z
M 48.6875 27.296875 
Q 48.6875 37.203125 44.609375 42.84375 
Q 40.53125 48.484375 33.40625 48.484375 
Q 26.265625 48.484375 22.1875 42.84375 
Q 18.109375 37.203125 18.109375 27.296875 
Q 18.109375 17.390625 22.1875 11.75 
Q 26.265625 6.109375 33.40625 6.109375 
Q 40.53125 6.109375 44.609375 11.75 
Q 48.6875 17.390625 48.6875 27.296875 
z
" id="DejaVuSans-112"/>
       </defs>
       <use xlink:href="#DejaVuSans-77"/>
       <use x="86.279297" xlink:href="#DejaVuSans-69"/>
       <use x="149.462891" xlink:href="#DejaVuSans-82"/>
       <use x="218.945312" xlink:href="#DejaVuSans-70"/>
       <use x="276.464844" xlink:href="#DejaVuSans-73"/>
       <use x="305.957031" xlink:href="#DejaVuSans-83"/>
       <use x="369.433594" xlink:href="#DejaVuSans-72"/>
       <use x="444.628906" xlink:href="#DejaVuSans-32"/>
       <use x="476.416016" xlink:href="#DejaVuSans-77"/>
       <use x="562.695312" xlink:href="#DejaVuSans-79"/>
       <use x="641.40625" xlink:href="#DejaVuSans-112"/>
      </g>
     </g>
    </g>
    <g id="xtick_2">
     <g id="line2d_2">
      <g>
       <use style="stroke:#000000;stroke-width:0.8;" x="221.4" xlink:href="#m1b8f504de5" y="252"/>
      </g>
     </g>
     <g id="text_2">
      <!-- Vizgen Brainmap -->
      <g transform="translate(178.853906 266.598437)scale(0.1 -0.1)">
       <defs>
        <path d="M 28.609375 0 
L 0.78125 72.90625 
L 11.078125 72.90625 
L 34.1875 11.53125 
L 57.328125 72.90625 
L 67.578125 72.90625 
L 39.796875 0 
z
" id="DejaVuSans-86"/>
        <path d="M 9.421875 54.6875 
L 18.40625 54.6875 
L 18.40625 0 
L 9.421875 0 
z
M 9.421875 75.984375 
L 18.40625 75.984375 
L 18.40625 64.59375 
L 9.421875 64.59375 
z
" id="DejaVuSans-105"/>
        <path d="M 5.515625 54.6875 
L 48.1875 54.6875 
L 48.1875 46.484375 
L 14.40625 7.171875 
L 48.1875 7.171875 
L 48.1875 0 
L 4.296875 0 
L 4.296875 8.203125 
L 38.09375 47.515625 
L 5.515625 47.515625 
z
" id="DejaVuSans-122"/>
        <path d="M 45.40625 27.984375 
Q 45.40625 37.75 41.375 43.109375 
Q 37.359375 48.484375 30.078125 48.484375 
Q 22.859375 48.484375 18.828125 43.109375 
Q 14.796875 37.75 14.796875 27.984375 
Q 14.796875 18.265625 18.828125 12.890625 
Q 22.859375 7.515625 30.078125 7.515625 
Q 37.359375 7.515625 41.375 12.890625 
Q 45.40625 18.265625 45.40625 27.984375 
z
M 54.390625 6.78125 
Q 54.390625 -7.171875 48.1875 -13.984375 
Q 42 -20.796875 29.203125 -20.796875 
Q 24.46875 -20.796875 20.265625 -20.09375 
Q 16.0625 -19.390625 12.109375 -17.921875 
L 12.109375 -9.1875 
Q 16.0625 -11.328125 19.921875 -12.34375 
Q 23.78125 -13.375 27.78125 -13.375 
Q 36.625 -13.375 41.015625 -8.765625 
Q 45.40625 -4.15625 45.40625 5.171875 
L 45.40625 9.625 
Q 42.625 4.78125 38.28125 2.390625 
Q 33.9375 0 27.875 0 
Q 17.828125 0 11.671875 7.65625 
Q 5.515625 15.328125 5.515625 27.984375 
Q 5.515625 40.671875 11.671875 48.328125 
Q 17.828125 56 27.875 56 
Q 33.9375 56 38.28125 53.609375 
Q 42.625 51.21875 45.40625 46.390625 
L 45.40625 54.6875 
L 54.390625 54.6875 
z
" id="DejaVuSans-103"/>
        <path d="M 56.203125 29.59375 
L 56.203125 25.203125 
L 14.890625 25.203125 
Q 15.484375 15.921875 20.484375 11.0625 
Q 25.484375 6.203125 34.421875 6.203125 
Q 39.59375 6.203125 44.453125 7.46875 
Q 49.3125 8.734375 54.109375 11.28125 
L 54.109375 2.78125 
Q 49.265625 0.734375 44.1875 -0.34375 
Q 39.109375 -1.421875 33.890625 -1.421875 
Q 20.796875 -1.421875 13.15625 6.1875 
Q 5.515625 13.8125 5.515625 26.8125 
Q 5.515625 40.234375 12.765625 48.109375 
Q 20.015625 56 32.328125 56 
Q 43.359375 56 49.78125 48.890625 
Q 56.203125 41.796875 56.203125 29.59375 
z
M 47.21875 32.234375 
Q 47.125 39.59375 43.09375 43.984375 
Q 39.0625 48.390625 32.421875 48.390625 
Q 24.90625 48.390625 20.390625 44.140625 
Q 15.875 39.890625 15.1875 32.171875 
z
" id="DejaVuSans-101"/>
        <path d="M 54.890625 33.015625 
L 54.890625 0 
L 45.90625 0 
L 45.90625 32.71875 
Q 45.90625 40.484375 42.875 44.328125 
Q 39.84375 48.1875 33.796875 48.1875 
Q 26.515625 48.1875 22.3125 43.546875 
Q 18.109375 38.921875 18.109375 30.90625 
L 18.109375 0 
L 9.078125 0 
L 9.078125 54.6875 
L 18.109375 54.6875 
L 18.109375 46.1875 
Q 21.34375 51.125 25.703125 53.5625 
Q 30.078125 56 35.796875 56 
Q 45.21875 56 50.046875 50.171875 
Q 54.890625 44.34375 54.890625 33.015625 
z
" id="DejaVuSans-110"/>
        <path d="M 19.671875 34.8125 
L 19.671875 8.109375 
L 35.5 8.109375 
Q 43.453125 8.109375 47.28125 11.40625 
Q 51.125 14.703125 51.125 21.484375 
Q 51.125 28.328125 47.28125 31.5625 
Q 43.453125 34.8125 35.5 34.8125 
z
M 19.671875 64.796875 
L 19.671875 42.828125 
L 34.28125 42.828125 
Q 41.5 42.828125 45.03125 45.53125 
Q 48.578125 48.25 48.578125 53.8125 
Q 48.578125 59.328125 45.03125 62.0625 
Q 41.5 64.796875 34.28125 64.796875 
z
M 9.8125 72.90625 
L 35.015625 72.90625 
Q 46.296875 72.90625 52.390625 68.21875 
Q 58.5 63.53125 58.5 54.890625 
Q 58.5 48.1875 55.375 44.234375 
Q 52.25 40.28125 46.1875 39.3125 
Q 53.46875 37.75 57.5 32.78125 
Q 61.53125 27.828125 61.53125 20.40625 
Q 61.53125 10.640625 54.890625 5.3125 
Q 48.25 0 35.984375 0 
L 9.8125 0 
z
" id="DejaVuSans-66"/>
        <path d="M 41.109375 46.296875 
Q 39.59375 47.171875 37.8125 47.578125 
Q 36.03125 48 33.890625 48 
Q 26.265625 48 22.1875 43.046875 
Q 18.109375 38.09375 18.109375 28.8125 
L 18.109375 0 
L 9.078125 0 
L 9.078125 54.6875 
L 18.109375 54.6875 
L 18.109375 46.1875 
Q 20.953125 51.171875 25.484375 53.578125 
Q 30.03125 56 36.53125 56 
Q 37.453125 56 38.578125 55.875 
Q 39.703125 55.765625 41.0625 55.515625 
z
" id="DejaVuSans-114"/>
        <path d="M 34.28125 27.484375 
Q 23.390625 27.484375 19.1875 25 
Q 14.984375 22.515625 14.984375 16.5 
Q 14.984375 11.71875 18.140625 8.90625 
Q 21.296875 6.109375 26.703125 6.109375 
Q 34.1875 6.109375 38.703125 11.40625 
Q 43.21875 16.703125 43.21875 25.484375 
L 43.21875 27.484375 
z
M 52.203125 31.203125 
L 52.203125 0 
L 43.21875 0 
L 43.21875 8.296875 
Q 40.140625 3.328125 35.546875 0.953125 
Q 30.953125 -1.421875 24.3125 -1.421875 
Q 15.921875 -1.421875 10.953125 3.296875 
Q 6 8.015625 6 15.921875 
Q 6 25.140625 12.171875 29.828125 
Q 18.359375 34.515625 30.609375 34.515625 
L 43.21875 34.515625 
L 43.21875 35.40625 
Q 43.21875 41.609375 39.140625 45 
Q 35.0625 48.390625 27.6875 48.390625 
Q 23 48.390625 18.546875 47.265625 
Q 14.109375 46.140625 10.015625 43.890625 
L 10.015625 52.203125 
Q 14.9375 54.109375 19.578125 55.046875 
Q 24.21875 56 28.609375 56 
Q 40.484375 56 46.34375 49.84375 
Q 52.203125 43.703125 52.203125 31.203125 
z
" id="DejaVuSans-97"/>
        <path d="M 52 44.1875 
Q 55.375 50.25 60.0625 53.125 
Q 64.75 56 71.09375 56 
Q 79.640625 56 84.28125 50.015625 
Q 88.921875 44.046875 88.921875 33.015625 
L 88.921875 0 
L 79.890625 0 
L 79.890625 32.71875 
Q 79.890625 40.578125 77.09375 44.375 
Q 74.3125 48.1875 68.609375 48.1875 
Q 61.625 48.1875 57.5625 43.546875 
Q 53.515625 38.921875 53.515625 30.90625 
L 53.515625 0 
L 44.484375 0 
L 44.484375 32.71875 
Q 44.484375 40.625 41.703125 44.40625 
Q 38.921875 48.1875 33.109375 48.1875 
Q 26.21875 48.1875 22.15625 43.53125 
Q 18.109375 38.875 18.109375 30.90625 
L 18.109375 0 
L 9.078125 0 
L 9.078125 54.6875 
L 18.109375 54.6875 
L 18.109375 46.1875 
Q 21.1875 51.21875 25.484375 53.609375 
Q 29.78125 56 35.6875 56 
Q 41.65625 56 45.828125 52.96875 
Q 50 49.953125 52 44.1875 
z
" id="DejaVuSans-109"/>
       </defs>
       <use xlink:href="#DejaVuSans-86"/>
       <use x="66.158203" xlink:href="#DejaVuSans-105"/>
       <use x="93.941406" xlink:href="#DejaVuSans-122"/>
       <use x="146.431641" xlink:href="#DejaVuSans-103"/>
       <use x="209.908203" xlink:href="#DejaVuSans-101"/>
       <use x="271.431641" xlink:href="#DejaVuSans-110"/>
       <use x="334.810547" xlink:href="#DejaVuSans-32"/>
       <use x="366.597656" xlink:href="#DejaVuSans-66"/>
       <use x="435.201172" xlink:href="#DejaVuSans-114"/>
       <use x="476.314453" xlink:href="#DejaVuSans-97"/>
       <use x="537.59375" xlink:href="#DejaVuSans-105"/>
       <use x="565.376953" xlink:href="#DejaVuSans-110"/>
       <use x="628.755859" xlink:href="#DejaVuSans-109"/>
       <use x="726.167969" xlink:href="#DejaVuSans-97"/>
       <use x="787.447266" xlink:href="#DejaVuSans-112"/>
      </g>
     </g>
    </g>
    <g id="xtick_3">
     <g id="line2d_3">
      <g>
       <use style="stroke:#000000;stroke-width:0.8;" x="333" xlink:href="#m1b8f504de5" y="252"/>
      </g>
     </g>
     <g id="text_3">
      <!-- SeqFISH+ Cortex -->
      <g transform="translate(289.996094 266.598437)scale(0.1 -0.1)">
       <defs>
        <path d="M 14.796875 27.296875 
Q 14.796875 17.390625 18.875 11.75 
Q 22.953125 6.109375 30.078125 6.109375 
Q 37.203125 6.109375 41.296875 11.75 
Q 45.40625 17.390625 45.40625 27.296875 
Q 45.40625 37.203125 41.296875 42.84375 
Q 37.203125 48.484375 30.078125 48.484375 
Q 22.953125 48.484375 18.875 42.84375 
Q 14.796875 37.203125 14.796875 27.296875 
z
M 45.40625 8.203125 
Q 42.578125 3.328125 38.25 0.953125 
Q 33.9375 -1.421875 27.875 -1.421875 
Q 17.96875 -1.421875 11.734375 6.484375 
Q 5.515625 14.40625 5.515625 27.296875 
Q 5.515625 40.1875 11.734375 48.09375 
Q 17.96875 56 27.875 56 
Q 33.9375 56 38.25 53.625 
Q 42.578125 51.265625 45.40625 46.390625 
L 45.40625 54.6875 
L 54.390625 54.6875 
L 54.390625 -20.796875 
L 45.40625 -20.796875 
z
" id="DejaVuSans-113"/>
        <path d="M 46 62.703125 
L 46 35.5 
L 73.1875 35.5 
L 73.1875 27.203125 
L 46 27.203125 
L 46 0 
L 37.796875 0 
L 37.796875 27.203125 
L 10.59375 27.203125 
L 10.59375 35.5 
L 37.796875 35.5 
L 37.796875 62.703125 
z
" id="DejaVuSans-43"/>
        <path d="M 64.40625 67.28125 
L 64.40625 56.890625 
Q 59.421875 61.53125 53.78125 63.8125 
Q 48.140625 66.109375 41.796875 66.109375 
Q 29.296875 66.109375 22.65625 58.46875 
Q 16.015625 50.828125 16.015625 36.375 
Q 16.015625 21.96875 22.65625 14.328125 
Q 29.296875 6.6875 41.796875 6.6875 
Q 48.140625 6.6875 53.78125 8.984375 
Q 59.421875 11.28125 64.40625 15.921875 
L 64.40625 5.609375 
Q 59.234375 2.09375 53.4375 0.328125 
Q 47.65625 -1.421875 41.21875 -1.421875 
Q 24.65625 -1.421875 15.125 8.703125 
Q 5.609375 18.84375 5.609375 36.375 
Q 5.609375 53.953125 15.125 64.078125 
Q 24.65625 74.21875 41.21875 74.21875 
Q 47.75 74.21875 53.53125 72.484375 
Q 59.328125 70.75 64.40625 67.28125 
z
" id="DejaVuSans-67"/>
        <path d="M 30.609375 48.390625 
Q 23.390625 48.390625 19.1875 42.75 
Q 14.984375 37.109375 14.984375 27.296875 
Q 14.984375 17.484375 19.15625 11.84375 
Q 23.34375 6.203125 30.609375 6.203125 
Q 37.796875 6.203125 41.984375 11.859375 
Q 46.1875 17.53125 46.1875 27.296875 
Q 46.1875 37.015625 41.984375 42.703125 
Q 37.796875 48.390625 30.609375 48.390625 
z
M 30.609375 56 
Q 42.328125 56 49.015625 48.375 
Q 55.71875 40.765625 55.71875 27.296875 
Q 55.71875 13.875 49.015625 6.21875 
Q 42.328125 -1.421875 30.609375 -1.421875 
Q 18.84375 -1.421875 12.171875 6.21875 
Q 5.515625 13.875 5.515625 27.296875 
Q 5.515625 40.765625 12.171875 48.375 
Q 18.84375 56 30.609375 56 
z
" id="DejaVuSans-111"/>
        <path d="M 18.3125 70.21875 
L 18.3125 54.6875 
L 36.8125 54.6875 
L 36.8125 47.703125 
L 18.3125 47.703125 
L 18.3125 18.015625 
Q 18.3125 11.328125 20.140625 9.421875 
Q 21.96875 7.515625 27.59375 7.515625 
L 36.8125 7.515625 
L 36.8125 0 
L 27.59375 0 
Q 17.1875 0 13.234375 3.875 
Q 9.28125 7.765625 9.28125 18.015625 
L 9.28125 47.703125 
L 2.6875 47.703125 
L 2.6875 54.6875 
L 9.28125 54.6875 
L 9.28125 70.21875 
z
" id="DejaVuSans-116"/>
        <path d="M 54.890625 54.6875 
L 35.109375 28.078125 
L 55.90625 0 
L 45.3125 0 
L 29.390625 21.484375 
L 13.484375 0 
L 2.875 0 
L 24.125 28.609375 
L 4.6875 54.6875 
L 15.28125 54.6875 
L 29.78125 35.203125 
L 44.28125 54.6875 
z
" id="DejaVuSans-120"/>
       </defs>
       <use xlink:href="#DejaVuSans-83"/>
       <use x="63.476562" xlink:href="#DejaVuSans-101"/>
       <use x="125" xlink:href="#DejaVuSans-113"/>
       <use x="188.476562" xlink:href="#DejaVuSans-70"/>
       <use x="245.996094" xlink:href="#DejaVuSans-73"/>
       <use x="275.488281" xlink:href="#DejaVuSans-83"/>
       <use x="338.964844" xlink:href="#DejaVuSans-72"/>
       <use x="414.160156" xlink:href="#DejaVuSans-43"/>
       <use x="497.949219" xlink:href="#DejaVuSans-32"/>
       <use x="529.736328" xlink:href="#DejaVuSans-67"/>
       <use x="599.560547" xlink:href="#DejaVuSans-111"/>
       <use x="660.742188" xlink:href="#DejaVuSans-114"/>
       <use x="701.855469" xlink:href="#DejaVuSans-116"/>
       <use x="741.064453" xlink:href="#DejaVuSans-101"/>
       <use x="800.837891" xlink:href="#DejaVuSans-120"/>
      </g>
     </g>
    </g>
   </g>
   <g id="matplotlib.axis_2">
    <g id="ytick_1">
     <g id="line2d_4">
      <defs>
       <path d="M 0 0 
L -3.5 0 
" id="m487e7f5a22" style="stroke:#000000;stroke-width:0.8;"/>
      </defs>
      <g>
       <use style="stroke:#000000;stroke-width:0.8;" x="54" xlink:href="#m487e7f5a22" y="232.271764"/>
      </g>
     </g>
     <g id="text_4">
      <!-- −1.0 -->
      <g transform="translate(22.717187 236.070983)scale(0.1 -0.1)">
       <defs>
        <path d="M 10.59375 35.5 
L 73.1875 35.5 
L 73.1875 27.203125 
L 10.59375 27.203125 
z
" id="DejaVuSans-8722"/>
        <path d="M 12.40625 8.296875 
L 28.515625 8.296875 
L 28.515625 63.921875 
L 10.984375 60.40625 
L 10.984375 69.390625 
L 28.421875 72.90625 
L 38.28125 72.90625 
L 38.28125 8.296875 
L 54.390625 8.296875 
L 54.390625 0 
L 12.40625 0 
z
" id="DejaVuSans-49"/>
        <path d="M 10.6875 12.40625 
L 21 12.40625 
L 21 0 
L 10.6875 0 
z
" id="DejaVuSans-46"/>
        <path d="M 31.78125 66.40625 
Q 24.171875 66.40625 20.328125 58.90625 
Q 16.5 51.421875 16.5 36.375 
Q 16.5 21.390625 20.328125 13.890625 
Q 24.171875 6.390625 31.78125 6.390625 
Q 39.453125 6.390625 43.28125 13.890625 
Q 47.125 21.390625 47.125 36.375 
Q 47.125 51.421875 43.28125 58.90625 
Q 39.453125 66.40625 31.78125 66.40625 
z
M 31.78125 74.21875 
Q 44.046875 74.21875 50.515625 64.515625 
Q 56.984375 54.828125 56.984375 36.375 
Q 56.984375 17.96875 50.515625 8.265625 
Q 44.046875 -1.421875 31.78125 -1.421875 
Q 19.53125 -1.421875 13.0625 8.265625 
Q 6.59375 17.96875 6.59375 36.375 
Q 6.59375 54.828125 13.0625 64.515625 
Q 19.53125 74.21875 31.78125 74.21875 
z
" id="DejaVuSans-48"/>
       </defs>
       <use xlink:href="#DejaVuSans-8722"/>
       <use x="83.789062" xlink:href="#DejaVuSans-49"/>
       <use x="147.412109" xlink:href="#DejaVuSans-46"/>
       <use x="179.199219" xlink:href="#DejaVuSans-48"/>
      </g>
     </g>
    </g>
    <g id="ytick_2">
     <g id="line2d_5">
      <g>
       <use style="stroke:#000000;stroke-width:0.8;" x="54" xlink:href="#m487e7f5a22" y="186.936467"/>
      </g>
     </g>
     <g id="text_5">
      <!-- −0.5 -->
      <g transform="translate(22.717187 190.735686)scale(0.1 -0.1)">
       <defs>
        <path d="M 10.796875 72.90625 
L 49.515625 72.90625 
L 49.515625 64.59375 
L 19.828125 64.59375 
L 19.828125 46.734375 
Q 21.96875 47.46875 24.109375 47.828125 
Q 26.265625 48.1875 28.421875 48.1875 
Q 40.625 48.1875 47.75 41.5 
Q 54.890625 34.8125 54.890625 23.390625 
Q 54.890625 11.625 47.5625 5.09375 
Q 40.234375 -1.421875 26.90625 -1.421875 
Q 22.3125 -1.421875 17.546875 -0.640625 
Q 12.796875 0.140625 7.71875 1.703125 
L 7.71875 11.625 
Q 12.109375 9.234375 16.796875 8.0625 
Q 21.484375 6.890625 26.703125 6.890625 
Q 35.15625 6.890625 40.078125 11.328125 
Q 45.015625 15.765625 45.015625 23.390625 
Q 45.015625 31 40.078125 35.4375 
Q 35.15625 39.890625 26.703125 39.890625 
Q 22.75 39.890625 18.8125 39.015625 
Q 14.890625 38.140625 10.796875 36.28125 
z
" id="DejaVuSans-53"/>
       </defs>
       <use xlink:href="#DejaVuSans-8722"/>
       <use x="83.789062" xlink:href="#DejaVuSans-48"/>
       <use x="147.412109" xlink:href="#DejaVuSans-46"/>
       <use x="179.199219" xlink:href="#DejaVuSans-53"/>
      </g>
     </g>
    </g>
    <g id="ytick_3">
     <g id="line2d_6">
      <g>
       <use style="stroke:#000000;stroke-width:0.8;" x="54" xlink:href="#m487e7f5a22" y="141.601171"/>
      </g>
     </g>
     <g id="text_6">
      <!-- 0.0 -->
      <g transform="translate(31.096875 145.400389)scale(0.1 -0.1)">
       <use xlink:href="#DejaVuSans-48"/>
       <use x="63.623047" xlink:href="#DejaVuSans-46"/>
       <use x="95.410156" xlink:href="#DejaVuSans-48"/>
      </g>
     </g>
    </g>
    <g id="ytick_4">
     <g id="line2d_7">
      <g>
       <use style="stroke:#000000;stroke-width:0.8;" x="54" xlink:href="#m487e7f5a22" y="96.265874"/>
      </g>
     </g>
     <g id="text_7">
      <!-- 0.5 -->
      <g transform="translate(31.096875 100.065093)scale(0.1 -0.1)">
       <use xlink:href="#DejaVuSans-48"/>
       <use x="63.623047" xlink:href="#DejaVuSans-46"/>
       <use x="95.410156" xlink:href="#DejaVuSans-53"/>
      </g>
     </g>
    </g>
    <g id="ytick_5">
     <g id="line2d_8">
      <g>
       <use style="stroke:#000000;stroke-width:0.8;" x="54" xlink:href="#m487e7f5a22" y="50.930577"/>
      </g>
     </g>
     <g id="text_8">
      <!-- 1.0 -->
      <g transform="translate(31.096875 54.729796)scale(0.1 -0.1)">
       <use xlink:href="#DejaVuSans-49"/>
       <use x="63.623047" xlink:href="#DejaVuSans-46"/>
       <use x="95.410156" xlink:href="#DejaVuSans-48"/>
      </g>
     </g>
    </g>
    <g id="text_9">
     <!-- Per cell periphery score -->
     <g transform="translate(16.6375 202.179219)rotate(-90)scale(0.1 -0.1)">
      <defs>
       <path d="M 19.671875 64.796875 
L 19.671875 37.40625 
L 32.078125 37.40625 
Q 38.96875 37.40625 42.71875 40.96875 
Q 46.484375 44.53125 46.484375 51.125 
Q 46.484375 57.671875 42.71875 61.234375 
Q 38.96875 64.796875 32.078125 64.796875 
z
M 9.8125 72.90625 
L 32.078125 72.90625 
Q 44.34375 72.90625 50.609375 67.359375 
Q 56.890625 61.8125 56.890625 51.125 
Q 56.890625 40.328125 50.609375 34.8125 
Q 44.34375 29.296875 32.078125 29.296875 
L 19.671875 29.296875 
L 19.671875 0 
L 9.8125 0 
z
" id="DejaVuSans-80"/>
       <path d="M 48.78125 52.59375 
L 48.78125 44.1875 
Q 44.96875 46.296875 41.140625 47.34375 
Q 37.3125 48.390625 33.40625 48.390625 
Q 24.65625 48.390625 19.8125 42.84375 
Q 14.984375 37.3125 14.984375 27.296875 
Q 14.984375 17.28125 19.8125 11.734375 
Q 24.65625 6.203125 33.40625 6.203125 
Q 37.3125 6.203125 41.140625 7.25 
Q 44.96875 8.296875 48.78125 10.40625 
L 48.78125 2.09375 
Q 45.015625 0.34375 40.984375 -0.53125 
Q 36.96875 -1.421875 32.421875 -1.421875 
Q 20.0625 -1.421875 12.78125 6.34375 
Q 5.515625 14.109375 5.515625 27.296875 
Q 5.515625 40.671875 12.859375 48.328125 
Q 20.21875 56 33.015625 56 
Q 37.15625 56 41.109375 55.140625 
Q 45.0625 54.296875 48.78125 52.59375 
z
" id="DejaVuSans-99"/>
       <path d="M 9.421875 75.984375 
L 18.40625 75.984375 
L 18.40625 0 
L 9.421875 0 
z
" id="DejaVuSans-108"/>
       <path d="M 54.890625 33.015625 
L 54.890625 0 
L 45.90625 0 
L 45.90625 32.71875 
Q 45.90625 40.484375 42.875 44.328125 
Q 39.84375 48.1875 33.796875 48.1875 
Q 26.515625 48.1875 22.3125 43.546875 
Q 18.109375 38.921875 18.109375 30.90625 
L 18.109375 0 
L 9.078125 0 
L 9.078125 75.984375 
L 18.109375 75.984375 
L 18.109375 46.1875 
Q 21.34375 51.125 25.703125 53.5625 
Q 30.078125 56 35.796875 56 
Q 45.21875 56 50.046875 50.171875 
Q 54.890625 44.34375 54.890625 33.015625 
z
" id="DejaVuSans-104"/>
       <path d="M 32.171875 -5.078125 
Q 28.375 -14.84375 24.75 -17.8125 
Q 21.140625 -20.796875 15.09375 -20.796875 
L 7.90625 -20.796875 
L 7.90625 -13.28125 
L 13.1875 -13.28125 
Q 16.890625 -13.28125 18.9375 -11.515625 
Q 21 -9.765625 23.484375 -3.21875 
L 25.09375 0.875 
L 2.984375 54.6875 
L 12.5 54.6875 
L 29.59375 11.921875 
L 46.6875 54.6875 
L 56.203125 54.6875 
z
" id="DejaVuSans-121"/>
       <path d="M 44.28125 53.078125 
L 44.28125 44.578125 
Q 40.484375 46.53125 36.375 47.5 
Q 32.28125 48.484375 27.875 48.484375 
Q 21.1875 48.484375 17.84375 46.4375 
Q 14.5 44.390625 14.5 40.28125 
Q 14.5 37.15625 16.890625 35.375 
Q 19.28125 33.59375 26.515625 31.984375 
L 29.59375 31.296875 
Q 39.15625 29.25 43.1875 25.515625 
Q 47.21875 21.78125 47.21875 15.09375 
Q 47.21875 7.46875 41.1875 3.015625 
Q 35.15625 -1.421875 24.609375 -1.421875 
Q 20.21875 -1.421875 15.453125 -0.5625 
Q 10.6875 0.296875 5.421875 2 
L 5.421875 11.28125 
Q 10.40625 8.6875 15.234375 7.390625 
Q 20.0625 6.109375 24.8125 6.109375 
Q 31.15625 6.109375 34.5625 8.28125 
Q 37.984375 10.453125 37.984375 14.40625 
Q 37.984375 18.0625 35.515625 20.015625 
Q 33.0625 21.96875 24.703125 23.78125 
L 21.578125 24.515625 
Q 13.234375 26.265625 9.515625 29.90625 
Q 5.8125 33.546875 5.8125 39.890625 
Q 5.8125 47.609375 11.28125 51.796875 
Q 16.75 56 26.8125 56 
Q 31.78125 56 36.171875 55.265625 
Q 40.578125 54.546875 44.28125 53.078125 
z
" id="DejaVuSans-115"/>
      </defs>
      <use xlink:href="#DejaVuSans-80"/>
      <use x="56.677734" xlink:href="#DejaVuSans-101"/>
      <use x="118.201172" xlink:href="#DejaVuSans-114"/>
      <use x="159.314453" xlink:href="#DejaVuSans-32"/>
      <use x="191.101562" xlink:href="#DejaVuSans-99"/>
      <use x="246.082031" xlink:href="#DejaVuSans-101"/>
      <use x="307.605469" xlink:href="#DejaVuSans-108"/>
      <use x="335.388672" xlink:href="#DejaVuSans-108"/>
      <use x="363.171875" xlink:href="#DejaVuSans-32"/>
      <use x="394.958984" xlink:href="#DejaVuSans-112"/>
      <use x="458.435547" xlink:href="#DejaVuSans-101"/>
      <use x="519.958984" xlink:href="#DejaVuSans-114"/>
      <use x="561.072266" xlink:href="#DejaVuSans-105"/>
      <use x="588.855469" xlink:href="#DejaVuSans-112"/>
      <use x="652.332031" xlink:href="#DejaVuSans-104"/>
      <use x="715.710938" xlink:href="#DejaVuSans-101"/>
      <use x="777.234375" xlink:href="#DejaVuSans-114"/>
      <use x="818.347656" xlink:href="#DejaVuSans-121"/>
      <use x="877.527344" xlink:href="#DejaVuSans-32"/>
      <use x="909.314453" xlink:href="#DejaVuSans-115"/>
      <use x="961.414062" xlink:href="#DejaVuSans-99"/>
      <use x="1016.394531" xlink:href="#DejaVuSans-111"/>
      <use x="1077.576172" xlink:href="#DejaVuSans-114"/>
      <use x="1116.439453" xlink:href="#DejaVuSans-101"/>
     </g>
    </g>
   </g>
   <g id="line2d_9">
    <path clip-path="url(#p4bc42b1595)" d="M 109.8 218.520773 
L 109.8 65.212819 
" style="fill:none;stroke:#3e3e3e;stroke-linecap:square;stroke-width:1.5;"/>
   </g>
   <g id="line2d_10">
    <path clip-path="url(#p4bc42b1595)" d="M 109.8 161.030583 
L 109.8 122.703407 
" style="fill:none;stroke:#3e3e3e;stroke-linecap:square;stroke-width:4.5;"/>
   </g>
   <g id="line2d_11">
    <path clip-path="url(#p4bc42b1595)" d="M 221.4 221.205377 
L 221.4 69.860618 
" style="fill:none;stroke:#3e3e3e;stroke-linecap:square;stroke-width:1.5;"/>
   </g>
   <g id="line2d_12">
    <path clip-path="url(#p4bc42b1595)" d="M 221.4 164.450888 
L 221.4 126.614296 
" style="fill:none;stroke:#3e3e3e;stroke-linecap:square;stroke-width:4.5;"/>
   </g>
   <g id="line2d_13">
    <path clip-path="url(#p4bc42b1595)" d="M 333 231.646603 
L 333 52.044342 
" style="fill:none;stroke:#3e3e3e;stroke-linecap:square;stroke-width:1.5;"/>
   </g>
   <g id="line2d_14">
    <path clip-path="url(#p4bc42b1595)" d="M 333 164.319504 
L 333 118.323418 
" style="fill:none;stroke:#3e3e3e;stroke-linecap:square;stroke-width:4.5;"/>
   </g>
   <g id="patch_5">
    <path d="M 54 252 
L 54 34.56 
" style="fill:none;stroke:#000000;stroke-linecap:square;stroke-linejoin:miter;stroke-width:0.8;"/>
   </g>
   <g id="patch_6">
    <path d="M 388.8 252 
L 388.8 34.56 
" style="fill:none;stroke:#000000;stroke-linecap:square;stroke-linejoin:miter;stroke-width:0.8;"/>
   </g>
   <g id="patch_7">
    <path d="M 54 252 
L 388.8 252 
" style="fill:none;stroke:#000000;stroke-linecap:square;stroke-linejoin:miter;stroke-width:0.8;"/>
   </g>
   <g id="patch_8">
    <path d="M 54 34.56 
L 388.8 34.56 
" style="fill:none;stroke:#000000;stroke-linecap:square;stroke-linejoin:miter;stroke-width:0.8;"/>
   </g>
   <g id="PathCollection_1">
    <defs>
     <path d="M 0 1.5 
C 0.397805 1.5 0.77937 1.341951 1.06066 1.06066 
C 1.341951 0.77937 1.5 0.397805 1.5 0 
C 1.5 -0.397805 1.341951 -0.77937 1.06066 -1.06066 
C 0.77937 -1.341951 0.397805 -1.5 0 -1.5 
C -0.397805 -1.5 -0.77937 -1.341951 -1.06066 -1.06066 
C -1.341951 -0.77937 -1.5 -0.397805 -1.5 0 
C -1.5 0.397805 -1.341951 0.77937 -1.06066 1.06066 
C -0.77937 1.341951 -0.397805 1.5 0 1.5 
z
" id="m1f78067bbe" style="stroke:#3e3e3e;"/>
    </defs>
    <g clip-path="url(#p4bc42b1595)">
     <use style="fill:#ffffff;stroke:#3e3e3e;" x="109.8" xlink:href="#m1f78067bbe" y="141.601171"/>
    </g>
   </g>
   <g id="PathCollection_2">
    <g clip-path="url(#p4bc42b1595)">
     <use style="fill:#ffffff;stroke:#3e3e3e;" x="221.4" xlink:href="#m1f78067bbe" y="143.971644"/>
    </g>
   </g>
   <g id="PathCollection_3">
    <g clip-path="url(#p4bc42b1595)">
     <use style="fill:#ffffff;stroke:#3e3e3e;" x="333" xlink:href="#m1f78067bbe" y="141.43133"/>
    </g>
   </g>
   <g id="legend_1">
    <g id="patch_9">
     <path d="M 306.534375 86.594375 
L 381.8 86.594375 
Q 383.8 86.594375 383.8 84.594375 
L 383.8 41.56 
Q 383.8 39.56 381.8 39.56 
L 306.534375 39.56 
Q 304.534375 39.56 304.534375 41.56 
L 304.534375 84.594375 
Q 304.534375 86.594375 306.534375 86.594375 
z
" style="fill:#ffffff;opacity:0.8;stroke:#cccccc;stroke-linejoin:miter;"/>
    </g>
    <g id="text_10">
     <!-- Signal Peptide -->
     <g transform="translate(308.534375 51.158438)scale(0.1 -0.1)">
      <defs>
       <path d="M 45.40625 46.390625 
L 45.40625 75.984375 
L 54.390625 75.984375 
L 54.390625 0 
L 45.40625 0 
L 45.40625 8.203125 
Q 42.578125 3.328125 38.25 0.953125 
Q 33.9375 -1.421875 27.875 -1.421875 
Q 17.96875 -1.421875 11.734375 6.484375 
Q 5.515625 14.40625 5.515625 27.296875 
Q 5.515625 40.1875 11.734375 48.09375 
Q 17.96875 56 27.875 56 
Q 33.9375 56 38.25 53.625 
Q 42.578125 51.265625 45.40625 46.390625 
z
M 14.796875 27.296875 
Q 14.796875 17.390625 18.875 11.75 
Q 22.953125 6.109375 30.078125 6.109375 
Q 37.203125 6.109375 41.296875 11.75 
Q 45.40625 17.390625 45.40625 27.296875 
Q 45.40625 37.203125 41.296875 42.84375 
Q 37.203125 48.484375 30.078125 48.484375 
Q 22.953125 48.484375 18.875 42.84375 
Q 14.796875 37.203125 14.796875 27.296875 
z
" id="DejaVuSans-100"/>
      </defs>
      <use xlink:href="#DejaVuSans-83"/>
      <use x="63.476562" xlink:href="#DejaVuSans-105"/>
      <use x="91.259766" xlink:href="#DejaVuSans-103"/>
      <use x="154.736328" xlink:href="#DejaVuSans-110"/>
      <use x="218.115234" xlink:href="#DejaVuSans-97"/>
      <use x="279.394531" xlink:href="#DejaVuSans-108"/>
      <use x="307.177734" xlink:href="#DejaVuSans-32"/>
      <use x="338.964844" xlink:href="#DejaVuSans-80"/>
      <use x="395.642578" xlink:href="#DejaVuSans-101"/>
      <use x="457.166016" xlink:href="#DejaVuSans-112"/>
      <use x="520.642578" xlink:href="#DejaVuSans-116"/>
      <use x="559.851562" xlink:href="#DejaVuSans-105"/>
      <use x="587.634766" xlink:href="#DejaVuSans-100"/>
      <use x="651.111328" xlink:href="#DejaVuSans-101"/>
     </g>
    </g>
    <g id="patch_10">
     <path d="M 317.613281 65.836563 
L 337.613281 65.836563 
L 337.613281 58.836563 
L 317.613281 58.836563 
z
" style="fill:#c6c6c6;stroke:#3e3e3e;stroke-linejoin:miter;stroke-width:0.75;"/>
    </g>
    <g id="text_11">
     <!-- True -->
     <g transform="translate(345.613281 65.836563)scale(0.1 -0.1)">
      <defs>
       <path d="M -0.296875 72.90625 
L 61.375 72.90625 
L 61.375 64.59375 
L 35.5 64.59375 
L 35.5 0 
L 25.59375 0 
L 25.59375 64.59375 
L -0.296875 64.59375 
z
" id="DejaVuSans-84"/>
       <path d="M 8.5 21.578125 
L 8.5 54.6875 
L 17.484375 54.6875 
L 17.484375 21.921875 
Q 17.484375 14.15625 20.5 10.265625 
Q 23.53125 6.390625 29.59375 6.390625 
Q 36.859375 6.390625 41.078125 11.03125 
Q 45.3125 15.671875 45.3125 23.6875 
L 45.3125 54.6875 
L 54.296875 54.6875 
L 54.296875 0 
L 45.3125 0 
L 45.3125 8.40625 
Q 42.046875 3.421875 37.71875 1 
Q 33.40625 -1.421875 27.6875 -1.421875 
Q 18.265625 -1.421875 13.375 4.4375 
Q 8.5 10.296875 8.5 21.578125 
z
M 31.109375 56 
z
" id="DejaVuSans-117"/>
      </defs>
      <use xlink:href="#DejaVuSans-84"/>
      <use x="46.333984" xlink:href="#DejaVuSans-114"/>
      <use x="87.447266" xlink:href="#DejaVuSans-117"/>
      <use x="150.826172" xlink:href="#DejaVuSans-101"/>
     </g>
    </g>
    <g id="patch_11">
     <path d="M 317.613281 80.514688 
L 337.613281 80.514688 
L 337.613281 73.514688 
L 317.613281 73.514688 
z
" style="fill:#686868;stroke:#3e3e3e;stroke-linejoin:miter;stroke-width:0.75;"/>
    </g>
    <g id="text_12">
     <!-- False -->
     <g transform="translate(345.613281 80.514688)scale(0.1 -0.1)">
      <use xlink:href="#DejaVuSans-70"/>
      <use x="48.394531" xlink:href="#DejaVuSans-97"/>
      <use x="109.673828" xlink:href="#DejaVuSans-108"/>
      <use x="137.457031" xlink:href="#DejaVuSans-115"/>
      <use x="189.556641" xlink:href="#DejaVuSans-101"/>
     </g>
    </g>
   </g>
  </g>
 </g>
 <defs>
  <clipPath id="p4bc42b1595">
   <rect height="217.44" width="334.8" x="54" y="34.56"/>
  </clipPath>
 </defs>
</svg>
