<?xml version="1.0" encoding="utf-8" standalone="no"?>
<!DOCTYPE svg PUBLIC "-//W3C//DTD SVG 1.1//EN"
  "http://www.w3.org/Graphics/SVG/1.1/DTD/svg11.dtd">
<!-- Created with matplotlib (https://matplotlib.org/) -->
<svg height="381.274375pt" version="1.1" viewBox="0 0 453.896024 381.274375" width="453.896024pt" xmlns="http://www.w3.org/2000/svg" xmlns:xlink="http://www.w3.org/1999/xlink">
 <metadata>
  <rdf:RDF xmlns:cc="http://creativecommons.org/ns#" xmlns:dc="http://purl.org/dc/elements/1.1/" xmlns:rdf="http://www.w3.org/1999/02/22-rdf-syntax-ns#">
   <cc:Work>
    <dc:type rdf:resource="http://purl.org/dc/dcmitype/StillImage"/>
    <dc:date>2022-02-09T12:38:42.541821</dc:date>
    <dc:format>image/svg+xml</dc:format>
    <dc:creator>
     <cc:Agent>
      <dc:title>Matplotlib v3.3.3, https://matplotlib.org/</dc:title>
     </cc:Agent>
    </dc:creator>
   </cc:Work>
  </rdf:RDF>
 </metadata>
 <defs>
  <style type="text/css">*{stroke-linecap:butt;stroke-linejoin:round;}</style>
 </defs>
 <g id="figure_1">
  <g id="patch_1">
   <path d="M 0 381.274375 
L 453.896024 381.274375 
L 453.896024 0 
L 0 0 
z
" style="fill:none;"/>
  </g>
  <g id="axes_1">
   <g id="patch_2">
    <path d="M 52.160938 343.718125 
L 354.797274 343.718125 
L 354.797274 22.318125 
L 52.160938 22.318125 
z
" style="fill:#ffffff;"/>
   </g>
   <g id="PathCollection_1">
    <path clip-path="url(#pa90dc07cd8)" d="M 244.902872 331.230354 
C 245.465453 331.230354 246.005067 331.006839 246.402872 330.609034 
C 246.800677 330.211229 247.024192 329.671615 247.024192 329.109034 
C 247.024192 328.546453 246.800677 328.006839 246.402872 327.609034 
C 246.005067 327.211229 245.465453 326.987714 244.902872 326.987714 
C 244.340291 326.987714 243.800677 327.211229 243.402872 327.609034 
C 243.005067 328.006839 242.781552 328.546453 242.781552 329.109034 
C 242.781552 329.671615 243.005067 330.211229 243.402872 330.609034 
C 243.800677 331.006839 244.340291 331.230354 244.902872 331.230354 
z
" style="fill:#9467bd;stroke:#ffffff;stroke-width:0.339411;"/>
    <path clip-path="url(#pa90dc07cd8)" d="M 254.25772 331.230354 
L 255.31838 330.169694 
L 256.37904 331.230354 
L 257.4397 330.169694 
L 256.37904 329.109034 
L 257.4397 328.048374 
L 256.37904 326.987714 
L 255.31838 328.048374 
L 254.25772 326.987714 
L 253.19706 328.048374 
L 254.25772 329.109034 
L 253.19706 330.169694 
z
" style="fill:#9467bd;stroke:#ffffff;stroke-width:0.339411;"/>
    <path clip-path="url(#pa90dc07cd8)" d="M 244.902872 331.230354 
C 245.465453 331.230354 246.005067 331.006839 246.402872 330.609034 
C 246.800677 330.211229 247.024192 329.671615 247.024192 329.109034 
C 247.024192 328.546453 246.800677 328.006839 246.402872 327.609034 
C 246.005067 327.211229 245.465453 326.987714 244.902872 326.987714 
C 244.340291 326.987714 243.800677 327.211229 243.402872 327.609034 
C 243.005067 328.006839 242.781552 328.546453 242.781552 329.109034 
C 242.781552 329.671615 243.005067 330.211229 243.402872 330.609034 
C 243.800677 331.006839 244.340291 331.230354 244.902872 331.230354 
z
" style="fill:#9467bd;stroke:#ffffff;stroke-width:0.339411;"/>
    <path clip-path="url(#pa90dc07cd8)" d="M 219.756289 327.609034 
L 219.756289 330.609034 
L 222.756289 330.609034 
L 222.756289 327.609034 
z
" style="fill:#9467bd;stroke:#ffffff;stroke-width:0.339411;"/>
    <path clip-path="url(#pa90dc07cd8)" d="M 254.25772 331.230354 
L 255.31838 330.169694 
L 256.37904 331.230354 
L 257.4397 330.169694 
L 256.37904 329.109034 
L 257.4397 328.048374 
L 256.37904 326.987714 
L 255.31838 328.048374 
L 254.25772 326.987714 
L 253.19706 328.048374 
L 254.25772 329.109034 
L 253.19706 330.169694 
z
" style="fill:#9467bd;stroke:#ffffff;stroke-width:0.339411;"/>
    <path clip-path="url(#pa90dc07cd8)" d="M 219.756289 327.609034 
L 219.756289 330.609034 
L 222.756289 330.609034 
L 222.756289 327.609034 
z
" style="fill:#9467bd;stroke:#ffffff;stroke-width:0.339411;"/>
    <path clip-path="url(#pa90dc07cd8)" d="M 244.902872 318.069421 
C 246.028033 318.069421 247.107263 317.622389 247.902872 316.82678 
C 248.698481 316.031171 249.145513 314.951941 249.145513 313.82678 
C 249.145513 312.701618 248.698481 311.622389 247.902872 310.82678 
C 247.107263 310.031171 246.028033 309.584139 244.902872 309.584139 
C 243.77771 309.584139 242.698481 310.031171 241.902872 310.82678 
C 241.107263 311.622389 240.660231 312.701618 240.660231 313.82678 
C 240.660231 314.951941 241.107263 316.031171 241.902872 316.82678 
C 242.698481 317.622389 243.77771 318.069421 244.902872 318.069421 
z
" style="fill:#9467bd;stroke:#ffffff;stroke-width:0.339411;"/>
    <path clip-path="url(#pa90dc07cd8)" d="M 253.19706 318.069421 
L 255.31838 315.9481 
L 257.4397 318.069421 
L 259.561021 315.9481 
L 257.4397 313.82678 
L 259.561021 311.70546 
L 257.4397 309.584139 
L 255.31838 311.70546 
L 253.19706 309.584139 
L 251.075739 311.70546 
L 253.19706 313.82678 
L 251.075739 315.9481 
z
" style="fill:#9467bd;stroke:#ffffff;stroke-width:0.339411;"/>
    <path clip-path="url(#pa90dc07cd8)" d="M 244.902872 318.069421 
C 246.028033 318.069421 247.107263 317.622389 247.902872 316.82678 
C 248.698481 316.031171 249.145513 314.951941 249.145513 313.82678 
C 249.145513 312.701618 248.698481 311.622389 247.902872 310.82678 
C 247.107263 310.031171 246.028033 309.584139 244.902872 309.584139 
C 243.77771 309.584139 242.698481 310.031171 241.902872 310.82678 
C 241.107263 311.622389 240.660231 312.701618 240.660231 313.82678 
C 240.660231 314.951941 241.107263 316.031171 241.902872 316.82678 
C 242.698481 317.622389 243.77771 318.069421 244.902872 318.069421 
z
" style="fill:#9467bd;stroke:#ffffff;stroke-width:0.339411;"/>
    <path clip-path="url(#pa90dc07cd8)" d="M 218.256289 310.82678 
L 218.256289 316.82678 
L 224.256289 316.82678 
L 224.256289 310.82678 
z
" style="fill:#9467bd;stroke:#ffffff;stroke-width:0.339411;"/>
    <path clip-path="url(#pa90dc07cd8)" d="M 253.19706 318.069421 
L 255.31838 315.9481 
L 257.4397 318.069421 
L 259.561021 315.9481 
L 257.4397 313.82678 
L 259.561021 311.70546 
L 257.4397 309.584139 
L 255.31838 311.70546 
L 253.19706 309.584139 
L 251.075739 311.70546 
L 253.19706 313.82678 
L 251.075739 315.9481 
z
" style="fill:#9467bd;stroke:#ffffff;stroke-width:0.339411;"/>
    <path clip-path="url(#pa90dc07cd8)" d="M 218.256289 310.82678 
L 218.256289 316.82678 
L 224.256289 316.82678 
L 224.256289 310.82678 
z
" style="fill:#9467bd;stroke:#ffffff;stroke-width:0.339411;"/>
    <path clip-path="url(#pa90dc07cd8)" d="M 267.929313 321.367238 
L 268.989973 320.306578 
L 270.050633 321.367238 
L 271.111293 320.306578 
L 270.050633 319.245918 
L 271.111293 318.185257 
L 270.050633 317.124597 
L 268.989973 318.185257 
L 267.929313 317.124597 
L 266.868653 318.185257 
L 267.929313 319.245918 
L 266.868653 320.306578 
z
" style="fill:#e377c2;stroke:#ffffff;stroke-width:0.339411;"/>
    <path clip-path="url(#pa90dc07cd8)" d="M 330.260811 317.745918 
L 330.260811 320.745918 
L 333.260811 320.745918 
L 333.260811 317.745918 
z
" style="fill:#e377c2;stroke:#ffffff;stroke-width:0.339411;"/>
    <path clip-path="url(#pa90dc07cd8)" d="M 319.906318 321.367238 
L 321.320532 321.367238 
L 321.320532 319.953024 
L 322.734745 319.953024 
L 322.734745 318.538811 
L 321.320532 318.538811 
L 321.320532 317.124597 
L 319.906318 317.124597 
L 319.906318 318.538811 
L 318.492104 318.538811 
L 318.492104 319.953024 
L 319.906318 319.953024 
z
" style="fill:#e377c2;stroke:#ffffff;stroke-width:0.339411;"/>
    <path clip-path="url(#pa90dc07cd8)" d="M 267.929313 321.367238 
L 268.989973 320.306578 
L 270.050633 321.367238 
L 271.111293 320.306578 
L 270.050633 319.245918 
L 271.111293 318.185257 
L 270.050633 317.124597 
L 268.989973 318.185257 
L 267.929313 317.124597 
L 266.868653 318.185257 
L 267.929313 319.245918 
L 266.868653 320.306578 
z
" style="fill:#e377c2;stroke:#ffffff;stroke-width:0.339411;"/>
    <path clip-path="url(#pa90dc07cd8)" d="M 330.260811 317.745918 
L 330.260811 320.745918 
L 333.260811 320.745918 
L 333.260811 317.745918 
z
" style="fill:#e377c2;stroke:#ffffff;stroke-width:0.339411;"/>
    <path clip-path="url(#pa90dc07cd8)" d="M 266.868653 318.883941 
L 268.989973 316.762621 
L 271.111293 318.883941 
L 273.232614 316.762621 
L 271.111293 314.6413 
L 273.232614 312.51998 
L 271.111293 310.39866 
L 268.989973 312.51998 
L 266.868653 310.39866 
L 264.747332 312.51998 
L 266.868653 314.6413 
L 264.747332 316.762621 
z
" style="fill:#e377c2;stroke:#ffffff;stroke-width:0.339411;"/>
    <path clip-path="url(#pa90dc07cd8)" d="M 328.760811 311.6413 
L 328.760811 317.6413 
L 334.760811 317.6413 
L 334.760811 311.6413 
z
" style="fill:#e377c2;stroke:#ffffff;stroke-width:0.339411;"/>
    <path clip-path="url(#pa90dc07cd8)" d="M 319.199211 318.883941 
L 322.027638 318.883941 
L 322.027638 316.055514 
L 324.856066 316.055514 
L 324.856066 313.227087 
L 322.027638 313.227087 
L 322.027638 310.39866 
L 319.199211 310.39866 
L 319.199211 313.227087 
L 316.370784 313.227087 
L 316.370784 316.055514 
L 319.199211 316.055514 
z
" style="fill:#e377c2;stroke:#ffffff;stroke-width:0.339411;"/>
    <path clip-path="url(#pa90dc07cd8)" d="M 266.868653 318.883941 
L 268.989973 316.762621 
L 271.111293 318.883941 
L 273.232614 316.762621 
L 271.111293 314.6413 
L 273.232614 312.51998 
L 271.111293 310.39866 
L 268.989973 312.51998 
L 266.868653 310.39866 
L 264.747332 312.51998 
L 266.868653 314.6413 
L 264.747332 316.762621 
z
" style="fill:#e377c2;stroke:#ffffff;stroke-width:0.339411;"/>
    <path clip-path="url(#pa90dc07cd8)" d="M 328.760811 311.6413 
L 328.760811 317.6413 
L 334.760811 317.6413 
L 334.760811 311.6413 
z
" style="fill:#e377c2;stroke:#ffffff;stroke-width:0.339411;"/>
    <path clip-path="url(#pa90dc07cd8)" d="M 127.786246 43.242176 
C 128.348827 43.242176 128.888442 43.01866 129.286246 42.620856 
C 129.684051 42.223051 129.907567 41.683436 129.907567 41.120856 
C 129.907567 40.558275 129.684051 40.01866 129.286246 39.620856 
C 128.888442 39.223051 128.348827 38.999535 127.786246 38.999535 
C 127.223666 38.999535 126.684051 39.223051 126.286246 39.620856 
C 125.888442 40.01866 125.664926 40.558275 125.664926 41.120856 
C 125.664926 41.683436 125.888442 42.223051 126.286246 42.620856 
C 126.684051 43.01866 127.223666 43.242176 127.786246 43.242176 
z
" style="fill:#ff7f0e;stroke:#ffffff;stroke-width:0.339411;"/>
    <path clip-path="url(#pa90dc07cd8)" d="M 127.786246 43.242176 
C 128.348827 43.242176 128.888442 43.01866 129.286246 42.620856 
C 129.684051 42.223051 129.907567 41.683436 129.907567 41.120856 
C 129.907567 40.558275 129.684051 40.01866 129.286246 39.620856 
C 128.888442 39.223051 128.348827 38.999535 127.786246 38.999535 
C 127.223666 38.999535 126.684051 39.223051 126.286246 39.620856 
C 125.888442 40.01866 125.664926 40.558275 125.664926 41.120856 
C 125.664926 41.683436 125.888442 42.223051 126.286246 42.620856 
C 126.684051 43.01866 127.223666 43.242176 127.786246 43.242176 
z
" style="fill:#ff7f0e;stroke:#ffffff;stroke-width:0.339411;"/>
    <path clip-path="url(#pa90dc07cd8)" d="M 122.118575 39.620856 
L 122.118575 42.620856 
L 125.118575 42.620856 
L 125.118575 39.620856 
z
" style="fill:#ff7f0e;stroke:#ffffff;stroke-width:0.339411;"/>
    <path clip-path="url(#pa90dc07cd8)" d="M 122.118575 39.620856 
L 122.118575 42.620856 
L 125.118575 42.620856 
L 125.118575 39.620856 
z
" style="fill:#ff7f0e;stroke:#ffffff;stroke-width:0.339411;"/>
    <path clip-path="url(#pa90dc07cd8)" d="M 127.786246 41.169857 
C 128.911408 41.169857 129.990637 40.722825 130.786246 39.927216 
C 131.581856 39.131607 132.028887 38.052377 132.028887 36.927216 
C 132.028887 35.802054 131.581856 34.722825 130.786246 33.927216 
C 129.990637 33.131607 128.911408 32.684575 127.786246 32.684575 
C 126.661085 32.684575 125.581856 33.131607 124.786246 33.927216 
C 123.990637 34.722825 123.543606 35.802054 123.543606 36.927216 
C 123.543606 38.052377 123.990637 39.131607 124.786246 39.927216 
C 125.581856 40.722825 126.661085 41.169857 127.786246 41.169857 
z
" style="fill:#ff7f0e;stroke:#ffffff;stroke-width:0.339411;"/>
    <path clip-path="url(#pa90dc07cd8)" d="M 127.786246 41.169857 
C 128.911408 41.169857 129.990637 40.722825 130.786246 39.927216 
C 131.581856 39.131607 132.028887 38.052377 132.028887 36.927216 
C 132.028887 35.802054 131.581856 34.722825 130.786246 33.927216 
C 129.990637 33.131607 128.911408 32.684575 127.786246 32.684575 
C 126.661085 32.684575 125.581856 33.131607 124.786246 33.927216 
C 123.990637 34.722825 123.543606 35.802054 123.543606 36.927216 
C 123.543606 38.052377 123.990637 39.131607 124.786246 39.927216 
C 125.581856 40.722825 126.661085 41.169857 127.786246 41.169857 
z
" style="fill:#ff7f0e;stroke:#ffffff;stroke-width:0.339411;"/>
    <path clip-path="url(#pa90dc07cd8)" d="M 120.618575 33.927216 
L 120.618575 39.927216 
L 126.618575 39.927216 
L 126.618575 33.927216 
z
" style="fill:#ff7f0e;stroke:#ffffff;stroke-width:0.339411;"/>
    <path clip-path="url(#pa90dc07cd8)" d="M 120.618575 33.927216 
L 120.618575 39.927216 
L 126.618575 39.927216 
L 126.618575 33.927216 
z
" style="fill:#ff7f0e;stroke:#ffffff;stroke-width:0.339411;"/>
    <path clip-path="url(#pa90dc07cd8)" d="M 219.932565 51.849008 
C 220.495145 51.849008 221.03476 51.625492 221.432565 51.227688 
C 221.830369 50.829883 222.053885 50.290268 222.053885 49.727688 
C 222.053885 49.165107 221.830369 48.625492 221.432565 48.227688 
C 221.03476 47.829883 220.495145 47.606367 219.932565 47.606367 
C 219.369984 47.606367 218.830369 47.829883 218.432565 48.227688 
C 218.03476 48.625492 217.811244 49.165107 217.811244 49.727688 
C 217.811244 50.290268 218.03476 50.829883 218.432565 51.227688 
C 218.830369 51.625492 219.369984 51.849008 219.932565 51.849008 
z
" style="fill:#2ca02c;stroke:#ffffff;stroke-width:0.339411;"/>
    <path clip-path="url(#pa90dc07cd8)" d="M 219.932565 51.849008 
C 220.495145 51.849008 221.03476 51.625492 221.432565 51.227688 
C 221.830369 50.829883 222.053885 50.290268 222.053885 49.727688 
C 222.053885 49.165107 221.830369 48.625492 221.432565 48.227688 
C 221.03476 47.829883 220.495145 47.606367 219.932565 47.606367 
C 219.369984 47.606367 218.830369 47.829883 218.432565 48.227688 
C 218.03476 48.625492 217.811244 49.165107 217.811244 49.727688 
C 217.811244 50.290268 218.03476 50.829883 218.432565 51.227688 
C 218.830369 51.625492 219.369984 51.849008 219.932565 51.849008 
z
" style="fill:#2ca02c;stroke:#ffffff;stroke-width:0.339411;"/>
    <path clip-path="url(#pa90dc07cd8)" d="M 152.799498 48.227688 
L 152.799498 51.227688 
L 155.799498 51.227688 
L 155.799498 48.227688 
z
" style="fill:#2ca02c;stroke:#ffffff;stroke-width:0.339411;"/>
    <path clip-path="url(#pa90dc07cd8)" d="M 152.799498 48.227688 
L 152.799498 51.227688 
L 155.799498 51.227688 
L 155.799498 48.227688 
z
" style="fill:#2ca02c;stroke:#ffffff;stroke-width:0.339411;"/>
    <path clip-path="url(#pa90dc07cd8)" d="M 124.57493 108.460583 
C 125.137511 108.460583 125.677125 108.237067 126.07493 107.839262 
C 126.472735 107.441458 126.69625 106.901843 126.69625 106.339262 
C 126.69625 105.776682 126.472735 105.237067 126.07493 104.839262 
C 125.677125 104.441458 125.137511 104.217942 124.57493 104.217942 
C 124.012349 104.217942 123.472735 104.441458 123.07493 104.839262 
C 122.677125 105.237067 122.45361 105.776682 122.45361 106.339262 
C 122.45361 106.901843 122.677125 107.441458 123.07493 107.839262 
C 123.472735 108.237067 124.012349 108.460583 124.57493 108.460583 
z
" style="fill:#1f77b4;stroke:#ffffff;stroke-width:0.339411;"/>
    <path clip-path="url(#pa90dc07cd8)" d="M 64.856474 108.460583 
L 65.917135 107.399923 
L 66.977795 108.460583 
L 68.038455 107.399923 
L 66.977795 106.339262 
L 68.038455 105.278602 
L 66.977795 104.217942 
L 65.917135 105.278602 
L 64.856474 104.217942 
L 63.795814 105.278602 
L 64.856474 106.339262 
L 63.795814 107.399923 
z
" style="fill:#1f77b4;stroke:#ffffff;stroke-width:0.339411;"/>
    <path clip-path="url(#pa90dc07cd8)" d="M 124.57493 108.460583 
C 125.137511 108.460583 125.677125 108.237067 126.07493 107.839262 
C 126.472735 107.441458 126.69625 106.901843 126.69625 106.339262 
C 126.69625 105.776682 126.472735 105.237067 126.07493 104.839262 
C 125.677125 104.441458 125.137511 104.217942 124.57493 104.217942 
C 124.012349 104.217942 123.472735 104.441458 123.07493 104.839262 
C 122.677125 105.237067 122.45361 105.776682 122.45361 106.339262 
C 122.45361 106.901843 122.677125 107.441458 123.07493 107.839262 
C 123.472735 108.237067 124.012349 108.460583 124.57493 108.460583 
z
" style="fill:#1f77b4;stroke:#ffffff;stroke-width:0.339411;"/>
    <path clip-path="url(#pa90dc07cd8)" d="M 103.54466 104.839262 
L 103.54466 107.839262 
L 106.54466 107.839262 
L 106.54466 104.839262 
z
" style="fill:#1f77b4;stroke:#ffffff;stroke-width:0.339411;"/>
    <path clip-path="url(#pa90dc07cd8)" d="M 64.856474 108.460583 
L 65.917135 107.399923 
L 66.977795 108.460583 
L 68.038455 107.399923 
L 66.977795 106.339262 
L 68.038455 105.278602 
L 66.977795 104.217942 
L 65.917135 105.278602 
L 64.856474 104.217942 
L 63.795814 105.278602 
L 64.856474 106.339262 
L 63.795814 107.399923 
z
" style="fill:#1f77b4;stroke:#ffffff;stroke-width:0.339411;"/>
    <path clip-path="url(#pa90dc07cd8)" d="M 103.54466 104.839262 
L 103.54466 107.839262 
L 106.54466 107.839262 
L 106.54466 104.839262 
z
" style="fill:#1f77b4;stroke:#ffffff;stroke-width:0.339411;"/>
    <path clip-path="url(#pa90dc07cd8)" d="M 124.57493 107.078698 
C 125.700091 107.078698 126.779321 106.631666 127.57493 105.836057 
C 128.370539 105.040448 128.817571 103.961218 128.817571 102.836057 
C 128.817571 101.710896 128.370539 100.631666 127.57493 99.836057 
C 126.779321 99.040448 125.700091 98.593416 124.57493 98.593416 
C 123.449768 98.593416 122.370539 99.040448 121.57493 99.836057 
C 120.779321 100.631666 120.332289 101.710896 120.332289 102.836057 
C 120.332289 103.961218 120.779321 105.040448 121.57493 105.836057 
C 122.370539 106.631666 123.449768 107.078698 124.57493 107.078698 
z
" style="fill:#1f77b4;stroke:#ffffff;stroke-width:0.339411;"/>
    <path clip-path="url(#pa90dc07cd8)" d="M 63.795814 107.078698 
L 65.917135 104.957377 
L 68.038455 107.078698 
L 70.159775 104.957377 
L 68.038455 102.836057 
L 70.159775 100.714737 
L 68.038455 98.593416 
L 65.917135 100.714737 
L 63.795814 98.593416 
L 61.674494 100.714737 
L 63.795814 102.836057 
L 61.674494 104.957377 
z
" style="fill:#1f77b4;stroke:#ffffff;stroke-width:0.339411;"/>
    <path clip-path="url(#pa90dc07cd8)" d="M 124.57493 107.078698 
C 125.700091 107.078698 126.779321 106.631666 127.57493 105.836057 
C 128.370539 105.040448 128.817571 103.961218 128.817571 102.836057 
C 128.817571 101.710896 128.370539 100.631666 127.57493 99.836057 
C 126.779321 99.040448 125.700091 98.593416 124.57493 98.593416 
C 123.449768 98.593416 122.370539 99.040448 121.57493 99.836057 
C 120.779321 100.631666 120.332289 101.710896 120.332289 102.836057 
C 120.332289 103.961218 120.779321 105.040448 121.57493 105.836057 
C 122.370539 106.631666 123.449768 107.078698 124.57493 107.078698 
z
" style="fill:#1f77b4;stroke:#ffffff;stroke-width:0.339411;"/>
    <path clip-path="url(#pa90dc07cd8)" d="M 102.04466 99.836057 
L 102.04466 105.836057 
L 108.04466 105.836057 
L 108.04466 99.836057 
z
" style="fill:#1f77b4;stroke:#ffffff;stroke-width:0.339411;"/>
    <path clip-path="url(#pa90dc07cd8)" d="M 63.795814 107.078698 
L 65.917135 104.957377 
L 68.038455 107.078698 
L 70.159775 104.957377 
L 68.038455 102.836057 
L 70.159775 100.714737 
L 68.038455 98.593416 
L 65.917135 100.714737 
L 63.795814 98.593416 
L 61.674494 100.714737 
L 63.795814 102.836057 
L 61.674494 104.957377 
z
" style="fill:#1f77b4;stroke:#ffffff;stroke-width:0.339411;"/>
    <path clip-path="url(#pa90dc07cd8)" d="M 102.04466 99.836057 
L 102.04466 105.836057 
L 108.04466 105.836057 
L 108.04466 99.836057 
z
" style="fill:#1f77b4;stroke:#ffffff;stroke-width:0.339411;"/>
    <path clip-path="url(#pa90dc07cd8)" d="M 324.994724 135.998007 
C 325.557305 135.998007 326.096919 135.774491 326.494724 135.376687 
C 326.892528 134.978882 327.116044 134.439267 327.116044 133.876687 
C 327.116044 133.314106 326.892528 132.774491 326.494724 132.376687 
C 326.096919 131.978882 325.557305 131.755366 324.994724 131.755366 
C 324.432143 131.755366 323.892528 131.978882 323.494724 132.376687 
C 323.096919 132.774491 322.873404 133.314106 322.873404 133.876687 
C 322.873404 134.439267 323.096919 134.978882 323.494724 135.376687 
C 323.892528 135.774491 324.432143 135.998007 324.994724 135.998007 
z
" style="fill:#7f7f7f;stroke:#ffffff;stroke-width:0.339411;"/>
    <path clip-path="url(#pa90dc07cd8)" d="M 299.732042 135.998007 
L 300.792702 134.937347 
L 301.853362 135.998007 
L 302.914023 134.937347 
L 301.853362 133.876687 
L 302.914023 132.816026 
L 301.853362 131.755366 
L 300.792702 132.816026 
L 299.732042 131.755366 
L 298.671382 132.816026 
L 299.732042 133.876687 
L 298.671382 134.937347 
z
" style="fill:#7f7f7f;stroke:#ffffff;stroke-width:0.339411;"/>
    <path clip-path="url(#pa90dc07cd8)" d="M 324.994724 135.998007 
C 325.557305 135.998007 326.096919 135.774491 326.494724 135.376687 
C 326.892528 134.978882 327.116044 134.439267 327.116044 133.876687 
C 327.116044 133.314106 326.892528 132.774491 326.494724 132.376687 
C 326.096919 131.978882 325.557305 131.755366 324.994724 131.755366 
C 324.432143 131.755366 323.892528 131.978882 323.494724 132.376687 
C 323.096919 132.774491 322.873404 133.314106 322.873404 133.876687 
C 322.873404 134.439267 323.096919 134.978882 323.494724 135.376687 
C 323.892528 135.774491 324.432143 135.998007 324.994724 135.998007 
z
" style="fill:#7f7f7f;stroke:#ffffff;stroke-width:0.339411;"/>
    <path clip-path="url(#pa90dc07cd8)" d="M 301.065803 132.376687 
L 301.065803 135.376687 
L 304.065803 135.376687 
L 304.065803 132.376687 
z
" style="fill:#7f7f7f;stroke:#ffffff;stroke-width:0.339411;"/>
    <path clip-path="url(#pa90dc07cd8)" d="M 275.671015 135.998007 
L 277.085228 135.998007 
L 277.085228 134.583793 
L 278.499442 134.583793 
L 278.499442 133.16958 
L 277.085228 133.16958 
L 277.085228 131.755366 
L 275.671015 131.755366 
L 275.671015 133.16958 
L 274.256801 133.16958 
L 274.256801 134.583793 
L 275.671015 134.583793 
z
" style="fill:#7f7f7f;stroke:#ffffff;stroke-width:0.339411;"/>
    <path clip-path="url(#pa90dc07cd8)" d="M 299.732042 135.998007 
L 300.792702 134.937347 
L 301.853362 135.998007 
L 302.914023 134.937347 
L 301.853362 133.876687 
L 302.914023 132.816026 
L 301.853362 131.755366 
L 300.792702 132.816026 
L 299.732042 131.755366 
L 298.671382 132.816026 
L 299.732042 133.876687 
L 298.671382 134.937347 
z
" style="fill:#7f7f7f;stroke:#ffffff;stroke-width:0.339411;"/>
    <path clip-path="url(#pa90dc07cd8)" d="M 301.065803 132.376687 
L 301.065803 135.376687 
L 304.065803 135.376687 
L 304.065803 132.376687 
z
" style="fill:#7f7f7f;stroke:#ffffff;stroke-width:0.339411;"/>
    <path clip-path="url(#pa90dc07cd8)" d="M 324.994724 130.588652 
C 326.119885 130.588652 327.199115 130.14162 327.994724 129.346011 
C 328.790333 128.550402 329.237365 127.471172 329.237365 126.346011 
C 329.237365 125.22085 328.790333 124.14162 327.994724 123.346011 
C 327.199115 122.550402 326.119885 122.10337 324.994724 122.10337 
C 323.869562 122.10337 322.790333 122.550402 321.994724 123.346011 
C 321.199115 124.14162 320.752083 125.22085 320.752083 126.346011 
C 320.752083 127.471172 321.199115 128.550402 321.994724 129.346011 
C 322.790333 130.14162 323.869562 130.588652 324.994724 130.588652 
z
" style="fill:#7f7f7f;stroke:#ffffff;stroke-width:0.339411;"/>
    <path clip-path="url(#pa90dc07cd8)" d="M 298.671382 130.588652 
L 300.792702 128.467331 
L 302.914023 130.588652 
L 305.035343 128.467331 
L 302.914023 126.346011 
L 305.035343 124.224691 
L 302.914023 122.10337 
L 300.792702 124.224691 
L 298.671382 122.10337 
L 296.550062 124.224691 
L 298.671382 126.346011 
L 296.550062 128.467331 
z
" style="fill:#7f7f7f;stroke:#ffffff;stroke-width:0.339411;"/>
    <path clip-path="url(#pa90dc07cd8)" d="M 324.994724 130.588652 
C 326.119885 130.588652 327.199115 130.14162 327.994724 129.346011 
C 328.790333 128.550402 329.237365 127.471172 329.237365 126.346011 
C 329.237365 125.22085 328.790333 124.14162 327.994724 123.346011 
C 327.199115 122.550402 326.119885 122.10337 324.994724 122.10337 
C 323.869562 122.10337 322.790333 122.550402 321.994724 123.346011 
C 321.199115 124.14162 320.752083 125.22085 320.752083 126.346011 
C 320.752083 127.471172 321.199115 128.550402 321.994724 129.346011 
C 322.790333 130.14162 323.869562 130.588652 324.994724 130.588652 
z
" style="fill:#7f7f7f;stroke:#ffffff;stroke-width:0.339411;"/>
    <path clip-path="url(#pa90dc07cd8)" d="M 299.565803 123.346011 
L 299.565803 129.346011 
L 305.565803 129.346011 
L 305.565803 123.346011 
z
" style="fill:#7f7f7f;stroke:#ffffff;stroke-width:0.339411;"/>
    <path clip-path="url(#pa90dc07cd8)" d="M 274.963908 130.588652 
L 277.792335 130.588652 
L 277.792335 127.760225 
L 280.620762 127.760225 
L 280.620762 124.931797 
L 277.792335 124.931797 
L 277.792335 122.10337 
L 274.963908 122.10337 
L 274.963908 124.931797 
L 272.135481 124.931797 
L 272.135481 127.760225 
L 274.963908 127.760225 
z
" style="fill:#7f7f7f;stroke:#ffffff;stroke-width:0.339411;"/>
    <path clip-path="url(#pa90dc07cd8)" d="M 298.671382 130.588652 
L 300.792702 128.467331 
L 302.914023 130.588652 
L 305.035343 128.467331 
L 302.914023 126.346011 
L 305.035343 124.224691 
L 302.914023 122.10337 
L 300.792702 124.224691 
L 298.671382 122.10337 
L 296.550062 124.224691 
L 298.671382 126.346011 
L 296.550062 128.467331 
z
" style="fill:#7f7f7f;stroke:#ffffff;stroke-width:0.339411;"/>
    <path clip-path="url(#pa90dc07cd8)" d="M 299.565803 123.346011 
L 299.565803 129.346011 
L 305.565803 129.346011 
L 305.565803 123.346011 
z
" style="fill:#7f7f7f;stroke:#ffffff;stroke-width:0.339411;"/>
    <path clip-path="url(#pa90dc07cd8)" d="M 213.286486 265.945937 
L 213.286486 268.945937 
L 216.286486 268.945937 
L 216.286486 265.945937 
z
" style="fill:#d62728;stroke:#ffffff;stroke-width:0.339411;"/>
    <path clip-path="url(#pa90dc07cd8)" d="M 213.286486 265.945937 
L 213.286486 268.945937 
L 216.286486 268.945937 
L 216.286486 265.945937 
z
" style="fill:#d62728;stroke:#ffffff;stroke-width:0.339411;"/>
    <path clip-path="url(#pa90dc07cd8)" d="M 211.786486 283.870373 
L 211.786486 289.870373 
L 217.786486 289.870373 
L 217.786486 283.870373 
z
" style="fill:#d62728;stroke:#ffffff;stroke-width:0.339411;"/>
    <path clip-path="url(#pa90dc07cd8)" d="M 211.786486 283.870373 
L 211.786486 289.870373 
L 217.786486 289.870373 
L 217.786486 283.870373 
z
" style="fill:#d62728;stroke:#ffffff;stroke-width:0.339411;"/>
    <path clip-path="url(#pa90dc07cd8)" d="M 339.541077 317.459572 
L 339.541077 320.459572 
L 342.541077 320.459572 
L 342.541077 317.459572 
z
" style="fill:#17becf;stroke:#ffffff;stroke-width:0.339411;"/>
    <path clip-path="url(#pa90dc07cd8)" d="M 339.541077 317.459572 
L 339.541077 320.459572 
L 342.541077 320.459572 
L 342.541077 317.459572 
z
" style="fill:#17becf;stroke:#ffffff;stroke-width:0.339411;"/>
    <path clip-path="url(#pa90dc07cd8)" d="M 338.041077 316.465767 
L 338.041077 322.465767 
L 344.041077 322.465767 
L 344.041077 316.465767 
z
" style="fill:#17becf;stroke:#ffffff;stroke-width:0.339411;"/>
    <path clip-path="url(#pa90dc07cd8)" d="M 338.041077 316.465767 
L 338.041077 322.465767 
L 344.041077 322.465767 
L 344.041077 316.465767 
z
" style="fill:#17becf;stroke:#ffffff;stroke-width:0.339411;"/>
    <path clip-path="url(#pa90dc07cd8)" d="M 332.228552 214.244568 
C 332.791132 214.244568 333.330747 214.021052 333.728552 213.623247 
C 334.126356 213.225443 334.349872 212.685828 334.349872 212.123247 
C 334.349872 211.560667 334.126356 211.021052 333.728552 210.623247 
C 333.330747 210.225443 332.791132 210.001927 332.228552 210.001927 
C 331.665971 210.001927 331.126356 210.225443 330.728552 210.623247 
C 330.330747 211.021052 330.107231 211.560667 330.107231 212.123247 
C 330.107231 212.685828 330.330747 213.225443 330.728552 213.623247 
C 331.126356 214.021052 331.665971 214.244568 332.228552 214.244568 
z
" style="fill:#bcbd22;stroke:#ffffff;stroke-width:0.339411;"/>
    <path clip-path="url(#pa90dc07cd8)" d="M 296.080833 214.244568 
L 297.141493 213.183908 
L 298.202153 214.244568 
L 299.262813 213.183908 
L 298.202153 212.123247 
L 299.262813 211.062587 
L 298.202153 210.001927 
L 297.141493 211.062587 
L 296.080833 210.001927 
L 295.020173 211.062587 
L 296.080833 212.123247 
L 295.020173 213.183908 
z
" style="fill:#bcbd22;stroke:#ffffff;stroke-width:0.339411;"/>
    <path clip-path="url(#pa90dc07cd8)" d="M 332.228552 214.244568 
C 332.791132 214.244568 333.330747 214.021052 333.728552 213.623247 
C 334.126356 213.225443 334.349872 212.685828 334.349872 212.123247 
C 334.349872 211.560667 334.126356 211.021052 333.728552 210.623247 
C 333.330747 210.225443 332.791132 210.001927 332.228552 210.001927 
C 331.665971 210.001927 331.126356 210.225443 330.728552 210.623247 
C 330.330747 211.021052 330.107231 211.560667 330.107231 212.123247 
C 330.107231 212.685828 330.330747 213.225443 330.728552 213.623247 
C 331.126356 214.021052 331.665971 214.244568 332.228552 214.244568 
z
" style="fill:#bcbd22;stroke:#ffffff;stroke-width:0.339411;"/>
    <path clip-path="url(#pa90dc07cd8)" d="M 307.793267 210.623247 
L 307.793267 213.623247 
L 310.793267 213.623247 
L 310.793267 210.623247 
z
" style="fill:#bcbd22;stroke:#ffffff;stroke-width:0.339411;"/>
    <path clip-path="url(#pa90dc07cd8)" d="M 290.762746 214.244568 
L 292.176959 214.244568 
L 292.176959 212.830354 
L 293.591173 212.830354 
L 293.591173 211.416141 
L 292.176959 211.416141 
L 292.176959 210.001927 
L 290.762746 210.001927 
L 290.762746 211.416141 
L 289.348532 211.416141 
L 289.348532 212.830354 
L 290.762746 212.830354 
z
" style="fill:#bcbd22;stroke:#ffffff;stroke-width:0.339411;"/>
    <path clip-path="url(#pa90dc07cd8)" d="M 296.080833 214.244568 
L 297.141493 213.183908 
L 298.202153 214.244568 
L 299.262813 213.183908 
L 298.202153 212.123247 
L 299.262813 211.062587 
L 298.202153 210.001927 
L 297.141493 211.062587 
L 296.080833 210.001927 
L 295.020173 211.062587 
L 296.080833 212.123247 
L 295.020173 213.183908 
z
" style="fill:#bcbd22;stroke:#ffffff;stroke-width:0.339411;"/>
    <path clip-path="url(#pa90dc07cd8)" d="M 307.793267 210.623247 
L 307.793267 213.623247 
L 310.793267 213.623247 
L 310.793267 210.623247 
z
" style="fill:#bcbd22;stroke:#ffffff;stroke-width:0.339411;"/>
    <path clip-path="url(#pa90dc07cd8)" d="M 332.228552 219.576679 
C 333.353713 219.576679 334.432942 219.129648 335.228552 218.334038 
C 336.024161 217.538429 336.471192 216.4592 336.471192 215.334038 
C 336.471192 214.208877 336.024161 213.129648 335.228552 212.334038 
C 334.432942 211.538429 333.353713 211.091398 332.228552 211.091398 
C 331.10339 211.091398 330.024161 211.538429 329.228552 212.334038 
C 328.432942 213.129648 327.985911 214.208877 327.985911 215.334038 
C 327.985911 216.4592 328.432942 217.538429 329.228552 218.334038 
C 330.024161 219.129648 331.10339 219.576679 332.228552 219.576679 
z
" style="fill:#bcbd22;stroke:#ffffff;stroke-width:0.339411;"/>
    <path clip-path="url(#pa90dc07cd8)" d="M 295.020173 219.576679 
L 297.141493 217.455359 
L 299.262813 219.576679 
L 301.384134 217.455359 
L 299.262813 215.334038 
L 301.384134 213.212718 
L 299.262813 211.091398 
L 297.141493 213.212718 
L 295.020173 211.091398 
L 292.898852 213.212718 
L 295.020173 215.334038 
L 292.898852 217.455359 
z
" style="fill:#bcbd22;stroke:#ffffff;stroke-width:0.339411;"/>
    <path clip-path="url(#pa90dc07cd8)" d="M 332.228552 219.576679 
C 333.353713 219.576679 334.432942 219.129648 335.228552 218.334038 
C 336.024161 217.538429 336.471192 216.4592 336.471192 215.334038 
C 336.471192 214.208877 336.024161 213.129648 335.228552 212.334038 
C 334.432942 211.538429 333.353713 211.091398 332.228552 211.091398 
C 331.10339 211.091398 330.024161 211.538429 329.228552 212.334038 
C 328.432942 213.129648 327.985911 214.208877 327.985911 215.334038 
C 327.985911 216.4592 328.432942 217.538429 329.228552 218.334038 
C 330.024161 219.129648 331.10339 219.576679 332.228552 219.576679 
z
" style="fill:#bcbd22;stroke:#ffffff;stroke-width:0.339411;"/>
    <path clip-path="url(#pa90dc07cd8)" d="M 306.293267 212.334038 
L 306.293267 218.334038 
L 312.293267 218.334038 
L 312.293267 212.334038 
z
" style="fill:#bcbd22;stroke:#ffffff;stroke-width:0.339411;"/>
    <path clip-path="url(#pa90dc07cd8)" d="M 290.055639 219.576679 
L 292.884066 219.576679 
L 292.884066 216.748252 
L 295.712493 216.748252 
L 295.712493 213.919825 
L 292.884066 213.919825 
L 292.884066 211.091398 
L 290.055639 211.091398 
L 290.055639 213.919825 
L 287.227212 213.919825 
L 287.227212 216.748252 
L 290.055639 216.748252 
z
" style="fill:#bcbd22;stroke:#ffffff;stroke-width:0.339411;"/>
    <path clip-path="url(#pa90dc07cd8)" d="M 295.020173 219.576679 
L 297.141493 217.455359 
L 299.262813 219.576679 
L 301.384134 217.455359 
L 299.262813 215.334038 
L 301.384134 213.212718 
L 299.262813 211.091398 
L 297.141493 213.212718 
L 295.020173 211.091398 
L 292.898852 213.212718 
L 295.020173 215.334038 
L 292.898852 217.455359 
z
" style="fill:#bcbd22;stroke:#ffffff;stroke-width:0.339411;"/>
    <path clip-path="url(#pa90dc07cd8)" d="M 306.293267 212.334038 
L 306.293267 218.334038 
L 312.293267 218.334038 
L 312.293267 212.334038 
z
" style="fill:#bcbd22;stroke:#ffffff;stroke-width:0.339411;"/>
    <path clip-path="url(#pa90dc07cd8)" d="M 274.906273 247.286145 
C 275.468853 247.286145 276.008468 247.062629 276.406273 246.664824 
C 276.804077 246.26702 277.027593 245.727405 277.027593 245.164824 
C 277.027593 244.602244 276.804077 244.062629 276.406273 243.664824 
C 276.008468 243.26702 275.468853 243.043504 274.906273 243.043504 
C 274.343692 243.043504 273.804077 243.26702 273.406273 243.664824 
C 273.008468 244.062629 272.784952 244.602244 272.784952 245.164824 
C 272.784952 245.727405 273.008468 246.26702 273.406273 246.664824 
C 273.804077 247.062629 274.343692 247.286145 274.906273 247.286145 
z
" style="fill:#8c564b;stroke:#ffffff;stroke-width:0.339411;"/>
    <path clip-path="url(#pa90dc07cd8)" d="M 262.830734 247.286145 
L 263.891394 246.225485 
L 264.952054 247.286145 
L 266.012714 246.225485 
L 264.952054 245.164824 
L 266.012714 244.104164 
L 264.952054 243.043504 
L 263.891394 244.104164 
L 262.830734 243.043504 
L 261.770074 244.104164 
L 262.830734 245.164824 
L 261.770074 246.225485 
z
" style="fill:#8c564b;stroke:#ffffff;stroke-width:0.339411;"/>
    <path clip-path="url(#pa90dc07cd8)" d="M 274.906273 247.286145 
C 275.468853 247.286145 276.008468 247.062629 276.406273 246.664824 
C 276.804077 246.26702 277.027593 245.727405 277.027593 245.164824 
C 277.027593 244.602244 276.804077 244.062629 276.406273 243.664824 
C 276.008468 243.26702 275.468853 243.043504 274.906273 243.043504 
C 274.343692 243.043504 273.804077 243.26702 273.406273 243.664824 
C 273.008468 244.062629 272.784952 244.602244 272.784952 245.164824 
C 272.784952 245.727405 273.008468 246.26702 273.406273 246.664824 
C 273.804077 247.062629 274.343692 247.286145 274.906273 247.286145 
z
" style="fill:#8c564b;stroke:#ffffff;stroke-width:0.339411;"/>
    <path clip-path="url(#pa90dc07cd8)" d="M 278.440492 243.664824 
L 278.440492 246.664824 
L 281.440492 246.664824 
L 281.440492 243.664824 
z
" style="fill:#8c564b;stroke:#ffffff;stroke-width:0.339411;"/>
    <path clip-path="url(#pa90dc07cd8)" d="M 281.973203 247.286145 
L 283.387416 247.286145 
L 283.387416 245.871931 
L 284.80163 245.871931 
L 284.80163 244.457718 
L 283.387416 244.457718 
L 283.387416 243.043504 
L 281.973203 243.043504 
L 281.973203 244.457718 
L 280.558989 244.457718 
L 280.558989 245.871931 
L 281.973203 245.871931 
z
" style="fill:#8c564b;stroke:#ffffff;stroke-width:0.339411;"/>
    <path clip-path="url(#pa90dc07cd8)" d="M 262.830734 247.286145 
L 263.891394 246.225485 
L 264.952054 247.286145 
L 266.012714 246.225485 
L 264.952054 245.164824 
L 266.012714 244.104164 
L 264.952054 243.043504 
L 263.891394 244.104164 
L 262.830734 243.043504 
L 261.770074 244.104164 
L 262.830734 245.164824 
L 261.770074 246.225485 
z
" style="fill:#8c564b;stroke:#ffffff;stroke-width:0.339411;"/>
    <path clip-path="url(#pa90dc07cd8)" d="M 278.440492 243.664824 
L 278.440492 246.664824 
L 281.440492 246.664824 
L 281.440492 243.664824 
z
" style="fill:#8c564b;stroke:#ffffff;stroke-width:0.339411;"/>
   </g>
   <g id="PathCollection_2"/>
   <g id="PathCollection_3"/>
   <g id="PathCollection_4"/>
   <g id="PathCollection_5"/>
   <g id="PathCollection_6"/>
   <g id="PathCollection_7"/>
   <g id="PathCollection_8"/>
   <g id="PathCollection_9"/>
   <g id="PathCollection_10"/>
   <g id="PathCollection_11"/>
   <g id="PathCollection_12"/>
   <g id="PathCollection_13"/>
   <g id="PathCollection_14"/>
   <g id="PathCollection_15"/>
   <g id="PathCollection_16"/>
   <g id="PathCollection_17"/>
   <g id="matplotlib.axis_1">
    <g id="xtick_1">
     <g id="line2d_1">
      <defs>
       <path d="M 0 0 
L 0 3.5 
" id="mfac5eb291f" style="stroke:#000000;stroke-width:0.8;"/>
      </defs>
      <g>
       <use style="stroke:#000000;stroke-width:0.8;" x="83.445304" xlink:href="#mfac5eb291f" y="343.718125"/>
      </g>
     </g>
     <g id="text_1">
      <!-- −0.75 -->
      <g transform="translate(68.122648 358.316562)scale(0.1 -0.1)">
       <defs>
        <path d="M 10.59375 35.5 
L 73.1875 35.5 
L 73.1875 27.203125 
L 10.59375 27.203125 
z
" id="DejaVuSans-8722"/>
        <path d="M 31.78125 66.40625 
Q 24.171875 66.40625 20.328125 58.90625 
Q 16.5 51.421875 16.5 36.375 
Q 16.5 21.390625 20.328125 13.890625 
Q 24.171875 6.390625 31.78125 6.390625 
Q 39.453125 6.390625 43.28125 13.890625 
Q 47.125 21.390625 47.125 36.375 
Q 47.125 51.421875 43.28125 58.90625 
Q 39.453125 66.40625 31.78125 66.40625 
z
M 31.78125 74.21875 
Q 44.046875 74.21875 50.515625 64.515625 
Q 56.984375 54.828125 56.984375 36.375 
Q 56.984375 17.96875 50.515625 8.265625 
Q 44.046875 -1.421875 31.78125 -1.421875 
Q 19.53125 -1.421875 13.0625 8.265625 
Q 6.59375 17.96875 6.59375 36.375 
Q 6.59375 54.828125 13.0625 64.515625 
Q 19.53125 74.21875 31.78125 74.21875 
z
" id="DejaVuSans-48"/>
        <path d="M 10.6875 12.40625 
L 21 12.40625 
L 21 0 
L 10.6875 0 
z
" id="DejaVuSans-46"/>
        <path d="M 8.203125 72.90625 
L 55.078125 72.90625 
L 55.078125 68.703125 
L 28.609375 0 
L 18.3125 0 
L 43.21875 64.59375 
L 8.203125 64.59375 
z
" id="DejaVuSans-55"/>
        <path d="M 10.796875 72.90625 
L 49.515625 72.90625 
L 49.515625 64.59375 
L 19.828125 64.59375 
L 19.828125 46.734375 
Q 21.96875 47.46875 24.109375 47.828125 
Q 26.265625 48.1875 28.421875 48.1875 
Q 40.625 48.1875 47.75 41.5 
Q 54.890625 34.8125 54.890625 23.390625 
Q 54.890625 11.625 47.5625 5.09375 
Q 40.234375 -1.421875 26.90625 -1.421875 
Q 22.3125 -1.421875 17.546875 -0.640625 
Q 12.796875 0.140625 7.71875 1.703125 
L 7.71875 11.625 
Q 12.109375 9.234375 16.796875 8.0625 
Q 21.484375 6.890625 26.703125 6.890625 
Q 35.15625 6.890625 40.078125 11.328125 
Q 45.015625 15.765625 45.015625 23.390625 
Q 45.015625 31 40.078125 35.4375 
Q 35.15625 39.890625 26.703125 39.890625 
Q 22.75 39.890625 18.8125 39.015625 
Q 14.890625 38.140625 10.796875 36.28125 
z
" id="DejaVuSans-53"/>
       </defs>
       <use xlink:href="#DejaVuSans-8722"/>
       <use x="83.789062" xlink:href="#DejaVuSans-48"/>
       <use x="147.412109" xlink:href="#DejaVuSans-46"/>
       <use x="179.199219" xlink:href="#DejaVuSans-55"/>
       <use x="242.822266" xlink:href="#DejaVuSans-53"/>
      </g>
     </g>
    </g>
    <g id="xtick_2">
     <g id="line2d_2">
      <g>
       <use style="stroke:#000000;stroke-width:0.8;" x="123.017789" xlink:href="#mfac5eb291f" y="343.718125"/>
      </g>
     </g>
     <g id="text_2">
      <!-- −0.50 -->
      <g transform="translate(107.695133 358.316562)scale(0.1 -0.1)">
       <use xlink:href="#DejaVuSans-8722"/>
       <use x="83.789062" xlink:href="#DejaVuSans-48"/>
       <use x="147.412109" xlink:href="#DejaVuSans-46"/>
       <use x="179.199219" xlink:href="#DejaVuSans-53"/>
       <use x="242.822266" xlink:href="#DejaVuSans-48"/>
      </g>
     </g>
    </g>
    <g id="xtick_3">
     <g id="line2d_3">
      <g>
       <use style="stroke:#000000;stroke-width:0.8;" x="162.590274" xlink:href="#mfac5eb291f" y="343.718125"/>
      </g>
     </g>
     <g id="text_3">
      <!-- −0.25 -->
      <g transform="translate(147.267618 358.316562)scale(0.1 -0.1)">
       <defs>
        <path d="M 19.1875 8.296875 
L 53.609375 8.296875 
L 53.609375 0 
L 7.328125 0 
L 7.328125 8.296875 
Q 12.9375 14.109375 22.625 23.890625 
Q 32.328125 33.6875 34.8125 36.53125 
Q 39.546875 41.84375 41.421875 45.53125 
Q 43.3125 49.21875 43.3125 52.78125 
Q 43.3125 58.59375 39.234375 62.25 
Q 35.15625 65.921875 28.609375 65.921875 
Q 23.96875 65.921875 18.8125 64.3125 
Q 13.671875 62.703125 7.8125 59.421875 
L 7.8125 69.390625 
Q 13.765625 71.78125 18.9375 73 
Q 24.125 74.21875 28.421875 74.21875 
Q 39.75 74.21875 46.484375 68.546875 
Q 53.21875 62.890625 53.21875 53.421875 
Q 53.21875 48.921875 51.53125 44.890625 
Q 49.859375 40.875 45.40625 35.40625 
Q 44.1875 33.984375 37.640625 27.21875 
Q 31.109375 20.453125 19.1875 8.296875 
z
" id="DejaVuSans-50"/>
       </defs>
       <use xlink:href="#DejaVuSans-8722"/>
       <use x="83.789062" xlink:href="#DejaVuSans-48"/>
       <use x="147.412109" xlink:href="#DejaVuSans-46"/>
       <use x="179.199219" xlink:href="#DejaVuSans-50"/>
       <use x="242.822266" xlink:href="#DejaVuSans-53"/>
      </g>
     </g>
    </g>
    <g id="xtick_4">
     <g id="line2d_4">
      <g>
       <use style="stroke:#000000;stroke-width:0.8;" x="202.162759" xlink:href="#mfac5eb291f" y="343.718125"/>
      </g>
     </g>
     <g id="text_4">
      <!-- 0.00 -->
      <g transform="translate(191.029946 358.316562)scale(0.1 -0.1)">
       <use xlink:href="#DejaVuSans-48"/>
       <use x="63.623047" xlink:href="#DejaVuSans-46"/>
       <use x="95.410156" xlink:href="#DejaVuSans-48"/>
       <use x="159.033203" xlink:href="#DejaVuSans-48"/>
      </g>
     </g>
    </g>
    <g id="xtick_5">
     <g id="line2d_5">
      <g>
       <use style="stroke:#000000;stroke-width:0.8;" x="241.735244" xlink:href="#mfac5eb291f" y="343.718125"/>
      </g>
     </g>
     <g id="text_5">
      <!-- 0.25 -->
      <g transform="translate(230.602431 358.316562)scale(0.1 -0.1)">
       <use xlink:href="#DejaVuSans-48"/>
       <use x="63.623047" xlink:href="#DejaVuSans-46"/>
       <use x="95.410156" xlink:href="#DejaVuSans-50"/>
       <use x="159.033203" xlink:href="#DejaVuSans-53"/>
      </g>
     </g>
    </g>
    <g id="xtick_6">
     <g id="line2d_6">
      <g>
       <use style="stroke:#000000;stroke-width:0.8;" x="281.307729" xlink:href="#mfac5eb291f" y="343.718125"/>
      </g>
     </g>
     <g id="text_6">
      <!-- 0.50 -->
      <g transform="translate(270.174916 358.316562)scale(0.1 -0.1)">
       <use xlink:href="#DejaVuSans-48"/>
       <use x="63.623047" xlink:href="#DejaVuSans-46"/>
       <use x="95.410156" xlink:href="#DejaVuSans-53"/>
       <use x="159.033203" xlink:href="#DejaVuSans-48"/>
      </g>
     </g>
    </g>
    <g id="xtick_7">
     <g id="line2d_7">
      <g>
       <use style="stroke:#000000;stroke-width:0.8;" x="320.880214" xlink:href="#mfac5eb291f" y="343.718125"/>
      </g>
     </g>
     <g id="text_7">
      <!-- 0.75 -->
      <g transform="translate(309.747401 358.316562)scale(0.1 -0.1)">
       <use xlink:href="#DejaVuSans-48"/>
       <use x="63.623047" xlink:href="#DejaVuSans-46"/>
       <use x="95.410156" xlink:href="#DejaVuSans-55"/>
       <use x="159.033203" xlink:href="#DejaVuSans-53"/>
      </g>
     </g>
    </g>
    <g id="text_8">
     <!-- ReadZs median z-score -->
     <g transform="translate(145.103325 371.994687)scale(0.1 -0.1)">
      <defs>
       <path d="M 44.390625 34.1875 
Q 47.5625 33.109375 50.5625 29.59375 
Q 53.5625 26.078125 56.59375 19.921875 
L 66.609375 0 
L 56 0 
L 46.6875 18.703125 
Q 43.0625 26.03125 39.671875 28.421875 
Q 36.28125 30.8125 30.421875 30.8125 
L 19.671875 30.8125 
L 19.671875 0 
L 9.8125 0 
L 9.8125 72.90625 
L 32.078125 72.90625 
Q 44.578125 72.90625 50.734375 67.671875 
Q 56.890625 62.453125 56.890625 51.90625 
Q 56.890625 45.015625 53.6875 40.46875 
Q 50.484375 35.9375 44.390625 34.1875 
z
M 19.671875 64.796875 
L 19.671875 38.921875 
L 32.078125 38.921875 
Q 39.203125 38.921875 42.84375 42.21875 
Q 46.484375 45.515625 46.484375 51.90625 
Q 46.484375 58.296875 42.84375 61.546875 
Q 39.203125 64.796875 32.078125 64.796875 
z
" id="DejaVuSans-82"/>
       <path d="M 56.203125 29.59375 
L 56.203125 25.203125 
L 14.890625 25.203125 
Q 15.484375 15.921875 20.484375 11.0625 
Q 25.484375 6.203125 34.421875 6.203125 
Q 39.59375 6.203125 44.453125 7.46875 
Q 49.3125 8.734375 54.109375 11.28125 
L 54.109375 2.78125 
Q 49.265625 0.734375 44.1875 -0.34375 
Q 39.109375 -1.421875 33.890625 -1.421875 
Q 20.796875 -1.421875 13.15625 6.1875 
Q 5.515625 13.8125 5.515625 26.8125 
Q 5.515625 40.234375 12.765625 48.109375 
Q 20.015625 56 32.328125 56 
Q 43.359375 56 49.78125 48.890625 
Q 56.203125 41.796875 56.203125 29.59375 
z
M 47.21875 32.234375 
Q 47.125 39.59375 43.09375 43.984375 
Q 39.0625 48.390625 32.421875 48.390625 
Q 24.90625 48.390625 20.390625 44.140625 
Q 15.875 39.890625 15.1875 32.171875 
z
" id="DejaVuSans-101"/>
       <path d="M 34.28125 27.484375 
Q 23.390625 27.484375 19.1875 25 
Q 14.984375 22.515625 14.984375 16.5 
Q 14.984375 11.71875 18.140625 8.90625 
Q 21.296875 6.109375 26.703125 6.109375 
Q 34.1875 6.109375 38.703125 11.40625 
Q 43.21875 16.703125 43.21875 25.484375 
L 43.21875 27.484375 
z
M 52.203125 31.203125 
L 52.203125 0 
L 43.21875 0 
L 43.21875 8.296875 
Q 40.140625 3.328125 35.546875 0.953125 
Q 30.953125 -1.421875 24.3125 -1.421875 
Q 15.921875 -1.421875 10.953125 3.296875 
Q 6 8.015625 6 15.921875 
Q 6 25.140625 12.171875 29.828125 
Q 18.359375 34.515625 30.609375 34.515625 
L 43.21875 34.515625 
L 43.21875 35.40625 
Q 43.21875 41.609375 39.140625 45 
Q 35.0625 48.390625 27.6875 48.390625 
Q 23 48.390625 18.546875 47.265625 
Q 14.109375 46.140625 10.015625 43.890625 
L 10.015625 52.203125 
Q 14.9375 54.109375 19.578125 55.046875 
Q 24.21875 56 28.609375 56 
Q 40.484375 56 46.34375 49.84375 
Q 52.203125 43.703125 52.203125 31.203125 
z
" id="DejaVuSans-97"/>
       <path d="M 45.40625 46.390625 
L 45.40625 75.984375 
L 54.390625 75.984375 
L 54.390625 0 
L 45.40625 0 
L 45.40625 8.203125 
Q 42.578125 3.328125 38.25 0.953125 
Q 33.9375 -1.421875 27.875 -1.421875 
Q 17.96875 -1.421875 11.734375 6.484375 
Q 5.515625 14.40625 5.515625 27.296875 
Q 5.515625 40.1875 11.734375 48.09375 
Q 17.96875 56 27.875 56 
Q 33.9375 56 38.25 53.625 
Q 42.578125 51.265625 45.40625 46.390625 
z
M 14.796875 27.296875 
Q 14.796875 17.390625 18.875 11.75 
Q 22.953125 6.109375 30.078125 6.109375 
Q 37.203125 6.109375 41.296875 11.75 
Q 45.40625 17.390625 45.40625 27.296875 
Q 45.40625 37.203125 41.296875 42.84375 
Q 37.203125 48.484375 30.078125 48.484375 
Q 22.953125 48.484375 18.875 42.84375 
Q 14.796875 37.203125 14.796875 27.296875 
z
" id="DejaVuSans-100"/>
       <path d="M 5.609375 72.90625 
L 62.890625 72.90625 
L 62.890625 65.375 
L 16.796875 8.296875 
L 64.015625 8.296875 
L 64.015625 0 
L 4.5 0 
L 4.5 7.515625 
L 50.59375 64.59375 
L 5.609375 64.59375 
z
" id="DejaVuSans-90"/>
       <path d="M 44.28125 53.078125 
L 44.28125 44.578125 
Q 40.484375 46.53125 36.375 47.5 
Q 32.28125 48.484375 27.875 48.484375 
Q 21.1875 48.484375 17.84375 46.4375 
Q 14.5 44.390625 14.5 40.28125 
Q 14.5 37.15625 16.890625 35.375 
Q 19.28125 33.59375 26.515625 31.984375 
L 29.59375 31.296875 
Q 39.15625 29.25 43.1875 25.515625 
Q 47.21875 21.78125 47.21875 15.09375 
Q 47.21875 7.46875 41.1875 3.015625 
Q 35.15625 -1.421875 24.609375 -1.421875 
Q 20.21875 -1.421875 15.453125 -0.5625 
Q 10.6875 0.296875 5.421875 2 
L 5.421875 11.28125 
Q 10.40625 8.6875 15.234375 7.390625 
Q 20.0625 6.109375 24.8125 6.109375 
Q 31.15625 6.109375 34.5625 8.28125 
Q 37.984375 10.453125 37.984375 14.40625 
Q 37.984375 18.0625 35.515625 20.015625 
Q 33.0625 21.96875 24.703125 23.78125 
L 21.578125 24.515625 
Q 13.234375 26.265625 9.515625 29.90625 
Q 5.8125 33.546875 5.8125 39.890625 
Q 5.8125 47.609375 11.28125 51.796875 
Q 16.75 56 26.8125 56 
Q 31.78125 56 36.171875 55.265625 
Q 40.578125 54.546875 44.28125 53.078125 
z
" id="DejaVuSans-115"/>
       <path id="DejaVuSans-32"/>
       <path d="M 52 44.1875 
Q 55.375 50.25 60.0625 53.125 
Q 64.75 56 71.09375 56 
Q 79.640625 56 84.28125 50.015625 
Q 88.921875 44.046875 88.921875 33.015625 
L 88.921875 0 
L 79.890625 0 
L 79.890625 32.71875 
Q 79.890625 40.578125 77.09375 44.375 
Q 74.3125 48.1875 68.609375 48.1875 
Q 61.625 48.1875 57.5625 43.546875 
Q 53.515625 38.921875 53.515625 30.90625 
L 53.515625 0 
L 44.484375 0 
L 44.484375 32.71875 
Q 44.484375 40.625 41.703125 44.40625 
Q 38.921875 48.1875 33.109375 48.1875 
Q 26.21875 48.1875 22.15625 43.53125 
Q 18.109375 38.875 18.109375 30.90625 
L 18.109375 0 
L 9.078125 0 
L 9.078125 54.6875 
L 18.109375 54.6875 
L 18.109375 46.1875 
Q 21.1875 51.21875 25.484375 53.609375 
Q 29.78125 56 35.6875 56 
Q 41.65625 56 45.828125 52.96875 
Q 50 49.953125 52 44.1875 
z
" id="DejaVuSans-109"/>
       <path d="M 9.421875 54.6875 
L 18.40625 54.6875 
L 18.40625 0 
L 9.421875 0 
z
M 9.421875 75.984375 
L 18.40625 75.984375 
L 18.40625 64.59375 
L 9.421875 64.59375 
z
" id="DejaVuSans-105"/>
       <path d="M 54.890625 33.015625 
L 54.890625 0 
L 45.90625 0 
L 45.90625 32.71875 
Q 45.90625 40.484375 42.875 44.328125 
Q 39.84375 48.1875 33.796875 48.1875 
Q 26.515625 48.1875 22.3125 43.546875 
Q 18.109375 38.921875 18.109375 30.90625 
L 18.109375 0 
L 9.078125 0 
L 9.078125 54.6875 
L 18.109375 54.6875 
L 18.109375 46.1875 
Q 21.34375 51.125 25.703125 53.5625 
Q 30.078125 56 35.796875 56 
Q 45.21875 56 50.046875 50.171875 
Q 54.890625 44.34375 54.890625 33.015625 
z
" id="DejaVuSans-110"/>
       <path d="M 5.515625 54.6875 
L 48.1875 54.6875 
L 48.1875 46.484375 
L 14.40625 7.171875 
L 48.1875 7.171875 
L 48.1875 0 
L 4.296875 0 
L 4.296875 8.203125 
L 38.09375 47.515625 
L 5.515625 47.515625 
z
" id="DejaVuSans-122"/>
       <path d="M 4.890625 31.390625 
L 31.203125 31.390625 
L 31.203125 23.390625 
L 4.890625 23.390625 
z
" id="DejaVuSans-45"/>
       <path d="M 48.78125 52.59375 
L 48.78125 44.1875 
Q 44.96875 46.296875 41.140625 47.34375 
Q 37.3125 48.390625 33.40625 48.390625 
Q 24.65625 48.390625 19.8125 42.84375 
Q 14.984375 37.3125 14.984375 27.296875 
Q 14.984375 17.28125 19.8125 11.734375 
Q 24.65625 6.203125 33.40625 6.203125 
Q 37.3125 6.203125 41.140625 7.25 
Q 44.96875 8.296875 48.78125 10.40625 
L 48.78125 2.09375 
Q 45.015625 0.34375 40.984375 -0.53125 
Q 36.96875 -1.421875 32.421875 -1.421875 
Q 20.0625 -1.421875 12.78125 6.34375 
Q 5.515625 14.109375 5.515625 27.296875 
Q 5.515625 40.671875 12.859375 48.328125 
Q 20.21875 56 33.015625 56 
Q 37.15625 56 41.109375 55.140625 
Q 45.0625 54.296875 48.78125 52.59375 
z
" id="DejaVuSans-99"/>
       <path d="M 30.609375 48.390625 
Q 23.390625 48.390625 19.1875 42.75 
Q 14.984375 37.109375 14.984375 27.296875 
Q 14.984375 17.484375 19.15625 11.84375 
Q 23.34375 6.203125 30.609375 6.203125 
Q 37.796875 6.203125 41.984375 11.859375 
Q 46.1875 17.53125 46.1875 27.296875 
Q 46.1875 37.015625 41.984375 42.703125 
Q 37.796875 48.390625 30.609375 48.390625 
z
M 30.609375 56 
Q 42.328125 56 49.015625 48.375 
Q 55.71875 40.765625 55.71875 27.296875 
Q 55.71875 13.875 49.015625 6.21875 
Q 42.328125 -1.421875 30.609375 -1.421875 
Q 18.84375 -1.421875 12.171875 6.21875 
Q 5.515625 13.875 5.515625 27.296875 
Q 5.515625 40.765625 12.171875 48.375 
Q 18.84375 56 30.609375 56 
z
" id="DejaVuSans-111"/>
       <path d="M 41.109375 46.296875 
Q 39.59375 47.171875 37.8125 47.578125 
Q 36.03125 48 33.890625 48 
Q 26.265625 48 22.1875 43.046875 
Q 18.109375 38.09375 18.109375 28.8125 
L 18.109375 0 
L 9.078125 0 
L 9.078125 54.6875 
L 18.109375 54.6875 
L 18.109375 46.1875 
Q 20.953125 51.171875 25.484375 53.578125 
Q 30.03125 56 36.53125 56 
Q 37.453125 56 38.578125 55.875 
Q 39.703125 55.765625 41.0625 55.515625 
z
" id="DejaVuSans-114"/>
      </defs>
      <use xlink:href="#DejaVuSans-82"/>
      <use x="64.982422" xlink:href="#DejaVuSans-101"/>
      <use x="126.505859" xlink:href="#DejaVuSans-97"/>
      <use x="187.785156" xlink:href="#DejaVuSans-100"/>
      <use x="251.261719" xlink:href="#DejaVuSans-90"/>
      <use x="319.767578" xlink:href="#DejaVuSans-115"/>
      <use x="371.867188" xlink:href="#DejaVuSans-32"/>
      <use x="403.654297" xlink:href="#DejaVuSans-109"/>
      <use x="501.066406" xlink:href="#DejaVuSans-101"/>
      <use x="562.589844" xlink:href="#DejaVuSans-100"/>
      <use x="626.066406" xlink:href="#DejaVuSans-105"/>
      <use x="653.849609" xlink:href="#DejaVuSans-97"/>
      <use x="715.128906" xlink:href="#DejaVuSans-110"/>
      <use x="778.507812" xlink:href="#DejaVuSans-32"/>
      <use x="810.294922" xlink:href="#DejaVuSans-122"/>
      <use x="862.785156" xlink:href="#DejaVuSans-45"/>
      <use x="898.869141" xlink:href="#DejaVuSans-115"/>
      <use x="950.96875" xlink:href="#DejaVuSans-99"/>
      <use x="1005.949219" xlink:href="#DejaVuSans-111"/>
      <use x="1067.130859" xlink:href="#DejaVuSans-114"/>
      <use x="1105.994141" xlink:href="#DejaVuSans-101"/>
     </g>
    </g>
   </g>
   <g id="matplotlib.axis_2">
    <g id="ytick_1">
     <g id="line2d_8">
      <defs>
       <path d="M 0 0 
L -3.5 0 
" id="m24d6e8d6a7" style="stroke:#000000;stroke-width:0.8;"/>
      </defs>
      <g>
       <use style="stroke:#000000;stroke-width:0.8;" x="52.160938" xlink:href="#m24d6e8d6a7" y="302.097687"/>
      </g>
     </g>
     <g id="text_9">
      <!-- −0.2 -->
      <g transform="translate(20.878125 305.896906)scale(0.1 -0.1)">
       <use xlink:href="#DejaVuSans-8722"/>
       <use x="83.789062" xlink:href="#DejaVuSans-48"/>
       <use x="147.412109" xlink:href="#DejaVuSans-46"/>
       <use x="179.199219" xlink:href="#DejaVuSans-50"/>
      </g>
     </g>
    </g>
    <g id="ytick_2">
     <g id="line2d_9">
      <g>
       <use style="stroke:#000000;stroke-width:0.8;" x="52.160938" xlink:href="#m24d6e8d6a7" y="245.65143"/>
      </g>
     </g>
     <g id="text_10">
      <!-- −0.1 -->
      <g transform="translate(20.878125 249.450649)scale(0.1 -0.1)">
       <defs>
        <path d="M 12.40625 8.296875 
L 28.515625 8.296875 
L 28.515625 63.921875 
L 10.984375 60.40625 
L 10.984375 69.390625 
L 28.421875 72.90625 
L 38.28125 72.90625 
L 38.28125 8.296875 
L 54.390625 8.296875 
L 54.390625 0 
L 12.40625 0 
z
" id="DejaVuSans-49"/>
       </defs>
       <use xlink:href="#DejaVuSans-8722"/>
       <use x="83.789062" xlink:href="#DejaVuSans-48"/>
       <use x="147.412109" xlink:href="#DejaVuSans-46"/>
       <use x="179.199219" xlink:href="#DejaVuSans-49"/>
      </g>
     </g>
    </g>
    <g id="ytick_3">
     <g id="line2d_10">
      <g>
       <use style="stroke:#000000;stroke-width:0.8;" x="52.160938" xlink:href="#m24d6e8d6a7" y="189.205173"/>
      </g>
     </g>
     <g id="text_11">
      <!-- 0.0 -->
      <g transform="translate(29.257813 193.004391)scale(0.1 -0.1)">
       <use xlink:href="#DejaVuSans-48"/>
       <use x="63.623047" xlink:href="#DejaVuSans-46"/>
       <use x="95.410156" xlink:href="#DejaVuSans-48"/>
      </g>
     </g>
    </g>
    <g id="ytick_4">
     <g id="line2d_11">
      <g>
       <use style="stroke:#000000;stroke-width:0.8;" x="52.160938" xlink:href="#m24d6e8d6a7" y="132.758915"/>
      </g>
     </g>
     <g id="text_12">
      <!-- 0.1 -->
      <g transform="translate(29.257813 136.558134)scale(0.1 -0.1)">
       <use xlink:href="#DejaVuSans-48"/>
       <use x="63.623047" xlink:href="#DejaVuSans-46"/>
       <use x="95.410156" xlink:href="#DejaVuSans-49"/>
      </g>
     </g>
    </g>
    <g id="ytick_5">
     <g id="line2d_12">
      <g>
       <use style="stroke:#000000;stroke-width:0.8;" x="52.160938" xlink:href="#m24d6e8d6a7" y="76.312658"/>
      </g>
     </g>
     <g id="text_13">
      <!-- 0.2 -->
      <g transform="translate(29.257813 80.111877)scale(0.1 -0.1)">
       <use xlink:href="#DejaVuSans-48"/>
       <use x="63.623047" xlink:href="#DejaVuSans-46"/>
       <use x="95.410156" xlink:href="#DejaVuSans-50"/>
      </g>
     </g>
    </g>
    <g id="text_14">
     <!-- SRRS median radial score -->
     <g transform="translate(14.798438 247.393906)rotate(-90)scale(0.1 -0.1)">
      <defs>
       <path d="M 53.515625 70.515625 
L 53.515625 60.890625 
Q 47.90625 63.578125 42.921875 64.890625 
Q 37.9375 66.21875 33.296875 66.21875 
Q 25.25 66.21875 20.875 63.09375 
Q 16.5 59.96875 16.5 54.203125 
Q 16.5 49.359375 19.40625 46.890625 
Q 22.3125 44.4375 30.421875 42.921875 
L 36.375 41.703125 
Q 47.40625 39.59375 52.65625 34.296875 
Q 57.90625 29 57.90625 20.125 
Q 57.90625 9.515625 50.796875 4.046875 
Q 43.703125 -1.421875 29.984375 -1.421875 
Q 24.8125 -1.421875 18.96875 -0.25 
Q 13.140625 0.921875 6.890625 3.21875 
L 6.890625 13.375 
Q 12.890625 10.015625 18.65625 8.296875 
Q 24.421875 6.59375 29.984375 6.59375 
Q 38.421875 6.59375 43.015625 9.90625 
Q 47.609375 13.234375 47.609375 19.390625 
Q 47.609375 24.75 44.3125 27.78125 
Q 41.015625 30.8125 33.5 32.328125 
L 27.484375 33.5 
Q 16.453125 35.6875 11.515625 40.375 
Q 6.59375 45.0625 6.59375 53.421875 
Q 6.59375 63.09375 13.40625 68.65625 
Q 20.21875 74.21875 32.171875 74.21875 
Q 37.3125 74.21875 42.625 73.28125 
Q 47.953125 72.359375 53.515625 70.515625 
z
" id="DejaVuSans-83"/>
       <path d="M 9.421875 75.984375 
L 18.40625 75.984375 
L 18.40625 0 
L 9.421875 0 
z
" id="DejaVuSans-108"/>
      </defs>
      <use xlink:href="#DejaVuSans-83"/>
      <use x="63.476562" xlink:href="#DejaVuSans-82"/>
      <use x="132.958984" xlink:href="#DejaVuSans-82"/>
      <use x="202.441406" xlink:href="#DejaVuSans-83"/>
      <use x="265.917969" xlink:href="#DejaVuSans-32"/>
      <use x="297.705078" xlink:href="#DejaVuSans-109"/>
      <use x="395.117188" xlink:href="#DejaVuSans-101"/>
      <use x="456.640625" xlink:href="#DejaVuSans-100"/>
      <use x="520.117188" xlink:href="#DejaVuSans-105"/>
      <use x="547.900391" xlink:href="#DejaVuSans-97"/>
      <use x="609.179688" xlink:href="#DejaVuSans-110"/>
      <use x="672.558594" xlink:href="#DejaVuSans-32"/>
      <use x="704.345703" xlink:href="#DejaVuSans-114"/>
      <use x="745.458984" xlink:href="#DejaVuSans-97"/>
      <use x="806.738281" xlink:href="#DejaVuSans-100"/>
      <use x="870.214844" xlink:href="#DejaVuSans-105"/>
      <use x="897.998047" xlink:href="#DejaVuSans-97"/>
      <use x="959.277344" xlink:href="#DejaVuSans-108"/>
      <use x="987.060547" xlink:href="#DejaVuSans-32"/>
      <use x="1018.847656" xlink:href="#DejaVuSans-115"/>
      <use x="1070.947266" xlink:href="#DejaVuSans-99"/>
      <use x="1125.927734" xlink:href="#DejaVuSans-111"/>
      <use x="1187.109375" xlink:href="#DejaVuSans-114"/>
      <use x="1225.972656" xlink:href="#DejaVuSans-101"/>
     </g>
    </g>
   </g>
   <g id="patch_3">
    <path d="M 52.160938 343.718125 
L 52.160938 22.318125 
" style="fill:none;stroke:#000000;stroke-linecap:square;stroke-linejoin:miter;stroke-width:0.8;"/>
   </g>
   <g id="patch_4">
    <path d="M 52.160938 343.718125 
L 354.797274 343.718125 
" style="fill:none;stroke:#000000;stroke-linecap:square;stroke-linejoin:miter;stroke-width:0.8;"/>
   </g>
   <g id="text_15">
    <!-- Timp3 significant in at least 1 MERFISH/10X sample pair -->
    <g transform="translate(34.919418 16.318125)scale(0.12 -0.12)">
     <defs>
      <path d="M -0.296875 72.90625 
L 61.375 72.90625 
L 61.375 64.59375 
L 35.5 64.59375 
L 35.5 0 
L 25.59375 0 
L 25.59375 64.59375 
L -0.296875 64.59375 
z
" id="DejaVuSans-84"/>
      <path d="M 18.109375 8.203125 
L 18.109375 -20.796875 
L 9.078125 -20.796875 
L 9.078125 54.6875 
L 18.109375 54.6875 
L 18.109375 46.390625 
Q 20.953125 51.265625 25.265625 53.625 
Q 29.59375 56 35.59375 56 
Q 45.5625 56 51.78125 48.09375 
Q 58.015625 40.1875 58.015625 27.296875 
Q 58.015625 14.40625 51.78125 6.484375 
Q 45.5625 -1.421875 35.59375 -1.421875 
Q 29.59375 -1.421875 25.265625 0.953125 
Q 20.953125 3.328125 18.109375 8.203125 
z
M 48.6875 27.296875 
Q 48.6875 37.203125 44.609375 42.84375 
Q 40.53125 48.484375 33.40625 48.484375 
Q 26.265625 48.484375 22.1875 42.84375 
Q 18.109375 37.203125 18.109375 27.296875 
Q 18.109375 17.390625 22.1875 11.75 
Q 26.265625 6.109375 33.40625 6.109375 
Q 40.53125 6.109375 44.609375 11.75 
Q 48.6875 17.390625 48.6875 27.296875 
z
" id="DejaVuSans-112"/>
      <path d="M 40.578125 39.3125 
Q 47.65625 37.796875 51.625 33 
Q 55.609375 28.21875 55.609375 21.1875 
Q 55.609375 10.40625 48.1875 4.484375 
Q 40.765625 -1.421875 27.09375 -1.421875 
Q 22.515625 -1.421875 17.65625 -0.515625 
Q 12.796875 0.390625 7.625 2.203125 
L 7.625 11.71875 
Q 11.71875 9.328125 16.59375 8.109375 
Q 21.484375 6.890625 26.8125 6.890625 
Q 36.078125 6.890625 40.9375 10.546875 
Q 45.796875 14.203125 45.796875 21.1875 
Q 45.796875 27.640625 41.28125 31.265625 
Q 36.765625 34.90625 28.71875 34.90625 
L 20.21875 34.90625 
L 20.21875 43.015625 
L 29.109375 43.015625 
Q 36.375 43.015625 40.234375 45.921875 
Q 44.09375 48.828125 44.09375 54.296875 
Q 44.09375 59.90625 40.109375 62.90625 
Q 36.140625 65.921875 28.71875 65.921875 
Q 24.65625 65.921875 20.015625 65.03125 
Q 15.375 64.15625 9.8125 62.3125 
L 9.8125 71.09375 
Q 15.4375 72.65625 20.34375 73.4375 
Q 25.25 74.21875 29.59375 74.21875 
Q 40.828125 74.21875 47.359375 69.109375 
Q 53.90625 64.015625 53.90625 55.328125 
Q 53.90625 49.265625 50.4375 45.09375 
Q 46.96875 40.921875 40.578125 39.3125 
z
" id="DejaVuSans-51"/>
      <path d="M 45.40625 27.984375 
Q 45.40625 37.75 41.375 43.109375 
Q 37.359375 48.484375 30.078125 48.484375 
Q 22.859375 48.484375 18.828125 43.109375 
Q 14.796875 37.75 14.796875 27.984375 
Q 14.796875 18.265625 18.828125 12.890625 
Q 22.859375 7.515625 30.078125 7.515625 
Q 37.359375 7.515625 41.375 12.890625 
Q 45.40625 18.265625 45.40625 27.984375 
z
M 54.390625 6.78125 
Q 54.390625 -7.171875 48.1875 -13.984375 
Q 42 -20.796875 29.203125 -20.796875 
Q 24.46875 -20.796875 20.265625 -20.09375 
Q 16.0625 -19.390625 12.109375 -17.921875 
L 12.109375 -9.1875 
Q 16.0625 -11.328125 19.921875 -12.34375 
Q 23.78125 -13.375 27.78125 -13.375 
Q 36.625 -13.375 41.015625 -8.765625 
Q 45.40625 -4.15625 45.40625 5.171875 
L 45.40625 9.625 
Q 42.625 4.78125 38.28125 2.390625 
Q 33.9375 0 27.875 0 
Q 17.828125 0 11.671875 7.65625 
Q 5.515625 15.328125 5.515625 27.984375 
Q 5.515625 40.671875 11.671875 48.328125 
Q 17.828125 56 27.875 56 
Q 33.9375 56 38.28125 53.609375 
Q 42.625 51.21875 45.40625 46.390625 
L 45.40625 54.6875 
L 54.390625 54.6875 
z
" id="DejaVuSans-103"/>
      <path d="M 37.109375 75.984375 
L 37.109375 68.5 
L 28.515625 68.5 
Q 23.6875 68.5 21.796875 66.546875 
Q 19.921875 64.59375 19.921875 59.515625 
L 19.921875 54.6875 
L 34.71875 54.6875 
L 34.71875 47.703125 
L 19.921875 47.703125 
L 19.921875 0 
L 10.890625 0 
L 10.890625 47.703125 
L 2.296875 47.703125 
L 2.296875 54.6875 
L 10.890625 54.6875 
L 10.890625 58.5 
Q 10.890625 67.625 15.140625 71.796875 
Q 19.390625 75.984375 28.609375 75.984375 
z
" id="DejaVuSans-102"/>
      <path d="M 18.3125 70.21875 
L 18.3125 54.6875 
L 36.8125 54.6875 
L 36.8125 47.703125 
L 18.3125 47.703125 
L 18.3125 18.015625 
Q 18.3125 11.328125 20.140625 9.421875 
Q 21.96875 7.515625 27.59375 7.515625 
L 36.8125 7.515625 
L 36.8125 0 
L 27.59375 0 
Q 17.1875 0 13.234375 3.875 
Q 9.28125 7.765625 9.28125 18.015625 
L 9.28125 47.703125 
L 2.6875 47.703125 
L 2.6875 54.6875 
L 9.28125 54.6875 
L 9.28125 70.21875 
z
" id="DejaVuSans-116"/>
      <path d="M 9.8125 72.90625 
L 24.515625 72.90625 
L 43.109375 23.296875 
L 61.8125 72.90625 
L 76.515625 72.90625 
L 76.515625 0 
L 66.890625 0 
L 66.890625 64.015625 
L 48.09375 14.015625 
L 38.1875 14.015625 
L 19.390625 64.015625 
L 19.390625 0 
L 9.8125 0 
z
" id="DejaVuSans-77"/>
      <path d="M 9.8125 72.90625 
L 55.90625 72.90625 
L 55.90625 64.59375 
L 19.671875 64.59375 
L 19.671875 43.015625 
L 54.390625 43.015625 
L 54.390625 34.71875 
L 19.671875 34.71875 
L 19.671875 8.296875 
L 56.78125 8.296875 
L 56.78125 0 
L 9.8125 0 
z
" id="DejaVuSans-69"/>
      <path d="M 9.8125 72.90625 
L 51.703125 72.90625 
L 51.703125 64.59375 
L 19.671875 64.59375 
L 19.671875 43.109375 
L 48.578125 43.109375 
L 48.578125 34.8125 
L 19.671875 34.8125 
L 19.671875 0 
L 9.8125 0 
z
" id="DejaVuSans-70"/>
      <path d="M 9.8125 72.90625 
L 19.671875 72.90625 
L 19.671875 0 
L 9.8125 0 
z
" id="DejaVuSans-73"/>
      <path d="M 9.8125 72.90625 
L 19.671875 72.90625 
L 19.671875 43.015625 
L 55.515625 43.015625 
L 55.515625 72.90625 
L 65.375 72.90625 
L 65.375 0 
L 55.515625 0 
L 55.515625 34.71875 
L 19.671875 34.71875 
L 19.671875 0 
L 9.8125 0 
z
" id="DejaVuSans-72"/>
      <path d="M 25.390625 72.90625 
L 33.6875 72.90625 
L 8.296875 -9.28125 
L 0 -9.28125 
z
" id="DejaVuSans-47"/>
      <path d="M 6.296875 72.90625 
L 16.890625 72.90625 
L 35.015625 45.796875 
L 53.21875 72.90625 
L 63.8125 72.90625 
L 40.375 37.890625 
L 65.375 0 
L 54.78125 0 
L 34.28125 31 
L 13.625 0 
L 2.984375 0 
L 29 38.921875 
z
" id="DejaVuSans-88"/>
     </defs>
     <use xlink:href="#DejaVuSans-84"/>
     <use x="57.958984" xlink:href="#DejaVuSans-105"/>
     <use x="85.742188" xlink:href="#DejaVuSans-109"/>
     <use x="183.154297" xlink:href="#DejaVuSans-112"/>
     <use x="246.630859" xlink:href="#DejaVuSans-51"/>
     <use x="310.253906" xlink:href="#DejaVuSans-32"/>
     <use x="342.041016" xlink:href="#DejaVuSans-115"/>
     <use x="394.140625" xlink:href="#DejaVuSans-105"/>
     <use x="421.923828" xlink:href="#DejaVuSans-103"/>
     <use x="485.400391" xlink:href="#DejaVuSans-110"/>
     <use x="548.779297" xlink:href="#DejaVuSans-105"/>
     <use x="576.5625" xlink:href="#DejaVuSans-102"/>
     <use x="611.767578" xlink:href="#DejaVuSans-105"/>
     <use x="639.550781" xlink:href="#DejaVuSans-99"/>
     <use x="694.53125" xlink:href="#DejaVuSans-97"/>
     <use x="755.810547" xlink:href="#DejaVuSans-110"/>
     <use x="819.189453" xlink:href="#DejaVuSans-116"/>
     <use x="858.398438" xlink:href="#DejaVuSans-32"/>
     <use x="890.185547" xlink:href="#DejaVuSans-105"/>
     <use x="917.96875" xlink:href="#DejaVuSans-110"/>
     <use x="981.347656" xlink:href="#DejaVuSans-32"/>
     <use x="1013.134766" xlink:href="#DejaVuSans-97"/>
     <use x="1074.414062" xlink:href="#DejaVuSans-116"/>
     <use x="1113.623047" xlink:href="#DejaVuSans-32"/>
     <use x="1145.410156" xlink:href="#DejaVuSans-108"/>
     <use x="1173.193359" xlink:href="#DejaVuSans-101"/>
     <use x="1234.716797" xlink:href="#DejaVuSans-97"/>
     <use x="1295.996094" xlink:href="#DejaVuSans-115"/>
     <use x="1348.095703" xlink:href="#DejaVuSans-116"/>
     <use x="1387.304688" xlink:href="#DejaVuSans-32"/>
     <use x="1419.091797" xlink:href="#DejaVuSans-49"/>
     <use x="1482.714844" xlink:href="#DejaVuSans-32"/>
     <use x="1514.501953" xlink:href="#DejaVuSans-77"/>
     <use x="1600.78125" xlink:href="#DejaVuSans-69"/>
     <use x="1663.964844" xlink:href="#DejaVuSans-82"/>
     <use x="1733.447266" xlink:href="#DejaVuSans-70"/>
     <use x="1790.966797" xlink:href="#DejaVuSans-73"/>
     <use x="1820.458984" xlink:href="#DejaVuSans-83"/>
     <use x="1883.935547" xlink:href="#DejaVuSans-72"/>
     <use x="1959.130859" xlink:href="#DejaVuSans-47"/>
     <use x="1992.822266" xlink:href="#DejaVuSans-49"/>
     <use x="2056.445312" xlink:href="#DejaVuSans-48"/>
     <use x="2120.068359" xlink:href="#DejaVuSans-88"/>
     <use x="2188.574219" xlink:href="#DejaVuSans-32"/>
     <use x="2220.361328" xlink:href="#DejaVuSans-115"/>
     <use x="2272.460938" xlink:href="#DejaVuSans-97"/>
     <use x="2333.740234" xlink:href="#DejaVuSans-109"/>
     <use x="2431.152344" xlink:href="#DejaVuSans-112"/>
     <use x="2494.628906" xlink:href="#DejaVuSans-108"/>
     <use x="2522.412109" xlink:href="#DejaVuSans-101"/>
     <use x="2583.935547" xlink:href="#DejaVuSans-32"/>
     <use x="2615.722656" xlink:href="#DejaVuSans-112"/>
     <use x="2679.199219" xlink:href="#DejaVuSans-97"/>
     <use x="2740.478516" xlink:href="#DejaVuSans-105"/>
     <use x="2768.261719" xlink:href="#DejaVuSans-114"/>
    </g>
   </g>
  </g>
  <g id="legend_1">
   <g id="text_16">
    <!-- ontology -->
    <g transform="translate(368.486649 61.015312)scale(0.1 -0.1)">
     <defs>
      <path d="M 32.171875 -5.078125 
Q 28.375 -14.84375 24.75 -17.8125 
Q 21.140625 -20.796875 15.09375 -20.796875 
L 7.90625 -20.796875 
L 7.90625 -13.28125 
L 13.1875 -13.28125 
Q 16.890625 -13.28125 18.9375 -11.515625 
Q 21 -9.765625 23.484375 -3.21875 
L 25.09375 0.875 
L 2.984375 54.6875 
L 12.5 54.6875 
L 29.59375 11.921875 
L 46.6875 54.6875 
L 56.203125 54.6875 
z
" id="DejaVuSans-121"/>
     </defs>
     <use xlink:href="#DejaVuSans-111"/>
     <use x="61.181641" xlink:href="#DejaVuSans-110"/>
     <use x="124.560547" xlink:href="#DejaVuSans-116"/>
     <use x="163.769531" xlink:href="#DejaVuSans-111"/>
     <use x="224.951172" xlink:href="#DejaVuSans-108"/>
     <use x="252.734375" xlink:href="#DejaVuSans-111"/>
     <use x="313.916016" xlink:href="#DejaVuSans-103"/>
     <use x="377.392578" xlink:href="#DejaVuSans-121"/>
    </g>
   </g>
   <g id="PathCollection_18">
    <defs>
     <path d="M 0 3 
C 0.795609 3 1.55874 2.683901 2.12132 2.12132 
C 2.683901 1.55874 3 0.795609 3 0 
C 3 -0.795609 2.683901 -1.55874 2.12132 -2.12132 
C 1.55874 -2.683901 0.795609 -3 0 -3 
C -0.795609 -3 -1.55874 -2.683901 -2.12132 -2.12132 
C -2.683901 -1.55874 -3 -0.795609 -3 0 
C -3 0.795609 -2.683901 1.55874 -2.12132 2.12132 
C -1.55874 2.683901 -0.795609 3 0 3 
z
" id="m9b6c5f4425" style="stroke:#1f77b4;"/>
    </defs>
    <g>
     <use style="fill:#1f77b4;stroke:#1f77b4;" x="370.486649" xlink:href="#m9b6c5f4425" y="73.068437"/>
    </g>
   </g>
   <g id="text_17">
    <!-- L6 IT -->
    <g transform="translate(388.486649 75.693437)scale(0.1 -0.1)">
     <defs>
      <path d="M 9.8125 72.90625 
L 19.671875 72.90625 
L 19.671875 8.296875 
L 55.171875 8.296875 
L 55.171875 0 
L 9.8125 0 
z
" id="DejaVuSans-76"/>
      <path d="M 33.015625 40.375 
Q 26.375 40.375 22.484375 35.828125 
Q 18.609375 31.296875 18.609375 23.390625 
Q 18.609375 15.53125 22.484375 10.953125 
Q 26.375 6.390625 33.015625 6.390625 
Q 39.65625 6.390625 43.53125 10.953125 
Q 47.40625 15.53125 47.40625 23.390625 
Q 47.40625 31.296875 43.53125 35.828125 
Q 39.65625 40.375 33.015625 40.375 
z
M 52.59375 71.296875 
L 52.59375 62.3125 
Q 48.875 64.0625 45.09375 64.984375 
Q 41.3125 65.921875 37.59375 65.921875 
Q 27.828125 65.921875 22.671875 59.328125 
Q 17.53125 52.734375 16.796875 39.40625 
Q 19.671875 43.65625 24.015625 45.921875 
Q 28.375 48.1875 33.59375 48.1875 
Q 44.578125 48.1875 50.953125 41.515625 
Q 57.328125 34.859375 57.328125 23.390625 
Q 57.328125 12.15625 50.6875 5.359375 
Q 44.046875 -1.421875 33.015625 -1.421875 
Q 20.359375 -1.421875 13.671875 8.265625 
Q 6.984375 17.96875 6.984375 36.375 
Q 6.984375 53.65625 15.1875 63.9375 
Q 23.390625 74.21875 37.203125 74.21875 
Q 40.921875 74.21875 44.703125 73.484375 
Q 48.484375 72.75 52.59375 71.296875 
z
" id="DejaVuSans-54"/>
     </defs>
     <use xlink:href="#DejaVuSans-76"/>
     <use x="55.712891" xlink:href="#DejaVuSans-54"/>
     <use x="119.335938" xlink:href="#DejaVuSans-32"/>
     <use x="151.123047" xlink:href="#DejaVuSans-73"/>
     <use x="180.615234" xlink:href="#DejaVuSans-84"/>
    </g>
   </g>
   <g id="PathCollection_19">
    <defs>
     <path d="M 0 3 
C 0.795609 3 1.55874 2.683901 2.12132 2.12132 
C 2.683901 1.55874 3 0.795609 3 0 
C 3 -0.795609 2.683901 -1.55874 2.12132 -2.12132 
C 1.55874 -2.683901 0.795609 -3 0 -3 
C -0.795609 -3 -1.55874 -2.683901 -2.12132 -2.12132 
C -2.683901 -1.55874 -3 -0.795609 -3 0 
C -3 0.795609 -2.683901 1.55874 -2.12132 2.12132 
C -1.55874 2.683901 -0.795609 3 0 3 
z
" id="mc9855872d1" style="stroke:#ff7f0e;"/>
    </defs>
    <g>
     <use style="fill:#ff7f0e;stroke:#ff7f0e;" x="370.486649" xlink:href="#mc9855872d1" y="87.746562"/>
    </g>
   </g>
   <g id="text_18">
    <!-- L2/3 IT -->
    <g transform="translate(388.486649 90.371562)scale(0.1 -0.1)">
     <use xlink:href="#DejaVuSans-76"/>
     <use x="55.712891" xlink:href="#DejaVuSans-50"/>
     <use x="119.335938" xlink:href="#DejaVuSans-47"/>
     <use x="153.027344" xlink:href="#DejaVuSans-51"/>
     <use x="216.650391" xlink:href="#DejaVuSans-32"/>
     <use x="248.4375" xlink:href="#DejaVuSans-73"/>
     <use x="277.929688" xlink:href="#DejaVuSans-84"/>
    </g>
   </g>
   <g id="PathCollection_20">
    <defs>
     <path d="M 0 3 
C 0.795609 3 1.55874 2.683901 2.12132 2.12132 
C 2.683901 1.55874 3 0.795609 3 0 
C 3 -0.795609 2.683901 -1.55874 2.12132 -2.12132 
C 1.55874 -2.683901 0.795609 -3 0 -3 
C -0.795609 -3 -1.55874 -2.683901 -2.12132 -2.12132 
C -2.683901 -1.55874 -3 -0.795609 -3 0 
C -3 0.795609 -2.683901 1.55874 -2.12132 2.12132 
C -1.55874 2.683901 -0.795609 3 0 3 
z
" id="m88b04f16b5" style="stroke:#2ca02c;"/>
    </defs>
    <g>
     <use style="fill:#2ca02c;stroke:#2ca02c;" x="370.486649" xlink:href="#m88b04f16b5" y="102.424687"/>
    </g>
   </g>
   <g id="text_19">
    <!-- L5 IT -->
    <g transform="translate(388.486649 105.049687)scale(0.1 -0.1)">
     <use xlink:href="#DejaVuSans-76"/>
     <use x="55.712891" xlink:href="#DejaVuSans-53"/>
     <use x="119.335938" xlink:href="#DejaVuSans-32"/>
     <use x="151.123047" xlink:href="#DejaVuSans-73"/>
     <use x="180.615234" xlink:href="#DejaVuSans-84"/>
    </g>
   </g>
   <g id="PathCollection_21">
    <defs>
     <path d="M 0 3 
C 0.795609 3 1.55874 2.683901 2.12132 2.12132 
C 2.683901 1.55874 3 0.795609 3 0 
C 3 -0.795609 2.683901 -1.55874 2.12132 -2.12132 
C 1.55874 -2.683901 0.795609 -3 0 -3 
C -0.795609 -3 -1.55874 -2.683901 -2.12132 -2.12132 
C -2.683901 -1.55874 -3 -0.795609 -3 0 
C -3 0.795609 -2.683901 1.55874 -2.12132 2.12132 
C -1.55874 2.683901 -0.795609 3 0 3 
z
" id="m1df6663c88" style="stroke:#d62728;"/>
    </defs>
    <g>
     <use style="fill:#d62728;stroke:#d62728;" x="370.486649" xlink:href="#m1df6663c88" y="117.102812"/>
    </g>
   </g>
   <g id="text_20">
    <!-- OPC -->
    <g transform="translate(388.486649 119.727812)scale(0.1 -0.1)">
     <defs>
      <path d="M 39.40625 66.21875 
Q 28.65625 66.21875 22.328125 58.203125 
Q 16.015625 50.203125 16.015625 36.375 
Q 16.015625 22.609375 22.328125 14.59375 
Q 28.65625 6.59375 39.40625 6.59375 
Q 50.140625 6.59375 56.421875 14.59375 
Q 62.703125 22.609375 62.703125 36.375 
Q 62.703125 50.203125 56.421875 58.203125 
Q 50.140625 66.21875 39.40625 66.21875 
z
M 39.40625 74.21875 
Q 54.734375 74.21875 63.90625 63.9375 
Q 73.09375 53.65625 73.09375 36.375 
Q 73.09375 19.140625 63.90625 8.859375 
Q 54.734375 -1.421875 39.40625 -1.421875 
Q 24.03125 -1.421875 14.8125 8.828125 
Q 5.609375 19.09375 5.609375 36.375 
Q 5.609375 53.65625 14.8125 63.9375 
Q 24.03125 74.21875 39.40625 74.21875 
z
" id="DejaVuSans-79"/>
      <path d="M 19.671875 64.796875 
L 19.671875 37.40625 
L 32.078125 37.40625 
Q 38.96875 37.40625 42.71875 40.96875 
Q 46.484375 44.53125 46.484375 51.125 
Q 46.484375 57.671875 42.71875 61.234375 
Q 38.96875 64.796875 32.078125 64.796875 
z
M 9.8125 72.90625 
L 32.078125 72.90625 
Q 44.34375 72.90625 50.609375 67.359375 
Q 56.890625 61.8125 56.890625 51.125 
Q 56.890625 40.328125 50.609375 34.8125 
Q 44.34375 29.296875 32.078125 29.296875 
L 19.671875 29.296875 
L 19.671875 0 
L 9.8125 0 
z
" id="DejaVuSans-80"/>
      <path d="M 64.40625 67.28125 
L 64.40625 56.890625 
Q 59.421875 61.53125 53.78125 63.8125 
Q 48.140625 66.109375 41.796875 66.109375 
Q 29.296875 66.109375 22.65625 58.46875 
Q 16.015625 50.828125 16.015625 36.375 
Q 16.015625 21.96875 22.65625 14.328125 
Q 29.296875 6.6875 41.796875 6.6875 
Q 48.140625 6.6875 53.78125 8.984375 
Q 59.421875 11.28125 64.40625 15.921875 
L 64.40625 5.609375 
Q 59.234375 2.09375 53.4375 0.328125 
Q 47.65625 -1.421875 41.21875 -1.421875 
Q 24.65625 -1.421875 15.125 8.703125 
Q 5.609375 18.84375 5.609375 36.375 
Q 5.609375 53.953125 15.125 64.078125 
Q 24.65625 74.21875 41.21875 74.21875 
Q 47.75 74.21875 53.53125 72.484375 
Q 59.328125 70.75 64.40625 67.28125 
z
" id="DejaVuSans-67"/>
     </defs>
     <use xlink:href="#DejaVuSans-79"/>
     <use x="78.710938" xlink:href="#DejaVuSans-80"/>
     <use x="139.013672" xlink:href="#DejaVuSans-67"/>
    </g>
   </g>
   <g id="PathCollection_22">
    <defs>
     <path d="M 0 3 
C 0.795609 3 1.55874 2.683901 2.12132 2.12132 
C 2.683901 1.55874 3 0.795609 3 0 
C 3 -0.795609 2.683901 -1.55874 2.12132 -2.12132 
C 1.55874 -2.683901 0.795609 -3 0 -3 
C -0.795609 -3 -1.55874 -2.683901 -2.12132 -2.12132 
C -2.683901 -1.55874 -3 -0.795609 -3 0 
C -3 0.795609 -2.683901 1.55874 -2.12132 2.12132 
C -1.55874 2.683901 -0.795609 3 0 3 
z
" id="m7d42459181" style="stroke:#9467bd;"/>
    </defs>
    <g>
     <use style="fill:#9467bd;stroke:#9467bd;" x="370.486649" xlink:href="#m7d42459181" y="131.780937"/>
    </g>
   </g>
   <g id="text_21">
    <!-- Astro -->
    <g transform="translate(388.486649 134.405937)scale(0.1 -0.1)">
     <defs>
      <path d="M 34.1875 63.1875 
L 20.796875 26.90625 
L 47.609375 26.90625 
z
M 28.609375 72.90625 
L 39.796875 72.90625 
L 67.578125 0 
L 57.328125 0 
L 50.6875 18.703125 
L 17.828125 18.703125 
L 11.1875 0 
L 0.78125 0 
z
" id="DejaVuSans-65"/>
     </defs>
     <use xlink:href="#DejaVuSans-65"/>
     <use x="68.408203" xlink:href="#DejaVuSans-115"/>
     <use x="120.507812" xlink:href="#DejaVuSans-116"/>
     <use x="159.716797" xlink:href="#DejaVuSans-114"/>
     <use x="198.580078" xlink:href="#DejaVuSans-111"/>
    </g>
   </g>
   <g id="PathCollection_23">
    <defs>
     <path d="M 0 3 
C 0.795609 3 1.55874 2.683901 2.12132 2.12132 
C 2.683901 1.55874 3 0.795609 3 0 
C 3 -0.795609 2.683901 -1.55874 2.12132 -2.12132 
C 1.55874 -2.683901 0.795609 -3 0 -3 
C -0.795609 -3 -1.55874 -2.683901 -2.12132 -2.12132 
C -2.683901 -1.55874 -3 -0.795609 -3 0 
C -3 0.795609 -2.683901 1.55874 -2.12132 2.12132 
C -1.55874 2.683901 -0.795609 3 0 3 
z
" id="m72e8ca2ae2" style="stroke:#8c564b;"/>
    </defs>
    <g>
     <use style="fill:#8c564b;stroke:#8c564b;" x="370.486649" xlink:href="#m72e8ca2ae2" y="146.459062"/>
    </g>
   </g>
   <g id="text_22">
    <!-- Vip -->
    <g transform="translate(388.486649 149.084062)scale(0.1 -0.1)">
     <defs>
      <path d="M 28.609375 0 
L 0.78125 72.90625 
L 11.078125 72.90625 
L 34.1875 11.53125 
L 57.328125 72.90625 
L 67.578125 72.90625 
L 39.796875 0 
z
" id="DejaVuSans-86"/>
     </defs>
     <use xlink:href="#DejaVuSans-86"/>
     <use x="66.158203" xlink:href="#DejaVuSans-105"/>
     <use x="93.941406" xlink:href="#DejaVuSans-112"/>
    </g>
   </g>
   <g id="PathCollection_24">
    <defs>
     <path d="M 0 3 
C 0.795609 3 1.55874 2.683901 2.12132 2.12132 
C 2.683901 1.55874 3 0.795609 3 0 
C 3 -0.795609 2.683901 -1.55874 2.12132 -2.12132 
C 1.55874 -2.683901 0.795609 -3 0 -3 
C -0.795609 -3 -1.55874 -2.683901 -2.12132 -2.12132 
C -2.683901 -1.55874 -3 -0.795609 -3 0 
C -3 0.795609 -2.683901 1.55874 -2.12132 2.12132 
C -1.55874 2.683901 -0.795609 3 0 3 
z
" id="m95e6fa353a" style="stroke:#e377c2;"/>
    </defs>
    <g>
     <use style="fill:#e377c2;stroke:#e377c2;" x="370.486649" xlink:href="#m95e6fa353a" y="161.137187"/>
    </g>
   </g>
   <g id="text_23">
    <!-- Endo -->
    <g transform="translate(388.486649 163.762187)scale(0.1 -0.1)">
     <use xlink:href="#DejaVuSans-69"/>
     <use x="63.183594" xlink:href="#DejaVuSans-110"/>
     <use x="126.5625" xlink:href="#DejaVuSans-100"/>
     <use x="190.039062" xlink:href="#DejaVuSans-111"/>
    </g>
   </g>
   <g id="PathCollection_25">
    <defs>
     <path d="M 0 3 
C 0.795609 3 1.55874 2.683901 2.12132 2.12132 
C 2.683901 1.55874 3 0.795609 3 0 
C 3 -0.795609 2.683901 -1.55874 2.12132 -2.12132 
C 1.55874 -2.683901 0.795609 -3 0 -3 
C -0.795609 -3 -1.55874 -2.683901 -2.12132 -2.12132 
C -2.683901 -1.55874 -3 -0.795609 -3 0 
C -3 0.795609 -2.683901 1.55874 -2.12132 2.12132 
C -1.55874 2.683901 -0.795609 3 0 3 
z
" id="m7808918981" style="stroke:#7f7f7f;"/>
    </defs>
    <g>
     <use style="fill:#7f7f7f;stroke:#7f7f7f;" x="370.486649" xlink:href="#m7808918981" y="175.815312"/>
    </g>
   </g>
   <g id="text_24">
    <!-- Lamp5 -->
    <g transform="translate(388.486649 178.440312)scale(0.1 -0.1)">
     <use xlink:href="#DejaVuSans-76"/>
     <use x="55.712891" xlink:href="#DejaVuSans-97"/>
     <use x="116.992188" xlink:href="#DejaVuSans-109"/>
     <use x="214.404297" xlink:href="#DejaVuSans-112"/>
     <use x="277.880859" xlink:href="#DejaVuSans-53"/>
    </g>
   </g>
   <g id="PathCollection_26">
    <defs>
     <path d="M 0 3 
C 0.795609 3 1.55874 2.683901 2.12132 2.12132 
C 2.683901 1.55874 3 0.795609 3 0 
C 3 -0.795609 2.683901 -1.55874 2.12132 -2.12132 
C 1.55874 -2.683901 0.795609 -3 0 -3 
C -0.795609 -3 -1.55874 -2.683901 -2.12132 -2.12132 
C -2.683901 -1.55874 -3 -0.795609 -3 0 
C -3 0.795609 -2.683901 1.55874 -2.12132 2.12132 
C -1.55874 2.683901 -0.795609 3 0 3 
z
" id="mbbe303f4a6" style="stroke:#bcbd22;"/>
    </defs>
    <g>
     <use style="fill:#bcbd22;stroke:#bcbd22;" x="370.486649" xlink:href="#mbbe303f4a6" y="190.493437"/>
    </g>
   </g>
   <g id="text_25">
    <!-- Sst -->
    <g transform="translate(388.486649 193.118437)scale(0.1 -0.1)">
     <use xlink:href="#DejaVuSans-83"/>
     <use x="63.476562" xlink:href="#DejaVuSans-115"/>
     <use x="115.576172" xlink:href="#DejaVuSans-116"/>
    </g>
   </g>
   <g id="PathCollection_27">
    <defs>
     <path d="M 0 3 
C 0.795609 3 1.55874 2.683901 2.12132 2.12132 
C 2.683901 1.55874 3 0.795609 3 0 
C 3 -0.795609 2.683901 -1.55874 2.12132 -2.12132 
C 1.55874 -2.683901 0.795609 -3 0 -3 
C -0.795609 -3 -1.55874 -2.683901 -2.12132 -2.12132 
C -2.683901 -1.55874 -3 -0.795609 -3 0 
C -3 0.795609 -2.683901 1.55874 -2.12132 2.12132 
C -1.55874 2.683901 -0.795609 3 0 3 
z
" id="mbae1bab353" style="stroke:#17becf;"/>
    </defs>
    <g>
     <use style="fill:#17becf;stroke:#17becf;" x="370.486649" xlink:href="#mbae1bab353" y="205.171562"/>
    </g>
   </g>
   <g id="text_26">
    <!-- SMC -->
    <g transform="translate(388.486649 207.796562)scale(0.1 -0.1)">
     <use xlink:href="#DejaVuSans-83"/>
     <use x="63.476562" xlink:href="#DejaVuSans-77"/>
     <use x="149.755859" xlink:href="#DejaVuSans-67"/>
    </g>
   </g>
   <g id="text_27">
    <!-- merfish_mouse -->
    <g transform="translate(368.486649 222.474687)scale(0.1 -0.1)">
     <defs>
      <path d="M 54.890625 33.015625 
L 54.890625 0 
L 45.90625 0 
L 45.90625 32.71875 
Q 45.90625 40.484375 42.875 44.328125 
Q 39.84375 48.1875 33.796875 48.1875 
Q 26.515625 48.1875 22.3125 43.546875 
Q 18.109375 38.921875 18.109375 30.90625 
L 18.109375 0 
L 9.078125 0 
L 9.078125 75.984375 
L 18.109375 75.984375 
L 18.109375 46.1875 
Q 21.34375 51.125 25.703125 53.5625 
Q 30.078125 56 35.796875 56 
Q 45.21875 56 50.046875 50.171875 
Q 54.890625 44.34375 54.890625 33.015625 
z
" id="DejaVuSans-104"/>
      <path d="M 50.984375 -16.609375 
L 50.984375 -23.578125 
L -0.984375 -23.578125 
L -0.984375 -16.609375 
z
" id="DejaVuSans-95"/>
      <path d="M 8.5 21.578125 
L 8.5 54.6875 
L 17.484375 54.6875 
L 17.484375 21.921875 
Q 17.484375 14.15625 20.5 10.265625 
Q 23.53125 6.390625 29.59375 6.390625 
Q 36.859375 6.390625 41.078125 11.03125 
Q 45.3125 15.671875 45.3125 23.6875 
L 45.3125 54.6875 
L 54.296875 54.6875 
L 54.296875 0 
L 45.3125 0 
L 45.3125 8.40625 
Q 42.046875 3.421875 37.71875 1 
Q 33.40625 -1.421875 27.6875 -1.421875 
Q 18.265625 -1.421875 13.375 4.4375 
Q 8.5 10.296875 8.5 21.578125 
z
M 31.109375 56 
z
" id="DejaVuSans-117"/>
     </defs>
     <use xlink:href="#DejaVuSans-109"/>
     <use x="97.412109" xlink:href="#DejaVuSans-101"/>
     <use x="158.935547" xlink:href="#DejaVuSans-114"/>
     <use x="200.048828" xlink:href="#DejaVuSans-102"/>
     <use x="235.253906" xlink:href="#DejaVuSans-105"/>
     <use x="263.037109" xlink:href="#DejaVuSans-115"/>
     <use x="315.136719" xlink:href="#DejaVuSans-104"/>
     <use x="378.515625" xlink:href="#DejaVuSans-95"/>
     <use x="428.515625" xlink:href="#DejaVuSans-109"/>
     <use x="525.927734" xlink:href="#DejaVuSans-111"/>
     <use x="587.109375" xlink:href="#DejaVuSans-117"/>
     <use x="650.488281" xlink:href="#DejaVuSans-115"/>
     <use x="702.587891" xlink:href="#DejaVuSans-101"/>
    </g>
   </g>
   <g id="PathCollection_28">
    <defs>
     <path d="M 0 2.12132 
C 0.562581 2.12132 1.102195 1.897805 1.5 1.5 
C 1.897805 1.102195 2.12132 0.562581 2.12132 0 
C 2.12132 -0.562581 1.897805 -1.102195 1.5 -1.5 
C 1.102195 -1.897805 0.562581 -2.12132 0 -2.12132 
C -0.562581 -2.12132 -1.102195 -1.897805 -1.5 -1.5 
C -1.897805 -1.102195 -2.12132 -0.562581 -2.12132 0 
C -2.12132 0.562581 -1.897805 1.102195 -1.5 1.5 
C -1.102195 1.897805 -0.562581 2.12132 0 2.12132 
z
" id="mb2810bb383" style="stroke:#333333;"/>
    </defs>
    <g>
     <use style="fill:#333333;stroke:#333333;" x="370.486649" xlink:href="#mb2810bb383" y="234.805937"/>
    </g>
   </g>
   <g id="text_28">
    <!-- 1 -->
    <g transform="translate(388.486649 237.430937)scale(0.1 -0.1)">
     <use xlink:href="#DejaVuSans-49"/>
    </g>
   </g>
   <g id="PathCollection_29">
    <defs>
     <path d="M 0 4.242641 
C 1.125161 4.242641 2.204391 3.795609 3 3 
C 3.795609 2.204391 4.242641 1.125161 4.242641 0 
C 4.242641 -1.125161 3.795609 -2.204391 3 -3 
C 2.204391 -3.795609 1.125161 -4.242641 0 -4.242641 
C -1.125161 -4.242641 -2.204391 -3.795609 -3 -3 
C -3.795609 -2.204391 -4.242641 -1.125161 -4.242641 0 
C -4.242641 1.125161 -3.795609 2.204391 -3 3 
C -2.204391 3.795609 -1.125161 4.242641 0 4.242641 
z
" id="m5e93e893be" style="stroke:#333333;"/>
    </defs>
    <g>
     <use style="fill:#333333;stroke:#333333;" x="370.486649" xlink:href="#m5e93e893be" y="249.484062"/>
    </g>
   </g>
   <g id="text_29">
    <!-- 2 -->
    <g transform="translate(388.486649 252.109062)scale(0.1 -0.1)">
     <use xlink:href="#DejaVuSans-50"/>
    </g>
   </g>
   <g id="text_30">
    <!-- readzs_mouse -->
    <g transform="translate(368.486649 266.787187)scale(0.1 -0.1)">
     <use xlink:href="#DejaVuSans-114"/>
     <use x="38.863281" xlink:href="#DejaVuSans-101"/>
     <use x="100.386719" xlink:href="#DejaVuSans-97"/>
     <use x="161.666016" xlink:href="#DejaVuSans-100"/>
     <use x="225.142578" xlink:href="#DejaVuSans-122"/>
     <use x="277.632812" xlink:href="#DejaVuSans-115"/>
     <use x="329.732422" xlink:href="#DejaVuSans-95"/>
     <use x="379.732422" xlink:href="#DejaVuSans-109"/>
     <use x="477.144531" xlink:href="#DejaVuSans-111"/>
     <use x="538.326172" xlink:href="#DejaVuSans-117"/>
     <use x="601.705078" xlink:href="#DejaVuSans-115"/>
     <use x="653.804688" xlink:href="#DejaVuSans-101"/>
    </g>
   </g>
   <g id="PathCollection_30">
    <defs>
     <path d="M 0 3 
C 0.795609 3 1.55874 2.683901 2.12132 2.12132 
C 2.683901 1.55874 3 0.795609 3 0 
C 3 -0.795609 2.683901 -1.55874 2.12132 -2.12132 
C 1.55874 -2.683901 0.795609 -3 0 -3 
C -0.795609 -3 -1.55874 -2.683901 -2.12132 -2.12132 
C -2.683901 -1.55874 -3 -0.795609 -3 0 
C -3 0.795609 -2.683901 1.55874 -2.12132 2.12132 
C -1.55874 2.683901 -0.795609 3 0 3 
z
" id="md99650705d" style="stroke:#333333;"/>
    </defs>
    <g>
     <use style="fill:#333333;stroke:#333333;" x="370.486649" xlink:href="#md99650705d" y="279.118437"/>
    </g>
   </g>
   <g id="text_31">
    <!-- 427378 -->
    <g transform="translate(388.486649 281.743437)scale(0.1 -0.1)">
     <defs>
      <path d="M 37.796875 64.3125 
L 12.890625 25.390625 
L 37.796875 25.390625 
z
M 35.203125 72.90625 
L 47.609375 72.90625 
L 47.609375 25.390625 
L 58.015625 25.390625 
L 58.015625 17.1875 
L 47.609375 17.1875 
L 47.609375 0 
L 37.796875 0 
L 37.796875 17.1875 
L 4.890625 17.1875 
L 4.890625 26.703125 
z
" id="DejaVuSans-52"/>
      <path d="M 31.78125 34.625 
Q 24.75 34.625 20.71875 30.859375 
Q 16.703125 27.09375 16.703125 20.515625 
Q 16.703125 13.921875 20.71875 10.15625 
Q 24.75 6.390625 31.78125 6.390625 
Q 38.8125 6.390625 42.859375 10.171875 
Q 46.921875 13.96875 46.921875 20.515625 
Q 46.921875 27.09375 42.890625 30.859375 
Q 38.875 34.625 31.78125 34.625 
z
M 21.921875 38.8125 
Q 15.578125 40.375 12.03125 44.71875 
Q 8.5 49.078125 8.5 55.328125 
Q 8.5 64.0625 14.71875 69.140625 
Q 20.953125 74.21875 31.78125 74.21875 
Q 42.671875 74.21875 48.875 69.140625 
Q 55.078125 64.0625 55.078125 55.328125 
Q 55.078125 49.078125 51.53125 44.71875 
Q 48 40.375 41.703125 38.8125 
Q 48.828125 37.15625 52.796875 32.3125 
Q 56.78125 27.484375 56.78125 20.515625 
Q 56.78125 9.90625 50.3125 4.234375 
Q 43.84375 -1.421875 31.78125 -1.421875 
Q 19.734375 -1.421875 13.25 4.234375 
Q 6.78125 9.90625 6.78125 20.515625 
Q 6.78125 27.484375 10.78125 32.3125 
Q 14.796875 37.15625 21.921875 38.8125 
z
M 18.3125 54.390625 
Q 18.3125 48.734375 21.84375 45.5625 
Q 25.390625 42.390625 31.78125 42.390625 
Q 38.140625 42.390625 41.71875 45.5625 
Q 45.3125 48.734375 45.3125 54.390625 
Q 45.3125 60.0625 41.71875 63.234375 
Q 38.140625 66.40625 31.78125 66.40625 
Q 25.390625 66.40625 21.84375 63.234375 
Q 18.3125 60.0625 18.3125 54.390625 
z
" id="DejaVuSans-56"/>
     </defs>
     <use xlink:href="#DejaVuSans-52"/>
     <use x="63.623047" xlink:href="#DejaVuSans-50"/>
     <use x="127.246094" xlink:href="#DejaVuSans-55"/>
     <use x="190.869141" xlink:href="#DejaVuSans-51"/>
     <use x="254.492188" xlink:href="#DejaVuSans-55"/>
     <use x="318.115234" xlink:href="#DejaVuSans-56"/>
    </g>
   </g>
   <g id="PathCollection_31">
    <defs>
     <path d="M -1.5 3 
L 0 1.5 
L 1.5 3 
L 3 1.5 
L 1.5 0 
L 3 -1.5 
L 1.5 -3 
L 0 -1.5 
L -1.5 -3 
L -3 -1.5 
L -1.5 0 
L -3 1.5 
z
" id="md334b13663" style="stroke:#333333;"/>
    </defs>
    <g>
     <use style="fill:#333333;stroke:#333333;" x="370.486649" xlink:href="#md334b13663" y="293.796562"/>
    </g>
   </g>
   <g id="text_32">
    <!-- 457911 -->
    <g transform="translate(388.486649 296.421562)scale(0.1 -0.1)">
     <defs>
      <path d="M 10.984375 1.515625 
L 10.984375 10.5 
Q 14.703125 8.734375 18.5 7.8125 
Q 22.3125 6.890625 25.984375 6.890625 
Q 35.75 6.890625 40.890625 13.453125 
Q 46.046875 20.015625 46.78125 33.40625 
Q 43.953125 29.203125 39.59375 26.953125 
Q 35.25 24.703125 29.984375 24.703125 
Q 19.046875 24.703125 12.671875 31.3125 
Q 6.296875 37.9375 6.296875 49.421875 
Q 6.296875 60.640625 12.9375 67.421875 
Q 19.578125 74.21875 30.609375 74.21875 
Q 43.265625 74.21875 49.921875 64.515625 
Q 56.59375 54.828125 56.59375 36.375 
Q 56.59375 19.140625 48.40625 8.859375 
Q 40.234375 -1.421875 26.421875 -1.421875 
Q 22.703125 -1.421875 18.890625 -0.6875 
Q 15.09375 0.046875 10.984375 1.515625 
z
M 30.609375 32.421875 
Q 37.25 32.421875 41.125 36.953125 
Q 45.015625 41.5 45.015625 49.421875 
Q 45.015625 57.28125 41.125 61.84375 
Q 37.25 66.40625 30.609375 66.40625 
Q 23.96875 66.40625 20.09375 61.84375 
Q 16.21875 57.28125 16.21875 49.421875 
Q 16.21875 41.5 20.09375 36.953125 
Q 23.96875 32.421875 30.609375 32.421875 
z
" id="DejaVuSans-57"/>
     </defs>
     <use xlink:href="#DejaVuSans-52"/>
     <use x="63.623047" xlink:href="#DejaVuSans-53"/>
     <use x="127.246094" xlink:href="#DejaVuSans-55"/>
     <use x="190.869141" xlink:href="#DejaVuSans-57"/>
     <use x="254.492188" xlink:href="#DejaVuSans-49"/>
     <use x="318.115234" xlink:href="#DejaVuSans-49"/>
    </g>
   </g>
   <g id="PathCollection_32">
    <defs>
     <path d="M -2.12132 -2.12132 
L -2.12132 2.12132 
L 2.12132 2.12132 
L 2.12132 -2.12132 
z
" id="m6c6ad1f355" style="stroke:#333333;"/>
    </defs>
    <g>
     <use style="fill:#333333;stroke:#333333;" x="370.486649" xlink:href="#m6c6ad1f355" y="308.474687"/>
    </g>
   </g>
   <g id="text_33">
    <!-- 426003 -->
    <g transform="translate(388.486649 311.099687)scale(0.1 -0.1)">
     <use xlink:href="#DejaVuSans-52"/>
     <use x="63.623047" xlink:href="#DejaVuSans-50"/>
     <use x="127.246094" xlink:href="#DejaVuSans-54"/>
     <use x="190.869141" xlink:href="#DejaVuSans-48"/>
     <use x="254.492188" xlink:href="#DejaVuSans-48"/>
     <use x="318.115234" xlink:href="#DejaVuSans-51"/>
    </g>
   </g>
   <g id="PathCollection_33">
    <defs>
     <path d="M -1 3 
L 1 3 
L 1 1 
L 3 1 
L 3 -1 
L 1 -1 
L 1 -3 
L -1 -3 
L -1 -1 
L -3 -1 
L -3 1 
L -1 1 
z
" id="m487fec2d08" style="stroke:#333333;"/>
    </defs>
    <g>
     <use style="fill:#333333;stroke:#333333;" x="370.486649" xlink:href="#m487fec2d08" y="323.152812"/>
    </g>
   </g>
   <g id="text_34">
    <!-- 457909 -->
    <g transform="translate(388.486649 325.777812)scale(0.1 -0.1)">
     <use xlink:href="#DejaVuSans-52"/>
     <use x="63.623047" xlink:href="#DejaVuSans-53"/>
     <use x="127.246094" xlink:href="#DejaVuSans-55"/>
     <use x="190.869141" xlink:href="#DejaVuSans-57"/>
     <use x="254.492188" xlink:href="#DejaVuSans-48"/>
     <use x="318.115234" xlink:href="#DejaVuSans-57"/>
    </g>
   </g>
  </g>
 </g>
 <defs>
  <clipPath id="pa90dc07cd8">
   <rect height="321.4" width="302.636337" x="52.160938" y="22.318125"/>
  </clipPath>
 </defs>
</svg>
