<?xml version="1.0" encoding="utf-8" standalone="no"?>
<!DOCTYPE svg PUBLIC "-//W3C//DTD SVG 1.1//EN"
  "http://www.w3.org/Graphics/SVG/1.1/DTD/svg11.dtd">
<!-- Created with matplotlib (https://matplotlib.org/) -->
<svg height="381.5525pt" version="1.1" viewBox="0 0 437.888125 381.5525" width="437.888125pt" xmlns="http://www.w3.org/2000/svg" xmlns:xlink="http://www.w3.org/1999/xlink">
 <metadata>
  <rdf:RDF xmlns:cc="http://creativecommons.org/ns#" xmlns:dc="http://purl.org/dc/elements/1.1/" xmlns:rdf="http://www.w3.org/1999/02/22-rdf-syntax-ns#">
   <cc:Work>
    <dc:type rdf:resource="http://purl.org/dc/dcmitype/StillImage"/>
    <dc:date>2022-03-10T17:04:07.130333</dc:date>
    <dc:format>image/svg+xml</dc:format>
    <dc:creator>
     <cc:Agent>
      <dc:title>Matplotlib v3.3.3, https://matplotlib.org/</dc:title>
     </cc:Agent>
    </dc:creator>
   </cc:Work>
  </rdf:RDF>
 </metadata>
 <defs>
  <style type="text/css">*{stroke-linecap:butt;stroke-linejoin:round;}</style>
 </defs>
 <g id="figure_1">
  <g id="patch_1">
   <path d="M 0 381.5525 
L 437.888125 381.5525 
L 437.888125 0 
L 0 0 
z
" style="fill:none;"/>
  </g>
  <g id="axes_1">
   <g id="patch_2">
    <path d="M 52.160938 343.718125 
L 357.095625 343.718125 
L 357.095625 22.318125 
L 52.160938 22.318125 
z
" style="fill:#ffffff;"/>
   </g>
   <g id="PathCollection_1">
    <defs>
     <path d="M 0 3 
C 0.795609 3 1.55874 2.683901 2.12132 2.12132 
C 2.683901 1.55874 3 0.795609 3 -0 
C 3 -0.795609 2.683901 -1.55874 2.12132 -2.12132 
C 1.55874 -2.683901 0.795609 -3 0 -3 
C -0.795609 -3 -1.55874 -2.683901 -2.12132 -2.12132 
C -2.683901 -1.55874 -3 -0.795609 -3 0 
C -3 0.795609 -2.683901 1.55874 -2.12132 2.12132 
C -1.55874 2.683901 -0.795609 3 0 3 
z
" id="C0_0_5ae7b8533f"/>
    </defs>
    <g clip-path="url(#p7fc7a251a7)">
     <use style="fill:#f77189;stroke:#ffffff;stroke-width:0.48;" x="66.021605" xlink:href="#C0_0_5ae7b8533f" y="130.607852"/>
    </g>
    <g clip-path="url(#p7fc7a251a7)">
     <use style="fill:#f77189;stroke:#ffffff;stroke-width:0.48;" x="66.021605" xlink:href="#C0_0_5ae7b8533f" y="177.838691"/>
    </g>
    <g clip-path="url(#p7fc7a251a7)">
     <use style="fill:#f77189;stroke:#ffffff;stroke-width:0.48;" x="66.021605" xlink:href="#C0_0_5ae7b8533f" y="106.977016"/>
    </g>
    <g clip-path="url(#p7fc7a251a7)">
     <use style="fill:#f77189;stroke:#ffffff;stroke-width:0.48;" x="66.021605" xlink:href="#C0_0_5ae7b8533f" y="189.656471"/>
    </g>
    <g clip-path="url(#p7fc7a251a7)">
     <use style="fill:#f77189;stroke:#ffffff;stroke-width:0.48;" x="66.021605" xlink:href="#C0_0_5ae7b8533f" y="153.289084"/>
    </g>
    <g clip-path="url(#p7fc7a251a7)">
     <use style="fill:#f77189;stroke:#ffffff;stroke-width:0.48;" x="66.021605" xlink:href="#C0_0_5ae7b8533f" y="62.027245"/>
    </g>
    <g clip-path="url(#p7fc7a251a7)">
     <use style="fill:#f77189;stroke:#ffffff;stroke-width:0.48;" x="66.021605" xlink:href="#C0_0_5ae7b8533f" y="94.315349"/>
    </g>
    <g clip-path="url(#p7fc7a251a7)">
     <use style="fill:#f77189;stroke:#ffffff;stroke-width:0.48;" x="66.021605" xlink:href="#C0_0_5ae7b8533f" y="99.591764"/>
    </g>
    <g clip-path="url(#p7fc7a251a7)">
     <use style="fill:#3ba3ec;stroke:#ffffff;stroke-width:0.48;" x="310.438284" xlink:href="#C0_0_5ae7b8533f" y="252.42341"/>
    </g>
    <g clip-path="url(#p7fc7a251a7)">
     <use style="fill:#3ba3ec;stroke:#ffffff;stroke-width:0.48;" x="310.438284" xlink:href="#C0_0_5ae7b8533f" y="251.575701"/>
    </g>
    <g clip-path="url(#p7fc7a251a7)">
     <use style="fill:#3ba3ec;stroke:#ffffff;stroke-width:0.48;" x="310.438284" xlink:href="#C0_0_5ae7b8533f" y="258.873585"/>
    </g>
    <g clip-path="url(#p7fc7a251a7)">
     <use style="fill:#3ba3ec;stroke:#ffffff;stroke-width:0.48;" x="310.438284" xlink:href="#C0_0_5ae7b8533f" y="261.886169"/>
    </g>
    <g clip-path="url(#p7fc7a251a7)">
     <use style="fill:#3ba3ec;stroke:#ffffff;stroke-width:0.48;" x="310.438284" xlink:href="#C0_0_5ae7b8533f" y="259.123284"/>
    </g>
    <g clip-path="url(#p7fc7a251a7)">
     <use style="fill:#3ba3ec;stroke:#ffffff;stroke-width:0.48;" x="310.438284" xlink:href="#C0_0_5ae7b8533f" y="265.385231"/>
    </g>
    <g clip-path="url(#p7fc7a251a7)">
     <use style="fill:#3ba3ec;stroke:#ffffff;stroke-width:0.48;" x="310.438284" xlink:href="#C0_0_5ae7b8533f" y="256.265029"/>
    </g>
    <g clip-path="url(#p7fc7a251a7)">
     <use style="fill:#3ba3ec;stroke:#ffffff;stroke-width:0.48;" x="310.438284" xlink:href="#C0_0_5ae7b8533f" y="261.641164"/>
    </g>
    <g clip-path="url(#p7fc7a251a7)">
     <use style="fill:#3ba3ec;stroke:#ffffff;stroke-width:0.48;" x="310.438284" xlink:href="#C0_0_5ae7b8533f" y="264.14938"/>
    </g>
    <g clip-path="url(#p7fc7a251a7)">
     <use style="fill:#3ba3ec;stroke:#ffffff;stroke-width:0.48;" x="310.438284" xlink:href="#C0_0_5ae7b8533f" y="264.224599"/>
    </g>
    <g clip-path="url(#p7fc7a251a7)">
     <use style="fill:#3ba3ec;stroke:#ffffff;stroke-width:0.48;" x="310.438284" xlink:href="#C0_0_5ae7b8533f" y="259.261674"/>
    </g>
    <g clip-path="url(#p7fc7a251a7)">
     <use style="fill:#3ba3ec;stroke:#ffffff;stroke-width:0.48;" x="310.438284" xlink:href="#C0_0_5ae7b8533f" y="261.423878"/>
    </g>
    <g clip-path="url(#p7fc7a251a7)">
     <use style="fill:#36ada4;stroke:#ffffff;stroke-width:0.48;" x="289.833053" xlink:href="#C0_0_5ae7b8533f" y="269.936545"/>
    </g>
    <g clip-path="url(#p7fc7a251a7)">
     <use style="fill:#36ada4;stroke:#ffffff;stroke-width:0.48;" x="289.833053" xlink:href="#C0_0_5ae7b8533f" y="258.308122"/>
    </g>
    <g clip-path="url(#p7fc7a251a7)">
     <use style="fill:#36ada4;stroke:#ffffff;stroke-width:0.48;" x="289.833053" xlink:href="#C0_0_5ae7b8533f" y="237.582069"/>
    </g>
    <g clip-path="url(#p7fc7a251a7)">
     <use style="fill:#36ada4;stroke:#ffffff;stroke-width:0.48;" x="289.833053" xlink:href="#C0_0_5ae7b8533f" y="262.353302"/>
    </g>
    <g clip-path="url(#p7fc7a251a7)">
     <use style="fill:#36ada4;stroke:#ffffff;stroke-width:0.48;" x="289.833053" xlink:href="#C0_0_5ae7b8533f" y="267.592205"/>
    </g>
    <g clip-path="url(#p7fc7a251a7)">
     <use style="fill:#36ada4;stroke:#ffffff;stroke-width:0.48;" x="289.833053" xlink:href="#C0_0_5ae7b8533f" y="267.237405"/>
    </g>
    <g clip-path="url(#p7fc7a251a7)">
     <use style="fill:#36ada4;stroke:#ffffff;stroke-width:0.48;" x="289.833053" xlink:href="#C0_0_5ae7b8533f" y="260.644098"/>
    </g>
    <g clip-path="url(#p7fc7a251a7)">
     <use style="fill:#36ada4;stroke:#ffffff;stroke-width:0.48;" x="289.833053" xlink:href="#C0_0_5ae7b8533f" y="251.048822"/>
    </g>
    <g clip-path="url(#p7fc7a251a7)">
     <use style="fill:#36ada4;stroke:#ffffff;stroke-width:0.48;" x="289.833053" xlink:href="#C0_0_5ae7b8533f" y="280.849796"/>
    </g>
    <g clip-path="url(#p7fc7a251a7)">
     <use style="fill:#36ada4;stroke:#ffffff;stroke-width:0.48;" x="289.833053" xlink:href="#C0_0_5ae7b8533f" y="257.621976"/>
    </g>
    <g clip-path="url(#p7fc7a251a7)">
     <use style="fill:#36ada4;stroke:#ffffff;stroke-width:0.48;" x="289.833053" xlink:href="#C0_0_5ae7b8533f" y="297.022558"/>
    </g>
    <g clip-path="url(#p7fc7a251a7)">
     <use style="fill:#36ada4;stroke:#ffffff;stroke-width:0.48;" x="289.833053" xlink:href="#C0_0_5ae7b8533f" y="266.791097"/>
    </g>
    <g clip-path="url(#p7fc7a251a7)">
     <use style="fill:#34af84;stroke:#ffffff;stroke-width:0.48;" x="283.318246" xlink:href="#C0_0_5ae7b8533f" y="256.857867"/>
    </g>
    <g clip-path="url(#p7fc7a251a7)">
     <use style="fill:#34af84;stroke:#ffffff;stroke-width:0.48;" x="283.318246" xlink:href="#C0_0_5ae7b8533f" y="247.652284"/>
    </g>
    <g clip-path="url(#p7fc7a251a7)">
     <use style="fill:#34af84;stroke:#ffffff;stroke-width:0.48;" x="283.318246" xlink:href="#C0_0_5ae7b8533f" y="258.550186"/>
    </g>
    <g clip-path="url(#p7fc7a251a7)">
     <use style="fill:#34af84;stroke:#ffffff;stroke-width:0.48;" x="283.318246" xlink:href="#C0_0_5ae7b8533f" y="261.570914"/>
    </g>
    <g clip-path="url(#p7fc7a251a7)">
     <use style="fill:#34af84;stroke:#ffffff;stroke-width:0.48;" x="283.318246" xlink:href="#C0_0_5ae7b8533f" y="260.612953"/>
    </g>
    <g clip-path="url(#p7fc7a251a7)">
     <use style="fill:#34af84;stroke:#ffffff;stroke-width:0.48;" x="283.318246" xlink:href="#C0_0_5ae7b8533f" y="260.480821"/>
    </g>
    <g clip-path="url(#p7fc7a251a7)">
     <use style="fill:#34af84;stroke:#ffffff;stroke-width:0.48;" x="283.318246" xlink:href="#C0_0_5ae7b8533f" y="267.512577"/>
    </g>
    <g clip-path="url(#p7fc7a251a7)">
     <use style="fill:#34af84;stroke:#ffffff;stroke-width:0.48;" x="283.318246" xlink:href="#C0_0_5ae7b8533f" y="258.468096"/>
    </g>
    <g clip-path="url(#p7fc7a251a7)">
     <use style="fill:#34af84;stroke:#ffffff;stroke-width:0.48;" x="283.318246" xlink:href="#C0_0_5ae7b8533f" y="262.8174"/>
    </g>
    <g clip-path="url(#p7fc7a251a7)">
     <use style="fill:#34af84;stroke:#ffffff;stroke-width:0.48;" x="283.318246" xlink:href="#C0_0_5ae7b8533f" y="267.833524"/>
    </g>
    <g clip-path="url(#p7fc7a251a7)">
     <use style="fill:#34af84;stroke:#ffffff;stroke-width:0.48;" x="283.318246" xlink:href="#C0_0_5ae7b8533f" y="262.835422"/>
    </g>
    <g clip-path="url(#p7fc7a251a7)">
     <use style="fill:#34af84;stroke:#ffffff;stroke-width:0.48;" x="283.318246" xlink:href="#C0_0_5ae7b8533f" y="263.716833"/>
    </g>
    <g clip-path="url(#p7fc7a251a7)">
     <use style="fill:#a48cf4;stroke:#ffffff;stroke-width:0.48;" x="320.280821" xlink:href="#C0_0_5ae7b8533f" y="269.98961"/>
    </g>
    <g clip-path="url(#p7fc7a251a7)">
     <use style="fill:#a48cf4;stroke:#ffffff;stroke-width:0.48;" x="320.280821" xlink:href="#C0_0_5ae7b8533f" y="269.195883"/>
    </g>
    <g clip-path="url(#p7fc7a251a7)">
     <use style="fill:#a48cf4;stroke:#ffffff;stroke-width:0.48;" x="320.280821" xlink:href="#C0_0_5ae7b8533f" y="192.618197"/>
    </g>
    <g clip-path="url(#p7fc7a251a7)">
     <use style="fill:#a48cf4;stroke:#ffffff;stroke-width:0.48;" x="320.280821" xlink:href="#C0_0_5ae7b8533f" y="268.272461"/>
    </g>
    <g clip-path="url(#p7fc7a251a7)">
     <use style="fill:#a48cf4;stroke:#ffffff;stroke-width:0.48;" x="320.280821" xlink:href="#C0_0_5ae7b8533f" y="290.898356"/>
    </g>
    <g clip-path="url(#p7fc7a251a7)">
     <use style="fill:#a48cf4;stroke:#ffffff;stroke-width:0.48;" x="320.280821" xlink:href="#C0_0_5ae7b8533f" y="259.927611"/>
    </g>
    <g clip-path="url(#p7fc7a251a7)">
     <use style="fill:#a48cf4;stroke:#ffffff;stroke-width:0.48;" x="320.280821" xlink:href="#C0_0_5ae7b8533f" y="236.183486"/>
    </g>
    <g clip-path="url(#p7fc7a251a7)">
     <use style="fill:#a48cf4;stroke:#ffffff;stroke-width:0.48;" x="320.280821" xlink:href="#C0_0_5ae7b8533f" y="240.997212"/>
    </g>
    <g clip-path="url(#p7fc7a251a7)">
     <use style="fill:#a48cf4;stroke:#ffffff;stroke-width:0.48;" x="320.280821" xlink:href="#C0_0_5ae7b8533f" y="284.439674"/>
    </g>
    <g clip-path="url(#p7fc7a251a7)">
     <use style="fill:#a48cf4;stroke:#ffffff;stroke-width:0.48;" x="320.280821" xlink:href="#C0_0_5ae7b8533f" y="266.805846"/>
    </g>
    <g clip-path="url(#p7fc7a251a7)">
     <use style="fill:#a48cf4;stroke:#ffffff;stroke-width:0.48;" x="320.280821" xlink:href="#C0_0_5ae7b8533f" y="235.251992"/>
    </g>
    <g clip-path="url(#p7fc7a251a7)">
     <use style="fill:#a48cf4;stroke:#ffffff;stroke-width:0.48;" x="320.280821" xlink:href="#C0_0_5ae7b8533f" y="243.134958"/>
    </g>
    <g clip-path="url(#p7fc7a251a7)">
     <use style="fill:#e866f4;stroke:#ffffff;stroke-width:0.48;" x="328.610746" xlink:href="#C0_0_5ae7b8533f" y="266.302636"/>
    </g>
    <g clip-path="url(#p7fc7a251a7)">
     <use style="fill:#e866f4;stroke:#ffffff;stroke-width:0.48;" x="328.610746" xlink:href="#C0_0_5ae7b8533f" y="253.920641"/>
    </g>
    <g clip-path="url(#p7fc7a251a7)">
     <use style="fill:#e866f4;stroke:#ffffff;stroke-width:0.48;" x="328.610746" xlink:href="#C0_0_5ae7b8533f" y="258.770678"/>
    </g>
    <g clip-path="url(#p7fc7a251a7)">
     <use style="fill:#e866f4;stroke:#ffffff;stroke-width:0.48;" x="328.610746" xlink:href="#C0_0_5ae7b8533f" y="255.248374"/>
    </g>
    <g clip-path="url(#p7fc7a251a7)">
     <use style="fill:#e866f4;stroke:#ffffff;stroke-width:0.48;" x="328.610746" xlink:href="#C0_0_5ae7b8533f" y="257.2525"/>
    </g>
    <g clip-path="url(#p7fc7a251a7)">
     <use style="fill:#e866f4;stroke:#ffffff;stroke-width:0.48;" x="328.610746" xlink:href="#C0_0_5ae7b8533f" y="259.293509"/>
    </g>
    <g clip-path="url(#p7fc7a251a7)">
     <use style="fill:#e866f4;stroke:#ffffff;stroke-width:0.48;" x="328.610746" xlink:href="#C0_0_5ae7b8533f" y="260.83883"/>
    </g>
    <g clip-path="url(#p7fc7a251a7)">
     <use style="fill:#e866f4;stroke:#ffffff;stroke-width:0.48;" x="328.610746" xlink:href="#C0_0_5ae7b8533f" y="257.318914"/>
    </g>
    <g clip-path="url(#p7fc7a251a7)">
     <use style="fill:#e866f4;stroke:#ffffff;stroke-width:0.48;" x="328.610746" xlink:href="#C0_0_5ae7b8533f" y="270.096145"/>
    </g>
    <g clip-path="url(#p7fc7a251a7)">
     <use style="fill:#e866f4;stroke:#ffffff;stroke-width:0.48;" x="328.610746" xlink:href="#C0_0_5ae7b8533f" y="262.868219"/>
    </g>
    <g clip-path="url(#p7fc7a251a7)">
     <use style="fill:#e866f4;stroke:#ffffff;stroke-width:0.48;" x="328.610746" xlink:href="#C0_0_5ae7b8533f" y="266.711332"/>
    </g>
    <g clip-path="url(#p7fc7a251a7)">
     <use style="fill:#e866f4;stroke:#ffffff;stroke-width:0.48;" x="328.610746" xlink:href="#C0_0_5ae7b8533f" y="263.625241"/>
    </g>
    <g clip-path="url(#p7fc7a251a7)">
     <use style="fill:#38aabf;stroke:#ffffff;stroke-width:0.48;" x="306.791452" xlink:href="#C0_0_5ae7b8533f" y="257.223216"/>
    </g>
    <g clip-path="url(#p7fc7a251a7)">
     <use style="fill:#38aabf;stroke:#ffffff;stroke-width:0.48;" x="306.791452" xlink:href="#C0_0_5ae7b8533f" y="260.17152"/>
    </g>
    <g clip-path="url(#p7fc7a251a7)">
     <use style="fill:#38aabf;stroke:#ffffff;stroke-width:0.48;" x="306.791452" xlink:href="#C0_0_5ae7b8533f" y="258.918738"/>
    </g>
    <g clip-path="url(#p7fc7a251a7)">
     <use style="fill:#38aabf;stroke:#ffffff;stroke-width:0.48;" x="306.791452" xlink:href="#C0_0_5ae7b8533f" y="260.927517"/>
    </g>
    <g clip-path="url(#p7fc7a251a7)">
     <use style="fill:#38aabf;stroke:#ffffff;stroke-width:0.48;" x="306.791452" xlink:href="#C0_0_5ae7b8533f" y="258.12537"/>
    </g>
    <g clip-path="url(#p7fc7a251a7)">
     <use style="fill:#38aabf;stroke:#ffffff;stroke-width:0.48;" x="306.791452" xlink:href="#C0_0_5ae7b8533f" y="265.870241"/>
    </g>
    <g clip-path="url(#p7fc7a251a7)">
     <use style="fill:#38aabf;stroke:#ffffff;stroke-width:0.48;" x="306.791452" xlink:href="#C0_0_5ae7b8533f" y="265.893897"/>
    </g>
    <g clip-path="url(#p7fc7a251a7)">
     <use style="fill:#38aabf;stroke:#ffffff;stroke-width:0.48;" x="306.791452" xlink:href="#C0_0_5ae7b8533f" y="264.776294"/>
    </g>
    <g clip-path="url(#p7fc7a251a7)">
     <use style="fill:#38aabf;stroke:#ffffff;stroke-width:0.48;" x="306.791452" xlink:href="#C0_0_5ae7b8533f" y="270.232787"/>
    </g>
    <g clip-path="url(#p7fc7a251a7)">
     <use style="fill:#38aabf;stroke:#ffffff;stroke-width:0.48;" x="306.791452" xlink:href="#C0_0_5ae7b8533f" y="260.819705"/>
    </g>
    <g clip-path="url(#p7fc7a251a7)">
     <use style="fill:#38aabf;stroke:#ffffff;stroke-width:0.48;" x="306.791452" xlink:href="#C0_0_5ae7b8533f" y="271.736268"/>
    </g>
    <g clip-path="url(#p7fc7a251a7)">
     <use style="fill:#38aabf;stroke:#ffffff;stroke-width:0.48;" x="306.791452" xlink:href="#C0_0_5ae7b8533f" y="267.190557"/>
    </g>
    <g clip-path="url(#p7fc7a251a7)">
     <use style="fill:#50b131;stroke:#ffffff;stroke-width:0.48;" x="262.404032" xlink:href="#C0_0_5ae7b8533f" y="184.535135"/>
    </g>
    <g clip-path="url(#p7fc7a251a7)">
     <use style="fill:#50b131;stroke:#ffffff;stroke-width:0.48;" x="262.404032" xlink:href="#C0_0_5ae7b8533f" y="233.933131"/>
    </g>
    <g clip-path="url(#p7fc7a251a7)">
     <use style="fill:#50b131;stroke:#ffffff;stroke-width:0.48;" x="262.404032" xlink:href="#C0_0_5ae7b8533f" y="156.956477"/>
    </g>
    <g clip-path="url(#p7fc7a251a7)">
     <use style="fill:#50b131;stroke:#ffffff;stroke-width:0.48;" x="262.404032" xlink:href="#C0_0_5ae7b8533f" y="224.573676"/>
    </g>
    <g clip-path="url(#p7fc7a251a7)">
     <use style="fill:#50b131;stroke:#ffffff;stroke-width:0.48;" x="262.404032" xlink:href="#C0_0_5ae7b8533f" y="299.798032"/>
    </g>
    <g clip-path="url(#p7fc7a251a7)">
     <use style="fill:#50b131;stroke:#ffffff;stroke-width:0.48;" x="262.404032" xlink:href="#C0_0_5ae7b8533f" y="329.109034"/>
    </g>
    <g clip-path="url(#p7fc7a251a7)">
     <use style="fill:#50b131;stroke:#ffffff;stroke-width:0.48;" x="262.404032" xlink:href="#C0_0_5ae7b8533f" y="242.234419"/>
    </g>
    <g clip-path="url(#p7fc7a251a7)">
     <use style="fill:#50b131;stroke:#ffffff;stroke-width:0.48;" x="262.404032" xlink:href="#C0_0_5ae7b8533f" y="253.965809"/>
    </g>
    <g clip-path="url(#p7fc7a251a7)">
     <use style="fill:#50b131;stroke:#ffffff;stroke-width:0.48;" x="262.404032" xlink:href="#C0_0_5ae7b8533f" y="222.465235"/>
    </g>
    <g clip-path="url(#p7fc7a251a7)">
     <use style="fill:#97a431;stroke:#ffffff;stroke-width:0.48;" x="239.93623" xlink:href="#C0_0_5ae7b8533f" y="248.970676"/>
    </g>
    <g clip-path="url(#p7fc7a251a7)">
     <use style="fill:#97a431;stroke:#ffffff;stroke-width:0.48;" x="239.93623" xlink:href="#C0_0_5ae7b8533f" y="265.893078"/>
    </g>
    <g clip-path="url(#p7fc7a251a7)">
     <use style="fill:#97a431;stroke:#ffffff;stroke-width:0.48;" x="239.93623" xlink:href="#C0_0_5ae7b8533f" y="262.331014"/>
    </g>
    <g clip-path="url(#p7fc7a251a7)">
     <use style="fill:#97a431;stroke:#ffffff;stroke-width:0.48;" x="239.93623" xlink:href="#C0_0_5ae7b8533f" y="277.856529"/>
    </g>
    <g clip-path="url(#p7fc7a251a7)">
     <use style="fill:#97a431;stroke:#ffffff;stroke-width:0.48;" x="239.93623" xlink:href="#C0_0_5ae7b8533f" y="261.944992"/>
    </g>
    <g clip-path="url(#p7fc7a251a7)">
     <use style="fill:#97a431;stroke:#ffffff;stroke-width:0.48;" x="239.93623" xlink:href="#C0_0_5ae7b8533f" y="283.513186"/>
    </g>
    <g clip-path="url(#p7fc7a251a7)">
     <use style="fill:#97a431;stroke:#ffffff;stroke-width:0.48;" x="239.93623" xlink:href="#C0_0_5ae7b8533f" y="276.185767"/>
    </g>
    <g clip-path="url(#p7fc7a251a7)">
     <use style="fill:#97a431;stroke:#ffffff;stroke-width:0.48;" x="239.93623" xlink:href="#C0_0_5ae7b8533f" y="263.144672"/>
    </g>
    <g clip-path="url(#p7fc7a251a7)">
     <use style="fill:#97a431;stroke:#ffffff;stroke-width:0.48;" x="239.93623" xlink:href="#C0_0_5ae7b8533f" y="291.015883"/>
    </g>
    <g clip-path="url(#p7fc7a251a7)">
     <use style="fill:#97a431;stroke:#ffffff;stroke-width:0.48;" x="239.93623" xlink:href="#C0_0_5ae7b8533f" y="266.533477"/>
    </g>
    <g clip-path="url(#p7fc7a251a7)">
     <use style="fill:#97a431;stroke:#ffffff;stroke-width:0.48;" x="239.93623" xlink:href="#C0_0_5ae7b8533f" y="266.271868"/>
    </g>
    <g clip-path="url(#p7fc7a251a7)">
     <use style="fill:#97a431;stroke:#ffffff;stroke-width:0.48;" x="239.93623" xlink:href="#C0_0_5ae7b8533f" y="278.339388"/>
    </g>
    <g clip-path="url(#p7fc7a251a7)">
     <use style="fill:#f668c2;stroke:#ffffff;stroke-width:0.48;" x="343.234957" xlink:href="#C0_0_5ae7b8533f" y="248.673629"/>
    </g>
    <g clip-path="url(#p7fc7a251a7)">
     <use style="fill:#f668c2;stroke:#ffffff;stroke-width:0.48;" x="343.234957" xlink:href="#C0_0_5ae7b8533f" y="248.492838"/>
    </g>
    <g clip-path="url(#p7fc7a251a7)">
     <use style="fill:#f668c2;stroke:#ffffff;stroke-width:0.48;" x="343.234957" xlink:href="#C0_0_5ae7b8533f" y="287.713879"/>
    </g>
    <g clip-path="url(#p7fc7a251a7)">
     <use style="fill:#f668c2;stroke:#ffffff;stroke-width:0.48;" x="343.234957" xlink:href="#C0_0_5ae7b8533f" y="287.603242"/>
    </g>
    <g clip-path="url(#p7fc7a251a7)">
     <use style="fill:#f668c2;stroke:#ffffff;stroke-width:0.48;" x="343.234957" xlink:href="#C0_0_5ae7b8533f" y="285.027535"/>
    </g>
    <g clip-path="url(#p7fc7a251a7)">
     <use style="fill:#f668c2;stroke:#ffffff;stroke-width:0.48;" x="343.234957" xlink:href="#C0_0_5ae7b8533f" y="240.763287"/>
    </g>
    <g clip-path="url(#p7fc7a251a7)">
     <use style="fill:#f668c2;stroke:#ffffff;stroke-width:0.48;" x="343.234957" xlink:href="#C0_0_5ae7b8533f" y="261.570914"/>
    </g>
    <g clip-path="url(#p7fc7a251a7)">
     <use style="fill:#f668c2;stroke:#ffffff;stroke-width:0.48;" x="343.234957" xlink:href="#C0_0_5ae7b8533f" y="248.771627"/>
    </g>
    <g clip-path="url(#p7fc7a251a7)">
     <use style="fill:#f668c2;stroke:#ffffff;stroke-width:0.48;" x="343.234957" xlink:href="#C0_0_5ae7b8533f" y="285.780774"/>
    </g>
    <g clip-path="url(#p7fc7a251a7)">
     <use style="fill:#f668c2;stroke:#ffffff;stroke-width:0.48;" x="343.234957" xlink:href="#C0_0_5ae7b8533f" y="290.267983"/>
    </g>
    <g clip-path="url(#p7fc7a251a7)">
     <use style="fill:#f668c2;stroke:#ffffff;stroke-width:0.48;" x="343.234957" xlink:href="#C0_0_5ae7b8533f" y="290.059533"/>
    </g>
    <g clip-path="url(#p7fc7a251a7)">
     <use style="fill:#f668c2;stroke:#ffffff;stroke-width:0.48;" x="343.234957" xlink:href="#C0_0_5ae7b8533f" y="292.640681"/>
    </g>
    <g clip-path="url(#p7fc7a251a7)">
     <use style="fill:#bb9832;stroke:#ffffff;stroke-width:0.48;" x="202.955637" xlink:href="#C0_0_5ae7b8533f" y="233.119706"/>
    </g>
    <g clip-path="url(#p7fc7a251a7)">
     <use style="fill:#bb9832;stroke:#ffffff;stroke-width:0.48;" x="202.955637" xlink:href="#C0_0_5ae7b8533f" y="244.992413"/>
    </g>
    <g clip-path="url(#p7fc7a251a7)">
     <use style="fill:#bb9832;stroke:#ffffff;stroke-width:0.48;" x="202.955637" xlink:href="#C0_0_5ae7b8533f" y="255.629633"/>
    </g>
    <g clip-path="url(#p7fc7a251a7)">
     <use style="fill:#bb9832;stroke:#ffffff;stroke-width:0.48;" x="202.955637" xlink:href="#C0_0_5ae7b8533f" y="240.929048"/>
    </g>
    <g clip-path="url(#p7fc7a251a7)">
     <use style="fill:#bb9832;stroke:#ffffff;stroke-width:0.48;" x="202.955637" xlink:href="#C0_0_5ae7b8533f" y="269.304739"/>
    </g>
    <g clip-path="url(#p7fc7a251a7)">
     <use style="fill:#bb9832;stroke:#ffffff;stroke-width:0.48;" x="202.955637" xlink:href="#C0_0_5ae7b8533f" y="260.475724"/>
    </g>
    <g clip-path="url(#p7fc7a251a7)">
     <use style="fill:#bb9832;stroke:#ffffff;stroke-width:0.48;" x="202.955637" xlink:href="#C0_0_5ae7b8533f" y="281.167293"/>
    </g>
    <g clip-path="url(#p7fc7a251a7)">
     <use style="fill:#bb9832;stroke:#ffffff;stroke-width:0.48;" x="202.955637" xlink:href="#C0_0_5ae7b8533f" y="254.477557"/>
    </g>
    <g clip-path="url(#p7fc7a251a7)">
     <use style="fill:#bb9832;stroke:#ffffff;stroke-width:0.48;" x="202.955637" xlink:href="#C0_0_5ae7b8533f" y="271.19938"/>
    </g>
    <g clip-path="url(#p7fc7a251a7)">
     <use style="fill:#bb9832;stroke:#ffffff;stroke-width:0.48;" x="202.955637" xlink:href="#C0_0_5ae7b8533f" y="251.403966"/>
    </g>
    <g clip-path="url(#p7fc7a251a7)">
     <use style="fill:#bb9832;stroke:#ffffff;stroke-width:0.48;" x="202.955637" xlink:href="#C0_0_5ae7b8533f" y="253.903688"/>
    </g>
    <g clip-path="url(#p7fc7a251a7)">
     <use style="fill:#e68332;stroke:#ffffff;stroke-width:0.48;" x="110.10463" xlink:href="#C0_0_5ae7b8533f" y="106.292882"/>
    </g>
    <g clip-path="url(#p7fc7a251a7)">
     <use style="fill:#e68332;stroke:#ffffff;stroke-width:0.48;" x="110.10463" xlink:href="#C0_0_5ae7b8533f" y="132.908173"/>
    </g>
    <g clip-path="url(#p7fc7a251a7)">
     <use style="fill:#e68332;stroke:#ffffff;stroke-width:0.48;" x="110.10463" xlink:href="#C0_0_5ae7b8533f" y="76.925633"/>
    </g>
    <g clip-path="url(#p7fc7a251a7)">
     <use style="fill:#e68332;stroke:#ffffff;stroke-width:0.48;" x="110.10463" xlink:href="#C0_0_5ae7b8533f" y="106.160241"/>
    </g>
    <g clip-path="url(#p7fc7a251a7)">
     <use style="fill:#e68332;stroke:#ffffff;stroke-width:0.48;" x="110.10463" xlink:href="#C0_0_5ae7b8533f" y="36.927216"/>
    </g>
    <g clip-path="url(#p7fc7a251a7)">
     <use style="fill:#e68332;stroke:#ffffff;stroke-width:0.48;" x="110.10463" xlink:href="#C0_0_5ae7b8533f" y="70.416743"/>
    </g>
    <g clip-path="url(#p7fc7a251a7)">
     <use style="fill:#e68332;stroke:#ffffff;stroke-width:0.48;" x="110.10463" xlink:href="#C0_0_5ae7b8533f" y="118.028092"/>
    </g>
    <g clip-path="url(#p7fc7a251a7)">
     <use style="fill:#e68332;stroke:#ffffff;stroke-width:0.48;" x="110.10463" xlink:href="#C0_0_5ae7b8533f" y="48.712085"/>
    </g>
    <g clip-path="url(#p7fc7a251a7)">
     <use style="fill:#e68332;stroke:#ffffff;stroke-width:0.48;" x="110.10463" xlink:href="#C0_0_5ae7b8533f" y="125.323941"/>
    </g>
    <g clip-path="url(#p7fc7a251a7)">
     <use style="fill:#e68332;stroke:#ffffff;stroke-width:0.48;" x="110.10463" xlink:href="#C0_0_5ae7b8533f" y="187.690764"/>
    </g>
    <g clip-path="url(#p7fc7a251a7)">
     <use style="fill:#e68332;stroke:#ffffff;stroke-width:0.48;" x="110.10463" xlink:href="#C0_0_5ae7b8533f" y="47.770042"/>
    </g>
   </g>
   <g id="PathCollection_2"/>
   <g id="PathCollection_3"/>
   <g id="PathCollection_4"/>
   <g id="PathCollection_5"/>
   <g id="PathCollection_6"/>
   <g id="PathCollection_7"/>
   <g id="PathCollection_8"/>
   <g id="PathCollection_9"/>
   <g id="PathCollection_10"/>
   <g id="PathCollection_11"/>
   <g id="PathCollection_12"/>
   <g id="PathCollection_13"/>
   <g id="matplotlib.axis_1">
    <g id="xtick_1">
     <g id="line2d_1">
      <defs>
       <path d="M 0 0 
L 0 3.5 
" id="m6aad564550" style="stroke:#000000;stroke-width:0.8;"/>
      </defs>
      <g>
       <use style="stroke:#000000;stroke-width:0.8;" x="52.187911" xlink:href="#m6aad564550" y="343.718125"/>
      </g>
     </g>
     <g id="text_1">
      <!-- 0.42 -->
      <g transform="translate(41.055098 358.316562)scale(0.1 -0.1)">
       <defs>
        <path d="M 31.78125 66.40625 
Q 24.171875 66.40625 20.328125 58.90625 
Q 16.5 51.421875 16.5 36.375 
Q 16.5 21.390625 20.328125 13.890625 
Q 24.171875 6.390625 31.78125 6.390625 
Q 39.453125 6.390625 43.28125 13.890625 
Q 47.125 21.390625 47.125 36.375 
Q 47.125 51.421875 43.28125 58.90625 
Q 39.453125 66.40625 31.78125 66.40625 
z
M 31.78125 74.21875 
Q 44.046875 74.21875 50.515625 64.515625 
Q 56.984375 54.828125 56.984375 36.375 
Q 56.984375 17.96875 50.515625 8.265625 
Q 44.046875 -1.421875 31.78125 -1.421875 
Q 19.53125 -1.421875 13.0625 8.265625 
Q 6.59375 17.96875 6.59375 36.375 
Q 6.59375 54.828125 13.0625 64.515625 
Q 19.53125 74.21875 31.78125 74.21875 
z
" id="DejaVuSans-48"/>
        <path d="M 10.6875 12.40625 
L 21 12.40625 
L 21 0 
L 10.6875 0 
z
" id="DejaVuSans-46"/>
        <path d="M 37.796875 64.3125 
L 12.890625 25.390625 
L 37.796875 25.390625 
z
M 35.203125 72.90625 
L 47.609375 72.90625 
L 47.609375 25.390625 
L 58.015625 25.390625 
L 58.015625 17.1875 
L 47.609375 17.1875 
L 47.609375 0 
L 37.796875 0 
L 37.796875 17.1875 
L 4.890625 17.1875 
L 4.890625 26.703125 
z
" id="DejaVuSans-52"/>
        <path d="M 19.1875 8.296875 
L 53.609375 8.296875 
L 53.609375 0 
L 7.328125 0 
L 7.328125 8.296875 
Q 12.9375 14.109375 22.625 23.890625 
Q 32.328125 33.6875 34.8125 36.53125 
Q 39.546875 41.84375 41.421875 45.53125 
Q 43.3125 49.21875 43.3125 52.78125 
Q 43.3125 58.59375 39.234375 62.25 
Q 35.15625 65.921875 28.609375 65.921875 
Q 23.96875 65.921875 18.8125 64.3125 
Q 13.671875 62.703125 7.8125 59.421875 
L 7.8125 69.390625 
Q 13.765625 71.78125 18.9375 73 
Q 24.125 74.21875 28.421875 74.21875 
Q 39.75 74.21875 46.484375 68.546875 
Q 53.21875 62.890625 53.21875 53.421875 
Q 53.21875 48.921875 51.53125 44.890625 
Q 49.859375 40.875 45.40625 35.40625 
Q 44.1875 33.984375 37.640625 27.21875 
Q 31.109375 20.453125 19.1875 8.296875 
z
" id="DejaVuSans-50"/>
       </defs>
       <use xlink:href="#DejaVuSans-48"/>
       <use x="63.623047" xlink:href="#DejaVuSans-46"/>
       <use x="95.410156" xlink:href="#DejaVuSans-52"/>
       <use x="159.033203" xlink:href="#DejaVuSans-50"/>
      </g>
     </g>
    </g>
    <g id="xtick_2">
     <g id="line2d_2">
      <g>
       <use style="stroke:#000000;stroke-width:0.8;" x="86.302478" xlink:href="#m6aad564550" y="343.718125"/>
      </g>
     </g>
     <g id="text_2">
      <!-- 0.44 -->
      <g transform="translate(75.169666 358.316562)scale(0.1 -0.1)">
       <use xlink:href="#DejaVuSans-48"/>
       <use x="63.623047" xlink:href="#DejaVuSans-46"/>
       <use x="95.410156" xlink:href="#DejaVuSans-52"/>
       <use x="159.033203" xlink:href="#DejaVuSans-52"/>
      </g>
     </g>
    </g>
    <g id="xtick_3">
     <g id="line2d_3">
      <g>
       <use style="stroke:#000000;stroke-width:0.8;" x="120.417046" xlink:href="#m6aad564550" y="343.718125"/>
      </g>
     </g>
     <g id="text_3">
      <!-- 0.46 -->
      <g transform="translate(109.284234 358.316562)scale(0.1 -0.1)">
       <defs>
        <path d="M 33.015625 40.375 
Q 26.375 40.375 22.484375 35.828125 
Q 18.609375 31.296875 18.609375 23.390625 
Q 18.609375 15.53125 22.484375 10.953125 
Q 26.375 6.390625 33.015625 6.390625 
Q 39.65625 6.390625 43.53125 10.953125 
Q 47.40625 15.53125 47.40625 23.390625 
Q 47.40625 31.296875 43.53125 35.828125 
Q 39.65625 40.375 33.015625 40.375 
z
M 52.59375 71.296875 
L 52.59375 62.3125 
Q 48.875 64.0625 45.09375 64.984375 
Q 41.3125 65.921875 37.59375 65.921875 
Q 27.828125 65.921875 22.671875 59.328125 
Q 17.53125 52.734375 16.796875 39.40625 
Q 19.671875 43.65625 24.015625 45.921875 
Q 28.375 48.1875 33.59375 48.1875 
Q 44.578125 48.1875 50.953125 41.515625 
Q 57.328125 34.859375 57.328125 23.390625 
Q 57.328125 12.15625 50.6875 5.359375 
Q 44.046875 -1.421875 33.015625 -1.421875 
Q 20.359375 -1.421875 13.671875 8.265625 
Q 6.984375 17.96875 6.984375 36.375 
Q 6.984375 53.65625 15.1875 63.9375 
Q 23.390625 74.21875 37.203125 74.21875 
Q 40.921875 74.21875 44.703125 73.484375 
Q 48.484375 72.75 52.59375 71.296875 
z
" id="DejaVuSans-54"/>
       </defs>
       <use xlink:href="#DejaVuSans-48"/>
       <use x="63.623047" xlink:href="#DejaVuSans-46"/>
       <use x="95.410156" xlink:href="#DejaVuSans-52"/>
       <use x="159.033203" xlink:href="#DejaVuSans-54"/>
      </g>
     </g>
    </g>
    <g id="xtick_4">
     <g id="line2d_4">
      <g>
       <use style="stroke:#000000;stroke-width:0.8;" x="154.531614" xlink:href="#m6aad564550" y="343.718125"/>
      </g>
     </g>
     <g id="text_4">
      <!-- 0.48 -->
      <g transform="translate(143.398801 358.316562)scale(0.1 -0.1)">
       <defs>
        <path d="M 31.78125 34.625 
Q 24.75 34.625 20.71875 30.859375 
Q 16.703125 27.09375 16.703125 20.515625 
Q 16.703125 13.921875 20.71875 10.15625 
Q 24.75 6.390625 31.78125 6.390625 
Q 38.8125 6.390625 42.859375 10.171875 
Q 46.921875 13.96875 46.921875 20.515625 
Q 46.921875 27.09375 42.890625 30.859375 
Q 38.875 34.625 31.78125 34.625 
z
M 21.921875 38.8125 
Q 15.578125 40.375 12.03125 44.71875 
Q 8.5 49.078125 8.5 55.328125 
Q 8.5 64.0625 14.71875 69.140625 
Q 20.953125 74.21875 31.78125 74.21875 
Q 42.671875 74.21875 48.875 69.140625 
Q 55.078125 64.0625 55.078125 55.328125 
Q 55.078125 49.078125 51.53125 44.71875 
Q 48 40.375 41.703125 38.8125 
Q 48.828125 37.15625 52.796875 32.3125 
Q 56.78125 27.484375 56.78125 20.515625 
Q 56.78125 9.90625 50.3125 4.234375 
Q 43.84375 -1.421875 31.78125 -1.421875 
Q 19.734375 -1.421875 13.25 4.234375 
Q 6.78125 9.90625 6.78125 20.515625 
Q 6.78125 27.484375 10.78125 32.3125 
Q 14.796875 37.15625 21.921875 38.8125 
z
M 18.3125 54.390625 
Q 18.3125 48.734375 21.84375 45.5625 
Q 25.390625 42.390625 31.78125 42.390625 
Q 38.140625 42.390625 41.71875 45.5625 
Q 45.3125 48.734375 45.3125 54.390625 
Q 45.3125 60.0625 41.71875 63.234375 
Q 38.140625 66.40625 31.78125 66.40625 
Q 25.390625 66.40625 21.84375 63.234375 
Q 18.3125 60.0625 18.3125 54.390625 
z
" id="DejaVuSans-56"/>
       </defs>
       <use xlink:href="#DejaVuSans-48"/>
       <use x="63.623047" xlink:href="#DejaVuSans-46"/>
       <use x="95.410156" xlink:href="#DejaVuSans-52"/>
       <use x="159.033203" xlink:href="#DejaVuSans-56"/>
      </g>
     </g>
    </g>
    <g id="xtick_5">
     <g id="line2d_5">
      <g>
       <use style="stroke:#000000;stroke-width:0.8;" x="188.646181" xlink:href="#m6aad564550" y="343.718125"/>
      </g>
     </g>
     <g id="text_5">
      <!-- 0.50 -->
      <g transform="translate(177.513369 358.316562)scale(0.1 -0.1)">
       <defs>
        <path d="M 10.796875 72.90625 
L 49.515625 72.90625 
L 49.515625 64.59375 
L 19.828125 64.59375 
L 19.828125 46.734375 
Q 21.96875 47.46875 24.109375 47.828125 
Q 26.265625 48.1875 28.421875 48.1875 
Q 40.625 48.1875 47.75 41.5 
Q 54.890625 34.8125 54.890625 23.390625 
Q 54.890625 11.625 47.5625 5.09375 
Q 40.234375 -1.421875 26.90625 -1.421875 
Q 22.3125 -1.421875 17.546875 -0.640625 
Q 12.796875 0.140625 7.71875 1.703125 
L 7.71875 11.625 
Q 12.109375 9.234375 16.796875 8.0625 
Q 21.484375 6.890625 26.703125 6.890625 
Q 35.15625 6.890625 40.078125 11.328125 
Q 45.015625 15.765625 45.015625 23.390625 
Q 45.015625 31 40.078125 35.4375 
Q 35.15625 39.890625 26.703125 39.890625 
Q 22.75 39.890625 18.8125 39.015625 
Q 14.890625 38.140625 10.796875 36.28125 
z
" id="DejaVuSans-53"/>
       </defs>
       <use xlink:href="#DejaVuSans-48"/>
       <use x="63.623047" xlink:href="#DejaVuSans-46"/>
       <use x="95.410156" xlink:href="#DejaVuSans-53"/>
       <use x="159.033203" xlink:href="#DejaVuSans-48"/>
      </g>
     </g>
    </g>
    <g id="xtick_6">
     <g id="line2d_6">
      <g>
       <use style="stroke:#000000;stroke-width:0.8;" x="222.760749" xlink:href="#m6aad564550" y="343.718125"/>
      </g>
     </g>
     <g id="text_6">
      <!-- 0.52 -->
      <g transform="translate(211.627936 358.316562)scale(0.1 -0.1)">
       <use xlink:href="#DejaVuSans-48"/>
       <use x="63.623047" xlink:href="#DejaVuSans-46"/>
       <use x="95.410156" xlink:href="#DejaVuSans-53"/>
       <use x="159.033203" xlink:href="#DejaVuSans-50"/>
      </g>
     </g>
    </g>
    <g id="xtick_7">
     <g id="line2d_7">
      <g>
       <use style="stroke:#000000;stroke-width:0.8;" x="256.875317" xlink:href="#m6aad564550" y="343.718125"/>
      </g>
     </g>
     <g id="text_7">
      <!-- 0.54 -->
      <g transform="translate(245.742504 358.316562)scale(0.1 -0.1)">
       <use xlink:href="#DejaVuSans-48"/>
       <use x="63.623047" xlink:href="#DejaVuSans-46"/>
       <use x="95.410156" xlink:href="#DejaVuSans-53"/>
       <use x="159.033203" xlink:href="#DejaVuSans-52"/>
      </g>
     </g>
    </g>
    <g id="xtick_8">
     <g id="line2d_8">
      <g>
       <use style="stroke:#000000;stroke-width:0.8;" x="290.989884" xlink:href="#m6aad564550" y="343.718125"/>
      </g>
     </g>
     <g id="text_8">
      <!-- 0.56 -->
      <g transform="translate(279.857072 358.316562)scale(0.1 -0.1)">
       <use xlink:href="#DejaVuSans-48"/>
       <use x="63.623047" xlink:href="#DejaVuSans-46"/>
       <use x="95.410156" xlink:href="#DejaVuSans-53"/>
       <use x="159.033203" xlink:href="#DejaVuSans-54"/>
      </g>
     </g>
    </g>
    <g id="xtick_9">
     <g id="line2d_9">
      <g>
       <use style="stroke:#000000;stroke-width:0.8;" x="325.104452" xlink:href="#m6aad564550" y="343.718125"/>
      </g>
     </g>
     <g id="text_9">
      <!-- 0.58 -->
      <g transform="translate(313.971639 358.316562)scale(0.1 -0.1)">
       <use xlink:href="#DejaVuSans-48"/>
       <use x="63.623047" xlink:href="#DejaVuSans-46"/>
       <use x="95.410156" xlink:href="#DejaVuSans-53"/>
       <use x="159.033203" xlink:href="#DejaVuSans-56"/>
      </g>
     </g>
    </g>
    <g id="text_10">
     <!-- snRNAseq_TPM / (snRNAseq_TPM + scRNAseq_TPM) per gene/ontology -->
     <g transform="translate(26.980625 371.994687)scale(0.1 -0.1)">
      <defs>
       <path d="M 44.28125 53.078125 
L 44.28125 44.578125 
Q 40.484375 46.53125 36.375 47.5 
Q 32.28125 48.484375 27.875 48.484375 
Q 21.1875 48.484375 17.84375 46.4375 
Q 14.5 44.390625 14.5 40.28125 
Q 14.5 37.15625 16.890625 35.375 
Q 19.28125 33.59375 26.515625 31.984375 
L 29.59375 31.296875 
Q 39.15625 29.25 43.1875 25.515625 
Q 47.21875 21.78125 47.21875 15.09375 
Q 47.21875 7.46875 41.1875 3.015625 
Q 35.15625 -1.421875 24.609375 -1.421875 
Q 20.21875 -1.421875 15.453125 -0.5625 
Q 10.6875 0.296875 5.421875 2 
L 5.421875 11.28125 
Q 10.40625 8.6875 15.234375 7.390625 
Q 20.0625 6.109375 24.8125 6.109375 
Q 31.15625 6.109375 34.5625 8.28125 
Q 37.984375 10.453125 37.984375 14.40625 
Q 37.984375 18.0625 35.515625 20.015625 
Q 33.0625 21.96875 24.703125 23.78125 
L 21.578125 24.515625 
Q 13.234375 26.265625 9.515625 29.90625 
Q 5.8125 33.546875 5.8125 39.890625 
Q 5.8125 47.609375 11.28125 51.796875 
Q 16.75 56 26.8125 56 
Q 31.78125 56 36.171875 55.265625 
Q 40.578125 54.546875 44.28125 53.078125 
z
" id="DejaVuSans-115"/>
       <path d="M 54.890625 33.015625 
L 54.890625 0 
L 45.90625 0 
L 45.90625 32.71875 
Q 45.90625 40.484375 42.875 44.328125 
Q 39.84375 48.1875 33.796875 48.1875 
Q 26.515625 48.1875 22.3125 43.546875 
Q 18.109375 38.921875 18.109375 30.90625 
L 18.109375 0 
L 9.078125 0 
L 9.078125 54.6875 
L 18.109375 54.6875 
L 18.109375 46.1875 
Q 21.34375 51.125 25.703125 53.5625 
Q 30.078125 56 35.796875 56 
Q 45.21875 56 50.046875 50.171875 
Q 54.890625 44.34375 54.890625 33.015625 
z
" id="DejaVuSans-110"/>
       <path d="M 44.390625 34.1875 
Q 47.5625 33.109375 50.5625 29.59375 
Q 53.5625 26.078125 56.59375 19.921875 
L 66.609375 0 
L 56 0 
L 46.6875 18.703125 
Q 43.0625 26.03125 39.671875 28.421875 
Q 36.28125 30.8125 30.421875 30.8125 
L 19.671875 30.8125 
L 19.671875 0 
L 9.8125 0 
L 9.8125 72.90625 
L 32.078125 72.90625 
Q 44.578125 72.90625 50.734375 67.671875 
Q 56.890625 62.453125 56.890625 51.90625 
Q 56.890625 45.015625 53.6875 40.46875 
Q 50.484375 35.9375 44.390625 34.1875 
z
M 19.671875 64.796875 
L 19.671875 38.921875 
L 32.078125 38.921875 
Q 39.203125 38.921875 42.84375 42.21875 
Q 46.484375 45.515625 46.484375 51.90625 
Q 46.484375 58.296875 42.84375 61.546875 
Q 39.203125 64.796875 32.078125 64.796875 
z
" id="DejaVuSans-82"/>
       <path d="M 9.8125 72.90625 
L 23.09375 72.90625 
L 55.421875 11.921875 
L 55.421875 72.90625 
L 64.984375 72.90625 
L 64.984375 0 
L 51.703125 0 
L 19.390625 60.984375 
L 19.390625 0 
L 9.8125 0 
z
" id="DejaVuSans-78"/>
       <path d="M 34.1875 63.1875 
L 20.796875 26.90625 
L 47.609375 26.90625 
z
M 28.609375 72.90625 
L 39.796875 72.90625 
L 67.578125 0 
L 57.328125 0 
L 50.6875 18.703125 
L 17.828125 18.703125 
L 11.1875 0 
L 0.78125 0 
z
" id="DejaVuSans-65"/>
       <path d="M 56.203125 29.59375 
L 56.203125 25.203125 
L 14.890625 25.203125 
Q 15.484375 15.921875 20.484375 11.0625 
Q 25.484375 6.203125 34.421875 6.203125 
Q 39.59375 6.203125 44.453125 7.46875 
Q 49.3125 8.734375 54.109375 11.28125 
L 54.109375 2.78125 
Q 49.265625 0.734375 44.1875 -0.34375 
Q 39.109375 -1.421875 33.890625 -1.421875 
Q 20.796875 -1.421875 13.15625 6.1875 
Q 5.515625 13.8125 5.515625 26.8125 
Q 5.515625 40.234375 12.765625 48.109375 
Q 20.015625 56 32.328125 56 
Q 43.359375 56 49.78125 48.890625 
Q 56.203125 41.796875 56.203125 29.59375 
z
M 47.21875 32.234375 
Q 47.125 39.59375 43.09375 43.984375 
Q 39.0625 48.390625 32.421875 48.390625 
Q 24.90625 48.390625 20.390625 44.140625 
Q 15.875 39.890625 15.1875 32.171875 
z
" id="DejaVuSans-101"/>
       <path d="M 14.796875 27.296875 
Q 14.796875 17.390625 18.875 11.75 
Q 22.953125 6.109375 30.078125 6.109375 
Q 37.203125 6.109375 41.296875 11.75 
Q 45.40625 17.390625 45.40625 27.296875 
Q 45.40625 37.203125 41.296875 42.84375 
Q 37.203125 48.484375 30.078125 48.484375 
Q 22.953125 48.484375 18.875 42.84375 
Q 14.796875 37.203125 14.796875 27.296875 
z
M 45.40625 8.203125 
Q 42.578125 3.328125 38.25 0.953125 
Q 33.9375 -1.421875 27.875 -1.421875 
Q 17.96875 -1.421875 11.734375 6.484375 
Q 5.515625 14.40625 5.515625 27.296875 
Q 5.515625 40.1875 11.734375 48.09375 
Q 17.96875 56 27.875 56 
Q 33.9375 56 38.25 53.625 
Q 42.578125 51.265625 45.40625 46.390625 
L 45.40625 54.6875 
L 54.390625 54.6875 
L 54.390625 -20.796875 
L 45.40625 -20.796875 
z
" id="DejaVuSans-113"/>
       <path d="M 50.984375 -16.609375 
L 50.984375 -23.578125 
L -0.984375 -23.578125 
L -0.984375 -16.609375 
z
" id="DejaVuSans-95"/>
       <path d="M -0.296875 72.90625 
L 61.375 72.90625 
L 61.375 64.59375 
L 35.5 64.59375 
L 35.5 0 
L 25.59375 0 
L 25.59375 64.59375 
L -0.296875 64.59375 
z
" id="DejaVuSans-84"/>
       <path d="M 19.671875 64.796875 
L 19.671875 37.40625 
L 32.078125 37.40625 
Q 38.96875 37.40625 42.71875 40.96875 
Q 46.484375 44.53125 46.484375 51.125 
Q 46.484375 57.671875 42.71875 61.234375 
Q 38.96875 64.796875 32.078125 64.796875 
z
M 9.8125 72.90625 
L 32.078125 72.90625 
Q 44.34375 72.90625 50.609375 67.359375 
Q 56.890625 61.8125 56.890625 51.125 
Q 56.890625 40.328125 50.609375 34.8125 
Q 44.34375 29.296875 32.078125 29.296875 
L 19.671875 29.296875 
L 19.671875 0 
L 9.8125 0 
z
" id="DejaVuSans-80"/>
       <path d="M 9.8125 72.90625 
L 24.515625 72.90625 
L 43.109375 23.296875 
L 61.8125 72.90625 
L 76.515625 72.90625 
L 76.515625 0 
L 66.890625 0 
L 66.890625 64.015625 
L 48.09375 14.015625 
L 38.1875 14.015625 
L 19.390625 64.015625 
L 19.390625 0 
L 9.8125 0 
z
" id="DejaVuSans-77"/>
       <path id="DejaVuSans-32"/>
       <path d="M 25.390625 72.90625 
L 33.6875 72.90625 
L 8.296875 -9.28125 
L 0 -9.28125 
z
" id="DejaVuSans-47"/>
       <path d="M 31 75.875 
Q 24.46875 64.65625 21.28125 53.65625 
Q 18.109375 42.671875 18.109375 31.390625 
Q 18.109375 20.125 21.3125 9.0625 
Q 24.515625 -2 31 -13.1875 
L 23.1875 -13.1875 
Q 15.875 -1.703125 12.234375 9.375 
Q 8.59375 20.453125 8.59375 31.390625 
Q 8.59375 42.28125 12.203125 53.3125 
Q 15.828125 64.359375 23.1875 75.875 
z
" id="DejaVuSans-40"/>
       <path d="M 46 62.703125 
L 46 35.5 
L 73.1875 35.5 
L 73.1875 27.203125 
L 46 27.203125 
L 46 0 
L 37.796875 0 
L 37.796875 27.203125 
L 10.59375 27.203125 
L 10.59375 35.5 
L 37.796875 35.5 
L 37.796875 62.703125 
z
" id="DejaVuSans-43"/>
       <path d="M 48.78125 52.59375 
L 48.78125 44.1875 
Q 44.96875 46.296875 41.140625 47.34375 
Q 37.3125 48.390625 33.40625 48.390625 
Q 24.65625 48.390625 19.8125 42.84375 
Q 14.984375 37.3125 14.984375 27.296875 
Q 14.984375 17.28125 19.8125 11.734375 
Q 24.65625 6.203125 33.40625 6.203125 
Q 37.3125 6.203125 41.140625 7.25 
Q 44.96875 8.296875 48.78125 10.40625 
L 48.78125 2.09375 
Q 45.015625 0.34375 40.984375 -0.53125 
Q 36.96875 -1.421875 32.421875 -1.421875 
Q 20.0625 -1.421875 12.78125 6.34375 
Q 5.515625 14.109375 5.515625 27.296875 
Q 5.515625 40.671875 12.859375 48.328125 
Q 20.21875 56 33.015625 56 
Q 37.15625 56 41.109375 55.140625 
Q 45.0625 54.296875 48.78125 52.59375 
z
" id="DejaVuSans-99"/>
       <path d="M 8.015625 75.875 
L 15.828125 75.875 
Q 23.140625 64.359375 26.78125 53.3125 
Q 30.421875 42.28125 30.421875 31.390625 
Q 30.421875 20.453125 26.78125 9.375 
Q 23.140625 -1.703125 15.828125 -13.1875 
L 8.015625 -13.1875 
Q 14.5 -2 17.703125 9.0625 
Q 20.90625 20.125 20.90625 31.390625 
Q 20.90625 42.671875 17.703125 53.65625 
Q 14.5 64.65625 8.015625 75.875 
z
" id="DejaVuSans-41"/>
       <path d="M 18.109375 8.203125 
L 18.109375 -20.796875 
L 9.078125 -20.796875 
L 9.078125 54.6875 
L 18.109375 54.6875 
L 18.109375 46.390625 
Q 20.953125 51.265625 25.265625 53.625 
Q 29.59375 56 35.59375 56 
Q 45.5625 56 51.78125 48.09375 
Q 58.015625 40.1875 58.015625 27.296875 
Q 58.015625 14.40625 51.78125 6.484375 
Q 45.5625 -1.421875 35.59375 -1.421875 
Q 29.59375 -1.421875 25.265625 0.953125 
Q 20.953125 3.328125 18.109375 8.203125 
z
M 48.6875 27.296875 
Q 48.6875 37.203125 44.609375 42.84375 
Q 40.53125 48.484375 33.40625 48.484375 
Q 26.265625 48.484375 22.1875 42.84375 
Q 18.109375 37.203125 18.109375 27.296875 
Q 18.109375 17.390625 22.1875 11.75 
Q 26.265625 6.109375 33.40625 6.109375 
Q 40.53125 6.109375 44.609375 11.75 
Q 48.6875 17.390625 48.6875 27.296875 
z
" id="DejaVuSans-112"/>
       <path d="M 41.109375 46.296875 
Q 39.59375 47.171875 37.8125 47.578125 
Q 36.03125 48 33.890625 48 
Q 26.265625 48 22.1875 43.046875 
Q 18.109375 38.09375 18.109375 28.8125 
L 18.109375 0 
L 9.078125 0 
L 9.078125 54.6875 
L 18.109375 54.6875 
L 18.109375 46.1875 
Q 20.953125 51.171875 25.484375 53.578125 
Q 30.03125 56 36.53125 56 
Q 37.453125 56 38.578125 55.875 
Q 39.703125 55.765625 41.0625 55.515625 
z
" id="DejaVuSans-114"/>
       <path d="M 45.40625 27.984375 
Q 45.40625 37.75 41.375 43.109375 
Q 37.359375 48.484375 30.078125 48.484375 
Q 22.859375 48.484375 18.828125 43.109375 
Q 14.796875 37.75 14.796875 27.984375 
Q 14.796875 18.265625 18.828125 12.890625 
Q 22.859375 7.515625 30.078125 7.515625 
Q 37.359375 7.515625 41.375 12.890625 
Q 45.40625 18.265625 45.40625 27.984375 
z
M 54.390625 6.78125 
Q 54.390625 -7.171875 48.1875 -13.984375 
Q 42 -20.796875 29.203125 -20.796875 
Q 24.46875 -20.796875 20.265625 -20.09375 
Q 16.0625 -19.390625 12.109375 -17.921875 
L 12.109375 -9.1875 
Q 16.0625 -11.328125 19.921875 -12.34375 
Q 23.78125 -13.375 27.78125 -13.375 
Q 36.625 -13.375 41.015625 -8.765625 
Q 45.40625 -4.15625 45.40625 5.171875 
L 45.40625 9.625 
Q 42.625 4.78125 38.28125 2.390625 
Q 33.9375 0 27.875 0 
Q 17.828125 0 11.671875 7.65625 
Q 5.515625 15.328125 5.515625 27.984375 
Q 5.515625 40.671875 11.671875 48.328125 
Q 17.828125 56 27.875 56 
Q 33.9375 56 38.28125 53.609375 
Q 42.625 51.21875 45.40625 46.390625 
L 45.40625 54.6875 
L 54.390625 54.6875 
z
" id="DejaVuSans-103"/>
       <path d="M 30.609375 48.390625 
Q 23.390625 48.390625 19.1875 42.75 
Q 14.984375 37.109375 14.984375 27.296875 
Q 14.984375 17.484375 19.15625 11.84375 
Q 23.34375 6.203125 30.609375 6.203125 
Q 37.796875 6.203125 41.984375 11.859375 
Q 46.1875 17.53125 46.1875 27.296875 
Q 46.1875 37.015625 41.984375 42.703125 
Q 37.796875 48.390625 30.609375 48.390625 
z
M 30.609375 56 
Q 42.328125 56 49.015625 48.375 
Q 55.71875 40.765625 55.71875 27.296875 
Q 55.71875 13.875 49.015625 6.21875 
Q 42.328125 -1.421875 30.609375 -1.421875 
Q 18.84375 -1.421875 12.171875 6.21875 
Q 5.515625 13.875 5.515625 27.296875 
Q 5.515625 40.765625 12.171875 48.375 
Q 18.84375 56 30.609375 56 
z
" id="DejaVuSans-111"/>
       <path d="M 18.3125 70.21875 
L 18.3125 54.6875 
L 36.8125 54.6875 
L 36.8125 47.703125 
L 18.3125 47.703125 
L 18.3125 18.015625 
Q 18.3125 11.328125 20.140625 9.421875 
Q 21.96875 7.515625 27.59375 7.515625 
L 36.8125 7.515625 
L 36.8125 0 
L 27.59375 0 
Q 17.1875 0 13.234375 3.875 
Q 9.28125 7.765625 9.28125 18.015625 
L 9.28125 47.703125 
L 2.6875 47.703125 
L 2.6875 54.6875 
L 9.28125 54.6875 
L 9.28125 70.21875 
z
" id="DejaVuSans-116"/>
       <path d="M 9.421875 75.984375 
L 18.40625 75.984375 
L 18.40625 0 
L 9.421875 0 
z
" id="DejaVuSans-108"/>
       <path d="M 32.171875 -5.078125 
Q 28.375 -14.84375 24.75 -17.8125 
Q 21.140625 -20.796875 15.09375 -20.796875 
L 7.90625 -20.796875 
L 7.90625 -13.28125 
L 13.1875 -13.28125 
Q 16.890625 -13.28125 18.9375 -11.515625 
Q 21 -9.765625 23.484375 -3.21875 
L 25.09375 0.875 
L 2.984375 54.6875 
L 12.5 54.6875 
L 29.59375 11.921875 
L 46.6875 54.6875 
L 56.203125 54.6875 
z
" id="DejaVuSans-121"/>
      </defs>
      <use xlink:href="#DejaVuSans-115"/>
      <use x="52.099609" xlink:href="#DejaVuSans-110"/>
      <use x="115.478516" xlink:href="#DejaVuSans-82"/>
      <use x="184.960938" xlink:href="#DejaVuSans-78"/>
      <use x="259.765625" xlink:href="#DejaVuSans-65"/>
      <use x="328.173828" xlink:href="#DejaVuSans-115"/>
      <use x="380.273438" xlink:href="#DejaVuSans-101"/>
      <use x="441.796875" xlink:href="#DejaVuSans-113"/>
      <use x="505.273438" xlink:href="#DejaVuSans-95"/>
      <use x="555.273438" xlink:href="#DejaVuSans-84"/>
      <use x="616.357422" xlink:href="#DejaVuSans-80"/>
      <use x="676.660156" xlink:href="#DejaVuSans-77"/>
      <use x="762.939453" xlink:href="#DejaVuSans-32"/>
      <use x="794.726562" xlink:href="#DejaVuSans-47"/>
      <use x="828.417969" xlink:href="#DejaVuSans-32"/>
      <use x="860.205078" xlink:href="#DejaVuSans-40"/>
      <use x="899.21875" xlink:href="#DejaVuSans-115"/>
      <use x="951.318359" xlink:href="#DejaVuSans-110"/>
      <use x="1014.697266" xlink:href="#DejaVuSans-82"/>
      <use x="1084.179688" xlink:href="#DejaVuSans-78"/>
      <use x="1158.984375" xlink:href="#DejaVuSans-65"/>
      <use x="1227.392578" xlink:href="#DejaVuSans-115"/>
      <use x="1279.492188" xlink:href="#DejaVuSans-101"/>
      <use x="1341.015625" xlink:href="#DejaVuSans-113"/>
      <use x="1404.492188" xlink:href="#DejaVuSans-95"/>
      <use x="1454.492188" xlink:href="#DejaVuSans-84"/>
      <use x="1515.576172" xlink:href="#DejaVuSans-80"/>
      <use x="1575.878906" xlink:href="#DejaVuSans-77"/>
      <use x="1662.158203" xlink:href="#DejaVuSans-32"/>
      <use x="1693.945312" xlink:href="#DejaVuSans-43"/>
      <use x="1777.734375" xlink:href="#DejaVuSans-32"/>
      <use x="1809.521484" xlink:href="#DejaVuSans-115"/>
      <use x="1861.621094" xlink:href="#DejaVuSans-99"/>
      <use x="1916.601562" xlink:href="#DejaVuSans-82"/>
      <use x="1986.083984" xlink:href="#DejaVuSans-78"/>
      <use x="2060.888672" xlink:href="#DejaVuSans-65"/>
      <use x="2129.296875" xlink:href="#DejaVuSans-115"/>
      <use x="2181.396484" xlink:href="#DejaVuSans-101"/>
      <use x="2242.919922" xlink:href="#DejaVuSans-113"/>
      <use x="2306.396484" xlink:href="#DejaVuSans-95"/>
      <use x="2356.396484" xlink:href="#DejaVuSans-84"/>
      <use x="2417.480469" xlink:href="#DejaVuSans-80"/>
      <use x="2477.783203" xlink:href="#DejaVuSans-77"/>
      <use x="2564.0625" xlink:href="#DejaVuSans-41"/>
      <use x="2603.076172" xlink:href="#DejaVuSans-32"/>
      <use x="2634.863281" xlink:href="#DejaVuSans-112"/>
      <use x="2698.339844" xlink:href="#DejaVuSans-101"/>
      <use x="2759.863281" xlink:href="#DejaVuSans-114"/>
      <use x="2800.976562" xlink:href="#DejaVuSans-32"/>
      <use x="2832.763672" xlink:href="#DejaVuSans-103"/>
      <use x="2896.240234" xlink:href="#DejaVuSans-101"/>
      <use x="2957.763672" xlink:href="#DejaVuSans-110"/>
      <use x="3021.142578" xlink:href="#DejaVuSans-101"/>
      <use x="3082.666016" xlink:href="#DejaVuSans-47"/>
      <use x="3116.357422" xlink:href="#DejaVuSans-111"/>
      <use x="3177.539062" xlink:href="#DejaVuSans-110"/>
      <use x="3240.917969" xlink:href="#DejaVuSans-116"/>
      <use x="3280.126953" xlink:href="#DejaVuSans-111"/>
      <use x="3341.308594" xlink:href="#DejaVuSans-108"/>
      <use x="3369.091797" xlink:href="#DejaVuSans-111"/>
      <use x="3430.273438" xlink:href="#DejaVuSans-103"/>
      <use x="3493.75" xlink:href="#DejaVuSans-121"/>
     </g>
    </g>
   </g>
   <g id="matplotlib.axis_2">
    <g id="ytick_1">
     <g id="line2d_10">
      <defs>
       <path d="M 0 0 
L -3.5 0 
" id="m8f69d122d7" style="stroke:#000000;stroke-width:0.8;"/>
      </defs>
      <g>
       <use style="stroke:#000000;stroke-width:0.8;" x="52.160938" xlink:href="#m8f69d122d7" y="308.357706"/>
      </g>
     </g>
     <g id="text_11">
      <!-- 0.1 -->
      <g transform="translate(20.878125 312.156925)scale(0.1 -0.1)">
       <defs>
        <path d="M 10.59375 35.5 
L 73.1875 35.5 
L 73.1875 27.203125 
L 10.59375 27.203125 
z
" id="DejaVuSans-8722"/>
        <path d="M 12.40625 8.296875 
L 28.515625 8.296875 
L 28.515625 63.921875 
L 10.984375 60.40625 
L 10.984375 69.390625 
L 28.421875 72.90625 
L 38.28125 72.90625 
L 38.28125 8.296875 
L 54.390625 8.296875 
L 54.390625 0 
L 12.40625 0 
z
" id="DejaVuSans-49"/>
       </defs>
       <use xlink:href="#DejaVuSans-8722"/>
       <use x="83.789062" xlink:href="#DejaVuSans-48"/>
       <use x="147.412109" xlink:href="#DejaVuSans-46"/>
       <use x="179.199219" xlink:href="#DejaVuSans-49"/>
      </g>
     </g>
    </g>
    <g id="ytick_2">
     <g id="line2d_11">
      <g>
       <use style="stroke:#000000;stroke-width:0.8;" x="52.160938" xlink:href="#m8f69d122d7" y="255.248374"/>
      </g>
     </g>
     <g id="text_12">
      <!-- 0.0 -->
      <g transform="translate(29.257813 259.047593)scale(0.1 -0.1)">
       <use xlink:href="#DejaVuSans-48"/>
       <use x="63.623047" xlink:href="#DejaVuSans-46"/>
       <use x="95.410156" xlink:href="#DejaVuSans-48"/>
      </g>
     </g>
    </g>
    <g id="ytick_3">
     <g id="line2d_12">
      <g>
       <use style="stroke:#000000;stroke-width:0.8;" x="52.160938" xlink:href="#m8f69d122d7" y="202.139043"/>
      </g>
     </g>
     <g id="text_13">
      <!-- 0.1 -->
      <g transform="translate(29.257813 205.938262)scale(0.1 -0.1)">
       <use xlink:href="#DejaVuSans-48"/>
       <use x="63.623047" xlink:href="#DejaVuSans-46"/>
       <use x="95.410156" xlink:href="#DejaVuSans-49"/>
      </g>
     </g>
    </g>
    <g id="ytick_4">
     <g id="line2d_13">
      <g>
       <use style="stroke:#000000;stroke-width:0.8;" x="52.160938" xlink:href="#m8f69d122d7" y="149.029711"/>
      </g>
     </g>
     <g id="text_14">
      <!-- 0.2 -->
      <g transform="translate(29.257813 152.82893)scale(0.1 -0.1)">
       <use xlink:href="#DejaVuSans-48"/>
       <use x="63.623047" xlink:href="#DejaVuSans-46"/>
       <use x="95.410156" xlink:href="#DejaVuSans-50"/>
      </g>
     </g>
    </g>
    <g id="ytick_5">
     <g id="line2d_14">
      <g>
       <use style="stroke:#000000;stroke-width:0.8;" x="52.160938" xlink:href="#m8f69d122d7" y="95.92038"/>
      </g>
     </g>
     <g id="text_15">
      <!-- 0.3 -->
      <g transform="translate(29.257813 99.719599)scale(0.1 -0.1)">
       <defs>
        <path d="M 40.578125 39.3125 
Q 47.65625 37.796875 51.625 33 
Q 55.609375 28.21875 55.609375 21.1875 
Q 55.609375 10.40625 48.1875 4.484375 
Q 40.765625 -1.421875 27.09375 -1.421875 
Q 22.515625 -1.421875 17.65625 -0.515625 
Q 12.796875 0.390625 7.625 2.203125 
L 7.625 11.71875 
Q 11.71875 9.328125 16.59375 8.109375 
Q 21.484375 6.890625 26.8125 6.890625 
Q 36.078125 6.890625 40.9375 10.546875 
Q 45.796875 14.203125 45.796875 21.1875 
Q 45.796875 27.640625 41.28125 31.265625 
Q 36.765625 34.90625 28.71875 34.90625 
L 20.21875 34.90625 
L 20.21875 43.015625 
L 29.109375 43.015625 
Q 36.375 43.015625 40.234375 45.921875 
Q 44.09375 48.828125 44.09375 54.296875 
Q 44.09375 59.90625 40.109375 62.90625 
Q 36.140625 65.921875 28.71875 65.921875 
Q 24.65625 65.921875 20.015625 65.03125 
Q 15.375 64.15625 9.8125 62.3125 
L 9.8125 71.09375 
Q 15.4375 72.65625 20.34375 73.4375 
Q 25.25 74.21875 29.59375 74.21875 
Q 40.828125 74.21875 47.359375 69.109375 
Q 53.90625 64.015625 53.90625 55.328125 
Q 53.90625 49.265625 50.4375 45.09375 
Q 46.96875 40.921875 40.578125 39.3125 
z
" id="DejaVuSans-51"/>
       </defs>
       <use xlink:href="#DejaVuSans-48"/>
       <use x="63.623047" xlink:href="#DejaVuSans-46"/>
       <use x="95.410156" xlink:href="#DejaVuSans-51"/>
      </g>
     </g>
    </g>
    <g id="ytick_6">
     <g id="line2d_15">
      <g>
       <use style="stroke:#000000;stroke-width:0.8;" x="52.160938" xlink:href="#m8f69d122d7" y="42.811049"/>
      </g>
     </g>
     <g id="text_16">
      <!-- 0.4 -->
      <g transform="translate(29.257813 46.610267)scale(0.1 -0.1)">
       <use xlink:href="#DejaVuSans-48"/>
       <use x="63.623047" xlink:href="#DejaVuSans-46"/>
       <use x="95.410156" xlink:href="#DejaVuSans-52"/>
      </g>
     </g>
    </g>
    <g id="text_17">
     <!-- SRRS median periphery score -->
     <g transform="translate(14.798438 257.387656)rotate(-90)scale(0.1 -0.1)">
      <defs>
       <path d="M 53.515625 70.515625 
L 53.515625 60.890625 
Q 47.90625 63.578125 42.921875 64.890625 
Q 37.9375 66.21875 33.296875 66.21875 
Q 25.25 66.21875 20.875 63.09375 
Q 16.5 59.96875 16.5 54.203125 
Q 16.5 49.359375 19.40625 46.890625 
Q 22.3125 44.4375 30.421875 42.921875 
L 36.375 41.703125 
Q 47.40625 39.59375 52.65625 34.296875 
Q 57.90625 29 57.90625 20.125 
Q 57.90625 9.515625 50.796875 4.046875 
Q 43.703125 -1.421875 29.984375 -1.421875 
Q 24.8125 -1.421875 18.96875 -0.25 
Q 13.140625 0.921875 6.890625 3.21875 
L 6.890625 13.375 
Q 12.890625 10.015625 18.65625 8.296875 
Q 24.421875 6.59375 29.984375 6.59375 
Q 38.421875 6.59375 43.015625 9.90625 
Q 47.609375 13.234375 47.609375 19.390625 
Q 47.609375 24.75 44.3125 27.78125 
Q 41.015625 30.8125 33.5 32.328125 
L 27.484375 33.5 
Q 16.453125 35.6875 11.515625 40.375 
Q 6.59375 45.0625 6.59375 53.421875 
Q 6.59375 63.09375 13.40625 68.65625 
Q 20.21875 74.21875 32.171875 74.21875 
Q 37.3125 74.21875 42.625 73.28125 
Q 47.953125 72.359375 53.515625 70.515625 
z
" id="DejaVuSans-83"/>
       <path d="M 52 44.1875 
Q 55.375 50.25 60.0625 53.125 
Q 64.75 56 71.09375 56 
Q 79.640625 56 84.28125 50.015625 
Q 88.921875 44.046875 88.921875 33.015625 
L 88.921875 0 
L 79.890625 0 
L 79.890625 32.71875 
Q 79.890625 40.578125 77.09375 44.375 
Q 74.3125 48.1875 68.609375 48.1875 
Q 61.625 48.1875 57.5625 43.546875 
Q 53.515625 38.921875 53.515625 30.90625 
L 53.515625 0 
L 44.484375 0 
L 44.484375 32.71875 
Q 44.484375 40.625 41.703125 44.40625 
Q 38.921875 48.1875 33.109375 48.1875 
Q 26.21875 48.1875 22.15625 43.53125 
Q 18.109375 38.875 18.109375 30.90625 
L 18.109375 0 
L 9.078125 0 
L 9.078125 54.6875 
L 18.109375 54.6875 
L 18.109375 46.1875 
Q 21.1875 51.21875 25.484375 53.609375 
Q 29.78125 56 35.6875 56 
Q 41.65625 56 45.828125 52.96875 
Q 50 49.953125 52 44.1875 
z
" id="DejaVuSans-109"/>
       <path d="M 45.40625 46.390625 
L 45.40625 75.984375 
L 54.390625 75.984375 
L 54.390625 0 
L 45.40625 0 
L 45.40625 8.203125 
Q 42.578125 3.328125 38.25 0.953125 
Q 33.9375 -1.421875 27.875 -1.421875 
Q 17.96875 -1.421875 11.734375 6.484375 
Q 5.515625 14.40625 5.515625 27.296875 
Q 5.515625 40.1875 11.734375 48.09375 
Q 17.96875 56 27.875 56 
Q 33.9375 56 38.25 53.625 
Q 42.578125 51.265625 45.40625 46.390625 
z
M 14.796875 27.296875 
Q 14.796875 17.390625 18.875 11.75 
Q 22.953125 6.109375 30.078125 6.109375 
Q 37.203125 6.109375 41.296875 11.75 
Q 45.40625 17.390625 45.40625 27.296875 
Q 45.40625 37.203125 41.296875 42.84375 
Q 37.203125 48.484375 30.078125 48.484375 
Q 22.953125 48.484375 18.875 42.84375 
Q 14.796875 37.203125 14.796875 27.296875 
z
" id="DejaVuSans-100"/>
       <path d="M 9.421875 54.6875 
L 18.40625 54.6875 
L 18.40625 0 
L 9.421875 0 
z
M 9.421875 75.984375 
L 18.40625 75.984375 
L 18.40625 64.59375 
L 9.421875 64.59375 
z
" id="DejaVuSans-105"/>
       <path d="M 34.28125 27.484375 
Q 23.390625 27.484375 19.1875 25 
Q 14.984375 22.515625 14.984375 16.5 
Q 14.984375 11.71875 18.140625 8.90625 
Q 21.296875 6.109375 26.703125 6.109375 
Q 34.1875 6.109375 38.703125 11.40625 
Q 43.21875 16.703125 43.21875 25.484375 
L 43.21875 27.484375 
z
M 52.203125 31.203125 
L 52.203125 0 
L 43.21875 0 
L 43.21875 8.296875 
Q 40.140625 3.328125 35.546875 0.953125 
Q 30.953125 -1.421875 24.3125 -1.421875 
Q 15.921875 -1.421875 10.953125 3.296875 
Q 6 8.015625 6 15.921875 
Q 6 25.140625 12.171875 29.828125 
Q 18.359375 34.515625 30.609375 34.515625 
L 43.21875 34.515625 
L 43.21875 35.40625 
Q 43.21875 41.609375 39.140625 45 
Q 35.0625 48.390625 27.6875 48.390625 
Q 23 48.390625 18.546875 47.265625 
Q 14.109375 46.140625 10.015625 43.890625 
L 10.015625 52.203125 
Q 14.9375 54.109375 19.578125 55.046875 
Q 24.21875 56 28.609375 56 
Q 40.484375 56 46.34375 49.84375 
Q 52.203125 43.703125 52.203125 31.203125 
z
" id="DejaVuSans-97"/>
       <path d="M 54.890625 33.015625 
L 54.890625 0 
L 45.90625 0 
L 45.90625 32.71875 
Q 45.90625 40.484375 42.875 44.328125 
Q 39.84375 48.1875 33.796875 48.1875 
Q 26.515625 48.1875 22.3125 43.546875 
Q 18.109375 38.921875 18.109375 30.90625 
L 18.109375 0 
L 9.078125 0 
L 9.078125 75.984375 
L 18.109375 75.984375 
L 18.109375 46.1875 
Q 21.34375 51.125 25.703125 53.5625 
Q 30.078125 56 35.796875 56 
Q 45.21875 56 50.046875 50.171875 
Q 54.890625 44.34375 54.890625 33.015625 
z
" id="DejaVuSans-104"/>
      </defs>
      <use xlink:href="#DejaVuSans-83"/>
      <use x="63.476562" xlink:href="#DejaVuSans-82"/>
      <use x="132.958984" xlink:href="#DejaVuSans-82"/>
      <use x="202.441406" xlink:href="#DejaVuSans-83"/>
      <use x="265.917969" xlink:href="#DejaVuSans-32"/>
      <use x="297.705078" xlink:href="#DejaVuSans-109"/>
      <use x="395.117188" xlink:href="#DejaVuSans-101"/>
      <use x="456.640625" xlink:href="#DejaVuSans-100"/>
      <use x="520.117188" xlink:href="#DejaVuSans-105"/>
      <use x="547.900391" xlink:href="#DejaVuSans-97"/>
      <use x="609.179688" xlink:href="#DejaVuSans-110"/>
      <use x="672.558594" xlink:href="#DejaVuSans-32"/>
      <use x="704.345703" xlink:href="#DejaVuSans-112"/>
      <use x="767.822266" xlink:href="#DejaVuSans-101"/>
      <use x="829.345703" xlink:href="#DejaVuSans-114"/>
      <use x="870.458984" xlink:href="#DejaVuSans-105"/>
      <use x="898.242188" xlink:href="#DejaVuSans-112"/>
      <use x="961.71875" xlink:href="#DejaVuSans-104"/>
      <use x="1025.097656" xlink:href="#DejaVuSans-101"/>
      <use x="1086.621094" xlink:href="#DejaVuSans-114"/>
      <use x="1127.734375" xlink:href="#DejaVuSans-121"/>
      <use x="1186.914062" xlink:href="#DejaVuSans-32"/>
      <use x="1218.701172" xlink:href="#DejaVuSans-115"/>
      <use x="1270.800781" xlink:href="#DejaVuSans-99"/>
      <use x="1325.78125" xlink:href="#DejaVuSans-111"/>
      <use x="1386.962891" xlink:href="#DejaVuSans-114"/>
      <use x="1425.826172" xlink:href="#DejaVuSans-101"/>
     </g>
    </g>
   </g>
   <g id="patch_3">
    <path d="M 52.160938 343.718125 
L 52.160938 22.318125 
" style="fill:none;stroke:#000000;stroke-linecap:square;stroke-linejoin:miter;stroke-width:0.8;"/>
   </g>
   <g id="patch_4">
    <path d="M 52.160938 343.718125 
L 357.095625 343.718125 
" style="fill:none;stroke:#000000;stroke-linecap:square;stroke-linejoin:miter;stroke-width:0.8;"/>
   </g>
   <g id="text_18">
    <!-- Wipf3 -->
    <g transform="translate(187.425156 16.318125)scale(0.12 -0.12)">
     <defs>
      <path d="M 3.328125 72.90625 
L 13.28125 72.90625 
L 28.609375 11.28125 
L 43.890625 72.90625 
L 54.984375 72.90625 
L 70.3125 11.28125 
L 85.59375 72.90625 
L 95.609375 72.90625 
L 77.296875 0 
L 64.890625 0 
L 49.515625 63.28125 
L 33.984375 0 
L 21.578125 0 
z
" id="DejaVuSans-87"/>
      <path d="M 37.109375 75.984375 
L 37.109375 68.5 
L 28.515625 68.5 
Q 23.6875 68.5 21.796875 66.546875 
Q 19.921875 64.59375 19.921875 59.515625 
L 19.921875 54.6875 
L 34.71875 54.6875 
L 34.71875 47.703125 
L 19.921875 47.703125 
L 19.921875 0 
L 10.890625 0 
L 10.890625 47.703125 
L 2.296875 47.703125 
L 2.296875 54.6875 
L 10.890625 54.6875 
L 10.890625 58.5 
Q 10.890625 67.625 15.140625 71.796875 
Q 19.390625 75.984375 28.609375 75.984375 
z
" id="DejaVuSans-102"/>
     </defs>
     <use xlink:href="#DejaVuSans-87"/>
     <use x="96.626953" xlink:href="#DejaVuSans-105"/>
     <use x="124.410156" xlink:href="#DejaVuSans-112"/>
     <use x="187.886719" xlink:href="#DejaVuSans-102"/>
     <use x="223.091797" xlink:href="#DejaVuSans-51"/>
    </g>
   </g>
  </g>
  <g id="legend_1">
   <g id="text_19">
    <!-- ontology -->
    <g transform="translate(373.881094 105.466875)scale(0.1 -0.1)">
     <use xlink:href="#DejaVuSans-111"/>
     <use x="61.181641" xlink:href="#DejaVuSans-110"/>
     <use x="124.560547" xlink:href="#DejaVuSans-116"/>
     <use x="163.769531" xlink:href="#DejaVuSans-111"/>
     <use x="224.951172" xlink:href="#DejaVuSans-108"/>
     <use x="252.734375" xlink:href="#DejaVuSans-111"/>
     <use x="313.916016" xlink:href="#DejaVuSans-103"/>
     <use x="377.392578" xlink:href="#DejaVuSans-121"/>
    </g>
   </g>
   <g id="PathCollection_14">
    <defs>
     <path d="M 0 3 
C 0.795609 3 1.55874 2.683901 2.12132 2.12132 
C 2.683901 1.55874 3 0.795609 3 0 
C 3 -0.795609 2.683901 -1.55874 2.12132 -2.12132 
C 1.55874 -2.683901 0.795609 -3 0 -3 
C -0.795609 -3 -1.55874 -2.683901 -2.12132 -2.12132 
C -2.683901 -1.55874 -3 -0.795609 -3 0 
C -3 0.795609 -2.683901 1.55874 -2.12132 2.12132 
C -1.55874 2.683901 -0.795609 3 0 3 
z
" id="m738438b03a" style="stroke:#f77189;"/>
    </defs>
    <g>
     <use style="fill:#f77189;stroke:#f77189;" x="372.533437" xlink:href="#m738438b03a" y="117.52"/>
    </g>
   </g>
   <g id="text_20">
    <!-- Astro -->
    <g transform="translate(390.533437 120.145)scale(0.1 -0.1)">
     <use xlink:href="#DejaVuSans-65"/>
     <use x="68.408203" xlink:href="#DejaVuSans-115"/>
     <use x="120.507812" xlink:href="#DejaVuSans-116"/>
     <use x="159.716797" xlink:href="#DejaVuSans-114"/>
     <use x="198.580078" xlink:href="#DejaVuSans-111"/>
    </g>
   </g>
   <g id="PathCollection_15">
    <defs>
     <path d="M 0 3 
C 0.795609 3 1.55874 2.683901 2.12132 2.12132 
C 2.683901 1.55874 3 0.795609 3 0 
C 3 -0.795609 2.683901 -1.55874 2.12132 -2.12132 
C 1.55874 -2.683901 0.795609 -3 0 -3 
C -0.795609 -3 -1.55874 -2.683901 -2.12132 -2.12132 
C -2.683901 -1.55874 -3 -0.795609 -3 0 
C -3 0.795609 -2.683901 1.55874 -2.12132 2.12132 
C -1.55874 2.683901 -0.795609 3 0 3 
z
" id="m8590a05257" style="stroke:#e68332;"/>
    </defs>
    <g>
     <use style="fill:#e68332;stroke:#e68332;" x="372.533437" xlink:href="#m8590a05257" y="132.198125"/>
    </g>
   </g>
   <g id="text_21">
    <!-- Oligo -->
    <g transform="translate(390.533437 134.823125)scale(0.1 -0.1)">
     <defs>
      <path d="M 39.40625 66.21875 
Q 28.65625 66.21875 22.328125 58.203125 
Q 16.015625 50.203125 16.015625 36.375 
Q 16.015625 22.609375 22.328125 14.59375 
Q 28.65625 6.59375 39.40625 6.59375 
Q 50.140625 6.59375 56.421875 14.59375 
Q 62.703125 22.609375 62.703125 36.375 
Q 62.703125 50.203125 56.421875 58.203125 
Q 50.140625 66.21875 39.40625 66.21875 
z
M 39.40625 74.21875 
Q 54.734375 74.21875 63.90625 63.9375 
Q 73.09375 53.65625 73.09375 36.375 
Q 73.09375 19.140625 63.90625 8.859375 
Q 54.734375 -1.421875 39.40625 -1.421875 
Q 24.03125 -1.421875 14.8125 8.828125 
Q 5.609375 19.09375 5.609375 36.375 
Q 5.609375 53.65625 14.8125 63.9375 
Q 24.03125 74.21875 39.40625 74.21875 
z
" id="DejaVuSans-79"/>
     </defs>
     <use xlink:href="#DejaVuSans-79"/>
     <use x="78.710938" xlink:href="#DejaVuSans-108"/>
     <use x="106.494141" xlink:href="#DejaVuSans-105"/>
     <use x="134.277344" xlink:href="#DejaVuSans-103"/>
     <use x="197.753906" xlink:href="#DejaVuSans-111"/>
    </g>
   </g>
   <g id="PathCollection_16">
    <defs>
     <path d="M 0 3 
C 0.795609 3 1.55874 2.683901 2.12132 2.12132 
C 2.683901 1.55874 3 0.795609 3 0 
C 3 -0.795609 2.683901 -1.55874 2.12132 -2.12132 
C 1.55874 -2.683901 0.795609 -3 0 -3 
C -0.795609 -3 -1.55874 -2.683901 -2.12132 -2.12132 
C -2.683901 -1.55874 -3 -0.795609 -3 0 
C -3 0.795609 -2.683901 1.55874 -2.12132 2.12132 
C -1.55874 2.683901 -0.795609 3 0 3 
z
" id="m4d6e057aa2" style="stroke:#bb9832;"/>
    </defs>
    <g>
     <use style="fill:#bb9832;stroke:#bb9832;" x="372.533437" xlink:href="#m4d6e057aa2" y="146.87625"/>
    </g>
   </g>
   <g id="text_22">
    <!-- L6b -->
    <g transform="translate(390.533437 149.50125)scale(0.1 -0.1)">
     <defs>
      <path d="M 9.8125 72.90625 
L 19.671875 72.90625 
L 19.671875 8.296875 
L 55.171875 8.296875 
L 55.171875 0 
L 9.8125 0 
z
" id="DejaVuSans-76"/>
      <path d="M 48.6875 27.296875 
Q 48.6875 37.203125 44.609375 42.84375 
Q 40.53125 48.484375 33.40625 48.484375 
Q 26.265625 48.484375 22.1875 42.84375 
Q 18.109375 37.203125 18.109375 27.296875 
Q 18.109375 17.390625 22.1875 11.75 
Q 26.265625 6.109375 33.40625 6.109375 
Q 40.53125 6.109375 44.609375 11.75 
Q 48.6875 17.390625 48.6875 27.296875 
z
M 18.109375 46.390625 
Q 20.953125 51.265625 25.265625 53.625 
Q 29.59375 56 35.59375 56 
Q 45.5625 56 51.78125 48.09375 
Q 58.015625 40.1875 58.015625 27.296875 
Q 58.015625 14.40625 51.78125 6.484375 
Q 45.5625 -1.421875 35.59375 -1.421875 
Q 29.59375 -1.421875 25.265625 0.953125 
Q 20.953125 3.328125 18.109375 8.203125 
L 18.109375 0 
L 9.078125 0 
L 9.078125 75.984375 
L 18.109375 75.984375 
z
" id="DejaVuSans-98"/>
     </defs>
     <use xlink:href="#DejaVuSans-76"/>
     <use x="55.712891" xlink:href="#DejaVuSans-54"/>
     <use x="119.335938" xlink:href="#DejaVuSans-98"/>
    </g>
   </g>
   <g id="PathCollection_17">
    <defs>
     <path d="M 0 3 
C 0.795609 3 1.55874 2.683901 2.12132 2.12132 
C 2.683901 1.55874 3 0.795609 3 0 
C 3 -0.795609 2.683901 -1.55874 2.12132 -2.12132 
C 1.55874 -2.683901 0.795609 -3 0 -3 
C -0.795609 -3 -1.55874 -2.683901 -2.12132 -2.12132 
C -2.683901 -1.55874 -3 -0.795609 -3 0 
C -3 0.795609 -2.683901 1.55874 -2.12132 2.12132 
C -1.55874 2.683901 -0.795609 3 0 3 
z
" id="m12e763403d" style="stroke:#97a431;"/>
    </defs>
    <g>
     <use style="fill:#97a431;stroke:#97a431;" x="372.533437" xlink:href="#m12e763403d" y="161.554375"/>
    </g>
   </g>
   <g id="text_23">
    <!-- Pvalb -->
    <g transform="translate(390.533437 164.179375)scale(0.1 -0.1)">
     <defs>
      <path d="M 2.984375 54.6875 
L 12.5 54.6875 
L 29.59375 8.796875 
L 46.6875 54.6875 
L 56.203125 54.6875 
L 35.6875 0 
L 23.484375 0 
z
" id="DejaVuSans-118"/>
     </defs>
     <use xlink:href="#DejaVuSans-80"/>
     <use x="60.302734" xlink:href="#DejaVuSans-118"/>
     <use x="119.482422" xlink:href="#DejaVuSans-97"/>
     <use x="180.761719" xlink:href="#DejaVuSans-108"/>
     <use x="208.544922" xlink:href="#DejaVuSans-98"/>
    </g>
   </g>
   <g id="PathCollection_18">
    <defs>
     <path d="M 0 3 
C 0.795609 3 1.55874 2.683901 2.12132 2.12132 
C 2.683901 1.55874 3 0.795609 3 0 
C 3 -0.795609 2.683901 -1.55874 2.12132 -2.12132 
C 1.55874 -2.683901 0.795609 -3 0 -3 
C -0.795609 -3 -1.55874 -2.683901 -2.12132 -2.12132 
C -2.683901 -1.55874 -3 -0.795609 -3 0 
C -3 0.795609 -2.683901 1.55874 -2.12132 2.12132 
C -1.55874 2.683901 -0.795609 3 0 3 
z
" id="ma121700d86" style="stroke:#50b131;"/>
    </defs>
    <g>
     <use style="fill:#50b131;stroke:#50b131;" x="372.533437" xlink:href="#ma121700d86" y="176.2325"/>
    </g>
   </g>
   <g id="text_24">
    <!-- Lamp5 -->
    <g transform="translate(390.533437 178.8575)scale(0.1 -0.1)">
     <use xlink:href="#DejaVuSans-76"/>
     <use x="55.712891" xlink:href="#DejaVuSans-97"/>
     <use x="116.992188" xlink:href="#DejaVuSans-109"/>
     <use x="214.404297" xlink:href="#DejaVuSans-112"/>
     <use x="277.880859" xlink:href="#DejaVuSans-53"/>
    </g>
   </g>
   <g id="PathCollection_19">
    <defs>
     <path d="M 0 3 
C 0.795609 3 1.55874 2.683901 2.12132 2.12132 
C 2.683901 1.55874 3 0.795609 3 0 
C 3 -0.795609 2.683901 -1.55874 2.12132 -2.12132 
C 1.55874 -2.683901 0.795609 -3 0 -3 
C -0.795609 -3 -1.55874 -2.683901 -2.12132 -2.12132 
C -2.683901 -1.55874 -3 -0.795609 -3 0 
C -3 0.795609 -2.683901 1.55874 -2.12132 2.12132 
C -1.55874 2.683901 -0.795609 3 0 3 
z
" id="m2e29a416c6" style="stroke:#34af84;"/>
    </defs>
    <g>
     <use style="fill:#34af84;stroke:#34af84;" x="372.533437" xlink:href="#m2e29a416c6" y="190.910625"/>
    </g>
   </g>
   <g id="text_25">
    <!-- L5 IT -->
    <g transform="translate(390.533437 193.535625)scale(0.1 -0.1)">
     <defs>
      <path d="M 9.8125 72.90625 
L 19.671875 72.90625 
L 19.671875 0 
L 9.8125 0 
z
" id="DejaVuSans-73"/>
     </defs>
     <use xlink:href="#DejaVuSans-76"/>
     <use x="55.712891" xlink:href="#DejaVuSans-53"/>
     <use x="119.335938" xlink:href="#DejaVuSans-32"/>
     <use x="151.123047" xlink:href="#DejaVuSans-73"/>
     <use x="180.615234" xlink:href="#DejaVuSans-84"/>
    </g>
   </g>
   <g id="PathCollection_20">
    <defs>
     <path d="M 0 3 
C 0.795609 3 1.55874 2.683901 2.12132 2.12132 
C 2.683901 1.55874 3 0.795609 3 0 
C 3 -0.795609 2.683901 -1.55874 2.12132 -2.12132 
C 1.55874 -2.683901 0.795609 -3 0 -3 
C -0.795609 -3 -1.55874 -2.683901 -2.12132 -2.12132 
C -2.683901 -1.55874 -3 -0.795609 -3 0 
C -3 0.795609 -2.683901 1.55874 -2.12132 2.12132 
C -1.55874 2.683901 -0.795609 3 0 3 
z
" id="m524a2910c4" style="stroke:#36ada4;"/>
    </defs>
    <g>
     <use style="fill:#36ada4;stroke:#36ada4;" x="372.533437" xlink:href="#m524a2910c4" y="205.58875"/>
    </g>
   </g>
   <g id="text_26">
    <!-- L5 ET -->
    <g transform="translate(390.533437 208.21375)scale(0.1 -0.1)">
     <defs>
      <path d="M 9.8125 72.90625 
L 55.90625 72.90625 
L 55.90625 64.59375 
L 19.671875 64.59375 
L 19.671875 43.015625 
L 54.390625 43.015625 
L 54.390625 34.71875 
L 19.671875 34.71875 
L 19.671875 8.296875 
L 56.78125 8.296875 
L 56.78125 0 
L 9.8125 0 
z
" id="DejaVuSans-69"/>
     </defs>
     <use xlink:href="#DejaVuSans-76"/>
     <use x="55.712891" xlink:href="#DejaVuSans-53"/>
     <use x="119.335938" xlink:href="#DejaVuSans-32"/>
     <use x="151.123047" xlink:href="#DejaVuSans-69"/>
     <use x="214.306641" xlink:href="#DejaVuSans-84"/>
    </g>
   </g>
   <g id="PathCollection_21">
    <defs>
     <path d="M 0 3 
C 0.795609 3 1.55874 2.683901 2.12132 2.12132 
C 2.683901 1.55874 3 0.795609 3 0 
C 3 -0.795609 2.683901 -1.55874 2.12132 -2.12132 
C 1.55874 -2.683901 0.795609 -3 0 -3 
C -0.795609 -3 -1.55874 -2.683901 -2.12132 -2.12132 
C -2.683901 -1.55874 -3 -0.795609 -3 0 
C -3 0.795609 -2.683901 1.55874 -2.12132 2.12132 
C -1.55874 2.683901 -0.795609 3 0 3 
z
" id="m7d03440504" style="stroke:#38aabf;"/>
    </defs>
    <g>
     <use style="fill:#38aabf;stroke:#38aabf;" x="372.533437" xlink:href="#m7d03440504" y="220.266875"/>
    </g>
   </g>
   <g id="text_27">
    <!-- L6 IT -->
    <g transform="translate(390.533437 222.891875)scale(0.1 -0.1)">
     <use xlink:href="#DejaVuSans-76"/>
     <use x="55.712891" xlink:href="#DejaVuSans-54"/>
     <use x="119.335938" xlink:href="#DejaVuSans-32"/>
     <use x="151.123047" xlink:href="#DejaVuSans-73"/>
     <use x="180.615234" xlink:href="#DejaVuSans-84"/>
    </g>
   </g>
   <g id="PathCollection_22">
    <defs>
     <path d="M 0 3 
C 0.795609 3 1.55874 2.683901 2.12132 2.12132 
C 2.683901 1.55874 3 0.795609 3 0 
C 3 -0.795609 2.683901 -1.55874 2.12132 -2.12132 
C 1.55874 -2.683901 0.795609 -3 0 -3 
C -0.795609 -3 -1.55874 -2.683901 -2.12132 -2.12132 
C -2.683901 -1.55874 -3 -0.795609 -3 0 
C -3 0.795609 -2.683901 1.55874 -2.12132 2.12132 
C -1.55874 2.683901 -0.795609 3 0 3 
z
" id="m34bcf63f45" style="stroke:#3ba3ec;"/>
    </defs>
    <g>
     <use style="fill:#3ba3ec;stroke:#3ba3ec;" x="372.533437" xlink:href="#m34bcf63f45" y="234.945"/>
    </g>
   </g>
   <g id="text_28">
    <!-- L2/3 IT -->
    <g transform="translate(390.533437 237.57)scale(0.1 -0.1)">
     <use xlink:href="#DejaVuSans-76"/>
     <use x="55.712891" xlink:href="#DejaVuSans-50"/>
     <use x="119.335938" xlink:href="#DejaVuSans-47"/>
     <use x="153.027344" xlink:href="#DejaVuSans-51"/>
     <use x="216.650391" xlink:href="#DejaVuSans-32"/>
     <use x="248.4375" xlink:href="#DejaVuSans-73"/>
     <use x="277.929688" xlink:href="#DejaVuSans-84"/>
    </g>
   </g>
   <g id="PathCollection_23">
    <defs>
     <path d="M 0 3 
C 0.795609 3 1.55874 2.683901 2.12132 2.12132 
C 2.683901 1.55874 3 0.795609 3 0 
C 3 -0.795609 2.683901 -1.55874 2.12132 -2.12132 
C 1.55874 -2.683901 0.795609 -3 0 -3 
C -0.795609 -3 -1.55874 -2.683901 -2.12132 -2.12132 
C -2.683901 -1.55874 -3 -0.795609 -3 0 
C -3 0.795609 -2.683901 1.55874 -2.12132 2.12132 
C -1.55874 2.683901 -0.795609 3 0 3 
z
" id="mdc5a057201" style="stroke:#a48cf4;"/>
    </defs>
    <g>
     <use style="fill:#a48cf4;stroke:#a48cf4;" x="372.533437" xlink:href="#mdc5a057201" y="249.623125"/>
    </g>
   </g>
   <g id="text_29">
    <!-- L5/6 NP -->
    <g transform="translate(390.533437 252.248125)scale(0.1 -0.1)">
     <use xlink:href="#DejaVuSans-76"/>
     <use x="55.712891" xlink:href="#DejaVuSans-53"/>
     <use x="119.335938" xlink:href="#DejaVuSans-47"/>
     <use x="153.027344" xlink:href="#DejaVuSans-54"/>
     <use x="216.650391" xlink:href="#DejaVuSans-32"/>
     <use x="248.4375" xlink:href="#DejaVuSans-78"/>
     <use x="323.242188" xlink:href="#DejaVuSans-80"/>
    </g>
   </g>
   <g id="PathCollection_24">
    <defs>
     <path d="M 0 3 
C 0.795609 3 1.55874 2.683901 2.12132 2.12132 
C 2.683901 1.55874 3 0.795609 3 0 
C 3 -0.795609 2.683901 -1.55874 2.12132 -2.12132 
C 1.55874 -2.683901 0.795609 -3 0 -3 
C -0.795609 -3 -1.55874 -2.683901 -2.12132 -2.12132 
C -2.683901 -1.55874 -3 -0.795609 -3 0 
C -3 0.795609 -2.683901 1.55874 -2.12132 2.12132 
C -1.55874 2.683901 -0.795609 3 0 3 
z
" id="m2d202f3390" style="stroke:#e866f4;"/>
    </defs>
    <g>
     <use style="fill:#e866f4;stroke:#e866f4;" x="372.533437" xlink:href="#m2d202f3390" y="264.30125"/>
    </g>
   </g>
   <g id="text_30">
    <!-- L6 CT -->
    <g transform="translate(390.533437 266.92625)scale(0.1 -0.1)">
     <defs>
      <path d="M 64.40625 67.28125 
L 64.40625 56.890625 
Q 59.421875 61.53125 53.78125 63.8125 
Q 48.140625 66.109375 41.796875 66.109375 
Q 29.296875 66.109375 22.65625 58.46875 
Q 16.015625 50.828125 16.015625 36.375 
Q 16.015625 21.96875 22.65625 14.328125 
Q 29.296875 6.6875 41.796875 6.6875 
Q 48.140625 6.6875 53.78125 8.984375 
Q 59.421875 11.28125 64.40625 15.921875 
L 64.40625 5.609375 
Q 59.234375 2.09375 53.4375 0.328125 
Q 47.65625 -1.421875 41.21875 -1.421875 
Q 24.65625 -1.421875 15.125 8.703125 
Q 5.609375 18.84375 5.609375 36.375 
Q 5.609375 53.953125 15.125 64.078125 
Q 24.65625 74.21875 41.21875 74.21875 
Q 47.75 74.21875 53.53125 72.484375 
Q 59.328125 70.75 64.40625 67.28125 
z
" id="DejaVuSans-67"/>
     </defs>
     <use xlink:href="#DejaVuSans-76"/>
     <use x="55.712891" xlink:href="#DejaVuSans-54"/>
     <use x="119.335938" xlink:href="#DejaVuSans-32"/>
     <use x="151.123047" xlink:href="#DejaVuSans-67"/>
     <use x="220.947266" xlink:href="#DejaVuSans-84"/>
    </g>
   </g>
   <g id="PathCollection_25">
    <defs>
     <path d="M 0 3 
C 0.795609 3 1.55874 2.683901 2.12132 2.12132 
C 2.683901 1.55874 3 0.795609 3 0 
C 3 -0.795609 2.683901 -1.55874 2.12132 -2.12132 
C 1.55874 -2.683901 0.795609 -3 0 -3 
C -0.795609 -3 -1.55874 -2.683901 -2.12132 -2.12132 
C -2.683901 -1.55874 -3 -0.795609 -3 0 
C -3 0.795609 -2.683901 1.55874 -2.12132 2.12132 
C -1.55874 2.683901 -0.795609 3 0 3 
z
" id="m4598deb8b2" style="stroke:#f668c2;"/>
    </defs>
    <g>
     <use style="fill:#f668c2;stroke:#f668c2;" x="372.533437" xlink:href="#m4598deb8b2" y="278.979375"/>
    </g>
   </g>
   <g id="text_31">
    <!-- Sst -->
    <g transform="translate(390.533437 281.604375)scale(0.1 -0.1)">
     <use xlink:href="#DejaVuSans-83"/>
     <use x="63.476562" xlink:href="#DejaVuSans-115"/>
     <use x="115.576172" xlink:href="#DejaVuSans-116"/>
    </g>
   </g>
  </g>
 </g>
 <defs>
  <clipPath id="p7fc7a251a7">
   <rect height="321.4" width="304.934688" x="52.160938" y="22.318125"/>
  </clipPath>
 </defs>
</svg>
