<?xml version="1.0" encoding="utf-8" standalone="no"?>
<!DOCTYPE svg PUBLIC "-//W3C//DTD SVG 1.1//EN"
  "http://www.w3.org/Graphics/SVG/1.1/DTD/svg11.dtd">
<!-- Created with matplotlib (https://matplotlib.org/) -->
<svg height="288pt" version="1.1" viewBox="0 0 432 288" width="432pt" xmlns="http://www.w3.org/2000/svg" xmlns:xlink="http://www.w3.org/1999/xlink">
 <metadata>
  <rdf:RDF xmlns:cc="http://creativecommons.org/ns#" xmlns:dc="http://purl.org/dc/elements/1.1/" xmlns:rdf="http://www.w3.org/1999/02/22-rdf-syntax-ns#">
   <cc:Work>
    <dc:type rdf:resource="http://purl.org/dc/dcmitype/StillImage"/>
    <dc:date>2022-02-26T15:15:19.952276</dc:date>
    <dc:format>image/svg+xml</dc:format>
    <dc:creator>
     <cc:Agent>
      <dc:title>Matplotlib v3.3.3, https://matplotlib.org/</dc:title>
     </cc:Agent>
    </dc:creator>
   </cc:Work>
  </rdf:RDF>
 </metadata>
 <defs>
  <style type="text/css">*{stroke-linecap:butt;stroke-linejoin:round;}</style>
 </defs>
 <g id="figure_1">
  <g id="patch_1">
   <path d="M 0 288 
L 432 288 
L 432 0 
L 0 0 
z
" style="fill:none;"/>
  </g>
  <g id="axes_1">
   <g id="patch_2">
    <path d="M 51.675 246.2 
L 321.71 246.2 
L 321.71 26.8 
L 51.675 26.8 
z
" style="fill:#ffffff;"/>
   </g>
   <g id="patch_3">
    <path clip-path="url(#p1a48cddd2c)" d="M 87.823454 36.39875 
L 87.823454 44.62625 
L 111.631142 44.62625 
L 111.631142 36.39875 
L 87.823454 36.39875 
z
" style="fill:#dee9f3;stroke:#8b8b8b;stroke-linejoin:miter;stroke-width:1.5;"/>
   </g>
   <g id="patch_4">
    <path clip-path="url(#p1a48cddd2c)" d="M 172.935108 63.82375 
L 172.935108 72.05125 
L 187.726269 72.05125 
L 187.726269 63.82375 
L 172.935108 63.82375 
z
" style="fill:#dee9f3;stroke:#8b8b8b;stroke-linejoin:miter;stroke-width:1.5;"/>
   </g>
   <g id="patch_5">
    <path clip-path="url(#p1a48cddd2c)" d="M 186.588074 91.24875 
L 186.588074 99.47625 
L 194.90057 99.47625 
L 194.90057 91.24875 
L 186.588074 91.24875 
z
" style="fill:#dee9f3;stroke:#8b8b8b;stroke-linejoin:miter;stroke-width:1.5;"/>
   </g>
   <g id="patch_6">
    <path clip-path="url(#p1a48cddd2c)" d="M 186.391737 118.67375 
L 186.391737 126.90125 
L 200.483218 126.90125 
L 200.483218 118.67375 
L 186.391737 118.67375 
z
" style="fill:#dee9f3;stroke:#8b8b8b;stroke-linejoin:miter;stroke-width:1.5;"/>
   </g>
   <g id="patch_7">
    <path clip-path="url(#p1a48cddd2c)" d="M 187.919595 146.09875 
L 187.919595 154.32625 
L 211.809884 154.32625 
L 211.809884 146.09875 
L 187.919595 146.09875 
z
" style="fill:#dee9f3;stroke:#8b8b8b;stroke-linejoin:miter;stroke-width:1.5;"/>
   </g>
   <g id="patch_8">
    <path clip-path="url(#p1a48cddd2c)" d="M 197.719522 173.52375 
L 197.719522 181.75125 
L 219.313539 181.75125 
L 219.313539 173.52375 
L 197.719522 173.52375 
z
" style="fill:#dee9f3;stroke:#8b8b8b;stroke-linejoin:miter;stroke-width:1.5;"/>
   </g>
   <g id="patch_9">
    <path clip-path="url(#p1a48cddd2c)" d="M 225.674463 200.94875 
L 225.674463 209.17625 
L 261.205767 209.17625 
L 261.205767 200.94875 
L 225.674463 200.94875 
z
" style="fill:#dee9f3;stroke:#8b8b8b;stroke-linejoin:miter;stroke-width:1.5;"/>
   </g>
   <g id="patch_10">
    <path clip-path="url(#p1a48cddd2c)" d="M 229.582202 228.37375 
L 229.582202 236.60125 
L 272.799356 236.60125 
L 272.799356 228.37375 
L 229.582202 228.37375 
z
" style="fill:#dee9f3;stroke:#8b8b8b;stroke-linejoin:miter;stroke-width:1.5;"/>
   </g>
   <g id="PathCollection_1"/>
   <g id="PathCollection_2"/>
   <g id="PathCollection_3"/>
   <g id="PathCollection_4"/>
   <g id="PathCollection_5"/>
   <g id="PathCollection_6"/>
   <g id="patch_11">
    <path clip-path="url(#p1a48cddd2c)" d="M 188.734784 246.2 
L 188.734784 26.8 
L 309.435682 26.8 
L 309.435682 246.2 
z
" style="fill:#808080;opacity:0.5;"/>
   </g>
   <g id="matplotlib.axis_1">
    <g id="xtick_1">
     <g id="text_1">
      <!-- −8 -->
      <g transform="translate(51.787307 260.798437)scale(0.1 -0.1)">
       <defs>
        <path d="M 10.59375 35.5 
L 73.1875 35.5 
L 73.1875 27.203125 
L 10.59375 27.203125 
z
" id="DejaVuSans-8722"/>
        <path d="M 31.78125 34.625 
Q 24.75 34.625 20.71875 30.859375 
Q 16.703125 27.09375 16.703125 20.515625 
Q 16.703125 13.921875 20.71875 10.15625 
Q 24.75 6.390625 31.78125 6.390625 
Q 38.8125 6.390625 42.859375 10.171875 
Q 46.921875 13.96875 46.921875 20.515625 
Q 46.921875 27.09375 42.890625 30.859375 
Q 38.875 34.625 31.78125 34.625 
z
M 21.921875 38.8125 
Q 15.578125 40.375 12.03125 44.71875 
Q 8.5 49.078125 8.5 55.328125 
Q 8.5 64.0625 14.71875 69.140625 
Q 20.953125 74.21875 31.78125 74.21875 
Q 42.671875 74.21875 48.875 69.140625 
Q 55.078125 64.0625 55.078125 55.328125 
Q 55.078125 49.078125 51.53125 44.71875 
Q 48 40.375 41.703125 38.8125 
Q 48.828125 37.15625 52.796875 32.3125 
Q 56.78125 27.484375 56.78125 20.515625 
Q 56.78125 9.90625 50.3125 4.234375 
Q 43.84375 -1.421875 31.78125 -1.421875 
Q 19.734375 -1.421875 13.25 4.234375 
Q 6.78125 9.90625 6.78125 20.515625 
Q 6.78125 27.484375 10.78125 32.3125 
Q 14.796875 37.15625 21.921875 38.8125 
z
M 18.3125 54.390625 
Q 18.3125 48.734375 21.84375 45.5625 
Q 25.390625 42.390625 31.78125 42.390625 
Q 38.140625 42.390625 41.71875 45.5625 
Q 45.3125 48.734375 45.3125 54.390625 
Q 45.3125 60.0625 41.71875 63.234375 
Q 38.140625 66.40625 31.78125 66.40625 
Q 25.390625 66.40625 21.84375 63.234375 
Q 18.3125 60.0625 18.3125 54.390625 
z
" id="DejaVuSans-56"/>
       </defs>
       <use xlink:href="#DejaVuSans-8722"/>
       <use x="83.789062" xlink:href="#DejaVuSans-56"/>
      </g>
     </g>
    </g>
    <g id="xtick_2">
     <g id="text_2">
      <!-- −6 -->
      <g transform="translate(84.181403 260.798437)scale(0.1 -0.1)">
       <defs>
        <path d="M 33.015625 40.375 
Q 26.375 40.375 22.484375 35.828125 
Q 18.609375 31.296875 18.609375 23.390625 
Q 18.609375 15.53125 22.484375 10.953125 
Q 26.375 6.390625 33.015625 6.390625 
Q 39.65625 6.390625 43.53125 10.953125 
Q 47.40625 15.53125 47.40625 23.390625 
Q 47.40625 31.296875 43.53125 35.828125 
Q 39.65625 40.375 33.015625 40.375 
z
M 52.59375 71.296875 
L 52.59375 62.3125 
Q 48.875 64.0625 45.09375 64.984375 
Q 41.3125 65.921875 37.59375 65.921875 
Q 27.828125 65.921875 22.671875 59.328125 
Q 17.53125 52.734375 16.796875 39.40625 
Q 19.671875 43.65625 24.015625 45.921875 
Q 28.375 48.1875 33.59375 48.1875 
Q 44.578125 48.1875 50.953125 41.515625 
Q 57.328125 34.859375 57.328125 23.390625 
Q 57.328125 12.15625 50.6875 5.359375 
Q 44.046875 -1.421875 33.015625 -1.421875 
Q 20.359375 -1.421875 13.671875 8.265625 
Q 6.984375 17.96875 6.984375 36.375 
Q 6.984375 53.65625 15.1875 63.9375 
Q 23.390625 74.21875 37.203125 74.21875 
Q 40.921875 74.21875 44.703125 73.484375 
Q 48.484375 72.75 52.59375 71.296875 
z
" id="DejaVuSans-54"/>
       </defs>
       <use xlink:href="#DejaVuSans-8722"/>
       <use x="83.789062" xlink:href="#DejaVuSans-54"/>
      </g>
     </g>
    </g>
    <g id="xtick_3">
     <g id="text_3">
      <!-- −4 -->
      <g transform="translate(116.575499 260.798437)scale(0.1 -0.1)">
       <defs>
        <path d="M 37.796875 64.3125 
L 12.890625 25.390625 
L 37.796875 25.390625 
z
M 35.203125 72.90625 
L 47.609375 72.90625 
L 47.609375 25.390625 
L 58.015625 25.390625 
L 58.015625 17.1875 
L 47.609375 17.1875 
L 47.609375 0 
L 37.796875 0 
L 37.796875 17.1875 
L 4.890625 17.1875 
L 4.890625 26.703125 
z
" id="DejaVuSans-52"/>
       </defs>
       <use xlink:href="#DejaVuSans-8722"/>
       <use x="83.789062" xlink:href="#DejaVuSans-52"/>
      </g>
     </g>
    </g>
    <g id="xtick_4">
     <g id="text_4">
      <!-- −2 -->
      <g transform="translate(148.969594 260.798437)scale(0.1 -0.1)">
       <defs>
        <path d="M 19.1875 8.296875 
L 53.609375 8.296875 
L 53.609375 0 
L 7.328125 0 
L 7.328125 8.296875 
Q 12.9375 14.109375 22.625 23.890625 
Q 32.328125 33.6875 34.8125 36.53125 
Q 39.546875 41.84375 41.421875 45.53125 
Q 43.3125 49.21875 43.3125 52.78125 
Q 43.3125 58.59375 39.234375 62.25 
Q 35.15625 65.921875 28.609375 65.921875 
Q 23.96875 65.921875 18.8125 64.3125 
Q 13.671875 62.703125 7.8125 59.421875 
L 7.8125 69.390625 
Q 13.765625 71.78125 18.9375 73 
Q 24.125 74.21875 28.421875 74.21875 
Q 39.75 74.21875 46.484375 68.546875 
Q 53.21875 62.890625 53.21875 53.421875 
Q 53.21875 48.921875 51.53125 44.890625 
Q 49.859375 40.875 45.40625 35.40625 
Q 44.1875 33.984375 37.640625 27.21875 
Q 31.109375 20.453125 19.1875 8.296875 
z
" id="DejaVuSans-50"/>
       </defs>
       <use xlink:href="#DejaVuSans-8722"/>
       <use x="83.789062" xlink:href="#DejaVuSans-50"/>
      </g>
     </g>
    </g>
    <g id="xtick_5">
     <g id="text_5">
      <!-- 0 -->
      <g transform="translate(185.553534 260.798437)scale(0.1 -0.1)">
       <defs>
        <path d="M 31.78125 66.40625 
Q 24.171875 66.40625 20.328125 58.90625 
Q 16.5 51.421875 16.5 36.375 
Q 16.5 21.390625 20.328125 13.890625 
Q 24.171875 6.390625 31.78125 6.390625 
Q 39.453125 6.390625 43.28125 13.890625 
Q 47.125 21.390625 47.125 36.375 
Q 47.125 51.421875 43.28125 58.90625 
Q 39.453125 66.40625 31.78125 66.40625 
z
M 31.78125 74.21875 
Q 44.046875 74.21875 50.515625 64.515625 
Q 56.984375 54.828125 56.984375 36.375 
Q 56.984375 17.96875 50.515625 8.265625 
Q 44.046875 -1.421875 31.78125 -1.421875 
Q 19.53125 -1.421875 13.0625 8.265625 
Q 6.59375 17.96875 6.59375 36.375 
Q 6.59375 54.828125 13.0625 64.515625 
Q 19.53125 74.21875 31.78125 74.21875 
z
" id="DejaVuSans-48"/>
       </defs>
       <use xlink:href="#DejaVuSans-48"/>
      </g>
     </g>
    </g>
    <g id="xtick_6">
     <g id="text_6">
      <!-- 2 -->
      <g transform="translate(217.947629 260.798437)scale(0.1 -0.1)">
       <use xlink:href="#DejaVuSans-50"/>
      </g>
     </g>
    </g>
    <g id="xtick_7">
     <g id="text_7">
      <!-- 4 -->
      <g transform="translate(250.341725 260.798437)scale(0.1 -0.1)">
       <use xlink:href="#DejaVuSans-52"/>
      </g>
     </g>
    </g>
    <g id="xtick_8">
     <g id="text_8">
      <!-- 6 -->
      <g transform="translate(282.735821 260.798437)scale(0.1 -0.1)">
       <use xlink:href="#DejaVuSans-54"/>
      </g>
     </g>
    </g>
    <g id="xtick_9">
     <g id="text_9">
      <!-- 8 -->
      <g transform="translate(315.129916 260.798437)scale(0.1 -0.1)">
       <use xlink:href="#DejaVuSans-56"/>
      </g>
     </g>
    </g>
    <g id="text_10">
     <!-- Z score per sample/ontology -->
     <g transform="translate(115.068281 274.476562)scale(0.1 -0.1)">
      <defs>
       <path d="M 5.609375 72.90625 
L 62.890625 72.90625 
L 62.890625 65.375 
L 16.796875 8.296875 
L 64.015625 8.296875 
L 64.015625 0 
L 4.5 0 
L 4.5 7.515625 
L 50.59375 64.59375 
L 5.609375 64.59375 
z
" id="DejaVuSans-90"/>
       <path id="DejaVuSans-32"/>
       <path d="M 44.28125 53.078125 
L 44.28125 44.578125 
Q 40.484375 46.53125 36.375 47.5 
Q 32.28125 48.484375 27.875 48.484375 
Q 21.1875 48.484375 17.84375 46.4375 
Q 14.5 44.390625 14.5 40.28125 
Q 14.5 37.15625 16.890625 35.375 
Q 19.28125 33.59375 26.515625 31.984375 
L 29.59375 31.296875 
Q 39.15625 29.25 43.1875 25.515625 
Q 47.21875 21.78125 47.21875 15.09375 
Q 47.21875 7.46875 41.1875 3.015625 
Q 35.15625 -1.421875 24.609375 -1.421875 
Q 20.21875 -1.421875 15.453125 -0.5625 
Q 10.6875 0.296875 5.421875 2 
L 5.421875 11.28125 
Q 10.40625 8.6875 15.234375 7.390625 
Q 20.0625 6.109375 24.8125 6.109375 
Q 31.15625 6.109375 34.5625 8.28125 
Q 37.984375 10.453125 37.984375 14.40625 
Q 37.984375 18.0625 35.515625 20.015625 
Q 33.0625 21.96875 24.703125 23.78125 
L 21.578125 24.515625 
Q 13.234375 26.265625 9.515625 29.90625 
Q 5.8125 33.546875 5.8125 39.890625 
Q 5.8125 47.609375 11.28125 51.796875 
Q 16.75 56 26.8125 56 
Q 31.78125 56 36.171875 55.265625 
Q 40.578125 54.546875 44.28125 53.078125 
z
" id="DejaVuSans-115"/>
       <path d="M 48.78125 52.59375 
L 48.78125 44.1875 
Q 44.96875 46.296875 41.140625 47.34375 
Q 37.3125 48.390625 33.40625 48.390625 
Q 24.65625 48.390625 19.8125 42.84375 
Q 14.984375 37.3125 14.984375 27.296875 
Q 14.984375 17.28125 19.8125 11.734375 
Q 24.65625 6.203125 33.40625 6.203125 
Q 37.3125 6.203125 41.140625 7.25 
Q 44.96875 8.296875 48.78125 10.40625 
L 48.78125 2.09375 
Q 45.015625 0.34375 40.984375 -0.53125 
Q 36.96875 -1.421875 32.421875 -1.421875 
Q 20.0625 -1.421875 12.78125 6.34375 
Q 5.515625 14.109375 5.515625 27.296875 
Q 5.515625 40.671875 12.859375 48.328125 
Q 20.21875 56 33.015625 56 
Q 37.15625 56 41.109375 55.140625 
Q 45.0625 54.296875 48.78125 52.59375 
z
" id="DejaVuSans-99"/>
       <path d="M 30.609375 48.390625 
Q 23.390625 48.390625 19.1875 42.75 
Q 14.984375 37.109375 14.984375 27.296875 
Q 14.984375 17.484375 19.15625 11.84375 
Q 23.34375 6.203125 30.609375 6.203125 
Q 37.796875 6.203125 41.984375 11.859375 
Q 46.1875 17.53125 46.1875 27.296875 
Q 46.1875 37.015625 41.984375 42.703125 
Q 37.796875 48.390625 30.609375 48.390625 
z
M 30.609375 56 
Q 42.328125 56 49.015625 48.375 
Q 55.71875 40.765625 55.71875 27.296875 
Q 55.71875 13.875 49.015625 6.21875 
Q 42.328125 -1.421875 30.609375 -1.421875 
Q 18.84375 -1.421875 12.171875 6.21875 
Q 5.515625 13.875 5.515625 27.296875 
Q 5.515625 40.765625 12.171875 48.375 
Q 18.84375 56 30.609375 56 
z
" id="DejaVuSans-111"/>
       <path d="M 41.109375 46.296875 
Q 39.59375 47.171875 37.8125 47.578125 
Q 36.03125 48 33.890625 48 
Q 26.265625 48 22.1875 43.046875 
Q 18.109375 38.09375 18.109375 28.8125 
L 18.109375 0 
L 9.078125 0 
L 9.078125 54.6875 
L 18.109375 54.6875 
L 18.109375 46.1875 
Q 20.953125 51.171875 25.484375 53.578125 
Q 30.03125 56 36.53125 56 
Q 37.453125 56 38.578125 55.875 
Q 39.703125 55.765625 41.0625 55.515625 
z
" id="DejaVuSans-114"/>
       <path d="M 56.203125 29.59375 
L 56.203125 25.203125 
L 14.890625 25.203125 
Q 15.484375 15.921875 20.484375 11.0625 
Q 25.484375 6.203125 34.421875 6.203125 
Q 39.59375 6.203125 44.453125 7.46875 
Q 49.3125 8.734375 54.109375 11.28125 
L 54.109375 2.78125 
Q 49.265625 0.734375 44.1875 -0.34375 
Q 39.109375 -1.421875 33.890625 -1.421875 
Q 20.796875 -1.421875 13.15625 6.1875 
Q 5.515625 13.8125 5.515625 26.8125 
Q 5.515625 40.234375 12.765625 48.109375 
Q 20.015625 56 32.328125 56 
Q 43.359375 56 49.78125 48.890625 
Q 56.203125 41.796875 56.203125 29.59375 
z
M 47.21875 32.234375 
Q 47.125 39.59375 43.09375 43.984375 
Q 39.0625 48.390625 32.421875 48.390625 
Q 24.90625 48.390625 20.390625 44.140625 
Q 15.875 39.890625 15.1875 32.171875 
z
" id="DejaVuSans-101"/>
       <path d="M 18.109375 8.203125 
L 18.109375 -20.796875 
L 9.078125 -20.796875 
L 9.078125 54.6875 
L 18.109375 54.6875 
L 18.109375 46.390625 
Q 20.953125 51.265625 25.265625 53.625 
Q 29.59375 56 35.59375 56 
Q 45.5625 56 51.78125 48.09375 
Q 58.015625 40.1875 58.015625 27.296875 
Q 58.015625 14.40625 51.78125 6.484375 
Q 45.5625 -1.421875 35.59375 -1.421875 
Q 29.59375 -1.421875 25.265625 0.953125 
Q 20.953125 3.328125 18.109375 8.203125 
z
M 48.6875 27.296875 
Q 48.6875 37.203125 44.609375 42.84375 
Q 40.53125 48.484375 33.40625 48.484375 
Q 26.265625 48.484375 22.1875 42.84375 
Q 18.109375 37.203125 18.109375 27.296875 
Q 18.109375 17.390625 22.1875 11.75 
Q 26.265625 6.109375 33.40625 6.109375 
Q 40.53125 6.109375 44.609375 11.75 
Q 48.6875 17.390625 48.6875 27.296875 
z
" id="DejaVuSans-112"/>
       <path d="M 34.28125 27.484375 
Q 23.390625 27.484375 19.1875 25 
Q 14.984375 22.515625 14.984375 16.5 
Q 14.984375 11.71875 18.140625 8.90625 
Q 21.296875 6.109375 26.703125 6.109375 
Q 34.1875 6.109375 38.703125 11.40625 
Q 43.21875 16.703125 43.21875 25.484375 
L 43.21875 27.484375 
z
M 52.203125 31.203125 
L 52.203125 0 
L 43.21875 0 
L 43.21875 8.296875 
Q 40.140625 3.328125 35.546875 0.953125 
Q 30.953125 -1.421875 24.3125 -1.421875 
Q 15.921875 -1.421875 10.953125 3.296875 
Q 6 8.015625 6 15.921875 
Q 6 25.140625 12.171875 29.828125 
Q 18.359375 34.515625 30.609375 34.515625 
L 43.21875 34.515625 
L 43.21875 35.40625 
Q 43.21875 41.609375 39.140625 45 
Q 35.0625 48.390625 27.6875 48.390625 
Q 23 48.390625 18.546875 47.265625 
Q 14.109375 46.140625 10.015625 43.890625 
L 10.015625 52.203125 
Q 14.9375 54.109375 19.578125 55.046875 
Q 24.21875 56 28.609375 56 
Q 40.484375 56 46.34375 49.84375 
Q 52.203125 43.703125 52.203125 31.203125 
z
" id="DejaVuSans-97"/>
       <path d="M 52 44.1875 
Q 55.375 50.25 60.0625 53.125 
Q 64.75 56 71.09375 56 
Q 79.640625 56 84.28125 50.015625 
Q 88.921875 44.046875 88.921875 33.015625 
L 88.921875 0 
L 79.890625 0 
L 79.890625 32.71875 
Q 79.890625 40.578125 77.09375 44.375 
Q 74.3125 48.1875 68.609375 48.1875 
Q 61.625 48.1875 57.5625 43.546875 
Q 53.515625 38.921875 53.515625 30.90625 
L 53.515625 0 
L 44.484375 0 
L 44.484375 32.71875 
Q 44.484375 40.625 41.703125 44.40625 
Q 38.921875 48.1875 33.109375 48.1875 
Q 26.21875 48.1875 22.15625 43.53125 
Q 18.109375 38.875 18.109375 30.90625 
L 18.109375 0 
L 9.078125 0 
L 9.078125 54.6875 
L 18.109375 54.6875 
L 18.109375 46.1875 
Q 21.1875 51.21875 25.484375 53.609375 
Q 29.78125 56 35.6875 56 
Q 41.65625 56 45.828125 52.96875 
Q 50 49.953125 52 44.1875 
z
" id="DejaVuSans-109"/>
       <path d="M 9.421875 75.984375 
L 18.40625 75.984375 
L 18.40625 0 
L 9.421875 0 
z
" id="DejaVuSans-108"/>
       <path d="M 25.390625 72.90625 
L 33.6875 72.90625 
L 8.296875 -9.28125 
L 0 -9.28125 
z
" id="DejaVuSans-47"/>
       <path d="M 54.890625 33.015625 
L 54.890625 0 
L 45.90625 0 
L 45.90625 32.71875 
Q 45.90625 40.484375 42.875 44.328125 
Q 39.84375 48.1875 33.796875 48.1875 
Q 26.515625 48.1875 22.3125 43.546875 
Q 18.109375 38.921875 18.109375 30.90625 
L 18.109375 0 
L 9.078125 0 
L 9.078125 54.6875 
L 18.109375 54.6875 
L 18.109375 46.1875 
Q 21.34375 51.125 25.703125 53.5625 
Q 30.078125 56 35.796875 56 
Q 45.21875 56 50.046875 50.171875 
Q 54.890625 44.34375 54.890625 33.015625 
z
" id="DejaVuSans-110"/>
       <path d="M 18.3125 70.21875 
L 18.3125 54.6875 
L 36.8125 54.6875 
L 36.8125 47.703125 
L 18.3125 47.703125 
L 18.3125 18.015625 
Q 18.3125 11.328125 20.140625 9.421875 
Q 21.96875 7.515625 27.59375 7.515625 
L 36.8125 7.515625 
L 36.8125 0 
L 27.59375 0 
Q 17.1875 0 13.234375 3.875 
Q 9.28125 7.765625 9.28125 18.015625 
L 9.28125 47.703125 
L 2.6875 47.703125 
L 2.6875 54.6875 
L 9.28125 54.6875 
L 9.28125 70.21875 
z
" id="DejaVuSans-116"/>
       <path d="M 45.40625 27.984375 
Q 45.40625 37.75 41.375 43.109375 
Q 37.359375 48.484375 30.078125 48.484375 
Q 22.859375 48.484375 18.828125 43.109375 
Q 14.796875 37.75 14.796875 27.984375 
Q 14.796875 18.265625 18.828125 12.890625 
Q 22.859375 7.515625 30.078125 7.515625 
Q 37.359375 7.515625 41.375 12.890625 
Q 45.40625 18.265625 45.40625 27.984375 
z
M 54.390625 6.78125 
Q 54.390625 -7.171875 48.1875 -13.984375 
Q 42 -20.796875 29.203125 -20.796875 
Q 24.46875 -20.796875 20.265625 -20.09375 
Q 16.0625 -19.390625 12.109375 -17.921875 
L 12.109375 -9.1875 
Q 16.0625 -11.328125 19.921875 -12.34375 
Q 23.78125 -13.375 27.78125 -13.375 
Q 36.625 -13.375 41.015625 -8.765625 
Q 45.40625 -4.15625 45.40625 5.171875 
L 45.40625 9.625 
Q 42.625 4.78125 38.28125 2.390625 
Q 33.9375 0 27.875 0 
Q 17.828125 0 11.671875 7.65625 
Q 5.515625 15.328125 5.515625 27.984375 
Q 5.515625 40.671875 11.671875 48.328125 
Q 17.828125 56 27.875 56 
Q 33.9375 56 38.28125 53.609375 
Q 42.625 51.21875 45.40625 46.390625 
L 45.40625 54.6875 
L 54.390625 54.6875 
z
" id="DejaVuSans-103"/>
       <path d="M 32.171875 -5.078125 
Q 28.375 -14.84375 24.75 -17.8125 
Q 21.140625 -20.796875 15.09375 -20.796875 
L 7.90625 -20.796875 
L 7.90625 -13.28125 
L 13.1875 -13.28125 
Q 16.890625 -13.28125 18.9375 -11.515625 
Q 21 -9.765625 23.484375 -3.21875 
L 25.09375 0.875 
L 2.984375 54.6875 
L 12.5 54.6875 
L 29.59375 11.921875 
L 46.6875 54.6875 
L 56.203125 54.6875 
z
" id="DejaVuSans-121"/>
      </defs>
      <use xlink:href="#DejaVuSans-90"/>
      <use x="68.505859" xlink:href="#DejaVuSans-32"/>
      <use x="100.292969" xlink:href="#DejaVuSans-115"/>
      <use x="152.392578" xlink:href="#DejaVuSans-99"/>
      <use x="207.373047" xlink:href="#DejaVuSans-111"/>
      <use x="268.554688" xlink:href="#DejaVuSans-114"/>
      <use x="307.417969" xlink:href="#DejaVuSans-101"/>
      <use x="368.941406" xlink:href="#DejaVuSans-32"/>
      <use x="400.728516" xlink:href="#DejaVuSans-112"/>
      <use x="464.205078" xlink:href="#DejaVuSans-101"/>
      <use x="525.728516" xlink:href="#DejaVuSans-114"/>
      <use x="566.841797" xlink:href="#DejaVuSans-32"/>
      <use x="598.628906" xlink:href="#DejaVuSans-115"/>
      <use x="650.728516" xlink:href="#DejaVuSans-97"/>
      <use x="712.007812" xlink:href="#DejaVuSans-109"/>
      <use x="809.419922" xlink:href="#DejaVuSans-112"/>
      <use x="872.896484" xlink:href="#DejaVuSans-108"/>
      <use x="900.679688" xlink:href="#DejaVuSans-101"/>
      <use x="962.203125" xlink:href="#DejaVuSans-47"/>
      <use x="995.894531" xlink:href="#DejaVuSans-111"/>
      <use x="1057.076172" xlink:href="#DejaVuSans-110"/>
      <use x="1120.455078" xlink:href="#DejaVuSans-116"/>
      <use x="1159.664062" xlink:href="#DejaVuSans-111"/>
      <use x="1220.845703" xlink:href="#DejaVuSans-108"/>
      <use x="1248.628906" xlink:href="#DejaVuSans-111"/>
      <use x="1309.810547" xlink:href="#DejaVuSans-103"/>
      <use x="1373.287109" xlink:href="#DejaVuSans-121"/>
     </g>
    </g>
   </g>
   <g id="matplotlib.axis_2">
    <g id="ytick_1">
     <g id="text_11">
      <!-- Pvalb -->
      <g transform="translate(17.471875 44.311719)scale(0.1 -0.1)">
       <defs>
        <path d="M 19.671875 64.796875 
L 19.671875 37.40625 
L 32.078125 37.40625 
Q 38.96875 37.40625 42.71875 40.96875 
Q 46.484375 44.53125 46.484375 51.125 
Q 46.484375 57.671875 42.71875 61.234375 
Q 38.96875 64.796875 32.078125 64.796875 
z
M 9.8125 72.90625 
L 32.078125 72.90625 
Q 44.34375 72.90625 50.609375 67.359375 
Q 56.890625 61.8125 56.890625 51.125 
Q 56.890625 40.328125 50.609375 34.8125 
Q 44.34375 29.296875 32.078125 29.296875 
L 19.671875 29.296875 
L 19.671875 0 
L 9.8125 0 
z
" id="DejaVuSans-80"/>
        <path d="M 2.984375 54.6875 
L 12.5 54.6875 
L 29.59375 8.796875 
L 46.6875 54.6875 
L 56.203125 54.6875 
L 35.6875 0 
L 23.484375 0 
z
" id="DejaVuSans-118"/>
        <path d="M 48.6875 27.296875 
Q 48.6875 37.203125 44.609375 42.84375 
Q 40.53125 48.484375 33.40625 48.484375 
Q 26.265625 48.484375 22.1875 42.84375 
Q 18.109375 37.203125 18.109375 27.296875 
Q 18.109375 17.390625 22.1875 11.75 
Q 26.265625 6.109375 33.40625 6.109375 
Q 40.53125 6.109375 44.609375 11.75 
Q 48.6875 17.390625 48.6875 27.296875 
z
M 18.109375 46.390625 
Q 20.953125 51.265625 25.265625 53.625 
Q 29.59375 56 35.59375 56 
Q 45.5625 56 51.78125 48.09375 
Q 58.015625 40.1875 58.015625 27.296875 
Q 58.015625 14.40625 51.78125 6.484375 
Q 45.5625 -1.421875 35.59375 -1.421875 
Q 29.59375 -1.421875 25.265625 0.953125 
Q 20.953125 3.328125 18.109375 8.203125 
L 18.109375 0 
L 9.078125 0 
L 9.078125 75.984375 
L 18.109375 75.984375 
z
" id="DejaVuSans-98"/>
       </defs>
       <use xlink:href="#DejaVuSans-80"/>
       <use x="60.302734" xlink:href="#DejaVuSans-118"/>
       <use x="119.482422" xlink:href="#DejaVuSans-97"/>
       <use x="180.761719" xlink:href="#DejaVuSans-108"/>
       <use x="208.544922" xlink:href="#DejaVuSans-98"/>
      </g>
     </g>
    </g>
    <g id="ytick_2">
     <g id="text_12">
      <!-- L6 CT -->
      <g transform="translate(16.471875 71.736719)scale(0.1 -0.1)">
       <defs>
        <path d="M 9.8125 72.90625 
L 19.671875 72.90625 
L 19.671875 8.296875 
L 55.171875 8.296875 
L 55.171875 0 
L 9.8125 0 
z
" id="DejaVuSans-76"/>
        <path d="M 64.40625 67.28125 
L 64.40625 56.890625 
Q 59.421875 61.53125 53.78125 63.8125 
Q 48.140625 66.109375 41.796875 66.109375 
Q 29.296875 66.109375 22.65625 58.46875 
Q 16.015625 50.828125 16.015625 36.375 
Q 16.015625 21.96875 22.65625 14.328125 
Q 29.296875 6.6875 41.796875 6.6875 
Q 48.140625 6.6875 53.78125 8.984375 
Q 59.421875 11.28125 64.40625 15.921875 
L 64.40625 5.609375 
Q 59.234375 2.09375 53.4375 0.328125 
Q 47.65625 -1.421875 41.21875 -1.421875 
Q 24.65625 -1.421875 15.125 8.703125 
Q 5.609375 18.84375 5.609375 36.375 
Q 5.609375 53.953125 15.125 64.078125 
Q 24.65625 74.21875 41.21875 74.21875 
Q 47.75 74.21875 53.53125 72.484375 
Q 59.328125 70.75 64.40625 67.28125 
z
" id="DejaVuSans-67"/>
        <path d="M -0.296875 72.90625 
L 61.375 72.90625 
L 61.375 64.59375 
L 35.5 64.59375 
L 35.5 0 
L 25.59375 0 
L 25.59375 64.59375 
L -0.296875 64.59375 
z
" id="DejaVuSans-84"/>
       </defs>
       <use xlink:href="#DejaVuSans-76"/>
       <use x="55.712891" xlink:href="#DejaVuSans-54"/>
       <use x="119.335938" xlink:href="#DejaVuSans-32"/>
       <use x="151.123047" xlink:href="#DejaVuSans-67"/>
       <use x="220.947266" xlink:href="#DejaVuSans-84"/>
      </g>
     </g>
    </g>
    <g id="ytick_3">
     <g id="text_13">
      <!-- Sst -->
      <g transform="translate(29.196875 99.161719)scale(0.1 -0.1)">
       <defs>
        <path d="M 53.515625 70.515625 
L 53.515625 60.890625 
Q 47.90625 63.578125 42.921875 64.890625 
Q 37.9375 66.21875 33.296875 66.21875 
Q 25.25 66.21875 20.875 63.09375 
Q 16.5 59.96875 16.5 54.203125 
Q 16.5 49.359375 19.40625 46.890625 
Q 22.3125 44.4375 30.421875 42.921875 
L 36.375 41.703125 
Q 47.40625 39.59375 52.65625 34.296875 
Q 57.90625 29 57.90625 20.125 
Q 57.90625 9.515625 50.796875 4.046875 
Q 43.703125 -1.421875 29.984375 -1.421875 
Q 24.8125 -1.421875 18.96875 -0.25 
Q 13.140625 0.921875 6.890625 3.21875 
L 6.890625 13.375 
Q 12.890625 10.015625 18.65625 8.296875 
Q 24.421875 6.59375 29.984375 6.59375 
Q 38.421875 6.59375 43.015625 9.90625 
Q 47.609375 13.234375 47.609375 19.390625 
Q 47.609375 24.75 44.3125 27.78125 
Q 41.015625 30.8125 33.5 32.328125 
L 27.484375 33.5 
Q 16.453125 35.6875 11.515625 40.375 
Q 6.59375 45.0625 6.59375 53.421875 
Q 6.59375 63.09375 13.40625 68.65625 
Q 20.21875 74.21875 32.171875 74.21875 
Q 37.3125 74.21875 42.625 73.28125 
Q 47.953125 72.359375 53.515625 70.515625 
z
" id="DejaVuSans-83"/>
       </defs>
       <use xlink:href="#DejaVuSans-83"/>
       <use x="63.476562" xlink:href="#DejaVuSans-115"/>
       <use x="115.576172" xlink:href="#DejaVuSans-116"/>
      </g>
     </g>
    </g>
    <g id="ytick_4">
     <g id="text_14">
      <!-- Lamp5 -->
      <g transform="translate(10.523438 126.586719)scale(0.1 -0.1)">
       <defs>
        <path d="M 10.796875 72.90625 
L 49.515625 72.90625 
L 49.515625 64.59375 
L 19.828125 64.59375 
L 19.828125 46.734375 
Q 21.96875 47.46875 24.109375 47.828125 
Q 26.265625 48.1875 28.421875 48.1875 
Q 40.625 48.1875 47.75 41.5 
Q 54.890625 34.8125 54.890625 23.390625 
Q 54.890625 11.625 47.5625 5.09375 
Q 40.234375 -1.421875 26.90625 -1.421875 
Q 22.3125 -1.421875 17.546875 -0.640625 
Q 12.796875 0.140625 7.71875 1.703125 
L 7.71875 11.625 
Q 12.109375 9.234375 16.796875 8.0625 
Q 21.484375 6.890625 26.703125 6.890625 
Q 35.15625 6.890625 40.078125 11.328125 
Q 45.015625 15.765625 45.015625 23.390625 
Q 45.015625 31 40.078125 35.4375 
Q 35.15625 39.890625 26.703125 39.890625 
Q 22.75 39.890625 18.8125 39.015625 
Q 14.890625 38.140625 10.796875 36.28125 
z
" id="DejaVuSans-53"/>
       </defs>
       <use xlink:href="#DejaVuSans-76"/>
       <use x="55.712891" xlink:href="#DejaVuSans-97"/>
       <use x="116.992188" xlink:href="#DejaVuSans-109"/>
       <use x="214.404297" xlink:href="#DejaVuSans-112"/>
       <use x="277.880859" xlink:href="#DejaVuSans-53"/>
      </g>
     </g>
    </g>
    <g id="ytick_5">
     <g id="text_15">
      <!-- VLMC -->
      <g transform="translate(16.651563 154.011719)scale(0.1 -0.1)">
       <defs>
        <path d="M 28.609375 0 
L 0.78125 72.90625 
L 11.078125 72.90625 
L 34.1875 11.53125 
L 57.328125 72.90625 
L 67.578125 72.90625 
L 39.796875 0 
z
" id="DejaVuSans-86"/>
        <path d="M 9.8125 72.90625 
L 24.515625 72.90625 
L 43.109375 23.296875 
L 61.8125 72.90625 
L 76.515625 72.90625 
L 76.515625 0 
L 66.890625 0 
L 66.890625 64.015625 
L 48.09375 14.015625 
L 38.1875 14.015625 
L 19.390625 64.015625 
L 19.390625 0 
L 9.8125 0 
z
" id="DejaVuSans-77"/>
       </defs>
       <use xlink:href="#DejaVuSans-86"/>
       <use x="68.408203" xlink:href="#DejaVuSans-76"/>
       <use x="124.121094" xlink:href="#DejaVuSans-77"/>
       <use x="210.400391" xlink:href="#DejaVuSans-67"/>
      </g>
     </g>
    </g>
    <g id="ytick_6">
     <g id="text_16">
      <!-- SMC -->
      <g transform="translate(22.715625 181.436719)scale(0.1 -0.1)">
       <use xlink:href="#DejaVuSans-83"/>
       <use x="63.476562" xlink:href="#DejaVuSans-77"/>
       <use x="149.755859" xlink:href="#DejaVuSans-67"/>
      </g>
     </g>
    </g>
    <g id="ytick_7">
     <g id="text_17">
      <!-- L2/3 IT -->
      <g transform="translate(10.773438 208.861719)scale(0.1 -0.1)">
       <defs>
        <path d="M 40.578125 39.3125 
Q 47.65625 37.796875 51.625 33 
Q 55.609375 28.21875 55.609375 21.1875 
Q 55.609375 10.40625 48.1875 4.484375 
Q 40.765625 -1.421875 27.09375 -1.421875 
Q 22.515625 -1.421875 17.65625 -0.515625 
Q 12.796875 0.390625 7.625 2.203125 
L 7.625 11.71875 
Q 11.71875 9.328125 16.59375 8.109375 
Q 21.484375 6.890625 26.8125 6.890625 
Q 36.078125 6.890625 40.9375 10.546875 
Q 45.796875 14.203125 45.796875 21.1875 
Q 45.796875 27.640625 41.28125 31.265625 
Q 36.765625 34.90625 28.71875 34.90625 
L 20.21875 34.90625 
L 20.21875 43.015625 
L 29.109375 43.015625 
Q 36.375 43.015625 40.234375 45.921875 
Q 44.09375 48.828125 44.09375 54.296875 
Q 44.09375 59.90625 40.109375 62.90625 
Q 36.140625 65.921875 28.71875 65.921875 
Q 24.65625 65.921875 20.015625 65.03125 
Q 15.375 64.15625 9.8125 62.3125 
L 9.8125 71.09375 
Q 15.4375 72.65625 20.34375 73.4375 
Q 25.25 74.21875 29.59375 74.21875 
Q 40.828125 74.21875 47.359375 69.109375 
Q 53.90625 64.015625 53.90625 55.328125 
Q 53.90625 49.265625 50.4375 45.09375 
Q 46.96875 40.921875 40.578125 39.3125 
z
" id="DejaVuSans-51"/>
        <path d="M 9.8125 72.90625 
L 19.671875 72.90625 
L 19.671875 0 
L 9.8125 0 
z
" id="DejaVuSans-73"/>
       </defs>
       <use xlink:href="#DejaVuSans-76"/>
       <use x="55.712891" xlink:href="#DejaVuSans-50"/>
       <use x="119.335938" xlink:href="#DejaVuSans-47"/>
       <use x="153.027344" xlink:href="#DejaVuSans-51"/>
       <use x="216.650391" xlink:href="#DejaVuSans-32"/>
       <use x="248.4375" xlink:href="#DejaVuSans-73"/>
       <use x="277.929688" xlink:href="#DejaVuSans-84"/>
      </g>
     </g>
    </g>
    <g id="ytick_8">
     <g id="text_18">
      <!-- L5 ET -->
      <g transform="translate(17.135938 236.286719)scale(0.1 -0.1)">
       <defs>
        <path d="M 9.8125 72.90625 
L 55.90625 72.90625 
L 55.90625 64.59375 
L 19.671875 64.59375 
L 19.671875 43.015625 
L 54.390625 43.015625 
L 54.390625 34.71875 
L 19.671875 34.71875 
L 19.671875 8.296875 
L 56.78125 8.296875 
L 56.78125 0 
L 9.8125 0 
z
" id="DejaVuSans-69"/>
       </defs>
       <use xlink:href="#DejaVuSans-76"/>
       <use x="55.712891" xlink:href="#DejaVuSans-53"/>
       <use x="119.335938" xlink:href="#DejaVuSans-32"/>
       <use x="151.123047" xlink:href="#DejaVuSans-69"/>
       <use x="214.306641" xlink:href="#DejaVuSans-84"/>
      </g>
     </g>
    </g>
   </g>
   <g id="line2d_1">
    <path clip-path="url(#p1a48cddd2c)" d="M 188.734784 246.2 
L 188.734784 26.8 
" style="fill:none;stroke:#808080;stroke-dasharray:5.55,2.4;stroke-dashoffset:0;stroke-width:1.5;"/>
   </g>
   <g id="patch_12">
    <path d="M 51.675 246.2 
L 51.675 26.8 
" style="fill:none;stroke:#000000;stroke-linecap:square;stroke-linejoin:miter;stroke-width:0.8;"/>
   </g>
   <g id="PathCollection_7">
    <defs>
     <path d="M 0 2.5 
C 0.663008 2.5 1.29895 2.236584 1.767767 1.767767 
C 2.236584 1.29895 2.5 0.663008 2.5 -0 
C 2.5 -0.663008 2.236584 -1.29895 1.767767 -1.767767 
C 1.29895 -2.236584 0.663008 -2.5 0 -2.5 
C -0.663008 -2.5 -1.29895 -2.236584 -1.767767 -1.767767 
C -2.236584 -1.29895 -2.5 -0.663008 -2.5 0 
C -2.5 0.663008 -2.236584 1.29895 -1.767767 1.767767 
C -1.29895 2.236584 -0.663008 2.5 0 2.5 
z
" id="C0_0_e2f6b6f153"/>
    </defs>
    <g clip-path="url(#p1a48cddd2c)">
     <use style="fill:#2b7bba;" x="92.39956" xlink:href="#C0_0_e2f6b6f153" y="41.528854"/>
    </g>
    <g clip-path="url(#p1a48cddd2c)">
     <use style="fill:#89bedc;" x="63.949318" xlink:href="#C0_0_e2f6b6f153" y="39.644061"/>
    </g>
    <g clip-path="url(#p1a48cddd2c)">
     <use style="fill:#89bedc;" x="75.573219" xlink:href="#C0_0_e2f6b6f153" y="38.912309"/>
    </g>
    <g clip-path="url(#p1a48cddd2c)">
     <use style="fill:#bad6eb;" x="97.644685" xlink:href="#C0_0_e2f6b6f153" y="41.619827"/>
    </g>
    <g clip-path="url(#p1a48cddd2c)">
     <use style="fill:#539ecd;" x="116.307409" xlink:href="#C0_0_e2f6b6f153" y="40.170396"/>
    </g>
    <g clip-path="url(#p1a48cddd2c)">
     <use style="fill:#bad6eb;" x="92.84311" xlink:href="#C0_0_e2f6b6f153" y="42.589018"/>
    </g>
    <g clip-path="url(#p1a48cddd2c)">
     <use style="fill:#dbe9f6;" x="110.072387" xlink:href="#C0_0_e2f6b6f153" y="42.073093"/>
    </g>
    <g clip-path="url(#p1a48cddd2c)">
     <use style="fill:#539ecd;" x="88.934199" xlink:href="#C0_0_e2f6b6f153" y="37.962561"/>
    </g>
    <g clip-path="url(#p1a48cddd2c)">
     <use style="fill:#0b559f;" x="137.522135" xlink:href="#C0_0_e2f6b6f153" y="40.745602"/>
    </g>
    <g clip-path="url(#p1a48cddd2c)">
     <use style="fill:#dbe9f6;" x="84.491221" xlink:href="#C0_0_e2f6b6f153" y="40.775619"/>
    </g>
    <g clip-path="url(#p1a48cddd2c)">
     <use style="fill:#2b7bba;" x="94.499497" xlink:href="#C0_0_e2f6b6f153" y="41.805283"/>
    </g>
    <g clip-path="url(#p1a48cddd2c)">
     <use style="fill:#0b559f;" x="127.910695" xlink:href="#C0_0_e2f6b6f153" y="39.282926"/>
    </g>
   </g>
   <g id="PathCollection_8">
    <defs>
     <path d="M 0 2.5 
C 0.663008 2.5 1.29895 2.236584 1.767767 1.767767 
C 2.236584 1.29895 2.5 0.663008 2.5 -0 
C 2.5 -0.663008 2.236584 -1.29895 1.767767 -1.767767 
C 1.29895 -2.236584 0.663008 -2.5 0 -2.5 
C -0.663008 -2.5 -1.29895 -2.236584 -1.767767 -1.767767 
C -2.236584 -1.29895 -2.5 -0.663008 -2.5 0 
C -2.5 0.663008 -2.236584 1.29895 -1.767767 1.767767 
C -1.29895 2.236584 -0.663008 2.5 0 2.5 
z
" id="C1_0_aad1a2a6fd"/>
    </defs>
    <g clip-path="url(#p1a48cddd2c)">
     <use style="fill:#bad6eb;" x="174.123661" xlink:href="#C1_0_aad1a2a6fd" y="67.265732"/>
    </g>
    <g clip-path="url(#p1a48cddd2c)">
     <use style="fill:#89bedc;" x="174.549344" xlink:href="#C1_0_aad1a2a6fd" y="65.840216"/>
    </g>
    <g clip-path="url(#p1a48cddd2c)">
     <use style="fill:#dbe9f6;" x="169.36945" xlink:href="#C1_0_aad1a2a6fd" y="66.559773"/>
    </g>
    <g clip-path="url(#p1a48cddd2c)">
     <use style="fill:#dbe9f6;" x="183.346931" xlink:href="#C1_0_aad1a2a6fd" y="68.602143"/>
    </g>
    <g clip-path="url(#p1a48cddd2c)">
     <use style="fill:#89bedc;" x="157.400642" xlink:href="#C1_0_aad1a2a6fd" y="69.805486"/>
    </g>
    <g clip-path="url(#p1a48cddd2c)">
     <use style="fill:#2b7bba;" x="188.613658" xlink:href="#C1_0_aad1a2a6fd" y="67.643387"/>
    </g>
    <g clip-path="url(#p1a48cddd2c)">
     <use style="fill:#539ecd;" x="187.430473" xlink:href="#C1_0_aad1a2a6fd" y="65.666293"/>
    </g>
    <g clip-path="url(#p1a48cddd2c)">
     <use style="fill:#bad6eb;" x="233.220814" xlink:href="#C1_0_aad1a2a6fd" y="70.077198"/>
    </g>
    <g clip-path="url(#p1a48cddd2c)">
     <use style="fill:#0b559f;" x="181.502562" xlink:href="#C1_0_aad1a2a6fd" y="66.842624"/>
    </g>
    <g clip-path="url(#p1a48cddd2c)">
     <use style="fill:#0b559f;" x="158.896636" xlink:href="#C1_0_aad1a2a6fd" y="65.725842"/>
    </g>
    <g clip-path="url(#p1a48cddd2c)">
     <use style="fill:#2b7bba;" x="179.569163" xlink:href="#C1_0_aad1a2a6fd" y="65.375991"/>
    </g>
    <g clip-path="url(#p1a48cddd2c)">
     <use style="fill:#539ecd;" x="224.392798" xlink:href="#C1_0_aad1a2a6fd" y="69.948337"/>
    </g>
   </g>
   <g id="PathCollection_9">
    <defs>
     <path d="M 0 2.5 
C 0.663008 2.5 1.29895 2.236584 1.767767 1.767767 
C 2.236584 1.29895 2.5 0.663008 2.5 -0 
C 2.5 -0.663008 2.236584 -1.29895 1.767767 -1.767767 
C 1.29895 -2.236584 0.663008 -2.5 0 -2.5 
C -0.663008 -2.5 -1.29895 -2.236584 -1.767767 -1.767767 
C -2.236584 -1.29895 -2.5 -0.663008 -2.5 0 
C -2.5 0.663008 -2.236584 1.29895 -1.767767 1.767767 
C -1.29895 2.236584 -0.663008 2.5 0 2.5 
z
" id="C2_0_adf79b7850"/>
    </defs>
    <g clip-path="url(#p1a48cddd2c)">
     <use style="fill:#539ecd;" x="192.808302" xlink:href="#C2_0_adf79b7850" y="92.866282"/>
    </g>
    <g clip-path="url(#p1a48cddd2c)">
     <use style="fill:#0b559f;" x="180.367846" xlink:href="#C2_0_adf79b7850" y="94.871314"/>
    </g>
    <g clip-path="url(#p1a48cddd2c)">
     <use style="fill:#bad6eb;" x="196.992839" xlink:href="#C2_0_adf79b7850" y="92.640109"/>
    </g>
   </g>
   <g id="PathCollection_10">
    <defs>
     <path d="M 0 2.5 
C 0.663008 2.5 1.29895 2.236584 1.767767 1.767767 
C 2.236584 1.29895 2.5 0.663008 2.5 -0 
C 2.5 -0.663008 2.236584 -1.29895 1.767767 -1.767767 
C 1.29895 -2.236584 0.663008 -2.5 0 -2.5 
C -0.663008 -2.5 -1.29895 -2.236584 -1.767767 -1.767767 
C -2.236584 -1.29895 -2.5 -0.663008 -2.5 0 
C -2.5 0.663008 -2.236584 1.29895 -1.767767 1.767767 
C -1.29895 2.236584 -0.663008 2.5 0 2.5 
z
" id="C3_0_da518d8ff8"/>
    </defs>
    <g clip-path="url(#p1a48cddd2c)">
     <use style="fill:#539ecd;" x="207.164297" xlink:href="#C3_0_da518d8ff8" y="121.174152"/>
    </g>
    <g clip-path="url(#p1a48cddd2c)">
     <use style="fill:#89bedc;" x="168.510126" xlink:href="#C3_0_da518d8ff8" y="121.346642"/>
    </g>
    <g clip-path="url(#p1a48cddd2c)">
     <use style="fill:#bad6eb;" x="192.37518" xlink:href="#C3_0_da518d8ff8" y="124.63068"/>
    </g>
    <g clip-path="url(#p1a48cddd2c)">
     <use style="fill:#2b7bba;" x="186.391737" xlink:href="#C3_0_da518d8ff8" y="122.840242"/>
    </g>
    <g clip-path="url(#p1a48cddd2c)">
     <use style="fill:#2b7bba;" x="194.381936" xlink:href="#C3_0_da518d8ff8" y="121.133626"/>
    </g>
    <g clip-path="url(#p1a48cddd2c)">
     <use style="fill:#bad6eb;" x="201.316607" xlink:href="#C3_0_da518d8ff8" y="125.013998"/>
    </g>
    <g clip-path="url(#p1a48cddd2c)">
     <use style="fill:#dbe9f6;" x="185.794405" xlink:href="#C3_0_da518d8ff8" y="123.335144"/>
    </g>
    <g clip-path="url(#p1a48cddd2c)">
     <use style="fill:#0b559f;" x="199.255452" xlink:href="#C3_0_da518d8ff8" y="122.668792"/>
    </g>
    <g clip-path="url(#p1a48cddd2c)">
     <use style="fill:#539ecd;" x="200.483218" xlink:href="#C3_0_da518d8ff8" y="121.705496"/>
    </g>
   </g>
   <g id="PathCollection_11">
    <defs>
     <path d="M 0 2.5 
C 0.663008 2.5 1.29895 2.236584 1.767767 1.767767 
C 2.236584 1.29895 2.5 0.663008 2.5 -0 
C 2.5 -0.663008 2.236584 -1.29895 1.767767 -1.767767 
C 1.29895 -2.236584 0.663008 -2.5 0 -2.5 
C -0.663008 -2.5 -1.29895 -2.236584 -1.767767 -1.767767 
C -2.236584 -1.29895 -2.5 -0.663008 -2.5 0 
C -2.5 0.663008 -2.236584 1.29895 -1.767767 1.767767 
C -1.29895 2.236584 -0.663008 2.5 0 2.5 
z
" id="C4_0_d84bc27b6b"/>
    </defs>
    <g clip-path="url(#p1a48cddd2c)">
     <use style="fill:#89bedc;" x="200.907288" xlink:href="#C4_0_d84bc27b6b" y="149.799781"/>
    </g>
    <g clip-path="url(#p1a48cddd2c)">
     <use style="fill:#bad6eb;" x="221.380792" xlink:href="#C4_0_d84bc27b6b" y="152.909426"/>
    </g>
    <g clip-path="url(#p1a48cddd2c)">
     <use style="fill:#539ecd;" x="223.790131" xlink:href="#C4_0_d84bc27b6b" y="149.953188"/>
    </g>
    <g clip-path="url(#p1a48cddd2c)">
     <use style="fill:#dbe9f6;" x="194.633586" xlink:href="#C4_0_d84bc27b6b" y="151.300357"/>
    </g>
    <g clip-path="url(#p1a48cddd2c)">
     <use style="fill:#2b7bba;" x="208.619581" xlink:href="#C4_0_d84bc27b6b" y="150.102715"/>
    </g>
    <g clip-path="url(#p1a48cddd2c)">
     <use style="fill:#0b559f;" x="161.119341" xlink:href="#C4_0_d84bc27b6b" y="150.729233"/>
    </g>
    <g clip-path="url(#p1a48cddd2c)">
     <use style="fill:#0b559f;" x="184.052277" xlink:href="#C4_0_d84bc27b6b" y="148.117801"/>
    </g>
    <g clip-path="url(#p1a48cddd2c)">
     <use style="fill:#bad6eb;" x="227.53836" xlink:href="#C4_0_d84bc27b6b" y="152.828704"/>
    </g>
    <g clip-path="url(#p1a48cddd2c)">
     <use style="fill:#89bedc;" x="204.316043" xlink:href="#C4_0_d84bc27b6b" y="149.960014"/>
    </g>
    <g clip-path="url(#p1a48cddd2c)">
     <use style="fill:#2b7bba;" x="185.665176" xlink:href="#C4_0_d84bc27b6b" y="149.259034"/>
    </g>
    <g clip-path="url(#p1a48cddd2c)">
     <use style="fill:#dbe9f6;" x="188.671068" xlink:href="#C4_0_d84bc27b6b" y="151.518564"/>
    </g>
    <g clip-path="url(#p1a48cddd2c)">
     <use style="fill:#539ecd;" x="198.979056" xlink:href="#C4_0_d84bc27b6b" y="148.541724"/>
    </g>
   </g>
   <g id="PathCollection_12">
    <defs>
     <path d="M 0 2.5 
C 0.663008 2.5 1.29895 2.236584 1.767767 1.767767 
C 2.236584 1.29895 2.5 0.663008 2.5 -0 
C 2.5 -0.663008 2.236584 -1.29895 1.767767 -1.767767 
C 1.29895 -2.236584 0.663008 -2.5 0 -2.5 
C -0.663008 -2.5 -1.29895 -2.236584 -1.767767 -1.767767 
C -2.236584 -1.29895 -2.5 -0.663008 -2.5 0 
C -2.5 0.663008 -2.236584 1.29895 -1.767767 1.767767 
C -1.29895 2.236584 -0.663008 2.5 0 2.5 
z
" id="C5_0_efcc7d9dc0"/>
    </defs>
    <g clip-path="url(#p1a48cddd2c)">
     <use style="fill:#539ecd;" x="224.63748" xlink:href="#C5_0_efcc7d9dc0" y="175.809495"/>
    </g>
    <g clip-path="url(#p1a48cddd2c)">
     <use style="fill:#539ecd;" x="217.600003" xlink:href="#C5_0_efcc7d9dc0" y="175.623759"/>
    </g>
    <g clip-path="url(#p1a48cddd2c)">
     <use style="fill:#89bedc;" x="197.545815" xlink:href="#C5_0_efcc7d9dc0" y="175.17664"/>
    </g>
    <g clip-path="url(#p1a48cddd2c)">
     <use style="fill:#89bedc;" x="197.777424" xlink:href="#C5_0_efcc7d9dc0" y="176.359666"/>
    </g>
    <g clip-path="url(#p1a48cddd2c)">
     <use style="fill:#bad6eb;" x="197.80291" xlink:href="#C5_0_efcc7d9dc0" y="177.147716"/>
    </g>
    <g clip-path="url(#p1a48cddd2c)">
     <use style="fill:#bad6eb;" x="214.988619" xlink:href="#C5_0_efcc7d9dc0" y="177.463274"/>
    </g>
    <g clip-path="url(#p1a48cddd2c)">
     <use style="fill:#2b7bba;" x="209.208932" xlink:href="#C5_0_efcc7d9dc0" y="177.603996"/>
    </g>
    <g clip-path="url(#p1a48cddd2c)">
     <use style="fill:#dbe9f6;" x="247.265447" xlink:href="#C5_0_efcc7d9dc0" y="179.348723"/>
    </g>
    <g clip-path="url(#p1a48cddd2c)">
     <use style="fill:#0b559f;" x="224.454144" xlink:href="#C5_0_efcc7d9dc0" y="175.154056"/>
    </g>
    <g clip-path="url(#p1a48cddd2c)">
     <use style="fill:#0b559f;" x="203.001472" xlink:href="#C5_0_efcc7d9dc0" y="176.19592"/>
    </g>
    <g clip-path="url(#p1a48cddd2c)">
     <use style="fill:#dbe9f6;" x="189.197135" xlink:href="#C5_0_efcc7d9dc0" y="176.652484"/>
    </g>
    <g clip-path="url(#p1a48cddd2c)">
     <use style="fill:#2b7bba;" x="194.070386" xlink:href="#C5_0_efcc7d9dc0" y="175.537871"/>
    </g>
   </g>
   <g id="PathCollection_13">
    <defs>
     <path d="M 0 2.5 
C 0.663008 2.5 1.29895 2.236584 1.767767 1.767767 
C 2.236584 1.29895 2.5 0.663008 2.5 -0 
C 2.5 -0.663008 2.236584 -1.29895 1.767767 -1.767767 
C 1.29895 -2.236584 0.663008 -2.5 0 -2.5 
C -0.663008 -2.5 -1.29895 -2.236584 -1.767767 -1.767767 
C -2.236584 -1.29895 -2.5 -0.663008 -2.5 0 
C -2.5 0.663008 -2.236584 1.29895 -1.767767 1.767767 
C -1.29895 2.236584 -0.663008 2.5 0 2.5 
z
" id="C6_0_dd9a7dc433"/>
    </defs>
    <g clip-path="url(#p1a48cddd2c)">
     <use style="fill:#bad6eb;" x="280.738025" xlink:href="#C6_0_dd9a7dc433" y="206.186074"/>
    </g>
    <g clip-path="url(#p1a48cddd2c)">
     <use style="fill:#539ecd;" x="260.852823" xlink:href="#C6_0_dd9a7dc433" y="207.399031"/>
    </g>
    <g clip-path="url(#p1a48cddd2c)">
     <use style="fill:#539ecd;" x="309.435682" xlink:href="#C6_0_dd9a7dc433" y="206.627506"/>
    </g>
    <g clip-path="url(#p1a48cddd2c)">
     <use style="fill:#dbe9f6;" x="247.338904" xlink:href="#C6_0_dd9a7dc433" y="204.037251"/>
    </g>
    <g clip-path="url(#p1a48cddd2c)">
     <use style="fill:#2b7bba;" x="262.264597" xlink:href="#C6_0_dd9a7dc433" y="204.121694"/>
    </g>
    <g clip-path="url(#p1a48cddd2c)">
     <use style="fill:#0b559f;" x="212.504037" xlink:href="#C6_0_dd9a7dc433" y="205.354288"/>
    </g>
    <g clip-path="url(#p1a48cddd2c)">
     <use style="fill:#0b559f;" x="251.322129" xlink:href="#C6_0_dd9a7dc433" y="204.894691"/>
    </g>
    <g clip-path="url(#p1a48cddd2c)">
     <use style="fill:#89bedc;" x="199.380392" xlink:href="#C6_0_dd9a7dc433" y="206.060536"/>
    </g>
    <g clip-path="url(#p1a48cddd2c)">
     <use style="fill:#2b7bba;" x="252.537596" xlink:href="#C6_0_dd9a7dc433" y="203.760541"/>
    </g>
    <g clip-path="url(#p1a48cddd2c)">
     <use style="fill:#bad6eb;" x="230.064605" xlink:href="#C6_0_dd9a7dc433" y="203.90391"/>
    </g>
    <g clip-path="url(#p1a48cddd2c)">
     <use style="fill:#89bedc;" x="243.386248" xlink:href="#C6_0_dd9a7dc433" y="206.466829"/>
    </g>
    <g clip-path="url(#p1a48cddd2c)">
     <use style="fill:#dbe9f6;" x="212.195352" xlink:href="#C6_0_dd9a7dc433" y="205.023029"/>
    </g>
   </g>
   <g id="PathCollection_14">
    <defs>
     <path d="M 0 2.5 
C 0.663008 2.5 1.29895 2.236584 1.767767 1.767767 
C 2.236584 1.29895 2.5 0.663008 2.5 -0 
C 2.5 -0.663008 2.236584 -1.29895 1.767767 -1.767767 
C 1.29895 -2.236584 0.663008 -2.5 0 -2.5 
C -0.663008 -2.5 -1.29895 -2.236584 -1.767767 -1.767767 
C -2.236584 -1.29895 -2.5 -0.663008 -2.5 0 
C -2.5 0.663008 -2.236584 1.29895 -1.767767 1.767767 
C -1.29895 2.236584 -0.663008 2.5 0 2.5 
z
" id="C7_0_ec8a7c3402"/>
    </defs>
    <g clip-path="url(#p1a48cddd2c)">
     <use style="fill:#0b559f;" x="276.474786" xlink:href="#C7_0_ec8a7c3402" y="233.144393"/>
    </g>
    <g clip-path="url(#p1a48cddd2c)">
     <use style="fill:#dbe9f6;" x="228.274902" xlink:href="#C7_0_ec8a7c3402" y="230.563926"/>
    </g>
    <g clip-path="url(#p1a48cddd2c)">
     <use style="fill:#dbe9f6;" x="272.782323" xlink:href="#C7_0_ec8a7c3402" y="231.445258"/>
    </g>
    <g clip-path="url(#p1a48cddd2c)">
     <use style="fill:#2b7bba;" x="230.017969" xlink:href="#C7_0_ec8a7c3402" y="233.655561"/>
    </g>
    <g clip-path="url(#p1a48cddd2c)">
     <use style="fill:#89bedc;" x="244.31448" xlink:href="#C7_0_ec8a7c3402" y="233.256734"/>
    </g>
    <g clip-path="url(#p1a48cddd2c)">
     <use style="fill:#539ecd;" x="236.839544" xlink:href="#C7_0_ec8a7c3402" y="231.872697"/>
    </g>
    <g clip-path="url(#p1a48cddd2c)">
     <use style="fill:#89bedc;" x="220.067892" xlink:href="#C7_0_ec8a7c3402" y="233.13724"/>
    </g>
    <g clip-path="url(#p1a48cddd2c)">
     <use style="fill:#2b7bba;" x="220.387514" xlink:href="#C7_0_ec8a7c3402" y="232.245959"/>
    </g>
    <g clip-path="url(#p1a48cddd2c)">
     <use style="fill:#bad6eb;" x="268.584157" xlink:href="#C7_0_ec8a7c3402" y="230.064334"/>
    </g>
    <g clip-path="url(#p1a48cddd2c)">
     <use style="fill:#0b559f;" x="236.731934" xlink:href="#C7_0_ec8a7c3402" y="229.754892"/>
    </g>
    <g clip-path="url(#p1a48cddd2c)">
     <use style="fill:#bad6eb;" x="277.827725" xlink:href="#C7_0_ec8a7c3402" y="231.191915"/>
    </g>
    <g clip-path="url(#p1a48cddd2c)">
     <use style="fill:#539ecd;" x="272.850453" xlink:href="#C7_0_ec8a7c3402" y="231.920958"/>
    </g>
   </g>
   <g id="text_19">
    <!-- Cemip -->
    <g transform="translate(167.490625 20.8)scale(0.12 -0.12)">
     <defs>
      <path d="M 9.421875 54.6875 
L 18.40625 54.6875 
L 18.40625 0 
L 9.421875 0 
z
M 9.421875 75.984375 
L 18.40625 75.984375 
L 18.40625 64.59375 
L 9.421875 64.59375 
z
" id="DejaVuSans-105"/>
     </defs>
     <use xlink:href="#DejaVuSans-67"/>
     <use x="69.824219" xlink:href="#DejaVuSans-101"/>
     <use x="131.347656" xlink:href="#DejaVuSans-109"/>
     <use x="228.759766" xlink:href="#DejaVuSans-105"/>
     <use x="256.542969" xlink:href="#DejaVuSans-112"/>
    </g>
   </g>
   <g id="legend_1">
    <g id="patch_13">
     <path d="M 337.21175 117.86875 
L 416.24925 117.86875 
Q 418.24925 117.86875 418.24925 115.86875 
L 418.24925 28.8 
Q 418.24925 26.8 416.24925 26.8 
L 337.21175 26.8 
Q 335.21175 26.8 335.21175 28.8 
L 335.21175 115.86875 
Q 335.21175 117.86875 337.21175 117.86875 
z
" style="fill:#ffffff;opacity:0.8;stroke:#cccccc;stroke-linejoin:miter;"/>
    </g>
    <g id="PathCollection_15">
     <defs>
      <path d="M 0 3.872983 
C 1.027127 3.872983 2.012324 3.464901 2.738613 2.738613 
C 3.464901 2.012324 3.872983 1.027127 3.872983 0 
C 3.872983 -1.027127 3.464901 -2.012324 2.738613 -2.738613 
C 2.012324 -3.464901 1.027127 -3.872983 0 -3.872983 
C -1.027127 -3.872983 -2.012324 -3.464901 -2.738613 -2.738613 
C -3.464901 -2.012324 -3.872983 -1.027127 -3.872983 0 
C -3.872983 1.027127 -3.464901 2.012324 -2.738613 2.738613 
C -2.012324 3.464901 -1.027127 3.872983 0 3.872983 
z
" id="m9c56bd4c74" style="stroke:#dbe9f6;"/>
     </defs>
     <g>
      <use style="fill:#dbe9f6;stroke:#dbe9f6;" x="349.21175" xlink:href="#m9c56bd4c74" y="35.773437"/>
     </g>
    </g>
    <g id="text_20">
     <!-- Sample 1 -->
     <g transform="translate(367.21175 38.398437)scale(0.1 -0.1)">
      <defs>
       <path d="M 12.40625 8.296875 
L 28.515625 8.296875 
L 28.515625 63.921875 
L 10.984375 60.40625 
L 10.984375 69.390625 
L 28.421875 72.90625 
L 38.28125 72.90625 
L 38.28125 8.296875 
L 54.390625 8.296875 
L 54.390625 0 
L 12.40625 0 
z
" id="DejaVuSans-49"/>
      </defs>
      <use xlink:href="#DejaVuSans-83"/>
      <use x="63.476562" xlink:href="#DejaVuSans-97"/>
      <use x="124.755859" xlink:href="#DejaVuSans-109"/>
      <use x="222.167969" xlink:href="#DejaVuSans-112"/>
      <use x="285.644531" xlink:href="#DejaVuSans-108"/>
      <use x="313.427734" xlink:href="#DejaVuSans-101"/>
      <use x="374.951172" xlink:href="#DejaVuSans-32"/>
      <use x="406.738281" xlink:href="#DejaVuSans-49"/>
     </g>
    </g>
    <g id="PathCollection_16">
     <defs>
      <path d="M 0 3.872983 
C 1.027127 3.872983 2.012324 3.464901 2.738613 2.738613 
C 3.464901 2.012324 3.872983 1.027127 3.872983 0 
C 3.872983 -1.027127 3.464901 -2.012324 2.738613 -2.738613 
C 2.012324 -3.464901 1.027127 -3.872983 0 -3.872983 
C -1.027127 -3.872983 -2.012324 -3.464901 -2.738613 -2.738613 
C -3.464901 -2.012324 -3.872983 -1.027127 -3.872983 0 
C -3.872983 1.027127 -3.464901 2.012324 -2.738613 2.738613 
C -2.012324 3.464901 -1.027127 3.872983 0 3.872983 
z
" id="m963ae7734c" style="stroke:#bad6eb;"/>
     </defs>
     <g>
      <use style="fill:#bad6eb;stroke:#bad6eb;" x="349.21175" xlink:href="#m963ae7734c" y="50.451562"/>
     </g>
    </g>
    <g id="text_21">
     <!-- Sample 2 -->
     <g transform="translate(367.21175 53.076562)scale(0.1 -0.1)">
      <use xlink:href="#DejaVuSans-83"/>
      <use x="63.476562" xlink:href="#DejaVuSans-97"/>
      <use x="124.755859" xlink:href="#DejaVuSans-109"/>
      <use x="222.167969" xlink:href="#DejaVuSans-112"/>
      <use x="285.644531" xlink:href="#DejaVuSans-108"/>
      <use x="313.427734" xlink:href="#DejaVuSans-101"/>
      <use x="374.951172" xlink:href="#DejaVuSans-32"/>
      <use x="406.738281" xlink:href="#DejaVuSans-50"/>
     </g>
    </g>
    <g id="PathCollection_17">
     <defs>
      <path d="M 0 3.872983 
C 1.027127 3.872983 2.012324 3.464901 2.738613 2.738613 
C 3.464901 2.012324 3.872983 1.027127 3.872983 0 
C 3.872983 -1.027127 3.464901 -2.012324 2.738613 -2.738613 
C 2.012324 -3.464901 1.027127 -3.872983 0 -3.872983 
C -1.027127 -3.872983 -2.012324 -3.464901 -2.738613 -2.738613 
C -3.464901 -2.012324 -3.872983 -1.027127 -3.872983 0 
C -3.872983 1.027127 -3.464901 2.012324 -2.738613 2.738613 
C -2.012324 3.464901 -1.027127 3.872983 0 3.872983 
z
" id="md37967b09a" style="stroke:#89bedc;"/>
     </defs>
     <g>
      <use style="fill:#89bedc;stroke:#89bedc;" x="349.21175" xlink:href="#md37967b09a" y="65.129687"/>
     </g>
    </g>
    <g id="text_22">
     <!-- Sample 3 -->
     <g transform="translate(367.21175 67.754687)scale(0.1 -0.1)">
      <use xlink:href="#DejaVuSans-83"/>
      <use x="63.476562" xlink:href="#DejaVuSans-97"/>
      <use x="124.755859" xlink:href="#DejaVuSans-109"/>
      <use x="222.167969" xlink:href="#DejaVuSans-112"/>
      <use x="285.644531" xlink:href="#DejaVuSans-108"/>
      <use x="313.427734" xlink:href="#DejaVuSans-101"/>
      <use x="374.951172" xlink:href="#DejaVuSans-32"/>
      <use x="406.738281" xlink:href="#DejaVuSans-51"/>
     </g>
    </g>
    <g id="PathCollection_18">
     <defs>
      <path d="M 0 3.872983 
C 1.027127 3.872983 2.012324 3.464901 2.738613 2.738613 
C 3.464901 2.012324 3.872983 1.027127 3.872983 0 
C 3.872983 -1.027127 3.464901 -2.012324 2.738613 -2.738613 
C 2.012324 -3.464901 1.027127 -3.872983 0 -3.872983 
C -1.027127 -3.872983 -2.012324 -3.464901 -2.738613 -2.738613 
C -3.464901 -2.012324 -3.872983 -1.027127 -3.872983 0 
C -3.872983 1.027127 -3.464901 2.012324 -2.738613 2.738613 
C -2.012324 3.464901 -1.027127 3.872983 0 3.872983 
z
" id="mb46e5a56c2" style="stroke:#539ecd;"/>
     </defs>
     <g>
      <use style="fill:#539ecd;stroke:#539ecd;" x="349.21175" xlink:href="#mb46e5a56c2" y="79.807812"/>
     </g>
    </g>
    <g id="text_23">
     <!-- Sample 4 -->
     <g transform="translate(367.21175 82.432812)scale(0.1 -0.1)">
      <use xlink:href="#DejaVuSans-83"/>
      <use x="63.476562" xlink:href="#DejaVuSans-97"/>
      <use x="124.755859" xlink:href="#DejaVuSans-109"/>
      <use x="222.167969" xlink:href="#DejaVuSans-112"/>
      <use x="285.644531" xlink:href="#DejaVuSans-108"/>
      <use x="313.427734" xlink:href="#DejaVuSans-101"/>
      <use x="374.951172" xlink:href="#DejaVuSans-32"/>
      <use x="406.738281" xlink:href="#DejaVuSans-52"/>
     </g>
    </g>
    <g id="PathCollection_19">
     <defs>
      <path d="M 0 3.872983 
C 1.027127 3.872983 2.012324 3.464901 2.738613 2.738613 
C 3.464901 2.012324 3.872983 1.027127 3.872983 0 
C 3.872983 -1.027127 3.464901 -2.012324 2.738613 -2.738613 
C 2.012324 -3.464901 1.027127 -3.872983 0 -3.872983 
C -1.027127 -3.872983 -2.012324 -3.464901 -2.738613 -2.738613 
C -3.464901 -2.012324 -3.872983 -1.027127 -3.872983 0 
C -3.872983 1.027127 -3.464901 2.012324 -2.738613 2.738613 
C -2.012324 3.464901 -1.027127 3.872983 0 3.872983 
z
" id="m1337d0c97e" style="stroke:#2b7bba;"/>
     </defs>
     <g>
      <use style="fill:#2b7bba;stroke:#2b7bba;" x="349.21175" xlink:href="#m1337d0c97e" y="94.485937"/>
     </g>
    </g>
    <g id="text_24">
     <!-- Sample 5 -->
     <g transform="translate(367.21175 97.110937)scale(0.1 -0.1)">
      <use xlink:href="#DejaVuSans-83"/>
      <use x="63.476562" xlink:href="#DejaVuSans-97"/>
      <use x="124.755859" xlink:href="#DejaVuSans-109"/>
      <use x="222.167969" xlink:href="#DejaVuSans-112"/>
      <use x="285.644531" xlink:href="#DejaVuSans-108"/>
      <use x="313.427734" xlink:href="#DejaVuSans-101"/>
      <use x="374.951172" xlink:href="#DejaVuSans-32"/>
      <use x="406.738281" xlink:href="#DejaVuSans-53"/>
     </g>
    </g>
    <g id="PathCollection_20">
     <defs>
      <path d="M 0 3.872983 
C 1.027127 3.872983 2.012324 3.464901 2.738613 2.738613 
C 3.464901 2.012324 3.872983 1.027127 3.872983 0 
C 3.872983 -1.027127 3.464901 -2.012324 2.738613 -2.738613 
C 2.012324 -3.464901 1.027127 -3.872983 0 -3.872983 
C -1.027127 -3.872983 -2.012324 -3.464901 -2.738613 -2.738613 
C -3.464901 -2.012324 -3.872983 -1.027127 -3.872983 0 
C -3.872983 1.027127 -3.464901 2.012324 -2.738613 2.738613 
C -2.012324 3.464901 -1.027127 3.872983 0 3.872983 
z
" id="m41f689f203" style="stroke:#0b559f;"/>
     </defs>
     <g>
      <use style="fill:#0b559f;stroke:#0b559f;" x="349.21175" xlink:href="#m41f689f203" y="109.164062"/>
     </g>
    </g>
    <g id="text_25">
     <!-- Sample 6 -->
     <g transform="translate(367.21175 111.789062)scale(0.1 -0.1)">
      <use xlink:href="#DejaVuSans-83"/>
      <use x="63.476562" xlink:href="#DejaVuSans-97"/>
      <use x="124.755859" xlink:href="#DejaVuSans-109"/>
      <use x="222.167969" xlink:href="#DejaVuSans-112"/>
      <use x="285.644531" xlink:href="#DejaVuSans-108"/>
      <use x="313.427734" xlink:href="#DejaVuSans-101"/>
      <use x="374.951172" xlink:href="#DejaVuSans-32"/>
      <use x="406.738281" xlink:href="#DejaVuSans-54"/>
     </g>
    </g>
   </g>
   <g id="line2d_2"/>
   <g id="line2d_3"/>
   <g id="line2d_4"/>
   <g id="line2d_5"/>
   <g id="line2d_6"/>
   <g id="line2d_7"/>
   <g id="line2d_8"/>
   <g id="line2d_9"/>
   <g id="line2d_10">
    <path clip-path="url(#p1a48cddd2c)" d="M 93.671304 36.39875 
L 93.671304 44.62625 
" style="fill:none;stroke:#8b8b8b;stroke-linecap:square;stroke-width:1.5;"/>
   </g>
   <g id="line2d_11">
    <path clip-path="url(#p1a48cddd2c)" d="M 180.535863 63.82375 
L 180.535863 72.05125 
" style="fill:none;stroke:#8b8b8b;stroke-linecap:square;stroke-width:1.5;"/>
   </g>
   <g id="line2d_12">
    <path clip-path="url(#p1a48cddd2c)" d="M 192.808302 91.24875 
L 192.808302 99.47625 
" style="fill:none;stroke:#8b8b8b;stroke-linecap:square;stroke-width:1.5;"/>
   </g>
   <g id="line2d_13">
    <path clip-path="url(#p1a48cddd2c)" d="M 194.381936 118.67375 
L 194.381936 126.90125 
" style="fill:none;stroke:#8b8b8b;stroke-linecap:square;stroke-width:1.5;"/>
   </g>
   <g id="line2d_14">
    <path clip-path="url(#p1a48cddd2c)" d="M 199.943172 146.09875 
L 199.943172 154.32625 
" style="fill:none;stroke:#8b8b8b;stroke-linecap:square;stroke-width:1.5;"/>
   </g>
   <g id="line2d_15">
    <path clip-path="url(#p1a48cddd2c)" d="M 206.105202 173.52375 
L 206.105202 181.75125 
" style="fill:none;stroke:#8b8b8b;stroke-linecap:square;stroke-width:1.5;"/>
   </g>
   <g id="line2d_16">
    <path clip-path="url(#p1a48cddd2c)" d="M 249.330517 200.94875 
L 249.330517 209.17625 
" style="fill:none;stroke:#8b8b8b;stroke-linecap:square;stroke-width:1.5;"/>
   </g>
   <g id="line2d_17">
    <path clip-path="url(#p1a48cddd2c)" d="M 240.577012 228.37375 
L 240.577012 236.60125 
" style="fill:none;stroke:#8b8b8b;stroke-linecap:square;stroke-width:1.5;"/>
   </g>
  </g>
 </g>
 <defs>
  <clipPath id="p1a48cddd2c">
   <rect height="219.4" width="270.035" x="51.675" y="26.8"/>
  </clipPath>
 </defs>
</svg>
