<?xml version="1.0" encoding="utf-8" standalone="no"?>
<!DOCTYPE svg PUBLIC "-//W3C//DTD SVG 1.1//EN"
  "http://www.w3.org/Graphics/SVG/1.1/DTD/svg11.dtd">
<svg xmlns:xlink="http://www.w3.org/1999/xlink" width="432pt" height="288pt" viewBox="0 0 432 288" xmlns="http://www.w3.org/2000/svg" version="1.1">
 <metadata>
  <rdf:RDF xmlns:dc="http://purl.org/dc/elements/1.1/" xmlns:cc="http://creativecommons.org/ns#" xmlns:rdf="http://www.w3.org/1999/02/22-rdf-syntax-ns#">
   <cc:Work>
    <dc:type rdf:resource="http://purl.org/dc/dcmitype/StillImage"/>
    <dc:date>2022-04-26T14:05:55.987839</dc:date>
    <dc:format>image/svg+xml</dc:format>
    <dc:creator>
     <cc:Agent>
      <dc:title>Matplotlib v3.5.1, https://matplotlib.org/</dc:title>
     </cc:Agent>
    </dc:creator>
   </cc:Work>
  </rdf:RDF>
 </metadata>
 <defs>
  <style type="text/css">*{stroke-linejoin: round; stroke-linecap: butt}</style>
 </defs>
 <g id="figure_1">
  <g id="patch_1">
   <path d="M 0 288 
L 432 288 
L 432 0 
L 0 0 
L 0 288 
z
" style="fill: none"/>
  </g>
  <g id="axes_1">
   <g id="patch_2">
    <path d="M 68.175 246.2 
L 321.71 246.2 
L 321.71 26.8 
L 68.175 26.8 
z
" style="fill: #ffffff"/>
   </g>
   <g id="patch_3">
    <path d="M 111.760442 32.706923 
L 111.760442 37.77 
L 163.475845 37.77 
L 163.475845 32.706923 
L 111.760442 32.706923 
z
" clip-path="url(#p2da6be6e03)" style="fill: #dee9f3; stroke: #8b8b8b; stroke-width: 1.5; stroke-linejoin: miter"/>
   </g>
   <g id="patch_4">
    <path d="M 177.777364 49.583846 
L 177.777364 54.646923 
L 211.000597 54.646923 
L 211.000597 49.583846 
L 177.777364 49.583846 
z
" clip-path="url(#p2da6be6e03)" style="fill: #dee9f3; stroke: #8b8b8b; stroke-width: 1.5; stroke-linejoin: miter"/>
   </g>
   <g id="patch_5">
    <path d="M 203.020119 66.460769 
L 203.020119 71.523846 
L 234.455776 71.523846 
L 234.455776 66.460769 
L 203.020119 66.460769 
z
" clip-path="url(#p2da6be6e03)" style="fill: #dee9f3; stroke: #8b8b8b; stroke-width: 1.5; stroke-linejoin: miter"/>
   </g>
   <g id="patch_6">
    <path d="M 212.523171 83.337692 
L 212.523171 88.400769 
L 227.961609 88.400769 
L 227.961609 83.337692 
L 212.523171 83.337692 
z
" clip-path="url(#p2da6be6e03)" style="fill: #dee9f3; stroke: #8b8b8b; stroke-width: 1.5; stroke-linejoin: miter"/>
   </g>
   <g id="patch_7">
    <path d="M 226.2428 100.214615 
L 226.2428 105.277692 
L 250.842929 105.277692 
L 250.842929 100.214615 
L 226.2428 100.214615 
z
" clip-path="url(#p2da6be6e03)" style="fill: #dee9f3; stroke: #8b8b8b; stroke-width: 1.5; stroke-linejoin: miter"/>
   </g>
   <g id="patch_8">
    <path d="M 231.886027 117.091538 
L 231.886027 122.154615 
L 254.418432 122.154615 
L 254.418432 117.091538 
L 231.886027 117.091538 
z
" clip-path="url(#p2da6be6e03)" style="fill: #dee9f3; stroke: #8b8b8b; stroke-width: 1.5; stroke-linejoin: miter"/>
   </g>
   <g id="patch_9">
    <path d="M 238.567764 133.968462 
L 238.567764 139.031538 
L 254.430964 139.031538 
L 254.430964 133.968462 
L 238.567764 133.968462 
z
" clip-path="url(#p2da6be6e03)" style="fill: #dee9f3; stroke: #8b8b8b; stroke-width: 1.5; stroke-linejoin: miter"/>
   </g>
   <g id="patch_10">
    <path d="M 248.26373 150.845385 
L 248.26373 155.908462 
L 259.591692 155.908462 
L 259.591692 150.845385 
L 248.26373 150.845385 
z
" clip-path="url(#p2da6be6e03)" style="fill: #dee9f3; stroke: #8b8b8b; stroke-width: 1.5; stroke-linejoin: miter"/>
   </g>
   <g id="patch_11">
    <path d="M 247.388201 167.722308 
L 247.388201 172.785385 
L 260.662219 172.785385 
L 260.662219 167.722308 
L 247.388201 167.722308 
z
" clip-path="url(#p2da6be6e03)" style="fill: #dee9f3; stroke: #8b8b8b; stroke-width: 1.5; stroke-linejoin: miter"/>
   </g>
   <g id="patch_12">
    <path d="M 251.850124 184.599231 
L 251.850124 189.662308 
L 260.94923 189.662308 
L 260.94923 184.599231 
L 251.850124 184.599231 
z
" clip-path="url(#p2da6be6e03)" style="fill: #dee9f3; stroke: #8b8b8b; stroke-width: 1.5; stroke-linejoin: miter"/>
   </g>
   <g id="patch_13">
    <path d="M 268.206729 201.476154 
L 268.206729 206.539231 
L 277.57447 206.539231 
L 277.57447 201.476154 
L 268.206729 201.476154 
z
" clip-path="url(#p2da6be6e03)" style="fill: #dee9f3; stroke: #8b8b8b; stroke-width: 1.5; stroke-linejoin: miter"/>
   </g>
   <g id="patch_14">
    <path d="M 261.971964 218.353077 
L 261.971964 223.416154 
L 278.56828 223.416154 
L 278.56828 218.353077 
L 261.971964 218.353077 
z
" clip-path="url(#p2da6be6e03)" style="fill: #dee9f3; stroke: #8b8b8b; stroke-width: 1.5; stroke-linejoin: miter"/>
   </g>
   <g id="patch_15">
    <path d="M 293.789586 235.23 
L 293.789586 240.293077 
L 302.448677 240.293077 
L 302.448677 235.23 
L 293.789586 235.23 
z
" clip-path="url(#p2da6be6e03)" style="fill: #dee9f3; stroke: #8b8b8b; stroke-width: 1.5; stroke-linejoin: miter"/>
   </g>
   <g id="PathCollection_1"/>
   <g id="PathCollection_2"/>
   <g id="PathCollection_3"/>
   <g id="PathCollection_4"/>
   <g id="PathCollection_5"/>
   <g id="PathCollection_6"/>
   <g id="patch_16">
    <path d="M 273.010465 246.2 
L 273.010465 26.8 
L 310.185682 26.8 
L 310.185682 246.2 
z
" clip-path="url(#p2da6be6e03)" style="fill: #808080; opacity: 0.5"/>
   </g>
   <g id="matplotlib.axis_1">
    <g id="xtick_1">
     <g id="text_1">
      <!-- −15 -->
      <g transform="translate(106.023448 260.798437)scale(0.1 -0.1)">
       <defs>
        <path id="DejaVuSans-2212" d="M 678 2272 
L 4684 2272 
L 4684 1741 
L 678 1741 
L 678 2272 
z
" transform="scale(0.015625)"/>
        <path id="DejaVuSans-31" d="M 794 531 
L 1825 531 
L 1825 4091 
L 703 3866 
L 703 4441 
L 1819 4666 
L 2450 4666 
L 2450 531 
L 3481 531 
L 3481 0 
L 794 0 
L 794 531 
z
" transform="scale(0.015625)"/>
        <path id="DejaVuSans-35" d="M 691 4666 
L 3169 4666 
L 3169 4134 
L 1269 4134 
L 1269 2991 
Q 1406 3038 1543 3061 
Q 1681 3084 1819 3084 
Q 2600 3084 3056 2656 
Q 3513 2228 3513 1497 
Q 3513 744 3044 326 
Q 2575 -91 1722 -91 
Q 1428 -91 1123 -41 
Q 819 9 494 109 
L 494 744 
Q 775 591 1075 516 
Q 1375 441 1709 441 
Q 2250 441 2565 725 
Q 2881 1009 2881 1497 
Q 2881 1984 2565 2268 
Q 2250 2553 1709 2553 
Q 1456 2553 1204 2497 
Q 953 2441 691 2322 
L 691 4666 
z
" transform="scale(0.015625)"/>
       </defs>
       <use xlink:href="#DejaVuSans-2212"/>
       <use xlink:href="#DejaVuSans-31" x="83.789062"/>
       <use xlink:href="#DejaVuSans-35" x="147.412109"/>
      </g>
     </g>
    </g>
    <g id="xtick_2">
     <g id="text_2">
      <!-- −10 -->
      <g transform="translate(158.168339 260.798437)scale(0.1 -0.1)">
       <defs>
        <path id="DejaVuSans-30" d="M 2034 4250 
Q 1547 4250 1301 3770 
Q 1056 3291 1056 2328 
Q 1056 1369 1301 889 
Q 1547 409 2034 409 
Q 2525 409 2770 889 
Q 3016 1369 3016 2328 
Q 3016 3291 2770 3770 
Q 2525 4250 2034 4250 
z
M 2034 4750 
Q 2819 4750 3233 4129 
Q 3647 3509 3647 2328 
Q 3647 1150 3233 529 
Q 2819 -91 2034 -91 
Q 1250 -91 836 529 
Q 422 1150 422 2328 
Q 422 3509 836 4129 
Q 1250 4750 2034 4750 
z
" transform="scale(0.015625)"/>
       </defs>
       <use xlink:href="#DejaVuSans-2212"/>
       <use xlink:href="#DejaVuSans-31" x="83.789062"/>
       <use xlink:href="#DejaVuSans-30" x="147.412109"/>
      </g>
     </g>
    </g>
    <g id="xtick_3">
     <g id="text_3">
      <!-- −5 -->
      <g transform="translate(213.49448 260.798437)scale(0.1 -0.1)">
       <use xlink:href="#DejaVuSans-2212"/>
       <use xlink:href="#DejaVuSans-35" x="83.789062"/>
      </g>
     </g>
    </g>
    <g id="xtick_4">
     <g id="text_4">
      <!-- 0 -->
      <g transform="translate(269.829215 260.798437)scale(0.1 -0.1)">
       <use xlink:href="#DejaVuSans-30"/>
      </g>
     </g>
    </g>
    <g id="text_5">
     <!-- Z score per sample/ontology -->
     <g transform="translate(123.318281 274.476562)scale(0.1 -0.1)">
      <defs>
       <path id="DejaVuSans-5a" d="M 359 4666 
L 4025 4666 
L 4025 4184 
L 1075 531 
L 4097 531 
L 4097 0 
L 288 0 
L 288 481 
L 3238 4134 
L 359 4134 
L 359 4666 
z
" transform="scale(0.015625)"/>
       <path id="DejaVuSans-20" transform="scale(0.015625)"/>
       <path id="DejaVuSans-73" d="M 2834 3397 
L 2834 2853 
Q 2591 2978 2328 3040 
Q 2066 3103 1784 3103 
Q 1356 3103 1142 2972 
Q 928 2841 928 2578 
Q 928 2378 1081 2264 
Q 1234 2150 1697 2047 
L 1894 2003 
Q 2506 1872 2764 1633 
Q 3022 1394 3022 966 
Q 3022 478 2636 193 
Q 2250 -91 1575 -91 
Q 1294 -91 989 -36 
Q 684 19 347 128 
L 347 722 
Q 666 556 975 473 
Q 1284 391 1588 391 
Q 1994 391 2212 530 
Q 2431 669 2431 922 
Q 2431 1156 2273 1281 
Q 2116 1406 1581 1522 
L 1381 1569 
Q 847 1681 609 1914 
Q 372 2147 372 2553 
Q 372 3047 722 3315 
Q 1072 3584 1716 3584 
Q 2034 3584 2315 3537 
Q 2597 3491 2834 3397 
z
" transform="scale(0.015625)"/>
       <path id="DejaVuSans-63" d="M 3122 3366 
L 3122 2828 
Q 2878 2963 2633 3030 
Q 2388 3097 2138 3097 
Q 1578 3097 1268 2742 
Q 959 2388 959 1747 
Q 959 1106 1268 751 
Q 1578 397 2138 397 
Q 2388 397 2633 464 
Q 2878 531 3122 666 
L 3122 134 
Q 2881 22 2623 -34 
Q 2366 -91 2075 -91 
Q 1284 -91 818 406 
Q 353 903 353 1747 
Q 353 2603 823 3093 
Q 1294 3584 2113 3584 
Q 2378 3584 2631 3529 
Q 2884 3475 3122 3366 
z
" transform="scale(0.015625)"/>
       <path id="DejaVuSans-6f" d="M 1959 3097 
Q 1497 3097 1228 2736 
Q 959 2375 959 1747 
Q 959 1119 1226 758 
Q 1494 397 1959 397 
Q 2419 397 2687 759 
Q 2956 1122 2956 1747 
Q 2956 2369 2687 2733 
Q 2419 3097 1959 3097 
z
M 1959 3584 
Q 2709 3584 3137 3096 
Q 3566 2609 3566 1747 
Q 3566 888 3137 398 
Q 2709 -91 1959 -91 
Q 1206 -91 779 398 
Q 353 888 353 1747 
Q 353 2609 779 3096 
Q 1206 3584 1959 3584 
z
" transform="scale(0.015625)"/>
       <path id="DejaVuSans-72" d="M 2631 2963 
Q 2534 3019 2420 3045 
Q 2306 3072 2169 3072 
Q 1681 3072 1420 2755 
Q 1159 2438 1159 1844 
L 1159 0 
L 581 0 
L 581 3500 
L 1159 3500 
L 1159 2956 
Q 1341 3275 1631 3429 
Q 1922 3584 2338 3584 
Q 2397 3584 2469 3576 
Q 2541 3569 2628 3553 
L 2631 2963 
z
" transform="scale(0.015625)"/>
       <path id="DejaVuSans-65" d="M 3597 1894 
L 3597 1613 
L 953 1613 
Q 991 1019 1311 708 
Q 1631 397 2203 397 
Q 2534 397 2845 478 
Q 3156 559 3463 722 
L 3463 178 
Q 3153 47 2828 -22 
Q 2503 -91 2169 -91 
Q 1331 -91 842 396 
Q 353 884 353 1716 
Q 353 2575 817 3079 
Q 1281 3584 2069 3584 
Q 2775 3584 3186 3129 
Q 3597 2675 3597 1894 
z
M 3022 2063 
Q 3016 2534 2758 2815 
Q 2500 3097 2075 3097 
Q 1594 3097 1305 2825 
Q 1016 2553 972 2059 
L 3022 2063 
z
" transform="scale(0.015625)"/>
       <path id="DejaVuSans-70" d="M 1159 525 
L 1159 -1331 
L 581 -1331 
L 581 3500 
L 1159 3500 
L 1159 2969 
Q 1341 3281 1617 3432 
Q 1894 3584 2278 3584 
Q 2916 3584 3314 3078 
Q 3713 2572 3713 1747 
Q 3713 922 3314 415 
Q 2916 -91 2278 -91 
Q 1894 -91 1617 61 
Q 1341 213 1159 525 
z
M 3116 1747 
Q 3116 2381 2855 2742 
Q 2594 3103 2138 3103 
Q 1681 3103 1420 2742 
Q 1159 2381 1159 1747 
Q 1159 1113 1420 752 
Q 1681 391 2138 391 
Q 2594 391 2855 752 
Q 3116 1113 3116 1747 
z
" transform="scale(0.015625)"/>
       <path id="DejaVuSans-61" d="M 2194 1759 
Q 1497 1759 1228 1600 
Q 959 1441 959 1056 
Q 959 750 1161 570 
Q 1363 391 1709 391 
Q 2188 391 2477 730 
Q 2766 1069 2766 1631 
L 2766 1759 
L 2194 1759 
z
M 3341 1997 
L 3341 0 
L 2766 0 
L 2766 531 
Q 2569 213 2275 61 
Q 1981 -91 1556 -91 
Q 1019 -91 701 211 
Q 384 513 384 1019 
Q 384 1609 779 1909 
Q 1175 2209 1959 2209 
L 2766 2209 
L 2766 2266 
Q 2766 2663 2505 2880 
Q 2244 3097 1772 3097 
Q 1472 3097 1187 3025 
Q 903 2953 641 2809 
L 641 3341 
Q 956 3463 1253 3523 
Q 1550 3584 1831 3584 
Q 2591 3584 2966 3190 
Q 3341 2797 3341 1997 
z
" transform="scale(0.015625)"/>
       <path id="DejaVuSans-6d" d="M 3328 2828 
Q 3544 3216 3844 3400 
Q 4144 3584 4550 3584 
Q 5097 3584 5394 3201 
Q 5691 2819 5691 2113 
L 5691 0 
L 5113 0 
L 5113 2094 
Q 5113 2597 4934 2840 
Q 4756 3084 4391 3084 
Q 3944 3084 3684 2787 
Q 3425 2491 3425 1978 
L 3425 0 
L 2847 0 
L 2847 2094 
Q 2847 2600 2669 2842 
Q 2491 3084 2119 3084 
Q 1678 3084 1418 2786 
Q 1159 2488 1159 1978 
L 1159 0 
L 581 0 
L 581 3500 
L 1159 3500 
L 1159 2956 
Q 1356 3278 1631 3431 
Q 1906 3584 2284 3584 
Q 2666 3584 2933 3390 
Q 3200 3197 3328 2828 
z
" transform="scale(0.015625)"/>
       <path id="DejaVuSans-6c" d="M 603 4863 
L 1178 4863 
L 1178 0 
L 603 0 
L 603 4863 
z
" transform="scale(0.015625)"/>
       <path id="DejaVuSans-2f" d="M 1625 4666 
L 2156 4666 
L 531 -594 
L 0 -594 
L 1625 4666 
z
" transform="scale(0.015625)"/>
       <path id="DejaVuSans-6e" d="M 3513 2113 
L 3513 0 
L 2938 0 
L 2938 2094 
Q 2938 2591 2744 2837 
Q 2550 3084 2163 3084 
Q 1697 3084 1428 2787 
Q 1159 2491 1159 1978 
L 1159 0 
L 581 0 
L 581 3500 
L 1159 3500 
L 1159 2956 
Q 1366 3272 1645 3428 
Q 1925 3584 2291 3584 
Q 2894 3584 3203 3211 
Q 3513 2838 3513 2113 
z
" transform="scale(0.015625)"/>
       <path id="DejaVuSans-74" d="M 1172 4494 
L 1172 3500 
L 2356 3500 
L 2356 3053 
L 1172 3053 
L 1172 1153 
Q 1172 725 1289 603 
Q 1406 481 1766 481 
L 2356 481 
L 2356 0 
L 1766 0 
Q 1100 0 847 248 
Q 594 497 594 1153 
L 594 3053 
L 172 3053 
L 172 3500 
L 594 3500 
L 594 4494 
L 1172 4494 
z
" transform="scale(0.015625)"/>
       <path id="DejaVuSans-67" d="M 2906 1791 
Q 2906 2416 2648 2759 
Q 2391 3103 1925 3103 
Q 1463 3103 1205 2759 
Q 947 2416 947 1791 
Q 947 1169 1205 825 
Q 1463 481 1925 481 
Q 2391 481 2648 825 
Q 2906 1169 2906 1791 
z
M 3481 434 
Q 3481 -459 3084 -895 
Q 2688 -1331 1869 -1331 
Q 1566 -1331 1297 -1286 
Q 1028 -1241 775 -1147 
L 775 -588 
Q 1028 -725 1275 -790 
Q 1522 -856 1778 -856 
Q 2344 -856 2625 -561 
Q 2906 -266 2906 331 
L 2906 616 
Q 2728 306 2450 153 
Q 2172 0 1784 0 
Q 1141 0 747 490 
Q 353 981 353 1791 
Q 353 2603 747 3093 
Q 1141 3584 1784 3584 
Q 2172 3584 2450 3431 
Q 2728 3278 2906 2969 
L 2906 3500 
L 3481 3500 
L 3481 434 
z
" transform="scale(0.015625)"/>
       <path id="DejaVuSans-79" d="M 2059 -325 
Q 1816 -950 1584 -1140 
Q 1353 -1331 966 -1331 
L 506 -1331 
L 506 -850 
L 844 -850 
Q 1081 -850 1212 -737 
Q 1344 -625 1503 -206 
L 1606 56 
L 191 3500 
L 800 3500 
L 1894 763 
L 2988 3500 
L 3597 3500 
L 2059 -325 
z
" transform="scale(0.015625)"/>
      </defs>
      <use xlink:href="#DejaVuSans-5a"/>
      <use xlink:href="#DejaVuSans-20" x="68.505859"/>
      <use xlink:href="#DejaVuSans-73" x="100.292969"/>
      <use xlink:href="#DejaVuSans-63" x="152.392578"/>
      <use xlink:href="#DejaVuSans-6f" x="207.373047"/>
      <use xlink:href="#DejaVuSans-72" x="268.554688"/>
      <use xlink:href="#DejaVuSans-65" x="307.417969"/>
      <use xlink:href="#DejaVuSans-20" x="368.941406"/>
      <use xlink:href="#DejaVuSans-70" x="400.728516"/>
      <use xlink:href="#DejaVuSans-65" x="464.205078"/>
      <use xlink:href="#DejaVuSans-72" x="525.728516"/>
      <use xlink:href="#DejaVuSans-20" x="566.841797"/>
      <use xlink:href="#DejaVuSans-73" x="598.628906"/>
      <use xlink:href="#DejaVuSans-61" x="650.728516"/>
      <use xlink:href="#DejaVuSans-6d" x="712.007812"/>
      <use xlink:href="#DejaVuSans-70" x="809.419922"/>
      <use xlink:href="#DejaVuSans-6c" x="872.896484"/>
      <use xlink:href="#DejaVuSans-65" x="900.679688"/>
      <use xlink:href="#DejaVuSans-2f" x="962.203125"/>
      <use xlink:href="#DejaVuSans-6f" x="995.894531"/>
      <use xlink:href="#DejaVuSans-6e" x="1057.076172"/>
      <use xlink:href="#DejaVuSans-74" x="1120.455078"/>
      <use xlink:href="#DejaVuSans-6f" x="1159.664062"/>
      <use xlink:href="#DejaVuSans-6c" x="1220.845703"/>
      <use xlink:href="#DejaVuSans-6f" x="1248.628906"/>
      <use xlink:href="#DejaVuSans-67" x="1309.810547"/>
      <use xlink:href="#DejaVuSans-79" x="1373.287109"/>
     </g>
    </g>
   </g>
   <g id="matplotlib.axis_2">
    <g id="ytick_1">
     <g id="text_6">
      <!-- Oligo -->
      <g transform="translate(35.279687 39.03768)scale(0.1 -0.1)">
       <defs>
        <path id="DejaVuSans-4f" d="M 2522 4238 
Q 1834 4238 1429 3725 
Q 1025 3213 1025 2328 
Q 1025 1447 1429 934 
Q 1834 422 2522 422 
Q 3209 422 3611 934 
Q 4013 1447 4013 2328 
Q 4013 3213 3611 3725 
Q 3209 4238 2522 4238 
z
M 2522 4750 
Q 3503 4750 4090 4092 
Q 4678 3434 4678 2328 
Q 4678 1225 4090 567 
Q 3503 -91 2522 -91 
Q 1538 -91 948 565 
Q 359 1222 359 2328 
Q 359 3434 948 4092 
Q 1538 4750 2522 4750 
z
" transform="scale(0.015625)"/>
        <path id="DejaVuSans-69" d="M 603 3500 
L 1178 3500 
L 1178 0 
L 603 0 
L 603 3500 
z
M 603 4863 
L 1178 4863 
L 1178 4134 
L 603 4134 
L 603 4863 
z
" transform="scale(0.015625)"/>
       </defs>
       <use xlink:href="#DejaVuSans-4f"/>
       <use xlink:href="#DejaVuSans-6c" x="78.710938"/>
       <use xlink:href="#DejaVuSans-69" x="106.494141"/>
       <use xlink:href="#DejaVuSans-67" x="134.277344"/>
       <use xlink:href="#DejaVuSans-6f" x="197.753906"/>
      </g>
     </g>
    </g>
    <g id="ytick_2">
     <g id="text_7">
      <!-- OPC -->
      <g transform="translate(40.290625 55.914603)scale(0.1 -0.1)">
       <defs>
        <path id="DejaVuSans-50" d="M 1259 4147 
L 1259 2394 
L 2053 2394 
Q 2494 2394 2734 2622 
Q 2975 2850 2975 3272 
Q 2975 3691 2734 3919 
Q 2494 4147 2053 4147 
L 1259 4147 
z
M 628 4666 
L 2053 4666 
Q 2838 4666 3239 4311 
Q 3641 3956 3641 3272 
Q 3641 2581 3239 2228 
Q 2838 1875 2053 1875 
L 1259 1875 
L 1259 0 
L 628 0 
L 628 4666 
z
" transform="scale(0.015625)"/>
        <path id="DejaVuSans-43" d="M 4122 4306 
L 4122 3641 
Q 3803 3938 3442 4084 
Q 3081 4231 2675 4231 
Q 1875 4231 1450 3742 
Q 1025 3253 1025 2328 
Q 1025 1406 1450 917 
Q 1875 428 2675 428 
Q 3081 428 3442 575 
Q 3803 722 4122 1019 
L 4122 359 
Q 3791 134 3420 21 
Q 3050 -91 2638 -91 
Q 1578 -91 968 557 
Q 359 1206 359 2328 
Q 359 3453 968 4101 
Q 1578 4750 2638 4750 
Q 3056 4750 3426 4639 
Q 3797 4528 4122 4306 
z
" transform="scale(0.015625)"/>
       </defs>
       <use xlink:href="#DejaVuSans-4f"/>
       <use xlink:href="#DejaVuSans-50" x="78.710938"/>
       <use xlink:href="#DejaVuSans-43" x="139.013672"/>
      </g>
     </g>
    </g>
    <g id="ytick_3">
     <g id="text_8">
      <!-- L6 CT -->
      <g transform="translate(32.971875 72.791526)scale(0.1 -0.1)">
       <defs>
        <path id="DejaVuSans-4c" d="M 628 4666 
L 1259 4666 
L 1259 531 
L 3531 531 
L 3531 0 
L 628 0 
L 628 4666 
z
" transform="scale(0.015625)"/>
        <path id="DejaVuSans-36" d="M 2113 2584 
Q 1688 2584 1439 2293 
Q 1191 2003 1191 1497 
Q 1191 994 1439 701 
Q 1688 409 2113 409 
Q 2538 409 2786 701 
Q 3034 994 3034 1497 
Q 3034 2003 2786 2293 
Q 2538 2584 2113 2584 
z
M 3366 4563 
L 3366 3988 
Q 3128 4100 2886 4159 
Q 2644 4219 2406 4219 
Q 1781 4219 1451 3797 
Q 1122 3375 1075 2522 
Q 1259 2794 1537 2939 
Q 1816 3084 2150 3084 
Q 2853 3084 3261 2657 
Q 3669 2231 3669 1497 
Q 3669 778 3244 343 
Q 2819 -91 2113 -91 
Q 1303 -91 875 529 
Q 447 1150 447 2328 
Q 447 3434 972 4092 
Q 1497 4750 2381 4750 
Q 2619 4750 2861 4703 
Q 3103 4656 3366 4563 
z
" transform="scale(0.015625)"/>
        <path id="DejaVuSans-54" d="M -19 4666 
L 3928 4666 
L 3928 4134 
L 2272 4134 
L 2272 0 
L 1638 0 
L 1638 4134 
L -19 4134 
L -19 4666 
z
" transform="scale(0.015625)"/>
       </defs>
       <use xlink:href="#DejaVuSans-4c"/>
       <use xlink:href="#DejaVuSans-36" x="55.712891"/>
       <use xlink:href="#DejaVuSans-20" x="119.335938"/>
       <use xlink:href="#DejaVuSans-43" x="151.123047"/>
       <use xlink:href="#DejaVuSans-54" x="220.947266"/>
      </g>
     </g>
    </g>
    <g id="ytick_4">
     <g id="text_9">
      <!-- L5 ET -->
      <g transform="translate(33.635937 89.66845)scale(0.1 -0.1)">
       <defs>
        <path id="DejaVuSans-45" d="M 628 4666 
L 3578 4666 
L 3578 4134 
L 1259 4134 
L 1259 2753 
L 3481 2753 
L 3481 2222 
L 1259 2222 
L 1259 531 
L 3634 531 
L 3634 0 
L 628 0 
L 628 4666 
z
" transform="scale(0.015625)"/>
       </defs>
       <use xlink:href="#DejaVuSans-4c"/>
       <use xlink:href="#DejaVuSans-35" x="55.712891"/>
       <use xlink:href="#DejaVuSans-20" x="119.335938"/>
       <use xlink:href="#DejaVuSans-45" x="151.123047"/>
       <use xlink:href="#DejaVuSans-54" x="214.306641"/>
      </g>
     </g>
    </g>
    <g id="ytick_5">
     <g id="text_10">
      <!-- Lamp5 -->
      <g transform="translate(27.023437 106.545373)scale(0.1 -0.1)">
       <use xlink:href="#DejaVuSans-4c"/>
       <use xlink:href="#DejaVuSans-61" x="55.712891"/>
       <use xlink:href="#DejaVuSans-6d" x="116.992188"/>
       <use xlink:href="#DejaVuSans-70" x="214.404297"/>
       <use xlink:href="#DejaVuSans-35" x="277.880859"/>
      </g>
     </g>
    </g>
    <g id="ytick_6">
     <g id="text_11">
      <!-- L6b -->
      <g transform="translate(42.892187 123.422296)scale(0.1 -0.1)">
       <defs>
        <path id="DejaVuSans-62" d="M 3116 1747 
Q 3116 2381 2855 2742 
Q 2594 3103 2138 3103 
Q 1681 3103 1420 2742 
Q 1159 2381 1159 1747 
Q 1159 1113 1420 752 
Q 1681 391 2138 391 
Q 2594 391 2855 752 
Q 3116 1113 3116 1747 
z
M 1159 2969 
Q 1341 3281 1617 3432 
Q 1894 3584 2278 3584 
Q 2916 3584 3314 3078 
Q 3713 2572 3713 1747 
Q 3713 922 3314 415 
Q 2916 -91 2278 -91 
Q 1894 -91 1617 61 
Q 1341 213 1159 525 
L 1159 0 
L 581 0 
L 581 4863 
L 1159 4863 
L 1159 2969 
z
" transform="scale(0.015625)"/>
       </defs>
       <use xlink:href="#DejaVuSans-4c"/>
       <use xlink:href="#DejaVuSans-36" x="55.712891"/>
       <use xlink:href="#DejaVuSans-62" x="119.335938"/>
      </g>
     </g>
    </g>
    <g id="ytick_7">
     <g id="text_12">
      <!-- Sst -->
      <g transform="translate(45.696875 140.299219)scale(0.1 -0.1)">
       <defs>
        <path id="DejaVuSans-53" d="M 3425 4513 
L 3425 3897 
Q 3066 4069 2747 4153 
Q 2428 4238 2131 4238 
Q 1616 4238 1336 4038 
Q 1056 3838 1056 3469 
Q 1056 3159 1242 3001 
Q 1428 2844 1947 2747 
L 2328 2669 
Q 3034 2534 3370 2195 
Q 3706 1856 3706 1288 
Q 3706 609 3251 259 
Q 2797 -91 1919 -91 
Q 1588 -91 1214 -16 
Q 841 59 441 206 
L 441 856 
Q 825 641 1194 531 
Q 1563 422 1919 422 
Q 2459 422 2753 634 
Q 3047 847 3047 1241 
Q 3047 1584 2836 1778 
Q 2625 1972 2144 2069 
L 1759 2144 
Q 1053 2284 737 2584 
Q 422 2884 422 3419 
Q 422 4038 858 4394 
Q 1294 4750 2059 4750 
Q 2388 4750 2728 4690 
Q 3069 4631 3425 4513 
z
" transform="scale(0.015625)"/>
       </defs>
       <use xlink:href="#DejaVuSans-53"/>
       <use xlink:href="#DejaVuSans-73" x="63.476562"/>
       <use xlink:href="#DejaVuSans-74" x="115.576172"/>
      </g>
     </g>
    </g>
    <g id="ytick_8">
     <g id="text_13">
      <!-- Astro -->
      <g transform="translate(35.2 157.176142)scale(0.1 -0.1)">
       <defs>
        <path id="DejaVuSans-41" d="M 2188 4044 
L 1331 1722 
L 3047 1722 
L 2188 4044 
z
M 1831 4666 
L 2547 4666 
L 4325 0 
L 3669 0 
L 3244 1197 
L 1141 1197 
L 716 0 
L 50 0 
L 1831 4666 
z
" transform="scale(0.015625)"/>
       </defs>
       <use xlink:href="#DejaVuSans-41"/>
       <use xlink:href="#DejaVuSans-73" x="68.408203"/>
       <use xlink:href="#DejaVuSans-74" x="120.507812"/>
       <use xlink:href="#DejaVuSans-72" x="159.716797"/>
       <use xlink:href="#DejaVuSans-6f" x="198.580078"/>
      </g>
     </g>
    </g>
    <g id="ytick_9">
     <g id="text_14">
      <!-- Pvalb -->
      <g transform="translate(33.971875 174.053065)scale(0.1 -0.1)">
       <defs>
        <path id="DejaVuSans-76" d="M 191 3500 
L 800 3500 
L 1894 563 
L 2988 3500 
L 3597 3500 
L 2284 0 
L 1503 0 
L 191 3500 
z
" transform="scale(0.015625)"/>
       </defs>
       <use xlink:href="#DejaVuSans-50"/>
       <use xlink:href="#DejaVuSans-76" x="60.302734"/>
       <use xlink:href="#DejaVuSans-61" x="119.482422"/>
       <use xlink:href="#DejaVuSans-6c" x="180.761719"/>
       <use xlink:href="#DejaVuSans-62" x="208.544922"/>
      </g>
     </g>
    </g>
    <g id="ytick_10">
     <g id="text_15">
      <!-- L6 IT -->
      <g transform="translate(37.004687 190.929988)scale(0.1 -0.1)">
       <defs>
        <path id="DejaVuSans-49" d="M 628 4666 
L 1259 4666 
L 1259 0 
L 628 0 
L 628 4666 
z
" transform="scale(0.015625)"/>
       </defs>
       <use xlink:href="#DejaVuSans-4c"/>
       <use xlink:href="#DejaVuSans-36" x="55.712891"/>
       <use xlink:href="#DejaVuSans-20" x="119.335938"/>
       <use xlink:href="#DejaVuSans-49" x="151.123047"/>
       <use xlink:href="#DejaVuSans-54" x="180.615234"/>
      </g>
     </g>
    </g>
    <g id="ytick_11">
     <g id="text_16">
      <!-- L5 IT -->
      <g transform="translate(37.004687 207.806911)scale(0.1 -0.1)">
       <use xlink:href="#DejaVuSans-4c"/>
       <use xlink:href="#DejaVuSans-35" x="55.712891"/>
       <use xlink:href="#DejaVuSans-20" x="119.335938"/>
       <use xlink:href="#DejaVuSans-49" x="151.123047"/>
       <use xlink:href="#DejaVuSans-54" x="180.615234"/>
      </g>
     </g>
    </g>
    <g id="ytick_12">
     <g id="text_17">
      <!-- L6 IT Car3 -->
      <g transform="translate(10.242187 224.683834)scale(0.1 -0.1)">
       <defs>
        <path id="DejaVuSans-33" d="M 2597 2516 
Q 3050 2419 3304 2112 
Q 3559 1806 3559 1356 
Q 3559 666 3084 287 
Q 2609 -91 1734 -91 
Q 1441 -91 1130 -33 
Q 819 25 488 141 
L 488 750 
Q 750 597 1062 519 
Q 1375 441 1716 441 
Q 2309 441 2620 675 
Q 2931 909 2931 1356 
Q 2931 1769 2642 2001 
Q 2353 2234 1838 2234 
L 1294 2234 
L 1294 2753 
L 1863 2753 
Q 2328 2753 2575 2939 
Q 2822 3125 2822 3475 
Q 2822 3834 2567 4026 
Q 2313 4219 1838 4219 
Q 1578 4219 1281 4162 
Q 984 4106 628 3988 
L 628 4550 
Q 988 4650 1302 4700 
Q 1616 4750 1894 4750 
Q 2613 4750 3031 4423 
Q 3450 4097 3450 3541 
Q 3450 3153 3228 2886 
Q 3006 2619 2597 2516 
z
" transform="scale(0.015625)"/>
       </defs>
       <use xlink:href="#DejaVuSans-4c"/>
       <use xlink:href="#DejaVuSans-36" x="55.712891"/>
       <use xlink:href="#DejaVuSans-20" x="119.335938"/>
       <use xlink:href="#DejaVuSans-49" x="151.123047"/>
       <use xlink:href="#DejaVuSans-54" x="180.615234"/>
       <use xlink:href="#DejaVuSans-20" x="241.699219"/>
       <use xlink:href="#DejaVuSans-43" x="273.486328"/>
       <use xlink:href="#DejaVuSans-61" x="343.310547"/>
       <use xlink:href="#DejaVuSans-72" x="404.589844"/>
       <use xlink:href="#DejaVuSans-33" x="445.703125"/>
      </g>
     </g>
    </g>
    <g id="ytick_13">
     <g id="text_18">
      <!-- L2/3 IT -->
      <g transform="translate(27.273437 241.560757)scale(0.1 -0.1)">
       <defs>
        <path id="DejaVuSans-32" d="M 1228 531 
L 3431 531 
L 3431 0 
L 469 0 
L 469 531 
Q 828 903 1448 1529 
Q 2069 2156 2228 2338 
Q 2531 2678 2651 2914 
Q 2772 3150 2772 3378 
Q 2772 3750 2511 3984 
Q 2250 4219 1831 4219 
Q 1534 4219 1204 4116 
Q 875 4013 500 3803 
L 500 4441 
Q 881 4594 1212 4672 
Q 1544 4750 1819 4750 
Q 2544 4750 2975 4387 
Q 3406 4025 3406 3419 
Q 3406 3131 3298 2873 
Q 3191 2616 2906 2266 
Q 2828 2175 2409 1742 
Q 1991 1309 1228 531 
z
" transform="scale(0.015625)"/>
       </defs>
       <use xlink:href="#DejaVuSans-4c"/>
       <use xlink:href="#DejaVuSans-32" x="55.712891"/>
       <use xlink:href="#DejaVuSans-2f" x="119.335938"/>
       <use xlink:href="#DejaVuSans-33" x="153.027344"/>
       <use xlink:href="#DejaVuSans-20" x="216.650391"/>
       <use xlink:href="#DejaVuSans-49" x="248.4375"/>
       <use xlink:href="#DejaVuSans-54" x="277.929688"/>
      </g>
     </g>
    </g>
   </g>
   <g id="line2d_1">
    <path d="M 273.010465 246.2 
L 273.010465 26.8 
" clip-path="url(#p2da6be6e03)" style="fill: none; stroke-dasharray: 5.55,2.4; stroke-dashoffset: 0; stroke: #808080; stroke-width: 1.5"/>
   </g>
   <g id="patch_17">
    <path d="M 68.175 246.2 
L 68.175 26.8 
" style="fill: none; stroke: #000000; stroke-width: 0.8; stroke-linejoin: miter; stroke-linecap: square"/>
   </g>
   <g id="PathCollection_7">
    <defs>
     <path id="C0_0_821640af34" d="M 0 2.5 
C 0.663008 2.5 1.29895 2.236584 1.767767 1.767767 
C 2.236584 1.29895 2.5 0.663008 2.5 -0 
C 2.5 -0.663008 2.236584 -1.29895 1.767767 -1.767767 
C 1.29895 -2.236584 0.663008 -2.5 0 -2.5 
C -0.663008 -2.5 -1.29895 -2.236584 -1.767767 -1.767767 
C -2.236584 -1.29895 -2.5 -0.663008 -2.5 0 
C -2.5 0.663008 -2.236584 1.29895 -1.767767 1.767767 
C -1.29895 2.236584 -0.663008 2.5 0 2.5 
z
"/>
    </defs>
    <g clip-path="url(#p2da6be6e03)">
     <use xlink:href="#C0_0_821640af34" x="108.027143" y="36.645775" style="fill: #539ecd"/>
    </g>
    <g clip-path="url(#p2da6be6e03)">
     <use xlink:href="#C0_0_821640af34" x="113.004875" y="36.854635" style="fill: #0b559f"/>
    </g>
    <g clip-path="url(#p2da6be6e03)">
     <use xlink:href="#C0_0_821640af34" x="99.329525" y="34.515977" style="fill: #2b7bba"/>
    </g>
    <g clip-path="url(#p2da6be6e03)">
     <use xlink:href="#C0_0_821640af34" x="143.035587" y="35.025199" style="fill: #bad6eb"/>
    </g>
    <g clip-path="url(#p2da6be6e03)">
     <use xlink:href="#C0_0_821640af34" x="137.26978" y="35.943095" style="fill: #bad6eb"/>
    </g>
    <g clip-path="url(#p2da6be6e03)">
     <use xlink:href="#C0_0_821640af34" x="236.148031" y="35.093429" style="fill: #dbe9f6"/>
    </g>
    <g clip-path="url(#p2da6be6e03)">
     <use xlink:href="#C0_0_821640af34" x="165.635695" y="33.958792" style="fill: #0b559f"/>
    </g>
    <g clip-path="url(#p2da6be6e03)">
     <use xlink:href="#C0_0_821640af34" x="165.564403" y="36.717454" style="fill: #dbe9f6"/>
    </g>
    <g clip-path="url(#p2da6be6e03)">
     <use xlink:href="#C0_0_821640af34" x="162.779659" y="36.688527" style="fill: #89bedc"/>
    </g>
    <g clip-path="url(#p2da6be6e03)">
     <use xlink:href="#C0_0_821640af34" x="79.699318" y="34.510732" style="fill: #539ecd"/>
    </g>
    <g clip-path="url(#p2da6be6e03)">
     <use xlink:href="#C0_0_821640af34" x="151.72987" y="34.997606" style="fill: #89bedc"/>
    </g>
    <g clip-path="url(#p2da6be6e03)">
     <use xlink:href="#C0_0_821640af34" x="140.375776" y="34.4468" style="fill: #2b7bba"/>
    </g>
   </g>
   <g id="PathCollection_8">
    <defs>
     <path id="C1_0_ec92b06c63" d="M 0 2.5 
C 0.663008 2.5 1.29895 2.236584 1.767767 1.767767 
C 2.236584 1.29895 2.5 0.663008 2.5 -0 
C 2.5 -0.663008 2.236584 -1.29895 1.767767 -1.767767 
C 1.29895 -2.236584 0.663008 -2.5 0 -2.5 
C -0.663008 -2.5 -1.29895 -2.236584 -1.767767 -1.767767 
C -2.236584 -1.29895 -2.5 -0.663008 -2.5 0 
C -2.5 0.663008 -2.236584 1.29895 -1.767767 1.767767 
C -1.29895 2.236584 -0.663008 2.5 0 2.5 
z
"/>
    </defs>
    <g clip-path="url(#p2da6be6e03)">
     <use xlink:href="#C1_0_ec92b06c63" x="177.319572" y="51.003186" style="fill: #2b7bba"/>
    </g>
    <g clip-path="url(#p2da6be6e03)">
     <use xlink:href="#C1_0_ec92b06c63" x="192.319824" y="53.409041" style="fill: #539ecd"/>
    </g>
    <g clip-path="url(#p2da6be6e03)">
     <use xlink:href="#C1_0_ec92b06c63" x="174.215636" y="51.995306" style="fill: #bad6eb"/>
    </g>
    <g clip-path="url(#p2da6be6e03)">
     <use xlink:href="#C1_0_ec92b06c63" x="177.929961" y="50.45483" style="fill: #2b7bba"/>
    </g>
    <g clip-path="url(#p2da6be6e03)">
     <use xlink:href="#C1_0_ec92b06c63" x="215.027043" y="53.633769" style="fill: #0b559f"/>
    </g>
    <g clip-path="url(#p2da6be6e03)">
     <use xlink:href="#C1_0_ec92b06c63" x="173.567441" y="52.782328" style="fill: #539ecd"/>
    </g>
    <g clip-path="url(#p2da6be6e03)">
     <use xlink:href="#C1_0_ec92b06c63" x="186.518865" y="50.628466" style="fill: #dbe9f6"/>
    </g>
    <g clip-path="url(#p2da6be6e03)">
     <use xlink:href="#C1_0_ec92b06c63" x="215.431276" y="51.127366" style="fill: #dbe9f6"/>
    </g>
    <g clip-path="url(#p2da6be6e03)">
     <use xlink:href="#C1_0_ec92b06c63" x="196.82227" y="50.72951" style="fill: #bad6eb"/>
    </g>
    <g clip-path="url(#p2da6be6e03)">
     <use xlink:href="#C1_0_ec92b06c63" x="186.9813" y="51.201536" style="fill: #0b559f"/>
    </g>
    <g clip-path="url(#p2da6be6e03)">
     <use xlink:href="#C1_0_ec92b06c63" x="209.658449" y="53.700598" style="fill: #89bedc"/>
    </g>
    <g clip-path="url(#p2da6be6e03)">
     <use xlink:href="#C1_0_ec92b06c63" x="231.947986" y="50.896331" style="fill: #89bedc"/>
    </g>
   </g>
   <g id="PathCollection_9">
    <defs>
     <path id="C2_0_7fc9e68dc9" d="M 0 2.5 
C 0.663008 2.5 1.29895 2.236584 1.767767 1.767767 
C 2.236584 1.29895 2.5 0.663008 2.5 -0 
C 2.5 -0.663008 2.236584 -1.29895 1.767767 -1.767767 
C 1.29895 -2.236584 0.663008 -2.5 0 -2.5 
C -0.663008 -2.5 -1.29895 -2.236584 -1.767767 -1.767767 
C -2.236584 -1.29895 -2.5 -0.663008 -2.5 0 
C -2.5 0.663008 -2.236584 1.29895 -1.767767 1.767767 
C -1.29895 2.236584 -0.663008 2.5 0 2.5 
z
"/>
    </defs>
    <g clip-path="url(#p2da6be6e03)">
     <use xlink:href="#C2_0_7fc9e68dc9" x="221.920908" y="69.045859" style="fill: #bad6eb"/>
    </g>
    <g clip-path="url(#p2da6be6e03)">
     <use xlink:href="#C2_0_7fc9e68dc9" x="233.770355" y="67.992008" style="fill: #539ecd"/>
    </g>
    <g clip-path="url(#p2da6be6e03)">
     <use xlink:href="#C2_0_7fc9e68dc9" x="198.894719" y="68.777836" style="fill: #0b559f"/>
    </g>
    <g clip-path="url(#p2da6be6e03)">
     <use xlink:href="#C2_0_7fc9e68dc9" x="206.142874" y="68.352924" style="fill: #2b7bba"/>
    </g>
    <g clip-path="url(#p2da6be6e03)">
     <use xlink:href="#C2_0_7fc9e68dc9" x="202.229485" y="68.063228" style="fill: #2b7bba"/>
    </g>
    <g clip-path="url(#p2da6be6e03)">
     <use xlink:href="#C2_0_7fc9e68dc9" x="222.077622" y="68.227796" style="fill: #89bedc"/>
    </g>
    <g clip-path="url(#p2da6be6e03)">
     <use xlink:href="#C2_0_7fc9e68dc9" x="185.844741" y="70.170572" style="fill: #bad6eb"/>
    </g>
    <g clip-path="url(#p2da6be6e03)">
     <use xlink:href="#C2_0_7fc9e68dc9" x="236.51204" y="68.920594" style="fill: #dbe9f6"/>
    </g>
    <g clip-path="url(#p2da6be6e03)">
     <use xlink:href="#C2_0_7fc9e68dc9" x="238.898964" y="69.903716" style="fill: #0b559f"/>
    </g>
    <g clip-path="url(#p2da6be6e03)">
     <use xlink:href="#C2_0_7fc9e68dc9" x="240.788361" y="70.599962" style="fill: #dbe9f6"/>
    </g>
    <g clip-path="url(#p2da6be6e03)">
     <use xlink:href="#C2_0_7fc9e68dc9" x="204.226271" y="69.998169" style="fill: #89bedc"/>
    </g>
    <g clip-path="url(#p2da6be6e03)">
     <use xlink:href="#C2_0_7fc9e68dc9" x="203.283664" y="69.975782" style="fill: #539ecd"/>
    </g>
   </g>
   <g id="PathCollection_10">
    <defs>
     <path id="C3_0_45894be5aa" d="M 0 2.5 
C 0.663008 2.5 1.29895 2.236584 1.767767 1.767767 
C 2.236584 1.29895 2.5 0.663008 2.5 -0 
C 2.5 -0.663008 2.236584 -1.29895 1.767767 -1.767767 
C 1.29895 -2.236584 0.663008 -2.5 0 -2.5 
C -0.663008 -2.5 -1.29895 -2.236584 -1.767767 -1.767767 
C -2.236584 -1.29895 -2.5 -0.663008 -2.5 0 
C -2.5 0.663008 -2.236584 1.29895 -1.767767 1.767767 
C -1.29895 2.236584 -0.663008 2.5 0 2.5 
z
"/>
    </defs>
    <g clip-path="url(#p2da6be6e03)">
     <use xlink:href="#C3_0_45894be5aa" x="229.405037" y="85.168852" style="fill: #539ecd"/>
    </g>
    <g clip-path="url(#p2da6be6e03)">
     <use xlink:href="#C3_0_45894be5aa" x="212.92956" y="86.956242" style="fill: #89bedc"/>
    </g>
    <g clip-path="url(#p2da6be6e03)">
     <use xlink:href="#C3_0_45894be5aa" x="244.355282" y="85.235706" style="fill: #0b559f"/>
    </g>
    <g clip-path="url(#p2da6be6e03)">
     <use xlink:href="#C3_0_45894be5aa" x="224.14836" y="86.385638" style="fill: #bad6eb"/>
    </g>
    <g clip-path="url(#p2da6be6e03)">
     <use xlink:href="#C3_0_45894be5aa" x="226.053982" y="87.120796" style="fill: #2b7bba"/>
    </g>
    <g clip-path="url(#p2da6be6e03)">
     <use xlink:href="#C3_0_45894be5aa" x="227.480466" y="84.612718" style="fill: #dbe9f6"/>
    </g>
    <g clip-path="url(#p2da6be6e03)">
     <use xlink:href="#C3_0_45894be5aa" x="211.304001" y="86.42356" style="fill: #89bedc"/>
    </g>
    <g clip-path="url(#p2da6be6e03)">
     <use xlink:href="#C3_0_45894be5aa" x="202.488396" y="84.318884" style="fill: #bad6eb"/>
    </g>
    <g clip-path="url(#p2da6be6e03)">
     <use xlink:href="#C3_0_45894be5aa" x="222.984579" y="85.115762" style="fill: #0b559f"/>
    </g>
    <g clip-path="url(#p2da6be6e03)">
     <use xlink:href="#C3_0_45894be5aa" x="235.175956" y="86.856014" style="fill: #dbe9f6"/>
    </g>
    <g clip-path="url(#p2da6be6e03)">
     <use xlink:href="#C3_0_45894be5aa" x="210.424081" y="87.39715" style="fill: #539ecd"/>
    </g>
    <g clip-path="url(#p2da6be6e03)">
     <use xlink:href="#C3_0_45894be5aa" x="215.488308" y="85.852155" style="fill: #2b7bba"/>
    </g>
   </g>
   <g id="PathCollection_11">
    <defs>
     <path id="C4_0_1b4e7c15b0" d="M 0 2.5 
C 0.663008 2.5 1.29895 2.236584 1.767767 1.767767 
C 2.236584 1.29895 2.5 0.663008 2.5 -0 
C 2.5 -0.663008 2.236584 -1.29895 1.767767 -1.767767 
C 1.29895 -2.236584 0.663008 -2.5 0 -2.5 
C -0.663008 -2.5 -1.29895 -2.236584 -1.767767 -1.767767 
C -2.236584 -1.29895 -2.5 -0.663008 -2.5 0 
C -2.5 0.663008 -2.236584 1.29895 -1.767767 1.767767 
C -1.29895 2.236584 -0.663008 2.5 0 2.5 
z
"/>
    </defs>
    <g clip-path="url(#p2da6be6e03)">
     <use xlink:href="#C4_0_1b4e7c15b0" x="220.642136" y="101.820432" style="fill: #2b7bba"/>
    </g>
    <g clip-path="url(#p2da6be6e03)">
     <use xlink:href="#C4_0_1b4e7c15b0" x="225.28498" y="102.92082" style="fill: #89bedc"/>
    </g>
    <g clip-path="url(#p2da6be6e03)">
     <use xlink:href="#C4_0_1b4e7c15b0" x="254.290317" y="101.842494" style="fill: #89bedc"/>
    </g>
    <g clip-path="url(#p2da6be6e03)">
     <use xlink:href="#C4_0_1b4e7c15b0" x="251.365923" y="103.592062" style="fill: #539ecd"/>
    </g>
    <g clip-path="url(#p2da6be6e03)">
     <use xlink:href="#C4_0_1b4e7c15b0" x="243.246855" y="104.301696" style="fill: #0b559f"/>
    </g>
    <g clip-path="url(#p2da6be6e03)">
     <use xlink:href="#C4_0_1b4e7c15b0" x="259.348031" y="101.490065" style="fill: #dbe9f6"/>
    </g>
    <g clip-path="url(#p2da6be6e03)">
     <use xlink:href="#C4_0_1b4e7c15b0" x="241.001665" y="101.100274" style="fill: #539ecd"/>
    </g>
    <g clip-path="url(#p2da6be6e03)">
     <use xlink:href="#C4_0_1b4e7c15b0" x="223.440393" y="103.996506" style="fill: #2b7bba"/>
    </g>
    <g clip-path="url(#p2da6be6e03)">
     <use xlink:href="#C4_0_1b4e7c15b0" x="230.749159" y="102.341335" style="fill: #bad6eb"/>
    </g>
    <g clip-path="url(#p2da6be6e03)">
     <use xlink:href="#C4_0_1b4e7c15b0" x="241.637462" y="101.813302" style="fill: #dbe9f6"/>
    </g>
    <g clip-path="url(#p2da6be6e03)">
     <use xlink:href="#C4_0_1b4e7c15b0" x="250.668598" y="103.342719" style="fill: #0b559f"/>
    </g>
    <g clip-path="url(#p2da6be6e03)">
     <use xlink:href="#C4_0_1b4e7c15b0" x="226.562074" y="101.153512" style="fill: #bad6eb"/>
    </g>
   </g>
   <g id="PathCollection_12">
    <defs>
     <path id="C5_0_7ed3b8ea6d" d="M 0 2.5 
C 0.663008 2.5 1.29895 2.236584 1.767767 1.767767 
C 2.236584 1.29895 2.5 0.663008 2.5 -0 
C 2.5 -0.663008 2.236584 -1.29895 1.767767 -1.767767 
C 1.29895 -2.236584 0.663008 -2.5 0 -2.5 
C -0.663008 -2.5 -1.29895 -2.236584 -1.767767 -1.767767 
C -2.236584 -1.29895 -2.5 -0.663008 -2.5 0 
C -2.5 0.663008 -2.236584 1.29895 -1.767767 1.767767 
C -1.29895 2.236584 -0.663008 2.5 0 2.5 
z
"/>
    </defs>
    <g clip-path="url(#p2da6be6e03)">
     <use xlink:href="#C5_0_7ed3b8ea6d" x="219.786415" y="118.78232" style="fill: #bad6eb"/>
    </g>
    <g clip-path="url(#p2da6be6e03)">
     <use xlink:href="#C5_0_7ed3b8ea6d" x="254.370538" y="121.28538" style="fill: #0b559f"/>
    </g>
    <g clip-path="url(#p2da6be6e03)">
     <use xlink:href="#C5_0_7ed3b8ea6d" x="258.223732" y="121.308719" style="fill: #dbe9f6"/>
    </g>
    <g clip-path="url(#p2da6be6e03)">
     <use xlink:href="#C5_0_7ed3b8ea6d" x="231.215146" y="119.469384" style="fill: #2b7bba"/>
    </g>
    <g clip-path="url(#p2da6be6e03)">
     <use xlink:href="#C5_0_7ed3b8ea6d" x="232.562671" y="118.892092" style="fill: #89bedc"/>
    </g>
    <g clip-path="url(#p2da6be6e03)">
     <use xlink:href="#C5_0_7ed3b8ea6d" x="255.047667" y="118.403746" style="fill: #539ecd"/>
    </g>
    <g clip-path="url(#p2da6be6e03)">
     <use xlink:href="#C5_0_7ed3b8ea6d" x="218.983004" y="118.023631" style="fill: #539ecd"/>
    </g>
    <g clip-path="url(#p2da6be6e03)">
     <use xlink:href="#C5_0_7ed3b8ea6d" x="249.429324" y="119.907316" style="fill: #89bedc"/>
    </g>
    <g clip-path="url(#p2da6be6e03)">
     <use xlink:href="#C5_0_7ed3b8ea6d" x="232.556908" y="120.861603" style="fill: #2b7bba"/>
    </g>
    <g clip-path="url(#p2da6be6e03)">
     <use xlink:href="#C5_0_7ed3b8ea6d" x="246.070894" y="120.697163" style="fill: #bad6eb"/>
    </g>
    <g clip-path="url(#p2da6be6e03)">
     <use xlink:href="#C5_0_7ed3b8ea6d" x="254.466325" y="118.25165" style="fill: #0b559f"/>
    </g>
   </g>
   <g id="PathCollection_13">
    <defs>
     <path id="C6_0_1a24d8a676" d="M 0 2.5 
C 0.663008 2.5 1.29895 2.236584 1.767767 1.767767 
C 2.236584 1.29895 2.5 0.663008 2.5 -0 
C 2.5 -0.663008 2.236584 -1.29895 1.767767 -1.767767 
C 1.29895 -2.236584 0.663008 -2.5 0 -2.5 
C -0.663008 -2.5 -1.29895 -2.236584 -1.767767 -1.767767 
C -2.236584 -1.29895 -2.5 -0.663008 -2.5 0 
C -2.5 0.663008 -2.236584 1.29895 -1.767767 1.767767 
C -1.29895 2.236584 -0.663008 2.5 0 2.5 
z
"/>
    </defs>
    <g clip-path="url(#p2da6be6e03)">
     <use xlink:href="#C6_0_1a24d8a676" x="260.591468" y="137.047567" style="fill: #89bedc"/>
    </g>
    <g clip-path="url(#p2da6be6e03)">
     <use xlink:href="#C6_0_1a24d8a676" x="221.287244" y="135.867334" style="fill: #539ecd"/>
    </g>
    <g clip-path="url(#p2da6be6e03)">
     <use xlink:href="#C6_0_1a24d8a676" x="254.12439" y="137.076022" style="fill: #dbe9f6"/>
    </g>
    <g clip-path="url(#p2da6be6e03)">
     <use xlink:href="#C6_0_1a24d8a676" x="255.350684" y="136.080857" style="fill: #2b7bba"/>
    </g>
    <g clip-path="url(#p2da6be6e03)">
     <use xlink:href="#C6_0_1a24d8a676" x="239.39393" y="136.23795" style="fill: #bad6eb"/>
    </g>
    <g clip-path="url(#p2da6be6e03)">
     <use xlink:href="#C6_0_1a24d8a676" x="258.827771" y="137.196179" style="fill: #0b559f"/>
    </g>
    <g clip-path="url(#p2da6be6e03)">
     <use xlink:href="#C6_0_1a24d8a676" x="236.089265" y="135.291535" style="fill: #0b559f"/>
    </g>
    <g clip-path="url(#p2da6be6e03)">
     <use xlink:href="#C6_0_1a24d8a676" x="247.231339" y="137.189801" style="fill: #dbe9f6"/>
    </g>
    <g clip-path="url(#p2da6be6e03)">
     <use xlink:href="#C6_0_1a24d8a676" x="245.999354" y="135.514054" style="fill: #89bedc"/>
    </g>
    <g clip-path="url(#p2da6be6e03)">
     <use xlink:href="#C6_0_1a24d8a676" x="242.032493" y="136.090808" style="fill: #2b7bba"/>
    </g>
    <g clip-path="url(#p2da6be6e03)">
     <use xlink:href="#C6_0_1a24d8a676" x="242.416637" y="134.985077" style="fill: #539ecd"/>
    </g>
    <g clip-path="url(#p2da6be6e03)">
     <use xlink:href="#C6_0_1a24d8a676" x="223.694466" y="137.632137" style="fill: #bad6eb"/>
    </g>
   </g>
   <g id="PathCollection_14">
    <defs>
     <path id="C7_0_b925b7ed94" d="M 0 2.5 
C 0.663008 2.5 1.29895 2.236584 1.767767 1.767767 
C 2.236584 1.29895 2.5 0.663008 2.5 -0 
C 2.5 -0.663008 2.236584 -1.29895 1.767767 -1.767767 
C 1.29895 -2.236584 0.663008 -2.5 0 -2.5 
C -0.663008 -2.5 -1.29895 -2.236584 -1.767767 -1.767767 
C -2.236584 -1.29895 -2.5 -0.663008 -2.5 0 
C -2.5 0.663008 -2.236584 1.29895 -1.767767 1.767767 
C -1.29895 2.236584 -0.663008 2.5 0 2.5 
z
"/>
    </defs>
    <g clip-path="url(#p2da6be6e03)">
     <use xlink:href="#C7_0_b925b7ed94" x="256.720225" y="154.043671" style="fill: #bad6eb"/>
    </g>
    <g clip-path="url(#p2da6be6e03)">
     <use xlink:href="#C7_0_b925b7ed94" x="262.463159" y="152.016562" style="fill: #539ecd"/>
    </g>
    <g clip-path="url(#p2da6be6e03)">
     <use xlink:href="#C7_0_b925b7ed94" x="239.807236" y="153.988424" style="fill: #0b559f"/>
    </g>
   </g>
   <g id="PathCollection_15">
    <defs>
     <path id="C8_0_a0d07058aa" d="M 0 2.5 
C 0.663008 2.5 1.29895 2.236584 1.767767 1.767767 
C 2.236584 1.29895 2.5 0.663008 2.5 -0 
C 2.5 -0.663008 2.236584 -1.29895 1.767767 -1.767767 
C 1.29895 -2.236584 0.663008 -2.5 0 -2.5 
C -0.663008 -2.5 -1.29895 -2.236584 -1.767767 -1.767767 
C -2.236584 -1.29895 -2.5 -0.663008 -2.5 0 
C -2.5 0.663008 -2.236584 1.29895 -1.767767 1.767767 
C -1.29895 2.236584 -0.663008 2.5 0 2.5 
z
"/>
    </defs>
    <g clip-path="url(#p2da6be6e03)">
     <use xlink:href="#C8_0_a0d07058aa" x="248.787629" y="170.667331" style="fill: #89bedc"/>
    </g>
    <g clip-path="url(#p2da6be6e03)">
     <use xlink:href="#C8_0_a0d07058aa" x="261.291648" y="169.943488" style="fill: #2b7bba"/>
    </g>
    <g clip-path="url(#p2da6be6e03)">
     <use xlink:href="#C8_0_a0d07058aa" x="243.189915" y="169.281519" style="fill: #bad6eb"/>
    </g>
    <g clip-path="url(#p2da6be6e03)">
     <use xlink:href="#C8_0_a0d07058aa" x="264.31382" y="171.08484" style="fill: #89bedc"/>
    </g>
    <g clip-path="url(#p2da6be6e03)">
     <use xlink:href="#C8_0_a0d07058aa" x="238.370718" y="170.812087" style="fill: #2b7bba"/>
    </g>
    <g clip-path="url(#p2da6be6e03)">
     <use xlink:href="#C8_0_a0d07058aa" x="258.293709" y="168.832671" style="fill: #bad6eb"/>
    </g>
    <g clip-path="url(#p2da6be6e03)">
     <use xlink:href="#C8_0_a0d07058aa" x="241.673972" y="171.692875" style="fill: #539ecd"/>
    </g>
    <g clip-path="url(#p2da6be6e03)">
     <use xlink:href="#C8_0_a0d07058aa" x="250.717882" y="169.597866" style="fill: #0b559f"/>
    </g>
    <g clip-path="url(#p2da6be6e03)">
     <use xlink:href="#C8_0_a0d07058aa" x="257.572368" y="171.648805" style="fill: #0b559f"/>
    </g>
    <g clip-path="url(#p2da6be6e03)">
     <use xlink:href="#C8_0_a0d07058aa" x="261.954828" y="170.675367" style="fill: #dbe9f6"/>
    </g>
    <g clip-path="url(#p2da6be6e03)">
     <use xlink:href="#C8_0_a0d07058aa" x="260.452409" y="171.765617" style="fill: #dbe9f6"/>
    </g>
    <g clip-path="url(#p2da6be6e03)">
     <use xlink:href="#C8_0_a0d07058aa" x="250.017204" y="170.439229" style="fill: #539ecd"/>
    </g>
   </g>
   <g id="PathCollection_16">
    <defs>
     <path id="C9_0_d0c33c05ea" d="M 0 2.5 
C 0.663008 2.5 1.29895 2.236584 1.767767 1.767767 
C 2.236584 1.29895 2.5 0.663008 2.5 -0 
C 2.5 -0.663008 2.236584 -1.29895 1.767767 -1.767767 
C 1.29895 -2.236584 0.663008 -2.5 0 -2.5 
C -0.663008 -2.5 -1.29895 -2.236584 -1.767767 -1.767767 
C -2.236584 -1.29895 -2.5 -0.663008 -2.5 0 
C -2.5 0.663008 -2.236584 1.29895 -1.767767 1.767767 
C -1.29895 2.236584 -0.663008 2.5 0 2.5 
z
"/>
    </defs>
    <g clip-path="url(#p2da6be6e03)">
     <use xlink:href="#C9_0_d0c33c05ea" x="228.667574" y="188.287165" style="fill: #2b7bba"/>
    </g>
    <g clip-path="url(#p2da6be6e03)">
     <use xlink:href="#C9_0_d0c33c05ea" x="255.353522" y="186.443272" style="fill: #539ecd"/>
    </g>
    <g clip-path="url(#p2da6be6e03)">
     <use xlink:href="#C9_0_d0c33c05ea" x="257.413729" y="188.168545" style="fill: #89bedc"/>
    </g>
    <g clip-path="url(#p2da6be6e03)">
     <use xlink:href="#C9_0_d0c33c05ea" x="254.213391" y="186.204744" style="fill: #539ecd"/>
    </g>
    <g clip-path="url(#p2da6be6e03)">
     <use xlink:href="#C9_0_d0c33c05ea" x="253.015041" y="188.157148" style="fill: #dbe9f6"/>
    </g>
    <g clip-path="url(#p2da6be6e03)">
     <use xlink:href="#C9_0_d0c33c05ea" x="254.581188" y="188.099397" style="fill: #89bedc"/>
    </g>
    <g clip-path="url(#p2da6be6e03)">
     <use xlink:href="#C9_0_d0c33c05ea" x="266.308571" y="188.741626" style="fill: #0b559f"/>
    </g>
    <g clip-path="url(#p2da6be6e03)">
     <use xlink:href="#C9_0_d0c33c05ea" x="226.579431" y="187.178722" style="fill: #bad6eb"/>
    </g>
    <g clip-path="url(#p2da6be6e03)">
     <use xlink:href="#C9_0_d0c33c05ea" x="278.233262" y="187.304515" style="fill: #0b559f"/>
    </g>
    <g clip-path="url(#p2da6be6e03)">
     <use xlink:href="#C9_0_d0c33c05ea" x="288.546364" y="188.428928" style="fill: #dbe9f6"/>
    </g>
    <g clip-path="url(#p2da6be6e03)">
     <use xlink:href="#C9_0_d0c33c05ea" x="248.355374" y="188.68364" style="fill: #bad6eb"/>
    </g>
    <g clip-path="url(#p2da6be6e03)">
     <use xlink:href="#C9_0_d0c33c05ea" x="259.162783" y="186.847448" style="fill: #2b7bba"/>
    </g>
   </g>
   <g id="PathCollection_17">
    <defs>
     <path id="Ca_0_17ab27e86c" d="M 0 2.5 
C 0.663008 2.5 1.29895 2.236584 1.767767 1.767767 
C 2.236584 1.29895 2.5 0.663008 2.5 -0 
C 2.5 -0.663008 2.236584 -1.29895 1.767767 -1.767767 
C 1.29895 -2.236584 0.663008 -2.5 0 -2.5 
C -0.663008 -2.5 -1.29895 -2.236584 -1.767767 -1.767767 
C -2.236584 -1.29895 -2.5 -0.663008 -2.5 0 
C -2.5 0.663008 -2.236584 1.29895 -1.767767 1.767767 
C -1.29895 2.236584 -0.663008 2.5 0 2.5 
z
"/>
    </defs>
    <g clip-path="url(#p2da6be6e03)">
     <use xlink:href="#Ca_0_17ab27e86c" x="253.349021" y="203.309272" style="fill: #bad6eb"/>
    </g>
    <g clip-path="url(#p2da6be6e03)">
     <use xlink:href="#Ca_0_17ab27e86c" x="268.592438" y="203.432145" style="fill: #0b559f"/>
    </g>
    <g clip-path="url(#p2da6be6e03)">
     <use xlink:href="#Ca_0_17ab27e86c" x="268.914987" y="203.354734" style="fill: #2b7bba"/>
    </g>
    <g clip-path="url(#p2da6be6e03)">
     <use xlink:href="#Ca_0_17ab27e86c" x="272.587379" y="203.834159" style="fill: #89bedc"/>
    </g>
    <g clip-path="url(#p2da6be6e03)">
     <use xlink:href="#Ca_0_17ab27e86c" x="271.088523" y="204.888379" style="fill: #dbe9f6"/>
    </g>
    <g clip-path="url(#p2da6be6e03)">
     <use xlink:href="#Ca_0_17ab27e86c" x="269.702818" y="203.852465" style="fill: #539ecd"/>
    </g>
    <g clip-path="url(#p2da6be6e03)">
     <use xlink:href="#Ca_0_17ab27e86c" x="282.561562" y="204.74551" style="fill: #2b7bba"/>
    </g>
    <g clip-path="url(#p2da6be6e03)">
     <use xlink:href="#Ca_0_17ab27e86c" x="245.031008" y="203.64248" style="fill: #dbe9f6"/>
    </g>
    <g clip-path="url(#p2da6be6e03)">
     <use xlink:href="#Ca_0_17ab27e86c" x="298.1083" y="203.198515" style="fill: #539ecd"/>
    </g>
    <g clip-path="url(#p2da6be6e03)">
     <use xlink:href="#Ca_0_17ab27e86c" x="284.705489" y="205.157069" style="fill: #bad6eb"/>
    </g>
    <g clip-path="url(#p2da6be6e03)">
     <use xlink:href="#Ca_0_17ab27e86c" x="267.82102" y="203.215407" style="fill: #0b559f"/>
    </g>
   </g>
   <g id="PathCollection_18">
    <defs>
     <path id="Cb_0_9a958b7c3f" d="M 0 2.5 
C 0.663008 2.5 1.29895 2.236584 1.767767 1.767767 
C 2.236584 1.29895 2.5 0.663008 2.5 -0 
C 2.5 -0.663008 2.236584 -1.29895 1.767767 -1.767767 
C 1.29895 -2.236584 0.663008 -2.5 0 -2.5 
C -0.663008 -2.5 -1.29895 -2.236584 -1.767767 -1.767767 
C -2.236584 -1.29895 -2.5 -0.663008 -2.5 0 
C -2.5 0.663008 -2.236584 1.29895 -1.767767 1.767767 
C -1.29895 2.236584 -0.663008 2.5 0 2.5 
z
"/>
    </defs>
    <g clip-path="url(#p2da6be6e03)">
     <use xlink:href="#Cb_0_9a958b7c3f" x="275.817072" y="221.604163" style="fill: #539ecd"/>
    </g>
    <g clip-path="url(#p2da6be6e03)">
     <use xlink:href="#Cb_0_9a958b7c3f" x="278.093328" y="219.697276" style="fill: #dbe9f6"/>
    </g>
    <g clip-path="url(#p2da6be6e03)">
     <use xlink:href="#Cb_0_9a958b7c3f" x="264.360524" y="219.967565" style="fill: #2b7bba"/>
    </g>
    <g clip-path="url(#p2da6be6e03)">
     <use xlink:href="#Cb_0_9a958b7c3f" x="259.158806" y="221.236256" style="fill: #dbe9f6"/>
    </g>
    <g clip-path="url(#p2da6be6e03)">
     <use xlink:href="#Cb_0_9a958b7c3f" x="295.977477" y="222.13537" style="fill: #539ecd"/>
    </g>
    <g clip-path="url(#p2da6be6e03)">
     <use xlink:href="#Cb_0_9a958b7c3f" x="279.043233" y="220.473776" style="fill: #bad6eb"/>
    </g>
    <g clip-path="url(#p2da6be6e03)">
     <use xlink:href="#Cb_0_9a958b7c3f" x="259.583403" y="221.994205" style="fill: #89bedc"/>
    </g>
   </g>
   <g id="PathCollection_19">
    <defs>
     <path id="Cc_0_7f7d1e4cde" d="M 0 2.5 
C 0.663008 2.5 1.29895 2.236584 1.767767 1.767767 
C 2.236584 1.29895 2.5 0.663008 2.5 -0 
C 2.5 -0.663008 2.236584 -1.29895 1.767767 -1.767767 
C 1.29895 -2.236584 0.663008 -2.5 0 -2.5 
C -0.663008 -2.5 -1.29895 -2.236584 -1.767767 -1.767767 
C -2.236584 -1.29895 -2.5 -0.663008 -2.5 0 
C -2.5 0.663008 -2.236584 1.29895 -1.767767 1.767767 
C -1.29895 2.236584 -0.663008 2.5 0 2.5 
z
"/>
    </defs>
    <g clip-path="url(#p2da6be6e03)">
     <use xlink:href="#Cc_0_7f7d1e4cde" x="309.956463" y="238.765805" style="fill: #dbe9f6"/>
    </g>
    <g clip-path="url(#p2da6be6e03)">
     <use xlink:href="#Cc_0_7f7d1e4cde" x="296.756979" y="238.725711" style="fill: #bad6eb"/>
    </g>
    <g clip-path="url(#p2da6be6e03)">
     <use xlink:href="#Cc_0_7f7d1e4cde" x="282.621919" y="236.552977" style="fill: #0b559f"/>
    </g>
    <g clip-path="url(#p2da6be6e03)">
     <use xlink:href="#Cc_0_7f7d1e4cde" x="294.600018" y="238.135048" style="fill: #539ecd"/>
    </g>
    <g clip-path="url(#p2da6be6e03)">
     <use xlink:href="#Cc_0_7f7d1e4cde" x="299.107872" y="238.042399" style="fill: #0b559f"/>
    </g>
    <g clip-path="url(#p2da6be6e03)">
     <use xlink:href="#Cc_0_7f7d1e4cde" x="294.33213" y="239.366758" style="fill: #89bedc"/>
    </g>
    <g clip-path="url(#p2da6be6e03)">
     <use xlink:href="#Cc_0_7f7d1e4cde" x="304.869627" y="239.41147" style="fill: #2b7bba"/>
    </g>
    <g clip-path="url(#p2da6be6e03)">
     <use xlink:href="#Cc_0_7f7d1e4cde" x="292.161956" y="238.088918" style="fill: #539ecd"/>
    </g>
    <g clip-path="url(#p2da6be6e03)">
     <use xlink:href="#Cc_0_7f7d1e4cde" x="301.170259" y="239.278533" style="fill: #89bedc"/>
    </g>
    <g clip-path="url(#p2da6be6e03)">
     <use xlink:href="#Cc_0_7f7d1e4cde" x="264.220352" y="238.424616" style="fill: #2b7bba"/>
    </g>
    <g clip-path="url(#p2da6be6e03)">
     <use xlink:href="#Cc_0_7f7d1e4cde" x="301.641694" y="237.676279" style="fill: #bad6eb"/>
    </g>
    <g clip-path="url(#p2da6be6e03)">
     <use xlink:href="#Cc_0_7f7d1e4cde" x="310.185682" y="237.04713" style="fill: #dbe9f6"/>
    </g>
   </g>
   <g id="text_19">
    <!-- Dscaml1 -->
    <g transform="translate(168.892188 20.8)scale(0.12 -0.12)">
     <defs>
      <path id="DejaVuSans-44" d="M 1259 4147 
L 1259 519 
L 2022 519 
Q 2988 519 3436 956 
Q 3884 1394 3884 2338 
Q 3884 3275 3436 3711 
Q 2988 4147 2022 4147 
L 1259 4147 
z
M 628 4666 
L 1925 4666 
Q 3281 4666 3915 4102 
Q 4550 3538 4550 2338 
Q 4550 1131 3912 565 
Q 3275 0 1925 0 
L 628 0 
L 628 4666 
z
" transform="scale(0.015625)"/>
     </defs>
     <use xlink:href="#DejaVuSans-44"/>
     <use xlink:href="#DejaVuSans-73" x="77.001953"/>
     <use xlink:href="#DejaVuSans-63" x="129.101562"/>
     <use xlink:href="#DejaVuSans-61" x="184.082031"/>
     <use xlink:href="#DejaVuSans-6d" x="245.361328"/>
     <use xlink:href="#DejaVuSans-6c" x="342.773438"/>
     <use xlink:href="#DejaVuSans-31" x="370.556641"/>
    </g>
   </g>
   <g id="legend_1">
    <g id="patch_18">
     <path d="M 336.38675 117.86875 
L 415.42425 117.86875 
Q 417.42425 117.86875 417.42425 115.86875 
L 417.42425 28.8 
Q 417.42425 26.8 415.42425 26.8 
L 336.38675 26.8 
Q 334.38675 26.8 334.38675 28.8 
L 334.38675 115.86875 
Q 334.38675 117.86875 336.38675 117.86875 
z
" style="fill: #ffffff; opacity: 0.8; stroke: #cccccc; stroke-linejoin: miter"/>
    </g>
    <g id="PathCollection_20">
     <defs>
      <path id="m1ec9ac93b5" d="M 0 3.872983 
C 1.027127 3.872983 2.012324 3.464901 2.738613 2.738613 
C 3.464901 2.012324 3.872983 1.027127 3.872983 0 
C 3.872983 -1.027127 3.464901 -2.012324 2.738613 -2.738613 
C 2.012324 -3.464901 1.027127 -3.872983 0 -3.872983 
C -1.027127 -3.872983 -2.012324 -3.464901 -2.738613 -2.738613 
C -3.464901 -2.012324 -3.872983 -1.027127 -3.872983 0 
C -3.872983 1.027127 -3.464901 2.012324 -2.738613 2.738613 
C -2.012324 3.464901 -1.027127 3.872983 0 3.872983 
z
" style="stroke: #dbe9f6"/>
     </defs>
     <g>
      <use xlink:href="#m1ec9ac93b5" x="348.38675" y="35.773437" style="fill: #dbe9f6; stroke: #dbe9f6"/>
     </g>
    </g>
    <g id="text_20">
     <!-- Sample 1 -->
     <g transform="translate(366.38675 38.398437)scale(0.1 -0.1)">
      <use xlink:href="#DejaVuSans-53"/>
      <use xlink:href="#DejaVuSans-61" x="63.476562"/>
      <use xlink:href="#DejaVuSans-6d" x="124.755859"/>
      <use xlink:href="#DejaVuSans-70" x="222.167969"/>
      <use xlink:href="#DejaVuSans-6c" x="285.644531"/>
      <use xlink:href="#DejaVuSans-65" x="313.427734"/>
      <use xlink:href="#DejaVuSans-20" x="374.951172"/>
      <use xlink:href="#DejaVuSans-31" x="406.738281"/>
     </g>
    </g>
    <g id="PathCollection_21">
     <defs>
      <path id="m5811d33b32" d="M 0 3.872983 
C 1.027127 3.872983 2.012324 3.464901 2.738613 2.738613 
C 3.464901 2.012324 3.872983 1.027127 3.872983 0 
C 3.872983 -1.027127 3.464901 -2.012324 2.738613 -2.738613 
C 2.012324 -3.464901 1.027127 -3.872983 0 -3.872983 
C -1.027127 -3.872983 -2.012324 -3.464901 -2.738613 -2.738613 
C -3.464901 -2.012324 -3.872983 -1.027127 -3.872983 0 
C -3.872983 1.027127 -3.464901 2.012324 -2.738613 2.738613 
C -2.012324 3.464901 -1.027127 3.872983 0 3.872983 
z
" style="stroke: #bad6eb"/>
     </defs>
     <g>
      <use xlink:href="#m5811d33b32" x="348.38675" y="50.451562" style="fill: #bad6eb; stroke: #bad6eb"/>
     </g>
    </g>
    <g id="text_21">
     <!-- Sample 2 -->
     <g transform="translate(366.38675 53.076562)scale(0.1 -0.1)">
      <use xlink:href="#DejaVuSans-53"/>
      <use xlink:href="#DejaVuSans-61" x="63.476562"/>
      <use xlink:href="#DejaVuSans-6d" x="124.755859"/>
      <use xlink:href="#DejaVuSans-70" x="222.167969"/>
      <use xlink:href="#DejaVuSans-6c" x="285.644531"/>
      <use xlink:href="#DejaVuSans-65" x="313.427734"/>
      <use xlink:href="#DejaVuSans-20" x="374.951172"/>
      <use xlink:href="#DejaVuSans-32" x="406.738281"/>
     </g>
    </g>
    <g id="PathCollection_22">
     <defs>
      <path id="md5efd3c951" d="M 0 3.872983 
C 1.027127 3.872983 2.012324 3.464901 2.738613 2.738613 
C 3.464901 2.012324 3.872983 1.027127 3.872983 0 
C 3.872983 -1.027127 3.464901 -2.012324 2.738613 -2.738613 
C 2.012324 -3.464901 1.027127 -3.872983 0 -3.872983 
C -1.027127 -3.872983 -2.012324 -3.464901 -2.738613 -2.738613 
C -3.464901 -2.012324 -3.872983 -1.027127 -3.872983 0 
C -3.872983 1.027127 -3.464901 2.012324 -2.738613 2.738613 
C -2.012324 3.464901 -1.027127 3.872983 0 3.872983 
z
" style="stroke: #89bedc"/>
     </defs>
     <g>
      <use xlink:href="#md5efd3c951" x="348.38675" y="65.129687" style="fill: #89bedc; stroke: #89bedc"/>
     </g>
    </g>
    <g id="text_22">
     <!-- Sample 3 -->
     <g transform="translate(366.38675 67.754687)scale(0.1 -0.1)">
      <use xlink:href="#DejaVuSans-53"/>
      <use xlink:href="#DejaVuSans-61" x="63.476562"/>
      <use xlink:href="#DejaVuSans-6d" x="124.755859"/>
      <use xlink:href="#DejaVuSans-70" x="222.167969"/>
      <use xlink:href="#DejaVuSans-6c" x="285.644531"/>
      <use xlink:href="#DejaVuSans-65" x="313.427734"/>
      <use xlink:href="#DejaVuSans-20" x="374.951172"/>
      <use xlink:href="#DejaVuSans-33" x="406.738281"/>
     </g>
    </g>
    <g id="PathCollection_23">
     <defs>
      <path id="m88d1d377c5" d="M 0 3.872983 
C 1.027127 3.872983 2.012324 3.464901 2.738613 2.738613 
C 3.464901 2.012324 3.872983 1.027127 3.872983 0 
C 3.872983 -1.027127 3.464901 -2.012324 2.738613 -2.738613 
C 2.012324 -3.464901 1.027127 -3.872983 0 -3.872983 
C -1.027127 -3.872983 -2.012324 -3.464901 -2.738613 -2.738613 
C -3.464901 -2.012324 -3.872983 -1.027127 -3.872983 0 
C -3.872983 1.027127 -3.464901 2.012324 -2.738613 2.738613 
C -2.012324 3.464901 -1.027127 3.872983 0 3.872983 
z
" style="stroke: #539ecd"/>
     </defs>
     <g>
      <use xlink:href="#m88d1d377c5" x="348.38675" y="79.807812" style="fill: #539ecd; stroke: #539ecd"/>
     </g>
    </g>
    <g id="text_23">
     <!-- Sample 4 -->
     <g transform="translate(366.38675 82.432812)scale(0.1 -0.1)">
      <defs>
       <path id="DejaVuSans-34" d="M 2419 4116 
L 825 1625 
L 2419 1625 
L 2419 4116 
z
M 2253 4666 
L 3047 4666 
L 3047 1625 
L 3713 1625 
L 3713 1100 
L 3047 1100 
L 3047 0 
L 2419 0 
L 2419 1100 
L 313 1100 
L 313 1709 
L 2253 4666 
z
" transform="scale(0.015625)"/>
      </defs>
      <use xlink:href="#DejaVuSans-53"/>
      <use xlink:href="#DejaVuSans-61" x="63.476562"/>
      <use xlink:href="#DejaVuSans-6d" x="124.755859"/>
      <use xlink:href="#DejaVuSans-70" x="222.167969"/>
      <use xlink:href="#DejaVuSans-6c" x="285.644531"/>
      <use xlink:href="#DejaVuSans-65" x="313.427734"/>
      <use xlink:href="#DejaVuSans-20" x="374.951172"/>
      <use xlink:href="#DejaVuSans-34" x="406.738281"/>
     </g>
    </g>
    <g id="PathCollection_24">
     <defs>
      <path id="mbe9cf26190" d="M 0 3.872983 
C 1.027127 3.872983 2.012324 3.464901 2.738613 2.738613 
C 3.464901 2.012324 3.872983 1.027127 3.872983 0 
C 3.872983 -1.027127 3.464901 -2.012324 2.738613 -2.738613 
C 2.012324 -3.464901 1.027127 -3.872983 0 -3.872983 
C -1.027127 -3.872983 -2.012324 -3.464901 -2.738613 -2.738613 
C -3.464901 -2.012324 -3.872983 -1.027127 -3.872983 0 
C -3.872983 1.027127 -3.464901 2.012324 -2.738613 2.738613 
C -2.012324 3.464901 -1.027127 3.872983 0 3.872983 
z
" style="stroke: #2b7bba"/>
     </defs>
     <g>
      <use xlink:href="#mbe9cf26190" x="348.38675" y="94.485937" style="fill: #2b7bba; stroke: #2b7bba"/>
     </g>
    </g>
    <g id="text_24">
     <!-- Sample 5 -->
     <g transform="translate(366.38675 97.110937)scale(0.1 -0.1)">
      <use xlink:href="#DejaVuSans-53"/>
      <use xlink:href="#DejaVuSans-61" x="63.476562"/>
      <use xlink:href="#DejaVuSans-6d" x="124.755859"/>
      <use xlink:href="#DejaVuSans-70" x="222.167969"/>
      <use xlink:href="#DejaVuSans-6c" x="285.644531"/>
      <use xlink:href="#DejaVuSans-65" x="313.427734"/>
      <use xlink:href="#DejaVuSans-20" x="374.951172"/>
      <use xlink:href="#DejaVuSans-35" x="406.738281"/>
     </g>
    </g>
    <g id="PathCollection_25">
     <defs>
      <path id="m1efe7abbcf" d="M 0 3.872983 
C 1.027127 3.872983 2.012324 3.464901 2.738613 2.738613 
C 3.464901 2.012324 3.872983 1.027127 3.872983 0 
C 3.872983 -1.027127 3.464901 -2.012324 2.738613 -2.738613 
C 2.012324 -3.464901 1.027127 -3.872983 0 -3.872983 
C -1.027127 -3.872983 -2.012324 -3.464901 -2.738613 -2.738613 
C -3.464901 -2.012324 -3.872983 -1.027127 -3.872983 0 
C -3.872983 1.027127 -3.464901 2.012324 -2.738613 2.738613 
C -2.012324 3.464901 -1.027127 3.872983 0 3.872983 
z
" style="stroke: #0b559f"/>
     </defs>
     <g>
      <use xlink:href="#m1efe7abbcf" x="348.38675" y="109.164062" style="fill: #0b559f; stroke: #0b559f"/>
     </g>
    </g>
    <g id="text_25">
     <!-- Sample 6 -->
     <g transform="translate(366.38675 111.789062)scale(0.1 -0.1)">
      <use xlink:href="#DejaVuSans-53"/>
      <use xlink:href="#DejaVuSans-61" x="63.476562"/>
      <use xlink:href="#DejaVuSans-6d" x="124.755859"/>
      <use xlink:href="#DejaVuSans-70" x="222.167969"/>
      <use xlink:href="#DejaVuSans-6c" x="285.644531"/>
      <use xlink:href="#DejaVuSans-65" x="313.427734"/>
      <use xlink:href="#DejaVuSans-20" x="374.951172"/>
      <use xlink:href="#DejaVuSans-36" x="406.738281"/>
     </g>
    </g>
   </g>
   <g id="line2d_2"/>
   <g id="line2d_3"/>
   <g id="line2d_4"/>
   <g id="line2d_5"/>
   <g id="line2d_6"/>
   <g id="line2d_7"/>
   <g id="line2d_8"/>
   <g id="line2d_9"/>
   <g id="line2d_10"/>
   <g id="line2d_11"/>
   <g id="line2d_12"/>
   <g id="line2d_13"/>
   <g id="line2d_14"/>
   <g id="line2d_15">
    <path d="M 141.705681 32.706923 
L 141.705681 37.77 
" clip-path="url(#p2da6be6e03)" style="fill: none; stroke: #8b8b8b; stroke-width: 1.5; stroke-linecap: square"/>
   </g>
   <g id="line2d_16">
    <path d="M 189.650562 49.583846 
L 189.650562 54.646923 
" clip-path="url(#p2da6be6e03)" style="fill: none; stroke: #8b8b8b; stroke-width: 1.5; stroke-linecap: square"/>
   </g>
   <g id="line2d_17">
    <path d="M 214.031891 66.460769 
L 214.031891 71.523846 
" clip-path="url(#p2da6be6e03)" style="fill: none; stroke: #8b8b8b; stroke-width: 1.5; stroke-linecap: square"/>
   </g>
   <g id="line2d_18">
    <path d="M 223.56647 83.337692 
L 223.56647 88.400769 
" clip-path="url(#p2da6be6e03)" style="fill: none; stroke: #8b8b8b; stroke-width: 1.5; stroke-linecap: square"/>
   </g>
   <g id="line2d_19">
    <path d="M 241.319563 100.214615 
L 241.319563 105.277692 
" clip-path="url(#p2da6be6e03)" style="fill: none; stroke: #8b8b8b; stroke-width: 1.5; stroke-linecap: square"/>
   </g>
   <g id="line2d_20">
    <path d="M 246.070894 117.091538 
L 246.070894 122.154615 
" clip-path="url(#p2da6be6e03)" style="fill: none; stroke: #8b8b8b; stroke-width: 1.5; stroke-linecap: square"/>
   </g>
   <g id="line2d_21">
    <path d="M 244.207996 133.968462 
L 244.207996 139.031538 
" clip-path="url(#p2da6be6e03)" style="fill: none; stroke: #8b8b8b; stroke-width: 1.5; stroke-linecap: square"/>
   </g>
   <g id="line2d_22">
    <path d="M 256.720225 150.845385 
L 256.720225 155.908462 
" clip-path="url(#p2da6be6e03)" style="fill: none; stroke: #8b8b8b; stroke-width: 1.5; stroke-linecap: square"/>
   </g>
   <g id="line2d_23">
    <path d="M 254.145125 167.722308 
L 254.145125 172.785385 
" clip-path="url(#p2da6be6e03)" style="fill: none; stroke: #8b8b8b; stroke-width: 1.5; stroke-linecap: square"/>
   </g>
   <g id="line2d_24">
    <path d="M 254.967355 184.599231 
L 254.967355 189.662308 
" clip-path="url(#p2da6be6e03)" style="fill: none; stroke: #8b8b8b; stroke-width: 1.5; stroke-linecap: square"/>
   </g>
   <g id="line2d_25">
    <path d="M 269.702818 201.476154 
L 269.702818 206.539231 
" clip-path="url(#p2da6be6e03)" style="fill: none; stroke: #8b8b8b; stroke-width: 1.5; stroke-linecap: square"/>
   </g>
   <g id="line2d_26">
    <path d="M 275.817072 218.353077 
L 275.817072 223.416154 
" clip-path="url(#p2da6be6e03)" style="fill: none; stroke: #8b8b8b; stroke-width: 1.5; stroke-linecap: square"/>
   </g>
   <g id="line2d_27">
    <path d="M 297.932426 235.23 
L 297.932426 240.293077 
" clip-path="url(#p2da6be6e03)" style="fill: none; stroke: #8b8b8b; stroke-width: 1.5; stroke-linecap: square"/>
   </g>
  </g>
 </g>
 <defs>
  <clipPath id="p2da6be6e03">
   <rect x="68.175" y="26.8" width="253.535" height="219.4"/>
  </clipPath>
 </defs>
</svg>
