<?xml version="1.0" encoding="utf-8" standalone="no"?>
<!DOCTYPE svg PUBLIC "-//W3C//DTD SVG 1.1//EN"
  "http://www.w3.org/Graphics/SVG/1.1/DTD/svg11.dtd">
<!-- Created with matplotlib (https://matplotlib.org/) -->
<svg height="424.076562pt" version="1.1" viewBox="0 0 532.207653 424.076562" width="532.207653pt" xmlns="http://www.w3.org/2000/svg" xmlns:xlink="http://www.w3.org/1999/xlink">
 <metadata>
  <rdf:RDF xmlns:cc="http://creativecommons.org/ns#" xmlns:dc="http://purl.org/dc/elements/1.1/" xmlns:rdf="http://www.w3.org/1999/02/22-rdf-syntax-ns#">
   <cc:Work>
    <dc:type rdf:resource="http://purl.org/dc/dcmitype/StillImage"/>
    <dc:date>2022-02-24T15:21:24.082657</dc:date>
    <dc:format>image/svg+xml</dc:format>
    <dc:creator>
     <cc:Agent>
      <dc:title>Matplotlib v3.3.3, https://matplotlib.org/</dc:title>
     </cc:Agent>
    </dc:creator>
   </cc:Work>
  </rdf:RDF>
 </metadata>
 <defs>
  <style type="text/css">*{stroke-linecap:butt;stroke-linejoin:round;}</style>
 </defs>
 <g id="figure_1">
  <g id="patch_1">
   <path d="M 0 424.076562 
L 532.207653 424.076562 
L 532.207653 0 
L 0 0 
z
" style="fill:#ffffff;"/>
  </g>
  <g id="axes_1">
   <g id="patch_2">
    <path d="M 52.160938 189.598437 
L 427.338903 189.598437 
L 427.338903 20.798437 
L 52.160938 20.798437 
z
" style="fill:#ffffff;"/>
   </g>
   <g id="matplotlib.axis_1">
    <g id="xtick_1">
     <g id="text_1">
      <!-- Endo -->
      <g style="fill:#262626;" transform="translate(70.864049 204.196875)scale(0.1 -0.1)">
       <defs>
        <path d="M 9.8125 72.90625 
L 55.90625 72.90625 
L 55.90625 64.59375 
L 19.671875 64.59375 
L 19.671875 43.015625 
L 54.390625 43.015625 
L 54.390625 34.71875 
L 19.671875 34.71875 
L 19.671875 8.296875 
L 56.78125 8.296875 
L 56.78125 0 
L 9.8125 0 
z
" id="DejaVuSans-69"/>
        <path d="M 54.890625 33.015625 
L 54.890625 0 
L 45.90625 0 
L 45.90625 32.71875 
Q 45.90625 40.484375 42.875 44.328125 
Q 39.84375 48.1875 33.796875 48.1875 
Q 26.515625 48.1875 22.3125 43.546875 
Q 18.109375 38.921875 18.109375 30.90625 
L 18.109375 0 
L 9.078125 0 
L 9.078125 54.6875 
L 18.109375 54.6875 
L 18.109375 46.1875 
Q 21.34375 51.125 25.703125 53.5625 
Q 30.078125 56 35.796875 56 
Q 45.21875 56 50.046875 50.171875 
Q 54.890625 44.34375 54.890625 33.015625 
z
" id="DejaVuSans-110"/>
        <path d="M 45.40625 46.390625 
L 45.40625 75.984375 
L 54.390625 75.984375 
L 54.390625 0 
L 45.40625 0 
L 45.40625 8.203125 
Q 42.578125 3.328125 38.25 0.953125 
Q 33.9375 -1.421875 27.875 -1.421875 
Q 17.96875 -1.421875 11.734375 6.484375 
Q 5.515625 14.40625 5.515625 27.296875 
Q 5.515625 40.1875 11.734375 48.09375 
Q 17.96875 56 27.875 56 
Q 33.9375 56 38.25 53.625 
Q 42.578125 51.265625 45.40625 46.390625 
z
M 14.796875 27.296875 
Q 14.796875 17.390625 18.875 11.75 
Q 22.953125 6.109375 30.078125 6.109375 
Q 37.203125 6.109375 41.296875 11.75 
Q 45.40625 17.390625 45.40625 27.296875 
Q 45.40625 37.203125 41.296875 42.84375 
Q 37.203125 48.484375 30.078125 48.484375 
Q 22.953125 48.484375 18.875 42.84375 
Q 14.796875 37.203125 14.796875 27.296875 
z
" id="DejaVuSans-100"/>
        <path d="M 30.609375 48.390625 
Q 23.390625 48.390625 19.1875 42.75 
Q 14.984375 37.109375 14.984375 27.296875 
Q 14.984375 17.484375 19.15625 11.84375 
Q 23.34375 6.203125 30.609375 6.203125 
Q 37.796875 6.203125 41.984375 11.859375 
Q 46.1875 17.53125 46.1875 27.296875 
Q 46.1875 37.015625 41.984375 42.703125 
Q 37.796875 48.390625 30.609375 48.390625 
z
M 30.609375 56 
Q 42.328125 56 49.015625 48.375 
Q 55.71875 40.765625 55.71875 27.296875 
Q 55.71875 13.875 49.015625 6.21875 
Q 42.328125 -1.421875 30.609375 -1.421875 
Q 18.84375 -1.421875 12.171875 6.21875 
Q 5.515625 13.875 5.515625 27.296875 
Q 5.515625 40.765625 12.171875 48.375 
Q 18.84375 56 30.609375 56 
z
" id="DejaVuSans-111"/>
       </defs>
       <use xlink:href="#DejaVuSans-69"/>
       <use x="63.183594" xlink:href="#DejaVuSans-110"/>
       <use x="126.5625" xlink:href="#DejaVuSans-100"/>
       <use x="190.039062" xlink:href="#DejaVuSans-111"/>
      </g>
     </g>
    </g>
    <g id="xtick_2">
     <g id="text_2">
      <!-- SMC -->
      <g style="fill:#262626;" transform="translate(134.975741 204.196875)scale(0.1 -0.1)">
       <defs>
        <path d="M 53.515625 70.515625 
L 53.515625 60.890625 
Q 47.90625 63.578125 42.921875 64.890625 
Q 37.9375 66.21875 33.296875 66.21875 
Q 25.25 66.21875 20.875 63.09375 
Q 16.5 59.96875 16.5 54.203125 
Q 16.5 49.359375 19.40625 46.890625 
Q 22.3125 44.4375 30.421875 42.921875 
L 36.375 41.703125 
Q 47.40625 39.59375 52.65625 34.296875 
Q 57.90625 29 57.90625 20.125 
Q 57.90625 9.515625 50.796875 4.046875 
Q 43.703125 -1.421875 29.984375 -1.421875 
Q 24.8125 -1.421875 18.96875 -0.25 
Q 13.140625 0.921875 6.890625 3.21875 
L 6.890625 13.375 
Q 12.890625 10.015625 18.65625 8.296875 
Q 24.421875 6.59375 29.984375 6.59375 
Q 38.421875 6.59375 43.015625 9.90625 
Q 47.609375 13.234375 47.609375 19.390625 
Q 47.609375 24.75 44.3125 27.78125 
Q 41.015625 30.8125 33.5 32.328125 
L 27.484375 33.5 
Q 16.453125 35.6875 11.515625 40.375 
Q 6.59375 45.0625 6.59375 53.421875 
Q 6.59375 63.09375 13.40625 68.65625 
Q 20.21875 74.21875 32.171875 74.21875 
Q 37.3125 74.21875 42.625 73.28125 
Q 47.953125 72.359375 53.515625 70.515625 
z
" id="DejaVuSans-83"/>
        <path d="M 9.8125 72.90625 
L 24.515625 72.90625 
L 43.109375 23.296875 
L 61.8125 72.90625 
L 76.515625 72.90625 
L 76.515625 0 
L 66.890625 0 
L 66.890625 64.015625 
L 48.09375 14.015625 
L 38.1875 14.015625 
L 19.390625 64.015625 
L 19.390625 0 
L 9.8125 0 
z
" id="DejaVuSans-77"/>
        <path d="M 64.40625 67.28125 
L 64.40625 56.890625 
Q 59.421875 61.53125 53.78125 63.8125 
Q 48.140625 66.109375 41.796875 66.109375 
Q 29.296875 66.109375 22.65625 58.46875 
Q 16.015625 50.828125 16.015625 36.375 
Q 16.015625 21.96875 22.65625 14.328125 
Q 29.296875 6.6875 41.796875 6.6875 
Q 48.140625 6.6875 53.78125 8.984375 
Q 59.421875 11.28125 64.40625 15.921875 
L 64.40625 5.609375 
Q 59.234375 2.09375 53.4375 0.328125 
Q 47.65625 -1.421875 41.21875 -1.421875 
Q 24.65625 -1.421875 15.125 8.703125 
Q 5.609375 18.84375 5.609375 36.375 
Q 5.609375 53.953125 15.125 64.078125 
Q 24.65625 74.21875 41.21875 74.21875 
Q 47.75 74.21875 53.53125 72.484375 
Q 59.328125 70.75 64.40625 67.28125 
z
" id="DejaVuSans-67"/>
       </defs>
       <use xlink:href="#DejaVuSans-83"/>
       <use x="63.476562" xlink:href="#DejaVuSans-77"/>
       <use x="149.755859" xlink:href="#DejaVuSans-67"/>
      </g>
     </g>
    </g>
    <g id="xtick_3">
     <g id="text_3">
      <!-- VLMC -->
      <g style="fill:#262626;" transform="translate(194.473371 204.196875)scale(0.1 -0.1)">
       <defs>
        <path d="M 28.609375 0 
L 0.78125 72.90625 
L 11.078125 72.90625 
L 34.1875 11.53125 
L 57.328125 72.90625 
L 67.578125 72.90625 
L 39.796875 0 
z
" id="DejaVuSans-86"/>
        <path d="M 9.8125 72.90625 
L 19.671875 72.90625 
L 19.671875 8.296875 
L 55.171875 8.296875 
L 55.171875 0 
L 9.8125 0 
z
" id="DejaVuSans-76"/>
       </defs>
       <use xlink:href="#DejaVuSans-86"/>
       <use x="68.408203" xlink:href="#DejaVuSans-76"/>
       <use x="124.121094" xlink:href="#DejaVuSans-77"/>
       <use x="210.400391" xlink:href="#DejaVuSans-67"/>
      </g>
     </g>
    </g>
    <g id="xtick_4">
     <g id="text_4">
      <!-- OPC -->
      <g style="fill:#262626;" transform="translate(260.572563 204.196875)scale(0.1 -0.1)">
       <defs>
        <path d="M 39.40625 66.21875 
Q 28.65625 66.21875 22.328125 58.203125 
Q 16.015625 50.203125 16.015625 36.375 
Q 16.015625 22.609375 22.328125 14.59375 
Q 28.65625 6.59375 39.40625 6.59375 
Q 50.140625 6.59375 56.421875 14.59375 
Q 62.703125 22.609375 62.703125 36.375 
Q 62.703125 50.203125 56.421875 58.203125 
Q 50.140625 66.21875 39.40625 66.21875 
z
M 39.40625 74.21875 
Q 54.734375 74.21875 63.90625 63.9375 
Q 73.09375 53.65625 73.09375 36.375 
Q 73.09375 19.140625 63.90625 8.859375 
Q 54.734375 -1.421875 39.40625 -1.421875 
Q 24.03125 -1.421875 14.8125 8.828125 
Q 5.609375 19.09375 5.609375 36.375 
Q 5.609375 53.65625 14.8125 63.9375 
Q 24.03125 74.21875 39.40625 74.21875 
z
" id="DejaVuSans-79"/>
        <path d="M 19.671875 64.796875 
L 19.671875 37.40625 
L 32.078125 37.40625 
Q 38.96875 37.40625 42.71875 40.96875 
Q 46.484375 44.53125 46.484375 51.125 
Q 46.484375 57.671875 42.71875 61.234375 
Q 38.96875 64.796875 32.078125 64.796875 
z
M 9.8125 72.90625 
L 32.078125 72.90625 
Q 44.34375 72.90625 50.609375 67.359375 
Q 56.890625 61.8125 56.890625 51.125 
Q 56.890625 40.328125 50.609375 34.8125 
Q 44.34375 29.296875 32.078125 29.296875 
L 19.671875 29.296875 
L 19.671875 0 
L 9.8125 0 
z
" id="DejaVuSans-80"/>
       </defs>
       <use xlink:href="#DejaVuSans-79"/>
       <use x="78.710938" xlink:href="#DejaVuSans-80"/>
       <use x="139.013672" xlink:href="#DejaVuSans-67"/>
      </g>
     </g>
    </g>
    <g id="xtick_5">
     <g id="text_5">
      <!-- Astro -->
      <g style="fill:#262626;" transform="translate(320.556912 204.196875)scale(0.1 -0.1)">
       <defs>
        <path d="M 34.1875 63.1875 
L 20.796875 26.90625 
L 47.609375 26.90625 
z
M 28.609375 72.90625 
L 39.796875 72.90625 
L 67.578125 0 
L 57.328125 0 
L 50.6875 18.703125 
L 17.828125 18.703125 
L 11.1875 0 
L 0.78125 0 
z
" id="DejaVuSans-65"/>
        <path d="M 44.28125 53.078125 
L 44.28125 44.578125 
Q 40.484375 46.53125 36.375 47.5 
Q 32.28125 48.484375 27.875 48.484375 
Q 21.1875 48.484375 17.84375 46.4375 
Q 14.5 44.390625 14.5 40.28125 
Q 14.5 37.15625 16.890625 35.375 
Q 19.28125 33.59375 26.515625 31.984375 
L 29.59375 31.296875 
Q 39.15625 29.25 43.1875 25.515625 
Q 47.21875 21.78125 47.21875 15.09375 
Q 47.21875 7.46875 41.1875 3.015625 
Q 35.15625 -1.421875 24.609375 -1.421875 
Q 20.21875 -1.421875 15.453125 -0.5625 
Q 10.6875 0.296875 5.421875 2 
L 5.421875 11.28125 
Q 10.40625 8.6875 15.234375 7.390625 
Q 20.0625 6.109375 24.8125 6.109375 
Q 31.15625 6.109375 34.5625 8.28125 
Q 37.984375 10.453125 37.984375 14.40625 
Q 37.984375 18.0625 35.515625 20.015625 
Q 33.0625 21.96875 24.703125 23.78125 
L 21.578125 24.515625 
Q 13.234375 26.265625 9.515625 29.90625 
Q 5.8125 33.546875 5.8125 39.890625 
Q 5.8125 47.609375 11.28125 51.796875 
Q 16.75 56 26.8125 56 
Q 31.78125 56 36.171875 55.265625 
Q 40.578125 54.546875 44.28125 53.078125 
z
" id="DejaVuSans-115"/>
        <path d="M 18.3125 70.21875 
L 18.3125 54.6875 
L 36.8125 54.6875 
L 36.8125 47.703125 
L 18.3125 47.703125 
L 18.3125 18.015625 
Q 18.3125 11.328125 20.140625 9.421875 
Q 21.96875 7.515625 27.59375 7.515625 
L 36.8125 7.515625 
L 36.8125 0 
L 27.59375 0 
Q 17.1875 0 13.234375 3.875 
Q 9.28125 7.765625 9.28125 18.015625 
L 9.28125 47.703125 
L 2.6875 47.703125 
L 2.6875 54.6875 
L 9.28125 54.6875 
L 9.28125 70.21875 
z
" id="DejaVuSans-116"/>
        <path d="M 41.109375 46.296875 
Q 39.59375 47.171875 37.8125 47.578125 
Q 36.03125 48 33.890625 48 
Q 26.265625 48 22.1875 43.046875 
Q 18.109375 38.09375 18.109375 28.8125 
L 18.109375 0 
L 9.078125 0 
L 9.078125 54.6875 
L 18.109375 54.6875 
L 18.109375 46.1875 
Q 20.953125 51.171875 25.484375 53.578125 
Q 30.03125 56 36.53125 56 
Q 37.453125 56 38.578125 55.875 
Q 39.703125 55.765625 41.0625 55.515625 
z
" id="DejaVuSans-114"/>
       </defs>
       <use xlink:href="#DejaVuSans-65"/>
       <use x="68.408203" xlink:href="#DejaVuSans-115"/>
       <use x="120.507812" xlink:href="#DejaVuSans-116"/>
       <use x="159.716797" xlink:href="#DejaVuSans-114"/>
       <use x="198.580078" xlink:href="#DejaVuSans-111"/>
      </g>
     </g>
    </g>
    <g id="xtick_6">
     <g id="text_6">
      <!-- Oligo -->
      <g style="fill:#262626;" transform="translate(383.126417 204.196875)scale(0.1 -0.1)">
       <defs>
        <path d="M 9.421875 75.984375 
L 18.40625 75.984375 
L 18.40625 0 
L 9.421875 0 
z
" id="DejaVuSans-108"/>
        <path d="M 9.421875 54.6875 
L 18.40625 54.6875 
L 18.40625 0 
L 9.421875 0 
z
M 9.421875 75.984375 
L 18.40625 75.984375 
L 18.40625 64.59375 
L 9.421875 64.59375 
z
" id="DejaVuSans-105"/>
        <path d="M 45.40625 27.984375 
Q 45.40625 37.75 41.375 43.109375 
Q 37.359375 48.484375 30.078125 48.484375 
Q 22.859375 48.484375 18.828125 43.109375 
Q 14.796875 37.75 14.796875 27.984375 
Q 14.796875 18.265625 18.828125 12.890625 
Q 22.859375 7.515625 30.078125 7.515625 
Q 37.359375 7.515625 41.375 12.890625 
Q 45.40625 18.265625 45.40625 27.984375 
z
M 54.390625 6.78125 
Q 54.390625 -7.171875 48.1875 -13.984375 
Q 42 -20.796875 29.203125 -20.796875 
Q 24.46875 -20.796875 20.265625 -20.09375 
Q 16.0625 -19.390625 12.109375 -17.921875 
L 12.109375 -9.1875 
Q 16.0625 -11.328125 19.921875 -12.34375 
Q 23.78125 -13.375 27.78125 -13.375 
Q 36.625 -13.375 41.015625 -8.765625 
Q 45.40625 -4.15625 45.40625 5.171875 
L 45.40625 9.625 
Q 42.625 4.78125 38.28125 2.390625 
Q 33.9375 0 27.875 0 
Q 17.828125 0 11.671875 7.65625 
Q 5.515625 15.328125 5.515625 27.984375 
Q 5.515625 40.671875 11.671875 48.328125 
Q 17.828125 56 27.875 56 
Q 33.9375 56 38.28125 53.609375 
Q 42.625 51.21875 45.40625 46.390625 
L 45.40625 54.6875 
L 54.390625 54.6875 
z
" id="DejaVuSans-103"/>
       </defs>
       <use xlink:href="#DejaVuSans-79"/>
       <use x="78.710938" xlink:href="#DejaVuSans-108"/>
       <use x="106.494141" xlink:href="#DejaVuSans-105"/>
       <use x="134.277344" xlink:href="#DejaVuSans-103"/>
       <use x="197.753906" xlink:href="#DejaVuSans-111"/>
      </g>
     </g>
    </g>
   </g>
   <g id="matplotlib.axis_2">
    <g id="ytick_1">
     <g id="line2d_1">
      <path clip-path="url(#p556cba9f5f)" d="M 52.160938 182.886694 
L 427.338903 182.886694 
" style="fill:none;stroke:#cccccc;stroke-linecap:round;stroke-width:0.8;"/>
     </g>
     <g id="text_7">
      <!-- −0.1 -->
      <g style="fill:#262626;" transform="translate(20.878125 186.685913)scale(0.1 -0.1)">
       <defs>
        <path d="M 10.59375 35.5 
L 73.1875 35.5 
L 73.1875 27.203125 
L 10.59375 27.203125 
z
" id="DejaVuSans-8722"/>
        <path d="M 31.78125 66.40625 
Q 24.171875 66.40625 20.328125 58.90625 
Q 16.5 51.421875 16.5 36.375 
Q 16.5 21.390625 20.328125 13.890625 
Q 24.171875 6.390625 31.78125 6.390625 
Q 39.453125 6.390625 43.28125 13.890625 
Q 47.125 21.390625 47.125 36.375 
Q 47.125 51.421875 43.28125 58.90625 
Q 39.453125 66.40625 31.78125 66.40625 
z
M 31.78125 74.21875 
Q 44.046875 74.21875 50.515625 64.515625 
Q 56.984375 54.828125 56.984375 36.375 
Q 56.984375 17.96875 50.515625 8.265625 
Q 44.046875 -1.421875 31.78125 -1.421875 
Q 19.53125 -1.421875 13.0625 8.265625 
Q 6.59375 17.96875 6.59375 36.375 
Q 6.59375 54.828125 13.0625 64.515625 
Q 19.53125 74.21875 31.78125 74.21875 
z
" id="DejaVuSans-48"/>
        <path d="M 10.6875 12.40625 
L 21 12.40625 
L 21 0 
L 10.6875 0 
z
" id="DejaVuSans-46"/>
        <path d="M 12.40625 8.296875 
L 28.515625 8.296875 
L 28.515625 63.921875 
L 10.984375 60.40625 
L 10.984375 69.390625 
L 28.421875 72.90625 
L 38.28125 72.90625 
L 38.28125 8.296875 
L 54.390625 8.296875 
L 54.390625 0 
L 12.40625 0 
z
" id="DejaVuSans-49"/>
       </defs>
       <use xlink:href="#DejaVuSans-8722"/>
       <use x="83.789062" xlink:href="#DejaVuSans-48"/>
       <use x="147.412109" xlink:href="#DejaVuSans-46"/>
       <use x="179.199219" xlink:href="#DejaVuSans-49"/>
      </g>
     </g>
    </g>
    <g id="ytick_2">
     <g id="line2d_2">
      <path clip-path="url(#p556cba9f5f)" d="M 52.160938 152.930596 
L 427.338903 152.930596 
" style="fill:none;stroke:#cccccc;stroke-linecap:round;stroke-width:0.8;"/>
     </g>
     <g id="text_8">
      <!-- 0.0 -->
      <g style="fill:#262626;" transform="translate(29.257813 156.729815)scale(0.1 -0.1)">
       <use xlink:href="#DejaVuSans-48"/>
       <use x="63.623047" xlink:href="#DejaVuSans-46"/>
       <use x="95.410156" xlink:href="#DejaVuSans-48"/>
      </g>
     </g>
    </g>
    <g id="ytick_3">
     <g id="line2d_3">
      <path clip-path="url(#p556cba9f5f)" d="M 52.160938 122.974499 
L 427.338903 122.974499 
" style="fill:none;stroke:#cccccc;stroke-linecap:round;stroke-width:0.8;"/>
     </g>
     <g id="text_9">
      <!-- 0.1 -->
      <g style="fill:#262626;" transform="translate(29.257813 126.773717)scale(0.1 -0.1)">
       <use xlink:href="#DejaVuSans-48"/>
       <use x="63.623047" xlink:href="#DejaVuSans-46"/>
       <use x="95.410156" xlink:href="#DejaVuSans-49"/>
      </g>
     </g>
    </g>
    <g id="ytick_4">
     <g id="line2d_4">
      <path clip-path="url(#p556cba9f5f)" d="M 52.160938 93.018401 
L 427.338903 93.018401 
" style="fill:none;stroke:#cccccc;stroke-linecap:round;stroke-width:0.8;"/>
     </g>
     <g id="text_10">
      <!-- 0.2 -->
      <g style="fill:#262626;" transform="translate(29.257813 96.81762)scale(0.1 -0.1)">
       <defs>
        <path d="M 19.1875 8.296875 
L 53.609375 8.296875 
L 53.609375 0 
L 7.328125 0 
L 7.328125 8.296875 
Q 12.9375 14.109375 22.625 23.890625 
Q 32.328125 33.6875 34.8125 36.53125 
Q 39.546875 41.84375 41.421875 45.53125 
Q 43.3125 49.21875 43.3125 52.78125 
Q 43.3125 58.59375 39.234375 62.25 
Q 35.15625 65.921875 28.609375 65.921875 
Q 23.96875 65.921875 18.8125 64.3125 
Q 13.671875 62.703125 7.8125 59.421875 
L 7.8125 69.390625 
Q 13.765625 71.78125 18.9375 73 
Q 24.125 74.21875 28.421875 74.21875 
Q 39.75 74.21875 46.484375 68.546875 
Q 53.21875 62.890625 53.21875 53.421875 
Q 53.21875 48.921875 51.53125 44.890625 
Q 49.859375 40.875 45.40625 35.40625 
Q 44.1875 33.984375 37.640625 27.21875 
Q 31.109375 20.453125 19.1875 8.296875 
z
" id="DejaVuSans-50"/>
       </defs>
       <use xlink:href="#DejaVuSans-48"/>
       <use x="63.623047" xlink:href="#DejaVuSans-46"/>
       <use x="95.410156" xlink:href="#DejaVuSans-50"/>
      </g>
     </g>
    </g>
    <g id="ytick_5">
     <g id="line2d_5">
      <path clip-path="url(#p556cba9f5f)" d="M 52.160938 63.062303 
L 427.338903 63.062303 
" style="fill:none;stroke:#cccccc;stroke-linecap:round;stroke-width:0.8;"/>
     </g>
     <g id="text_11">
      <!-- 0.3 -->
      <g style="fill:#262626;" transform="translate(29.257813 66.861522)scale(0.1 -0.1)">
       <defs>
        <path d="M 40.578125 39.3125 
Q 47.65625 37.796875 51.625 33 
Q 55.609375 28.21875 55.609375 21.1875 
Q 55.609375 10.40625 48.1875 4.484375 
Q 40.765625 -1.421875 27.09375 -1.421875 
Q 22.515625 -1.421875 17.65625 -0.515625 
Q 12.796875 0.390625 7.625 2.203125 
L 7.625 11.71875 
Q 11.71875 9.328125 16.59375 8.109375 
Q 21.484375 6.890625 26.8125 6.890625 
Q 36.078125 6.890625 40.9375 10.546875 
Q 45.796875 14.203125 45.796875 21.1875 
Q 45.796875 27.640625 41.28125 31.265625 
Q 36.765625 34.90625 28.71875 34.90625 
L 20.21875 34.90625 
L 20.21875 43.015625 
L 29.109375 43.015625 
Q 36.375 43.015625 40.234375 45.921875 
Q 44.09375 48.828125 44.09375 54.296875 
Q 44.09375 59.90625 40.109375 62.90625 
Q 36.140625 65.921875 28.71875 65.921875 
Q 24.65625 65.921875 20.015625 65.03125 
Q 15.375 64.15625 9.8125 62.3125 
L 9.8125 71.09375 
Q 15.4375 72.65625 20.34375 73.4375 
Q 25.25 74.21875 29.59375 74.21875 
Q 40.828125 74.21875 47.359375 69.109375 
Q 53.90625 64.015625 53.90625 55.328125 
Q 53.90625 49.265625 50.4375 45.09375 
Q 46.96875 40.921875 40.578125 39.3125 
z
" id="DejaVuSans-51"/>
       </defs>
       <use xlink:href="#DejaVuSans-48"/>
       <use x="63.623047" xlink:href="#DejaVuSans-46"/>
       <use x="95.410156" xlink:href="#DejaVuSans-51"/>
      </g>
     </g>
    </g>
    <g id="ytick_6">
     <g id="line2d_6">
      <path clip-path="url(#p556cba9f5f)" d="M 52.160938 33.106206 
L 427.338903 33.106206 
" style="fill:none;stroke:#cccccc;stroke-linecap:round;stroke-width:0.8;"/>
     </g>
     <g id="text_12">
      <!-- 0.4 -->
      <g style="fill:#262626;" transform="translate(29.257813 36.905424)scale(0.1 -0.1)">
       <defs>
        <path d="M 37.796875 64.3125 
L 12.890625 25.390625 
L 37.796875 25.390625 
z
M 35.203125 72.90625 
L 47.609375 72.90625 
L 47.609375 25.390625 
L 58.015625 25.390625 
L 58.015625 17.1875 
L 47.609375 17.1875 
L 47.609375 0 
L 37.796875 0 
L 37.796875 17.1875 
L 4.890625 17.1875 
L 4.890625 26.703125 
z
" id="DejaVuSans-52"/>
       </defs>
       <use xlink:href="#DejaVuSans-48"/>
       <use x="63.623047" xlink:href="#DejaVuSans-46"/>
       <use x="95.410156" xlink:href="#DejaVuSans-52"/>
      </g>
     </g>
    </g>
    <g id="text_13">
     <!-- Median score per sample/ontology -->
     <g style="fill:#262626;" transform="translate(14.798438 191.584375)rotate(-90)scale(0.1 -0.1)">
      <defs>
       <path d="M 56.203125 29.59375 
L 56.203125 25.203125 
L 14.890625 25.203125 
Q 15.484375 15.921875 20.484375 11.0625 
Q 25.484375 6.203125 34.421875 6.203125 
Q 39.59375 6.203125 44.453125 7.46875 
Q 49.3125 8.734375 54.109375 11.28125 
L 54.109375 2.78125 
Q 49.265625 0.734375 44.1875 -0.34375 
Q 39.109375 -1.421875 33.890625 -1.421875 
Q 20.796875 -1.421875 13.15625 6.1875 
Q 5.515625 13.8125 5.515625 26.8125 
Q 5.515625 40.234375 12.765625 48.109375 
Q 20.015625 56 32.328125 56 
Q 43.359375 56 49.78125 48.890625 
Q 56.203125 41.796875 56.203125 29.59375 
z
M 47.21875 32.234375 
Q 47.125 39.59375 43.09375 43.984375 
Q 39.0625 48.390625 32.421875 48.390625 
Q 24.90625 48.390625 20.390625 44.140625 
Q 15.875 39.890625 15.1875 32.171875 
z
" id="DejaVuSans-101"/>
       <path d="M 34.28125 27.484375 
Q 23.390625 27.484375 19.1875 25 
Q 14.984375 22.515625 14.984375 16.5 
Q 14.984375 11.71875 18.140625 8.90625 
Q 21.296875 6.109375 26.703125 6.109375 
Q 34.1875 6.109375 38.703125 11.40625 
Q 43.21875 16.703125 43.21875 25.484375 
L 43.21875 27.484375 
z
M 52.203125 31.203125 
L 52.203125 0 
L 43.21875 0 
L 43.21875 8.296875 
Q 40.140625 3.328125 35.546875 0.953125 
Q 30.953125 -1.421875 24.3125 -1.421875 
Q 15.921875 -1.421875 10.953125 3.296875 
Q 6 8.015625 6 15.921875 
Q 6 25.140625 12.171875 29.828125 
Q 18.359375 34.515625 30.609375 34.515625 
L 43.21875 34.515625 
L 43.21875 35.40625 
Q 43.21875 41.609375 39.140625 45 
Q 35.0625 48.390625 27.6875 48.390625 
Q 23 48.390625 18.546875 47.265625 
Q 14.109375 46.140625 10.015625 43.890625 
L 10.015625 52.203125 
Q 14.9375 54.109375 19.578125 55.046875 
Q 24.21875 56 28.609375 56 
Q 40.484375 56 46.34375 49.84375 
Q 52.203125 43.703125 52.203125 31.203125 
z
" id="DejaVuSans-97"/>
       <path id="DejaVuSans-32"/>
       <path d="M 48.78125 52.59375 
L 48.78125 44.1875 
Q 44.96875 46.296875 41.140625 47.34375 
Q 37.3125 48.390625 33.40625 48.390625 
Q 24.65625 48.390625 19.8125 42.84375 
Q 14.984375 37.3125 14.984375 27.296875 
Q 14.984375 17.28125 19.8125 11.734375 
Q 24.65625 6.203125 33.40625 6.203125 
Q 37.3125 6.203125 41.140625 7.25 
Q 44.96875 8.296875 48.78125 10.40625 
L 48.78125 2.09375 
Q 45.015625 0.34375 40.984375 -0.53125 
Q 36.96875 -1.421875 32.421875 -1.421875 
Q 20.0625 -1.421875 12.78125 6.34375 
Q 5.515625 14.109375 5.515625 27.296875 
Q 5.515625 40.671875 12.859375 48.328125 
Q 20.21875 56 33.015625 56 
Q 37.15625 56 41.109375 55.140625 
Q 45.0625 54.296875 48.78125 52.59375 
z
" id="DejaVuSans-99"/>
       <path d="M 18.109375 8.203125 
L 18.109375 -20.796875 
L 9.078125 -20.796875 
L 9.078125 54.6875 
L 18.109375 54.6875 
L 18.109375 46.390625 
Q 20.953125 51.265625 25.265625 53.625 
Q 29.59375 56 35.59375 56 
Q 45.5625 56 51.78125 48.09375 
Q 58.015625 40.1875 58.015625 27.296875 
Q 58.015625 14.40625 51.78125 6.484375 
Q 45.5625 -1.421875 35.59375 -1.421875 
Q 29.59375 -1.421875 25.265625 0.953125 
Q 20.953125 3.328125 18.109375 8.203125 
z
M 48.6875 27.296875 
Q 48.6875 37.203125 44.609375 42.84375 
Q 40.53125 48.484375 33.40625 48.484375 
Q 26.265625 48.484375 22.1875 42.84375 
Q 18.109375 37.203125 18.109375 27.296875 
Q 18.109375 17.390625 22.1875 11.75 
Q 26.265625 6.109375 33.40625 6.109375 
Q 40.53125 6.109375 44.609375 11.75 
Q 48.6875 17.390625 48.6875 27.296875 
z
" id="DejaVuSans-112"/>
       <path d="M 52 44.1875 
Q 55.375 50.25 60.0625 53.125 
Q 64.75 56 71.09375 56 
Q 79.640625 56 84.28125 50.015625 
Q 88.921875 44.046875 88.921875 33.015625 
L 88.921875 0 
L 79.890625 0 
L 79.890625 32.71875 
Q 79.890625 40.578125 77.09375 44.375 
Q 74.3125 48.1875 68.609375 48.1875 
Q 61.625 48.1875 57.5625 43.546875 
Q 53.515625 38.921875 53.515625 30.90625 
L 53.515625 0 
L 44.484375 0 
L 44.484375 32.71875 
Q 44.484375 40.625 41.703125 44.40625 
Q 38.921875 48.1875 33.109375 48.1875 
Q 26.21875 48.1875 22.15625 43.53125 
Q 18.109375 38.875 18.109375 30.90625 
L 18.109375 0 
L 9.078125 0 
L 9.078125 54.6875 
L 18.109375 54.6875 
L 18.109375 46.1875 
Q 21.1875 51.21875 25.484375 53.609375 
Q 29.78125 56 35.6875 56 
Q 41.65625 56 45.828125 52.96875 
Q 50 49.953125 52 44.1875 
z
" id="DejaVuSans-109"/>
       <path d="M 25.390625 72.90625 
L 33.6875 72.90625 
L 8.296875 -9.28125 
L 0 -9.28125 
z
" id="DejaVuSans-47"/>
       <path d="M 32.171875 -5.078125 
Q 28.375 -14.84375 24.75 -17.8125 
Q 21.140625 -20.796875 15.09375 -20.796875 
L 7.90625 -20.796875 
L 7.90625 -13.28125 
L 13.1875 -13.28125 
Q 16.890625 -13.28125 18.9375 -11.515625 
Q 21 -9.765625 23.484375 -3.21875 
L 25.09375 0.875 
L 2.984375 54.6875 
L 12.5 54.6875 
L 29.59375 11.921875 
L 46.6875 54.6875 
L 56.203125 54.6875 
z
" id="DejaVuSans-121"/>
      </defs>
      <use xlink:href="#DejaVuSans-77"/>
      <use x="86.279297" xlink:href="#DejaVuSans-101"/>
      <use x="147.802734" xlink:href="#DejaVuSans-100"/>
      <use x="211.279297" xlink:href="#DejaVuSans-105"/>
      <use x="239.0625" xlink:href="#DejaVuSans-97"/>
      <use x="300.341797" xlink:href="#DejaVuSans-110"/>
      <use x="363.720703" xlink:href="#DejaVuSans-32"/>
      <use x="395.507812" xlink:href="#DejaVuSans-115"/>
      <use x="447.607422" xlink:href="#DejaVuSans-99"/>
      <use x="502.587891" xlink:href="#DejaVuSans-111"/>
      <use x="563.769531" xlink:href="#DejaVuSans-114"/>
      <use x="602.632812" xlink:href="#DejaVuSans-101"/>
      <use x="664.15625" xlink:href="#DejaVuSans-32"/>
      <use x="695.943359" xlink:href="#DejaVuSans-112"/>
      <use x="759.419922" xlink:href="#DejaVuSans-101"/>
      <use x="820.943359" xlink:href="#DejaVuSans-114"/>
      <use x="862.056641" xlink:href="#DejaVuSans-32"/>
      <use x="893.84375" xlink:href="#DejaVuSans-115"/>
      <use x="945.943359" xlink:href="#DejaVuSans-97"/>
      <use x="1007.222656" xlink:href="#DejaVuSans-109"/>
      <use x="1104.634766" xlink:href="#DejaVuSans-112"/>
      <use x="1168.111328" xlink:href="#DejaVuSans-108"/>
      <use x="1195.894531" xlink:href="#DejaVuSans-101"/>
      <use x="1257.417969" xlink:href="#DejaVuSans-47"/>
      <use x="1291.109375" xlink:href="#DejaVuSans-111"/>
      <use x="1352.291016" xlink:href="#DejaVuSans-110"/>
      <use x="1415.669922" xlink:href="#DejaVuSans-116"/>
      <use x="1454.878906" xlink:href="#DejaVuSans-111"/>
      <use x="1516.060547" xlink:href="#DejaVuSans-108"/>
      <use x="1543.84375" xlink:href="#DejaVuSans-111"/>
      <use x="1605.025391" xlink:href="#DejaVuSans-103"/>
      <use x="1668.501953" xlink:href="#DejaVuSans-121"/>
     </g>
    </g>
   </g>
   <g id="patch_3">
    <path clip-path="url(#p556cba9f5f)" d="M 58.413904 167.502614 
L 108.437632 167.502614 
L 108.437632 161.445302 
L 58.413904 161.445302 
L 58.413904 167.502614 
z
" style="fill:#c6c6c6;stroke:#3e3e3e;stroke-linejoin:miter;stroke-width:1.5;"/>
   </g>
   <g id="patch_4">
    <path clip-path="url(#p556cba9f5f)" d="M 120.943565 161.479937 
L 170.967293 161.479937 
L 170.967293 155.732449 
L 120.943565 155.732449 
L 120.943565 161.479937 
z
" style="fill:#686868;stroke:#3e3e3e;stroke-linejoin:miter;stroke-width:1.5;"/>
   </g>
   <g id="patch_5">
    <path clip-path="url(#p556cba9f5f)" d="M 183.473226 164.978023 
L 233.496954 164.978023 
L 233.496954 132.345036 
L 183.473226 132.345036 
L 183.473226 164.978023 
z
" style="fill:#686868;stroke:#3e3e3e;stroke-linejoin:miter;stroke-width:1.5;"/>
   </g>
   <g id="patch_6">
    <path clip-path="url(#p556cba9f5f)" d="M 246.002887 135.480442 
L 296.026615 135.480442 
L 296.026615 105.408919 
L 246.002887 105.408919 
L 246.002887 135.480442 
z
" style="fill:#686868;stroke:#3e3e3e;stroke-linejoin:miter;stroke-width:1.5;"/>
   </g>
   <g id="patch_7">
    <path clip-path="url(#p556cba9f5f)" d="M 308.532548 118.046906 
L 358.556276 118.046906 
L 358.556276 92.783144 
L 308.532548 92.783144 
L 308.532548 118.046906 
z
" style="fill:#c6c6c6;stroke:#3e3e3e;stroke-linejoin:miter;stroke-width:1.5;"/>
   </g>
   <g id="patch_8">
    <path clip-path="url(#p556cba9f5f)" d="M 371.062208 54.330559 
L 421.085937 54.330559 
L 421.085937 35.742137 
L 371.062208 35.742137 
L 371.062208 54.330559 
z
" style="fill:#c6c6c6;stroke:#3e3e3e;stroke-linejoin:miter;stroke-width:1.5;"/>
   </g>
   <g id="PathCollection_1"/>
   <g id="PathCollection_2"/>
   <g id="PathCollection_3"/>
   <g id="PathCollection_4"/>
   <g id="PathCollection_5"/>
   <g id="PathCollection_6"/>
   <g id="patch_9">
    <path clip-path="url(#p556cba9f5f)" d="M 83.425768 152.930596 
L 83.425768 152.930596 
L 83.425768 152.930596 
L 83.425768 152.930596 
z
" style="fill:#c6c6c6;stroke:#3e3e3e;stroke-linejoin:miter;stroke-width:0.75;"/>
   </g>
   <g id="patch_10">
    <path clip-path="url(#p556cba9f5f)" d="M 83.425768 152.930596 
L 83.425768 152.930596 
L 83.425768 152.930596 
L 83.425768 152.930596 
z
" style="fill:#686868;stroke:#3e3e3e;stroke-linejoin:miter;stroke-width:0.75;"/>
   </g>
   <g id="line2d_7"/>
   <g id="line2d_8"/>
   <g id="line2d_9"/>
   <g id="line2d_10"/>
   <g id="line2d_11"/>
   <g id="line2d_12"/>
   <g id="line2d_13">
    <path clip-path="url(#p556cba9f5f)" d="M 58.413904 164.874205 
L 108.437632 164.874205 
" style="fill:none;stroke:#3e3e3e;stroke-linecap:round;stroke-width:1.5;"/>
   </g>
   <g id="line2d_14">
    <path clip-path="url(#p556cba9f5f)" d="M 120.943565 158.599326 
L 170.967293 158.599326 
" style="fill:none;stroke:#3e3e3e;stroke-linecap:round;stroke-width:1.5;"/>
   </g>
   <g id="line2d_15">
    <path clip-path="url(#p556cba9f5f)" d="M 183.473226 151.183001 
L 233.496954 151.183001 
" style="fill:none;stroke:#3e3e3e;stroke-linecap:round;stroke-width:1.5;"/>
   </g>
   <g id="line2d_16">
    <path clip-path="url(#p556cba9f5f)" d="M 246.002887 134.738634 
L 296.026615 134.738634 
" style="fill:none;stroke:#3e3e3e;stroke-linecap:round;stroke-width:1.5;"/>
   </g>
   <g id="line2d_17">
    <path clip-path="url(#p556cba9f5f)" d="M 308.532548 107.648123 
L 358.556276 107.648123 
" style="fill:none;stroke:#3e3e3e;stroke-linecap:round;stroke-width:1.5;"/>
   </g>
   <g id="line2d_18">
    <path clip-path="url(#p556cba9f5f)" d="M 371.062208 42.030707 
L 421.085937 42.030707 
" style="fill:none;stroke:#3e3e3e;stroke-linecap:round;stroke-width:1.5;"/>
   </g>
   <g id="patch_11">
    <path d="M 52.160938 189.598437 
L 427.338903 189.598437 
" style="fill:none;stroke:#cccccc;stroke-linecap:square;stroke-linejoin:miter;stroke-width:0.8;"/>
   </g>
   <g id="PathCollection_7">
    <defs>
     <path d="M 0 2.5 
C 0.663008 2.5 1.29895 2.236584 1.767767 1.767767 
C 2.236584 1.29895 2.5 0.663008 2.5 -0 
C 2.5 -0.663008 2.236584 -1.29895 1.767767 -1.767767 
C 1.29895 -2.236584 0.663008 -2.5 0 -2.5 
C -0.663008 -2.5 -1.29895 -2.236584 -1.767767 -1.767767 
C -2.236584 -1.29895 -2.5 -0.663008 -2.5 0 
C -2.5 0.663008 -2.236584 1.29895 -1.767767 1.767767 
C -1.29895 2.236584 -0.663008 2.5 0 2.5 
z
" id="C0_0_88badd3fae"/>
    </defs>
    <g clip-path="url(#p556cba9f5f)">
     <use style="fill:#dbe9f6;" x="78.850276" xlink:href="#C0_0_88badd3fae" y="167.36727"/>
    </g>
    <g clip-path="url(#p556cba9f5f)">
     <use style="fill:#bad6eb;" x="83.222676" xlink:href="#C0_0_88badd3fae" y="163.629203"/>
    </g>
    <g clip-path="url(#p556cba9f5f)">
     <use style="fill:#89bedc;" x="80.325908" xlink:href="#C0_0_88badd3fae" y="178.084571"/>
    </g>
    <g clip-path="url(#p556cba9f5f)">
     <use style="fill:#539ecd;" x="79.165768" xlink:href="#C0_0_88badd3fae" y="162.687271"/>
    </g>
    <g clip-path="url(#p556cba9f5f)">
     <use style="fill:#2b7bba;" x="83.942033" xlink:href="#C0_0_88badd3fae" y="158.962025"/>
    </g>
    <g clip-path="url(#p556cba9f5f)">
     <use style="fill:#0b559f;" x="78.173566" xlink:href="#C0_0_88badd3fae" y="180.724914"/>
    </g>
    <g clip-path="url(#p556cba9f5f)">
     <use style="fill:#dbe9f6;" x="78.115125" xlink:href="#C0_0_88badd3fae" y="155.182934"/>
    </g>
    <g clip-path="url(#p556cba9f5f)">
     <use style="fill:#bad6eb;" x="84.558368" xlink:href="#C0_0_88badd3fae" y="166.119207"/>
    </g>
    <g clip-path="url(#p556cba9f5f)">
     <use style="fill:#89bedc;" x="82.90158" xlink:href="#C0_0_88badd3fae" y="155.926206"/>
    </g>
    <g clip-path="url(#p556cba9f5f)">
     <use style="fill:#539ecd;" x="82.820482" xlink:href="#C0_0_88badd3fae" y="162.273061"/>
    </g>
    <g clip-path="url(#p556cba9f5f)">
     <use style="fill:#2b7bba;" x="84.595065" xlink:href="#C0_0_88badd3fae" y="167.195405"/>
    </g>
    <g clip-path="url(#p556cba9f5f)">
     <use style="fill:#0b559f;" x="86.42978" xlink:href="#C0_0_88badd3fae" y="167.908645"/>
    </g>
   </g>
   <g id="PathCollection_8">
    <defs>
     <path d="M 0 2.5 
C 0.663008 2.5 1.29895 2.236584 1.767767 1.767767 
C 2.236584 1.29895 2.5 0.663008 2.5 -0 
C 2.5 -0.663008 2.236584 -1.29895 1.767767 -1.767767 
C 1.29895 -2.236584 0.663008 -2.5 0 -2.5 
C -0.663008 -2.5 -1.29895 -2.236584 -1.767767 -1.767767 
C -2.236584 -1.29895 -2.5 -0.663008 -2.5 0 
C -2.5 0.663008 -2.236584 1.29895 -1.767767 1.767767 
C -1.29895 2.236584 -0.663008 2.5 0 2.5 
z
" id="C1_0_3e6687e48e"/>
    </defs>
    <g clip-path="url(#p556cba9f5f)">
     <use style="fill:#dbe9f6;" x="146.69844" xlink:href="#C1_0_3e6687e48e" y="179.502194"/>
    </g>
    <g clip-path="url(#p556cba9f5f)">
     <use style="fill:#bad6eb;" x="150.552766" xlink:href="#C1_0_3e6687e48e" y="157.4001"/>
    </g>
    <g clip-path="url(#p556cba9f5f)">
     <use style="fill:#89bedc;" x="147.437459" xlink:href="#C1_0_3e6687e48e" y="160.063"/>
    </g>
    <g clip-path="url(#p556cba9f5f)">
     <use style="fill:#539ecd;" x="144.480698" xlink:href="#C1_0_3e6687e48e" y="161.236905"/>
    </g>
    <g clip-path="url(#p556cba9f5f)">
     <use style="fill:#2b7bba;" x="149.900542" xlink:href="#C1_0_3e6687e48e" y="135.866996"/>
    </g>
    <g clip-path="url(#p556cba9f5f)">
     <use style="fill:#0b559f;" x="152.029228" xlink:href="#C1_0_3e6687e48e" y="157.490658"/>
    </g>
    <g clip-path="url(#p556cba9f5f)">
     <use style="fill:#dbe9f6;" x="149.951293" xlink:href="#C1_0_3e6687e48e" y="153.696201"/>
    </g>
    <g clip-path="url(#p556cba9f5f)">
     <use style="fill:#bad6eb;" x="148.099667" xlink:href="#C1_0_3e6687e48e" y="140.773565"/>
    </g>
    <g clip-path="url(#p556cba9f5f)">
     <use style="fill:#89bedc;" x="140.277478" xlink:href="#C1_0_3e6687e48e" y="164.810718"/>
    </g>
    <g clip-path="url(#p556cba9f5f)">
     <use style="fill:#539ecd;" x="147.625864" xlink:href="#C1_0_3e6687e48e" y="162.209034"/>
    </g>
    <g clip-path="url(#p556cba9f5f)">
     <use style="fill:#2b7bba;" x="143.0676" xlink:href="#C1_0_3e6687e48e" y="156.411198"/>
    </g>
    <g clip-path="url(#p556cba9f5f)">
     <use style="fill:#0b559f;" x="145.087766" xlink:href="#C1_0_3e6687e48e" y="159.707994"/>
    </g>
   </g>
   <g id="PathCollection_9">
    <defs>
     <path d="M 0 2.5 
C 0.663008 2.5 1.29895 2.236584 1.767767 1.767767 
C 2.236584 1.29895 2.5 0.663008 2.5 -0 
C 2.5 -0.663008 2.236584 -1.29895 1.767767 -1.767767 
C 1.29895 -2.236584 0.663008 -2.5 0 -2.5 
C -0.663008 -2.5 -1.29895 -2.236584 -1.767767 -1.767767 
C -2.236584 -1.29895 -2.5 -0.663008 -2.5 0 
C -2.5 0.663008 -2.236584 1.29895 -1.767767 1.767767 
C -1.29895 2.236584 -0.663008 2.5 0 2.5 
z
" id="C2_0_93691d96d2"/>
    </defs>
    <g clip-path="url(#p556cba9f5f)">
     <use style="fill:#dbe9f6;" x="205.700088" xlink:href="#C2_0_93691d96d2" y="161.218845"/>
    </g>
    <g clip-path="url(#p556cba9f5f)">
     <use style="fill:#bad6eb;" x="208.440794" xlink:href="#C2_0_93691d96d2" y="141.69706"/>
    </g>
    <g clip-path="url(#p556cba9f5f)">
     <use style="fill:#89bedc;" x="213.406812" xlink:href="#C2_0_93691d96d2" y="132.621378"/>
    </g>
    <g clip-path="url(#p556cba9f5f)">
     <use style="fill:#539ecd;" x="203.160238" xlink:href="#C2_0_93691d96d2" y="121.749463"/>
    </g>
    <g clip-path="url(#p556cba9f5f)">
     <use style="fill:#2b7bba;" x="206.913663" xlink:href="#C2_0_93691d96d2" y="127.674252"/>
    </g>
    <g clip-path="url(#p556cba9f5f)">
     <use style="fill:#0b559f;" x="205.888614" xlink:href="#C2_0_93691d96d2" y="131.516012"/>
    </g>
    <g clip-path="url(#p556cba9f5f)">
     <use style="fill:#dbe9f6;" x="206.692316" xlink:href="#C2_0_93691d96d2" y="164.238896"/>
    </g>
    <g clip-path="url(#p556cba9f5f)">
     <use style="fill:#bad6eb;" x="203.323865" xlink:href="#C2_0_93691d96d2" y="158.042558"/>
    </g>
    <g clip-path="url(#p556cba9f5f)">
     <use style="fill:#89bedc;" x="213.251062" xlink:href="#C2_0_93691d96d2" y="144.323443"/>
    </g>
    <g clip-path="url(#p556cba9f5f)">
     <use style="fill:#539ecd;" x="202.798924" xlink:href="#C2_0_93691d96d2" y="181.655621"/>
    </g>
    <g clip-path="url(#p556cba9f5f)">
     <use style="fill:#2b7bba;" x="212.108957" xlink:href="#C2_0_93691d96d2" y="167.195405"/>
    </g>
    <g clip-path="url(#p556cba9f5f)">
     <use style="fill:#0b559f;" x="204.18516" xlink:href="#C2_0_93691d96d2" y="181.92571"/>
    </g>
   </g>
   <g id="PathCollection_10">
    <defs>
     <path d="M 0 2.5 
C 0.663008 2.5 1.29895 2.236584 1.767767 1.767767 
C 2.236584 1.29895 2.5 0.663008 2.5 -0 
C 2.5 -0.663008 2.236584 -1.29895 1.767767 -1.767767 
C 1.29895 -2.236584 0.663008 -2.5 0 -2.5 
C -0.663008 -2.5 -1.29895 -2.236584 -1.767767 -1.767767 
C -2.236584 -1.29895 -2.5 -0.663008 -2.5 0 
C -2.5 0.663008 -2.236584 1.29895 -1.767767 1.767767 
C -1.29895 2.236584 -0.663008 2.5 0 2.5 
z
" id="C3_0_cfeec130c9"/>
    </defs>
    <g clip-path="url(#p556cba9f5f)">
     <use style="fill:#bad6eb;" x="277.089554" xlink:href="#C3_0_cfeec130c9" y="135.480442"/>
    </g>
    <g clip-path="url(#p556cba9f5f)">
     <use style="fill:#539ecd;" x="272.438088" xlink:href="#C3_0_cfeec130c9" y="105.408919"/>
    </g>
    <g clip-path="url(#p556cba9f5f)">
     <use style="fill:#bad6eb;" x="269.672802" xlink:href="#C3_0_cfeec130c9" y="134.738634"/>
    </g>
    <g clip-path="url(#p556cba9f5f)">
     <use style="fill:#539ecd;" x="276.085404" xlink:href="#C3_0_cfeec130c9" y="66.216441"/>
    </g>
    <g clip-path="url(#p556cba9f5f)">
     <use style="fill:#2b7bba;" x="273.997828" xlink:href="#C3_0_cfeec130c9" y="161.849111"/>
    </g>
   </g>
   <g id="PathCollection_11">
    <defs>
     <path d="M 0 2.5 
C 0.663008 2.5 1.29895 2.236584 1.767767 1.767767 
C 2.236584 1.29895 2.5 0.663008 2.5 -0 
C 2.5 -0.663008 2.236584 -1.29895 1.767767 -1.767767 
C 1.29895 -2.236584 0.663008 -2.5 0 -2.5 
C -0.663008 -2.5 -1.29895 -2.236584 -1.767767 -1.767767 
C -2.236584 -1.29895 -2.5 -0.663008 -2.5 0 
C -2.5 0.663008 -2.236584 1.29895 -1.767767 1.767767 
C -1.29895 2.236584 -0.663008 2.5 0 2.5 
z
" id="C4_0_ed9684ca7d"/>
    </defs>
    <g clip-path="url(#p556cba9f5f)">
     <use style="fill:#dbe9f6;" x="337.592812" xlink:href="#C4_0_ed9684ca7d" y="131.188267"/>
    </g>
    <g clip-path="url(#p556cba9f5f)">
     <use style="fill:#bad6eb;" x="333.290094" xlink:href="#C4_0_ed9684ca7d" y="116.688004"/>
    </g>
    <g clip-path="url(#p556cba9f5f)">
     <use style="fill:#89bedc;" x="331.324413" xlink:href="#C4_0_ed9684ca7d" y="100.030347"/>
    </g>
    <g clip-path="url(#p556cba9f5f)">
     <use style="fill:#539ecd;" x="334.924271" xlink:href="#C4_0_ed9684ca7d" y="107.648123"/>
    </g>
    <g clip-path="url(#p556cba9f5f)">
     <use style="fill:#2b7bba;" x="328.637379" xlink:href="#C4_0_ed9684ca7d" y="76.571916"/>
    </g>
    <g clip-path="url(#p556cba9f5f)">
     <use style="fill:#dbe9f6;" x="329.909049" xlink:href="#C4_0_ed9684ca7d" y="70.038381"/>
    </g>
    <g clip-path="url(#p556cba9f5f)">
     <use style="fill:#bad6eb;" x="338.450435" xlink:href="#C4_0_ed9684ca7d" y="92.783144"/>
    </g>
    <g clip-path="url(#p556cba9f5f)">
     <use style="fill:#539ecd;" x="339.563021" xlink:href="#C4_0_ed9684ca7d" y="118.046906"/>
    </g>
    <g clip-path="url(#p556cba9f5f)">
     <use style="fill:#0b559f;" x="330.352764" xlink:href="#C4_0_ed9684ca7d" y="126.121637"/>
    </g>
   </g>
   <g id="PathCollection_12">
    <defs>
     <path d="M 0 2.5 
C 0.663008 2.5 1.29895 2.236584 1.767767 1.767767 
C 2.236584 1.29895 2.5 0.663008 2.5 -0 
C 2.5 -0.663008 2.236584 -1.29895 1.767767 -1.767767 
C 1.29895 -2.236584 0.663008 -2.5 0 -2.5 
C -0.663008 -2.5 -1.29895 -2.236584 -1.767767 -1.767767 
C -2.236584 -1.29895 -2.5 -0.663008 -2.5 0 
C -2.5 0.663008 -2.236584 1.29895 -1.767767 1.767767 
C -1.29895 2.236584 -0.663008 2.5 0 2.5 
z
" id="C5_0_fdc100081b"/>
    </defs>
    <g clip-path="url(#p556cba9f5f)">
     <use style="fill:#dbe9f6;" x="395.307606" xlink:href="#C5_0_fdc100081b" y="44.215347"/>
    </g>
    <g clip-path="url(#p556cba9f5f)">
     <use style="fill:#bad6eb;" x="390.352461" xlink:href="#C5_0_fdc100081b" y="43.995807"/>
    </g>
    <g clip-path="url(#p556cba9f5f)">
     <use style="fill:#89bedc;" x="400.264118" xlink:href="#C5_0_fdc100081b" y="32.029476"/>
    </g>
    <g clip-path="url(#p556cba9f5f)">
     <use style="fill:#539ecd;" x="398.5184" xlink:href="#C5_0_fdc100081b" y="40.924659"/>
    </g>
    <g clip-path="url(#p556cba9f5f)">
     <use style="fill:#2b7bba;" x="393.48256" xlink:href="#C5_0_fdc100081b" y="28.471165"/>
    </g>
    <g clip-path="url(#p556cba9f5f)">
     <use style="fill:#0b559f;" x="398.896011" xlink:href="#C5_0_fdc100081b" y="43.136754"/>
    </g>
    <g clip-path="url(#p556cba9f5f)">
     <use style="fill:#dbe9f6;" x="394.057038" xlink:href="#C5_0_fdc100081b" y="30.319592"/>
    </g>
    <g clip-path="url(#p556cba9f5f)">
     <use style="fill:#bad6eb;" x="395.839469" xlink:href="#C5_0_fdc100081b" y="36.979691"/>
    </g>
    <g clip-path="url(#p556cba9f5f)">
     <use style="fill:#89bedc;" x="399.085784" xlink:href="#C5_0_fdc100081b" y="90.231787"/>
    </g>
    <g clip-path="url(#p556cba9f5f)">
     <use style="fill:#539ecd;" x="396.22248" xlink:href="#C5_0_fdc100081b" y="37.492549"/>
    </g>
    <g clip-path="url(#p556cba9f5f)">
     <use style="fill:#2b7bba;" x="391.335503" xlink:href="#C5_0_fdc100081b" y="115.447966"/>
    </g>
    <g clip-path="url(#p556cba9f5f)">
     <use style="fill:#0b559f;" x="400.813768" xlink:href="#C5_0_fdc100081b" y="84.676197"/>
    </g>
   </g>
   <g id="text_14">
    <!-- Peripheral -->
    <g style="fill:#262626;" transform="translate(214.467108 14.798437)scale(0.1 -0.1)">
     <defs>
      <path d="M 54.890625 33.015625 
L 54.890625 0 
L 45.90625 0 
L 45.90625 32.71875 
Q 45.90625 40.484375 42.875 44.328125 
Q 39.84375 48.1875 33.796875 48.1875 
Q 26.515625 48.1875 22.3125 43.546875 
Q 18.109375 38.921875 18.109375 30.90625 
L 18.109375 0 
L 9.078125 0 
L 9.078125 75.984375 
L 18.109375 75.984375 
L 18.109375 46.1875 
Q 21.34375 51.125 25.703125 53.5625 
Q 30.078125 56 35.796875 56 
Q 45.21875 56 50.046875 50.171875 
Q 54.890625 44.34375 54.890625 33.015625 
z
" id="DejaVuSans-104"/>
     </defs>
     <use xlink:href="#DejaVuSans-80"/>
     <use x="56.677734" xlink:href="#DejaVuSans-101"/>
     <use x="118.201172" xlink:href="#DejaVuSans-114"/>
     <use x="159.314453" xlink:href="#DejaVuSans-105"/>
     <use x="187.097656" xlink:href="#DejaVuSans-112"/>
     <use x="250.574219" xlink:href="#DejaVuSans-104"/>
     <use x="313.953125" xlink:href="#DejaVuSans-101"/>
     <use x="375.476562" xlink:href="#DejaVuSans-114"/>
     <use x="416.589844" xlink:href="#DejaVuSans-97"/>
     <use x="477.869141" xlink:href="#DejaVuSans-108"/>
    </g>
   </g>
  </g>
  <g id="axes_2">
   <g id="patch_12">
    <path d="M 52.160938 400.198437 
L 427.338903 400.198437 
L 427.338903 231.398437 
L 52.160938 231.398437 
z
" style="fill:#ffffff;"/>
   </g>
   <g id="matplotlib.axis_3">
    <g id="xtick_7">
     <g id="text_15">
      <!-- Endo -->
      <g style="fill:#262626;" transform="translate(70.864049 414.796875)scale(0.1 -0.1)">
       <use xlink:href="#DejaVuSans-69"/>
       <use x="63.183594" xlink:href="#DejaVuSans-110"/>
       <use x="126.5625" xlink:href="#DejaVuSans-100"/>
       <use x="190.039062" xlink:href="#DejaVuSans-111"/>
      </g>
     </g>
    </g>
    <g id="xtick_8">
     <g id="text_16">
      <!-- SMC -->
      <g style="fill:#262626;" transform="translate(134.975741 414.796875)scale(0.1 -0.1)">
       <use xlink:href="#DejaVuSans-83"/>
       <use x="63.476562" xlink:href="#DejaVuSans-77"/>
       <use x="149.755859" xlink:href="#DejaVuSans-67"/>
      </g>
     </g>
    </g>
    <g id="xtick_9">
     <g id="text_17">
      <!-- VLMC -->
      <g style="fill:#262626;" transform="translate(194.473371 414.796875)scale(0.1 -0.1)">
       <use xlink:href="#DejaVuSans-86"/>
       <use x="68.408203" xlink:href="#DejaVuSans-76"/>
       <use x="124.121094" xlink:href="#DejaVuSans-77"/>
       <use x="210.400391" xlink:href="#DejaVuSans-67"/>
      </g>
     </g>
    </g>
    <g id="xtick_10">
     <g id="text_18">
      <!-- OPC -->
      <g style="fill:#262626;" transform="translate(260.572563 414.796875)scale(0.1 -0.1)">
       <use xlink:href="#DejaVuSans-79"/>
       <use x="78.710938" xlink:href="#DejaVuSans-80"/>
       <use x="139.013672" xlink:href="#DejaVuSans-67"/>
      </g>
     </g>
    </g>
    <g id="xtick_11">
     <g id="text_19">
      <!-- Astro -->
      <g style="fill:#262626;" transform="translate(320.556912 414.796875)scale(0.1 -0.1)">
       <use xlink:href="#DejaVuSans-65"/>
       <use x="68.408203" xlink:href="#DejaVuSans-115"/>
       <use x="120.507812" xlink:href="#DejaVuSans-116"/>
       <use x="159.716797" xlink:href="#DejaVuSans-114"/>
       <use x="198.580078" xlink:href="#DejaVuSans-111"/>
      </g>
     </g>
    </g>
    <g id="xtick_12">
     <g id="text_20">
      <!-- Oligo -->
      <g style="fill:#262626;" transform="translate(383.126417 414.796875)scale(0.1 -0.1)">
       <use xlink:href="#DejaVuSans-79"/>
       <use x="78.710938" xlink:href="#DejaVuSans-108"/>
       <use x="106.494141" xlink:href="#DejaVuSans-105"/>
       <use x="134.277344" xlink:href="#DejaVuSans-103"/>
       <use x="197.753906" xlink:href="#DejaVuSans-111"/>
      </g>
     </g>
    </g>
   </g>
   <g id="matplotlib.axis_4">
    <g id="ytick_7">
     <g id="line2d_19">
      <path clip-path="url(#pe015836e62)" d="M 52.160938 383.767363 
L 427.338903 383.767363 
" style="fill:none;stroke:#cccccc;stroke-linecap:round;stroke-width:0.8;"/>
     </g>
     <g id="text_21">
      <!-- −0.3 -->
      <g style="fill:#262626;" transform="translate(20.878125 387.566581)scale(0.1 -0.1)">
       <use xlink:href="#DejaVuSans-8722"/>
       <use x="83.789062" xlink:href="#DejaVuSans-48"/>
       <use x="147.412109" xlink:href="#DejaVuSans-46"/>
       <use x="179.199219" xlink:href="#DejaVuSans-51"/>
      </g>
     </g>
    </g>
    <g id="ytick_8">
     <g id="line2d_20">
      <path clip-path="url(#pe015836e62)" d="M 52.160938 361.141631 
L 427.338903 361.141631 
" style="fill:none;stroke:#cccccc;stroke-linecap:round;stroke-width:0.8;"/>
     </g>
     <g id="text_22">
      <!-- −0.2 -->
      <g style="fill:#262626;" transform="translate(20.878125 364.94085)scale(0.1 -0.1)">
       <use xlink:href="#DejaVuSans-8722"/>
       <use x="83.789062" xlink:href="#DejaVuSans-48"/>
       <use x="147.412109" xlink:href="#DejaVuSans-46"/>
       <use x="179.199219" xlink:href="#DejaVuSans-50"/>
      </g>
     </g>
    </g>
    <g id="ytick_9">
     <g id="line2d_21">
      <path clip-path="url(#pe015836e62)" d="M 52.160938 338.515899 
L 427.338903 338.515899 
" style="fill:none;stroke:#cccccc;stroke-linecap:round;stroke-width:0.8;"/>
     </g>
     <g id="text_23">
      <!-- −0.1 -->
      <g style="fill:#262626;" transform="translate(20.878125 342.315118)scale(0.1 -0.1)">
       <use xlink:href="#DejaVuSans-8722"/>
       <use x="83.789062" xlink:href="#DejaVuSans-48"/>
       <use x="147.412109" xlink:href="#DejaVuSans-46"/>
       <use x="179.199219" xlink:href="#DejaVuSans-49"/>
      </g>
     </g>
    </g>
    <g id="ytick_10">
     <g id="line2d_22">
      <path clip-path="url(#pe015836e62)" d="M 52.160938 315.890168 
L 427.338903 315.890168 
" style="fill:none;stroke:#cccccc;stroke-linecap:round;stroke-width:0.8;"/>
     </g>
     <g id="text_24">
      <!-- 0.0 -->
      <g style="fill:#262626;" transform="translate(29.257813 319.689387)scale(0.1 -0.1)">
       <use xlink:href="#DejaVuSans-48"/>
       <use x="63.623047" xlink:href="#DejaVuSans-46"/>
       <use x="95.410156" xlink:href="#DejaVuSans-48"/>
      </g>
     </g>
    </g>
    <g id="ytick_11">
     <g id="line2d_23">
      <path clip-path="url(#pe015836e62)" d="M 52.160938 293.264436 
L 427.338903 293.264436 
" style="fill:none;stroke:#cccccc;stroke-linecap:round;stroke-width:0.8;"/>
     </g>
     <g id="text_25">
      <!-- 0.1 -->
      <g style="fill:#262626;" transform="translate(29.257813 297.063655)scale(0.1 -0.1)">
       <use xlink:href="#DejaVuSans-48"/>
       <use x="63.623047" xlink:href="#DejaVuSans-46"/>
       <use x="95.410156" xlink:href="#DejaVuSans-49"/>
      </g>
     </g>
    </g>
    <g id="ytick_12">
     <g id="line2d_24">
      <path clip-path="url(#pe015836e62)" d="M 52.160938 270.638705 
L 427.338903 270.638705 
" style="fill:none;stroke:#cccccc;stroke-linecap:round;stroke-width:0.8;"/>
     </g>
     <g id="text_26">
      <!-- 0.2 -->
      <g style="fill:#262626;" transform="translate(29.257813 274.437924)scale(0.1 -0.1)">
       <use xlink:href="#DejaVuSans-48"/>
       <use x="63.623047" xlink:href="#DejaVuSans-46"/>
       <use x="95.410156" xlink:href="#DejaVuSans-50"/>
      </g>
     </g>
    </g>
    <g id="ytick_13">
     <g id="line2d_25">
      <path clip-path="url(#pe015836e62)" d="M 52.160938 248.012973 
L 427.338903 248.012973 
" style="fill:none;stroke:#cccccc;stroke-linecap:round;stroke-width:0.8;"/>
     </g>
     <g id="text_27">
      <!-- 0.3 -->
      <g style="fill:#262626;" transform="translate(29.257813 251.812192)scale(0.1 -0.1)">
       <use xlink:href="#DejaVuSans-48"/>
       <use x="63.623047" xlink:href="#DejaVuSans-46"/>
       <use x="95.410156" xlink:href="#DejaVuSans-51"/>
      </g>
     </g>
    </g>
    <g id="text_28">
     <!-- Median score per sample/ontology -->
     <g style="fill:#262626;" transform="translate(14.798438 402.184375)rotate(-90)scale(0.1 -0.1)">
      <use xlink:href="#DejaVuSans-77"/>
      <use x="86.279297" xlink:href="#DejaVuSans-101"/>
      <use x="147.802734" xlink:href="#DejaVuSans-100"/>
      <use x="211.279297" xlink:href="#DejaVuSans-105"/>
      <use x="239.0625" xlink:href="#DejaVuSans-97"/>
      <use x="300.341797" xlink:href="#DejaVuSans-110"/>
      <use x="363.720703" xlink:href="#DejaVuSans-32"/>
      <use x="395.507812" xlink:href="#DejaVuSans-115"/>
      <use x="447.607422" xlink:href="#DejaVuSans-99"/>
      <use x="502.587891" xlink:href="#DejaVuSans-111"/>
      <use x="563.769531" xlink:href="#DejaVuSans-114"/>
      <use x="602.632812" xlink:href="#DejaVuSans-101"/>
      <use x="664.15625" xlink:href="#DejaVuSans-32"/>
      <use x="695.943359" xlink:href="#DejaVuSans-112"/>
      <use x="759.419922" xlink:href="#DejaVuSans-101"/>
      <use x="820.943359" xlink:href="#DejaVuSans-114"/>
      <use x="862.056641" xlink:href="#DejaVuSans-32"/>
      <use x="893.84375" xlink:href="#DejaVuSans-115"/>
      <use x="945.943359" xlink:href="#DejaVuSans-97"/>
      <use x="1007.222656" xlink:href="#DejaVuSans-109"/>
      <use x="1104.634766" xlink:href="#DejaVuSans-112"/>
      <use x="1168.111328" xlink:href="#DejaVuSans-108"/>
      <use x="1195.894531" xlink:href="#DejaVuSans-101"/>
      <use x="1257.417969" xlink:href="#DejaVuSans-47"/>
      <use x="1291.109375" xlink:href="#DejaVuSans-111"/>
      <use x="1352.291016" xlink:href="#DejaVuSans-110"/>
      <use x="1415.669922" xlink:href="#DejaVuSans-116"/>
      <use x="1454.878906" xlink:href="#DejaVuSans-111"/>
      <use x="1516.060547" xlink:href="#DejaVuSans-108"/>
      <use x="1543.84375" xlink:href="#DejaVuSans-111"/>
      <use x="1605.025391" xlink:href="#DejaVuSans-103"/>
      <use x="1668.501953" xlink:href="#DejaVuSans-121"/>
     </g>
    </g>
   </g>
   <g id="patch_13">
    <path clip-path="url(#pe015836e62)" d="M 58.413904 388.489358 
L 108.437632 388.489358 
L 108.437632 384.461324 
L 58.413904 384.461324 
L 58.413904 388.489358 
z
" style="fill:#c6c6c6;stroke:#3e3e3e;stroke-linejoin:miter;stroke-width:1.5;"/>
   </g>
   <g id="patch_14">
    <path clip-path="url(#pe015836e62)" d="M 120.943565 339.093122 
L 170.967293 339.093122 
L 170.967293 337.023303 
L 120.943565 337.023303 
L 120.943565 339.093122 
z
" style="fill:#c6c6c6;stroke:#3e3e3e;stroke-linejoin:miter;stroke-width:1.5;"/>
   </g>
   <g id="patch_15">
    <path clip-path="url(#pe015836e62)" d="M 183.473226 324.091648 
L 233.496954 324.091648 
L 233.496954 297.73176 
L 183.473226 297.73176 
L 183.473226 324.091648 
z
" style="fill:#686868;stroke:#3e3e3e;stroke-linejoin:miter;stroke-width:1.5;"/>
   </g>
   <g id="patch_16">
    <path clip-path="url(#pe015836e62)" d="M 246.002887 306.345815 
L 296.026615 306.345815 
L 296.026615 287.980838 
L 246.002887 287.980838 
L 246.002887 306.345815 
z
" style="fill:#686868;stroke:#3e3e3e;stroke-linejoin:miter;stroke-width:1.5;"/>
   </g>
   <g id="patch_17">
    <path clip-path="url(#pe015836e62)" d="M 308.532548 293.57019 
L 358.556276 293.57019 
L 358.556276 278.414333 
L 308.532548 278.414333 
L 308.532548 293.57019 
z
" style="fill:#686868;stroke:#3e3e3e;stroke-linejoin:miter;stroke-width:1.5;"/>
   </g>
   <g id="patch_18">
    <path clip-path="url(#pe015836e62)" d="M 371.062208 279.800121 
L 421.085937 279.800121 
L 421.085937 252.402627 
L 371.062208 252.402627 
L 371.062208 279.800121 
z
" style="fill:#686868;stroke:#3e3e3e;stroke-linejoin:miter;stroke-width:1.5;"/>
   </g>
   <g id="PathCollection_13"/>
   <g id="PathCollection_14"/>
   <g id="PathCollection_15"/>
   <g id="PathCollection_16"/>
   <g id="PathCollection_17"/>
   <g id="PathCollection_18"/>
   <g id="patch_19">
    <path clip-path="url(#pe015836e62)" d="M 83.425768 315.890168 
L 83.425768 315.890168 
L 83.425768 315.890168 
L 83.425768 315.890168 
z
" style="fill:#c6c6c6;stroke:#3e3e3e;stroke-linejoin:miter;stroke-width:0.75;"/>
   </g>
   <g id="patch_20">
    <path clip-path="url(#pe015836e62)" d="M 83.425768 315.890168 
L 83.425768 315.890168 
L 83.425768 315.890168 
L 83.425768 315.890168 
z
" style="fill:#686868;stroke:#3e3e3e;stroke-linejoin:miter;stroke-width:0.75;"/>
   </g>
   <g id="line2d_26"/>
   <g id="line2d_27"/>
   <g id="line2d_28"/>
   <g id="line2d_29"/>
   <g id="line2d_30"/>
   <g id="line2d_31"/>
   <g id="line2d_32">
    <path clip-path="url(#pe015836e62)" d="M 58.413904 385.799416 
L 108.437632 385.799416 
" style="fill:none;stroke:#3e3e3e;stroke-linecap:round;stroke-width:1.5;"/>
   </g>
   <g id="line2d_33">
    <path clip-path="url(#pe015836e62)" d="M 120.943565 338.622803 
L 170.967293 338.622803 
" style="fill:none;stroke:#3e3e3e;stroke-linecap:round;stroke-width:1.5;"/>
   </g>
   <g id="line2d_34">
    <path clip-path="url(#pe015836e62)" d="M 183.473226 304.28962 
L 233.496954 304.28962 
" style="fill:none;stroke:#3e3e3e;stroke-linecap:round;stroke-width:1.5;"/>
   </g>
   <g id="line2d_35">
    <path clip-path="url(#pe015836e62)" d="M 246.002887 300.82893 
L 296.026615 300.82893 
" style="fill:none;stroke:#3e3e3e;stroke-linecap:round;stroke-width:1.5;"/>
   </g>
   <g id="line2d_36">
    <path clip-path="url(#pe015836e62)" d="M 308.532548 280.275591 
L 358.556276 280.275591 
" style="fill:none;stroke:#3e3e3e;stroke-linecap:round;stroke-width:1.5;"/>
   </g>
   <g id="line2d_37">
    <path clip-path="url(#pe015836e62)" d="M 371.062208 260.62811 
L 421.085937 260.62811 
" style="fill:none;stroke:#3e3e3e;stroke-linecap:round;stroke-width:1.5;"/>
   </g>
   <g id="patch_21">
    <path d="M 52.160938 400.198437 
L 427.338903 400.198437 
" style="fill:none;stroke:#cccccc;stroke-linecap:square;stroke-linejoin:miter;stroke-width:0.8;"/>
   </g>
   <g id="PathCollection_19">
    <defs>
     <path d="M 0 2.5 
C 0.663008 2.5 1.29895 2.236584 1.767767 1.767767 
C 2.236584 1.29895 2.5 0.663008 2.5 -0 
C 2.5 -0.663008 2.236584 -1.29895 1.767767 -1.767767 
C 1.29895 -2.236584 0.663008 -2.5 0 -2.5 
C -0.663008 -2.5 -1.29895 -2.236584 -1.767767 -1.767767 
C -2.236584 -1.29895 -2.5 -0.663008 -2.5 0 
C -2.5 0.663008 -2.236584 1.29895 -1.767767 1.767767 
C -1.29895 2.236584 -0.663008 2.5 0 2.5 
z
" id="C6_0_41220c6095"/>
    </defs>
    <g clip-path="url(#pe015836e62)">
     <use style="fill:#dbe9f6;" x="84.653008" xlink:href="#C6_0_41220c6095" y="392.52571"/>
    </g>
    <g clip-path="url(#pe015836e62)">
     <use style="fill:#bad6eb;" x="81.806225" xlink:href="#C6_0_41220c6095" y="382.916908"/>
    </g>
    <g clip-path="url(#pe015836e62)">
     <use style="fill:#89bedc;" x="89.311231" xlink:href="#C6_0_41220c6095" y="389.746183"/>
    </g>
    <g clip-path="url(#pe015836e62)">
     <use style="fill:#539ecd;" x="80.964927" xlink:href="#C6_0_41220c6095" y="391.309273"/>
    </g>
    <g clip-path="url(#pe015836e62)">
     <use style="fill:#2b7bba;" x="85.972602" xlink:href="#C6_0_41220c6095" y="388.070416"/>
    </g>
    <g clip-path="url(#pe015836e62)">
     <use style="fill:#0b559f;" x="89.031384" xlink:href="#C6_0_41220c6095" y="385.370761"/>
    </g>
    <g clip-path="url(#pe015836e62)">
     <use style="fill:#dbe9f6;" x="84.034336" xlink:href="#C6_0_41220c6095" y="382.971483"/>
    </g>
    <g clip-path="url(#pe015836e62)">
     <use style="fill:#bad6eb;" x="78.663504" xlink:href="#C6_0_41220c6095" y="386.946184"/>
    </g>
    <g clip-path="url(#pe015836e62)">
     <use style="fill:#89bedc;" x="83.645126" xlink:href="#C6_0_41220c6095" y="386.228071"/>
    </g>
    <g clip-path="url(#pe015836e62)">
     <use style="fill:#539ecd;" x="82.065349" xlink:href="#C6_0_41220c6095" y="384.957937"/>
    </g>
    <g clip-path="url(#pe015836e62)">
     <use style="fill:#2b7bba;" x="79.247462" xlink:href="#C6_0_41220c6095" y="382.436437"/>
    </g>
    <g clip-path="url(#pe015836e62)">
     <use style="fill:#0b559f;" x="86.98312" xlink:href="#C6_0_41220c6095" y="384.958191"/>
    </g>
   </g>
   <g id="PathCollection_20">
    <defs>
     <path d="M 0 2.5 
C 0.663008 2.5 1.29895 2.236584 1.767767 1.767767 
C 2.236584 1.29895 2.5 0.663008 2.5 -0 
C 2.5 -0.663008 2.236584 -1.29895 1.767767 -1.767767 
C 1.29895 -2.236584 0.663008 -2.5 0 -2.5 
C -0.663008 -2.5 -1.29895 -2.236584 -1.767767 -1.767767 
C -2.236584 -1.29895 -2.5 -0.663008 -2.5 0 
C -2.5 0.663008 -2.236584 1.29895 -1.767767 1.767767 
C -1.29895 2.236584 -0.663008 2.5 0 2.5 
z
" id="C7_0_1568a4dbf9"/>
    </defs>
    <g clip-path="url(#pe015836e62)">
     <use style="fill:#dbe9f6;" x="150.396802" xlink:href="#C7_0_1568a4dbf9" y="338.082871"/>
    </g>
    <g clip-path="url(#pe015836e62)">
     <use style="fill:#bad6eb;" x="148.732751" xlink:href="#C7_0_1568a4dbf9" y="337.593676"/>
    </g>
    <g clip-path="url(#pe015836e62)">
     <use style="fill:#89bedc;" x="145.483224" xlink:href="#C7_0_1568a4dbf9" y="338.929425"/>
    </g>
    <g clip-path="url(#pe015836e62)">
     <use style="fill:#539ecd;" x="144.032522" xlink:href="#C7_0_1568a4dbf9" y="334.678713"/>
    </g>
    <g clip-path="url(#pe015836e62)">
     <use style="fill:#2b7bba;" x="150.542769" xlink:href="#C7_0_1568a4dbf9" y="338.691293"/>
    </g>
    <g clip-path="url(#pe015836e62)">
     <use style="fill:#0b559f;" x="146.68891" xlink:href="#C7_0_1568a4dbf9" y="342.330199"/>
    </g>
    <g clip-path="url(#pe015836e62)">
     <use style="fill:#dbe9f6;" x="151.307356" xlink:href="#C7_0_1568a4dbf9" y="338.966227"/>
    </g>
    <g clip-path="url(#pe015836e62)">
     <use style="fill:#bad6eb;" x="151.021295" xlink:href="#C7_0_1568a4dbf9" y="335.312182"/>
    </g>
    <g clip-path="url(#pe015836e62)">
     <use style="fill:#89bedc;" x="147.907423" xlink:href="#C7_0_1568a4dbf9" y="339.473807"/>
    </g>
    <g clip-path="url(#pe015836e62)">
     <use style="fill:#539ecd;" x="149.977901" xlink:href="#C7_0_1568a4dbf9" y="338.554313"/>
    </g>
    <g clip-path="url(#pe015836e62)">
     <use style="fill:#2b7bba;" x="140.593496" xlink:href="#C7_0_1568a4dbf9" y="346.655189"/>
    </g>
    <g clip-path="url(#pe015836e62)">
     <use style="fill:#0b559f;" x="141.119689" xlink:href="#C7_0_1568a4dbf9" y="334.533093"/>
    </g>
   </g>
   <g id="PathCollection_21">
    <defs>
     <path d="M 0 2.5 
C 0.663008 2.5 1.29895 2.236584 1.767767 1.767767 
C 2.236584 1.29895 2.5 0.663008 2.5 -0 
C 2.5 -0.663008 2.236584 -1.29895 1.767767 -1.767767 
C 1.29895 -2.236584 0.663008 -2.5 0 -2.5 
C -0.663008 -2.5 -1.29895 -2.236584 -1.767767 -1.767767 
C -2.236584 -1.29895 -2.5 -0.663008 -2.5 0 
C -2.5 0.663008 -2.236584 1.29895 -1.767767 1.767767 
C -1.29895 2.236584 -0.663008 2.5 0 2.5 
z
" id="C8_0_cd64f02dbd"/>
    </defs>
    <g clip-path="url(#pe015836e62)">
     <use style="fill:#dbe9f6;" x="212.634885" xlink:href="#C8_0_cd64f02dbd" y="326.021093"/>
    </g>
    <g clip-path="url(#pe015836e62)">
     <use style="fill:#bad6eb;" x="208.168831" xlink:href="#C8_0_cd64f02dbd" y="298.935485"/>
    </g>
    <g clip-path="url(#pe015836e62)">
     <use style="fill:#89bedc;" x="214.396391" xlink:href="#C8_0_cd64f02dbd" y="302.081036"/>
    </g>
    <g clip-path="url(#pe015836e62)">
     <use style="fill:#539ecd;" x="205.89526" xlink:href="#C8_0_cd64f02dbd" y="306.498204"/>
    </g>
    <g clip-path="url(#pe015836e62)">
     <use style="fill:#2b7bba;" x="202.572722" xlink:href="#C8_0_cd64f02dbd" y="300.969212"/>
    </g>
    <g clip-path="url(#pe015836e62)">
     <use style="fill:#0b559f;" x="211.123564" xlink:href="#C8_0_cd64f02dbd" y="294.120586"/>
    </g>
    <g clip-path="url(#pe015836e62)">
     <use style="fill:#dbe9f6;" x="209.534656" xlink:href="#C8_0_cd64f02dbd" y="324.787928"/>
    </g>
    <g clip-path="url(#pe015836e62)">
     <use style="fill:#bad6eb;" x="207.552769" xlink:href="#C8_0_cd64f02dbd" y="312.298782"/>
    </g>
    <g clip-path="url(#pe015836e62)">
     <use style="fill:#89bedc;" x="208.584268" xlink:href="#C8_0_cd64f02dbd" y="287.036315"/>
    </g>
    <g clip-path="url(#pe015836e62)">
     <use style="fill:#539ecd;" x="203.308038" xlink:href="#C8_0_cd64f02dbd" y="291.933511"/>
    </g>
    <g clip-path="url(#pe015836e62)">
     <use style="fill:#2b7bba;" x="213.699467" xlink:href="#C8_0_cd64f02dbd" y="337.722014"/>
    </g>
    <g clip-path="url(#pe015836e62)">
     <use style="fill:#0b559f;" x="209.806316" xlink:href="#C8_0_cd64f02dbd" y="323.859555"/>
    </g>
   </g>
   <g id="PathCollection_22">
    <defs>
     <path d="M 0 2.5 
C 0.663008 2.5 1.29895 2.236584 1.767767 1.767767 
C 2.236584 1.29895 2.5 0.663008 2.5 -0 
C 2.5 -0.663008 2.236584 -1.29895 1.767767 -1.767767 
C 1.29895 -2.236584 0.663008 -2.5 0 -2.5 
C -0.663008 -2.5 -1.29895 -2.236584 -1.767767 -1.767767 
C -2.236584 -1.29895 -2.5 -0.663008 -2.5 0 
C -2.5 0.663008 -2.236584 1.29895 -1.767767 1.767767 
C -1.29895 2.236584 -0.663008 2.5 0 2.5 
z
" id="C9_0_90563196a0"/>
    </defs>
    <g clip-path="url(#pe015836e62)">
     <use style="fill:#bad6eb;" x="272.416359" xlink:href="#C9_0_90563196a0" y="306.345815"/>
    </g>
    <g clip-path="url(#pe015836e62)">
     <use style="fill:#539ecd;" x="272.14653" xlink:href="#C9_0_90563196a0" y="300.82893"/>
    </g>
    <g clip-path="url(#pe015836e62)">
     <use style="fill:#bad6eb;" x="268.979804" xlink:href="#C9_0_90563196a0" y="345.696521"/>
    </g>
    <g clip-path="url(#pe015836e62)">
     <use style="fill:#539ecd;" x="276.296565" xlink:href="#C9_0_90563196a0" y="275.858335"/>
    </g>
    <g clip-path="url(#pe015836e62)">
     <use style="fill:#2b7bba;" x="265.767385" xlink:href="#C9_0_90563196a0" y="287.980838"/>
    </g>
   </g>
   <g id="PathCollection_23">
    <defs>
     <path d="M 0 2.5 
C 0.663008 2.5 1.29895 2.236584 1.767767 1.767767 
C 2.236584 1.29895 2.5 0.663008 2.5 -0 
C 2.5 -0.663008 2.236584 -1.29895 1.767767 -1.767767 
C 1.29895 -2.236584 0.663008 -2.5 0 -2.5 
C -0.663008 -2.5 -1.29895 -2.236584 -1.767767 -1.767767 
C -2.236584 -1.29895 -2.5 -0.663008 -2.5 0 
C -2.5 0.663008 -2.236584 1.29895 -1.767767 1.767767 
C -1.29895 2.236584 -0.663008 2.5 0 2.5 
z
" id="Ca_0_58e2de1adc"/>
    </defs>
    <g clip-path="url(#pe015836e62)">
     <use style="fill:#dbe9f6;" x="329.31665" xlink:href="#Ca_0_58e2de1adc" y="282.779341"/>
    </g>
    <g clip-path="url(#pe015836e62)">
     <use style="fill:#bad6eb;" x="333.221426" xlink:href="#Ca_0_58e2de1adc" y="308.150319"/>
    </g>
    <g clip-path="url(#pe015836e62)">
     <use style="fill:#89bedc;" x="327.940644" xlink:href="#Ca_0_58e2de1adc" y="280.275591"/>
    </g>
    <g clip-path="url(#pe015836e62)">
     <use style="fill:#539ecd;" x="330.555385" xlink:href="#Ca_0_58e2de1adc" y="295.671429"/>
    </g>
    <g clip-path="url(#pe015836e62)">
     <use style="fill:#2b7bba;" x="335.408863" xlink:href="#Ca_0_58e2de1adc" y="274.691075"/>
    </g>
    <g clip-path="url(#pe015836e62)">
     <use style="fill:#dbe9f6;" x="333.762121" xlink:href="#Ca_0_58e2de1adc" y="278.83078"/>
    </g>
    <g clip-path="url(#pe015836e62)">
     <use style="fill:#bad6eb;" x="335.265725" xlink:href="#Ca_0_58e2de1adc" y="278.414333"/>
    </g>
    <g clip-path="url(#pe015836e62)">
     <use style="fill:#539ecd;" x="335.934273" xlink:href="#Ca_0_58e2de1adc" y="293.57019"/>
    </g>
    <g clip-path="url(#pe015836e62)">
     <use style="fill:#0b559f;" x="328.884877" xlink:href="#Ca_0_58e2de1adc" y="272.882579"/>
    </g>
   </g>
   <g id="PathCollection_24">
    <defs>
     <path d="M 0 2.5 
C 0.663008 2.5 1.29895 2.236584 1.767767 1.767767 
C 2.236584 1.29895 2.5 0.663008 2.5 -0 
C 2.5 -0.663008 2.236584 -1.29895 1.767767 -1.767767 
C 1.29895 -2.236584 0.663008 -2.5 0 -2.5 
C -0.663008 -2.5 -1.29895 -2.236584 -1.767767 -1.767767 
C -2.236584 -1.29895 -2.5 -0.663008 -2.5 0 
C -2.5 0.663008 -2.236584 1.29895 -1.767767 1.767767 
C -1.29895 2.236584 -0.663008 2.5 0 2.5 
z
" id="Cb_0_96d0ee7f78"/>
    </defs>
    <g clip-path="url(#pe015836e62)">
     <use style="fill:#dbe9f6;" x="390.381674" xlink:href="#Cb_0_96d0ee7f78" y="279.972835"/>
    </g>
    <g clip-path="url(#pe015836e62)">
     <use style="fill:#bad6eb;" x="394.409399" xlink:href="#Cb_0_96d0ee7f78" y="239.071165"/>
    </g>
    <g clip-path="url(#pe015836e62)">
     <use style="fill:#89bedc;" x="394.869869" xlink:href="#Cb_0_96d0ee7f78" y="255.081431"/>
    </g>
    <g clip-path="url(#pe015836e62)">
     <use style="fill:#539ecd;" x="401.916288" xlink:href="#Cb_0_96d0ee7f78" y="242.509417"/>
    </g>
    <g clip-path="url(#pe015836e62)">
     <use style="fill:#2b7bba;" x="400.060182" xlink:href="#Cb_0_96d0ee7f78" y="288.247872"/>
    </g>
    <g clip-path="url(#pe015836e62)">
     <use style="fill:#0b559f;" x="391.269926" xlink:href="#Cb_0_96d0ee7f78" y="279.74255"/>
    </g>
    <g clip-path="url(#pe015836e62)">
     <use style="fill:#dbe9f6;" x="394.942685" xlink:href="#Cb_0_96d0ee7f78" y="257.063266"/>
    </g>
    <g clip-path="url(#pe015836e62)">
     <use style="fill:#bad6eb;" x="393.324861" xlink:href="#Cb_0_96d0ee7f78" y="244.366215"/>
    </g>
    <g clip-path="url(#pe015836e62)">
     <use style="fill:#89bedc;" x="394.127891" xlink:href="#Cb_0_96d0ee7f78" y="291.07485"/>
    </g>
    <g clip-path="url(#pe015836e62)">
     <use style="fill:#539ecd;" x="393.309744" xlink:href="#Cb_0_96d0ee7f78" y="262.846116"/>
    </g>
    <g clip-path="url(#pe015836e62)">
     <use style="fill:#2b7bba;" x="401.28596" xlink:href="#Cb_0_96d0ee7f78" y="265.721218"/>
    </g>
    <g clip-path="url(#pe015836e62)">
     <use style="fill:#0b559f;" x="397.081957" xlink:href="#Cb_0_96d0ee7f78" y="258.410103"/>
    </g>
   </g>
   <g id="text_29">
    <!-- Radial -->
    <g style="fill:#262626;" transform="translate(224.307733 225.398437)scale(0.1 -0.1)">
     <defs>
      <path d="M 44.390625 34.1875 
Q 47.5625 33.109375 50.5625 29.59375 
Q 53.5625 26.078125 56.59375 19.921875 
L 66.609375 0 
L 56 0 
L 46.6875 18.703125 
Q 43.0625 26.03125 39.671875 28.421875 
Q 36.28125 30.8125 30.421875 30.8125 
L 19.671875 30.8125 
L 19.671875 0 
L 9.8125 0 
L 9.8125 72.90625 
L 32.078125 72.90625 
Q 44.578125 72.90625 50.734375 67.671875 
Q 56.890625 62.453125 56.890625 51.90625 
Q 56.890625 45.015625 53.6875 40.46875 
Q 50.484375 35.9375 44.390625 34.1875 
z
M 19.671875 64.796875 
L 19.671875 38.921875 
L 32.078125 38.921875 
Q 39.203125 38.921875 42.84375 42.21875 
Q 46.484375 45.515625 46.484375 51.90625 
Q 46.484375 58.296875 42.84375 61.546875 
Q 39.203125 64.796875 32.078125 64.796875 
z
" id="DejaVuSans-82"/>
     </defs>
     <use xlink:href="#DejaVuSans-82"/>
     <use x="67.232422" xlink:href="#DejaVuSans-97"/>
     <use x="128.511719" xlink:href="#DejaVuSans-100"/>
     <use x="191.988281" xlink:href="#DejaVuSans-105"/>
     <use x="219.771484" xlink:href="#DejaVuSans-97"/>
     <use x="281.050781" xlink:href="#DejaVuSans-108"/>
    </g>
   </g>
  </g>
  <g id="legend_1">
   <g id="patch_22">
    <path d="M 434.285778 163.424219 
L 454.285778 163.424219 
L 454.285778 156.424219 
L 434.285778 156.424219 
z
" style="fill:#c6c6c6;stroke:#3e3e3e;stroke-linejoin:miter;stroke-width:0.75;"/>
   </g>
   <g id="text_30">
    <!-- Significant -->
    <g style="fill:#262626;" transform="translate(462.285778 163.424219)scale(0.1 -0.1)">
     <defs>
      <path d="M 37.109375 75.984375 
L 37.109375 68.5 
L 28.515625 68.5 
Q 23.6875 68.5 21.796875 66.546875 
Q 19.921875 64.59375 19.921875 59.515625 
L 19.921875 54.6875 
L 34.71875 54.6875 
L 34.71875 47.703125 
L 19.921875 47.703125 
L 19.921875 0 
L 10.890625 0 
L 10.890625 47.703125 
L 2.296875 47.703125 
L 2.296875 54.6875 
L 10.890625 54.6875 
L 10.890625 58.5 
Q 10.890625 67.625 15.140625 71.796875 
Q 19.390625 75.984375 28.609375 75.984375 
z
" id="DejaVuSans-102"/>
     </defs>
     <use xlink:href="#DejaVuSans-83"/>
     <use x="63.476562" xlink:href="#DejaVuSans-105"/>
     <use x="91.259766" xlink:href="#DejaVuSans-103"/>
     <use x="154.736328" xlink:href="#DejaVuSans-110"/>
     <use x="218.115234" xlink:href="#DejaVuSans-105"/>
     <use x="245.898438" xlink:href="#DejaVuSans-102"/>
     <use x="281.103516" xlink:href="#DejaVuSans-105"/>
     <use x="308.886719" xlink:href="#DejaVuSans-99"/>
     <use x="363.867188" xlink:href="#DejaVuSans-97"/>
     <use x="425.146484" xlink:href="#DejaVuSans-110"/>
     <use x="488.525391" xlink:href="#DejaVuSans-116"/>
    </g>
   </g>
   <g id="patch_23">
    <path d="M 434.285778 178.102344 
L 454.285778 178.102344 
L 454.285778 171.102344 
L 434.285778 171.102344 
z
" style="fill:#686868;stroke:#3e3e3e;stroke-linejoin:miter;stroke-width:0.75;"/>
   </g>
   <g id="text_31">
    <!-- Insignificant -->
    <g style="fill:#262626;" transform="translate(462.285778 178.102344)scale(0.1 -0.1)">
     <defs>
      <path d="M 9.8125 72.90625 
L 19.671875 72.90625 
L 19.671875 0 
L 9.8125 0 
z
" id="DejaVuSans-73"/>
     </defs>
     <use xlink:href="#DejaVuSans-73"/>
     <use x="29.492188" xlink:href="#DejaVuSans-110"/>
     <use x="92.871094" xlink:href="#DejaVuSans-115"/>
     <use x="144.970703" xlink:href="#DejaVuSans-105"/>
     <use x="172.753906" xlink:href="#DejaVuSans-103"/>
     <use x="236.230469" xlink:href="#DejaVuSans-110"/>
     <use x="299.609375" xlink:href="#DejaVuSans-105"/>
     <use x="327.392578" xlink:href="#DejaVuSans-102"/>
     <use x="362.597656" xlink:href="#DejaVuSans-105"/>
     <use x="390.380859" xlink:href="#DejaVuSans-99"/>
     <use x="445.361328" xlink:href="#DejaVuSans-97"/>
     <use x="506.640625" xlink:href="#DejaVuSans-110"/>
     <use x="570.019531" xlink:href="#DejaVuSans-116"/>
    </g>
   </g>
   <g id="PathCollection_25">
    <defs>
     <path d="M 0 3.872983 
C 1.027127 3.872983 2.012324 3.464901 2.738613 2.738613 
C 3.464901 2.012324 3.872983 1.027127 3.872983 0 
C 3.872983 -1.027127 3.464901 -2.012324 2.738613 -2.738613 
C 2.012324 -3.464901 1.027127 -3.872983 0 -3.872983 
C -1.027127 -3.872983 -2.012324 -3.464901 -2.738613 -2.738613 
C -3.464901 -2.012324 -3.872983 -1.027127 -3.872983 0 
C -3.872983 1.027127 -3.464901 2.012324 -2.738613 2.738613 
C -2.012324 3.464901 -1.027127 3.872983 0 3.872983 
z
" id="m2eaa65a5e6" style="stroke:#dbe9f6;"/>
    </defs>
    <g>
     <use style="fill:#dbe9f6;stroke:#dbe9f6;" x="444.285778" xlink:href="#m2eaa65a5e6" y="190.155469"/>
    </g>
   </g>
   <g id="text_32">
    <!-- Sample 1 -->
    <g style="fill:#262626;" transform="translate(462.285778 192.780469)scale(0.1 -0.1)">
     <use xlink:href="#DejaVuSans-83"/>
     <use x="63.476562" xlink:href="#DejaVuSans-97"/>
     <use x="124.755859" xlink:href="#DejaVuSans-109"/>
     <use x="222.167969" xlink:href="#DejaVuSans-112"/>
     <use x="285.644531" xlink:href="#DejaVuSans-108"/>
     <use x="313.427734" xlink:href="#DejaVuSans-101"/>
     <use x="374.951172" xlink:href="#DejaVuSans-32"/>
     <use x="406.738281" xlink:href="#DejaVuSans-49"/>
    </g>
   </g>
   <g id="PathCollection_26">
    <defs>
     <path d="M 0 3.872983 
C 1.027127 3.872983 2.012324 3.464901 2.738613 2.738613 
C 3.464901 2.012324 3.872983 1.027127 3.872983 0 
C 3.872983 -1.027127 3.464901 -2.012324 2.738613 -2.738613 
C 2.012324 -3.464901 1.027127 -3.872983 0 -3.872983 
C -1.027127 -3.872983 -2.012324 -3.464901 -2.738613 -2.738613 
C -3.464901 -2.012324 -3.872983 -1.027127 -3.872983 0 
C -3.872983 1.027127 -3.464901 2.012324 -2.738613 2.738613 
C -2.012324 3.464901 -1.027127 3.872983 0 3.872983 
z
" id="m01561df67f" style="stroke:#bad6eb;"/>
    </defs>
    <g>
     <use style="fill:#bad6eb;stroke:#bad6eb;" x="444.285778" xlink:href="#m01561df67f" y="204.833594"/>
    </g>
   </g>
   <g id="text_33">
    <!-- Sample 2 -->
    <g style="fill:#262626;" transform="translate(462.285778 207.458594)scale(0.1 -0.1)">
     <use xlink:href="#DejaVuSans-83"/>
     <use x="63.476562" xlink:href="#DejaVuSans-97"/>
     <use x="124.755859" xlink:href="#DejaVuSans-109"/>
     <use x="222.167969" xlink:href="#DejaVuSans-112"/>
     <use x="285.644531" xlink:href="#DejaVuSans-108"/>
     <use x="313.427734" xlink:href="#DejaVuSans-101"/>
     <use x="374.951172" xlink:href="#DejaVuSans-32"/>
     <use x="406.738281" xlink:href="#DejaVuSans-50"/>
    </g>
   </g>
   <g id="PathCollection_27">
    <defs>
     <path d="M 0 3.872983 
C 1.027127 3.872983 2.012324 3.464901 2.738613 2.738613 
C 3.464901 2.012324 3.872983 1.027127 3.872983 0 
C 3.872983 -1.027127 3.464901 -2.012324 2.738613 -2.738613 
C 2.012324 -3.464901 1.027127 -3.872983 0 -3.872983 
C -1.027127 -3.872983 -2.012324 -3.464901 -2.738613 -2.738613 
C -3.464901 -2.012324 -3.872983 -1.027127 -3.872983 0 
C -3.872983 1.027127 -3.464901 2.012324 -2.738613 2.738613 
C -2.012324 3.464901 -1.027127 3.872983 0 3.872983 
z
" id="m25303630ab" style="stroke:#89bedc;"/>
    </defs>
    <g>
     <use style="fill:#89bedc;stroke:#89bedc;" x="444.285778" xlink:href="#m25303630ab" y="219.511719"/>
    </g>
   </g>
   <g id="text_34">
    <!-- Sample 3 -->
    <g style="fill:#262626;" transform="translate(462.285778 222.136719)scale(0.1 -0.1)">
     <use xlink:href="#DejaVuSans-83"/>
     <use x="63.476562" xlink:href="#DejaVuSans-97"/>
     <use x="124.755859" xlink:href="#DejaVuSans-109"/>
     <use x="222.167969" xlink:href="#DejaVuSans-112"/>
     <use x="285.644531" xlink:href="#DejaVuSans-108"/>
     <use x="313.427734" xlink:href="#DejaVuSans-101"/>
     <use x="374.951172" xlink:href="#DejaVuSans-32"/>
     <use x="406.738281" xlink:href="#DejaVuSans-51"/>
    </g>
   </g>
   <g id="PathCollection_28">
    <defs>
     <path d="M 0 3.872983 
C 1.027127 3.872983 2.012324 3.464901 2.738613 2.738613 
C 3.464901 2.012324 3.872983 1.027127 3.872983 0 
C 3.872983 -1.027127 3.464901 -2.012324 2.738613 -2.738613 
C 2.012324 -3.464901 1.027127 -3.872983 0 -3.872983 
C -1.027127 -3.872983 -2.012324 -3.464901 -2.738613 -2.738613 
C -3.464901 -2.012324 -3.872983 -1.027127 -3.872983 0 
C -3.872983 1.027127 -3.464901 2.012324 -2.738613 2.738613 
C -2.012324 3.464901 -1.027127 3.872983 0 3.872983 
z
" id="mffe98e01b5" style="stroke:#539ecd;"/>
    </defs>
    <g>
     <use style="fill:#539ecd;stroke:#539ecd;" x="444.285778" xlink:href="#mffe98e01b5" y="234.189844"/>
    </g>
   </g>
   <g id="text_35">
    <!-- Sample 4 -->
    <g style="fill:#262626;" transform="translate(462.285778 236.814844)scale(0.1 -0.1)">
     <use xlink:href="#DejaVuSans-83"/>
     <use x="63.476562" xlink:href="#DejaVuSans-97"/>
     <use x="124.755859" xlink:href="#DejaVuSans-109"/>
     <use x="222.167969" xlink:href="#DejaVuSans-112"/>
     <use x="285.644531" xlink:href="#DejaVuSans-108"/>
     <use x="313.427734" xlink:href="#DejaVuSans-101"/>
     <use x="374.951172" xlink:href="#DejaVuSans-32"/>
     <use x="406.738281" xlink:href="#DejaVuSans-52"/>
    </g>
   </g>
   <g id="PathCollection_29">
    <defs>
     <path d="M 0 3.872983 
C 1.027127 3.872983 2.012324 3.464901 2.738613 2.738613 
C 3.464901 2.012324 3.872983 1.027127 3.872983 0 
C 3.872983 -1.027127 3.464901 -2.012324 2.738613 -2.738613 
C 2.012324 -3.464901 1.027127 -3.872983 0 -3.872983 
C -1.027127 -3.872983 -2.012324 -3.464901 -2.738613 -2.738613 
C -3.464901 -2.012324 -3.872983 -1.027127 -3.872983 0 
C -3.872983 1.027127 -3.464901 2.012324 -2.738613 2.738613 
C -2.012324 3.464901 -1.027127 3.872983 0 3.872983 
z
" id="m0bd5d3b6c6" style="stroke:#2b7bba;"/>
    </defs>
    <g>
     <use style="fill:#2b7bba;stroke:#2b7bba;" x="444.285778" xlink:href="#m0bd5d3b6c6" y="248.867969"/>
    </g>
   </g>
   <g id="text_36">
    <!-- Sample 5 -->
    <g style="fill:#262626;" transform="translate(462.285778 251.492969)scale(0.1 -0.1)">
     <defs>
      <path d="M 10.796875 72.90625 
L 49.515625 72.90625 
L 49.515625 64.59375 
L 19.828125 64.59375 
L 19.828125 46.734375 
Q 21.96875 47.46875 24.109375 47.828125 
Q 26.265625 48.1875 28.421875 48.1875 
Q 40.625 48.1875 47.75 41.5 
Q 54.890625 34.8125 54.890625 23.390625 
Q 54.890625 11.625 47.5625 5.09375 
Q 40.234375 -1.421875 26.90625 -1.421875 
Q 22.3125 -1.421875 17.546875 -0.640625 
Q 12.796875 0.140625 7.71875 1.703125 
L 7.71875 11.625 
Q 12.109375 9.234375 16.796875 8.0625 
Q 21.484375 6.890625 26.703125 6.890625 
Q 35.15625 6.890625 40.078125 11.328125 
Q 45.015625 15.765625 45.015625 23.390625 
Q 45.015625 31 40.078125 35.4375 
Q 35.15625 39.890625 26.703125 39.890625 
Q 22.75 39.890625 18.8125 39.015625 
Q 14.890625 38.140625 10.796875 36.28125 
z
" id="DejaVuSans-53"/>
     </defs>
     <use xlink:href="#DejaVuSans-83"/>
     <use x="63.476562" xlink:href="#DejaVuSans-97"/>
     <use x="124.755859" xlink:href="#DejaVuSans-109"/>
     <use x="222.167969" xlink:href="#DejaVuSans-112"/>
     <use x="285.644531" xlink:href="#DejaVuSans-108"/>
     <use x="313.427734" xlink:href="#DejaVuSans-101"/>
     <use x="374.951172" xlink:href="#DejaVuSans-32"/>
     <use x="406.738281" xlink:href="#DejaVuSans-53"/>
    </g>
   </g>
   <g id="PathCollection_30">
    <defs>
     <path d="M 0 3.872983 
C 1.027127 3.872983 2.012324 3.464901 2.738613 2.738613 
C 3.464901 2.012324 3.872983 1.027127 3.872983 0 
C 3.872983 -1.027127 3.464901 -2.012324 2.738613 -2.738613 
C 2.012324 -3.464901 1.027127 -3.872983 0 -3.872983 
C -1.027127 -3.872983 -2.012324 -3.464901 -2.738613 -2.738613 
C -3.464901 -2.012324 -3.872983 -1.027127 -3.872983 0 
C -3.872983 1.027127 -3.464901 2.012324 -2.738613 2.738613 
C -2.012324 3.464901 -1.027127 3.872983 0 3.872983 
z
" id="mbbfdab22d0" style="stroke:#0b559f;"/>
    </defs>
    <g>
     <use style="fill:#0b559f;stroke:#0b559f;" x="444.285778" xlink:href="#mbbfdab22d0" y="263.546094"/>
    </g>
   </g>
   <g id="text_37">
    <!-- Sample 6 -->
    <g style="fill:#262626;" transform="translate(462.285778 266.171094)scale(0.1 -0.1)">
     <defs>
      <path d="M 33.015625 40.375 
Q 26.375 40.375 22.484375 35.828125 
Q 18.609375 31.296875 18.609375 23.390625 
Q 18.609375 15.53125 22.484375 10.953125 
Q 26.375 6.390625 33.015625 6.390625 
Q 39.65625 6.390625 43.53125 10.953125 
Q 47.40625 15.53125 47.40625 23.390625 
Q 47.40625 31.296875 43.53125 35.828125 
Q 39.65625 40.375 33.015625 40.375 
z
M 52.59375 71.296875 
L 52.59375 62.3125 
Q 48.875 64.0625 45.09375 64.984375 
Q 41.3125 65.921875 37.59375 65.921875 
Q 27.828125 65.921875 22.671875 59.328125 
Q 17.53125 52.734375 16.796875 39.40625 
Q 19.671875 43.65625 24.015625 45.921875 
Q 28.375 48.1875 33.59375 48.1875 
Q 44.578125 48.1875 50.953125 41.515625 
Q 57.328125 34.859375 57.328125 23.390625 
Q 57.328125 12.15625 50.6875 5.359375 
Q 44.046875 -1.421875 33.015625 -1.421875 
Q 20.359375 -1.421875 13.671875 8.265625 
Q 6.984375 17.96875 6.984375 36.375 
Q 6.984375 53.65625 15.1875 63.9375 
Q 23.390625 74.21875 37.203125 74.21875 
Q 40.921875 74.21875 44.703125 73.484375 
Q 48.484375 72.75 52.59375 71.296875 
z
" id="DejaVuSans-54"/>
     </defs>
     <use xlink:href="#DejaVuSans-83"/>
     <use x="63.476562" xlink:href="#DejaVuSans-97"/>
     <use x="124.755859" xlink:href="#DejaVuSans-109"/>
     <use x="222.167969" xlink:href="#DejaVuSans-112"/>
     <use x="285.644531" xlink:href="#DejaVuSans-108"/>
     <use x="313.427734" xlink:href="#DejaVuSans-101"/>
     <use x="374.951172" xlink:href="#DejaVuSans-32"/>
     <use x="406.738281" xlink:href="#DejaVuSans-54"/>
    </g>
   </g>
  </g>
 </g>
 <defs>
  <clipPath id="p556cba9f5f">
   <rect height="168.8" width="375.177966" x="52.160938" y="20.798437"/>
  </clipPath>
  <clipPath id="pe015836e62">
   <rect height="168.8" width="375.177966" x="52.160938" y="231.398437"/>
  </clipPath>
 </defs>
</svg>
