<?xml version="1.0" encoding="utf-8" standalone="no"?>
<!DOCTYPE svg PUBLIC "-//W3C//DTD SVG 1.1//EN"
  "http://www.w3.org/Graphics/SVG/1.1/DTD/svg11.dtd">
<!-- Created with matplotlib (https://matplotlib.org/) -->
<svg height="216pt" version="1.1" viewBox="0 0 576 216" width="576pt" xmlns="http://www.w3.org/2000/svg" xmlns:xlink="http://www.w3.org/1999/xlink">
 <metadata>
  <rdf:RDF xmlns:cc="http://creativecommons.org/ns#" xmlns:dc="http://purl.org/dc/elements/1.1/" xmlns:rdf="http://www.w3.org/1999/02/22-rdf-syntax-ns#">
   <cc:Work>
    <dc:type rdf:resource="http://purl.org/dc/dcmitype/StillImage"/>
    <dc:date>2022-03-09T13:19:45.231720</dc:date>
    <dc:format>image/svg+xml</dc:format>
    <dc:creator>
     <cc:Agent>
      <dc:title>Matplotlib v3.3.3, https://matplotlib.org/</dc:title>
     </cc:Agent>
    </dc:creator>
   </cc:Work>
  </rdf:RDF>
 </metadata>
 <defs>
  <style type="text/css">*{stroke-linecap:butt;stroke-linejoin:round;}</style>
 </defs>
 <g id="figure_1">
  <g id="patch_1">
   <path d="M 0 216 
L 576 216 
L 576 0 
L 0 0 
z
" style="fill:none;"/>
  </g>
  <g id="axes_1">
   <g id="patch_2">
    <path clip-path="url(#paf78884c68)" d="M -5036.020952 39.110294 
L 498.109091 39.110294 
L 498.109091 36.712059 
L -5036.020952 36.712059 
z
" style="stroke:#000000;stroke-linejoin:miter;"/>
   </g>
   <g id="patch_3">
    <path clip-path="url(#paf78884c68)" d="M 92.290909 40.908971 
L 498.109091 40.908971 
L 498.109091 34.913382 
L 92.290909 34.913382 
z
" style="fill:#ffffff;stroke:#000000;stroke-linejoin:miter;stroke-width:0.5;"/>
   </g>
   <g id="patch_4">
    <path clip-path="url(#paf78884c68)" d="M 72 67.889118 
L 128.316706 67.889118 
L 128.316706 55.897941 
L 72 55.897941 
z
" style="fill:#0000ff;stroke:#000000;stroke-linejoin:miter;stroke-width:0.5;"/>
   </g>
  </g>
  <g id="axes_2">
   <g id="patch_5">
    <path d="M 72 131.442353 
L 518.4 131.442353 
L 518.4 83.477647 
L 72 83.477647 
z
" style="fill:#ffffff;"/>
   </g>
   <g id="matplotlib.axis_1"/>
   <g id="matplotlib.axis_2">
    <g id="ytick_1">
     <g id="line2d_1">
      <defs>
       <path d="M 0 0 
L -3.5 0 
" id="m01a2457152" style="stroke:#000000;stroke-width:0.8;"/>
      </defs>
      <g>
       <use style="stroke:#000000;stroke-width:0.8;" x="72" xlink:href="#m01a2457152" y="129.262139"/>
      </g>
     </g>
     <g id="text_1">
      <!-- 0 -->
      <g transform="translate(58.6375 133.061358)scale(0.1 -0.1)">
       <defs>
        <path d="M 31.78125 66.40625 
Q 24.171875 66.40625 20.328125 58.90625 
Q 16.5 51.421875 16.5 36.375 
Q 16.5 21.390625 20.328125 13.890625 
Q 24.171875 6.390625 31.78125 6.390625 
Q 39.453125 6.390625 43.28125 13.890625 
Q 47.125 21.390625 47.125 36.375 
Q 47.125 51.421875 43.28125 58.90625 
Q 39.453125 66.40625 31.78125 66.40625 
z
M 31.78125 74.21875 
Q 44.046875 74.21875 50.515625 64.515625 
Q 56.984375 54.828125 56.984375 36.375 
Q 56.984375 17.96875 50.515625 8.265625 
Q 44.046875 -1.421875 31.78125 -1.421875 
Q 19.53125 -1.421875 13.0625 8.265625 
Q 6.59375 17.96875 6.59375 36.375 
Q 6.59375 54.828125 13.0625 64.515625 
Q 19.53125 74.21875 31.78125 74.21875 
z
" id="DejaVuSans-48"/>
       </defs>
       <use xlink:href="#DejaVuSans-48"/>
      </g>
     </g>
    </g>
    <g id="ytick_2">
     <g id="line2d_2">
      <g>
       <use style="stroke:#000000;stroke-width:0.8;" x="72" xlink:href="#m01a2457152" y="85.744895"/>
      </g>
     </g>
     <g id="text_2">
      <!-- 1000 -->
      <g transform="translate(39.55 89.544114)scale(0.1 -0.1)">
       <defs>
        <path d="M 12.40625 8.296875 
L 28.515625 8.296875 
L 28.515625 63.921875 
L 10.984375 60.40625 
L 10.984375 69.390625 
L 28.421875 72.90625 
L 38.28125 72.90625 
L 38.28125 8.296875 
L 54.390625 8.296875 
L 54.390625 0 
L 12.40625 0 
z
" id="DejaVuSans-49"/>
       </defs>
       <use xlink:href="#DejaVuSans-49"/>
       <use x="63.623047" xlink:href="#DejaVuSans-48"/>
       <use x="127.246094" xlink:href="#DejaVuSans-48"/>
       <use x="190.869141" xlink:href="#DejaVuSans-48"/>
      </g>
     </g>
    </g>
    <g id="text_3">
     <!-- count -->
     <g transform="translate(33.470312 121.56625)rotate(-90)scale(0.1 -0.1)">
      <defs>
       <path d="M 48.78125 52.59375 
L 48.78125 44.1875 
Q 44.96875 46.296875 41.140625 47.34375 
Q 37.3125 48.390625 33.40625 48.390625 
Q 24.65625 48.390625 19.8125 42.84375 
Q 14.984375 37.3125 14.984375 27.296875 
Q 14.984375 17.28125 19.8125 11.734375 
Q 24.65625 6.203125 33.40625 6.203125 
Q 37.3125 6.203125 41.140625 7.25 
Q 44.96875 8.296875 48.78125 10.40625 
L 48.78125 2.09375 
Q 45.015625 0.34375 40.984375 -0.53125 
Q 36.96875 -1.421875 32.421875 -1.421875 
Q 20.0625 -1.421875 12.78125 6.34375 
Q 5.515625 14.109375 5.515625 27.296875 
Q 5.515625 40.671875 12.859375 48.328125 
Q 20.21875 56 33.015625 56 
Q 37.15625 56 41.109375 55.140625 
Q 45.0625 54.296875 48.78125 52.59375 
z
" id="DejaVuSans-99"/>
       <path d="M 30.609375 48.390625 
Q 23.390625 48.390625 19.1875 42.75 
Q 14.984375 37.109375 14.984375 27.296875 
Q 14.984375 17.484375 19.15625 11.84375 
Q 23.34375 6.203125 30.609375 6.203125 
Q 37.796875 6.203125 41.984375 11.859375 
Q 46.1875 17.53125 46.1875 27.296875 
Q 46.1875 37.015625 41.984375 42.703125 
Q 37.796875 48.390625 30.609375 48.390625 
z
M 30.609375 56 
Q 42.328125 56 49.015625 48.375 
Q 55.71875 40.765625 55.71875 27.296875 
Q 55.71875 13.875 49.015625 6.21875 
Q 42.328125 -1.421875 30.609375 -1.421875 
Q 18.84375 -1.421875 12.171875 6.21875 
Q 5.515625 13.875 5.515625 27.296875 
Q 5.515625 40.765625 12.171875 48.375 
Q 18.84375 56 30.609375 56 
z
" id="DejaVuSans-111"/>
       <path d="M 8.5 21.578125 
L 8.5 54.6875 
L 17.484375 54.6875 
L 17.484375 21.921875 
Q 17.484375 14.15625 20.5 10.265625 
Q 23.53125 6.390625 29.59375 6.390625 
Q 36.859375 6.390625 41.078125 11.03125 
Q 45.3125 15.671875 45.3125 23.6875 
L 45.3125 54.6875 
L 54.296875 54.6875 
L 54.296875 0 
L 45.3125 0 
L 45.3125 8.40625 
Q 42.046875 3.421875 37.71875 1 
Q 33.40625 -1.421875 27.6875 -1.421875 
Q 18.265625 -1.421875 13.375 4.4375 
Q 8.5 10.296875 8.5 21.578125 
z
M 31.109375 56 
z
" id="DejaVuSans-117"/>
       <path d="M 54.890625 33.015625 
L 54.890625 0 
L 45.90625 0 
L 45.90625 32.71875 
Q 45.90625 40.484375 42.875 44.328125 
Q 39.84375 48.1875 33.796875 48.1875 
Q 26.515625 48.1875 22.3125 43.546875 
Q 18.109375 38.921875 18.109375 30.90625 
L 18.109375 0 
L 9.078125 0 
L 9.078125 54.6875 
L 18.109375 54.6875 
L 18.109375 46.1875 
Q 21.34375 51.125 25.703125 53.5625 
Q 30.078125 56 35.796875 56 
Q 45.21875 56 50.046875 50.171875 
Q 54.890625 44.34375 54.890625 33.015625 
z
" id="DejaVuSans-110"/>
       <path d="M 18.3125 70.21875 
L 18.3125 54.6875 
L 36.8125 54.6875 
L 36.8125 47.703125 
L 18.3125 47.703125 
L 18.3125 18.015625 
Q 18.3125 11.328125 20.140625 9.421875 
Q 21.96875 7.515625 27.59375 7.515625 
L 36.8125 7.515625 
L 36.8125 0 
L 27.59375 0 
Q 17.1875 0 13.234375 3.875 
Q 9.28125 7.765625 9.28125 18.015625 
L 9.28125 47.703125 
L 2.6875 47.703125 
L 2.6875 54.6875 
L 9.28125 54.6875 
L 9.28125 70.21875 
z
" id="DejaVuSans-116"/>
      </defs>
      <use xlink:href="#DejaVuSans-99"/>
      <use x="54.980469" xlink:href="#DejaVuSans-111"/>
      <use x="116.162109" xlink:href="#DejaVuSans-117"/>
      <use x="179.541016" xlink:href="#DejaVuSans-110"/>
      <use x="242.919922" xlink:href="#DejaVuSans-116"/>
     </g>
    </g>
   </g>
   <g id="line2d_3">
    <path clip-path="url(#pc69d93ef64)" d="M 91.953009 129.044553 
L 103.21635 129.131587 
L 114.479691 128.783449 
L 125.743032 127.869587 
L 137.006373 125.345587 
L 148.269715 124.475242 
L 159.533056 128.043656 
L 170.796397 129.001036 
L 182.059738 128.914001 
L 193.323079 129.131587 
L 204.58642 128.914001 
L 215.849762 117.686552 
L 227.113103 85.657861 
L 238.376444 108.547931 
L 249.639785 125.563173 
L 260.903126 128.870484 
L 272.166467 128.435311 
L 283.429808 128.30476 
L 294.69315 128.783449 
L 305.956491 128.914001 
L 317.219832 128.261242 
L 328.483173 126.346484 
L 339.746514 124.866897 
L 351.009855 128.000139 
L 362.273197 128.914001 
L 373.536538 128.043656 
L 384.799879 125.563173 
L 396.06322 125.998346 
L 407.326561 128.261242 
L 418.589902 128.870484 
L 429.853244 129.131587 
L 441.116585 129.262139 
L 452.379926 128.957518 
L 463.643267 128.30476 
L 474.906608 128.739932 
L 486.169949 129.044553 
L 497.43329 129.262139 
" style="fill:none;stroke:#f77189;stroke-linecap:square;stroke-width:1.5;"/>
   </g>
   <g id="line2d_4">
    <path clip-path="url(#pc69d93ef64)" d="M 91.953009 129.262139 
L 103.21635 129.175105 
L 114.479691 129.131587 
L 125.743032 129.044553 
L 137.006373 129.262139 
L 148.269715 129.175105 
L 159.533056 129.218622 
L 170.796397 129.262139 
L 182.059738 129.262139 
L 193.323079 129.262139 
L 204.58642 129.262139 
L 215.849762 128.522346 
L 227.113103 125.824277 
L 238.376444 128.30476 
L 249.639785 129.044553 
L 260.903126 129.175105 
L 272.166467 129.262139 
L 283.429808 129.262139 
L 294.69315 129.262139 
L 305.956491 129.262139 
L 317.219832 129.131587 
L 328.483173 129.001036 
L 339.746514 128.652898 
L 351.009855 129.262139 
L 362.273197 129.262139 
L 373.536538 129.175105 
L 384.799879 129.001036 
L 396.06322 129.08807 
L 407.326561 129.044553 
L 418.589902 129.131587 
L 429.853244 129.218622 
L 441.116585 129.262139 
L 452.379926 129.218622 
L 463.643267 129.175105 
L 474.906608 129.218622 
L 486.169949 129.262139 
L 497.43329 129.262139 
" style="fill:none;stroke:#eb8032;stroke-linecap:square;stroke-width:1.5;"/>
   </g>
   <g id="line2d_5">
    <path clip-path="url(#pc69d93ef64)" d="M 91.953009 129.175105 
L 103.21635 129.262139 
L 114.479691 129.218622 
L 125.743032 128.60938 
L 137.006373 128.391794 
L 148.269715 127.956622 
L 159.533056 128.522346 
L 170.796397 129.131587 
L 182.059738 129.175105 
L 193.323079 129.218622 
L 204.58642 129.044553 
L 215.849762 123.300277 
L 227.113103 108.286828 
L 238.376444 119.427242 
L 249.639785 127.34738 
L 260.903126 129.001036 
L 272.166467 128.478829 
L 283.429808 129.175105 
L 294.69315 129.218622 
L 305.956491 129.218622 
L 317.219832 129.001036 
L 328.483173 127.521449 
L 339.746514 126.999242 
L 351.009855 128.348277 
L 362.273197 129.218622 
L 373.536538 128.696415 
L 384.799879 127.477932 
L 396.06322 127.869587 
L 407.326561 128.478829 
L 418.589902 129.218622 
L 429.853244 129.175105 
L 441.116585 129.262139 
L 452.379926 129.131587 
L 463.643267 129.262139 
L 474.906608 129.175105 
L 486.169949 129.175105 
L 497.43329 129.262139 
" style="fill:none;stroke:#c19632;stroke-linecap:square;stroke-width:1.5;"/>
   </g>
   <g id="line2d_6">
    <path clip-path="url(#pc69d93ef64)" d="M 91.953009 129.262139 
L 103.21635 129.175105 
L 114.479691 129.218622 
L 125.743032 128.696415 
L 137.006373 128.826967 
L 148.269715 128.174208 
L 159.533056 129.044553 
L 170.796397 129.218622 
L 182.059738 129.262139 
L 193.323079 129.218622 
L 204.58642 129.218622 
L 215.849762 127.390898 
L 227.113103 121.385518 
L 238.376444 124.692828 
L 249.639785 128.696415 
L 260.903126 129.131587 
L 272.166467 128.957518 
L 283.429808 128.870484 
L 294.69315 129.001036 
L 305.956491 128.914001 
L 317.219832 129.131587 
L 328.483173 128.696415 
L 339.746514 128.261242 
L 351.009855 128.826967 
L 362.273197 129.262139 
L 373.536538 128.696415 
L 384.799879 128.348277 
L 396.06322 128.30476 
L 407.326561 129.001036 
L 418.589902 129.08807 
L 429.853244 129.08807 
L 441.116585 129.218622 
L 452.379926 129.175105 
L 463.643267 129.08807 
L 474.906608 129.044553 
L 486.169949 129.218622 
L 497.43329 129.262139 
" style="fill:none;stroke:#a0a131;stroke-linecap:square;stroke-width:1.5;"/>
   </g>
   <g id="line2d_7">
    <path clip-path="url(#pc69d93ef64)" d="M 91.953009 129.08807 
L 103.21635 129.262139 
L 114.479691 129.262139 
L 125.743032 128.435311 
L 137.006373 126.477035 
L 148.269715 126.259449 
L 159.533056 127.82607 
L 170.796397 129.175105 
L 182.059738 129.262139 
L 193.323079 128.957518 
L 204.58642 128.522346 
L 215.849762 118.99207 
L 227.113103 94.056689 
L 238.376444 113.639449 
L 249.639785 126.041863 
L 260.903126 128.30476 
L 272.166467 128.174208 
L 283.429808 128.391794 
L 294.69315 128.783449 
L 305.956491 129.001036 
L 317.219832 128.478829 
L 328.483173 125.519656 
L 339.746514 125.084484 
L 351.009855 128.261242 
L 362.273197 128.739932 
L 373.536538 128.391794 
L 384.799879 125.650208 
L 396.06322 125.345587 
L 407.326561 127.260346 
L 418.589902 128.522346 
L 429.853244 128.870484 
L 441.116585 129.175105 
L 452.379926 128.739932 
L 463.643267 128.478829 
L 474.906608 128.261242 
L 486.169949 128.957518 
L 497.43329 129.262139 
" style="fill:none;stroke:#71ac31;stroke-linecap:square;stroke-width:1.5;"/>
   </g>
   <g id="line2d_8">
    <path clip-path="url(#pc69d93ef64)" d="M 91.953009 129.262139 
L 103.21635 129.218622 
L 114.479691 129.262139 
L 125.743032 128.914001 
L 137.006373 128.783449 
L 148.269715 128.957518 
L 159.533056 129.175105 
L 170.796397 129.218622 
L 182.059738 129.262139 
L 193.323079 129.262139 
L 204.58642 129.131587 
L 215.849762 127.260346 
L 227.113103 122.604001 
L 238.376444 125.563173 
L 249.639785 128.652898 
L 260.903126 129.08807 
L 272.166467 129.001036 
L 283.429808 129.08807 
L 294.69315 129.001036 
L 305.956491 129.218622 
L 317.219832 129.044553 
L 328.483173 127.869587 
L 339.746514 127.913104 
L 351.009855 128.391794 
L 362.273197 128.522346 
L 373.536538 128.870484 
L 384.799879 128.696415 
L 396.06322 128.478829 
L 407.326561 128.217725 
L 418.589902 127.869587 
L 429.853244 129.08807 
L 441.116585 129.08807 
L 452.379926 127.34738 
L 463.643267 125.345587 
L 474.906608 127.652001 
L 486.169949 129.175105 
L 497.43329 129.262139 
" style="fill:none;stroke:#33b16f;stroke-linecap:square;stroke-width:1.5;"/>
   </g>
   <g id="line2d_9">
    <path clip-path="url(#pc69d93ef64)" d="M 91.953009 129.001036 
L 103.21635 129.218622 
L 114.479691 129.218622 
L 125.743032 128.870484 
L 137.006373 129.08807 
L 148.269715 128.870484 
L 159.533056 129.218622 
L 170.796397 129.262139 
L 182.059738 129.131587 
L 193.323079 129.175105 
L 204.58642 129.218622 
L 215.849762 128.000139 
L 227.113103 124.649311 
L 238.376444 127.608484 
L 249.639785 128.130691 
L 260.903126 129.044553 
L 272.166467 129.131587 
L 283.429808 129.262139 
L 294.69315 129.175105 
L 305.956491 129.001036 
L 317.219832 128.914001 
L 328.483173 127.782553 
L 339.746514 126.433518 
L 351.009855 127.34738 
L 362.273197 127.608484 
L 373.536538 128.783449 
L 384.799879 128.60938 
L 396.06322 128.130691 
L 407.326561 126.694622 
L 418.589902 125.693725 
L 429.853244 128.174208 
L 441.116585 128.522346 
L 452.379926 124.344691 
L 463.643267 120.950346 
L 474.906608 126.302966 
L 486.169949 129.131587 
L 497.43329 129.262139 
" style="fill:none;stroke:#35ae97;stroke-linecap:square;stroke-width:1.5;"/>
   </g>
   <g id="line2d_10">
    <path clip-path="url(#pc69d93ef64)" d="M 91.953009 129.218622 
L 103.21635 129.218622 
L 114.479691 129.262139 
L 125.743032 129.262139 
L 137.006373 129.262139 
L 148.269715 129.262139 
L 159.533056 129.262139 
L 170.796397 129.262139 
L 182.059738 129.262139 
L 193.323079 129.262139 
L 204.58642 129.262139 
L 215.849762 129.262139 
L 227.113103 129.08807 
L 238.376444 128.826967 
L 249.639785 129.218622 
L 260.903126 129.262139 
L 272.166467 129.262139 
L 283.429808 129.262139 
L 294.69315 129.262139 
L 305.956491 129.262139 
L 317.219832 129.262139 
L 328.483173 129.08807 
L 339.746514 129.218622 
L 351.009855 129.175105 
L 362.273197 129.218622 
L 373.536538 129.262139 
L 384.799879 129.262139 
L 396.06322 129.262139 
L 407.326561 129.218622 
L 418.589902 128.783449 
L 429.853244 129.175105 
L 441.116585 129.218622 
L 452.379926 129.044553 
L 463.643267 128.914001 
L 474.906608 129.08807 
L 486.169949 129.262139 
L 497.43329 129.262139 
" style="fill:none;stroke:#36abb0;stroke-linecap:square;stroke-width:1.5;"/>
   </g>
   <g id="line2d_11">
    <path clip-path="url(#pc69d93ef64)" d="M 91.953009 129.08807 
L 103.21635 129.044553 
L 114.479691 129.262139 
L 125.743032 129.131587 
L 137.006373 129.175105 
L 148.269715 129.218622 
L 159.533056 129.262139 
L 170.796397 129.262139 
L 182.059738 129.08807 
L 193.323079 129.08807 
L 204.58642 129.262139 
L 215.849762 129.175105 
L 227.113103 129.175105 
L 238.376444 128.914001 
L 249.639785 128.957518 
L 260.903126 129.218622 
L 272.166467 129.262139 
L 283.429808 129.218622 
L 294.69315 129.262139 
L 305.956491 129.262139 
L 317.219832 129.262139 
L 328.483173 128.522346 
L 339.746514 128.348277 
L 351.009855 128.696415 
L 362.273197 128.826967 
L 373.536538 129.131587 
L 384.799879 129.218622 
L 396.06322 128.870484 
L 407.326561 128.261242 
L 418.589902 127.869587 
L 429.853244 128.826967 
L 441.116585 129.131587 
L 452.379926 127.477932 
L 463.643267 125.30207 
L 474.906608 127.608484 
L 486.169949 129.262139 
L 497.43329 129.262139 
" style="fill:none;stroke:#39a8cc;stroke-linecap:square;stroke-width:1.5;"/>
   </g>
   <g id="line2d_12">
    <path clip-path="url(#pc69d93ef64)" d="M 91.953009 128.957518 
L 103.21635 129.175105 
L 114.479691 128.870484 
L 125.743032 128.957518 
L 137.006373 129.001036 
L 148.269715 128.957518 
L 159.533056 129.175105 
L 170.796397 128.914001 
L 182.059738 128.478829 
L 193.323079 128.652898 
L 204.58642 129.175105 
L 215.849762 128.565863 
L 227.113103 126.955725 
L 238.376444 127.739036 
L 249.639785 128.174208 
L 260.903126 129.08807 
L 272.166467 129.218622 
L 283.429808 129.218622 
L 294.69315 129.175105 
L 305.956491 129.08807 
L 317.219832 128.826967 
L 328.483173 126.955725 
L 339.746514 125.30207 
L 351.009855 126.955725 
L 362.273197 127.564967 
L 373.536538 128.914001 
L 384.799879 128.739932 
L 396.06322 128.000139 
L 407.326561 124.866897 
L 418.589902 121.82069 
L 429.853244 127.477932 
L 441.116585 128.217725 
L 452.379926 119.166139 
L 463.643267 111.202483 
L 474.906608 122.168828 
L 486.169949 128.826967 
L 497.43329 129.262139 
" style="fill:none;stroke:#639df4;stroke-linecap:square;stroke-width:1.5;"/>
   </g>
   <g id="line2d_13">
    <path clip-path="url(#pc69d93ef64)" d="M 91.953009 129.131587 
L 103.21635 129.218622 
L 114.479691 129.262139 
L 125.743032 129.262139 
L 137.006373 129.262139 
L 148.269715 129.262139 
L 159.533056 129.262139 
L 170.796397 129.262139 
L 182.059738 129.175105 
L 193.323079 129.218622 
L 204.58642 129.262139 
L 215.849762 129.218622 
L 227.113103 129.131587 
L 238.376444 129.131587 
L 249.639785 129.175105 
L 260.903126 129.218622 
L 272.166467 129.262139 
L 283.429808 129.262139 
L 294.69315 129.218622 
L 305.956491 129.175105 
L 317.219832 129.08807 
L 328.483173 128.391794 
L 339.746514 128.261242 
L 351.009855 128.478829 
L 362.273197 128.261242 
L 373.536538 129.131587 
L 384.799879 129.218622 
L 396.06322 129.131587 
L 407.326561 127.608484 
L 418.589902 127.129794 
L 429.853244 128.435311 
L 441.116585 128.914001 
L 452.379926 126.738139 
L 463.643267 124.997449 
L 474.906608 126.477035 
L 486.169949 129.218622 
L 497.43329 129.262139 
" style="fill:none;stroke:#b486f4;stroke-linecap:square;stroke-width:1.5;"/>
   </g>
   <g id="line2d_14">
    <path clip-path="url(#pc69d93ef64)" d="M 91.953009 129.262139 
L 103.21635 129.262139 
L 114.479691 129.262139 
L 125.743032 129.08807 
L 137.006373 129.262139 
L 148.269715 129.262139 
L 159.533056 129.262139 
L 170.796397 129.262139 
L 182.059738 129.262139 
L 193.323079 129.218622 
L 204.58642 129.262139 
L 215.849762 129.262139 
L 227.113103 129.262139 
L 238.376444 129.262139 
L 249.639785 129.262139 
L 260.903126 129.262139 
L 272.166467 129.262139 
L 283.429808 129.262139 
L 294.69315 129.262139 
L 305.956491 129.262139 
L 317.219832 129.262139 
L 328.483173 129.175105 
L 339.746514 129.001036 
L 351.009855 129.175105 
L 362.273197 129.131587 
L 373.536538 129.262139 
L 384.799879 129.262139 
L 396.06322 129.262139 
L 407.326561 129.08807 
L 418.589902 129.001036 
L 429.853244 129.218622 
L 441.116585 129.262139 
L 452.379926 128.914001 
L 463.643267 128.565863 
L 474.906608 128.696415 
L 486.169949 129.262139 
L 497.43329 129.262139 
" style="fill:none;stroke:#f35cf4;stroke-linecap:square;stroke-width:1.5;"/>
   </g>
   <g id="line2d_15">
    <path clip-path="url(#pc69d93ef64)" d="M 91.953009 129.262139 
L 103.21635 129.218622 
L 114.479691 129.262139 
L 125.743032 129.262139 
L 137.006373 129.262139 
L 148.269715 129.262139 
L 159.533056 129.262139 
L 170.796397 129.262139 
L 182.059738 129.262139 
L 193.323079 129.262139 
L 204.58642 129.218622 
L 215.849762 129.131587 
L 227.113103 129.131587 
L 238.376444 129.218622 
L 249.639785 129.218622 
L 260.903126 129.218622 
L 272.166467 129.262139 
L 283.429808 129.262139 
L 294.69315 129.262139 
L 305.956491 129.262139 
L 317.219832 129.218622 
L 328.483173 129.175105 
L 339.746514 129.044553 
L 351.009855 129.044553 
L 362.273197 129.044553 
L 373.536538 129.262139 
L 384.799879 129.218622 
L 396.06322 129.175105 
L 407.326561 128.914001 
L 418.589902 129.175105 
L 429.853244 129.175105 
L 441.116585 129.218622 
L 452.379926 128.435311 
L 463.643267 128.174208 
L 474.906608 128.957518 
L 486.169949 129.262139 
L 497.43329 129.262139 
" style="fill:none;stroke:#f668be;stroke-linecap:square;stroke-width:1.5;"/>
   </g>
   <g id="line2d_16"/>
   <g id="line2d_17"/>
   <g id="line2d_18"/>
   <g id="line2d_19"/>
   <g id="line2d_20"/>
   <g id="line2d_21"/>
   <g id="line2d_22"/>
   <g id="line2d_23"/>
   <g id="line2d_24"/>
   <g id="line2d_25"/>
   <g id="line2d_26"/>
   <g id="line2d_27"/>
   <g id="line2d_28"/>
   <g id="patch_6">
    <path d="M 72 131.442353 
L 72 83.477647 
" style="fill:none;stroke:#000000;stroke-linecap:square;stroke-linejoin:miter;stroke-width:0.8;"/>
   </g>
   <g id="patch_7">
    <path d="M 518.4 131.442353 
L 518.4 83.477647 
" style="fill:none;stroke:#000000;stroke-linecap:square;stroke-linejoin:miter;stroke-width:0.8;"/>
   </g>
   <g id="patch_8">
    <path d="M 72 131.442353 
L 518.4 131.442353 
" style="fill:none;stroke:#000000;stroke-linecap:square;stroke-linejoin:miter;stroke-width:0.8;"/>
   </g>
   <g id="patch_9">
    <path d="M 72 83.477647 
L 518.4 83.477647 
" style="fill:none;stroke:#000000;stroke-linecap:square;stroke-linejoin:miter;stroke-width:0.8;"/>
   </g>
   <g id="legend_1">
    <g id="patch_10">
     <path d="M 525.4 205.063125 
L 594.207813 205.063125 
Q 596.207813 205.063125 596.207813 203.063125 
L 596.207813 11.856875 
Q 596.207813 9.856875 594.207813 9.856875 
L 525.4 9.856875 
Q 523.4 9.856875 523.4 11.856875 
L 523.4 203.063125 
Q 523.4 205.063125 525.4 205.063125 
z
" style="fill:#ffffff;opacity:0.8;stroke:#cccccc;stroke-linejoin:miter;"/>
    </g>
    <g id="line2d_29">
     <path d="M 527.4 17.955312 
L 547.4 17.955312 
" style="fill:none;stroke:#f77189;stroke-linecap:square;stroke-width:1.5;"/>
    </g>
    <g id="line2d_30"/>
    <g id="text_4">
     <!-- L23_IT -->
     <g transform="translate(555.4 21.455312)scale(0.1 -0.1)">
      <defs>
       <path d="M 9.8125 72.90625 
L 19.671875 72.90625 
L 19.671875 8.296875 
L 55.171875 8.296875 
L 55.171875 0 
L 9.8125 0 
z
" id="DejaVuSans-76"/>
       <path d="M 19.1875 8.296875 
L 53.609375 8.296875 
L 53.609375 0 
L 7.328125 0 
L 7.328125 8.296875 
Q 12.9375 14.109375 22.625 23.890625 
Q 32.328125 33.6875 34.8125 36.53125 
Q 39.546875 41.84375 41.421875 45.53125 
Q 43.3125 49.21875 43.3125 52.78125 
Q 43.3125 58.59375 39.234375 62.25 
Q 35.15625 65.921875 28.609375 65.921875 
Q 23.96875 65.921875 18.8125 64.3125 
Q 13.671875 62.703125 7.8125 59.421875 
L 7.8125 69.390625 
Q 13.765625 71.78125 18.9375 73 
Q 24.125 74.21875 28.421875 74.21875 
Q 39.75 74.21875 46.484375 68.546875 
Q 53.21875 62.890625 53.21875 53.421875 
Q 53.21875 48.921875 51.53125 44.890625 
Q 49.859375 40.875 45.40625 35.40625 
Q 44.1875 33.984375 37.640625 27.21875 
Q 31.109375 20.453125 19.1875 8.296875 
z
" id="DejaVuSans-50"/>
       <path d="M 40.578125 39.3125 
Q 47.65625 37.796875 51.625 33 
Q 55.609375 28.21875 55.609375 21.1875 
Q 55.609375 10.40625 48.1875 4.484375 
Q 40.765625 -1.421875 27.09375 -1.421875 
Q 22.515625 -1.421875 17.65625 -0.515625 
Q 12.796875 0.390625 7.625 2.203125 
L 7.625 11.71875 
Q 11.71875 9.328125 16.59375 8.109375 
Q 21.484375 6.890625 26.8125 6.890625 
Q 36.078125 6.890625 40.9375 10.546875 
Q 45.796875 14.203125 45.796875 21.1875 
Q 45.796875 27.640625 41.28125 31.265625 
Q 36.765625 34.90625 28.71875 34.90625 
L 20.21875 34.90625 
L 20.21875 43.015625 
L 29.109375 43.015625 
Q 36.375 43.015625 40.234375 45.921875 
Q 44.09375 48.828125 44.09375 54.296875 
Q 44.09375 59.90625 40.109375 62.90625 
Q 36.140625 65.921875 28.71875 65.921875 
Q 24.65625 65.921875 20.015625 65.03125 
Q 15.375 64.15625 9.8125 62.3125 
L 9.8125 71.09375 
Q 15.4375 72.65625 20.34375 73.4375 
Q 25.25 74.21875 29.59375 74.21875 
Q 40.828125 74.21875 47.359375 69.109375 
Q 53.90625 64.015625 53.90625 55.328125 
Q 53.90625 49.265625 50.4375 45.09375 
Q 46.96875 40.921875 40.578125 39.3125 
z
" id="DejaVuSans-51"/>
       <path d="M 50.984375 -16.609375 
L 50.984375 -23.578125 
L -0.984375 -23.578125 
L -0.984375 -16.609375 
z
" id="DejaVuSans-95"/>
       <path d="M 9.8125 72.90625 
L 19.671875 72.90625 
L 19.671875 0 
L 9.8125 0 
z
" id="DejaVuSans-73"/>
       <path d="M -0.296875 72.90625 
L 61.375 72.90625 
L 61.375 64.59375 
L 35.5 64.59375 
L 35.5 0 
L 25.59375 0 
L 25.59375 64.59375 
L -0.296875 64.59375 
z
" id="DejaVuSans-84"/>
      </defs>
      <use xlink:href="#DejaVuSans-76"/>
      <use x="55.712891" xlink:href="#DejaVuSans-50"/>
      <use x="119.335938" xlink:href="#DejaVuSans-51"/>
      <use x="182.958984" xlink:href="#DejaVuSans-95"/>
      <use x="232.958984" xlink:href="#DejaVuSans-73"/>
      <use x="262.451172" xlink:href="#DejaVuSans-84"/>
     </g>
    </g>
    <g id="line2d_31">
     <path d="M 527.4 32.911563 
L 547.4 32.911563 
" style="fill:none;stroke:#eb8032;stroke-linecap:square;stroke-width:1.5;"/>
    </g>
    <g id="line2d_32"/>
    <g id="text_5">
     <!-- L56_NP -->
     <g transform="translate(555.4 36.411563)scale(0.1 -0.1)">
      <defs>
       <path d="M 10.796875 72.90625 
L 49.515625 72.90625 
L 49.515625 64.59375 
L 19.828125 64.59375 
L 19.828125 46.734375 
Q 21.96875 47.46875 24.109375 47.828125 
Q 26.265625 48.1875 28.421875 48.1875 
Q 40.625 48.1875 47.75 41.5 
Q 54.890625 34.8125 54.890625 23.390625 
Q 54.890625 11.625 47.5625 5.09375 
Q 40.234375 -1.421875 26.90625 -1.421875 
Q 22.3125 -1.421875 17.546875 -0.640625 
Q 12.796875 0.140625 7.71875 1.703125 
L 7.71875 11.625 
Q 12.109375 9.234375 16.796875 8.0625 
Q 21.484375 6.890625 26.703125 6.890625 
Q 35.15625 6.890625 40.078125 11.328125 
Q 45.015625 15.765625 45.015625 23.390625 
Q 45.015625 31 40.078125 35.4375 
Q 35.15625 39.890625 26.703125 39.890625 
Q 22.75 39.890625 18.8125 39.015625 
Q 14.890625 38.140625 10.796875 36.28125 
z
" id="DejaVuSans-53"/>
       <path d="M 33.015625 40.375 
Q 26.375 40.375 22.484375 35.828125 
Q 18.609375 31.296875 18.609375 23.390625 
Q 18.609375 15.53125 22.484375 10.953125 
Q 26.375 6.390625 33.015625 6.390625 
Q 39.65625 6.390625 43.53125 10.953125 
Q 47.40625 15.53125 47.40625 23.390625 
Q 47.40625 31.296875 43.53125 35.828125 
Q 39.65625 40.375 33.015625 40.375 
z
M 52.59375 71.296875 
L 52.59375 62.3125 
Q 48.875 64.0625 45.09375 64.984375 
Q 41.3125 65.921875 37.59375 65.921875 
Q 27.828125 65.921875 22.671875 59.328125 
Q 17.53125 52.734375 16.796875 39.40625 
Q 19.671875 43.65625 24.015625 45.921875 
Q 28.375 48.1875 33.59375 48.1875 
Q 44.578125 48.1875 50.953125 41.515625 
Q 57.328125 34.859375 57.328125 23.390625 
Q 57.328125 12.15625 50.6875 5.359375 
Q 44.046875 -1.421875 33.015625 -1.421875 
Q 20.359375 -1.421875 13.671875 8.265625 
Q 6.984375 17.96875 6.984375 36.375 
Q 6.984375 53.65625 15.1875 63.9375 
Q 23.390625 74.21875 37.203125 74.21875 
Q 40.921875 74.21875 44.703125 73.484375 
Q 48.484375 72.75 52.59375 71.296875 
z
" id="DejaVuSans-54"/>
       <path d="M 9.8125 72.90625 
L 23.09375 72.90625 
L 55.421875 11.921875 
L 55.421875 72.90625 
L 64.984375 72.90625 
L 64.984375 0 
L 51.703125 0 
L 19.390625 60.984375 
L 19.390625 0 
L 9.8125 0 
z
" id="DejaVuSans-78"/>
       <path d="M 19.671875 64.796875 
L 19.671875 37.40625 
L 32.078125 37.40625 
Q 38.96875 37.40625 42.71875 40.96875 
Q 46.484375 44.53125 46.484375 51.125 
Q 46.484375 57.671875 42.71875 61.234375 
Q 38.96875 64.796875 32.078125 64.796875 
z
M 9.8125 72.90625 
L 32.078125 72.90625 
Q 44.34375 72.90625 50.609375 67.359375 
Q 56.890625 61.8125 56.890625 51.125 
Q 56.890625 40.328125 50.609375 34.8125 
Q 44.34375 29.296875 32.078125 29.296875 
L 19.671875 29.296875 
L 19.671875 0 
L 9.8125 0 
z
" id="DejaVuSans-80"/>
      </defs>
      <use xlink:href="#DejaVuSans-76"/>
      <use x="55.712891" xlink:href="#DejaVuSans-53"/>
      <use x="119.335938" xlink:href="#DejaVuSans-54"/>
      <use x="182.958984" xlink:href="#DejaVuSans-95"/>
      <use x="232.958984" xlink:href="#DejaVuSans-78"/>
      <use x="307.763672" xlink:href="#DejaVuSans-80"/>
     </g>
    </g>
    <g id="line2d_33">
     <path d="M 527.4 47.867813 
L 547.4 47.867813 
" style="fill:none;stroke:#c19632;stroke-linecap:square;stroke-width:1.5;"/>
    </g>
    <g id="line2d_34"/>
    <g id="text_6">
     <!-- L6_IT -->
     <g transform="translate(555.4 51.367813)scale(0.1 -0.1)">
      <use xlink:href="#DejaVuSans-76"/>
      <use x="55.712891" xlink:href="#DejaVuSans-54"/>
      <use x="119.335938" xlink:href="#DejaVuSans-95"/>
      <use x="169.335938" xlink:href="#DejaVuSans-73"/>
      <use x="198.828125" xlink:href="#DejaVuSans-84"/>
     </g>
    </g>
    <g id="line2d_35">
     <path d="M 527.4 62.824063 
L 547.4 62.824063 
" style="fill:none;stroke:#a0a131;stroke-linecap:square;stroke-width:1.5;"/>
    </g>
    <g id="line2d_36"/>
    <g id="text_7">
     <!-- L6_CT -->
     <g transform="translate(555.4 66.324063)scale(0.1 -0.1)">
      <defs>
       <path d="M 64.40625 67.28125 
L 64.40625 56.890625 
Q 59.421875 61.53125 53.78125 63.8125 
Q 48.140625 66.109375 41.796875 66.109375 
Q 29.296875 66.109375 22.65625 58.46875 
Q 16.015625 50.828125 16.015625 36.375 
Q 16.015625 21.96875 22.65625 14.328125 
Q 29.296875 6.6875 41.796875 6.6875 
Q 48.140625 6.6875 53.78125 8.984375 
Q 59.421875 11.28125 64.40625 15.921875 
L 64.40625 5.609375 
Q 59.234375 2.09375 53.4375 0.328125 
Q 47.65625 -1.421875 41.21875 -1.421875 
Q 24.65625 -1.421875 15.125 8.703125 
Q 5.609375 18.84375 5.609375 36.375 
Q 5.609375 53.953125 15.125 64.078125 
Q 24.65625 74.21875 41.21875 74.21875 
Q 47.75 74.21875 53.53125 72.484375 
Q 59.328125 70.75 64.40625 67.28125 
z
" id="DejaVuSans-67"/>
      </defs>
      <use xlink:href="#DejaVuSans-76"/>
      <use x="55.712891" xlink:href="#DejaVuSans-54"/>
      <use x="119.335938" xlink:href="#DejaVuSans-95"/>
      <use x="169.335938" xlink:href="#DejaVuSans-67"/>
      <use x="239.160156" xlink:href="#DejaVuSans-84"/>
     </g>
    </g>
    <g id="line2d_37">
     <path d="M 527.4 77.780313 
L 547.4 77.780313 
" style="fill:none;stroke:#71ac31;stroke-linecap:square;stroke-width:1.5;"/>
    </g>
    <g id="line2d_38"/>
    <g id="text_8">
     <!-- L5_IT -->
     <g transform="translate(555.4 81.280313)scale(0.1 -0.1)">
      <use xlink:href="#DejaVuSans-76"/>
      <use x="55.712891" xlink:href="#DejaVuSans-53"/>
      <use x="119.335938" xlink:href="#DejaVuSans-95"/>
      <use x="169.335938" xlink:href="#DejaVuSans-73"/>
      <use x="198.828125" xlink:href="#DejaVuSans-84"/>
     </g>
    </g>
    <g id="line2d_39">
     <path d="M 527.4 92.736563 
L 547.4 92.736563 
" style="fill:none;stroke:#33b16f;stroke-linecap:square;stroke-width:1.5;"/>
    </g>
    <g id="line2d_40"/>
    <g id="text_9">
     <!-- Vip -->
     <g transform="translate(555.4 96.236563)scale(0.1 -0.1)">
      <defs>
       <path d="M 28.609375 0 
L 0.78125 72.90625 
L 11.078125 72.90625 
L 34.1875 11.53125 
L 57.328125 72.90625 
L 67.578125 72.90625 
L 39.796875 0 
z
" id="DejaVuSans-86"/>
       <path d="M 9.421875 54.6875 
L 18.40625 54.6875 
L 18.40625 0 
L 9.421875 0 
z
M 9.421875 75.984375 
L 18.40625 75.984375 
L 18.40625 64.59375 
L 9.421875 64.59375 
z
" id="DejaVuSans-105"/>
       <path d="M 18.109375 8.203125 
L 18.109375 -20.796875 
L 9.078125 -20.796875 
L 9.078125 54.6875 
L 18.109375 54.6875 
L 18.109375 46.390625 
Q 20.953125 51.265625 25.265625 53.625 
Q 29.59375 56 35.59375 56 
Q 45.5625 56 51.78125 48.09375 
Q 58.015625 40.1875 58.015625 27.296875 
Q 58.015625 14.40625 51.78125 6.484375 
Q 45.5625 -1.421875 35.59375 -1.421875 
Q 29.59375 -1.421875 25.265625 0.953125 
Q 20.953125 3.328125 18.109375 8.203125 
z
M 48.6875 27.296875 
Q 48.6875 37.203125 44.609375 42.84375 
Q 40.53125 48.484375 33.40625 48.484375 
Q 26.265625 48.484375 22.1875 42.84375 
Q 18.109375 37.203125 18.109375 27.296875 
Q 18.109375 17.390625 22.1875 11.75 
Q 26.265625 6.109375 33.40625 6.109375 
Q 40.53125 6.109375 44.609375 11.75 
Q 48.6875 17.390625 48.6875 27.296875 
z
" id="DejaVuSans-112"/>
      </defs>
      <use xlink:href="#DejaVuSans-86"/>
      <use x="66.158203" xlink:href="#DejaVuSans-105"/>
      <use x="93.941406" xlink:href="#DejaVuSans-112"/>
     </g>
    </g>
    <g id="line2d_41">
     <path d="M 527.4 107.414687 
L 547.4 107.414687 
" style="fill:none;stroke:#35ae97;stroke-linecap:square;stroke-width:1.5;"/>
    </g>
    <g id="line2d_42"/>
    <g id="text_10">
     <!-- Lamp5 -->
     <g transform="translate(555.4 110.914687)scale(0.1 -0.1)">
      <defs>
       <path d="M 34.28125 27.484375 
Q 23.390625 27.484375 19.1875 25 
Q 14.984375 22.515625 14.984375 16.5 
Q 14.984375 11.71875 18.140625 8.90625 
Q 21.296875 6.109375 26.703125 6.109375 
Q 34.1875 6.109375 38.703125 11.40625 
Q 43.21875 16.703125 43.21875 25.484375 
L 43.21875 27.484375 
z
M 52.203125 31.203125 
L 52.203125 0 
L 43.21875 0 
L 43.21875 8.296875 
Q 40.140625 3.328125 35.546875 0.953125 
Q 30.953125 -1.421875 24.3125 -1.421875 
Q 15.921875 -1.421875 10.953125 3.296875 
Q 6 8.015625 6 15.921875 
Q 6 25.140625 12.171875 29.828125 
Q 18.359375 34.515625 30.609375 34.515625 
L 43.21875 34.515625 
L 43.21875 35.40625 
Q 43.21875 41.609375 39.140625 45 
Q 35.0625 48.390625 27.6875 48.390625 
Q 23 48.390625 18.546875 47.265625 
Q 14.109375 46.140625 10.015625 43.890625 
L 10.015625 52.203125 
Q 14.9375 54.109375 19.578125 55.046875 
Q 24.21875 56 28.609375 56 
Q 40.484375 56 46.34375 49.84375 
Q 52.203125 43.703125 52.203125 31.203125 
z
" id="DejaVuSans-97"/>
       <path d="M 52 44.1875 
Q 55.375 50.25 60.0625 53.125 
Q 64.75 56 71.09375 56 
Q 79.640625 56 84.28125 50.015625 
Q 88.921875 44.046875 88.921875 33.015625 
L 88.921875 0 
L 79.890625 0 
L 79.890625 32.71875 
Q 79.890625 40.578125 77.09375 44.375 
Q 74.3125 48.1875 68.609375 48.1875 
Q 61.625 48.1875 57.5625 43.546875 
Q 53.515625 38.921875 53.515625 30.90625 
L 53.515625 0 
L 44.484375 0 
L 44.484375 32.71875 
Q 44.484375 40.625 41.703125 44.40625 
Q 38.921875 48.1875 33.109375 48.1875 
Q 26.21875 48.1875 22.15625 43.53125 
Q 18.109375 38.875 18.109375 30.90625 
L 18.109375 0 
L 9.078125 0 
L 9.078125 54.6875 
L 18.109375 54.6875 
L 18.109375 46.1875 
Q 21.1875 51.21875 25.484375 53.609375 
Q 29.78125 56 35.6875 56 
Q 41.65625 56 45.828125 52.96875 
Q 50 49.953125 52 44.1875 
z
" id="DejaVuSans-109"/>
      </defs>
      <use xlink:href="#DejaVuSans-76"/>
      <use x="55.712891" xlink:href="#DejaVuSans-97"/>
      <use x="116.992188" xlink:href="#DejaVuSans-109"/>
      <use x="214.404297" xlink:href="#DejaVuSans-112"/>
      <use x="277.880859" xlink:href="#DejaVuSans-53"/>
     </g>
    </g>
    <g id="line2d_43">
     <path d="M 527.4 122.092812 
L 547.4 122.092812 
" style="fill:none;stroke:#36abb0;stroke-linecap:square;stroke-width:1.5;"/>
    </g>
    <g id="line2d_44"/>
    <g id="text_11">
     <!-- Oligo -->
     <g transform="translate(555.4 125.592812)scale(0.1 -0.1)">
      <defs>
       <path d="M 39.40625 66.21875 
Q 28.65625 66.21875 22.328125 58.203125 
Q 16.015625 50.203125 16.015625 36.375 
Q 16.015625 22.609375 22.328125 14.59375 
Q 28.65625 6.59375 39.40625 6.59375 
Q 50.140625 6.59375 56.421875 14.59375 
Q 62.703125 22.609375 62.703125 36.375 
Q 62.703125 50.203125 56.421875 58.203125 
Q 50.140625 66.21875 39.40625 66.21875 
z
M 39.40625 74.21875 
Q 54.734375 74.21875 63.90625 63.9375 
Q 73.09375 53.65625 73.09375 36.375 
Q 73.09375 19.140625 63.90625 8.859375 
Q 54.734375 -1.421875 39.40625 -1.421875 
Q 24.03125 -1.421875 14.8125 8.828125 
Q 5.609375 19.09375 5.609375 36.375 
Q 5.609375 53.65625 14.8125 63.9375 
Q 24.03125 74.21875 39.40625 74.21875 
z
" id="DejaVuSans-79"/>
       <path d="M 9.421875 75.984375 
L 18.40625 75.984375 
L 18.40625 0 
L 9.421875 0 
z
" id="DejaVuSans-108"/>
       <path d="M 45.40625 27.984375 
Q 45.40625 37.75 41.375 43.109375 
Q 37.359375 48.484375 30.078125 48.484375 
Q 22.859375 48.484375 18.828125 43.109375 
Q 14.796875 37.75 14.796875 27.984375 
Q 14.796875 18.265625 18.828125 12.890625 
Q 22.859375 7.515625 30.078125 7.515625 
Q 37.359375 7.515625 41.375 12.890625 
Q 45.40625 18.265625 45.40625 27.984375 
z
M 54.390625 6.78125 
Q 54.390625 -7.171875 48.1875 -13.984375 
Q 42 -20.796875 29.203125 -20.796875 
Q 24.46875 -20.796875 20.265625 -20.09375 
Q 16.0625 -19.390625 12.109375 -17.921875 
L 12.109375 -9.1875 
Q 16.0625 -11.328125 19.921875 -12.34375 
Q 23.78125 -13.375 27.78125 -13.375 
Q 36.625 -13.375 41.015625 -8.765625 
Q 45.40625 -4.15625 45.40625 5.171875 
L 45.40625 9.625 
Q 42.625 4.78125 38.28125 2.390625 
Q 33.9375 0 27.875 0 
Q 17.828125 0 11.671875 7.65625 
Q 5.515625 15.328125 5.515625 27.984375 
Q 5.515625 40.671875 11.671875 48.328125 
Q 17.828125 56 27.875 56 
Q 33.9375 56 38.28125 53.609375 
Q 42.625 51.21875 45.40625 46.390625 
L 45.40625 54.6875 
L 54.390625 54.6875 
z
" id="DejaVuSans-103"/>
      </defs>
      <use xlink:href="#DejaVuSans-79"/>
      <use x="78.710938" xlink:href="#DejaVuSans-108"/>
      <use x="106.494141" xlink:href="#DejaVuSans-105"/>
      <use x="134.277344" xlink:href="#DejaVuSans-103"/>
      <use x="197.753906" xlink:href="#DejaVuSans-111"/>
     </g>
    </g>
    <g id="line2d_45">
     <path d="M 527.4 136.770938 
L 547.4 136.770938 
" style="fill:none;stroke:#39a8cc;stroke-linecap:square;stroke-width:1.5;"/>
    </g>
    <g id="line2d_46"/>
    <g id="text_12">
     <!-- Astro -->
     <g transform="translate(555.4 140.270938)scale(0.1 -0.1)">
      <defs>
       <path d="M 34.1875 63.1875 
L 20.796875 26.90625 
L 47.609375 26.90625 
z
M 28.609375 72.90625 
L 39.796875 72.90625 
L 67.578125 0 
L 57.328125 0 
L 50.6875 18.703125 
L 17.828125 18.703125 
L 11.1875 0 
L 0.78125 0 
z
" id="DejaVuSans-65"/>
       <path d="M 44.28125 53.078125 
L 44.28125 44.578125 
Q 40.484375 46.53125 36.375 47.5 
Q 32.28125 48.484375 27.875 48.484375 
Q 21.1875 48.484375 17.84375 46.4375 
Q 14.5 44.390625 14.5 40.28125 
Q 14.5 37.15625 16.890625 35.375 
Q 19.28125 33.59375 26.515625 31.984375 
L 29.59375 31.296875 
Q 39.15625 29.25 43.1875 25.515625 
Q 47.21875 21.78125 47.21875 15.09375 
Q 47.21875 7.46875 41.1875 3.015625 
Q 35.15625 -1.421875 24.609375 -1.421875 
Q 20.21875 -1.421875 15.453125 -0.5625 
Q 10.6875 0.296875 5.421875 2 
L 5.421875 11.28125 
Q 10.40625 8.6875 15.234375 7.390625 
Q 20.0625 6.109375 24.8125 6.109375 
Q 31.15625 6.109375 34.5625 8.28125 
Q 37.984375 10.453125 37.984375 14.40625 
Q 37.984375 18.0625 35.515625 20.015625 
Q 33.0625 21.96875 24.703125 23.78125 
L 21.578125 24.515625 
Q 13.234375 26.265625 9.515625 29.90625 
Q 5.8125 33.546875 5.8125 39.890625 
Q 5.8125 47.609375 11.28125 51.796875 
Q 16.75 56 26.8125 56 
Q 31.78125 56 36.171875 55.265625 
Q 40.578125 54.546875 44.28125 53.078125 
z
" id="DejaVuSans-115"/>
       <path d="M 41.109375 46.296875 
Q 39.59375 47.171875 37.8125 47.578125 
Q 36.03125 48 33.890625 48 
Q 26.265625 48 22.1875 43.046875 
Q 18.109375 38.09375 18.109375 28.8125 
L 18.109375 0 
L 9.078125 0 
L 9.078125 54.6875 
L 18.109375 54.6875 
L 18.109375 46.1875 
Q 20.953125 51.171875 25.484375 53.578125 
Q 30.03125 56 36.53125 56 
Q 37.453125 56 38.578125 55.875 
Q 39.703125 55.765625 41.0625 55.515625 
z
" id="DejaVuSans-114"/>
      </defs>
      <use xlink:href="#DejaVuSans-65"/>
      <use x="68.408203" xlink:href="#DejaVuSans-115"/>
      <use x="120.507812" xlink:href="#DejaVuSans-116"/>
      <use x="159.716797" xlink:href="#DejaVuSans-114"/>
      <use x="198.580078" xlink:href="#DejaVuSans-111"/>
     </g>
    </g>
    <g id="line2d_47">
     <path d="M 527.4 151.449062 
L 547.4 151.449062 
" style="fill:none;stroke:#639df4;stroke-linecap:square;stroke-width:1.5;"/>
    </g>
    <g id="line2d_48"/>
    <g id="text_13">
     <!-- Sst -->
     <g transform="translate(555.4 154.949062)scale(0.1 -0.1)">
      <defs>
       <path d="M 53.515625 70.515625 
L 53.515625 60.890625 
Q 47.90625 63.578125 42.921875 64.890625 
Q 37.9375 66.21875 33.296875 66.21875 
Q 25.25 66.21875 20.875 63.09375 
Q 16.5 59.96875 16.5 54.203125 
Q 16.5 49.359375 19.40625 46.890625 
Q 22.3125 44.4375 30.421875 42.921875 
L 36.375 41.703125 
Q 47.40625 39.59375 52.65625 34.296875 
Q 57.90625 29 57.90625 20.125 
Q 57.90625 9.515625 50.796875 4.046875 
Q 43.703125 -1.421875 29.984375 -1.421875 
Q 24.8125 -1.421875 18.96875 -0.25 
Q 13.140625 0.921875 6.890625 3.21875 
L 6.890625 13.375 
Q 12.890625 10.015625 18.65625 8.296875 
Q 24.421875 6.59375 29.984375 6.59375 
Q 38.421875 6.59375 43.015625 9.90625 
Q 47.609375 13.234375 47.609375 19.390625 
Q 47.609375 24.75 44.3125 27.78125 
Q 41.015625 30.8125 33.5 32.328125 
L 27.484375 33.5 
Q 16.453125 35.6875 11.515625 40.375 
Q 6.59375 45.0625 6.59375 53.421875 
Q 6.59375 63.09375 13.40625 68.65625 
Q 20.21875 74.21875 32.171875 74.21875 
Q 37.3125 74.21875 42.625 73.28125 
Q 47.953125 72.359375 53.515625 70.515625 
z
" id="DejaVuSans-83"/>
      </defs>
      <use xlink:href="#DejaVuSans-83"/>
      <use x="63.476562" xlink:href="#DejaVuSans-115"/>
      <use x="115.576172" xlink:href="#DejaVuSans-116"/>
     </g>
    </g>
    <g id="line2d_49">
     <path d="M 527.4 166.127187 
L 547.4 166.127187 
" style="fill:none;stroke:#b486f4;stroke-linecap:square;stroke-width:1.5;"/>
    </g>
    <g id="line2d_50"/>
    <g id="text_14">
     <!-- Endo -->
     <g transform="translate(555.4 169.627187)scale(0.1 -0.1)">
      <defs>
       <path d="M 9.8125 72.90625 
L 55.90625 72.90625 
L 55.90625 64.59375 
L 19.671875 64.59375 
L 19.671875 43.015625 
L 54.390625 43.015625 
L 54.390625 34.71875 
L 19.671875 34.71875 
L 19.671875 8.296875 
L 56.78125 8.296875 
L 56.78125 0 
L 9.8125 0 
z
" id="DejaVuSans-69"/>
       <path d="M 45.40625 46.390625 
L 45.40625 75.984375 
L 54.390625 75.984375 
L 54.390625 0 
L 45.40625 0 
L 45.40625 8.203125 
Q 42.578125 3.328125 38.25 0.953125 
Q 33.9375 -1.421875 27.875 -1.421875 
Q 17.96875 -1.421875 11.734375 6.484375 
Q 5.515625 14.40625 5.515625 27.296875 
Q 5.515625 40.1875 11.734375 48.09375 
Q 17.96875 56 27.875 56 
Q 33.9375 56 38.25 53.625 
Q 42.578125 51.265625 45.40625 46.390625 
z
M 14.796875 27.296875 
Q 14.796875 17.390625 18.875 11.75 
Q 22.953125 6.109375 30.078125 6.109375 
Q 37.203125 6.109375 41.296875 11.75 
Q 45.40625 17.390625 45.40625 27.296875 
Q 45.40625 37.203125 41.296875 42.84375 
Q 37.203125 48.484375 30.078125 48.484375 
Q 22.953125 48.484375 18.875 42.84375 
Q 14.796875 37.203125 14.796875 27.296875 
z
" id="DejaVuSans-100"/>
      </defs>
      <use xlink:href="#DejaVuSans-69"/>
      <use x="63.183594" xlink:href="#DejaVuSans-110"/>
      <use x="126.5625" xlink:href="#DejaVuSans-100"/>
      <use x="190.039062" xlink:href="#DejaVuSans-111"/>
     </g>
    </g>
    <g id="line2d_51">
     <path d="M 527.4 180.805312 
L 547.4 180.805312 
" style="fill:none;stroke:#f35cf4;stroke-linecap:square;stroke-width:1.5;"/>
    </g>
    <g id="line2d_52"/>
    <g id="text_15">
     <!-- SMC -->
     <g transform="translate(555.4 184.305312)scale(0.1 -0.1)">
      <defs>
       <path d="M 9.8125 72.90625 
L 24.515625 72.90625 
L 43.109375 23.296875 
L 61.8125 72.90625 
L 76.515625 72.90625 
L 76.515625 0 
L 66.890625 0 
L 66.890625 64.015625 
L 48.09375 14.015625 
L 38.1875 14.015625 
L 19.390625 64.015625 
L 19.390625 0 
L 9.8125 0 
z
" id="DejaVuSans-77"/>
      </defs>
      <use xlink:href="#DejaVuSans-83"/>
      <use x="63.476562" xlink:href="#DejaVuSans-77"/>
      <use x="149.755859" xlink:href="#DejaVuSans-67"/>
     </g>
    </g>
    <g id="line2d_53">
     <path d="M 527.4 195.483437 
L 547.4 195.483437 
" style="fill:none;stroke:#f668be;stroke-linecap:square;stroke-width:1.5;"/>
    </g>
    <g id="line2d_54"/>
    <g id="text_16">
     <!-- OPC -->
     <g transform="translate(555.4 198.983437)scale(0.1 -0.1)">
      <use xlink:href="#DejaVuSans-79"/>
      <use x="78.710938" xlink:href="#DejaVuSans-80"/>
      <use x="139.013672" xlink:href="#DejaVuSans-67"/>
     </g>
    </g>
   </g>
  </g>
  <g id="axes_3">
   <g id="patch_11">
    <path d="M 72 189 
L 518.4 189 
L 518.4 141.035294 
L 72 141.035294 
z
" style="fill:#ffffff;"/>
   </g>
   <g id="matplotlib.axis_3">
    <g id="text_17">
     <!-- pos -->
     <g transform="translate(286.361719 200.598437)scale(0.1 -0.1)">
      <use xlink:href="#DejaVuSans-112"/>
      <use x="63.476562" xlink:href="#DejaVuSans-111"/>
      <use x="124.658203" xlink:href="#DejaVuSans-115"/>
     </g>
    </g>
   </g>
   <g id="matplotlib.axis_4">
    <g id="ytick_3">
     <g id="line2d_55">
      <g>
       <use style="stroke:#000000;stroke-width:0.8;" x="72" xlink:href="#m01a2457152" y="186.819786"/>
      </g>
     </g>
     <g id="text_18">
      <!-- 0 -->
      <g transform="translate(58.6375 190.619005)scale(0.1 -0.1)">
       <use xlink:href="#DejaVuSans-48"/>
      </g>
     </g>
    </g>
    <g id="ytick_4">
     <g id="line2d_56">
      <g>
       <use style="stroke:#000000;stroke-width:0.8;" x="72" xlink:href="#m01a2457152" y="143.215508"/>
      </g>
     </g>
     <g id="text_19">
      <!-- 1 -->
      <g transform="translate(58.6375 147.014727)scale(0.1 -0.1)">
       <use xlink:href="#DejaVuSans-49"/>
      </g>
     </g>
    </g>
    <g id="text_20">
     <!-- cumulative -->
     <g transform="translate(52.557812 192.81296)rotate(-90)scale(0.1 -0.1)">
      <defs>
       <path d="M 2.984375 54.6875 
L 12.5 54.6875 
L 29.59375 8.796875 
L 46.6875 54.6875 
L 56.203125 54.6875 
L 35.6875 0 
L 23.484375 0 
z
" id="DejaVuSans-118"/>
       <path d="M 56.203125 29.59375 
L 56.203125 25.203125 
L 14.890625 25.203125 
Q 15.484375 15.921875 20.484375 11.0625 
Q 25.484375 6.203125 34.421875 6.203125 
Q 39.59375 6.203125 44.453125 7.46875 
Q 49.3125 8.734375 54.109375 11.28125 
L 54.109375 2.78125 
Q 49.265625 0.734375 44.1875 -0.34375 
Q 39.109375 -1.421875 33.890625 -1.421875 
Q 20.796875 -1.421875 13.15625 6.1875 
Q 5.515625 13.8125 5.515625 26.8125 
Q 5.515625 40.234375 12.765625 48.109375 
Q 20.015625 56 32.328125 56 
Q 43.359375 56 49.78125 48.890625 
Q 56.203125 41.796875 56.203125 29.59375 
z
M 47.21875 32.234375 
Q 47.125 39.59375 43.09375 43.984375 
Q 39.0625 48.390625 32.421875 48.390625 
Q 24.90625 48.390625 20.390625 44.140625 
Q 15.875 39.890625 15.1875 32.171875 
z
" id="DejaVuSans-101"/>
      </defs>
      <use xlink:href="#DejaVuSans-99"/>
      <use x="54.980469" xlink:href="#DejaVuSans-117"/>
      <use x="118.359375" xlink:href="#DejaVuSans-109"/>
      <use x="215.771484" xlink:href="#DejaVuSans-117"/>
      <use x="279.150391" xlink:href="#DejaVuSans-108"/>
      <use x="306.933594" xlink:href="#DejaVuSans-97"/>
      <use x="368.212891" xlink:href="#DejaVuSans-116"/>
      <use x="407.421875" xlink:href="#DejaVuSans-105"/>
      <use x="435.205078" xlink:href="#DejaVuSans-118"/>
      <use x="494.384766" xlink:href="#DejaVuSans-101"/>
     </g>
    </g>
   </g>
   <g id="line2d_57">
    <path clip-path="url(#pf350e0a451)" d="M 91.953009 186.739008 
L 103.21635 186.69054 
L 114.479691 186.512827 
L 125.743032 185.995845 
L 137.006373 184.54183 
L 148.269715 182.764701 
L 159.533056 182.312341 
L 170.796397 182.215407 
L 182.059738 182.086161 
L 193.323079 182.037694 
L 204.58642 181.908448 
L 215.849762 177.611028 
L 227.113103 161.423 
L 238.376444 153.732879 
L 249.639785 152.359643 
L 260.903126 152.214242 
L 272.166467 151.907283 
L 283.429808 151.551858 
L 294.69315 151.374145 
L 305.956491 151.244899 
L 317.219832 150.873318 
L 328.483173 149.790885 
L 339.746514 148.159157 
L 351.009855 147.690641 
L 362.273197 147.561396 
L 373.536538 147.109036 
L 384.799879 145.7358 
L 396.06322 144.524121 
L 407.326561 144.15254 
L 418.589902 144.007138 
L 429.853244 143.958671 
L 441.116585 143.958671 
L 452.379926 143.845581 
L 463.643267 143.490155 
L 474.906608 143.296287 
L 486.169949 143.215508 
L 497.43329 143.215508 
" style="fill:none;stroke:#f77189;stroke-linecap:square;stroke-width:1.5;"/>
   </g>
   <g id="line2d_58">
    <path clip-path="url(#pf350e0a451)" d="M 91.953009 186.819786 
L 103.21635 186.350923 
L 114.479691 185.647628 
L 125.743032 184.47547 
L 137.006373 184.47547 
L 148.269715 184.006607 
L 159.533056 183.772175 
L 170.796397 183.772175 
L 182.059738 183.772175 
L 193.323079 183.772175 
L 204.58642 183.772175 
L 215.849762 179.786838 
L 227.113103 161.266741 
L 238.376444 156.109246 
L 249.639785 154.937088 
L 260.903126 154.468225 
L 272.166467 154.468225 
L 283.429808 154.468225 
L 294.69315 154.468225 
L 305.956491 154.468225 
L 317.219832 153.76493 
L 328.483173 152.358341 
L 339.746514 149.076298 
L 351.009855 149.076298 
L 362.273197 149.076298 
L 373.536538 148.607435 
L 384.799879 147.200845 
L 396.06322 146.263119 
L 407.326561 145.090961 
L 418.589902 144.387666 
L 429.853244 144.153234 
L 441.116585 144.153234 
L 452.379926 143.918803 
L 463.643267 143.44994 
L 474.906608 143.215508 
L 486.169949 143.215508 
L 497.43329 143.215508 
" style="fill:none;stroke:#eb8032;stroke-linecap:square;stroke-width:1.5;"/>
   </g>
   <g id="line2d_59">
    <path clip-path="url(#pf350e0a451)" d="M 91.953009 186.749851 
L 103.21635 186.749851 
L 114.479691 186.714884 
L 125.743032 186.190374 
L 137.006373 185.491027 
L 148.269715 184.442007 
L 159.533056 183.847562 
L 170.796397 183.74266 
L 182.059738 183.672725 
L 193.323079 183.637758 
L 204.58642 183.462921 
L 215.849762 178.672395 
L 227.113103 161.818135 
L 238.376444 153.915515 
L 249.639785 152.376952 
L 260.903126 152.167148 
L 272.166467 151.537736 
L 283.429808 151.467801 
L 294.69315 151.432834 
L 305.956491 151.397867 
L 317.219832 151.188062 
L 328.483173 149.789369 
L 339.746514 147.971067 
L 351.009855 147.236753 
L 362.273197 147.201785 
L 373.536538 146.74721 
L 384.799879 145.313549 
L 396.06322 144.194594 
L 407.326561 143.565181 
L 418.589902 143.530214 
L 429.853244 143.460279 
L 441.116585 143.460279 
L 452.379926 143.355377 
L 463.643267 143.355377 
L 474.906608 143.285443 
L 486.169949 143.215508 
L 497.43329 143.215508 
" style="fill:none;stroke:#c19632;stroke-linecap:square;stroke-width:1.5;"/>
   </g>
   <g id="line2d_60">
    <path clip-path="url(#pf350e0a451)" d="M 91.953009 186.819786 
L 103.21635 186.665707 
L 114.479691 186.588668 
L 125.743032 185.587156 
L 137.006373 184.816763 
L 148.269715 182.890779 
L 159.533056 182.505582 
L 170.796397 182.428543 
L 182.059738 182.428543 
L 193.323079 182.351503 
L 204.58642 182.274464 
L 215.849762 178.961771 
L 227.113103 165.017647 
L 238.376444 156.928514 
L 249.639785 155.927003 
L 260.903126 155.695884 
L 272.166467 155.156609 
L 283.429808 154.463255 
L 294.69315 154.001018 
L 305.956491 153.384704 
L 317.219832 153.153586 
L 328.483173 152.152074 
L 339.746514 150.380169 
L 351.009855 149.609775 
L 362.273197 149.609775 
L 373.536538 148.608263 
L 384.799879 146.990437 
L 396.06322 145.295571 
L 407.326561 144.833335 
L 418.589902 144.525177 
L 429.853244 144.21702 
L 441.116585 144.13998 
L 452.379926 143.985902 
L 463.643267 143.677744 
L 474.906608 143.292547 
L 486.169949 143.215508 
L 497.43329 143.215508 
" style="fill:none;stroke:#a0a131;stroke-linecap:square;stroke-width:1.5;"/>
   </g>
   <g id="line2d_61">
    <path clip-path="url(#pf350e0a451)" d="M 91.953009 186.745217 
L 103.21635 186.745217 
L 114.479691 186.745217 
L 125.743032 186.391014 
L 137.006373 185.197908 
L 148.269715 183.911591 
L 159.533056 183.296396 
L 170.796397 183.259112 
L 182.059738 183.259112 
L 193.323079 183.128616 
L 204.58642 182.811697 
L 215.849762 178.412121 
L 227.113103 163.330521 
L 238.376444 156.637945 
L 249.639785 155.258417 
L 260.903126 154.848287 
L 272.166467 154.38223 
L 283.429808 154.009384 
L 294.69315 153.804319 
L 305.956491 153.692466 
L 317.219832 153.356905 
L 328.483173 151.753669 
L 339.746514 149.964011 
L 351.009855 149.535239 
L 362.273197 149.311532 
L 373.536538 148.938686 
L 384.799879 147.391377 
L 396.06322 145.713573 
L 407.326561 144.856028 
L 418.589902 144.539109 
L 429.853244 144.371329 
L 441.116585 144.334044 
L 452.379926 144.110337 
L 463.643267 143.774776 
L 474.906608 143.346004 
L 486.169949 143.215508 
L 497.43329 143.215508 
" style="fill:none;stroke:#71ac31;stroke-linecap:square;stroke-width:1.5;"/>
   </g>
   <g id="line2d_62">
    <path clip-path="url(#pf350e0a451)" d="M 91.953009 186.819786 
L 103.21635 186.76038 
L 114.479691 186.76038 
L 125.743032 186.285129 
L 137.006373 185.631659 
L 148.269715 185.215814 
L 159.533056 185.097001 
L 170.796397 185.037595 
L 182.059738 185.037595 
L 193.323079 185.037595 
L 204.58642 184.859376 
L 215.849762 182.126683 
L 227.113103 173.037507 
L 238.376444 167.987966 
L 249.639785 167.156277 
L 260.903126 166.918651 
L 272.166467 166.562213 
L 283.429808 166.324587 
L 294.69315 165.968149 
L 305.956491 165.908743 
L 317.219832 165.611711 
L 328.483173 163.710707 
L 339.746514 161.869109 
L 351.009855 160.680982 
L 362.273197 159.671073 
L 373.536538 159.136416 
L 384.799879 158.364133 
L 396.06322 157.294819 
L 407.326561 155.869066 
L 418.589902 153.968062 
L 429.853244 153.730436 
L 441.116585 153.492811 
L 452.379926 150.87893 
L 463.643267 145.532357 
L 474.906608 143.334321 
L 486.169949 143.215508 
L 497.43329 143.215508 
" style="fill:none;stroke:#33b16f;stroke-linecap:square;stroke-width:1.5;"/>
   </g>
   <g id="line2d_63">
    <path clip-path="url(#pf350e0a451)" d="M 91.953009 186.570856 
L 103.21635 186.529367 
L 114.479691 186.487879 
L 125.743032 186.114484 
L 137.006373 185.94853 
L 148.269715 185.575135 
L 159.533056 185.533647 
L 170.796397 185.533647 
L 182.059738 185.409181 
L 193.323079 185.326205 
L 204.58642 185.284716 
L 215.849762 184.081554 
L 227.113103 179.683786 
L 238.376444 178.107228 
L 249.639785 177.028531 
L 260.903126 176.821089 
L 272.166467 176.696624 
L 283.429808 176.696624 
L 294.69315 176.613647 
L 305.956491 176.364717 
L 317.219832 176.03281 
L 328.483173 174.622205 
L 339.746514 171.925461 
L 351.009855 170.099973 
L 362.273197 168.523414 
L 373.536538 168.067042 
L 384.799879 167.444717 
L 396.06322 166.366019 
L 407.326561 163.918205 
L 418.589902 160.516159 
L 429.853244 159.47895 
L 441.116585 158.773647 
L 452.379926 154.085461 
L 463.643267 146.161182 
L 474.906608 143.339973 
L 486.169949 143.215508 
L 497.43329 143.215508 
" style="fill:none;stroke:#35ae97;stroke-linecap:square;stroke-width:1.5;"/>
   </g>
   <g id="line2d_64">
    <path clip-path="url(#pf350e0a451)" d="M 91.953009 186.054799 
L 103.21635 185.289811 
L 114.479691 185.289811 
L 125.743032 185.289811 
L 137.006373 185.289811 
L 148.269715 185.289811 
L 159.533056 185.289811 
L 170.796397 185.289811 
L 182.059738 185.289811 
L 193.323079 185.289811 
L 204.58642 185.289811 
L 215.849762 185.289811 
L 227.113103 182.229862 
L 238.376444 174.579989 
L 249.639785 173.815001 
L 260.903126 173.815001 
L 272.166467 173.815001 
L 283.429808 173.815001 
L 294.69315 173.815001 
L 305.956491 173.815001 
L 317.219832 173.815001 
L 328.483173 170.755052 
L 339.746514 169.990065 
L 351.009855 168.46009 
L 362.273197 167.695103 
L 373.536538 167.695103 
L 384.799879 167.695103 
L 396.06322 167.695103 
L 407.326561 166.930115 
L 418.589902 158.515255 
L 429.853244 156.98528 
L 441.116585 156.220293 
L 452.379926 152.395356 
L 463.643267 146.275457 
L 474.906608 143.215508 
L 486.169949 143.215508 
L 497.43329 143.215508 
" style="fill:none;stroke:#36abb0;stroke-linecap:square;stroke-width:1.5;"/>
   </g>
   <g id="line2d_65">
    <path clip-path="url(#pf350e0a451)" d="M 91.953009 186.32985 
L 103.21635 185.717431 
L 114.479691 185.717431 
L 125.743032 185.349979 
L 137.006373 185.105011 
L 148.269715 184.982527 
L 159.533056 184.982527 
L 170.796397 184.982527 
L 182.059738 184.492591 
L 193.323079 184.002656 
L 204.58642 184.002656 
L 215.849762 183.757688 
L 227.113103 183.51272 
L 238.376444 182.532849 
L 249.639785 181.675461 
L 260.903126 181.552977 
L 272.166467 181.552977 
L 283.429808 181.430493 
L 294.69315 181.430493 
L 305.956491 181.430493 
L 317.219832 181.430493 
L 328.483173 179.348267 
L 339.746514 176.776104 
L 351.009855 175.183813 
L 362.273197 173.958974 
L 373.536538 173.591522 
L 384.799879 173.469038 
L 396.06322 172.366683 
L 407.326561 169.549552 
L 418.589902 165.630067 
L 429.853244 164.405227 
L 441.116585 164.037776 
L 452.379926 159.015935 
L 463.643267 147.869897 
L 474.906608 143.215508 
L 486.169949 143.215508 
L 497.43329 143.215508 
" style="fill:none;stroke:#39a8cc;stroke-linecap:square;stroke-width:1.5;"/>
   </g>
   <g id="line2d_66">
    <path clip-path="url(#pf350e0a451)" d="M 91.953009 186.637559 
L 103.21635 186.585494 
L 114.479691 186.351203 
L 125.743032 186.168976 
L 137.006373 186.012782 
L 148.269715 185.830555 
L 159.533056 185.77849 
L 170.796397 185.570231 
L 182.059738 185.101647 
L 193.323079 184.737194 
L 204.58642 184.685129 
L 215.849762 184.26861 
L 227.113103 182.888893 
L 238.376444 181.977759 
L 249.639785 181.326949 
L 260.903126 181.222819 
L 272.166467 181.196787 
L 283.429808 181.170754 
L 294.69315 181.118689 
L 305.956491 181.01456 
L 317.219832 180.754236 
L 328.483173 179.374518 
L 339.746514 177.005569 
L 351.009855 175.625852 
L 362.273197 174.610588 
L 373.536538 174.402329 
L 384.799879 174.08994 
L 396.06322 173.335 
L 407.326561 170.705728 
L 418.589902 166.254186 
L 429.853244 165.186858 
L 441.116585 164.56208 
L 452.379926 158.522562 
L 463.643267 147.719114 
L 474.906608 143.475832 
L 486.169949 143.215508 
L 497.43329 143.215508 
" style="fill:none;stroke:#639df4;stroke-linecap:square;stroke-width:1.5;"/>
   </g>
   <g id="line2d_67">
    <path clip-path="url(#pf350e0a451)" d="M 91.953009 186.529091 
L 103.21635 186.432193 
L 114.479691 186.432193 
L 125.743032 186.432193 
L 137.006373 186.432193 
L 148.269715 186.432193 
L 159.533056 186.432193 
L 170.796397 186.432193 
L 182.059738 186.238396 
L 193.323079 186.141497 
L 204.58642 186.141497 
L 215.849762 186.044599 
L 227.113103 185.753904 
L 238.376444 185.463209 
L 249.639785 185.269412 
L 260.903126 185.172513 
L 272.166467 185.172513 
L 283.429808 185.172513 
L 294.69315 185.075615 
L 305.956491 184.881818 
L 317.219832 184.494225 
L 328.483173 182.556257 
L 339.746514 180.327594 
L 351.009855 178.583422 
L 362.273197 176.354759 
L 373.536538 176.064064 
L 384.799879 175.967166 
L 396.06322 175.676471 
L 407.326561 171.994332 
L 418.589902 167.24631 
L 429.853244 165.405241 
L 441.116585 164.630053 
L 452.379926 159.009947 
L 463.643267 149.513904 
L 474.906608 143.312406 
L 486.169949 143.215508 
L 497.43329 143.215508 
" style="fill:none;stroke:#b486f4;stroke-linecap:square;stroke-width:1.5;"/>
   </g>
   <g id="line2d_68">
    <path clip-path="url(#pf350e0a451)" d="M 91.953009 186.819786 
L 103.21635 186.819786 
L 114.479691 186.819786 
L 125.743032 184.177103 
L 137.006373 184.177103 
L 148.269715 184.177103 
L 159.533056 184.177103 
L 170.796397 184.177103 
L 182.059738 184.177103 
L 193.323079 183.516432 
L 204.58642 183.516432 
L 215.849762 183.516432 
L 227.113103 183.516432 
L 238.376444 183.516432 
L 249.639785 183.516432 
L 260.903126 183.516432 
L 272.166467 183.516432 
L 283.429808 183.516432 
L 294.69315 183.516432 
L 305.956491 183.516432 
L 317.219832 183.516432 
L 328.483173 182.19509 
L 339.746514 178.231065 
L 351.009855 176.909723 
L 362.273197 174.92771 
L 373.536538 174.92771 
L 384.799879 174.92771 
L 396.06322 174.92771 
L 407.326561 172.285027 
L 418.589902 168.321001 
L 429.853244 167.660331 
L 441.116585 167.660331 
L 452.379926 162.374964 
L 463.643267 151.804229 
L 474.906608 143.215508 
L 486.169949 143.215508 
L 497.43329 143.215508 
" style="fill:none;stroke:#f35cf4;stroke-linecap:square;stroke-width:1.5;"/>
   </g>
   <g id="line2d_69">
    <path clip-path="url(#pf350e0a451)" d="M 91.953009 186.819786 
L 103.21635 186.365575 
L 114.479691 186.365575 
L 125.743032 186.365575 
L 137.006373 186.365575 
L 148.269715 186.365575 
L 159.533056 186.365575 
L 170.796397 186.365575 
L 182.059738 186.365575 
L 193.323079 186.365575 
L 204.58642 185.911364 
L 215.849762 184.54873 
L 227.113103 183.186096 
L 238.376444 182.731885 
L 249.639785 182.277674 
L 260.903126 181.823463 
L 272.166467 181.823463 
L 283.429808 181.823463 
L 294.69315 181.823463 
L 305.956491 181.823463 
L 317.219832 181.369251 
L 328.483173 180.460829 
L 339.746514 178.189773 
L 351.009855 175.918717 
L 362.273197 173.64766 
L 373.536538 173.64766 
L 384.799879 173.193449 
L 396.06322 172.285027 
L 407.326561 168.651337 
L 418.589902 167.742914 
L 429.853244 166.834492 
L 441.116585 166.380281 
L 452.379926 157.750267 
L 463.643267 146.394987 
L 474.906608 143.215508 
L 486.169949 143.215508 
L 497.43329 143.215508 
" style="fill:none;stroke:#f668be;stroke-linecap:square;stroke-width:1.5;"/>
   </g>
   <g id="patch_12">
    <path d="M 72 189 
L 72 141.035294 
" style="fill:none;stroke:#000000;stroke-linecap:square;stroke-linejoin:miter;stroke-width:0.8;"/>
   </g>
   <g id="patch_13">
    <path d="M 518.4 189 
L 518.4 141.035294 
" style="fill:none;stroke:#000000;stroke-linecap:square;stroke-linejoin:miter;stroke-width:0.8;"/>
   </g>
   <g id="patch_14">
    <path d="M 72 189 
L 518.4 189 
" style="fill:none;stroke:#000000;stroke-linecap:square;stroke-linejoin:miter;stroke-width:0.8;"/>
   </g>
   <g id="patch_15">
    <path d="M 72 141.035294 
L 518.4 141.035294 
" style="fill:none;stroke:#000000;stroke-linecap:square;stroke-linejoin:miter;stroke-width:0.8;"/>
   </g>
  </g>
  <g id="text_21">
   <!-- Timp3 chr10 plus strand 3' UTR -->
   <g transform="translate(193.319063 13.438125)scale(0.12 -0.12)">
    <defs>
     <path id="DejaVuSans-32"/>
     <path d="M 54.890625 33.015625 
L 54.890625 0 
L 45.90625 0 
L 45.90625 32.71875 
Q 45.90625 40.484375 42.875 44.328125 
Q 39.84375 48.1875 33.796875 48.1875 
Q 26.515625 48.1875 22.3125 43.546875 
Q 18.109375 38.921875 18.109375 30.90625 
L 18.109375 0 
L 9.078125 0 
L 9.078125 75.984375 
L 18.109375 75.984375 
L 18.109375 46.1875 
Q 21.34375 51.125 25.703125 53.5625 
Q 30.078125 56 35.796875 56 
Q 45.21875 56 50.046875 50.171875 
Q 54.890625 44.34375 54.890625 33.015625 
z
" id="DejaVuSans-104"/>
     <path d="M 17.921875 72.90625 
L 17.921875 45.796875 
L 9.625 45.796875 
L 9.625 72.90625 
z
" id="DejaVuSans-39"/>
     <path d="M 8.6875 72.90625 
L 18.609375 72.90625 
L 18.609375 28.609375 
Q 18.609375 16.890625 22.84375 11.734375 
Q 27.09375 6.59375 36.625 6.59375 
Q 46.09375 6.59375 50.34375 11.734375 
Q 54.59375 16.890625 54.59375 28.609375 
L 54.59375 72.90625 
L 64.5 72.90625 
L 64.5 27.390625 
Q 64.5 13.140625 57.4375 5.859375 
Q 50.390625 -1.421875 36.625 -1.421875 
Q 22.796875 -1.421875 15.734375 5.859375 
Q 8.6875 13.140625 8.6875 27.390625 
z
" id="DejaVuSans-85"/>
     <path d="M 44.390625 34.1875 
Q 47.5625 33.109375 50.5625 29.59375 
Q 53.5625 26.078125 56.59375 19.921875 
L 66.609375 0 
L 56 0 
L 46.6875 18.703125 
Q 43.0625 26.03125 39.671875 28.421875 
Q 36.28125 30.8125 30.421875 30.8125 
L 19.671875 30.8125 
L 19.671875 0 
L 9.8125 0 
L 9.8125 72.90625 
L 32.078125 72.90625 
Q 44.578125 72.90625 50.734375 67.671875 
Q 56.890625 62.453125 56.890625 51.90625 
Q 56.890625 45.015625 53.6875 40.46875 
Q 50.484375 35.9375 44.390625 34.1875 
z
M 19.671875 64.796875 
L 19.671875 38.921875 
L 32.078125 38.921875 
Q 39.203125 38.921875 42.84375 42.21875 
Q 46.484375 45.515625 46.484375 51.90625 
Q 46.484375 58.296875 42.84375 61.546875 
Q 39.203125 64.796875 32.078125 64.796875 
z
" id="DejaVuSans-82"/>
    </defs>
    <use xlink:href="#DejaVuSans-84"/>
    <use x="57.958984" xlink:href="#DejaVuSans-105"/>
    <use x="85.742188" xlink:href="#DejaVuSans-109"/>
    <use x="183.154297" xlink:href="#DejaVuSans-112"/>
    <use x="246.630859" xlink:href="#DejaVuSans-51"/>
    <use x="310.253906" xlink:href="#DejaVuSans-32"/>
    <use x="342.041016" xlink:href="#DejaVuSans-99"/>
    <use x="397.021484" xlink:href="#DejaVuSans-104"/>
    <use x="460.400391" xlink:href="#DejaVuSans-114"/>
    <use x="501.513672" xlink:href="#DejaVuSans-49"/>
    <use x="565.136719" xlink:href="#DejaVuSans-48"/>
    <use x="628.759766" xlink:href="#DejaVuSans-32"/>
    <use x="660.546875" xlink:href="#DejaVuSans-112"/>
    <use x="724.023438" xlink:href="#DejaVuSans-108"/>
    <use x="751.806641" xlink:href="#DejaVuSans-117"/>
    <use x="815.185547" xlink:href="#DejaVuSans-115"/>
    <use x="867.285156" xlink:href="#DejaVuSans-32"/>
    <use x="899.072266" xlink:href="#DejaVuSans-115"/>
    <use x="951.171875" xlink:href="#DejaVuSans-116"/>
    <use x="990.380859" xlink:href="#DejaVuSans-114"/>
    <use x="1031.494141" xlink:href="#DejaVuSans-97"/>
    <use x="1092.773438" xlink:href="#DejaVuSans-110"/>
    <use x="1156.152344" xlink:href="#DejaVuSans-100"/>
    <use x="1219.628906" xlink:href="#DejaVuSans-32"/>
    <use x="1251.416016" xlink:href="#DejaVuSans-51"/>
    <use x="1315.039062" xlink:href="#DejaVuSans-39"/>
    <use x="1342.529297" xlink:href="#DejaVuSans-32"/>
    <use x="1374.316406" xlink:href="#DejaVuSans-85"/>
    <use x="1447.509766" xlink:href="#DejaVuSans-84"/>
    <use x="1508.59375" xlink:href="#DejaVuSans-82"/>
   </g>
  </g>
 </g>
 <defs>
  <clipPath id="paf78884c68">
   <rect height="47.964706" width="446.4" x="72" y="25.92"/>
  </clipPath>
  <clipPath id="pc69d93ef64">
   <rect height="47.964706" width="446.4" x="72" y="83.477647"/>
  </clipPath>
  <clipPath id="pf350e0a451">
   <rect height="47.964706" width="446.4" x="72" y="141.035294"/>
  </clipPath>
 </defs>
</svg>
