<?xml version="1.0" encoding="utf-8" standalone="no"?>
<!DOCTYPE svg PUBLIC "-//W3C//DTD SVG 1.1//EN"
  "http://www.w3.org/Graphics/SVG/1.1/DTD/svg11.dtd">
<svg xmlns:xlink="http://www.w3.org/1999/xlink" width="438.447977pt" height="367.274375pt" viewBox="0 0 438.447977 367.274375" xmlns="http://www.w3.org/2000/svg" version="1.1">
 <metadata>
  <rdf:RDF xmlns:dc="http://purl.org/dc/elements/1.1/" xmlns:cc="http://creativecommons.org/ns#" xmlns:rdf="http://www.w3.org/1999/02/22-rdf-syntax-ns#">
   <cc:Work>
    <dc:type rdf:resource="http://purl.org/dc/dcmitype/StillImage"/>
    <dc:date>2022-04-26T14:22:00.238459</dc:date>
    <dc:format>image/svg+xml</dc:format>
    <dc:creator>
     <cc:Agent>
      <dc:title>Matplotlib v3.5.1, https://matplotlib.org/</dc:title>
     </cc:Agent>
    </dc:creator>
   </cc:Work>
  </rdf:RDF>
 </metadata>
 <defs>
  <style type="text/css">*{stroke-linejoin: round; stroke-linecap: butt}</style>
 </defs>
 <g id="figure_1">
  <g id="patch_1">
   <path d="M 0 367.274375 
L 438.447977 367.274375 
L 438.447977 0 
L 0 0 
L 0 367.274375 
z
" style="fill: none"/>
  </g>
  <g id="axes_1">
   <g id="patch_2">
    <path d="M 43.78125 329.718125 
L 339.349227 329.718125 
L 339.349227 22.318125 
L 43.78125 22.318125 
z
" style="fill: #ffffff"/>
   </g>
   <g id="PathCollection_1">
    <path d="M 288.559382 236.81084 
C 289.121963 236.81084 289.661578 236.587324 290.059382 236.18952 
C 290.457187 235.791715 290.680703 235.2521 290.680703 234.68952 
C 290.680703 234.126939 290.457187 233.587324 290.059382 233.18952 
C 289.661578 232.791715 289.121963 232.568199 288.559382 232.568199 
C 287.996802 232.568199 287.457187 232.791715 287.059382 233.18952 
C 286.661578 233.587324 286.438062 234.126939 286.438062 234.68952 
C 286.438062 235.2521 286.661578 235.791715 287.059382 236.18952 
C 287.457187 236.587324 287.996802 236.81084 288.559382 236.81084 
z
" clip-path="url(#pfa6ee96b51)" style="fill: #9467bd; stroke: #ffffff; stroke-width: 0.339411"/>
    <path d="M 310.252515 236.81084 
L 311.313175 235.75018 
L 312.373836 236.81084 
L 313.434496 235.75018 
L 312.373836 234.68952 
L 313.434496 233.628859 
L 312.373836 232.568199 
L 311.313175 233.628859 
L 310.252515 232.568199 
L 309.191855 233.628859 
L 310.252515 234.68952 
L 309.191855 235.75018 
z
" clip-path="url(#pfa6ee96b51)" style="fill: #9467bd; stroke: #ffffff; stroke-width: 0.339411"/>
    <path d="M 279.611387 233.18952 
L 279.611387 236.18952 
L 282.611387 236.18952 
L 282.611387 233.18952 
z
" clip-path="url(#pfa6ee96b51)" style="fill: #9467bd; stroke: #ffffff; stroke-width: 0.339411"/>
    <path d="M 279.611387 233.18952 
L 279.611387 236.18952 
L 282.611387 236.18952 
L 282.611387 233.18952 
z
" clip-path="url(#pfa6ee96b51)" style="fill: #9467bd; stroke: #ffffff; stroke-width: 0.339411"/>
    <path d="M 288.559382 236.81084 
C 289.121963 236.81084 289.661578 236.587324 290.059382 236.18952 
C 290.457187 235.791715 290.680703 235.2521 290.680703 234.68952 
C 290.680703 234.126939 290.457187 233.587324 290.059382 233.18952 
C 289.661578 232.791715 289.121963 232.568199 288.559382 232.568199 
C 287.996802 232.568199 287.457187 232.791715 287.059382 233.18952 
C 286.661578 233.587324 286.438062 234.126939 286.438062 234.68952 
C 286.438062 235.2521 286.661578 235.791715 287.059382 236.18952 
C 287.457187 236.587324 287.996802 236.81084 288.559382 236.81084 
z
" clip-path="url(#pfa6ee96b51)" style="fill: #9467bd; stroke: #ffffff; stroke-width: 0.339411"/>
    <path d="M 310.252515 236.81084 
L 311.313175 235.75018 
L 312.373836 236.81084 
L 313.434496 235.75018 
L 312.373836 234.68952 
L 313.434496 233.628859 
L 312.373836 232.568199 
L 311.313175 233.628859 
L 310.252515 232.568199 
L 309.191855 233.628859 
L 310.252515 234.68952 
L 309.191855 235.75018 
z
" clip-path="url(#pfa6ee96b51)" style="fill: #9467bd; stroke: #ffffff; stroke-width: 0.339411"/>
    <path d="M 294.823233 236.81084 
L 296.237446 236.81084 
L 296.237446 235.396626 
L 297.65166 235.396626 
L 297.65166 233.982413 
L 296.237446 233.982413 
L 296.237446 232.568199 
L 294.823233 232.568199 
L 294.823233 233.982413 
L 293.409019 233.982413 
L 293.409019 235.396626 
L 294.823233 235.396626 
z
" clip-path="url(#pfa6ee96b51)" style="fill: #9467bd; stroke: #ffffff; stroke-width: 0.339411"/>
    <path d="M 294.823233 236.81084 
L 296.237446 236.81084 
L 296.237446 235.396626 
L 297.65166 235.396626 
L 297.65166 233.982413 
L 296.237446 233.982413 
L 296.237446 232.568199 
L 294.823233 232.568199 
L 294.823233 233.982413 
L 293.409019 233.982413 
L 293.409019 235.396626 
L 294.823233 235.396626 
z
" clip-path="url(#pfa6ee96b51)" style="fill: #9467bd; stroke: #ffffff; stroke-width: 0.339411"/>
    <path d="M 288.559382 211.491811 
C 289.684544 211.491811 290.763773 211.04478 291.559382 210.24917 
C 292.354992 209.453561 292.802023 208.374332 292.802023 207.24917 
C 292.802023 206.124009 292.354992 205.04478 291.559382 204.24917 
C 290.763773 203.453561 289.684544 203.00653 288.559382 203.00653 
C 287.434221 203.00653 286.354992 203.453561 285.559382 204.24917 
C 284.763773 205.04478 284.316742 206.124009 284.316742 207.24917 
C 284.316742 208.374332 284.763773 209.453561 285.559382 210.24917 
C 286.354992 211.04478 287.434221 211.491811 288.559382 211.491811 
z
" clip-path="url(#pfa6ee96b51)" style="fill: #9467bd; stroke: #ffffff; stroke-width: 0.339411"/>
    <path d="M 309.191855 211.491811 
L 311.313175 209.370491 
L 313.434496 211.491811 
L 315.555816 209.370491 
L 313.434496 207.24917 
L 315.555816 205.12785 
L 313.434496 203.00653 
L 311.313175 205.12785 
L 309.191855 203.00653 
L 307.070535 205.12785 
L 309.191855 207.24917 
L 307.070535 209.370491 
z
" clip-path="url(#pfa6ee96b51)" style="fill: #9467bd; stroke: #ffffff; stroke-width: 0.339411"/>
    <path d="M 278.111387 204.24917 
L 278.111387 210.24917 
L 284.111387 210.24917 
L 284.111387 204.24917 
z
" clip-path="url(#pfa6ee96b51)" style="fill: #9467bd; stroke: #ffffff; stroke-width: 0.339411"/>
    <path d="M 278.111387 204.24917 
L 278.111387 210.24917 
L 284.111387 210.24917 
L 284.111387 204.24917 
z
" clip-path="url(#pfa6ee96b51)" style="fill: #9467bd; stroke: #ffffff; stroke-width: 0.339411"/>
    <path d="M 288.559382 211.491811 
C 289.684544 211.491811 290.763773 211.04478 291.559382 210.24917 
C 292.354992 209.453561 292.802023 208.374332 292.802023 207.24917 
C 292.802023 206.124009 292.354992 205.04478 291.559382 204.24917 
C 290.763773 203.453561 289.684544 203.00653 288.559382 203.00653 
C 287.434221 203.00653 286.354992 203.453561 285.559382 204.24917 
C 284.763773 205.04478 284.316742 206.124009 284.316742 207.24917 
C 284.316742 208.374332 284.763773 209.453561 285.559382 210.24917 
C 286.354992 211.04478 287.434221 211.491811 288.559382 211.491811 
z
" clip-path="url(#pfa6ee96b51)" style="fill: #9467bd; stroke: #ffffff; stroke-width: 0.339411"/>
    <path d="M 309.191855 211.491811 
L 311.313175 209.370491 
L 313.434496 211.491811 
L 315.555816 209.370491 
L 313.434496 207.24917 
L 315.555816 205.12785 
L 313.434496 203.00653 
L 311.313175 205.12785 
L 309.191855 203.00653 
L 307.070535 205.12785 
L 309.191855 207.24917 
L 307.070535 209.370491 
z
" clip-path="url(#pfa6ee96b51)" style="fill: #9467bd; stroke: #ffffff; stroke-width: 0.339411"/>
    <path d="M 294.116126 211.491811 
L 296.944553 211.491811 
L 296.944553 208.663384 
L 299.77298 208.663384 
L 299.77298 205.834957 
L 296.944553 205.834957 
L 296.944553 203.00653 
L 294.116126 203.00653 
L 294.116126 205.834957 
L 291.287699 205.834957 
L 291.287699 208.663384 
L 294.116126 208.663384 
z
" clip-path="url(#pfa6ee96b51)" style="fill: #9467bd; stroke: #ffffff; stroke-width: 0.339411"/>
    <path d="M 294.116126 211.491811 
L 296.944553 211.491811 
L 296.944553 208.663384 
L 299.77298 208.663384 
L 299.77298 205.834957 
L 296.944553 205.834957 
L 296.944553 203.00653 
L 294.116126 203.00653 
L 294.116126 205.834957 
L 291.287699 205.834957 
L 291.287699 208.663384 
L 294.116126 208.663384 
z
" clip-path="url(#pfa6ee96b51)" style="fill: #9467bd; stroke: #ffffff; stroke-width: 0.339411"/>
    <path d="M 271.363438 317.866718 
C 271.926018 317.866718 272.465633 317.643202 272.863438 317.245398 
C 273.261242 316.847593 273.484758 316.307978 273.484758 315.745398 
C 273.484758 315.182817 273.261242 314.643202 272.863438 314.245398 
C 272.465633 313.847593 271.926018 313.624077 271.363438 313.624077 
C 270.800857 313.624077 270.261242 313.847593 269.863438 314.245398 
C 269.465633 314.643202 269.242117 315.182817 269.242117 315.745398 
C 269.242117 316.307978 269.465633 316.847593 269.863438 317.245398 
C 270.261242 317.643202 270.800857 317.866718 271.363438 317.866718 
z
" clip-path="url(#pfa6ee96b51)" style="fill: #e377c2; stroke: #ffffff; stroke-width: 0.339411"/>
    <path d="M 289.313442 317.866718 
L 290.374102 316.806058 
L 291.434763 317.866718 
L 292.495423 316.806058 
L 291.434763 315.745398 
L 292.495423 314.684738 
L 291.434763 313.624077 
L 290.374102 314.684738 
L 289.313442 313.624077 
L 288.252782 314.684738 
L 289.313442 315.745398 
L 288.252782 316.806058 
z
" clip-path="url(#pfa6ee96b51)" style="fill: #e377c2; stroke: #ffffff; stroke-width: 0.339411"/>
    <path d="M 316.300563 314.245398 
L 316.300563 317.245398 
L 319.300563 317.245398 
L 319.300563 314.245398 
z
" clip-path="url(#pfa6ee96b51)" style="fill: #e377c2; stroke: #ffffff; stroke-width: 0.339411"/>
    <path d="M 316.300563 314.245398 
L 316.300563 317.245398 
L 319.300563 317.245398 
L 319.300563 314.245398 
z
" clip-path="url(#pfa6ee96b51)" style="fill: #e377c2; stroke: #ffffff; stroke-width: 0.339411"/>
    <path d="M 271.363438 317.866718 
C 271.926018 317.866718 272.465633 317.643202 272.863438 317.245398 
C 273.261242 316.847593 273.484758 316.307978 273.484758 315.745398 
C 273.484758 315.182817 273.261242 314.643202 272.863438 314.245398 
C 272.465633 313.847593 271.926018 313.624077 271.363438 313.624077 
C 270.800857 313.624077 270.261242 313.847593 269.863438 314.245398 
C 269.465633 314.643202 269.242117 315.182817 269.242117 315.745398 
C 269.242117 316.307978 269.465633 316.847593 269.863438 317.245398 
C 270.261242 317.643202 270.800857 317.866718 271.363438 317.866718 
z
" clip-path="url(#pfa6ee96b51)" style="fill: #e377c2; stroke: #ffffff; stroke-width: 0.339411"/>
    <path d="M 289.313442 317.866718 
L 290.374102 316.806058 
L 291.434763 317.866718 
L 292.495423 316.806058 
L 291.434763 315.745398 
L 292.495423 314.684738 
L 291.434763 313.624077 
L 290.374102 314.684738 
L 289.313442 313.624077 
L 288.252782 314.684738 
L 289.313442 315.745398 
L 288.252782 316.806058 
z
" clip-path="url(#pfa6ee96b51)" style="fill: #e377c2; stroke: #ffffff; stroke-width: 0.339411"/>
    <path d="M 305.805121 317.866718 
L 307.219335 317.866718 
L 307.219335 316.452505 
L 308.633549 316.452505 
L 308.633549 315.038291 
L 307.219335 315.038291 
L 307.219335 313.624077 
L 305.805121 313.624077 
L 305.805121 315.038291 
L 304.390908 315.038291 
L 304.390908 316.452505 
L 305.805121 316.452505 
z
" clip-path="url(#pfa6ee96b51)" style="fill: #e377c2; stroke: #ffffff; stroke-width: 0.339411"/>
    <path d="M 305.805121 317.866718 
L 307.219335 317.866718 
L 307.219335 316.452505 
L 308.633549 316.452505 
L 308.633549 315.038291 
L 307.219335 315.038291 
L 307.219335 313.624077 
L 305.805121 313.624077 
L 305.805121 315.038291 
L 304.390908 315.038291 
L 304.390908 316.452505 
L 305.805121 316.452505 
z
" clip-path="url(#pfa6ee96b51)" style="fill: #e377c2; stroke: #ffffff; stroke-width: 0.339411"/>
    <path d="M 271.363438 305.2015 
C 272.488599 305.2015 273.567828 304.754468 274.363438 303.958859 
C 275.159047 303.16325 275.606078 302.084021 275.606078 300.958859 
C 275.606078 299.833698 275.159047 298.754468 274.363438 297.958859 
C 273.567828 297.16325 272.488599 296.716218 271.363438 296.716218 
C 270.238276 296.716218 269.159047 297.16325 268.363438 297.958859 
C 267.567828 298.754468 267.120797 299.833698 267.120797 300.958859 
C 267.120797 302.084021 267.567828 303.16325 268.363438 303.958859 
C 269.159047 304.754468 270.238276 305.2015 271.363438 305.2015 
z
" clip-path="url(#pfa6ee96b51)" style="fill: #e377c2; stroke: #ffffff; stroke-width: 0.339411"/>
    <path d="M 288.252782 305.2015 
L 290.374102 303.080179 
L 292.495423 305.2015 
L 294.616743 303.080179 
L 292.495423 300.958859 
L 294.616743 298.837539 
L 292.495423 296.716218 
L 290.374102 298.837539 
L 288.252782 296.716218 
L 286.131462 298.837539 
L 288.252782 300.958859 
L 286.131462 303.080179 
z
" clip-path="url(#pfa6ee96b51)" style="fill: #e377c2; stroke: #ffffff; stroke-width: 0.339411"/>
    <path d="M 314.800563 297.958859 
L 314.800563 303.958859 
L 320.800563 303.958859 
L 320.800563 297.958859 
z
" clip-path="url(#pfa6ee96b51)" style="fill: #e377c2; stroke: #ffffff; stroke-width: 0.339411"/>
    <path d="M 314.800563 297.958859 
L 314.800563 303.958859 
L 320.800563 303.958859 
L 320.800563 297.958859 
z
" clip-path="url(#pfa6ee96b51)" style="fill: #e377c2; stroke: #ffffff; stroke-width: 0.339411"/>
    <path d="M 271.363438 305.2015 
C 272.488599 305.2015 273.567828 304.754468 274.363438 303.958859 
C 275.159047 303.16325 275.606078 302.084021 275.606078 300.958859 
C 275.606078 299.833698 275.159047 298.754468 274.363438 297.958859 
C 273.567828 297.16325 272.488599 296.716218 271.363438 296.716218 
C 270.238276 296.716218 269.159047 297.16325 268.363438 297.958859 
C 267.567828 298.754468 267.120797 299.833698 267.120797 300.958859 
C 267.120797 302.084021 267.567828 303.16325 268.363438 303.958859 
C 269.159047 304.754468 270.238276 305.2015 271.363438 305.2015 
z
" clip-path="url(#pfa6ee96b51)" style="fill: #e377c2; stroke: #ffffff; stroke-width: 0.339411"/>
    <path d="M 288.252782 305.2015 
L 290.374102 303.080179 
L 292.495423 305.2015 
L 294.616743 303.080179 
L 292.495423 300.958859 
L 294.616743 298.837539 
L 292.495423 296.716218 
L 290.374102 298.837539 
L 288.252782 296.716218 
L 286.131462 298.837539 
L 288.252782 300.958859 
L 286.131462 303.080179 
z
" clip-path="url(#pfa6ee96b51)" style="fill: #e377c2; stroke: #ffffff; stroke-width: 0.339411"/>
    <path d="M 305.098015 305.2015 
L 307.926442 305.2015 
L 307.926442 302.373073 
L 310.754869 302.373073 
L 310.754869 299.544646 
L 307.926442 299.544646 
L 307.926442 296.716218 
L 305.098015 296.716218 
L 305.098015 299.544646 
L 302.269588 299.544646 
L 302.269588 302.373073 
L 305.098015 302.373073 
z
" clip-path="url(#pfa6ee96b51)" style="fill: #e377c2; stroke: #ffffff; stroke-width: 0.339411"/>
    <path d="M 305.098015 305.2015 
L 307.926442 305.2015 
L 307.926442 302.373073 
L 310.754869 302.373073 
L 310.754869 299.544646 
L 307.926442 299.544646 
L 307.926442 296.716218 
L 305.098015 296.716218 
L 305.098015 299.544646 
L 302.269588 299.544646 
L 302.269588 302.373073 
L 305.098015 302.373073 
z
" clip-path="url(#pfa6ee96b51)" style="fill: #e377c2; stroke: #ffffff; stroke-width: 0.339411"/>
    <path d="M 84.816218 38.412173 
C 85.378799 38.412173 85.918413 38.188657 86.316218 37.790852 
C 86.714022 37.393048 86.937538 36.853433 86.937538 36.290852 
C 86.937538 35.728272 86.714022 35.188657 86.316218 34.790852 
C 85.918413 34.393048 85.378799 34.169532 84.816218 34.169532 
C 84.253637 34.169532 83.714022 34.393048 83.316218 34.790852 
C 82.918413 35.188657 82.694897 35.728272 82.694897 36.290852 
C 82.694897 36.853433 82.918413 37.393048 83.316218 37.790852 
C 83.714022 38.188657 84.253637 38.412173 84.816218 38.412173 
z
" clip-path="url(#pfa6ee96b51)" style="fill: #f67f11; stroke: #ffffff; stroke-width: 0.339411"/>
    <path d="M 100.83533 38.412173 
L 101.895991 37.351512 
L 102.956651 38.412173 
L 104.017311 37.351512 
L 102.956651 36.290852 
L 104.017311 35.230192 
L 102.956651 34.169532 
L 101.895991 35.230192 
L 100.83533 34.169532 
L 99.77467 35.230192 
L 100.83533 36.290852 
L 99.77467 37.351512 
z
" clip-path="url(#pfa6ee96b51)" style="fill: #f67f11; stroke: #ffffff; stroke-width: 0.339411"/>
    <path d="M 92.229675 34.790852 
L 92.229675 37.790852 
L 95.229675 37.790852 
L 95.229675 34.790852 
z
" clip-path="url(#pfa6ee96b51)" style="fill: #f67f11; stroke: #ffffff; stroke-width: 0.339411"/>
    <path d="M 92.229675 34.790852 
L 92.229675 37.790852 
L 95.229675 37.790852 
L 95.229675 34.790852 
z
" clip-path="url(#pfa6ee96b51)" style="fill: #f67f11; stroke: #ffffff; stroke-width: 0.339411"/>
    <path d="M 84.816218 38.412173 
C 85.378799 38.412173 85.918413 38.188657 86.316218 37.790852 
C 86.714022 37.393048 86.937538 36.853433 86.937538 36.290852 
C 86.937538 35.728272 86.714022 35.188657 86.316218 34.790852 
C 85.918413 34.393048 85.378799 34.169532 84.816218 34.169532 
C 84.253637 34.169532 83.714022 34.393048 83.316218 34.790852 
C 82.918413 35.188657 82.694897 35.728272 82.694897 36.290852 
C 82.694897 36.853433 82.918413 37.393048 83.316218 37.790852 
C 83.714022 38.188657 84.253637 38.412173 84.816218 38.412173 
z
" clip-path="url(#pfa6ee96b51)" style="fill: #f67f11; stroke: #ffffff; stroke-width: 0.339411"/>
    <path d="M 100.83533 38.412173 
L 101.895991 37.351512 
L 102.956651 38.412173 
L 104.017311 37.351512 
L 102.956651 36.290852 
L 104.017311 35.230192 
L 102.956651 34.169532 
L 101.895991 35.230192 
L 100.83533 34.169532 
L 99.77467 35.230192 
L 100.83533 36.290852 
L 99.77467 37.351512 
z
" clip-path="url(#pfa6ee96b51)" style="fill: #f67f11; stroke: #ffffff; stroke-width: 0.339411"/>
    <path d="M 64.667483 38.412173 
L 66.081696 38.412173 
L 66.081696 36.997959 
L 67.49591 36.997959 
L 67.49591 35.583745 
L 66.081696 35.583745 
L 66.081696 34.169532 
L 64.667483 34.169532 
L 64.667483 35.583745 
L 63.253269 35.583745 
L 63.253269 36.997959 
L 64.667483 36.997959 
z
" clip-path="url(#pfa6ee96b51)" style="fill: #f67f11; stroke: #ffffff; stroke-width: 0.339411"/>
    <path d="M 64.667483 38.412173 
L 66.081696 38.412173 
L 66.081696 36.997959 
L 67.49591 36.997959 
L 67.49591 35.583745 
L 66.081696 35.583745 
L 66.081696 34.169532 
L 64.667483 34.169532 
L 64.667483 35.583745 
L 63.253269 35.583745 
L 63.253269 36.997959 
L 64.667483 36.997959 
z
" clip-path="url(#pfa6ee96b51)" style="fill: #f67f11; stroke: #ffffff; stroke-width: 0.339411"/>
    <path d="M 84.816218 90.132827 
C 85.941379 90.132827 87.020608 89.685796 87.816218 88.890186 
C 88.611827 88.094577 89.058858 87.015348 89.058858 85.890186 
C 89.058858 84.765025 88.611827 83.685796 87.816218 82.890186 
C 87.020608 82.094577 85.941379 81.647546 84.816218 81.647546 
C 83.691056 81.647546 82.611827 82.094577 81.816218 82.890186 
C 81.020608 83.685796 80.573577 84.765025 80.573577 85.890186 
C 80.573577 87.015348 81.020608 88.094577 81.816218 88.890186 
C 82.611827 89.685796 83.691056 90.132827 84.816218 90.132827 
z
" clip-path="url(#pfa6ee96b51)" style="fill: #f67f11; stroke: #ffffff; stroke-width: 0.339411"/>
    <path d="M 99.77467 90.132827 
L 101.895991 88.011507 
L 104.017311 90.132827 
L 106.138631 88.011507 
L 104.017311 85.890186 
L 106.138631 83.768866 
L 104.017311 81.647546 
L 101.895991 83.768866 
L 99.77467 81.647546 
L 97.65335 83.768866 
L 99.77467 85.890186 
L 97.65335 88.011507 
z
" clip-path="url(#pfa6ee96b51)" style="fill: #f67f11; stroke: #ffffff; stroke-width: 0.339411"/>
    <path d="M 90.729675 82.890186 
L 90.729675 88.890186 
L 96.729675 88.890186 
L 96.729675 82.890186 
z
" clip-path="url(#pfa6ee96b51)" style="fill: #f67f11; stroke: #ffffff; stroke-width: 0.339411"/>
    <path d="M 90.729675 82.890186 
L 90.729675 88.890186 
L 96.729675 88.890186 
L 96.729675 82.890186 
z
" clip-path="url(#pfa6ee96b51)" style="fill: #f67f11; stroke: #ffffff; stroke-width: 0.339411"/>
    <path d="M 84.816218 90.132827 
C 85.941379 90.132827 87.020608 89.685796 87.816218 88.890186 
C 88.611827 88.094577 89.058858 87.015348 89.058858 85.890186 
C 89.058858 84.765025 88.611827 83.685796 87.816218 82.890186 
C 87.020608 82.094577 85.941379 81.647546 84.816218 81.647546 
C 83.691056 81.647546 82.611827 82.094577 81.816218 82.890186 
C 81.020608 83.685796 80.573577 84.765025 80.573577 85.890186 
C 80.573577 87.015348 81.020608 88.094577 81.816218 88.890186 
C 82.611827 89.685796 83.691056 90.132827 84.816218 90.132827 
z
" clip-path="url(#pfa6ee96b51)" style="fill: #f67f11; stroke: #ffffff; stroke-width: 0.339411"/>
    <path d="M 99.77467 90.132827 
L 101.895991 88.011507 
L 104.017311 90.132827 
L 106.138631 88.011507 
L 104.017311 85.890186 
L 106.138631 83.768866 
L 104.017311 81.647546 
L 101.895991 83.768866 
L 99.77467 81.647546 
L 97.65335 83.768866 
L 99.77467 85.890186 
L 97.65335 88.011507 
z
" clip-path="url(#pfa6ee96b51)" style="fill: #f67f11; stroke: #ffffff; stroke-width: 0.339411"/>
    <path d="M 63.960376 90.132827 
L 66.788803 90.132827 
L 66.788803 87.3044 
L 69.61723 87.3044 
L 69.61723 84.475973 
L 66.788803 84.475973 
L 66.788803 81.647546 
L 63.960376 81.647546 
L 63.960376 84.475973 
L 61.131949 84.475973 
L 61.131949 87.3044 
L 63.960376 87.3044 
z
" clip-path="url(#pfa6ee96b51)" style="fill: #f67f11; stroke: #ffffff; stroke-width: 0.339411"/>
    <path d="M 63.960376 90.132827 
L 66.788803 90.132827 
L 66.788803 87.3044 
L 69.61723 87.3044 
L 69.61723 84.475973 
L 66.788803 84.475973 
L 66.788803 81.647546 
L 63.960376 81.647546 
L 63.960376 84.475973 
L 61.131949 84.475973 
L 61.131949 87.3044 
L 63.960376 87.3044 
z
" clip-path="url(#pfa6ee96b51)" style="fill: #f67f11; stroke: #ffffff; stroke-width: 0.339411"/>
    <path d="M 105.879451 135.809336 
C 106.442032 135.809336 106.981647 135.58582 107.379451 135.188015 
C 107.777256 134.790211 108.000772 134.250596 108.000772 133.688015 
C 108.000772 133.125435 107.777256 132.58582 107.379451 132.188015 
C 106.981647 131.790211 106.442032 131.566695 105.879451 131.566695 
C 105.316871 131.566695 104.777256 131.790211 104.379451 132.188015 
C 103.981647 132.58582 103.758131 133.125435 103.758131 133.688015 
C 103.758131 134.250596 103.981647 134.790211 104.379451 135.188015 
C 104.777256 135.58582 105.316871 135.809336 105.879451 135.809336 
z
" clip-path="url(#pfa6ee96b51)" style="fill: #2ea02d; stroke: #ffffff; stroke-width: 0.339411"/>
    <path d="M 92.158115 135.809336 
L 93.218775 134.748676 
L 94.279435 135.809336 
L 95.340096 134.748676 
L 94.279435 133.688015 
L 95.340096 132.627355 
L 94.279435 131.566695 
L 93.218775 132.627355 
L 92.158115 131.566695 
L 91.097455 132.627355 
L 92.158115 133.688015 
L 91.097455 134.748676 
z
" clip-path="url(#pfa6ee96b51)" style="fill: #2ea02d; stroke: #ffffff; stroke-width: 0.339411"/>
    <path d="M 96.827208 132.188015 
L 96.827208 135.188015 
L 99.827208 135.188015 
L 99.827208 132.188015 
z
" clip-path="url(#pfa6ee96b51)" style="fill: #2ea02d; stroke: #ffffff; stroke-width: 0.339411"/>
    <path d="M 96.827208 132.188015 
L 96.827208 135.188015 
L 99.827208 135.188015 
L 99.827208 132.188015 
z
" clip-path="url(#pfa6ee96b51)" style="fill: #2ea02d; stroke: #ffffff; stroke-width: 0.339411"/>
    <path d="M 105.879451 135.809336 
C 106.442032 135.809336 106.981647 135.58582 107.379451 135.188015 
C 107.777256 134.790211 108.000772 134.250596 108.000772 133.688015 
C 108.000772 133.125435 107.777256 132.58582 107.379451 132.188015 
C 106.981647 131.790211 106.442032 131.566695 105.879451 131.566695 
C 105.316871 131.566695 104.777256 131.790211 104.379451 132.188015 
C 103.981647 132.58582 103.758131 133.125435 103.758131 133.688015 
C 103.758131 134.250596 103.981647 134.790211 104.379451 135.188015 
C 104.777256 135.58582 105.316871 135.809336 105.879451 135.809336 
z
" clip-path="url(#pfa6ee96b51)" style="fill: #2ea02d; stroke: #ffffff; stroke-width: 0.339411"/>
    <path d="M 92.158115 135.809336 
L 93.218775 134.748676 
L 94.279435 135.809336 
L 95.340096 134.748676 
L 94.279435 133.688015 
L 95.340096 132.627355 
L 94.279435 131.566695 
L 93.218775 132.627355 
L 92.158115 131.566695 
L 91.097455 132.627355 
L 92.158115 133.688015 
L 91.097455 134.748676 
z
" clip-path="url(#pfa6ee96b51)" style="fill: #2ea02d; stroke: #ffffff; stroke-width: 0.339411"/>
    <path d="M 64.26756 135.809336 
L 65.681773 135.809336 
L 65.681773 134.395122 
L 67.095987 134.395122 
L 67.095987 132.980909 
L 65.681773 132.980909 
L 65.681773 131.566695 
L 64.26756 131.566695 
L 64.26756 132.980909 
L 62.853346 132.980909 
L 62.853346 134.395122 
L 64.26756 134.395122 
z
" clip-path="url(#pfa6ee96b51)" style="fill: #2ea02d; stroke: #ffffff; stroke-width: 0.339411"/>
    <path d="M 64.26756 135.809336 
L 65.681773 135.809336 
L 65.681773 134.395122 
L 67.095987 134.395122 
L 67.095987 132.980909 
L 65.681773 132.980909 
L 65.681773 131.566695 
L 64.26756 131.566695 
L 64.26756 132.980909 
L 62.853346 132.980909 
L 62.853346 134.395122 
L 64.26756 134.395122 
z
" clip-path="url(#pfa6ee96b51)" style="fill: #2ea02d; stroke: #ffffff; stroke-width: 0.339411"/>
    <path d="M 75.336863 67.969859 
C 75.899444 67.969859 76.439059 67.746343 76.836863 67.348539 
C 77.234668 66.950734 77.458184 66.411119 77.458184 65.848539 
C 77.458184 65.285958 77.234668 64.746343 76.836863 64.348539 
C 76.439059 63.950734 75.899444 63.727218 75.336863 63.727218 
C 74.774283 63.727218 74.234668 63.950734 73.836863 64.348539 
C 73.439059 64.746343 73.215543 65.285958 73.215543 65.848539 
C 73.215543 66.411119 73.439059 66.950734 73.836863 67.348539 
C 74.234668 67.746343 74.774283 67.969859 75.336863 67.969859 
z
" clip-path="url(#pfa6ee96b51)" style="fill: #2777b4; stroke: #ffffff; stroke-width: 0.339411"/>
    <path d="M 93.480861 67.969859 
L 94.541521 66.909199 
L 95.602182 67.969859 
L 96.662842 66.909199 
L 95.602182 65.848539 
L 96.662842 64.787879 
L 95.602182 63.727218 
L 94.541521 64.787879 
L 93.480861 63.727218 
L 92.420201 64.787879 
L 93.480861 65.848539 
L 92.420201 66.909199 
z
" clip-path="url(#pfa6ee96b51)" style="fill: #2777b4; stroke: #ffffff; stroke-width: 0.339411"/>
    <path d="M 89.840676 64.348539 
L 89.840676 67.348539 
L 92.840676 67.348539 
L 92.840676 64.348539 
z
" clip-path="url(#pfa6ee96b51)" style="fill: #2777b4; stroke: #ffffff; stroke-width: 0.339411"/>
    <path d="M 89.840676 64.348539 
L 89.840676 67.348539 
L 92.840676 67.348539 
L 92.840676 64.348539 
z
" clip-path="url(#pfa6ee96b51)" style="fill: #2777b4; stroke: #ffffff; stroke-width: 0.339411"/>
    <path d="M 75.336863 67.969859 
C 75.899444 67.969859 76.439059 67.746343 76.836863 67.348539 
C 77.234668 66.950734 77.458184 66.411119 77.458184 65.848539 
C 77.458184 65.285958 77.234668 64.746343 76.836863 64.348539 
C 76.439059 63.950734 75.899444 63.727218 75.336863 63.727218 
C 74.774283 63.727218 74.234668 63.950734 73.836863 64.348539 
C 73.439059 64.746343 73.215543 65.285958 73.215543 65.848539 
C 73.215543 66.411119 73.439059 66.950734 73.836863 67.348539 
C 74.234668 67.746343 74.774283 67.969859 75.336863 67.969859 
z
" clip-path="url(#pfa6ee96b51)" style="fill: #2777b4; stroke: #ffffff; stroke-width: 0.339411"/>
    <path d="M 93.480861 67.969859 
L 94.541521 66.909199 
L 95.602182 67.969859 
L 96.662842 66.909199 
L 95.602182 65.848539 
L 96.662842 64.787879 
L 95.602182 63.727218 
L 94.541521 64.787879 
L 93.480861 63.727218 
L 92.420201 64.787879 
L 93.480861 65.848539 
L 92.420201 66.909199 
z
" clip-path="url(#pfa6ee96b51)" style="fill: #2777b4; stroke: #ffffff; stroke-width: 0.339411"/>
    <path d="M 56.509051 67.969859 
L 57.923265 67.969859 
L 57.923265 66.555645 
L 59.337478 66.555645 
L 59.337478 65.141432 
L 57.923265 65.141432 
L 57.923265 63.727218 
L 56.509051 63.727218 
L 56.509051 65.141432 
L 55.094838 65.141432 
L 55.094838 66.555645 
L 56.509051 66.555645 
z
" clip-path="url(#pfa6ee96b51)" style="fill: #2777b4; stroke: #ffffff; stroke-width: 0.339411"/>
    <path d="M 56.509051 67.969859 
L 57.923265 67.969859 
L 57.923265 66.555645 
L 59.337478 66.555645 
L 59.337478 65.141432 
L 57.923265 65.141432 
L 57.923265 63.727218 
L 56.509051 63.727218 
L 56.509051 65.141432 
L 55.094838 65.141432 
L 55.094838 66.555645 
L 56.509051 66.555645 
z
" clip-path="url(#pfa6ee96b51)" style="fill: #2777b4; stroke: #ffffff; stroke-width: 0.339411"/>
    <path d="M 75.336863 111.984387 
C 76.462025 111.984387 77.541254 111.537356 78.336863 110.741746 
C 79.132473 109.946137 79.579504 108.866908 79.579504 107.741746 
C 79.579504 106.616585 79.132473 105.537356 78.336863 104.741746 
C 77.541254 103.946137 76.462025 103.499106 75.336863 103.499106 
C 74.211702 103.499106 73.132473 103.946137 72.336863 104.741746 
C 71.541254 105.537356 71.094223 106.616585 71.094223 107.741746 
C 71.094223 108.866908 71.541254 109.946137 72.336863 110.741746 
C 73.132473 111.537356 74.211702 111.984387 75.336863 111.984387 
z
" clip-path="url(#pfa6ee96b51)" style="fill: #2777b4; stroke: #ffffff; stroke-width: 0.339411"/>
    <path d="M 92.420201 111.984387 
L 94.541521 109.863067 
L 96.662842 111.984387 
L 98.784162 109.863067 
L 96.662842 107.741746 
L 98.784162 105.620426 
L 96.662842 103.499106 
L 94.541521 105.620426 
L 92.420201 103.499106 
L 90.298881 105.620426 
L 92.420201 107.741746 
L 90.298881 109.863067 
z
" clip-path="url(#pfa6ee96b51)" style="fill: #2777b4; stroke: #ffffff; stroke-width: 0.339411"/>
    <path d="M 88.340676 104.741746 
L 88.340676 110.741746 
L 94.340676 110.741746 
L 94.340676 104.741746 
z
" clip-path="url(#pfa6ee96b51)" style="fill: #2777b4; stroke: #ffffff; stroke-width: 0.339411"/>
    <path d="M 88.340676 104.741746 
L 88.340676 110.741746 
L 94.340676 110.741746 
L 94.340676 104.741746 
z
" clip-path="url(#pfa6ee96b51)" style="fill: #2777b4; stroke: #ffffff; stroke-width: 0.339411"/>
    <path d="M 75.336863 111.984387 
C 76.462025 111.984387 77.541254 111.537356 78.336863 110.741746 
C 79.132473 109.946137 79.579504 108.866908 79.579504 107.741746 
C 79.579504 106.616585 79.132473 105.537356 78.336863 104.741746 
C 77.541254 103.946137 76.462025 103.499106 75.336863 103.499106 
C 74.211702 103.499106 73.132473 103.946137 72.336863 104.741746 
C 71.541254 105.537356 71.094223 106.616585 71.094223 107.741746 
C 71.094223 108.866908 71.541254 109.946137 72.336863 110.741746 
C 73.132473 111.537356 74.211702 111.984387 75.336863 111.984387 
z
" clip-path="url(#pfa6ee96b51)" style="fill: #2777b4; stroke: #ffffff; stroke-width: 0.339411"/>
    <path d="M 92.420201 111.984387 
L 94.541521 109.863067 
L 96.662842 111.984387 
L 98.784162 109.863067 
L 96.662842 107.741746 
L 98.784162 105.620426 
L 96.662842 103.499106 
L 94.541521 105.620426 
L 92.420201 103.499106 
L 90.298881 105.620426 
L 92.420201 107.741746 
L 90.298881 109.863067 
z
" clip-path="url(#pfa6ee96b51)" style="fill: #2777b4; stroke: #ffffff; stroke-width: 0.339411"/>
    <path d="M 55.801945 111.984387 
L 58.630372 111.984387 
L 58.630372 109.15596 
L 61.458799 109.15596 
L 61.458799 106.327533 
L 58.630372 106.327533 
L 58.630372 103.499106 
L 55.801945 103.499106 
L 55.801945 106.327533 
L 52.973517 106.327533 
L 52.973517 109.15596 
L 55.801945 109.15596 
z
" clip-path="url(#pfa6ee96b51)" style="fill: #2777b4; stroke: #ffffff; stroke-width: 0.339411"/>
    <path d="M 55.801945 111.984387 
L 58.630372 111.984387 
L 58.630372 109.15596 
L 61.458799 109.15596 
L 61.458799 106.327533 
L 58.630372 106.327533 
L 58.630372 103.499106 
L 55.801945 103.499106 
L 55.801945 106.327533 
L 52.973517 106.327533 
L 52.973517 109.15596 
L 55.801945 109.15596 
z
" clip-path="url(#pfa6ee96b51)" style="fill: #2777b4; stroke: #ffffff; stroke-width: 0.339411"/>
    <path d="M 304.220403 282.589696 
C 304.782984 282.589696 305.322598 282.366181 305.720403 281.968376 
C 306.118208 281.570571 306.341723 281.030957 306.341723 280.468376 
C 306.341723 279.905795 306.118208 279.366181 305.720403 278.968376 
C 305.322598 278.570571 304.782984 278.347056 304.220403 278.347056 
C 303.657822 278.347056 303.118208 278.570571 302.720403 278.968376 
C 302.322598 279.366181 302.099083 279.905795 302.099083 280.468376 
C 302.099083 281.030957 302.322598 281.570571 302.720403 281.968376 
C 303.118208 282.366181 303.657822 282.589696 304.220403 282.589696 
z
" clip-path="url(#pfa6ee96b51)" style="fill: #7f7f7f; stroke: #ffffff; stroke-width: 0.339411"/>
    <path d="M 315.120221 282.589696 
L 316.180882 281.529036 
L 317.241542 282.589696 
L 318.302202 281.529036 
L 317.241542 280.468376 
L 318.302202 279.407716 
L 317.241542 278.347056 
L 316.180882 279.407716 
L 315.120221 278.347056 
L 314.059561 279.407716 
L 315.120221 280.468376 
L 314.059561 281.529036 
z
" clip-path="url(#pfa6ee96b51)" style="fill: #7f7f7f; stroke: #ffffff; stroke-width: 0.339411"/>
    <path d="M 285.761892 278.968376 
L 285.761892 281.968376 
L 288.761892 281.968376 
L 288.761892 278.968376 
z
" clip-path="url(#pfa6ee96b51)" style="fill: #7f7f7f; stroke: #ffffff; stroke-width: 0.339411"/>
    <path d="M 285.761892 278.968376 
L 285.761892 281.968376 
L 288.761892 281.968376 
L 288.761892 278.968376 
z
" clip-path="url(#pfa6ee96b51)" style="fill: #7f7f7f; stroke: #ffffff; stroke-width: 0.339411"/>
    <path d="M 304.220403 282.589696 
C 304.782984 282.589696 305.322598 282.366181 305.720403 281.968376 
C 306.118208 281.570571 306.341723 281.030957 306.341723 280.468376 
C 306.341723 279.905795 306.118208 279.366181 305.720403 278.968376 
C 305.322598 278.570571 304.782984 278.347056 304.220403 278.347056 
C 303.657822 278.347056 303.118208 278.570571 302.720403 278.968376 
C 302.322598 279.366181 302.099083 279.905795 302.099083 280.468376 
C 302.099083 281.030957 302.322598 281.570571 302.720403 281.968376 
C 303.118208 282.366181 303.657822 282.589696 304.220403 282.589696 
z
" clip-path="url(#pfa6ee96b51)" style="fill: #7f7f7f; stroke: #ffffff; stroke-width: 0.339411"/>
    <path d="M 315.120221 282.589696 
L 316.180882 281.529036 
L 317.241542 282.589696 
L 318.302202 281.529036 
L 317.241542 280.468376 
L 318.302202 279.407716 
L 317.241542 278.347056 
L 316.180882 279.407716 
L 315.120221 278.347056 
L 314.059561 279.407716 
L 315.120221 280.468376 
L 314.059561 281.529036 
z
" clip-path="url(#pfa6ee96b51)" style="fill: #7f7f7f; stroke: #ffffff; stroke-width: 0.339411"/>
    <path d="M 283.425424 282.589696 
L 284.839638 282.589696 
L 284.839638 281.175483 
L 286.253851 281.175483 
L 286.253851 279.761269 
L 284.839638 279.761269 
L 284.839638 278.347056 
L 283.425424 278.347056 
L 283.425424 279.761269 
L 282.011211 279.761269 
L 282.011211 281.175483 
L 283.425424 281.175483 
z
" clip-path="url(#pfa6ee96b51)" style="fill: #7f7f7f; stroke: #ffffff; stroke-width: 0.339411"/>
    <path d="M 283.425424 282.589696 
L 284.839638 282.589696 
L 284.839638 281.175483 
L 286.253851 281.175483 
L 286.253851 279.761269 
L 284.839638 279.761269 
L 284.839638 278.347056 
L 283.425424 278.347056 
L 283.425424 279.761269 
L 282.011211 279.761269 
L 282.011211 281.175483 
L 283.425424 281.175483 
z
" clip-path="url(#pfa6ee96b51)" style="fill: #7f7f7f; stroke: #ffffff; stroke-width: 0.339411"/>
    <path d="M 304.220403 258.534158 
C 305.345565 258.534158 306.424794 258.087127 307.220403 257.291518 
C 308.016012 256.495908 308.463044 255.416679 308.463044 254.291518 
C 308.463044 253.166356 308.016012 252.087127 307.220403 251.291518 
C 306.424794 250.495908 305.345565 250.048877 304.220403 250.048877 
C 303.095242 250.048877 302.016012 250.495908 301.220403 251.291518 
C 300.424794 252.087127 299.977762 253.166356 299.977762 254.291518 
C 299.977762 255.416679 300.424794 256.495908 301.220403 257.291518 
C 302.016012 258.087127 303.095242 258.534158 304.220403 258.534158 
z
" clip-path="url(#pfa6ee96b51)" style="fill: #7f7f7f; stroke: #ffffff; stroke-width: 0.339411"/>
    <path d="M 314.059561 258.534158 
L 316.180882 256.412838 
L 318.302202 258.534158 
L 320.423522 256.412838 
L 318.302202 254.291518 
L 320.423522 252.170197 
L 318.302202 250.048877 
L 316.180882 252.170197 
L 314.059561 250.048877 
L 311.938241 252.170197 
L 314.059561 254.291518 
L 311.938241 256.412838 
z
" clip-path="url(#pfa6ee96b51)" style="fill: #7f7f7f; stroke: #ffffff; stroke-width: 0.339411"/>
    <path d="M 284.261892 251.291518 
L 284.261892 257.291518 
L 290.261892 257.291518 
L 290.261892 251.291518 
z
" clip-path="url(#pfa6ee96b51)" style="fill: #7f7f7f; stroke: #ffffff; stroke-width: 0.339411"/>
    <path d="M 284.261892 251.291518 
L 284.261892 257.291518 
L 290.261892 257.291518 
L 290.261892 251.291518 
z
" clip-path="url(#pfa6ee96b51)" style="fill: #7f7f7f; stroke: #ffffff; stroke-width: 0.339411"/>
    <path d="M 304.220403 258.534158 
C 305.345565 258.534158 306.424794 258.087127 307.220403 257.291518 
C 308.016012 256.495908 308.463044 255.416679 308.463044 254.291518 
C 308.463044 253.166356 308.016012 252.087127 307.220403 251.291518 
C 306.424794 250.495908 305.345565 250.048877 304.220403 250.048877 
C 303.095242 250.048877 302.016012 250.495908 301.220403 251.291518 
C 300.424794 252.087127 299.977762 253.166356 299.977762 254.291518 
C 299.977762 255.416679 300.424794 256.495908 301.220403 257.291518 
C 302.016012 258.087127 303.095242 258.534158 304.220403 258.534158 
z
" clip-path="url(#pfa6ee96b51)" style="fill: #7f7f7f; stroke: #ffffff; stroke-width: 0.339411"/>
    <path d="M 314.059561 258.534158 
L 316.180882 256.412838 
L 318.302202 258.534158 
L 320.423522 256.412838 
L 318.302202 254.291518 
L 320.423522 252.170197 
L 318.302202 250.048877 
L 316.180882 252.170197 
L 314.059561 250.048877 
L 311.938241 252.170197 
L 314.059561 254.291518 
L 311.938241 256.412838 
z
" clip-path="url(#pfa6ee96b51)" style="fill: #7f7f7f; stroke: #ffffff; stroke-width: 0.339411"/>
    <path d="M 282.718317 258.534158 
L 285.546745 258.534158 
L 285.546745 255.705731 
L 288.375172 255.705731 
L 288.375172 252.877304 
L 285.546745 252.877304 
L 285.546745 250.048877 
L 282.718317 250.048877 
L 282.718317 252.877304 
L 279.88989 252.877304 
L 279.88989 255.705731 
L 282.718317 255.705731 
z
" clip-path="url(#pfa6ee96b51)" style="fill: #7f7f7f; stroke: #ffffff; stroke-width: 0.339411"/>
    <path d="M 282.718317 258.534158 
L 285.546745 258.534158 
L 285.546745 255.705731 
L 288.375172 255.705731 
L 288.375172 252.877304 
L 285.546745 252.877304 
L 285.546745 250.048877 
L 282.718317 250.048877 
L 282.718317 252.877304 
L 279.88989 252.877304 
L 279.88989 255.705731 
L 282.718317 255.705731 
z
" clip-path="url(#pfa6ee96b51)" style="fill: #7f7f7f; stroke: #ffffff; stroke-width: 0.339411"/>
    <path d="M 324.414319 290.39237 
L 324.414319 293.39237 
L 327.414319 293.39237 
L 327.414319 290.39237 
z
" clip-path="url(#pfa6ee96b51)" style="fill: #3ebecf; stroke: #ffffff; stroke-width: 0.339411"/>
    <path d="M 324.414319 290.39237 
L 324.414319 293.39237 
L 327.414319 293.39237 
L 327.414319 290.39237 
z
" clip-path="url(#pfa6ee96b51)" style="fill: #3ebecf; stroke: #ffffff; stroke-width: 0.339411"/>
    <path d="M 322.914319 281.208963 
L 322.914319 287.208963 
L 328.914319 287.208963 
L 328.914319 281.208963 
z
" clip-path="url(#pfa6ee96b51)" style="fill: #3ebecf; stroke: #ffffff; stroke-width: 0.339411"/>
    <path d="M 322.914319 281.208963 
L 322.914319 287.208963 
L 328.914319 287.208963 
L 328.914319 281.208963 
z
" clip-path="url(#pfa6ee96b51)" style="fill: #3ebecf; stroke: #ffffff; stroke-width: 0.339411"/>
    <path d="M 282.576449 267.313492 
C 283.13903 267.313492 283.678645 267.089976 284.076449 266.692172 
C 284.474254 266.294367 284.69777 265.754753 284.69777 265.192172 
C 284.69777 264.629591 284.474254 264.089976 284.076449 263.692172 
C 283.678645 263.294367 283.13903 263.070851 282.576449 263.070851 
C 282.013869 263.070851 281.474254 263.294367 281.076449 263.692172 
C 280.678645 264.089976 280.455129 264.629591 280.455129 265.192172 
C 280.455129 265.754753 280.678645 266.294367 281.076449 266.692172 
C 281.474254 267.089976 282.013869 267.313492 282.576449 267.313492 
z
" clip-path="url(#pfa6ee96b51)" style="fill: #bcbd22; stroke: #ffffff; stroke-width: 0.339411"/>
    <path d="M 312.718928 267.313492 
L 313.779588 266.252832 
L 314.840249 267.313492 
L 315.900909 266.252832 
L 314.840249 265.192172 
L 315.900909 264.131512 
L 314.840249 263.070851 
L 313.779588 264.131512 
L 312.718928 263.070851 
L 311.658268 264.131512 
L 312.718928 265.192172 
L 311.658268 266.252832 
z
" clip-path="url(#pfa6ee96b51)" style="fill: #bcbd22; stroke: #ffffff; stroke-width: 0.339411"/>
    <path d="M 292.669241 263.692172 
L 292.669241 266.692172 
L 295.669241 266.692172 
L 295.669241 263.692172 
z
" clip-path="url(#pfa6ee96b51)" style="fill: #bcbd22; stroke: #ffffff; stroke-width: 0.339411"/>
    <path d="M 292.669241 263.692172 
L 292.669241 266.692172 
L 295.669241 266.692172 
L 295.669241 263.692172 
z
" clip-path="url(#pfa6ee96b51)" style="fill: #bcbd22; stroke: #ffffff; stroke-width: 0.339411"/>
    <path d="M 282.576449 267.313492 
C 283.13903 267.313492 283.678645 267.089976 284.076449 266.692172 
C 284.474254 266.294367 284.69777 265.754753 284.69777 265.192172 
C 284.69777 264.629591 284.474254 264.089976 284.076449 263.692172 
C 283.678645 263.294367 283.13903 263.070851 282.576449 263.070851 
C 282.013869 263.070851 281.474254 263.294367 281.076449 263.692172 
C 280.678645 264.089976 280.455129 264.629591 280.455129 265.192172 
C 280.455129 265.754753 280.678645 266.294367 281.076449 266.692172 
C 281.474254 267.089976 282.013869 267.313492 282.576449 267.313492 
z
" clip-path="url(#pfa6ee96b51)" style="fill: #bcbd22; stroke: #ffffff; stroke-width: 0.339411"/>
    <path d="M 312.718928 267.313492 
L 313.779588 266.252832 
L 314.840249 267.313492 
L 315.900909 266.252832 
L 314.840249 265.192172 
L 315.900909 264.131512 
L 314.840249 263.070851 
L 313.779588 264.131512 
L 312.718928 263.070851 
L 311.658268 264.131512 
L 312.718928 265.192172 
L 311.658268 266.252832 
z
" clip-path="url(#pfa6ee96b51)" style="fill: #bcbd22; stroke: #ffffff; stroke-width: 0.339411"/>
    <path d="M 282.045689 267.313492 
L 283.459903 267.313492 
L 283.459903 265.899279 
L 284.874117 265.899279 
L 284.874117 264.485065 
L 283.459903 264.485065 
L 283.459903 263.070851 
L 282.045689 263.070851 
L 282.045689 264.485065 
L 280.631476 264.485065 
L 280.631476 265.899279 
L 282.045689 265.899279 
z
" clip-path="url(#pfa6ee96b51)" style="fill: #bcbd22; stroke: #ffffff; stroke-width: 0.339411"/>
    <path d="M 282.045689 267.313492 
L 283.459903 267.313492 
L 283.459903 265.899279 
L 284.874117 265.899279 
L 284.874117 264.485065 
L 283.459903 264.485065 
L 283.459903 263.070851 
L 282.045689 263.070851 
L 282.045689 264.485065 
L 280.631476 264.485065 
L 280.631476 265.899279 
L 282.045689 265.899279 
z
" clip-path="url(#pfa6ee96b51)" style="fill: #bcbd22; stroke: #ffffff; stroke-width: 0.339411"/>
    <path d="M 282.576449 288.063234 
C 283.701611 288.063234 284.78084 287.616203 285.576449 286.820593 
C 286.372059 286.024984 286.81909 284.945755 286.81909 283.820593 
C 286.81909 282.695432 286.372059 281.616203 285.576449 280.820593 
C 284.78084 280.024984 283.701611 279.577953 282.576449 279.577953 
C 281.451288 279.577953 280.372059 280.024984 279.576449 280.820593 
C 278.78084 281.616203 278.333809 282.695432 278.333809 283.820593 
C 278.333809 284.945755 278.78084 286.024984 279.576449 286.820593 
C 280.372059 287.616203 281.451288 288.063234 282.576449 288.063234 
z
" clip-path="url(#pfa6ee96b51)" style="fill: #bcbd22; stroke: #ffffff; stroke-width: 0.339411"/>
    <path d="M 311.658268 288.063234 
L 313.779588 285.941914 
L 315.900909 288.063234 
L 318.022229 285.941914 
L 315.900909 283.820593 
L 318.022229 281.699273 
L 315.900909 279.577953 
L 313.779588 281.699273 
L 311.658268 279.577953 
L 309.536948 281.699273 
L 311.658268 283.820593 
L 309.536948 285.941914 
z
" clip-path="url(#pfa6ee96b51)" style="fill: #bcbd22; stroke: #ffffff; stroke-width: 0.339411"/>
    <path d="M 291.169241 280.820593 
L 291.169241 286.820593 
L 297.169241 286.820593 
L 297.169241 280.820593 
z
" clip-path="url(#pfa6ee96b51)" style="fill: #bcbd22; stroke: #ffffff; stroke-width: 0.339411"/>
    <path d="M 291.169241 280.820593 
L 291.169241 286.820593 
L 297.169241 286.820593 
L 297.169241 280.820593 
z
" clip-path="url(#pfa6ee96b51)" style="fill: #bcbd22; stroke: #ffffff; stroke-width: 0.339411"/>
    <path d="M 282.576449 288.063234 
C 283.701611 288.063234 284.78084 287.616203 285.576449 286.820593 
C 286.372059 286.024984 286.81909 284.945755 286.81909 283.820593 
C 286.81909 282.695432 286.372059 281.616203 285.576449 280.820593 
C 284.78084 280.024984 283.701611 279.577953 282.576449 279.577953 
C 281.451288 279.577953 280.372059 280.024984 279.576449 280.820593 
C 278.78084 281.616203 278.333809 282.695432 278.333809 283.820593 
C 278.333809 284.945755 278.78084 286.024984 279.576449 286.820593 
C 280.372059 287.616203 281.451288 288.063234 282.576449 288.063234 
z
" clip-path="url(#pfa6ee96b51)" style="fill: #bcbd22; stroke: #ffffff; stroke-width: 0.339411"/>
    <path d="M 311.658268 288.063234 
L 313.779588 285.941914 
L 315.900909 288.063234 
L 318.022229 285.941914 
L 315.900909 283.820593 
L 318.022229 281.699273 
L 315.900909 279.577953 
L 313.779588 281.699273 
L 311.658268 279.577953 
L 309.536948 281.699273 
L 311.658268 283.820593 
L 309.536948 285.941914 
z
" clip-path="url(#pfa6ee96b51)" style="fill: #bcbd22; stroke: #ffffff; stroke-width: 0.339411"/>
    <path d="M 281.338583 288.063234 
L 284.16701 288.063234 
L 284.16701 285.234807 
L 286.995437 285.234807 
L 286.995437 282.40638 
L 284.16701 282.40638 
L 284.16701 279.577953 
L 281.338583 279.577953 
L 281.338583 282.40638 
L 278.510156 282.40638 
L 278.510156 285.234807 
L 281.338583 285.234807 
z
" clip-path="url(#pfa6ee96b51)" style="fill: #bcbd22; stroke: #ffffff; stroke-width: 0.339411"/>
    <path d="M 281.338583 288.063234 
L 284.16701 288.063234 
L 284.16701 285.234807 
L 286.995437 285.234807 
L 286.995437 282.40638 
L 284.16701 282.40638 
L 284.16701 279.577953 
L 281.338583 279.577953 
L 281.338583 282.40638 
L 278.510156 282.40638 
L 278.510156 285.234807 
L 281.338583 285.234807 
z
" clip-path="url(#pfa6ee96b51)" style="fill: #bcbd22; stroke: #ffffff; stroke-width: 0.339411"/>
    <path d="M 226.574837 253.322823 
C 227.137418 253.322823 227.677032 253.099307 228.074837 252.701502 
C 228.472642 252.303698 228.696157 251.764083 228.696157 251.201502 
C 228.696157 250.638922 228.472642 250.099307 228.074837 249.701502 
C 227.677032 249.303698 227.137418 249.080182 226.574837 249.080182 
C 226.012256 249.080182 225.472642 249.303698 225.074837 249.701502 
C 224.677032 250.099307 224.453517 250.638922 224.453517 251.201502 
C 224.453517 251.764083 224.677032 252.303698 225.074837 252.701502 
C 225.472642 253.099307 226.012256 253.322823 226.574837 253.322823 
z
" clip-path="url(#pfa6ee96b51)" style="fill: #8c564b; stroke: #ffffff; stroke-width: 0.339411"/>
    <path d="M 197.237076 253.322823 
L 198.297737 252.262162 
L 199.358397 253.322823 
L 200.419057 252.262162 
L 199.358397 251.201502 
L 200.419057 250.140842 
L 199.358397 249.080182 
L 198.297737 250.140842 
L 197.237076 249.080182 
L 196.176416 250.140842 
L 197.237076 251.201502 
L 196.176416 252.262162 
z
" clip-path="url(#pfa6ee96b51)" style="fill: #8c564b; stroke: #ffffff; stroke-width: 0.339411"/>
    <path d="M 157.337868 249.701502 
L 157.337868 252.701502 
L 160.337868 252.701502 
L 160.337868 249.701502 
z
" clip-path="url(#pfa6ee96b51)" style="fill: #8c564b; stroke: #ffffff; stroke-width: 0.339411"/>
    <path d="M 157.337868 249.701502 
L 157.337868 252.701502 
L 160.337868 252.701502 
L 160.337868 249.701502 
z
" clip-path="url(#pfa6ee96b51)" style="fill: #8c564b; stroke: #ffffff; stroke-width: 0.339411"/>
    <path d="M 226.574837 253.322823 
C 227.137418 253.322823 227.677032 253.099307 228.074837 252.701502 
C 228.472642 252.303698 228.696157 251.764083 228.696157 251.201502 
C 228.696157 250.638922 228.472642 250.099307 228.074837 249.701502 
C 227.677032 249.303698 227.137418 249.080182 226.574837 249.080182 
C 226.012256 249.080182 225.472642 249.303698 225.074837 249.701502 
C 224.677032 250.099307 224.453517 250.638922 224.453517 251.201502 
C 224.453517 251.764083 224.677032 252.303698 225.074837 252.701502 
C 225.472642 253.099307 226.012256 253.322823 226.574837 253.322823 
z
" clip-path="url(#pfa6ee96b51)" style="fill: #8c564b; stroke: #ffffff; stroke-width: 0.339411"/>
    <path d="M 197.237076 253.322823 
L 198.297737 252.262162 
L 199.358397 253.322823 
L 200.419057 252.262162 
L 199.358397 251.201502 
L 200.419057 250.140842 
L 199.358397 249.080182 
L 198.297737 250.140842 
L 197.237076 249.080182 
L 196.176416 250.140842 
L 197.237076 251.201502 
L 196.176416 252.262162 
z
" clip-path="url(#pfa6ee96b51)" style="fill: #8c564b; stroke: #ffffff; stroke-width: 0.339411"/>
    <path d="M 264.438598 253.322823 
L 265.852812 253.322823 
L 265.852812 251.908609 
L 267.267026 251.908609 
L 267.267026 250.494396 
L 265.852812 250.494396 
L 265.852812 249.080182 
L 264.438598 249.080182 
L 264.438598 250.494396 
L 263.024385 250.494396 
L 263.024385 251.908609 
L 264.438598 251.908609 
z
" clip-path="url(#pfa6ee96b51)" style="fill: #8c564b; stroke: #ffffff; stroke-width: 0.339411"/>
    <path d="M 264.438598 253.322823 
L 265.852812 253.322823 
L 265.852812 251.908609 
L 267.267026 251.908609 
L 267.267026 250.494396 
L 265.852812 250.494396 
L 265.852812 249.080182 
L 264.438598 249.080182 
L 264.438598 250.494396 
L 263.024385 250.494396 
L 263.024385 251.908609 
L 264.438598 251.908609 
z
" clip-path="url(#pfa6ee96b51)" style="fill: #8c564b; stroke: #ffffff; stroke-width: 0.339411"/>
   </g>
   <g id="PathCollection_2"/>
   <g id="PathCollection_3"/>
   <g id="PathCollection_4"/>
   <g id="PathCollection_5"/>
   <g id="PathCollection_6"/>
   <g id="PathCollection_7"/>
   <g id="PathCollection_8"/>
   <g id="PathCollection_9"/>
   <g id="PathCollection_10"/>
   <g id="PathCollection_11"/>
   <g id="PathCollection_12"/>
   <g id="PathCollection_13"/>
   <g id="PathCollection_14"/>
   <g id="PathCollection_15"/>
   <g id="PathCollection_16"/>
   <g id="matplotlib.axis_1">
    <g id="xtick_1">
     <g id="line2d_1">
      <defs>
       <path id="m233fc1c60d" d="M 0 0 
L 0 3.5 
" style="stroke: #000000; stroke-width: 0.8"/>
      </defs>
      <g>
       <use xlink:href="#m233fc1c60d" x="68.340716" y="329.718125" style="stroke: #000000; stroke-width: 0.8"/>
      </g>
     </g>
     <g id="text_1">
      <!-- 0.75 -->
      <g transform="translate(53.01806 344.316562)scale(0.1 -0.1)">
       <defs>
        <path id="DejaVuSans-2212" d="M 678 2272 
L 4684 2272 
L 4684 1741 
L 678 1741 
L 678 2272 
z
" transform="scale(0.015625)"/>
        <path id="DejaVuSans-30" d="M 2034 4250 
Q 1547 4250 1301 3770 
Q 1056 3291 1056 2328 
Q 1056 1369 1301 889 
Q 1547 409 2034 409 
Q 2525 409 2770 889 
Q 3016 1369 3016 2328 
Q 3016 3291 2770 3770 
Q 2525 4250 2034 4250 
z
M 2034 4750 
Q 2819 4750 3233 4129 
Q 3647 3509 3647 2328 
Q 3647 1150 3233 529 
Q 2819 -91 2034 -91 
Q 1250 -91 836 529 
Q 422 1150 422 2328 
Q 422 3509 836 4129 
Q 1250 4750 2034 4750 
z
" transform="scale(0.015625)"/>
        <path id="DejaVuSans-2e" d="M 684 794 
L 1344 794 
L 1344 0 
L 684 0 
L 684 794 
z
" transform="scale(0.015625)"/>
        <path id="DejaVuSans-37" d="M 525 4666 
L 3525 4666 
L 3525 4397 
L 1831 0 
L 1172 0 
L 2766 4134 
L 525 4134 
L 525 4666 
z
" transform="scale(0.015625)"/>
        <path id="DejaVuSans-35" d="M 691 4666 
L 3169 4666 
L 3169 4134 
L 1269 4134 
L 1269 2991 
Q 1406 3038 1543 3061 
Q 1681 3084 1819 3084 
Q 2600 3084 3056 2656 
Q 3513 2228 3513 1497 
Q 3513 744 3044 326 
Q 2575 -91 1722 -91 
Q 1428 -91 1123 -41 
Q 819 9 494 109 
L 494 744 
Q 775 591 1075 516 
Q 1375 441 1709 441 
Q 2250 441 2565 725 
Q 2881 1009 2881 1497 
Q 2881 1984 2565 2268 
Q 2250 2553 1709 2553 
Q 1456 2553 1204 2497 
Q 953 2441 691 2322 
L 691 4666 
z
" transform="scale(0.015625)"/>
       </defs>
       <use xlink:href="#DejaVuSans-2212"/>
       <use xlink:href="#DejaVuSans-30" x="83.789062"/>
       <use xlink:href="#DejaVuSans-2e" x="147.412109"/>
       <use xlink:href="#DejaVuSans-37" x="179.199219"/>
       <use xlink:href="#DejaVuSans-35" x="242.822266"/>
      </g>
     </g>
    </g>
    <g id="xtick_2">
     <g id="line2d_2">
      <g>
       <use xlink:href="#m233fc1c60d" x="107.909795" y="329.718125" style="stroke: #000000; stroke-width: 0.8"/>
      </g>
     </g>
     <g id="text_2">
      <!-- 0.50 -->
      <g transform="translate(92.587139 344.316562)scale(0.1 -0.1)">
       <use xlink:href="#DejaVuSans-2212"/>
       <use xlink:href="#DejaVuSans-30" x="83.789062"/>
       <use xlink:href="#DejaVuSans-2e" x="147.412109"/>
       <use xlink:href="#DejaVuSans-35" x="179.199219"/>
       <use xlink:href="#DejaVuSans-30" x="242.822266"/>
      </g>
     </g>
    </g>
    <g id="xtick_3">
     <g id="line2d_3">
      <g>
       <use xlink:href="#m233fc1c60d" x="147.478874" y="329.718125" style="stroke: #000000; stroke-width: 0.8"/>
      </g>
     </g>
     <g id="text_3">
      <!-- 0.25 -->
      <g transform="translate(132.156218 344.316562)scale(0.1 -0.1)">
       <defs>
        <path id="DejaVuSans-32" d="M 1228 531 
L 3431 531 
L 3431 0 
L 469 0 
L 469 531 
Q 828 903 1448 1529 
Q 2069 2156 2228 2338 
Q 2531 2678 2651 2914 
Q 2772 3150 2772 3378 
Q 2772 3750 2511 3984 
Q 2250 4219 1831 4219 
Q 1534 4219 1204 4116 
Q 875 4013 500 3803 
L 500 4441 
Q 881 4594 1212 4672 
Q 1544 4750 1819 4750 
Q 2544 4750 2975 4387 
Q 3406 4025 3406 3419 
Q 3406 3131 3298 2873 
Q 3191 2616 2906 2266 
Q 2828 2175 2409 1742 
Q 1991 1309 1228 531 
z
" transform="scale(0.015625)"/>
       </defs>
       <use xlink:href="#DejaVuSans-2212"/>
       <use xlink:href="#DejaVuSans-30" x="83.789062"/>
       <use xlink:href="#DejaVuSans-2e" x="147.412109"/>
       <use xlink:href="#DejaVuSans-32" x="179.199219"/>
       <use xlink:href="#DejaVuSans-35" x="242.822266"/>
      </g>
     </g>
    </g>
    <g id="xtick_4">
     <g id="line2d_4">
      <g>
       <use xlink:href="#m233fc1c60d" x="187.047954" y="329.718125" style="stroke: #000000; stroke-width: 0.8"/>
      </g>
     </g>
     <g id="text_4">
      <!-- 0.00 -->
      <g transform="translate(175.915141 344.316562)scale(0.1 -0.1)">
       <use xlink:href="#DejaVuSans-30"/>
       <use xlink:href="#DejaVuSans-2e" x="63.623047"/>
       <use xlink:href="#DejaVuSans-30" x="95.410156"/>
       <use xlink:href="#DejaVuSans-30" x="159.033203"/>
      </g>
     </g>
    </g>
    <g id="xtick_5">
     <g id="line2d_5">
      <g>
       <use xlink:href="#m233fc1c60d" x="226.617033" y="329.718125" style="stroke: #000000; stroke-width: 0.8"/>
      </g>
     </g>
     <g id="text_5">
      <!-- 0.25 -->
      <g transform="translate(215.48422 344.316562)scale(0.1 -0.1)">
       <use xlink:href="#DejaVuSans-30"/>
       <use xlink:href="#DejaVuSans-2e" x="63.623047"/>
       <use xlink:href="#DejaVuSans-32" x="95.410156"/>
       <use xlink:href="#DejaVuSans-35" x="159.033203"/>
      </g>
     </g>
    </g>
    <g id="xtick_6">
     <g id="line2d_6">
      <g>
       <use xlink:href="#m233fc1c60d" x="266.186112" y="329.718125" style="stroke: #000000; stroke-width: 0.8"/>
      </g>
     </g>
     <g id="text_6">
      <!-- 0.50 -->
      <g transform="translate(255.053299 344.316562)scale(0.1 -0.1)">
       <use xlink:href="#DejaVuSans-30"/>
       <use xlink:href="#DejaVuSans-2e" x="63.623047"/>
       <use xlink:href="#DejaVuSans-35" x="95.410156"/>
       <use xlink:href="#DejaVuSans-30" x="159.033203"/>
      </g>
     </g>
    </g>
    <g id="xtick_7">
     <g id="line2d_7">
      <g>
       <use xlink:href="#m233fc1c60d" x="305.755191" y="329.718125" style="stroke: #000000; stroke-width: 0.8"/>
      </g>
     </g>
     <g id="text_7">
      <!-- 0.75 -->
      <g transform="translate(294.622378 344.316562)scale(0.1 -0.1)">
       <use xlink:href="#DejaVuSans-30"/>
       <use xlink:href="#DejaVuSans-2e" x="63.623047"/>
       <use xlink:href="#DejaVuSans-37" x="95.410156"/>
       <use xlink:href="#DejaVuSans-35" x="159.033203"/>
      </g>
     </g>
    </g>
    <g id="text_8">
     <!-- ReadZs median z-score -->
     <g transform="translate(133.189457 357.994687)scale(0.1 -0.1)">
      <defs>
       <path id="DejaVuSans-52" d="M 2841 2188 
Q 3044 2119 3236 1894 
Q 3428 1669 3622 1275 
L 4263 0 
L 3584 0 
L 2988 1197 
Q 2756 1666 2539 1819 
Q 2322 1972 1947 1972 
L 1259 1972 
L 1259 0 
L 628 0 
L 628 4666 
L 2053 4666 
Q 2853 4666 3247 4331 
Q 3641 3997 3641 3322 
Q 3641 2881 3436 2590 
Q 3231 2300 2841 2188 
z
M 1259 4147 
L 1259 2491 
L 2053 2491 
Q 2509 2491 2742 2702 
Q 2975 2913 2975 3322 
Q 2975 3731 2742 3939 
Q 2509 4147 2053 4147 
L 1259 4147 
z
" transform="scale(0.015625)"/>
       <path id="DejaVuSans-65" d="M 3597 1894 
L 3597 1613 
L 953 1613 
Q 991 1019 1311 708 
Q 1631 397 2203 397 
Q 2534 397 2845 478 
Q 3156 559 3463 722 
L 3463 178 
Q 3153 47 2828 -22 
Q 2503 -91 2169 -91 
Q 1331 -91 842 396 
Q 353 884 353 1716 
Q 353 2575 817 3079 
Q 1281 3584 2069 3584 
Q 2775 3584 3186 3129 
Q 3597 2675 3597 1894 
z
M 3022 2063 
Q 3016 2534 2758 2815 
Q 2500 3097 2075 3097 
Q 1594 3097 1305 2825 
Q 1016 2553 972 2059 
L 3022 2063 
z
" transform="scale(0.015625)"/>
       <path id="DejaVuSans-61" d="M 2194 1759 
Q 1497 1759 1228 1600 
Q 959 1441 959 1056 
Q 959 750 1161 570 
Q 1363 391 1709 391 
Q 2188 391 2477 730 
Q 2766 1069 2766 1631 
L 2766 1759 
L 2194 1759 
z
M 3341 1997 
L 3341 0 
L 2766 0 
L 2766 531 
Q 2569 213 2275 61 
Q 1981 -91 1556 -91 
Q 1019 -91 701 211 
Q 384 513 384 1019 
Q 384 1609 779 1909 
Q 1175 2209 1959 2209 
L 2766 2209 
L 2766 2266 
Q 2766 2663 2505 2880 
Q 2244 3097 1772 3097 
Q 1472 3097 1187 3025 
Q 903 2953 641 2809 
L 641 3341 
Q 956 3463 1253 3523 
Q 1550 3584 1831 3584 
Q 2591 3584 2966 3190 
Q 3341 2797 3341 1997 
z
" transform="scale(0.015625)"/>
       <path id="DejaVuSans-64" d="M 2906 2969 
L 2906 4863 
L 3481 4863 
L 3481 0 
L 2906 0 
L 2906 525 
Q 2725 213 2448 61 
Q 2172 -91 1784 -91 
Q 1150 -91 751 415 
Q 353 922 353 1747 
Q 353 2572 751 3078 
Q 1150 3584 1784 3584 
Q 2172 3584 2448 3432 
Q 2725 3281 2906 2969 
z
M 947 1747 
Q 947 1113 1208 752 
Q 1469 391 1925 391 
Q 2381 391 2643 752 
Q 2906 1113 2906 1747 
Q 2906 2381 2643 2742 
Q 2381 3103 1925 3103 
Q 1469 3103 1208 2742 
Q 947 2381 947 1747 
z
" transform="scale(0.015625)"/>
       <path id="DejaVuSans-5a" d="M 359 4666 
L 4025 4666 
L 4025 4184 
L 1075 531 
L 4097 531 
L 4097 0 
L 288 0 
L 288 481 
L 3238 4134 
L 359 4134 
L 359 4666 
z
" transform="scale(0.015625)"/>
       <path id="DejaVuSans-73" d="M 2834 3397 
L 2834 2853 
Q 2591 2978 2328 3040 
Q 2066 3103 1784 3103 
Q 1356 3103 1142 2972 
Q 928 2841 928 2578 
Q 928 2378 1081 2264 
Q 1234 2150 1697 2047 
L 1894 2003 
Q 2506 1872 2764 1633 
Q 3022 1394 3022 966 
Q 3022 478 2636 193 
Q 2250 -91 1575 -91 
Q 1294 -91 989 -36 
Q 684 19 347 128 
L 347 722 
Q 666 556 975 473 
Q 1284 391 1588 391 
Q 1994 391 2212 530 
Q 2431 669 2431 922 
Q 2431 1156 2273 1281 
Q 2116 1406 1581 1522 
L 1381 1569 
Q 847 1681 609 1914 
Q 372 2147 372 2553 
Q 372 3047 722 3315 
Q 1072 3584 1716 3584 
Q 2034 3584 2315 3537 
Q 2597 3491 2834 3397 
z
" transform="scale(0.015625)"/>
       <path id="DejaVuSans-20" transform="scale(0.015625)"/>
       <path id="DejaVuSans-6d" d="M 3328 2828 
Q 3544 3216 3844 3400 
Q 4144 3584 4550 3584 
Q 5097 3584 5394 3201 
Q 5691 2819 5691 2113 
L 5691 0 
L 5113 0 
L 5113 2094 
Q 5113 2597 4934 2840 
Q 4756 3084 4391 3084 
Q 3944 3084 3684 2787 
Q 3425 2491 3425 1978 
L 3425 0 
L 2847 0 
L 2847 2094 
Q 2847 2600 2669 2842 
Q 2491 3084 2119 3084 
Q 1678 3084 1418 2786 
Q 1159 2488 1159 1978 
L 1159 0 
L 581 0 
L 581 3500 
L 1159 3500 
L 1159 2956 
Q 1356 3278 1631 3431 
Q 1906 3584 2284 3584 
Q 2666 3584 2933 3390 
Q 3200 3197 3328 2828 
z
" transform="scale(0.015625)"/>
       <path id="DejaVuSans-69" d="M 603 3500 
L 1178 3500 
L 1178 0 
L 603 0 
L 603 3500 
z
M 603 4863 
L 1178 4863 
L 1178 4134 
L 603 4134 
L 603 4863 
z
" transform="scale(0.015625)"/>
       <path id="DejaVuSans-6e" d="M 3513 2113 
L 3513 0 
L 2938 0 
L 2938 2094 
Q 2938 2591 2744 2837 
Q 2550 3084 2163 3084 
Q 1697 3084 1428 2787 
Q 1159 2491 1159 1978 
L 1159 0 
L 581 0 
L 581 3500 
L 1159 3500 
L 1159 2956 
Q 1366 3272 1645 3428 
Q 1925 3584 2291 3584 
Q 2894 3584 3203 3211 
Q 3513 2838 3513 2113 
z
" transform="scale(0.015625)"/>
       <path id="DejaVuSans-7a" d="M 353 3500 
L 3084 3500 
L 3084 2975 
L 922 459 
L 3084 459 
L 3084 0 
L 275 0 
L 275 525 
L 2438 3041 
L 353 3041 
L 353 3500 
z
" transform="scale(0.015625)"/>
       <path id="DejaVuSans-2d" d="M 313 2009 
L 1997 2009 
L 1997 1497 
L 313 1497 
L 313 2009 
z
" transform="scale(0.015625)"/>
       <path id="DejaVuSans-63" d="M 3122 3366 
L 3122 2828 
Q 2878 2963 2633 3030 
Q 2388 3097 2138 3097 
Q 1578 3097 1268 2742 
Q 959 2388 959 1747 
Q 959 1106 1268 751 
Q 1578 397 2138 397 
Q 2388 397 2633 464 
Q 2878 531 3122 666 
L 3122 134 
Q 2881 22 2623 -34 
Q 2366 -91 2075 -91 
Q 1284 -91 818 406 
Q 353 903 353 1747 
Q 353 2603 823 3093 
Q 1294 3584 2113 3584 
Q 2378 3584 2631 3529 
Q 2884 3475 3122 3366 
z
" transform="scale(0.015625)"/>
       <path id="DejaVuSans-6f" d="M 1959 3097 
Q 1497 3097 1228 2736 
Q 959 2375 959 1747 
Q 959 1119 1226 758 
Q 1494 397 1959 397 
Q 2419 397 2687 759 
Q 2956 1122 2956 1747 
Q 2956 2369 2687 2733 
Q 2419 3097 1959 3097 
z
M 1959 3584 
Q 2709 3584 3137 3096 
Q 3566 2609 3566 1747 
Q 3566 888 3137 398 
Q 2709 -91 1959 -91 
Q 1206 -91 779 398 
Q 353 888 353 1747 
Q 353 2609 779 3096 
Q 1206 3584 1959 3584 
z
" transform="scale(0.015625)"/>
       <path id="DejaVuSans-72" d="M 2631 2963 
Q 2534 3019 2420 3045 
Q 2306 3072 2169 3072 
Q 1681 3072 1420 2755 
Q 1159 2438 1159 1844 
L 1159 0 
L 581 0 
L 581 3500 
L 1159 3500 
L 1159 2956 
Q 1341 3275 1631 3429 
Q 1922 3584 2338 3584 
Q 2397 3584 2469 3576 
Q 2541 3569 2628 3553 
L 2631 2963 
z
" transform="scale(0.015625)"/>
      </defs>
      <use xlink:href="#DejaVuSans-52"/>
      <use xlink:href="#DejaVuSans-65" x="64.982422"/>
      <use xlink:href="#DejaVuSans-61" x="126.505859"/>
      <use xlink:href="#DejaVuSans-64" x="187.785156"/>
      <use xlink:href="#DejaVuSans-5a" x="251.261719"/>
      <use xlink:href="#DejaVuSans-73" x="319.767578"/>
      <use xlink:href="#DejaVuSans-20" x="371.867188"/>
      <use xlink:href="#DejaVuSans-6d" x="403.654297"/>
      <use xlink:href="#DejaVuSans-65" x="501.066406"/>
      <use xlink:href="#DejaVuSans-64" x="562.589844"/>
      <use xlink:href="#DejaVuSans-69" x="626.066406"/>
      <use xlink:href="#DejaVuSans-61" x="653.849609"/>
      <use xlink:href="#DejaVuSans-6e" x="715.128906"/>
      <use xlink:href="#DejaVuSans-20" x="778.507812"/>
      <use xlink:href="#DejaVuSans-7a" x="810.294922"/>
      <use xlink:href="#DejaVuSans-2d" x="862.785156"/>
      <use xlink:href="#DejaVuSans-73" x="898.869141"/>
      <use xlink:href="#DejaVuSans-63" x="950.96875"/>
      <use xlink:href="#DejaVuSans-6f" x="1005.949219"/>
      <use xlink:href="#DejaVuSans-72" x="1067.130859"/>
      <use xlink:href="#DejaVuSans-65" x="1105.994141"/>
     </g>
    </g>
   </g>
   <g id="matplotlib.axis_2">
    <g id="ytick_1">
     <g id="line2d_8">
      <defs>
       <path id="m25b70b5011" d="M 0 0 
L -3.5 0 
" style="stroke: #000000; stroke-width: 0.8"/>
      </defs>
      <g>
       <use xlink:href="#m25b70b5011" x="43.78125" y="300.958859" style="stroke: #000000; stroke-width: 0.8"/>
      </g>
     </g>
     <g id="text_9">
      <!-- 0.0 -->
      <g transform="translate(20.878125 304.758078)scale(0.1 -0.1)">
       <use xlink:href="#DejaVuSans-30"/>
       <use xlink:href="#DejaVuSans-2e" x="63.623047"/>
       <use xlink:href="#DejaVuSans-30" x="95.410156"/>
      </g>
     </g>
    </g>
    <g id="ytick_2">
     <g id="line2d_9">
      <g>
       <use xlink:href="#m25b70b5011" x="43.78125" y="243.291358" style="stroke: #000000; stroke-width: 0.8"/>
      </g>
     </g>
     <g id="text_10">
      <!-- 0.1 -->
      <g transform="translate(20.878125 247.090577)scale(0.1 -0.1)">
       <defs>
        <path id="DejaVuSans-31" d="M 794 531 
L 1825 531 
L 1825 4091 
L 703 3866 
L 703 4441 
L 1819 4666 
L 2450 4666 
L 2450 531 
L 3481 531 
L 3481 0 
L 794 0 
L 794 531 
z
" transform="scale(0.015625)"/>
       </defs>
       <use xlink:href="#DejaVuSans-30"/>
       <use xlink:href="#DejaVuSans-2e" x="63.623047"/>
       <use xlink:href="#DejaVuSans-31" x="95.410156"/>
      </g>
     </g>
    </g>
    <g id="ytick_3">
     <g id="line2d_10">
      <g>
       <use xlink:href="#m25b70b5011" x="43.78125" y="185.623858" style="stroke: #000000; stroke-width: 0.8"/>
      </g>
     </g>
     <g id="text_11">
      <!-- 0.2 -->
      <g transform="translate(20.878125 189.423076)scale(0.1 -0.1)">
       <use xlink:href="#DejaVuSans-30"/>
       <use xlink:href="#DejaVuSans-2e" x="63.623047"/>
       <use xlink:href="#DejaVuSans-32" x="95.410156"/>
      </g>
     </g>
    </g>
    <g id="ytick_4">
     <g id="line2d_11">
      <g>
       <use xlink:href="#m25b70b5011" x="43.78125" y="127.956357" style="stroke: #000000; stroke-width: 0.8"/>
      </g>
     </g>
     <g id="text_12">
      <!-- 0.3 -->
      <g transform="translate(20.878125 131.755576)scale(0.1 -0.1)">
       <defs>
        <path id="DejaVuSans-33" d="M 2597 2516 
Q 3050 2419 3304 2112 
Q 3559 1806 3559 1356 
Q 3559 666 3084 287 
Q 2609 -91 1734 -91 
Q 1441 -91 1130 -33 
Q 819 25 488 141 
L 488 750 
Q 750 597 1062 519 
Q 1375 441 1716 441 
Q 2309 441 2620 675 
Q 2931 909 2931 1356 
Q 2931 1769 2642 2001 
Q 2353 2234 1838 2234 
L 1294 2234 
L 1294 2753 
L 1863 2753 
Q 2328 2753 2575 2939 
Q 2822 3125 2822 3475 
Q 2822 3834 2567 4026 
Q 2313 4219 1838 4219 
Q 1578 4219 1281 4162 
Q 984 4106 628 3988 
L 628 4550 
Q 988 4650 1302 4700 
Q 1616 4750 1894 4750 
Q 2613 4750 3031 4423 
Q 3450 4097 3450 3541 
Q 3450 3153 3228 2886 
Q 3006 2619 2597 2516 
z
" transform="scale(0.015625)"/>
       </defs>
       <use xlink:href="#DejaVuSans-30"/>
       <use xlink:href="#DejaVuSans-2e" x="63.623047"/>
       <use xlink:href="#DejaVuSans-33" x="95.410156"/>
      </g>
     </g>
    </g>
    <g id="ytick_5">
     <g id="line2d_12">
      <g>
       <use xlink:href="#m25b70b5011" x="43.78125" y="70.288856" style="stroke: #000000; stroke-width: 0.8"/>
      </g>
     </g>
     <g id="text_13">
      <!-- 0.4 -->
      <g transform="translate(20.878125 74.088075)scale(0.1 -0.1)">
       <defs>
        <path id="DejaVuSans-34" d="M 2419 4116 
L 825 1625 
L 2419 1625 
L 2419 4116 
z
M 2253 4666 
L 3047 4666 
L 3047 1625 
L 3713 1625 
L 3713 1100 
L 3047 1100 
L 3047 0 
L 2419 0 
L 2419 1100 
L 313 1100 
L 313 1709 
L 2253 4666 
z
" transform="scale(0.015625)"/>
       </defs>
       <use xlink:href="#DejaVuSans-30"/>
       <use xlink:href="#DejaVuSans-2e" x="63.623047"/>
       <use xlink:href="#DejaVuSans-34" x="95.410156"/>
      </g>
     </g>
    </g>
    <g id="text_14">
     <!-- SRRS median peripheral score -->
     <g transform="translate(14.798438 251.881406)rotate(-90)scale(0.1 -0.1)">
      <defs>
       <path id="DejaVuSans-53" d="M 3425 4513 
L 3425 3897 
Q 3066 4069 2747 4153 
Q 2428 4238 2131 4238 
Q 1616 4238 1336 4038 
Q 1056 3838 1056 3469 
Q 1056 3159 1242 3001 
Q 1428 2844 1947 2747 
L 2328 2669 
Q 3034 2534 3370 2195 
Q 3706 1856 3706 1288 
Q 3706 609 3251 259 
Q 2797 -91 1919 -91 
Q 1588 -91 1214 -16 
Q 841 59 441 206 
L 441 856 
Q 825 641 1194 531 
Q 1563 422 1919 422 
Q 2459 422 2753 634 
Q 3047 847 3047 1241 
Q 3047 1584 2836 1778 
Q 2625 1972 2144 2069 
L 1759 2144 
Q 1053 2284 737 2584 
Q 422 2884 422 3419 
Q 422 4038 858 4394 
Q 1294 4750 2059 4750 
Q 2388 4750 2728 4690 
Q 3069 4631 3425 4513 
z
" transform="scale(0.015625)"/>
       <path id="DejaVuSans-70" d="M 1159 525 
L 1159 -1331 
L 581 -1331 
L 581 3500 
L 1159 3500 
L 1159 2969 
Q 1341 3281 1617 3432 
Q 1894 3584 2278 3584 
Q 2916 3584 3314 3078 
Q 3713 2572 3713 1747 
Q 3713 922 3314 415 
Q 2916 -91 2278 -91 
Q 1894 -91 1617 61 
Q 1341 213 1159 525 
z
M 3116 1747 
Q 3116 2381 2855 2742 
Q 2594 3103 2138 3103 
Q 1681 3103 1420 2742 
Q 1159 2381 1159 1747 
Q 1159 1113 1420 752 
Q 1681 391 2138 391 
Q 2594 391 2855 752 
Q 3116 1113 3116 1747 
z
" transform="scale(0.015625)"/>
       <path id="DejaVuSans-68" d="M 3513 2113 
L 3513 0 
L 2938 0 
L 2938 2094 
Q 2938 2591 2744 2837 
Q 2550 3084 2163 3084 
Q 1697 3084 1428 2787 
Q 1159 2491 1159 1978 
L 1159 0 
L 581 0 
L 581 4863 
L 1159 4863 
L 1159 2956 
Q 1366 3272 1645 3428 
Q 1925 3584 2291 3584 
Q 2894 3584 3203 3211 
Q 3513 2838 3513 2113 
z
" transform="scale(0.015625)"/>
       <path id="DejaVuSans-6c" d="M 603 4863 
L 1178 4863 
L 1178 0 
L 603 0 
L 603 4863 
z
" transform="scale(0.015625)"/>
      </defs>
      <use xlink:href="#DejaVuSans-53"/>
      <use xlink:href="#DejaVuSans-52" x="63.476562"/>
      <use xlink:href="#DejaVuSans-52" x="132.958984"/>
      <use xlink:href="#DejaVuSans-53" x="202.441406"/>
      <use xlink:href="#DejaVuSans-20" x="265.917969"/>
      <use xlink:href="#DejaVuSans-6d" x="297.705078"/>
      <use xlink:href="#DejaVuSans-65" x="395.117188"/>
      <use xlink:href="#DejaVuSans-64" x="456.640625"/>
      <use xlink:href="#DejaVuSans-69" x="520.117188"/>
      <use xlink:href="#DejaVuSans-61" x="547.900391"/>
      <use xlink:href="#DejaVuSans-6e" x="609.179688"/>
      <use xlink:href="#DejaVuSans-20" x="672.558594"/>
      <use xlink:href="#DejaVuSans-70" x="704.345703"/>
      <use xlink:href="#DejaVuSans-65" x="767.822266"/>
      <use xlink:href="#DejaVuSans-72" x="829.345703"/>
      <use xlink:href="#DejaVuSans-69" x="870.458984"/>
      <use xlink:href="#DejaVuSans-70" x="898.242188"/>
      <use xlink:href="#DejaVuSans-68" x="961.71875"/>
      <use xlink:href="#DejaVuSans-65" x="1025.097656"/>
      <use xlink:href="#DejaVuSans-72" x="1086.621094"/>
      <use xlink:href="#DejaVuSans-61" x="1127.734375"/>
      <use xlink:href="#DejaVuSans-6c" x="1189.013672"/>
      <use xlink:href="#DejaVuSans-20" x="1216.796875"/>
      <use xlink:href="#DejaVuSans-73" x="1248.583984"/>
      <use xlink:href="#DejaVuSans-63" x="1300.683594"/>
      <use xlink:href="#DejaVuSans-6f" x="1355.664062"/>
      <use xlink:href="#DejaVuSans-72" x="1416.845703"/>
      <use xlink:href="#DejaVuSans-65" x="1455.708984"/>
     </g>
    </g>
   </g>
   <g id="patch_3">
    <path d="M 43.78125 329.718125 
L 43.78125 22.318125 
" style="fill: none; stroke: #000000; stroke-width: 0.8; stroke-linejoin: miter; stroke-linecap: square"/>
   </g>
   <g id="patch_4">
    <path d="M 43.78125 329.718125 
L 339.349227 329.718125 
" style="fill: none; stroke: #000000; stroke-width: 0.8; stroke-linejoin: miter; stroke-linecap: square"/>
   </g>
   <g id="text_15">
    <!-- Timp3 significant in at least 1 MERFISH/10X sample pair -->
    <g transform="translate(23.005551 16.318125)scale(0.12 -0.12)">
     <defs>
      <path id="DejaVuSans-54" d="M -19 4666 
L 3928 4666 
L 3928 4134 
L 2272 4134 
L 2272 0 
L 1638 0 
L 1638 4134 
L -19 4134 
L -19 4666 
z
" transform="scale(0.015625)"/>
      <path id="DejaVuSans-67" d="M 2906 1791 
Q 2906 2416 2648 2759 
Q 2391 3103 1925 3103 
Q 1463 3103 1205 2759 
Q 947 2416 947 1791 
Q 947 1169 1205 825 
Q 1463 481 1925 481 
Q 2391 481 2648 825 
Q 2906 1169 2906 1791 
z
M 3481 434 
Q 3481 -459 3084 -895 
Q 2688 -1331 1869 -1331 
Q 1566 -1331 1297 -1286 
Q 1028 -1241 775 -1147 
L 775 -588 
Q 1028 -725 1275 -790 
Q 1522 -856 1778 -856 
Q 2344 -856 2625 -561 
Q 2906 -266 2906 331 
L 2906 616 
Q 2728 306 2450 153 
Q 2172 0 1784 0 
Q 1141 0 747 490 
Q 353 981 353 1791 
Q 353 2603 747 3093 
Q 1141 3584 1784 3584 
Q 2172 3584 2450 3431 
Q 2728 3278 2906 2969 
L 2906 3500 
L 3481 3500 
L 3481 434 
z
" transform="scale(0.015625)"/>
      <path id="DejaVuSans-66" d="M 2375 4863 
L 2375 4384 
L 1825 4384 
Q 1516 4384 1395 4259 
Q 1275 4134 1275 3809 
L 1275 3500 
L 2222 3500 
L 2222 3053 
L 1275 3053 
L 1275 0 
L 697 0 
L 697 3053 
L 147 3053 
L 147 3500 
L 697 3500 
L 697 3744 
Q 697 4328 969 4595 
Q 1241 4863 1831 4863 
L 2375 4863 
z
" transform="scale(0.015625)"/>
      <path id="DejaVuSans-74" d="M 1172 4494 
L 1172 3500 
L 2356 3500 
L 2356 3053 
L 1172 3053 
L 1172 1153 
Q 1172 725 1289 603 
Q 1406 481 1766 481 
L 2356 481 
L 2356 0 
L 1766 0 
Q 1100 0 847 248 
Q 594 497 594 1153 
L 594 3053 
L 172 3053 
L 172 3500 
L 594 3500 
L 594 4494 
L 1172 4494 
z
" transform="scale(0.015625)"/>
      <path id="DejaVuSans-4d" d="M 628 4666 
L 1569 4666 
L 2759 1491 
L 3956 4666 
L 4897 4666 
L 4897 0 
L 4281 0 
L 4281 4097 
L 3078 897 
L 2444 897 
L 1241 4097 
L 1241 0 
L 628 0 
L 628 4666 
z
" transform="scale(0.015625)"/>
      <path id="DejaVuSans-45" d="M 628 4666 
L 3578 4666 
L 3578 4134 
L 1259 4134 
L 1259 2753 
L 3481 2753 
L 3481 2222 
L 1259 2222 
L 1259 531 
L 3634 531 
L 3634 0 
L 628 0 
L 628 4666 
z
" transform="scale(0.015625)"/>
      <path id="DejaVuSans-46" d="M 628 4666 
L 3309 4666 
L 3309 4134 
L 1259 4134 
L 1259 2759 
L 3109 2759 
L 3109 2228 
L 1259 2228 
L 1259 0 
L 628 0 
L 628 4666 
z
" transform="scale(0.015625)"/>
      <path id="DejaVuSans-49" d="M 628 4666 
L 1259 4666 
L 1259 0 
L 628 0 
L 628 4666 
z
" transform="scale(0.015625)"/>
      <path id="DejaVuSans-48" d="M 628 4666 
L 1259 4666 
L 1259 2753 
L 3553 2753 
L 3553 4666 
L 4184 4666 
L 4184 0 
L 3553 0 
L 3553 2222 
L 1259 2222 
L 1259 0 
L 628 0 
L 628 4666 
z
" transform="scale(0.015625)"/>
      <path id="DejaVuSans-2f" d="M 1625 4666 
L 2156 4666 
L 531 -594 
L 0 -594 
L 1625 4666 
z
" transform="scale(0.015625)"/>
      <path id="DejaVuSans-58" d="M 403 4666 
L 1081 4666 
L 2241 2931 
L 3406 4666 
L 4084 4666 
L 2584 2425 
L 4184 0 
L 3506 0 
L 2194 1984 
L 872 0 
L 191 0 
L 1856 2491 
L 403 4666 
z
" transform="scale(0.015625)"/>
     </defs>
     <use xlink:href="#DejaVuSans-54"/>
     <use xlink:href="#DejaVuSans-69" x="57.958984"/>
     <use xlink:href="#DejaVuSans-6d" x="85.742188"/>
     <use xlink:href="#DejaVuSans-70" x="183.154297"/>
     <use xlink:href="#DejaVuSans-33" x="246.630859"/>
     <use xlink:href="#DejaVuSans-20" x="310.253906"/>
     <use xlink:href="#DejaVuSans-73" x="342.041016"/>
     <use xlink:href="#DejaVuSans-69" x="394.140625"/>
     <use xlink:href="#DejaVuSans-67" x="421.923828"/>
     <use xlink:href="#DejaVuSans-6e" x="485.400391"/>
     <use xlink:href="#DejaVuSans-69" x="548.779297"/>
     <use xlink:href="#DejaVuSans-66" x="576.5625"/>
     <use xlink:href="#DejaVuSans-69" x="611.767578"/>
     <use xlink:href="#DejaVuSans-63" x="639.550781"/>
     <use xlink:href="#DejaVuSans-61" x="694.53125"/>
     <use xlink:href="#DejaVuSans-6e" x="755.810547"/>
     <use xlink:href="#DejaVuSans-74" x="819.189453"/>
     <use xlink:href="#DejaVuSans-20" x="858.398438"/>
     <use xlink:href="#DejaVuSans-69" x="890.185547"/>
     <use xlink:href="#DejaVuSans-6e" x="917.96875"/>
     <use xlink:href="#DejaVuSans-20" x="981.347656"/>
     <use xlink:href="#DejaVuSans-61" x="1013.134766"/>
     <use xlink:href="#DejaVuSans-74" x="1074.414062"/>
     <use xlink:href="#DejaVuSans-20" x="1113.623047"/>
     <use xlink:href="#DejaVuSans-6c" x="1145.410156"/>
     <use xlink:href="#DejaVuSans-65" x="1173.193359"/>
     <use xlink:href="#DejaVuSans-61" x="1234.716797"/>
     <use xlink:href="#DejaVuSans-73" x="1295.996094"/>
     <use xlink:href="#DejaVuSans-74" x="1348.095703"/>
     <use xlink:href="#DejaVuSans-20" x="1387.304688"/>
     <use xlink:href="#DejaVuSans-31" x="1419.091797"/>
     <use xlink:href="#DejaVuSans-20" x="1482.714844"/>
     <use xlink:href="#DejaVuSans-4d" x="1514.501953"/>
     <use xlink:href="#DejaVuSans-45" x="1600.78125"/>
     <use xlink:href="#DejaVuSans-52" x="1663.964844"/>
     <use xlink:href="#DejaVuSans-46" x="1733.447266"/>
     <use xlink:href="#DejaVuSans-49" x="1790.966797"/>
     <use xlink:href="#DejaVuSans-53" x="1820.458984"/>
     <use xlink:href="#DejaVuSans-48" x="1883.935547"/>
     <use xlink:href="#DejaVuSans-2f" x="1959.130859"/>
     <use xlink:href="#DejaVuSans-31" x="1992.822266"/>
     <use xlink:href="#DejaVuSans-30" x="2056.445312"/>
     <use xlink:href="#DejaVuSans-58" x="2120.068359"/>
     <use xlink:href="#DejaVuSans-20" x="2188.574219"/>
     <use xlink:href="#DejaVuSans-73" x="2220.361328"/>
     <use xlink:href="#DejaVuSans-61" x="2272.460938"/>
     <use xlink:href="#DejaVuSans-6d" x="2333.740234"/>
     <use xlink:href="#DejaVuSans-70" x="2431.152344"/>
     <use xlink:href="#DejaVuSans-6c" x="2494.628906"/>
     <use xlink:href="#DejaVuSans-65" x="2522.412109"/>
     <use xlink:href="#DejaVuSans-20" x="2583.935547"/>
     <use xlink:href="#DejaVuSans-70" x="2615.722656"/>
     <use xlink:href="#DejaVuSans-61" x="2679.199219"/>
     <use xlink:href="#DejaVuSans-69" x="2740.478516"/>
     <use xlink:href="#DejaVuSans-72" x="2768.261719"/>
    </g>
   </g>
  </g>
  <g id="legend_1">
   <g id="text_16">
    <!-- ontology -->
    <g transform="translate(353.038602 61.354375)scale(0.1 -0.1)">
     <defs>
      <path id="DejaVuSans-79" d="M 2059 -325 
Q 1816 -950 1584 -1140 
Q 1353 -1331 966 -1331 
L 506 -1331 
L 506 -850 
L 844 -850 
Q 1081 -850 1212 -737 
Q 1344 -625 1503 -206 
L 1606 56 
L 191 3500 
L 800 3500 
L 1894 763 
L 2988 3500 
L 3597 3500 
L 2059 -325 
z
" transform="scale(0.015625)"/>
     </defs>
     <use xlink:href="#DejaVuSans-6f"/>
     <use xlink:href="#DejaVuSans-6e" x="61.181641"/>
     <use xlink:href="#DejaVuSans-74" x="124.560547"/>
     <use xlink:href="#DejaVuSans-6f" x="163.769531"/>
     <use xlink:href="#DejaVuSans-6c" x="224.951172"/>
     <use xlink:href="#DejaVuSans-6f" x="252.734375"/>
     <use xlink:href="#DejaVuSans-67" x="313.916016"/>
     <use xlink:href="#DejaVuSans-79" x="377.392578"/>
    </g>
   </g>
   <g id="PathCollection_17">
    <defs>
     <path id="m91b5d54df8" d="M 0 3 
C 0.795609 3 1.55874 2.683901 2.12132 2.12132 
C 2.683901 1.55874 3 0.795609 3 0 
C 3 -0.795609 2.683901 -1.55874 2.12132 -2.12132 
C 1.55874 -2.683901 0.795609 -3 0 -3 
C -0.795609 -3 -1.55874 -2.683901 -2.12132 -2.12132 
C -2.683901 -1.55874 -3 -0.795609 -3 0 
C -3 0.795609 -2.683901 1.55874 -2.12132 2.12132 
C -1.55874 2.683901 -0.795609 3 0 3 
z
" style="stroke: #2777b4"/>
    </defs>
    <g>
     <use xlink:href="#m91b5d54df8" x="355.038602" y="73.4075" style="fill: #2777b4; stroke: #2777b4"/>
    </g>
   </g>
   <g id="text_17">
    <!-- L6 IT -->
    <g transform="translate(373.038602 76.0325)scale(0.1 -0.1)">
     <defs>
      <path id="DejaVuSans-4c" d="M 628 4666 
L 1259 4666 
L 1259 531 
L 3531 531 
L 3531 0 
L 628 0 
L 628 4666 
z
" transform="scale(0.015625)"/>
      <path id="DejaVuSans-36" d="M 2113 2584 
Q 1688 2584 1439 2293 
Q 1191 2003 1191 1497 
Q 1191 994 1439 701 
Q 1688 409 2113 409 
Q 2538 409 2786 701 
Q 3034 994 3034 1497 
Q 3034 2003 2786 2293 
Q 2538 2584 2113 2584 
z
M 3366 4563 
L 3366 3988 
Q 3128 4100 2886 4159 
Q 2644 4219 2406 4219 
Q 1781 4219 1451 3797 
Q 1122 3375 1075 2522 
Q 1259 2794 1537 2939 
Q 1816 3084 2150 3084 
Q 2853 3084 3261 2657 
Q 3669 2231 3669 1497 
Q 3669 778 3244 343 
Q 2819 -91 2113 -91 
Q 1303 -91 875 529 
Q 447 1150 447 2328 
Q 447 3434 972 4092 
Q 1497 4750 2381 4750 
Q 2619 4750 2861 4703 
Q 3103 4656 3366 4563 
z
" transform="scale(0.015625)"/>
     </defs>
     <use xlink:href="#DejaVuSans-4c"/>
     <use xlink:href="#DejaVuSans-36" x="55.712891"/>
     <use xlink:href="#DejaVuSans-20" x="119.335938"/>
     <use xlink:href="#DejaVuSans-49" x="151.123047"/>
     <use xlink:href="#DejaVuSans-54" x="180.615234"/>
    </g>
   </g>
   <g id="PathCollection_18">
    <defs>
     <path id="m58cd8f6ba0" d="M 0 3 
C 0.795609 3 1.55874 2.683901 2.12132 2.12132 
C 2.683901 1.55874 3 0.795609 3 0 
C 3 -0.795609 2.683901 -1.55874 2.12132 -2.12132 
C 1.55874 -2.683901 0.795609 -3 0 -3 
C -0.795609 -3 -1.55874 -2.683901 -2.12132 -2.12132 
C -2.683901 -1.55874 -3 -0.795609 -3 0 
C -3 0.795609 -2.683901 1.55874 -2.12132 2.12132 
C -1.55874 2.683901 -0.795609 3 0 3 
z
" style="stroke: #f67f11"/>
    </defs>
    <g>
     <use xlink:href="#m58cd8f6ba0" x="355.038602" y="88.085625" style="fill: #f67f11; stroke: #f67f11"/>
    </g>
   </g>
   <g id="text_18">
    <!-- L2/3 IT -->
    <g transform="translate(373.038602 90.710625)scale(0.1 -0.1)">
     <use xlink:href="#DejaVuSans-4c"/>
     <use xlink:href="#DejaVuSans-32" x="55.712891"/>
     <use xlink:href="#DejaVuSans-2f" x="119.335938"/>
     <use xlink:href="#DejaVuSans-33" x="153.027344"/>
     <use xlink:href="#DejaVuSans-20" x="216.650391"/>
     <use xlink:href="#DejaVuSans-49" x="248.4375"/>
     <use xlink:href="#DejaVuSans-54" x="277.929688"/>
    </g>
   </g>
   <g id="PathCollection_19">
    <defs>
     <path id="mdac90be99d" d="M 0 3 
C 0.795609 3 1.55874 2.683901 2.12132 2.12132 
C 2.683901 1.55874 3 0.795609 3 0 
C 3 -0.795609 2.683901 -1.55874 2.12132 -2.12132 
C 1.55874 -2.683901 0.795609 -3 0 -3 
C -0.795609 -3 -1.55874 -2.683901 -2.12132 -2.12132 
C -2.683901 -1.55874 -3 -0.795609 -3 0 
C -3 0.795609 -2.683901 1.55874 -2.12132 2.12132 
C -1.55874 2.683901 -0.795609 3 0 3 
z
" style="stroke: #2ea02d"/>
    </defs>
    <g>
     <use xlink:href="#mdac90be99d" x="355.038602" y="102.76375" style="fill: #2ea02d; stroke: #2ea02d"/>
    </g>
   </g>
   <g id="text_19">
    <!-- L5 IT -->
    <g transform="translate(373.038602 105.38875)scale(0.1 -0.1)">
     <use xlink:href="#DejaVuSans-4c"/>
     <use xlink:href="#DejaVuSans-35" x="55.712891"/>
     <use xlink:href="#DejaVuSans-20" x="119.335938"/>
     <use xlink:href="#DejaVuSans-49" x="151.123047"/>
     <use xlink:href="#DejaVuSans-54" x="180.615234"/>
    </g>
   </g>
   <g id="PathCollection_20">
    <defs>
     <path id="maa9fb44439" d="M 0 3 
C 0.795609 3 1.55874 2.683901 2.12132 2.12132 
C 2.683901 1.55874 3 0.795609 3 0 
C 3 -0.795609 2.683901 -1.55874 2.12132 -2.12132 
C 1.55874 -2.683901 0.795609 -3 0 -3 
C -0.795609 -3 -1.55874 -2.683901 -2.12132 -2.12132 
C -2.683901 -1.55874 -3 -0.795609 -3 0 
C -3 0.795609 -2.683901 1.55874 -2.12132 2.12132 
C -1.55874 2.683901 -0.795609 3 0 3 
z
" style="stroke: #9467bd"/>
    </defs>
    <g>
     <use xlink:href="#maa9fb44439" x="355.038602" y="117.441875" style="fill: #9467bd; stroke: #9467bd"/>
    </g>
   </g>
   <g id="text_20">
    <!-- Astro -->
    <g transform="translate(373.038602 120.066875)scale(0.1 -0.1)">
     <defs>
      <path id="DejaVuSans-41" d="M 2188 4044 
L 1331 1722 
L 3047 1722 
L 2188 4044 
z
M 1831 4666 
L 2547 4666 
L 4325 0 
L 3669 0 
L 3244 1197 
L 1141 1197 
L 716 0 
L 50 0 
L 1831 4666 
z
" transform="scale(0.015625)"/>
     </defs>
     <use xlink:href="#DejaVuSans-41"/>
     <use xlink:href="#DejaVuSans-73" x="68.408203"/>
     <use xlink:href="#DejaVuSans-74" x="120.507812"/>
     <use xlink:href="#DejaVuSans-72" x="159.716797"/>
     <use xlink:href="#DejaVuSans-6f" x="198.580078"/>
    </g>
   </g>
   <g id="PathCollection_21">
    <defs>
     <path id="m888d6658c8" d="M 0 3 
C 0.795609 3 1.55874 2.683901 2.12132 2.12132 
C 2.683901 1.55874 3 0.795609 3 0 
C 3 -0.795609 2.683901 -1.55874 2.12132 -2.12132 
C 1.55874 -2.683901 0.795609 -3 0 -3 
C -0.795609 -3 -1.55874 -2.683901 -2.12132 -2.12132 
C -2.683901 -1.55874 -3 -0.795609 -3 0 
C -3 0.795609 -2.683901 1.55874 -2.12132 2.12132 
C -1.55874 2.683901 -0.795609 3 0 3 
z
" style="stroke: #8c564b"/>
    </defs>
    <g>
     <use xlink:href="#m888d6658c8" x="355.038602" y="132.12" style="fill: #8c564b; stroke: #8c564b"/>
    </g>
   </g>
   <g id="text_21">
    <!-- Vip -->
    <g transform="translate(373.038602 134.745)scale(0.1 -0.1)">
     <defs>
      <path id="DejaVuSans-56" d="M 1831 0 
L 50 4666 
L 709 4666 
L 2188 738 
L 3669 4666 
L 4325 4666 
L 2547 0 
L 1831 0 
z
" transform="scale(0.015625)"/>
     </defs>
     <use xlink:href="#DejaVuSans-56"/>
     <use xlink:href="#DejaVuSans-69" x="66.158203"/>
     <use xlink:href="#DejaVuSans-70" x="93.941406"/>
    </g>
   </g>
   <g id="PathCollection_22">
    <defs>
     <path id="m66b0fa4731" d="M 0 3 
C 0.795609 3 1.55874 2.683901 2.12132 2.12132 
C 2.683901 1.55874 3 0.795609 3 0 
C 3 -0.795609 2.683901 -1.55874 2.12132 -2.12132 
C 1.55874 -2.683901 0.795609 -3 0 -3 
C -0.795609 -3 -1.55874 -2.683901 -2.12132 -2.12132 
C -2.683901 -1.55874 -3 -0.795609 -3 0 
C -3 0.795609 -2.683901 1.55874 -2.12132 2.12132 
C -1.55874 2.683901 -0.795609 3 0 3 
z
" style="stroke: #e377c2"/>
    </defs>
    <g>
     <use xlink:href="#m66b0fa4731" x="355.038602" y="146.798125" style="fill: #e377c2; stroke: #e377c2"/>
    </g>
   </g>
   <g id="text_22">
    <!-- Endo -->
    <g transform="translate(373.038602 149.423125)scale(0.1 -0.1)">
     <use xlink:href="#DejaVuSans-45"/>
     <use xlink:href="#DejaVuSans-6e" x="63.183594"/>
     <use xlink:href="#DejaVuSans-64" x="126.5625"/>
     <use xlink:href="#DejaVuSans-6f" x="190.039062"/>
    </g>
   </g>
   <g id="PathCollection_23">
    <defs>
     <path id="m8e59799078" d="M 0 3 
C 0.795609 3 1.55874 2.683901 2.12132 2.12132 
C 2.683901 1.55874 3 0.795609 3 0 
C 3 -0.795609 2.683901 -1.55874 2.12132 -2.12132 
C 1.55874 -2.683901 0.795609 -3 0 -3 
C -0.795609 -3 -1.55874 -2.683901 -2.12132 -2.12132 
C -2.683901 -1.55874 -3 -0.795609 -3 0 
C -3 0.795609 -2.683901 1.55874 -2.12132 2.12132 
C -1.55874 2.683901 -0.795609 3 0 3 
z
" style="stroke: #7f7f7f"/>
    </defs>
    <g>
     <use xlink:href="#m8e59799078" x="355.038602" y="161.47625" style="fill: #7f7f7f; stroke: #7f7f7f"/>
    </g>
   </g>
   <g id="text_23">
    <!-- Lamp5 -->
    <g transform="translate(373.038602 164.10125)scale(0.1 -0.1)">
     <use xlink:href="#DejaVuSans-4c"/>
     <use xlink:href="#DejaVuSans-61" x="55.712891"/>
     <use xlink:href="#DejaVuSans-6d" x="116.992188"/>
     <use xlink:href="#DejaVuSans-70" x="214.404297"/>
     <use xlink:href="#DejaVuSans-35" x="277.880859"/>
    </g>
   </g>
   <g id="PathCollection_24">
    <defs>
     <path id="mefd25e7891" d="M 0 3 
C 0.795609 3 1.55874 2.683901 2.12132 2.12132 
C 2.683901 1.55874 3 0.795609 3 0 
C 3 -0.795609 2.683901 -1.55874 2.12132 -2.12132 
C 1.55874 -2.683901 0.795609 -3 0 -3 
C -0.795609 -3 -1.55874 -2.683901 -2.12132 -2.12132 
C -2.683901 -1.55874 -3 -0.795609 -3 0 
C -3 0.795609 -2.683901 1.55874 -2.12132 2.12132 
C -1.55874 2.683901 -0.795609 3 0 3 
z
" style="stroke: #bcbd22"/>
    </defs>
    <g>
     <use xlink:href="#mefd25e7891" x="355.038602" y="176.154375" style="fill: #bcbd22; stroke: #bcbd22"/>
    </g>
   </g>
   <g id="text_24">
    <!-- Sst -->
    <g transform="translate(373.038602 178.779375)scale(0.1 -0.1)">
     <use xlink:href="#DejaVuSans-53"/>
     <use xlink:href="#DejaVuSans-73" x="63.476562"/>
     <use xlink:href="#DejaVuSans-74" x="115.576172"/>
    </g>
   </g>
   <g id="PathCollection_25">
    <defs>
     <path id="m583204da2b" d="M 0 3 
C 0.795609 3 1.55874 2.683901 2.12132 2.12132 
C 2.683901 1.55874 3 0.795609 3 0 
C 3 -0.795609 2.683901 -1.55874 2.12132 -2.12132 
C 1.55874 -2.683901 0.795609 -3 0 -3 
C -0.795609 -3 -1.55874 -2.683901 -2.12132 -2.12132 
C -2.683901 -1.55874 -3 -0.795609 -3 0 
C -3 0.795609 -2.683901 1.55874 -2.12132 2.12132 
C -1.55874 2.683901 -0.795609 3 0 3 
z
" style="stroke: #3ebecf"/>
    </defs>
    <g>
     <use xlink:href="#m583204da2b" x="355.038602" y="190.8325" style="fill: #3ebecf; stroke: #3ebecf"/>
    </g>
   </g>
   <g id="text_25">
    <!-- SMC -->
    <g transform="translate(373.038602 193.4575)scale(0.1 -0.1)">
     <defs>
      <path id="DejaVuSans-43" d="M 4122 4306 
L 4122 3641 
Q 3803 3938 3442 4084 
Q 3081 4231 2675 4231 
Q 1875 4231 1450 3742 
Q 1025 3253 1025 2328 
Q 1025 1406 1450 917 
Q 1875 428 2675 428 
Q 3081 428 3442 575 
Q 3803 722 4122 1019 
L 4122 359 
Q 3791 134 3420 21 
Q 3050 -91 2638 -91 
Q 1578 -91 968 557 
Q 359 1206 359 2328 
Q 359 3453 968 4101 
Q 1578 4750 2638 4750 
Q 3056 4750 3426 4639 
Q 3797 4528 4122 4306 
z
" transform="scale(0.015625)"/>
     </defs>
     <use xlink:href="#DejaVuSans-53"/>
     <use xlink:href="#DejaVuSans-4d" x="63.476562"/>
     <use xlink:href="#DejaVuSans-43" x="149.755859"/>
    </g>
   </g>
   <g id="text_26">
    <!-- merfish_mouse -->
    <g transform="translate(353.038602 208.135625)scale(0.1 -0.1)">
     <defs>
      <path id="DejaVuSans-5f" d="M 3263 -1063 
L 3263 -1509 
L -63 -1509 
L -63 -1063 
L 3263 -1063 
z
" transform="scale(0.015625)"/>
      <path id="DejaVuSans-75" d="M 544 1381 
L 544 3500 
L 1119 3500 
L 1119 1403 
Q 1119 906 1312 657 
Q 1506 409 1894 409 
Q 2359 409 2629 706 
Q 2900 1003 2900 1516 
L 2900 3500 
L 3475 3500 
L 3475 0 
L 2900 0 
L 2900 538 
Q 2691 219 2414 64 
Q 2138 -91 1772 -91 
Q 1169 -91 856 284 
Q 544 659 544 1381 
z
M 1991 3584 
L 1991 3584 
z
" transform="scale(0.015625)"/>
     </defs>
     <use xlink:href="#DejaVuSans-6d"/>
     <use xlink:href="#DejaVuSans-65" x="97.412109"/>
     <use xlink:href="#DejaVuSans-72" x="158.935547"/>
     <use xlink:href="#DejaVuSans-66" x="200.048828"/>
     <use xlink:href="#DejaVuSans-69" x="235.253906"/>
     <use xlink:href="#DejaVuSans-73" x="263.037109"/>
     <use xlink:href="#DejaVuSans-68" x="315.136719"/>
     <use xlink:href="#DejaVuSans-5f" x="378.515625"/>
     <use xlink:href="#DejaVuSans-6d" x="428.515625"/>
     <use xlink:href="#DejaVuSans-6f" x="525.927734"/>
     <use xlink:href="#DejaVuSans-75" x="587.109375"/>
     <use xlink:href="#DejaVuSans-73" x="650.488281"/>
     <use xlink:href="#DejaVuSans-65" x="702.587891"/>
    </g>
   </g>
   <g id="PathCollection_26">
    <defs>
     <path id="m8a776153cc" d="M 0 2.12132 
C 0.562581 2.12132 1.102195 1.897805 1.5 1.5 
C 1.897805 1.102195 2.12132 0.562581 2.12132 0 
C 2.12132 -0.562581 1.897805 -1.102195 1.5 -1.5 
C 1.102195 -1.897805 0.562581 -2.12132 0 -2.12132 
C -0.562581 -2.12132 -1.102195 -1.897805 -1.5 -1.5 
C -1.897805 -1.102195 -2.12132 -0.562581 -2.12132 0 
C -2.12132 0.562581 -1.897805 1.102195 -1.5 1.5 
C -1.102195 1.897805 -0.562581 2.12132 0 2.12132 
z
" style="stroke: #333333"/>
    </defs>
    <g>
     <use xlink:href="#m8a776153cc" x="355.038602" y="220.466875" style="fill: #333333; stroke: #333333"/>
    </g>
   </g>
   <g id="text_27">
    <!-- 1 -->
    <g transform="translate(373.038602 223.091875)scale(0.1 -0.1)">
     <use xlink:href="#DejaVuSans-31"/>
    </g>
   </g>
   <g id="PathCollection_27">
    <defs>
     <path id="mfe5dee28c0" d="M 0 4.242641 
C 1.125161 4.242641 2.204391 3.795609 3 3 
C 3.795609 2.204391 4.242641 1.125161 4.242641 0 
C 4.242641 -1.125161 3.795609 -2.204391 3 -3 
C 2.204391 -3.795609 1.125161 -4.242641 0 -4.242641 
C -1.125161 -4.242641 -2.204391 -3.795609 -3 -3 
C -3.795609 -2.204391 -4.242641 -1.125161 -4.242641 0 
C -4.242641 1.125161 -3.795609 2.204391 -3 3 
C -2.204391 3.795609 -1.125161 4.242641 0 4.242641 
z
" style="stroke: #333333"/>
    </defs>
    <g>
     <use xlink:href="#mfe5dee28c0" x="355.038602" y="235.145" style="fill: #333333; stroke: #333333"/>
    </g>
   </g>
   <g id="text_28">
    <!-- 2 -->
    <g transform="translate(373.038602 237.77)scale(0.1 -0.1)">
     <use xlink:href="#DejaVuSans-32"/>
    </g>
   </g>
   <g id="text_29">
    <!-- readzs_mouse -->
    <g transform="translate(353.038602 252.448125)scale(0.1 -0.1)">
     <use xlink:href="#DejaVuSans-72"/>
     <use xlink:href="#DejaVuSans-65" x="38.863281"/>
     <use xlink:href="#DejaVuSans-61" x="100.386719"/>
     <use xlink:href="#DejaVuSans-64" x="161.666016"/>
     <use xlink:href="#DejaVuSans-7a" x="225.142578"/>
     <use xlink:href="#DejaVuSans-73" x="277.632812"/>
     <use xlink:href="#DejaVuSans-5f" x="329.732422"/>
     <use xlink:href="#DejaVuSans-6d" x="379.732422"/>
     <use xlink:href="#DejaVuSans-6f" x="477.144531"/>
     <use xlink:href="#DejaVuSans-75" x="538.326172"/>
     <use xlink:href="#DejaVuSans-73" x="601.705078"/>
     <use xlink:href="#DejaVuSans-65" x="653.804688"/>
    </g>
   </g>
   <g id="PathCollection_28">
    <defs>
     <path id="m1158b44032" d="M 0 3 
C 0.795609 3 1.55874 2.683901 2.12132 2.12132 
C 2.683901 1.55874 3 0.795609 3 0 
C 3 -0.795609 2.683901 -1.55874 2.12132 -2.12132 
C 1.55874 -2.683901 0.795609 -3 0 -3 
C -0.795609 -3 -1.55874 -2.683901 -2.12132 -2.12132 
C -2.683901 -1.55874 -3 -0.795609 -3 0 
C -3 0.795609 -2.683901 1.55874 -2.12132 2.12132 
C -1.55874 2.683901 -0.795609 3 0 3 
z
" style="stroke: #333333"/>
    </defs>
    <g>
     <use xlink:href="#m1158b44032" x="355.038602" y="264.779375" style="fill: #333333; stroke: #333333"/>
    </g>
   </g>
   <g id="text_30">
    <!-- 457911 -->
    <g transform="translate(373.038602 267.404375)scale(0.1 -0.1)">
     <defs>
      <path id="DejaVuSans-39" d="M 703 97 
L 703 672 
Q 941 559 1184 500 
Q 1428 441 1663 441 
Q 2288 441 2617 861 
Q 2947 1281 2994 2138 
Q 2813 1869 2534 1725 
Q 2256 1581 1919 1581 
Q 1219 1581 811 2004 
Q 403 2428 403 3163 
Q 403 3881 828 4315 
Q 1253 4750 1959 4750 
Q 2769 4750 3195 4129 
Q 3622 3509 3622 2328 
Q 3622 1225 3098 567 
Q 2575 -91 1691 -91 
Q 1453 -91 1209 -44 
Q 966 3 703 97 
z
M 1959 2075 
Q 2384 2075 2632 2365 
Q 2881 2656 2881 3163 
Q 2881 3666 2632 3958 
Q 2384 4250 1959 4250 
Q 1534 4250 1286 3958 
Q 1038 3666 1038 3163 
Q 1038 2656 1286 2365 
Q 1534 2075 1959 2075 
z
" transform="scale(0.015625)"/>
     </defs>
     <use xlink:href="#DejaVuSans-34"/>
     <use xlink:href="#DejaVuSans-35" x="63.623047"/>
     <use xlink:href="#DejaVuSans-37" x="127.246094"/>
     <use xlink:href="#DejaVuSans-39" x="190.869141"/>
     <use xlink:href="#DejaVuSans-31" x="254.492188"/>
     <use xlink:href="#DejaVuSans-31" x="318.115234"/>
    </g>
   </g>
   <g id="PathCollection_29">
    <defs>
     <path id="mbb9bd9ff6b" d="M -1.5 3 
L 0 1.5 
L 1.5 3 
L 3 1.5 
L 1.5 0 
L 3 -1.5 
L 1.5 -3 
L 0 -1.5 
L -1.5 -3 
L -3 -1.5 
L -1.5 0 
L -3 1.5 
z
" style="stroke: #333333"/>
    </defs>
    <g>
     <use xlink:href="#mbb9bd9ff6b" x="355.038602" y="279.4575" style="fill: #333333; stroke: #333333"/>
    </g>
   </g>
   <g id="text_31">
    <!-- 427378 -->
    <g transform="translate(373.038602 282.0825)scale(0.1 -0.1)">
     <defs>
      <path id="DejaVuSans-38" d="M 2034 2216 
Q 1584 2216 1326 1975 
Q 1069 1734 1069 1313 
Q 1069 891 1326 650 
Q 1584 409 2034 409 
Q 2484 409 2743 651 
Q 3003 894 3003 1313 
Q 3003 1734 2745 1975 
Q 2488 2216 2034 2216 
z
M 1403 2484 
Q 997 2584 770 2862 
Q 544 3141 544 3541 
Q 544 4100 942 4425 
Q 1341 4750 2034 4750 
Q 2731 4750 3128 4425 
Q 3525 4100 3525 3541 
Q 3525 3141 3298 2862 
Q 3072 2584 2669 2484 
Q 3125 2378 3379 2068 
Q 3634 1759 3634 1313 
Q 3634 634 3220 271 
Q 2806 -91 2034 -91 
Q 1263 -91 848 271 
Q 434 634 434 1313 
Q 434 1759 690 2068 
Q 947 2378 1403 2484 
z
M 1172 3481 
Q 1172 3119 1398 2916 
Q 1625 2713 2034 2713 
Q 2441 2713 2670 2916 
Q 2900 3119 2900 3481 
Q 2900 3844 2670 4047 
Q 2441 4250 2034 4250 
Q 1625 4250 1398 4047 
Q 1172 3844 1172 3481 
z
" transform="scale(0.015625)"/>
     </defs>
     <use xlink:href="#DejaVuSans-34"/>
     <use xlink:href="#DejaVuSans-32" x="63.623047"/>
     <use xlink:href="#DejaVuSans-37" x="127.246094"/>
     <use xlink:href="#DejaVuSans-33" x="190.869141"/>
     <use xlink:href="#DejaVuSans-37" x="254.492188"/>
     <use xlink:href="#DejaVuSans-38" x="318.115234"/>
    </g>
   </g>
   <g id="PathCollection_30">
    <defs>
     <path id="m90c6c4c9ff" d="M -2.12132 -2.12132 
L -2.12132 2.12132 
L 2.12132 2.12132 
L 2.12132 -2.12132 
z
" style="stroke: #333333"/>
    </defs>
    <g>
     <use xlink:href="#m90c6c4c9ff" x="355.038602" y="294.135625" style="fill: #333333; stroke: #333333"/>
    </g>
   </g>
   <g id="text_32">
    <!-- 426003 -->
    <g transform="translate(373.038602 296.760625)scale(0.1 -0.1)">
     <use xlink:href="#DejaVuSans-34"/>
     <use xlink:href="#DejaVuSans-32" x="63.623047"/>
     <use xlink:href="#DejaVuSans-36" x="127.246094"/>
     <use xlink:href="#DejaVuSans-30" x="190.869141"/>
     <use xlink:href="#DejaVuSans-30" x="254.492188"/>
     <use xlink:href="#DejaVuSans-33" x="318.115234"/>
    </g>
   </g>
   <g id="PathCollection_31">
    <defs>
     <path id="mfacf64b22a" d="M -1 3 
L 1 3 
L 1 1 
L 3 1 
L 3 -1 
L 1 -1 
L 1 -3 
L -1 -3 
L -1 -1 
L -3 -1 
L -3 1 
L -1 1 
z
" style="stroke: #333333"/>
    </defs>
    <g>
     <use xlink:href="#mfacf64b22a" x="355.038602" y="308.81375" style="fill: #333333; stroke: #333333"/>
    </g>
   </g>
   <g id="text_33">
    <!-- 457909 -->
    <g transform="translate(373.038602 311.43875)scale(0.1 -0.1)">
     <use xlink:href="#DejaVuSans-34"/>
     <use xlink:href="#DejaVuSans-35" x="63.623047"/>
     <use xlink:href="#DejaVuSans-37" x="127.246094"/>
     <use xlink:href="#DejaVuSans-39" x="190.869141"/>
     <use xlink:href="#DejaVuSans-30" x="254.492188"/>
     <use xlink:href="#DejaVuSans-39" x="318.115234"/>
    </g>
   </g>
  </g>
 </g>
 <defs>
  <clipPath id="pfa6ee96b51">
   <rect x="43.78125" y="22.318125" width="295.567977" height="307.4"/>
  </clipPath>
 </defs>
</svg>
