<?xml version="1.0" encoding="UTF-8" standalone="no"?>
<svg
   width="413.55133pt"
   height="281.25262pt"
   viewBox="0 0 413.55134 281.25262"
   version="1.1"
   id="svg3020891"
   sodipodi:docname="ddCT_p2_d2_18s.svg"
   inkscape:version="1.2.1 (9c6d41e, 2022-07-14)"
   inkscape:export-filename="exported_pngs/ddCT_p2_d2_18s.png"
   inkscape:export-xdpi="96"
   inkscape:export-ydpi="96"
   xmlns:inkscape="http://www.inkscape.org/namespaces/inkscape"
   xmlns:sodipodi="http://sodipodi.sourceforge.net/DTD/sodipodi-0.dtd"
   xmlns:xlink="http://www.w3.org/1999/xlink"
   xmlns="http://www.w3.org/2000/svg"
   xmlns:svg="http://www.w3.org/2000/svg"
   xmlns:rdf="http://www.w3.org/1999/02/22-rdf-syntax-ns#"
   xmlns:cc="http://creativecommons.org/ns#"
   xmlns:dc="http://purl.org/dc/elements/1.1/">
  <sodipodi:namedview
     id="namedview3020893"
     pagecolor="#ffffff"
     bordercolor="#000000"
     borderopacity="0.25"
     inkscape:showpageshadow="2"
     inkscape:pageopacity="0.0"
     inkscape:pagecheckerboard="0"
     inkscape:deskcolor="#d1d1d1"
     inkscape:document-units="pt"
     showgrid="false"
     inkscape:zoom="1.2276159"
     inkscape:cx="234.19377"
     inkscape:cy="203.64676"
     inkscape:window-width="1390"
     inkscape:window-height="950"
     inkscape:window-x="0"
     inkscape:window-y="25"
     inkscape:window-maximized="0"
     inkscape:current-layer="figure_1" />
  <metadata
     id="metadata3020046">
    <rdf:RDF>
      <cc:Work>
        <dc:type
           rdf:resource="http://purl.org/dc/dcmitype/StillImage" />
        <dc:date>2023-01-25T07:58:05.860393</dc:date>
        <dc:format>image/svg+xml</dc:format>
        <dc:creator>
          <cc:Agent>
            <dc:title>Matplotlib v3.5.3, https://matplotlib.org/</dc:title>
          </cc:Agent>
        </dc:creator>
      </cc:Work>
    </rdf:RDF>
  </metadata>
  <defs
     id="defs3020050">
    <style
       type="text/css"
       id="style3020048">*{stroke-linejoin: round; stroke-linecap: butt}</style>
  </defs>
  <g
     id="figure_1"
     transform="translate(-21.01875,-41.072)">
    <g
       id="axes_1">
      <g
         id="patch_2">
        <path
           d="M 57.6,307.584 H 414.72 V 41.472 H 57.6 Z"
           style="fill:#ffffff"
           id="path3020055" />
      </g>
      <g
         id="PolyCollection_1">
        <defs
           id="defs3020059">
          <path
             id="m35fb2c16cd"
             d="m 73.832727,-59.623131 v 7.324486 L 236.16,-60.513133 398.48727,-176.23709 v -90.76777 0 L 236.16,-77.837105 Z"
             style="stroke:#d0a3d0;stroke-opacity:0.2" />
        </defs>
        <g
           clip-path="url(#p74c60b6337)"
           id="g3020063">
          <use
             xlink:href="#m35fb2c16cd"
             x="0"
             y="345.60001"
             style="fill:#d0a3d0;fill-opacity:0.2;stroke:#d0a3d0;stroke-opacity:0.2"
             id="use3020061" />
        </g>
      </g>
      <g
         id="PolyCollection_2">
        <defs
           id="defs3020067">
          <path
             id="mc5a2e37a40"
             d="m 73.832727,-72.159905 v 7.428575 L 236.16,-86.160541 398.48727,-154.11738 v -40.78935 0 L 236.16,-108.4217 Z"
             style="stroke:#a3a3ff;stroke-opacity:0.2" />
        </defs>
        <g
           clip-path="url(#p74c60b6337)"
           id="g3020071">
          <use
             xlink:href="#mc5a2e37a40"
             x="0"
             y="345.60001"
             style="fill:#a3a3ff;fill-opacity:0.2;stroke:#a3a3ff;stroke-opacity:0.2"
             id="use3020069" />
        </g>
      </g>
      <g
         id="PathCollection_1">
        <defs
           id="defs3020075">
          <path
             id="C0_0_36c696e60a"
             d="M 0,3 C 0.795609,3 1.55874,2.683901 2.12132,2.12132 2.683901,1.55874 3,0.795609 3,0 3,-0.795609 2.683901,-1.55874 2.12132,-2.12132 1.55874,-2.683901 0.795609,-3 0,-3 -0.795609,-3 -1.55874,-2.683901 -2.12132,-2.12132 -2.683901,-1.55874 -3,-0.795609 -3,0 -3,0.795609 -2.683901,1.55874 -2.12132,2.12132 -1.55874,2.683901 -0.795609,3 0,3 Z" />
        </defs>
        <g
           clip-path="url(#p74c60b6337)"
           id="g3020079">
          <use
             xlink:href="#C0_0_36c696e60a"
             x="73.832726"
             y="286.74142"
             style="fill:#d0a3d0;stroke:#ffffff;stroke-width:0.48"
             id="use3020077" />
        </g>
        <g
           clip-path="url(#p74c60b6337)"
           id="g3020083">
          <use
             xlink:href="#C0_0_36c696e60a"
             x="73.832726"
             y="290.49643"
             style="fill:#d0a3d0;stroke:#ffffff;stroke-width:0.48"
             id="use3020081" />
        </g>
        <g
           clip-path="url(#p74c60b6337)"
           id="g3020087">
          <use
             xlink:href="#C0_0_36c696e60a"
             x="73.832726"
             y="285.21231"
             style="fill:#d0a3d0;stroke:#ffffff;stroke-width:0.48"
             id="use3020085" />
        </g>
        <g
           clip-path="url(#p74c60b6337)"
           id="g3020091">
          <use
             xlink:href="#C0_0_36c696e60a"
             x="73.832726"
             y="295.48801"
             style="fill:#d0a3d0;stroke:#ffffff;stroke-width:0.48"
             id="use3020089" />
        </g>
        <g
           clip-path="url(#p74c60b6337)"
           id="g3020095">
          <use
             xlink:href="#C0_0_36c696e60a"
             x="73.832726"
             y="282.707"
             style="fill:#a3a3ff;stroke:#ffffff;stroke-width:0.48"
             id="use3020093" />
        </g>
        <g
           clip-path="url(#p74c60b6337)"
           id="g3020099">
          <use
             xlink:href="#C0_0_36c696e60a"
             x="73.832726"
             y="277.3562"
             style="fill:#a3a3ff;stroke:#ffffff;stroke-width:0.48"
             id="use3020097" />
        </g>
        <g
           clip-path="url(#p74c60b6337)"
           id="g3020103">
          <use
             xlink:href="#C0_0_36c696e60a"
             x="73.832726"
             y="272.13474"
             style="fill:#a3a3ff;stroke:#ffffff;stroke-width:0.48"
             id="use3020101" />
        </g>
        <g
           clip-path="url(#p74c60b6337)"
           id="g3020107">
          <use
             xlink:href="#C0_0_36c696e60a"
             x="73.832726"
             y="275.35367"
             style="fill:#a3a3ff;stroke:#ffffff;stroke-width:0.48"
             id="use3020105" />
        </g>
        <g
           clip-path="url(#p74c60b6337)"
           id="g3020111">
          <use
             xlink:href="#C0_0_36c696e60a"
             x="236.16"
             y="284.12778"
             style="fill:#d0a3d0;stroke:#ffffff;stroke-width:0.48"
             id="use3020109" />
        </g>
        <g
           clip-path="url(#p74c60b6337)"
           id="g3020115">
          <use
             xlink:href="#C0_0_36c696e60a"
             x="236.16"
             y="285.40656"
             style="fill:#d0a3d0;stroke:#ffffff;stroke-width:0.48"
             id="use3020113" />
        </g>
        <g
           clip-path="url(#p74c60b6337)"
           id="g3020119">
          <use
             xlink:href="#C0_0_36c696e60a"
             x="236.16"
             y="266.64896"
             style="fill:#d0a3d0;stroke:#ffffff;stroke-width:0.48"
             id="use3020117" />
        </g>
        <g
           clip-path="url(#p74c60b6337)"
           id="g3020123">
          <use
             xlink:href="#C0_0_36c696e60a"
             x="236.16"
             y="271.10474"
             style="fill:#d0a3d0;stroke:#ffffff;stroke-width:0.48"
             id="use3020121" />
        </g>
        <g
           clip-path="url(#p74c60b6337)"
           id="g3020127">
          <use
             xlink:href="#C0_0_36c696e60a"
             x="236.16"
             y="239.50163"
             style="fill:#a3a3ff;stroke:#ffffff;stroke-width:0.48"
             id="use3020125" />
        </g>
        <g
           clip-path="url(#p74c60b6337)"
           id="g3020131">
          <use
             xlink:href="#C0_0_36c696e60a"
             x="236.16"
             y="266.08539"
             style="fill:#a3a3ff;stroke:#ffffff;stroke-width:0.48"
             id="use3020129" />
        </g>
        <g
           clip-path="url(#p74c60b6337)"
           id="g3020135">
          <use
             xlink:href="#C0_0_36c696e60a"
             x="236.16"
             y="236.40385"
             style="fill:#a3a3ff;stroke:#ffffff;stroke-width:0.48"
             id="use3020133" />
        </g>
        <g
           clip-path="url(#p74c60b6337)"
           id="g3020139">
          <use
             xlink:href="#C0_0_36c696e60a"
             x="236.16"
             y="241.70607"
             style="fill:#a3a3ff;stroke:#ffffff;stroke-width:0.48"
             id="use3020137" />
        </g>
        <g
           clip-path="url(#p74c60b6337)"
           id="g3020143">
          <use
             xlink:href="#C0_0_36c696e60a"
             x="398.48727"
             y="53.568001"
             style="fill:#d0a3d0;stroke:#ffffff;stroke-width:0.48"
             id="use3020141" />
        </g>
        <g
           clip-path="url(#p74c60b6337)"
           id="g3020147">
          <use
             xlink:href="#C0_0_36c696e60a"
             x="398.48727"
             y="153.67654"
             style="fill:#d0a3d0;stroke:#ffffff;stroke-width:0.48"
             id="use3020145" />
        </g>
        <g
           clip-path="url(#p74c60b6337)"
           id="g3020151">
          <use
             xlink:href="#C0_0_36c696e60a"
             x="398.48727"
             y="150.02742"
             style="fill:#d0a3d0;stroke:#ffffff;stroke-width:0.48"
             id="use3020149" />
        </g>
        <g
           clip-path="url(#p74c60b6337)"
           id="g3020155">
          <use
             xlink:href="#C0_0_36c696e60a"
             x="398.48727"
             y="175.80807"
             style="fill:#d0a3d0;stroke:#ffffff;stroke-width:0.48"
             id="use3020153" />
        </g>
        <g
           clip-path="url(#p74c60b6337)"
           id="g3020159">
          <use
             xlink:href="#C0_0_36c696e60a"
             x="398.48727"
             y="138.61348"
             style="fill:#a3a3ff;stroke:#ffffff;stroke-width:0.48"
             id="use3020157" />
        </g>
        <g
           clip-path="url(#p74c60b6337)"
           id="g3020163">
          <use
             xlink:href="#C0_0_36c696e60a"
             x="398.48727"
             y="186.93266"
             style="fill:#a3a3ff;stroke:#ffffff;stroke-width:0.48"
             id="use3020161" />
        </g>
        <g
           clip-path="url(#p74c60b6337)"
           id="g3020167">
          <use
             xlink:href="#C0_0_36c696e60a"
             x="398.48727"
             y="180.63138"
             style="fill:#a3a3ff;stroke:#ffffff;stroke-width:0.48"
             id="use3020165" />
        </g>
        <g
           clip-path="url(#p74c60b6337)"
           id="g3020171">
          <use
             xlink:href="#C0_0_36c696e60a"
             x="398.48727"
             y="196.03259"
             style="fill:#a3a3ff;stroke:#ffffff;stroke-width:0.48"
             id="use3020169" />
        </g>
      </g>
      <g
         id="matplotlib.axis_1">
        <g
           id="xtick_1">
          <g
             id="line2d_1">
            <defs
               id="defs3020175">
              <path
                 id="m071489e83e"
                 d="M 0,0 V 3.5"
                 style="stroke:#000000;stroke-width:0.8" />
            </defs>
            <g
               id="g3020179">
              <use
                 xlink:href="#m071489e83e"
                 x="73.832726"
                 y="307.58401"
                 style="stroke:#000000;stroke-width:0.8"
                 id="use3020177" />
            </g>
          </g>
          <g
             id="text_1">
            <!-- 6 to 24 hours -->
            <g
               transform="matrix(0.1,0,0,-0.1,40.445227,322.18244)"
               id="g3020220">
              <defs
                 id="defs3020192">
                <path
                   id="DejaVuSans-36"
                   d="m 2113,2584 q -425,0 -674,-291 -248,-290 -248,-796 0,-503 248,-796 249,-292 674,-292 425,0 673,292 248,293 248,796 0,506 -248,796 -248,291 -673,291 z m 1253,1979 v -575 q -238,112 -480,171 -242,60 -480,60 -625,0 -955,-422 -329,-422 -376,-1275 184,272 462,417 279,145 613,145 703,0 1111,-427 408,-426 408,-1160 0,-719 -425,-1154 -425,-434 -1131,-434 -810,0 -1238,620 -428,621 -428,1799 0,1106 525,1764 525,658 1409,658 238,0 480,-47 242,-47 505,-140 z"
                   transform="scale(0.015625)" />
                <path
                   id="DejaVuSans-20"
                   transform="scale(0.015625)"
                   d="" />
                <path
                   id="DejaVuSans-74"
                   d="M 1172,4494 V 3500 H 2356 V 3053 H 1172 V 1153 q 0,-428 117,-550 117,-122 477,-122 h 590 V 0 H 1766 Q 1100,0 847,248 594,497 594,1153 V 3053 H 172 v 447 h 422 v 994 z"
                   transform="scale(0.015625)" />
                <path
                   id="DejaVuSans-6f"
                   d="m 1959,3097 q -462,0 -731,-361 -269,-361 -269,-989 0,-628 267,-989 268,-361 733,-361 460,0 728,362 269,363 269,988 0,622 -269,986 -268,364 -728,364 z m 0,487 q 750,0 1178,-488 429,-487 429,-1349 Q 3566,888 3137,398 2709,-91 1959,-91 1206,-91 779,398 353,888 353,1747 q 0,862 426,1349 427,488 1180,488 z"
                   transform="scale(0.015625)" />
                <path
                   id="DejaVuSans-32"
                   d="M 1228,531 H 3431 V 0 H 469 v 531 q 359,372 979,998 621,627 780,809 303,340 423,576 121,236 121,464 0,372 -261,606 -261,235 -680,235 -297,0 -627,-103 -329,-103 -704,-313 v 638 q 381,153 712,231 332,78 607,78 725,0 1156,-363 431,-362 431,-968 0,-288 -108,-546 -107,-257 -392,-607 -78,-91 -497,-524 Q 1991,1309 1228,531 Z"
                   transform="scale(0.015625)" />
                <path
                   id="DejaVuSans-34"
                   d="M 2419,4116 825,1625 h 1594 z m -166,550 h 794 V 1625 h 666 V 1100 H 3047 V 0 H 2419 V 1100 H 313 v 609 z"
                   transform="scale(0.015625)" />
                <path
                   id="DejaVuSans-68"
                   d="M 3513,2113 V 0 h -575 v 2094 q 0,497 -194,743 -194,247 -581,247 -466,0 -735,-297 -269,-296 -269,-809 V 0 H 581 v 4863 h 578 V 2956 q 207,316 486,472 280,156 646,156 603,0 912,-373 310,-373 310,-1098 z"
                   transform="scale(0.015625)" />
                <path
                   id="DejaVuSans-75"
                   d="m 544,1381 v 2119 h 575 V 1403 q 0,-497 193,-746 194,-248 582,-248 465,0 735,297 271,297 271,810 v 1984 h 575 V 0 H 2900 V 538 Q 2691,219 2414,64 2138,-91 1772,-91 1169,-91 856,284 544,659 544,1381 Z m 1447,2203 z"
                   transform="scale(0.015625)" />
                <path
                   id="DejaVuSans-72"
                   d="m 2631,2963 q -97,56 -211,82 -114,27 -251,27 -488,0 -749,-317 -261,-317 -261,-911 V 0 H 581 v 3500 h 578 v -544 q 182,319 472,473 291,155 707,155 59,0 131,-8 72,-7 159,-23 z"
                   transform="scale(0.015625)" />
                <path
                   id="DejaVuSans-73"
                   d="m 2834,3397 v -544 q -243,125 -506,187 -262,63 -544,63 -428,0 -642,-131 -214,-131 -214,-394 0,-200 153,-314 153,-114 616,-217 l 197,-44 q 612,-131 870,-370 258,-239 258,-667 0,-488 -386,-773 Q 2250,-91 1575,-91 1294,-91 989,-36 684,19 347,128 v 594 q 319,-166 628,-249 309,-82 613,-82 406,0 624,139 219,139 219,392 0,234 -158,359 -157,125 -692,241 l -200,47 q -534,112 -772,345 -237,233 -237,639 0,494 350,762 350,269 994,269 318,0 599,-47 282,-46 519,-140 z"
                   transform="scale(0.015625)" />
              </defs>
              <use
                 xlink:href="#DejaVuSans-36"
                 id="use3020194" />
              <use
                 xlink:href="#DejaVuSans-20"
                 x="63.623047"
                 id="use3020196" />
              <use
                 xlink:href="#DejaVuSans-74"
                 x="95.410156"
                 id="use3020198" />
              <use
                 xlink:href="#DejaVuSans-6f"
                 x="134.61914"
                 id="use3020200" />
              <use
                 xlink:href="#DejaVuSans-20"
                 x="195.80078"
                 id="use3020202" />
              <use
                 xlink:href="#DejaVuSans-32"
                 x="227.58789"
                 id="use3020204" />
              <use
                 xlink:href="#DejaVuSans-34"
                 x="291.21094"
                 id="use3020206" />
              <use
                 xlink:href="#DejaVuSans-20"
                 x="354.83398"
                 id="use3020208" />
              <use
                 xlink:href="#DejaVuSans-68"
                 x="386.62109"
                 id="use3020210" />
              <use
                 xlink:href="#DejaVuSans-6f"
                 x="450"
                 id="use3020212" />
              <use
                 xlink:href="#DejaVuSans-75"
                 x="511.18164"
                 id="use3020214" />
              <use
                 xlink:href="#DejaVuSans-72"
                 x="574.56055"
                 id="use3020216" />
              <use
                 xlink:href="#DejaVuSans-73"
                 x="615.67383"
                 id="use3020218" />
            </g>
          </g>
        </g>
        <g
           id="xtick_2">
          <g
             id="line2d_2">
            <g
               id="g3020226">
              <use
                 xlink:href="#m071489e83e"
                 x="236.16"
                 y="307.58401"
                 style="stroke:#000000;stroke-width:0.8"
                 id="use3020224" />
            </g>
          </g>
          <g
             id="text_2">
            <!-- 24 to 48 hours -->
            <g
               transform="matrix(0.1,0,0,-0.1,199.59125,322.18244)"
               id="g3020260">
              <defs
                 id="defs3020230">
                <path
                   id="DejaVuSans-38"
                   d="m 2034,2216 q -450,0 -708,-241 -257,-241 -257,-662 0,-422 257,-663 258,-241 708,-241 450,0 709,242 260,243 260,662 0,421 -258,662 -257,241 -711,241 z m -631,268 q -406,100 -633,378 -226,279 -226,679 0,559 398,884 399,325 1092,325 697,0 1094,-325 397,-325 397,-884 0,-400 -227,-679 -226,-278 -629,-378 456,-106 710,-416 255,-309 255,-755 Q 3634,634 3220,271 2806,-91 2034,-91 1263,-91 848,271 434,634 434,1313 q 0,446 256,755 257,310 713,416 z m -231,997 q 0,-362 226,-565 227,-203 636,-203 407,0 636,203 230,203 230,565 0,363 -230,566 -229,203 -636,203 -409,0 -636,-203 -226,-203 -226,-566 z"
                   transform="scale(0.015625)" />
              </defs>
              <use
                 xlink:href="#DejaVuSans-32"
                 id="use3020232" />
              <use
                 xlink:href="#DejaVuSans-34"
                 x="63.623047"
                 id="use3020234" />
              <use
                 xlink:href="#DejaVuSans-20"
                 x="127.24609"
                 id="use3020236" />
              <use
                 xlink:href="#DejaVuSans-74"
                 x="159.0332"
                 id="use3020238" />
              <use
                 xlink:href="#DejaVuSans-6f"
                 x="198.24219"
                 id="use3020240" />
              <use
                 xlink:href="#DejaVuSans-20"
                 x="259.42383"
                 id="use3020242" />
              <use
                 xlink:href="#DejaVuSans-34"
                 x="291.21094"
                 id="use3020244" />
              <use
                 xlink:href="#DejaVuSans-38"
                 x="354.83398"
                 id="use3020246" />
              <use
                 xlink:href="#DejaVuSans-20"
                 x="418.45703"
                 id="use3020248" />
              <use
                 xlink:href="#DejaVuSans-68"
                 x="450.24414"
                 id="use3020250" />
              <use
                 xlink:href="#DejaVuSans-6f"
                 x="513.62305"
                 id="use3020252" />
              <use
                 xlink:href="#DejaVuSans-75"
                 x="574.80469"
                 id="use3020254" />
              <use
                 xlink:href="#DejaVuSans-72"
                 x="638.18359"
                 id="use3020256" />
              <use
                 xlink:href="#DejaVuSans-73"
                 x="679.29688"
                 id="use3020258" />
            </g>
          </g>
        </g>
        <g
           id="xtick_3">
          <g
             id="line2d_3">
            <g
               id="g3020266">
              <use
                 xlink:href="#m071489e83e"
                 x="398.48727"
                 y="307.58401"
                 style="stroke:#000000;stroke-width:0.8"
                 id="use3020264" />
            </g>
          </g>
          <g
             id="text_3">
            <!-- 48 to 72 hours -->
            <g
               transform="matrix(0.1,0,0,-0.1,361.91852,322.18244)"
               id="g3020300">
              <defs
                 id="defs3020270">
                <path
                   id="DejaVuSans-37"
                   d="M 525,4666 H 3525 V 4397 L 1831,0 H 1172 L 2766,4134 H 525 Z"
                   transform="scale(0.015625)" />
              </defs>
              <use
                 xlink:href="#DejaVuSans-34"
                 id="use3020272" />
              <use
                 xlink:href="#DejaVuSans-38"
                 x="63.623047"
                 id="use3020274" />
              <use
                 xlink:href="#DejaVuSans-20"
                 x="127.24609"
                 id="use3020276" />
              <use
                 xlink:href="#DejaVuSans-74"
                 x="159.0332"
                 id="use3020278" />
              <use
                 xlink:href="#DejaVuSans-6f"
                 x="198.24219"
                 id="use3020280" />
              <use
                 xlink:href="#DejaVuSans-20"
                 x="259.42383"
                 id="use3020282" />
              <use
                 xlink:href="#DejaVuSans-37"
                 x="291.21094"
                 id="use3020284" />
              <use
                 xlink:href="#DejaVuSans-32"
                 x="354.83398"
                 id="use3020286" />
              <use
                 xlink:href="#DejaVuSans-20"
                 x="418.45703"
                 id="use3020288" />
              <use
                 xlink:href="#DejaVuSans-68"
                 x="450.24414"
                 id="use3020290" />
              <use
                 xlink:href="#DejaVuSans-6f"
                 x="513.62305"
                 id="use3020292" />
              <use
                 xlink:href="#DejaVuSans-75"
                 x="574.80469"
                 id="use3020294" />
              <use
                 xlink:href="#DejaVuSans-72"
                 x="638.18359"
                 id="use3020296" />
              <use
                 xlink:href="#DejaVuSans-73"
                 x="679.29688"
                 id="use3020298" />
            </g>
          </g>
        </g>
      </g>
      <g
         id="matplotlib.axis_2">
        <g
           id="ytick_1">
          <g
             id="line2d_4">
            <defs
               id="defs3020306">
              <path
                 id="m591b61bafd"
                 d="M 0,0 H -3.5"
                 style="stroke:#000000;stroke-width:0.8" />
            </defs>
            <g
               id="g3020310">
              <use
                 xlink:href="#m591b61bafd"
                 x="57.599998"
                 y="284.72275"
                 style="stroke:#000000;stroke-width:0.8"
                 id="use3020308" />
            </g>
          </g>
          <g
             id="text_4">
            <!-- 0.5 -->
            <g
               transform="matrix(0.1,0,0,-0.1,34.696875,288.52198)"
               id="g3020324">
              <defs
                 id="defs3020316">
                <path
                   id="DejaVuSans-30"
                   d="m 2034,4250 q -487,0 -733,-480 -245,-479 -245,-1442 0,-959 245,-1439 246,-480 733,-480 491,0 736,480 246,480 246,1439 0,963 -246,1442 -245,480 -736,480 z m 0,500 q 785,0 1199,-621 414,-620 414,-1801 0,-1178 -414,-1799 -414,-620 -1199,-620 -784,0 -1198,620 -414,621 -414,1799 0,1181 414,1801 414,621 1198,621 z"
                   transform="scale(0.015625)" />
                <path
                   id="DejaVuSans-2e"
                   d="m 684,794 h 660 V 0 H 684 Z"
                   transform="scale(0.015625)" />
                <path
                   id="DejaVuSans-35"
                   d="M 691,4666 H 3169 V 4134 H 1269 V 2991 q 137,47 274,70 138,23 276,23 781,0 1237,-428 457,-428 457,-1159 Q 3513,744 3044,326 2575,-91 1722,-91 1428,-91 1123,-41 819,9 494,109 v 635 q 281,-153 581,-228 300,-75 634,-75 541,0 856,284 316,284 316,772 0,487 -316,771 -315,285 -856,285 -253,0 -505,-56 -251,-56 -513,-175 z"
                   transform="scale(0.015625)" />
              </defs>
              <use
                 xlink:href="#DejaVuSans-30"
                 id="use3020318" />
              <use
                 xlink:href="#DejaVuSans-2e"
                 x="63.623047"
                 id="use3020320" />
              <use
                 xlink:href="#DejaVuSans-35"
                 x="95.410156"
                 id="use3020322" />
            </g>
          </g>
        </g>
        <g
           id="ytick_2">
          <g
             id="line2d_5">
            <g
               id="g3020330">
              <use
                 xlink:href="#m591b61bafd"
                 x="57.599998"
                 y="242.10089"
                 style="stroke:#000000;stroke-width:0.8"
                 id="use3020328" />
            </g>
          </g>
          <g
             id="text_5">
            <!-- 1.0 -->
            <g
               transform="matrix(0.1,0,0,-0.1,34.696875,245.90011)"
               id="g3020342">
              <defs
                 id="defs3020334">
                <path
                   id="DejaVuSans-31"
                   d="M 794,531 H 1825 V 4091 L 703,3866 v 575 l 1116,225 h 631 V 531 H 3481 V 0 H 794 Z"
                   transform="scale(0.015625)" />
              </defs>
              <use
                 xlink:href="#DejaVuSans-31"
                 id="use3020336" />
              <use
                 xlink:href="#DejaVuSans-2e"
                 x="63.623047"
                 id="use3020338" />
              <use
                 xlink:href="#DejaVuSans-30"
                 x="95.410156"
                 id="use3020340" />
            </g>
          </g>
        </g>
        <g
           id="ytick_3">
          <g
             id="line2d_6">
            <g
               id="g3020348">
              <use
                 xlink:href="#m591b61bafd"
                 x="57.599998"
                 y="199.479"
                 style="stroke:#000000;stroke-width:0.8"
                 id="use3020346" />
            </g>
          </g>
          <g
             id="text_6">
            <!-- 1.5 -->
            <g
               transform="matrix(0.1,0,0,-0.1,34.696875,203.27823)"
               id="g3020357">
              <use
                 xlink:href="#DejaVuSans-31"
                 id="use3020351" />
              <use
                 xlink:href="#DejaVuSans-2e"
                 x="63.623047"
                 id="use3020353" />
              <use
                 xlink:href="#DejaVuSans-35"
                 x="95.410156"
                 id="use3020355" />
            </g>
          </g>
        </g>
        <g
           id="ytick_4">
          <g
             id="line2d_7">
            <g
               id="g3020363">
              <use
                 xlink:href="#m591b61bafd"
                 x="57.599998"
                 y="156.85713"
                 style="stroke:#000000;stroke-width:0.8"
                 id="use3020361" />
            </g>
          </g>
          <g
             id="text_7">
            <!-- 2.0 -->
            <g
               transform="matrix(0.1,0,0,-0.1,34.696875,160.65635)"
               id="g3020372">
              <use
                 xlink:href="#DejaVuSans-32"
                 id="use3020366" />
              <use
                 xlink:href="#DejaVuSans-2e"
                 x="63.623047"
                 id="use3020368" />
              <use
                 xlink:href="#DejaVuSans-30"
                 x="95.410156"
                 id="use3020370" />
            </g>
          </g>
        </g>
        <g
           id="ytick_5">
          <g
             id="line2d_8">
            <g
               id="g3020378">
              <use
                 xlink:href="#m591b61bafd"
                 x="57.599998"
                 y="114.23526"
                 style="stroke:#000000;stroke-width:0.8"
                 id="use3020376" />
            </g>
          </g>
          <g
             id="text_8">
            <!-- 2.5 -->
            <g
               transform="matrix(0.1,0,0,-0.1,34.696875,118.03448)"
               id="g3020387">
              <use
                 xlink:href="#DejaVuSans-32"
                 id="use3020381" />
              <use
                 xlink:href="#DejaVuSans-2e"
                 x="63.623047"
                 id="use3020383" />
              <use
                 xlink:href="#DejaVuSans-35"
                 x="95.410156"
                 id="use3020385" />
            </g>
          </g>
        </g>
        <g
           id="ytick_6">
          <g
             id="line2d_9">
            <g
               id="g3020393">
              <use
                 xlink:href="#m591b61bafd"
                 x="57.599998"
                 y="71.61338"
                 style="stroke:#000000;stroke-width:0.8"
                 id="use3020391" />
            </g>
          </g>
          <g
             id="text_9">
            <!-- 3.0 -->
            <g
               transform="matrix(0.1,0,0,-0.1,34.696875,75.412599)"
               id="g3020405">
              <defs
                 id="defs3020397">
                <path
                   id="DejaVuSans-33"
                   d="m 2597,2516 q 453,-97 707,-404 255,-306 255,-756 0,-690 -475,-1069 -475,-378 -1350,-378 -293,0 -604,58 -311,58 -642,174 v 609 q 262,-153 574,-231 313,-78 654,-78 593,0 904,234 311,234 311,681 0,413 -289,645 -289,233 -804,233 h -544 v 519 h 569 q 465,0 712,186 247,186 247,536 0,359 -255,551 -254,193 -729,193 -260,0 -557,-57 -297,-56 -653,-174 v 562 q 360,100 674,150 314,50 592,50 719,0 1137,-327 419,-326 419,-882 0,-388 -222,-655 -222,-267 -631,-370 z"
                   transform="scale(0.015625)" />
              </defs>
              <use
                 xlink:href="#DejaVuSans-33"
                 id="use3020399" />
              <use
                 xlink:href="#DejaVuSans-2e"
                 x="63.623047"
                 id="use3020401" />
              <use
                 xlink:href="#DejaVuSans-30"
                 x="95.410156"
                 id="use3020403" />
            </g>
          </g>
        </g>
        <g
           id="text_10">
          <!-- Fold change -->
          <g
             transform="matrix(0,-0.1,-0.1,0,28.617187,204.83581)"
             id="g3020441">
            <defs
               id="defs3020417">
              <path
                 id="DejaVuSans-46"
                 d="M 628,4666 H 3309 V 4134 H 1259 V 2759 H 3109 V 2228 H 1259 V 0 H 628 Z"
                 transform="scale(0.015625)" />
              <path
                 id="DejaVuSans-6c"
                 d="m 603,4863 h 575 V 0 H 603 Z"
                 transform="scale(0.015625)" />
              <path
                 id="DejaVuSans-64"
                 d="m 2906,2969 v 1894 h 575 V 0 H 2906 V 525 Q 2725,213 2448,61 2172,-91 1784,-91 1150,-91 751,415 353,922 353,1747 q 0,825 398,1331 399,506 1033,506 388,0 664,-152 277,-151 458,-463 z M 947,1747 q 0,-634 261,-995 261,-361 717,-361 456,0 718,361 263,361 263,995 0,634 -263,995 -262,361 -718,361 -456,0 -717,-361 -261,-361 -261,-995 z"
                 transform="scale(0.015625)" />
              <path
                 id="DejaVuSans-63"
                 d="m 3122,3366 v -538 q -244,135 -489,202 -245,67 -495,67 -560,0 -870,-355 -309,-354 -309,-995 0,-641 309,-996 310,-354 870,-354 250,0 495,67 245,67 489,202 V 134 Q 2881,22 2623,-34 2366,-91 2075,-91 1284,-91 818,406 353,903 353,1747 q 0,856 470,1346 471,491 1290,491 265,0 518,-55 253,-54 491,-163 z"
                 transform="scale(0.015625)" />
              <path
                 id="DejaVuSans-61"
                 d="m 2194,1759 q -697,0 -966,-159 -269,-159 -269,-544 0,-306 202,-486 202,-179 548,-179 479,0 768,339 289,339 289,901 v 128 z m 1147,238 V 0 H 2766 V 531 Q 2569,213 2275,61 1981,-91 1556,-91 q -537,0 -855,302 -317,302 -317,808 0,590 395,890 396,300 1180,300 h 807 v 57 q 0,397 -261,614 -261,217 -733,217 -300,0 -585,-72 -284,-72 -546,-216 v 532 q 315,122 612,182 297,61 578,61 760,0 1135,-394 375,-393 375,-1193 z"
                 transform="scale(0.015625)" />
              <path
                 id="DejaVuSans-6e"
                 d="M 3513,2113 V 0 h -575 v 2094 q 0,497 -194,743 -194,247 -581,247 -466,0 -735,-297 -269,-296 -269,-809 V 0 H 581 v 3500 h 578 v -544 q 207,316 486,472 280,156 646,156 603,0 912,-373 310,-373 310,-1098 z"
                 transform="scale(0.015625)" />
              <path
                 id="DejaVuSans-67"
                 d="m 2906,1791 q 0,625 -258,968 -257,344 -723,344 -462,0 -720,-344 -258,-343 -258,-968 0,-622 258,-966 258,-344 720,-344 466,0 723,344 258,344 258,966 z M 3481,434 q 0,-893 -397,-1329 -396,-436 -1215,-436 -303,0 -572,45 -269,45 -522,139 v 559 q 253,-137 500,-202 247,-66 503,-66 566,0 847,295 281,295 281,892 V 616 Q 2728,306 2450,153 2172,0 1784,0 1141,0 747,490 353,981 353,1791 q 0,812 394,1302 394,491 1037,491 388,0 666,-153 278,-153 456,-462 v 531 h 575 z"
                 transform="scale(0.015625)" />
              <path
                 id="DejaVuSans-65"
                 d="M 3597,1894 V 1613 H 953 q 38,-594 358,-905 320,-311 892,-311 331,0 642,81 311,81 618,244 V 178 Q 3153,47 2828,-22 2503,-91 2169,-91 1331,-91 842,396 353,884 353,1716 q 0,859 464,1363 464,505 1252,505 706,0 1117,-455 411,-454 411,-1235 z m -575,169 q -6,471 -264,752 -258,282 -683,282 -481,0 -770,-272 -289,-272 -333,-766 z"
                 transform="scale(0.015625)" />
            </defs>
            <use
               xlink:href="#DejaVuSans-46"
               id="use3020419" />
            <use
               xlink:href="#DejaVuSans-6f"
               x="53.894531"
               id="use3020421" />
            <use
               xlink:href="#DejaVuSans-6c"
               x="115.07617"
               id="use3020423" />
            <use
               xlink:href="#DejaVuSans-64"
               x="142.85938"
               id="use3020425" />
            <use
               xlink:href="#DejaVuSans-20"
               x="206.33594"
               id="use3020427" />
            <use
               xlink:href="#DejaVuSans-63"
               x="238.12305"
               id="use3020429" />
            <use
               xlink:href="#DejaVuSans-68"
               x="293.10352"
               id="use3020431" />
            <use
               xlink:href="#DejaVuSans-61"
               x="356.48242"
               id="use3020433" />
            <use
               xlink:href="#DejaVuSans-6e"
               x="417.76172"
               id="use3020435" />
            <use
               xlink:href="#DejaVuSans-67"
               x="481.14062"
               id="use3020437" />
            <use
               xlink:href="#DejaVuSans-65"
               x="544.61719"
               id="use3020439" />
          </g>
        </g>
      </g>
      <g
         id="line2d_10">
        <path
           d="M 73.832727,289.48455 236.16,276.82201 398.48727,133.27001"
           clip-path="url(#p74c60b6337)"
           style="fill:none;stroke:#d0a3d0;stroke-width:1.5;stroke-linecap:square"
           id="path3020445" />
      </g>
      <g
         id="line2d_11">
        <path
           d="M 73.832727,276.8879 236.16,245.92424 398.48727,175.55252"
           clip-path="url(#p74c60b6337)"
           style="fill:none;stroke:#a3a3ff;stroke-width:1.5;stroke-linecap:square"
           id="path3020448" />
      </g>
      <g
         id="line2d_12" />
      <g
         id="line2d_13" />
      <g
         id="line2d_14">
        <path
           d="M 57.6,242.10089 H 414.72"
           clip-path="url(#p74c60b6337)"
           style="fill:none;stroke:#808080;stroke-width:1.5;stroke-dasharray:5.55, 2.4;stroke-dashoffset:0"
           id="path3020453" />
      </g>
      <g
         id="patch_3">
        <path
           d="M 57.6,307.584 V 41.472"
           style="fill:none;stroke:#000000;stroke-width:0.8;stroke-linecap:square;stroke-linejoin:miter"
           id="path3020456" />
      </g>
      <g
         id="patch_4">
        <path
           d="M 414.72,307.584 V 41.472"
           style="fill:none;stroke:#000000;stroke-width:0.8;stroke-linecap:square;stroke-linejoin:miter"
           id="path3020459" />
      </g>
      <g
         id="patch_5">
        <path
           d="M 57.6,307.584 H 414.72"
           style="fill:none;stroke:#000000;stroke-width:0.8;stroke-linecap:square;stroke-linejoin:miter"
           id="path3020462" />
      </g>
      <g
         id="patch_6">
        <path
           d="M 57.6,41.472 H 414.72"
           style="fill:none;stroke:#000000;stroke-width:0.8;stroke-linecap:square;stroke-linejoin:miter"
           id="path3020465" />
      </g>
      <g
         id="legend_1">
        <g
           id="patch_7">
          <path
             d="m 64.6,78.82825 h 74.89062 q 2,0 2,-2 V 48.472 q 0,-2 -2,-2 H 64.6 q -2,0 -2,2 v 28.35625 q 0,2 2,2 z"
             style="opacity:0.8;fill:#ffffff;stroke:#cccccc;stroke-linejoin:miter"
             id="path3020840" />
        </g>
        <g
           id="line2d_15">
          <path
             d="m 66.6,54.570437 h 10 10"
             style="fill:none;stroke:#d0a3d0;stroke-width:1.5;stroke-linecap:square"
             id="path3020843" />
        </g>
        <g
           id="text_12">
          <!-- Distal -->
          <g
             transform="matrix(0.1,0,0,-0.1,94.6,58.070437)"
             id="g3020858">
            <path
               id="use3020846"
               d="M 19.671875,64.796875 V 8.109375 H 31.59375 q 15.09375,0 22.09375,6.828125 7,6.84375 7,21.59375 0,14.640625 -7,21.453125 -7,6.8125 -22.09375,6.8125 z M 9.8125,72.90625 h 20.265625 q 21.1875,0 31.09375,-8.8125 9.921875,-8.8125 9.921875,-27.5625 0,-18.859375 -9.96875,-27.703125 Q 51.171875,0 30.078125,0 H 9.8125 Z"
               style="stroke-width:0.015625" />
            <path
               id="use3020848"
               d="m 86.423828,54.6875 h 8.984375 V 0 h -8.984375 z m 0,21.296875 h 8.984375 V 64.59375 h -8.984375 z"
               style="stroke-width:0.015625" />
            <use
               xlink:href="#DejaVuSans-73"
               x="104.78516"
               id="use3020850" />
            <use
               xlink:href="#DejaVuSans-74"
               x="156.88477"
               id="use3020852" />
            <use
               xlink:href="#DejaVuSans-61"
               x="196.09375"
               id="use3020854" />
            <use
               xlink:href="#DejaVuSans-6c"
               x="257.37305"
               id="use3020856" />
          </g>
        </g>
        <g
           id="line2d_16">
          <path
             d="m 66.6,69.248562 h 10 10"
             style="fill:none;stroke:#a3a3ff;stroke-width:1.5;stroke-linecap:square"
             id="path3020861" />
        </g>
        <g
           id="text_13">
          <!-- Proximal -->
          <g
             transform="matrix(0.1,0,0,-0.1,94.6,72.748562)"
             id="g3020880">
            <path
               id="use3020864"
               d="M 19.671875,64.796875 V 37.40625 h 12.40625 q 6.890625,0 10.640625,3.5625 3.765625,3.5625 3.765625,10.15625 0,6.546875 -3.765625,10.109375 -3.75,3.5625 -10.640625,3.5625 z M 9.8125,72.90625 h 22.265625 q 12.265625,0 18.53125,-5.546875 6.28125,-5.546875 6.28125,-16.234375 0,-10.796875 -6.28125,-16.3125 -6.265625,-5.515625 -18.53125,-5.515625 H 19.671875 V 0 H 9.8125 Z"
               style="stroke-width:0.015625" />
            <use
               xlink:href="#DejaVuSans-72"
               x="58.552734"
               id="use3020866" />
            <use
               xlink:href="#DejaVuSans-6f"
               x="97.416016"
               id="use3020868" />
            <path
               id="use3020870"
               d="M 210.36328,54.6875 190.58203,28.078125 211.37891,0 H 200.78516 L 184.86328,21.484375 168.95703,0 h -10.60937 l 21.25,28.609375 -19.4375,26.078125 h 10.59375 l 14.5,-19.484375 14.5,19.484375 z"
               style="stroke-width:0.015625" />
            <path
               id="use3020872"
               d="m 224.07422,54.6875 h 8.98437 V 0 h -8.98437 z m 0,21.296875 h 8.98437 V 64.59375 h -8.98437 z"
               style="stroke-width:0.015625" />
            <path
               id="use3020874"
               d="m 294.43555,44.1875 q 3.375,6.0625 8.0625,8.9375 4.6875,2.875 11.03125,2.875 8.54687,0 13.1875,-5.984375 4.64062,-5.96875 4.64062,-17 V 0 h -9.03125 v 32.71875 q 0,7.859375 -2.79687,11.65625 -2.78125,3.8125 -8.48438,3.8125 -6.98437,0 -11.04687,-4.640625 -4.04688,-4.625 -4.04688,-12.640625 V 0 h -9.03125 v 32.71875 q 0,7.90625 -2.78125,11.6875 -2.78125,3.78125 -8.59375,3.78125 -6.89062,0 -10.95312,-4.65625 -4.04688,-4.65625 -4.04688,-12.625 V 0 h -9.03125 v 54.6875 h 9.03125 v -8.5 q 3.07813,5.03125 7.375,7.421875 Q 272.2168,56 278.12305,56 q 5.96875,0 10.14062,-3.03125 4.17188,-3.015625 6.17188,-8.78125 z"
               style="stroke-width:0.015625" />
            <use
               xlink:href="#DejaVuSans-61"
               x="339.84766"
               id="use3020876" />
            <use
               xlink:href="#DejaVuSans-6c"
               x="401.12695"
               id="use3020878" />
          </g>
        </g>
      </g>
    </g>
  </g>
  <defs
     id="defs3020889">
    <clipPath
       id="p74c60b6337">
      <rect
         x="57.599998"
         y="41.472"
         width="357.12"
         height="266.112"
         id="rect3020886" />
    </clipPath>
  </defs>
</svg>
