<?xml version="1.0" encoding="UTF-8" standalone="no"?>
<svg
   width="397.28561pt"
   height="295.53934pt"
   viewBox="0 0 397.28562 295.53933"
   version="1.1"
   id="svg3013389"
   sodipodi:docname="secreted_timp3_molecules_per_cell_per_hour.svg"
   inkscape:version="1.2.1 (9c6d41e, 2022-07-14)"
   inkscape:export-filename="exported_pngs/secreted_timp3_molecules_per_cell_per_hour.png"
   inkscape:export-xdpi="96"
   inkscape:export-ydpi="96"
   xmlns:inkscape="http://www.inkscape.org/namespaces/inkscape"
   xmlns:sodipodi="http://sodipodi.sourceforge.net/DTD/sodipodi-0.dtd"
   xmlns:xlink="http://www.w3.org/1999/xlink"
   xmlns="http://www.w3.org/2000/svg"
   xmlns:svg="http://www.w3.org/2000/svg"
   xmlns:rdf="http://www.w3.org/1999/02/22-rdf-syntax-ns#"
   xmlns:cc="http://creativecommons.org/ns#"
   xmlns:dc="http://purl.org/dc/elements/1.1/">
  <sodipodi:namedview
     id="namedview3013391"
     pagecolor="#ffffff"
     bordercolor="#000000"
     borderopacity="0.25"
     inkscape:showpageshadow="2"
     inkscape:pageopacity="0.0"
     inkscape:pagecheckerboard="0"
     inkscape:deskcolor="#d1d1d1"
     inkscape:document-units="pt"
     showgrid="false"
     inkscape:zoom="0.86805554"
     inkscape:cx="183.744"
     inkscape:cy="382.46401"
     inkscape:window-width="1390"
     inkscape:window-height="950"
     inkscape:window-x="0"
     inkscape:window-y="25"
     inkscape:window-maximized="0"
     inkscape:current-layer="figure_1" />
  <metadata
     id="metadata3012818">
    <rdf:RDF>
      <cc:Work>
        <dc:type
           rdf:resource="http://purl.org/dc/dcmitype/StillImage" />
        <dc:date>2023-01-25T07:58:09.878723</dc:date>
        <dc:format>image/svg+xml</dc:format>
        <dc:creator>
          <cc:Agent>
            <dc:title>Matplotlib v3.5.3, https://matplotlib.org/</dc:title>
          </cc:Agent>
        </dc:creator>
      </cc:Work>
    </rdf:RDF>
  </metadata>
  <defs
     id="defs3012822">
    <rect
       x="177.408"
       y="115.2"
       width="127.872"
       height="34.560001"
       id="rect3015245" />
    <rect
       x="48.384003"
       y="18.431999"
       width="584.06403"
       height="41.472"
       id="rect3013411" />
    <style
       type="text/css"
       id="style3012820">*{stroke-linejoin: round; stroke-linecap: butt}</style>
    <rect
       x="177.408"
       y="115.2"
       width="127.872"
       height="34.560001"
       id="rect3015245-7" />
  </defs>
  <g
     id="figure_1"
     transform="translate(-17.834374,-26.785287)">
    <g
       id="axes_1">
      <g
         id="patch_2">
        <path
           d="M 57.6,307.584 H 414.72 V 41.472 H 57.6 Z"
           style="fill:#ffffff"
           id="path3012827" />
      </g>
      <g
         id="patch_3">
        <path
           d="m 69.504,256.35041 h 95.232 V 241.92758 H 69.504 Z"
           clip-path="url(#p446b3d3df0)"
           style="opacity:0.5;fill:#ffffff;stroke:#808080;stroke-width:1.5;stroke-linejoin:miter"
           id="path3012830" />
      </g>
      <g
         id="patch_4">
        <path
           d="m 188.544,245.16548 h 95.232 v -25.43986 h -95.232 z"
           clip-path="url(#p446b3d3df0)"
           style="opacity:0.5;fill:#ffffff;stroke:#808080;stroke-width:1.5;stroke-linejoin:miter"
           id="path3012833" />
      </g>
      <g
         id="patch_5">
        <path
           d="m 307.584,248.41773 h 95.232 v -75.19418 h -95.232 z"
           clip-path="url(#p446b3d3df0)"
           style="opacity:0.5;fill:#ffffff;stroke:#808080;stroke-width:1.5;stroke-linejoin:miter"
           id="path3012836" />
      </g>
      <g
         id="matplotlib.axis_1">
        <g
           id="xtick_1">
          <g
             id="line2d_1">
            <defs
               id="defs3012840">
              <path
                 id="m04b2c31a61"
                 d="M 0,0 V 3.5"
                 style="stroke:#000000;stroke-width:0.8" />
            </defs>
            <g
               id="g3012844">
              <use
                 xlink:href="#m04b2c31a61"
                 x="117.12"
                 y="307.58401"
                 style="stroke:#000000;stroke-width:0.8"
                 id="use3012842" />
            </g>
          </g>
          <g
             id="text_1">
            <!-- 6-hrs to 24-hrs -->
            <g
               transform="matrix(0.1,0,0,-0.1,80.112969,322.18244)"
               id="g3012889">
              <defs
                 id="defs3012857">
                <path
                   id="DejaVuSans-36"
                   d="m 2113,2584 q -425,0 -674,-291 -248,-290 -248,-796 0,-503 248,-796 249,-292 674,-292 425,0 673,292 248,293 248,796 0,506 -248,796 -248,291 -673,291 z m 1253,1979 v -575 q -238,112 -480,171 -242,60 -480,60 -625,0 -955,-422 -329,-422 -376,-1275 184,272 462,417 279,145 613,145 703,0 1111,-427 408,-426 408,-1160 0,-719 -425,-1154 -425,-434 -1131,-434 -810,0 -1238,620 -428,621 -428,1799 0,1106 525,1764 525,658 1409,658 238,0 480,-47 242,-47 505,-140 z"
                   transform="scale(0.015625)" />
                <path
                   id="DejaVuSans-2d"
                   d="M 313,2009 H 1997 V 1497 H 313 Z"
                   transform="scale(0.015625)" />
                <path
                   id="DejaVuSans-68"
                   d="M 3513,2113 V 0 h -575 v 2094 q 0,497 -194,743 -194,247 -581,247 -466,0 -735,-297 -269,-296 -269,-809 V 0 H 581 v 4863 h 578 V 2956 q 207,316 486,472 280,156 646,156 603,0 912,-373 310,-373 310,-1098 z"
                   transform="scale(0.015625)" />
                <path
                   id="DejaVuSans-72"
                   d="m 2631,2963 q -97,56 -211,82 -114,27 -251,27 -488,0 -749,-317 -261,-317 -261,-911 V 0 H 581 v 3500 h 578 v -544 q 182,319 472,473 291,155 707,155 59,0 131,-8 72,-7 159,-23 z"
                   transform="scale(0.015625)" />
                <path
                   id="DejaVuSans-73"
                   d="m 2834,3397 v -544 q -243,125 -506,187 -262,63 -544,63 -428,0 -642,-131 -214,-131 -214,-394 0,-200 153,-314 153,-114 616,-217 l 197,-44 q 612,-131 870,-370 258,-239 258,-667 0,-488 -386,-773 Q 2250,-91 1575,-91 1294,-91 989,-36 684,19 347,128 v 594 q 319,-166 628,-249 309,-82 613,-82 406,0 624,139 219,139 219,392 0,234 -158,359 -157,125 -692,241 l -200,47 q -534,112 -772,345 -237,233 -237,639 0,494 350,762 350,269 994,269 318,0 599,-47 282,-46 519,-140 z"
                   transform="scale(0.015625)" />
                <path
                   id="DejaVuSans-20"
                   transform="scale(0.015625)"
                   d="" />
                <path
                   id="DejaVuSans-74"
                   d="M 1172,4494 V 3500 H 2356 V 3053 H 1172 V 1153 q 0,-428 117,-550 117,-122 477,-122 h 590 V 0 H 1766 Q 1100,0 847,248 594,497 594,1153 V 3053 H 172 v 447 h 422 v 994 z"
                   transform="scale(0.015625)" />
                <path
                   id="DejaVuSans-6f"
                   d="m 1959,3097 q -462,0 -731,-361 -269,-361 -269,-989 0,-628 267,-989 268,-361 733,-361 460,0 728,362 269,363 269,988 0,622 -269,986 -268,364 -728,364 z m 0,487 q 750,0 1178,-488 429,-487 429,-1349 Q 3566,888 3137,398 2709,-91 1959,-91 1206,-91 779,398 353,888 353,1747 q 0,862 426,1349 427,488 1180,488 z"
                   transform="scale(0.015625)" />
                <path
                   id="DejaVuSans-32"
                   d="M 1228,531 H 3431 V 0 H 469 v 531 q 359,372 979,998 621,627 780,809 303,340 423,576 121,236 121,464 0,372 -261,606 -261,235 -680,235 -297,0 -627,-103 -329,-103 -704,-313 v 638 q 381,153 712,231 332,78 607,78 725,0 1156,-363 431,-362 431,-968 0,-288 -108,-546 -107,-257 -392,-607 -78,-91 -497,-524 Q 1991,1309 1228,531 Z"
                   transform="scale(0.015625)" />
                <path
                   id="DejaVuSans-34"
                   d="M 2419,4116 825,1625 h 1594 z m -166,550 h 794 V 1625 h 666 V 1100 H 3047 V 0 H 2419 V 1100 H 313 v 609 z"
                   transform="scale(0.015625)" />
              </defs>
              <use
                 xlink:href="#DejaVuSans-36"
                 id="use3012859" />
              <use
                 xlink:href="#DejaVuSans-2d"
                 x="63.623047"
                 id="use3012861" />
              <use
                 xlink:href="#DejaVuSans-68"
                 x="99.707031"
                 id="use3012863" />
              <use
                 xlink:href="#DejaVuSans-72"
                 x="163.08594"
                 id="use3012865" />
              <use
                 xlink:href="#DejaVuSans-73"
                 x="204.19922"
                 id="use3012867" />
              <use
                 xlink:href="#DejaVuSans-20"
                 x="256.29883"
                 id="use3012869" />
              <use
                 xlink:href="#DejaVuSans-74"
                 x="288.08594"
                 id="use3012871" />
              <use
                 xlink:href="#DejaVuSans-6f"
                 x="327.29492"
                 id="use3012873" />
              <use
                 xlink:href="#DejaVuSans-20"
                 x="388.47656"
                 id="use3012875" />
              <use
                 xlink:href="#DejaVuSans-32"
                 x="420.26367"
                 id="use3012877" />
              <use
                 xlink:href="#DejaVuSans-34"
                 x="483.88672"
                 id="use3012879" />
              <use
                 xlink:href="#DejaVuSans-2d"
                 x="547.50977"
                 id="use3012881" />
              <use
                 xlink:href="#DejaVuSans-68"
                 x="583.59375"
                 id="use3012883" />
              <use
                 xlink:href="#DejaVuSans-72"
                 x="646.97266"
                 id="use3012885" />
              <use
                 xlink:href="#DejaVuSans-73"
                 x="688.08594"
                 id="use3012887" />
            </g>
          </g>
        </g>
        <g
           id="xtick_2">
          <g
             id="line2d_2">
            <g
               id="g3012895">
              <use
                 xlink:href="#m04b2c31a61"
                 x="236.16"
                 y="307.58401"
                 style="stroke:#000000;stroke-width:0.8"
                 id="use3012893" />
            </g>
          </g>
          <g
             id="text_2">
            <!-- 24-hrs to 48-hrs -->
            <g
               transform="matrix(0.1,0,0,-0.1,195.97172,322.18244)"
               id="g3012933">
              <defs
                 id="defs3012899">
                <path
                   id="DejaVuSans-38"
                   d="m 2034,2216 q -450,0 -708,-241 -257,-241 -257,-662 0,-422 257,-663 258,-241 708,-241 450,0 709,242 260,243 260,662 0,421 -258,662 -257,241 -711,241 z m -631,268 q -406,100 -633,378 -226,279 -226,679 0,559 398,884 399,325 1092,325 697,0 1094,-325 397,-325 397,-884 0,-400 -227,-679 -226,-278 -629,-378 456,-106 710,-416 255,-309 255,-755 Q 3634,634 3220,271 2806,-91 2034,-91 1263,-91 848,271 434,634 434,1313 q 0,446 256,755 257,310 713,416 z m -231,997 q 0,-362 226,-565 227,-203 636,-203 407,0 636,203 230,203 230,565 0,363 -230,566 -229,203 -636,203 -409,0 -636,-203 -226,-203 -226,-566 z"
                   transform="scale(0.015625)" />
              </defs>
              <use
                 xlink:href="#DejaVuSans-32"
                 id="use3012901" />
              <use
                 xlink:href="#DejaVuSans-34"
                 x="63.623047"
                 id="use3012903" />
              <use
                 xlink:href="#DejaVuSans-2d"
                 x="127.24609"
                 id="use3012905" />
              <use
                 xlink:href="#DejaVuSans-68"
                 x="163.33008"
                 id="use3012907" />
              <use
                 xlink:href="#DejaVuSans-72"
                 x="226.70898"
                 id="use3012909" />
              <use
                 xlink:href="#DejaVuSans-73"
                 x="267.82227"
                 id="use3012911" />
              <use
                 xlink:href="#DejaVuSans-20"
                 x="319.92188"
                 id="use3012913" />
              <use
                 xlink:href="#DejaVuSans-74"
                 x="351.70898"
                 id="use3012915" />
              <use
                 xlink:href="#DejaVuSans-6f"
                 x="390.91797"
                 id="use3012917" />
              <use
                 xlink:href="#DejaVuSans-20"
                 x="452.09961"
                 id="use3012919" />
              <use
                 xlink:href="#DejaVuSans-34"
                 x="483.88672"
                 id="use3012921" />
              <use
                 xlink:href="#DejaVuSans-38"
                 x="547.50977"
                 id="use3012923" />
              <use
                 xlink:href="#DejaVuSans-2d"
                 x="611.13281"
                 id="use3012925" />
              <use
                 xlink:href="#DejaVuSans-68"
                 x="647.2168"
                 id="use3012927" />
              <use
                 xlink:href="#DejaVuSans-72"
                 x="710.5957"
                 id="use3012929" />
              <use
                 xlink:href="#DejaVuSans-73"
                 x="751.70898"
                 id="use3012931" />
            </g>
          </g>
        </g>
        <g
           id="xtick_3">
          <g
             id="line2d_3">
            <g
               id="g3012939">
              <use
                 xlink:href="#m04b2c31a61"
                 x="355.20001"
                 y="307.58401"
                 style="stroke:#000000;stroke-width:0.8"
                 id="use3012937" />
            </g>
          </g>
          <g
             id="text_3">
            <!-- 48-hrs to 72-hrs -->
            <g
               transform="matrix(0.1,0,0,-0.1,315.01172,322.18244)"
               id="g3012977">
              <defs
                 id="defs3012943">
                <path
                   id="DejaVuSans-37"
                   d="M 525,4666 H 3525 V 4397 L 1831,0 H 1172 L 2766,4134 H 525 Z"
                   transform="scale(0.015625)" />
              </defs>
              <use
                 xlink:href="#DejaVuSans-34"
                 id="use3012945" />
              <use
                 xlink:href="#DejaVuSans-38"
                 x="63.623047"
                 id="use3012947" />
              <use
                 xlink:href="#DejaVuSans-2d"
                 x="127.24609"
                 id="use3012949" />
              <use
                 xlink:href="#DejaVuSans-68"
                 x="163.33008"
                 id="use3012951" />
              <use
                 xlink:href="#DejaVuSans-72"
                 x="226.70898"
                 id="use3012953" />
              <use
                 xlink:href="#DejaVuSans-73"
                 x="267.82227"
                 id="use3012955" />
              <use
                 xlink:href="#DejaVuSans-20"
                 x="319.92188"
                 id="use3012957" />
              <use
                 xlink:href="#DejaVuSans-74"
                 x="351.70898"
                 id="use3012959" />
              <use
                 xlink:href="#DejaVuSans-6f"
                 x="390.91797"
                 id="use3012961" />
              <use
                 xlink:href="#DejaVuSans-20"
                 x="452.09961"
                 id="use3012963" />
              <use
                 xlink:href="#DejaVuSans-37"
                 x="483.88672"
                 id="use3012965" />
              <use
                 xlink:href="#DejaVuSans-32"
                 x="547.50977"
                 id="use3012967" />
              <use
                 xlink:href="#DejaVuSans-2d"
                 x="611.13281"
                 id="use3012969" />
              <use
                 xlink:href="#DejaVuSans-68"
                 x="647.2168"
                 id="use3012971" />
              <use
                 xlink:href="#DejaVuSans-72"
                 x="710.5957"
                 id="use3012973" />
              <use
                 xlink:href="#DejaVuSans-73"
                 x="751.70898"
                 id="use3012975" />
            </g>
          </g>
        </g>
      </g>
      <g
         id="matplotlib.axis_2">
        <g
           id="ytick_1">
          <g
             id="line2d_4">
            <defs
               id="defs3012983">
              <path
                 id="mff8336f718"
                 d="M 0,0 H -3.5"
                 style="stroke:#000000;stroke-width:0.8" />
            </defs>
            <g
               id="g3012987">
              <use
                 xlink:href="#mff8336f718"
                 x="57.599998"
                 y="254.13634"
                 style="stroke:#000000;stroke-width:0.8"
                 id="use3012985" />
            </g>
          </g>
          <g
             id="text_4">
            <!-- 300 -->
            <g
               transform="matrix(0.1,0,0,-0.1,31.5125,257.93556)"
               id="g3013000">
              <defs
                 id="defs3012992">
                <path
                   id="DejaVuSans-33"
                   d="m 2597,2516 q 453,-97 707,-404 255,-306 255,-756 0,-690 -475,-1069 -475,-378 -1350,-378 -293,0 -604,58 -311,58 -642,174 v 609 q 262,-153 574,-231 313,-78 654,-78 593,0 904,234 311,234 311,681 0,413 -289,645 -289,233 -804,233 h -544 v 519 h 569 q 465,0 712,186 247,186 247,536 0,359 -255,551 -254,193 -729,193 -260,0 -557,-57 -297,-56 -653,-174 v 562 q 360,100 674,150 314,50 592,50 719,0 1137,-327 419,-326 419,-882 0,-388 -222,-655 -222,-267 -631,-370 z"
                   transform="scale(0.015625)" />
                <path
                   id="DejaVuSans-30"
                   d="m 2034,4250 q -487,0 -733,-480 -245,-479 -245,-1442 0,-959 245,-1439 246,-480 733,-480 491,0 736,480 246,480 246,1439 0,963 -246,1442 -245,480 -736,480 z m 0,500 q 785,0 1199,-621 414,-620 414,-1801 0,-1178 -414,-1799 -414,-620 -1199,-620 -784,0 -1198,620 -414,621 -414,1799 0,1181 414,1801 414,621 1198,621 z"
                   transform="scale(0.015625)" />
              </defs>
              <use
                 xlink:href="#DejaVuSans-33"
                 id="use3012994" />
              <use
                 xlink:href="#DejaVuSans-30"
                 x="63.623047"
                 id="use3012996" />
              <use
                 xlink:href="#DejaVuSans-30"
                 x="127.24609"
                 id="use3012998" />
            </g>
          </g>
        </g>
        <g
           id="ytick_2">
          <g
             id="line2d_5">
            <g
               id="g3013006">
              <use
                 xlink:href="#mff8336f718"
                 x="57.599998"
                 y="199.88905"
                 style="stroke:#000000;stroke-width:0.8"
                 id="use3013004" />
            </g>
          </g>
          <g
             id="text_5">
            <!-- 400 -->
            <g
               transform="matrix(0.1,0,0,-0.1,31.5125,203.68828)"
               id="g3013015">
              <use
                 xlink:href="#DejaVuSans-34"
                 id="use3013009" />
              <use
                 xlink:href="#DejaVuSans-30"
                 x="63.623047"
                 id="use3013011" />
              <use
                 xlink:href="#DejaVuSans-30"
                 x="127.24609"
                 id="use3013013" />
            </g>
          </g>
        </g>
        <g
           id="ytick_3">
          <g
             id="line2d_6">
            <g
               id="g3013021">
              <use
                 xlink:href="#mff8336f718"
                 x="57.599998"
                 y="145.64177"
                 style="stroke:#000000;stroke-width:0.8"
                 id="use3013019" />
            </g>
          </g>
          <g
             id="text_6">
            <!-- 500 -->
            <g
               transform="matrix(0.1,0,0,-0.1,31.5125,149.44099)"
               id="g3013033">
              <defs
                 id="defs3013025">
                <path
                   id="DejaVuSans-35"
                   d="M 691,4666 H 3169 V 4134 H 1269 V 2991 q 137,47 274,70 138,23 276,23 781,0 1237,-428 457,-428 457,-1159 Q 3513,744 3044,326 2575,-91 1722,-91 1428,-91 1123,-41 819,9 494,109 v 635 q 281,-153 581,-228 300,-75 634,-75 541,0 856,284 316,284 316,772 0,487 -316,771 -315,285 -856,285 -253,0 -505,-56 -251,-56 -513,-175 z"
                   transform="scale(0.015625)" />
              </defs>
              <use
                 xlink:href="#DejaVuSans-35"
                 id="use3013027" />
              <use
                 xlink:href="#DejaVuSans-30"
                 x="63.623047"
                 id="use3013029" />
              <use
                 xlink:href="#DejaVuSans-30"
                 x="127.24609"
                 id="use3013031" />
            </g>
          </g>
        </g>
        <g
           id="ytick_4">
          <g
             id="line2d_7">
            <g
               id="g3013039">
              <use
                 xlink:href="#mff8336f718"
                 x="57.599998"
                 y="91.394493"
                 style="stroke:#000000;stroke-width:0.8"
                 id="use3013037" />
            </g>
          </g>
          <g
             id="text_7">
            <!-- 600 -->
            <g
               transform="matrix(0.1,0,0,-0.1,31.5125,95.193715)"
               id="g3013048">
              <use
                 xlink:href="#DejaVuSans-36"
                 id="use3013042" />
              <use
                 xlink:href="#DejaVuSans-30"
                 x="63.623047"
                 id="use3013044" />
              <use
                 xlink:href="#DejaVuSans-30"
                 x="127.24609"
                 id="use3013046" />
            </g>
          </g>
        </g>
        <g
           id="text_8">
          <!-- Secreted Timp3 molecules per cell per hour -->
          <g
             transform="matrix(0,-0.1,-0.1,0,25.432812,283.85769)"
             id="g3013148">
            <defs
               id="defs3013062">
              <path
                 id="DejaVuSans-53"
                 d="m 3425,4513 v -616 q -359,172 -678,256 -319,85 -616,85 -515,0 -795,-200 -280,-200 -280,-569 0,-310 186,-468 186,-157 705,-254 l 381,-78 q 706,-135 1042,-474 336,-339 336,-907 0,-679 -455,-1029 -454,-350 -1332,-350 -331,0 -705,75 -373,75 -773,222 v 650 q 384,-215 753,-325 369,-109 725,-109 540,0 834,212 294,213 294,607 0,343 -211,537 -211,194 -692,291 l -385,75 q -706,140 -1022,440 -315,300 -315,835 0,619 436,975 436,356 1201,356 329,0 669,-60 341,-59 697,-177 z"
                 transform="scale(0.015625)" />
              <path
                 id="DejaVuSans-65"
                 d="M 3597,1894 V 1613 H 953 q 38,-594 358,-905 320,-311 892,-311 331,0 642,81 311,81 618,244 V 178 Q 3153,47 2828,-22 2503,-91 2169,-91 1331,-91 842,396 353,884 353,1716 q 0,859 464,1363 464,505 1252,505 706,0 1117,-455 411,-454 411,-1235 z m -575,169 q -6,471 -264,752 -258,282 -683,282 -481,0 -770,-272 -289,-272 -333,-766 z"
                 transform="scale(0.015625)" />
              <path
                 id="DejaVuSans-63"
                 d="m 3122,3366 v -538 q -244,135 -489,202 -245,67 -495,67 -560,0 -870,-355 -309,-354 -309,-995 0,-641 309,-996 310,-354 870,-354 250,0 495,67 245,67 489,202 V 134 Q 2881,22 2623,-34 2366,-91 2075,-91 1284,-91 818,406 353,903 353,1747 q 0,856 470,1346 471,491 1290,491 265,0 518,-55 253,-54 491,-163 z"
                 transform="scale(0.015625)" />
              <path
                 id="DejaVuSans-64"
                 d="m 2906,2969 v 1894 h 575 V 0 H 2906 V 525 Q 2725,213 2448,61 2172,-91 1784,-91 1150,-91 751,415 353,922 353,1747 q 0,825 398,1331 399,506 1033,506 388,0 664,-152 277,-151 458,-463 z M 947,1747 q 0,-634 261,-995 261,-361 717,-361 456,0 718,361 263,361 263,995 0,634 -263,995 -262,361 -718,361 -456,0 -717,-361 -261,-361 -261,-995 z"
                 transform="scale(0.015625)" />
              <path
                 id="DejaVuSans-54"
                 d="M -19,4666 H 3928 V 4134 H 2272 V 0 H 1638 V 4134 H -19 Z"
                 transform="scale(0.015625)" />
              <path
                 id="DejaVuSans-69"
                 d="m 603,3500 h 575 V 0 H 603 Z m 0,1363 h 575 V 4134 H 603 Z"
                 transform="scale(0.015625)" />
              <path
                 id="DejaVuSans-6d"
                 d="m 3328,2828 q 216,388 516,572 300,184 706,184 547,0 844,-383 297,-382 297,-1088 V 0 h -578 v 2094 q 0,503 -179,746 -178,244 -543,244 -447,0 -707,-297 -259,-296 -259,-809 V 0 h -578 v 2094 q 0,506 -178,748 -178,242 -550,242 -441,0 -701,-298 -259,-298 -259,-808 V 0 H 581 v 3500 h 578 v -544 q 197,322 472,475 275,153 653,153 382,0 649,-194 267,-193 395,-562 z"
                 transform="scale(0.015625)" />
              <path
                 id="DejaVuSans-70"
                 d="M 1159,525 V -1331 H 581 v 4831 h 578 v -531 q 182,312 458,463 277,152 661,152 638,0 1036,-506 399,-506 399,-1331 0,-825 -399,-1332 -398,-506 -1036,-506 -384,0 -661,152 -276,152 -458,464 z m 1957,1222 q 0,634 -261,995 -261,361 -717,361 -457,0 -718,-361 -261,-361 -261,-995 0,-634 261,-995 261,-361 718,-361 456,0 717,361 261,361 261,995 z"
                 transform="scale(0.015625)" />
              <path
                 id="DejaVuSans-6c"
                 d="m 603,4863 h 575 V 0 H 603 Z"
                 transform="scale(0.015625)" />
              <path
                 id="DejaVuSans-75"
                 d="m 544,1381 v 2119 h 575 V 1403 q 0,-497 193,-746 194,-248 582,-248 465,0 735,297 271,297 271,810 v 1984 h 575 V 0 H 2900 V 538 Q 2691,219 2414,64 2138,-91 1772,-91 1169,-91 856,284 544,659 544,1381 Z m 1447,2203 z"
                 transform="scale(0.015625)" />
            </defs>
            <use
               xlink:href="#DejaVuSans-53"
               id="use3013064" />
            <use
               xlink:href="#DejaVuSans-65"
               x="63.476562"
               id="use3013066" />
            <use
               xlink:href="#DejaVuSans-63"
               x="125"
               id="use3013068" />
            <use
               xlink:href="#DejaVuSans-72"
               x="179.98047"
               id="use3013070" />
            <use
               xlink:href="#DejaVuSans-65"
               x="218.84375"
               id="use3013072" />
            <use
               xlink:href="#DejaVuSans-74"
               x="280.36719"
               id="use3013074" />
            <use
               xlink:href="#DejaVuSans-65"
               x="319.57617"
               id="use3013076" />
            <use
               xlink:href="#DejaVuSans-64"
               x="381.09961"
               id="use3013078" />
            <use
               xlink:href="#DejaVuSans-20"
               x="444.57617"
               id="use3013080" />
            <use
               xlink:href="#DejaVuSans-54"
               x="476.36328"
               id="use3013082" />
            <use
               xlink:href="#DejaVuSans-69"
               x="534.32227"
               id="use3013084" />
            <use
               xlink:href="#DejaVuSans-6d"
               x="562.10547"
               id="use3013086" />
            <use
               xlink:href="#DejaVuSans-70"
               x="659.51758"
               id="use3013088" />
            <use
               xlink:href="#DejaVuSans-33"
               x="722.99414"
               id="use3013090" />
            <use
               xlink:href="#DejaVuSans-20"
               x="786.61719"
               id="use3013092" />
            <use
               xlink:href="#DejaVuSans-6d"
               x="818.4043"
               id="use3013094" />
            <use
               xlink:href="#DejaVuSans-6f"
               x="915.81641"
               id="use3013096" />
            <use
               xlink:href="#DejaVuSans-6c"
               x="976.99805"
               id="use3013098" />
            <use
               xlink:href="#DejaVuSans-65"
               x="1004.7812"
               id="use3013100" />
            <use
               xlink:href="#DejaVuSans-63"
               x="1066.3047"
               id="use3013102" />
            <use
               xlink:href="#DejaVuSans-75"
               x="1121.2852"
               id="use3013104" />
            <use
               xlink:href="#DejaVuSans-6c"
               x="1184.6641"
               id="use3013106" />
            <use
               xlink:href="#DejaVuSans-65"
               x="1212.4473"
               id="use3013108" />
            <use
               xlink:href="#DejaVuSans-73"
               x="1273.9707"
               id="use3013110" />
            <use
               xlink:href="#DejaVuSans-20"
               x="1326.0703"
               id="use3013112" />
            <use
               xlink:href="#DejaVuSans-70"
               x="1357.8574"
               id="use3013114" />
            <use
               xlink:href="#DejaVuSans-65"
               x="1421.334"
               id="use3013116" />
            <use
               xlink:href="#DejaVuSans-72"
               x="1482.8574"
               id="use3013118" />
            <use
               xlink:href="#DejaVuSans-20"
               x="1523.9707"
               id="use3013120" />
            <use
               xlink:href="#DejaVuSans-63"
               x="1555.7578"
               id="use3013122" />
            <use
               xlink:href="#DejaVuSans-65"
               x="1610.7383"
               id="use3013124" />
            <use
               xlink:href="#DejaVuSans-6c"
               x="1672.2617"
               id="use3013126" />
            <use
               xlink:href="#DejaVuSans-6c"
               x="1700.0449"
               id="use3013128" />
            <use
               xlink:href="#DejaVuSans-20"
               x="1727.8281"
               id="use3013130" />
            <use
               xlink:href="#DejaVuSans-70"
               x="1759.6152"
               id="use3013132" />
            <use
               xlink:href="#DejaVuSans-65"
               x="1823.0918"
               id="use3013134" />
            <use
               xlink:href="#DejaVuSans-72"
               x="1884.6152"
               id="use3013136" />
            <use
               xlink:href="#DejaVuSans-20"
               x="1925.7285"
               id="use3013138" />
            <use
               xlink:href="#DejaVuSans-68"
               x="1957.5156"
               id="use3013140" />
            <use
               xlink:href="#DejaVuSans-6f"
               x="2020.8945"
               id="use3013142" />
            <use
               xlink:href="#DejaVuSans-75"
               x="2082.0762"
               id="use3013144" />
            <use
               xlink:href="#DejaVuSans-72"
               x="2145.4551"
               id="use3013146" />
          </g>
        </g>
      </g>
      <g
         id="line2d_8">
        <path
           d="m 117.12,256.35041 v 9.94653"
           clip-path="url(#p446b3d3df0)"
           style="fill:none;stroke:#000000;stroke-width:1.5;stroke-linecap:square;stroke-opacity:0"
           id="path3013152" />
      </g>
      <g
         id="line2d_9">
        <path
           d="m 117.12,241.92758 v -8.13239"
           clip-path="url(#p446b3d3df0)"
           style="fill:none;stroke:#000000;stroke-width:1.5;stroke-linecap:square;stroke-opacity:0"
           id="path3013155" />
      </g>
      <g
         id="line2d_10">
        <path
           d="m 93.312,266.29694 h 47.616"
           clip-path="url(#p446b3d3df0)"
           style="fill:none;stroke:#000000;stroke-width:1.5;stroke-linecap:square;stroke-opacity:0"
           id="path3013158" />
      </g>
      <g
         id="line2d_11">
        <path
           d="m 93.312,233.79519 h 47.616"
           clip-path="url(#p446b3d3df0)"
           style="fill:none;stroke:#000000;stroke-width:1.5;stroke-linecap:square;stroke-opacity:0"
           id="path3013161" />
      </g>
      <g
         id="line2d_12" />
      <g
         id="line2d_13">
        <path
           d="m 236.16,245.16548 v 13.40127"
           clip-path="url(#p446b3d3df0)"
           style="fill:none;stroke:#000000;stroke-width:1.5;stroke-linecap:square;stroke-opacity:0"
           id="path3013165" />
      </g>
      <g
         id="line2d_14">
        <path
           d="m 236.16,219.72562 v 0"
           clip-path="url(#p446b3d3df0)"
           style="fill:none;stroke:#000000;stroke-width:1.5;stroke-linecap:square;stroke-opacity:0"
           id="path3013168" />
      </g>
      <g
         id="line2d_15">
        <path
           d="m 212.352,258.56675 h 47.616"
           clip-path="url(#p446b3d3df0)"
           style="fill:none;stroke:#000000;stroke-width:1.5;stroke-linecap:square;stroke-opacity:0"
           id="path3013171" />
      </g>
      <g
         id="line2d_16">
        <path
           d="m 212.352,219.72562 h 47.616"
           clip-path="url(#p446b3d3df0)"
           style="fill:none;stroke:#000000;stroke-width:1.5;stroke-linecap:square;stroke-opacity:0"
           id="path3013174" />
      </g>
      <g
         id="line2d_17" />
      <g
         id="line2d_18">
        <path
           d="M 355.2,248.41773 V 295.488"
           clip-path="url(#p446b3d3df0)"
           style="fill:none;stroke:#000000;stroke-width:1.5;stroke-linecap:square;stroke-opacity:0"
           id="path3013178" />
      </g>
      <g
         id="line2d_19">
        <path
           d="m 355.2,173.22355 v 0"
           clip-path="url(#p446b3d3df0)"
           style="fill:none;stroke:#000000;stroke-width:1.5;stroke-linecap:square;stroke-opacity:0"
           id="path3013181" />
      </g>
      <g
         id="line2d_20">
        <path
           d="m 331.392,295.488 h 47.616"
           clip-path="url(#p446b3d3df0)"
           style="fill:none;stroke:#000000;stroke-width:1.5;stroke-linecap:square;stroke-opacity:0"
           id="path3013184" />
      </g>
      <g
         id="line2d_21">
        <path
           d="m 331.392,173.22355 h 47.616"
           clip-path="url(#p446b3d3df0)"
           style="fill:none;stroke:#000000;stroke-width:1.5;stroke-linecap:square;stroke-opacity:0"
           id="path3013187" />
      </g>
      <g
         id="line2d_22" />
      <g
         id="line2d_23">
        <path
           d="m 69.504,248.83663 h 95.232"
           clip-path="url(#p446b3d3df0)"
           style="fill:none;stroke:#808080;stroke-width:1.5;stroke-linecap:square;stroke-opacity:0.5"
           id="path3013191" />
      </g>
      <g
         id="line2d_24">
        <path
           d="m 188.544,238.10056 h 95.232"
           clip-path="url(#p446b3d3df0)"
           style="fill:none;stroke:#808080;stroke-width:1.5;stroke-linecap:square;stroke-opacity:0.5"
           id="path3013194" />
      </g>
      <g
         id="line2d_25">
        <path
           d="m 307.584,222.91818 h 95.232"
           clip-path="url(#p446b3d3df0)"
           style="fill:none;stroke:#808080;stroke-width:1.5;stroke-linecap:square;stroke-opacity:0.5"
           id="path3013197" />
      </g>
      <g
         id="patch_6">
        <path
           d="M 57.6,307.584 V 41.472"
           style="fill:none;stroke:#000000;stroke-width:0.8;stroke-linecap:square;stroke-linejoin:miter"
           id="path3013200" />
      </g>
      <g
         id="patch_7">
        <path
           d="M 414.72,307.584 V 41.472"
           style="fill:none;stroke:#000000;stroke-width:0.8;stroke-linecap:square;stroke-linejoin:miter"
           id="path3013203" />
      </g>
      <g
         id="patch_8">
        <path
           d="M 57.6,307.584 H 414.72"
           style="fill:none;stroke:#000000;stroke-width:0.8;stroke-linecap:square;stroke-linejoin:miter"
           id="path3013206" />
      </g>
      <g
         id="patch_9">
        <path
           d="M 57.6,41.472 H 414.72"
           style="fill:none;stroke:#000000;stroke-width:0.8;stroke-linecap:square;stroke-linejoin:miter"
           id="path3013209" />
      </g>
      <g
         id="PathCollection_1">
        <defs
           id="defs3013213">
          <path
             id="m189b508676"
             d="M 0,2.5 C 0.663008,2.5 1.29895,2.236584 1.767767,1.767767 2.236584,1.29895 2.5,0.663008 2.5,0 2.5,-0.663008 2.236584,-1.29895 1.767767,-1.767767 1.29895,-2.236584 0.663008,-2.5 0,-2.5 c -0.663008,0 -1.29895,0.263416 -1.767767,0.732233 C -2.236584,-1.29895 -2.5,-0.663008 -2.5,0 c 0,0.663008 0.263416,1.29895 0.732233,1.767767 C -1.29895,2.236584 -0.663008,2.5 0,2.5 Z" />
        </defs>
        <g
           clip-path="url(#p446b3d3df0)"
           id="g3013223">
          <use
             xlink:href="#m189b508676"
             x="125.60915"
             y="266.29694"
             id="use3013215" />
          <use
             xlink:href="#m189b508676"
             x="120.97676"
             y="244.63838"
             id="use3013217" />
          <use
             xlink:href="#m189b508676"
             x="127.61066"
             y="233.7952"
             id="use3013219" />
          <use
             xlink:href="#m189b508676"
             x="113.64015"
             y="253.0349"
             id="use3013221" />
        </g>
      </g>
      <g
         id="PathCollection_2">
        <g
           clip-path="url(#p446b3d3df0)"
           id="g3013234">
          <use
             xlink:href="#m189b508676"
             x="242.69823"
             y="235.50272"
             id="use3013226" />
          <use
             xlink:href="#m189b508676"
             x="240.31049"
             y="240.69839"
             id="use3013228" />
          <use
             xlink:href="#m189b508676"
             x="226.81102"
             y="172.39433"
             id="use3013230" />
          <use
             xlink:href="#m189b508676"
             x="231.89325"
             y="258.56674"
             id="use3013232" />
        </g>
      </g>
      <g
         id="PathCollection_3">
        <g
           clip-path="url(#p446b3d3df0)"
           id="g3013245">
          <use
             xlink:href="#m189b508676"
             x="344.04242"
             y="213.10873"
             id="use3013237" />
          <use
             xlink:href="#m189b508676"
             x="350.47235"
             y="295.48801"
             id="use3013239" />
          <use
             xlink:href="#m189b508676"
             x="366.88239"
             y="53.568001"
             id="use3013241" />
          <use
             xlink:href="#m189b508676"
             x="357.2652"
             y="232.72763"
             id="use3013243" />
        </g>
      </g>
      <text
         xml:space="preserve"
         transform="matrix(0.97817921,0,0,0.97817921,39.007429,6.604163)"
         id="text3013409"
         style="font-family:monospace;-inkscape-font-specification:monospace;white-space:pre;shape-inside:url(#rect3013411);display:inline;fill:#000000;fill-opacity:1;stroke:#0c0c78;stroke-width:0.5"><tspan
           x="48.384766"
           y="29.256316"
           id="tspan3018902"><tspan
             style="font-family:Arial;-inkscape-font-specification:Arial;stroke:none"
             id="tspan3018900">Timp3 protein secretion rate is consistent across timepoints
</tspan></tspan></text>
    </g>
    <path
       style="fill:none;fill-opacity:1;stroke:#000000;stroke-width:0.375;stroke-opacity:1"
       d="m 122.688,213.408 v -95.04 h 114.91201 v 38.016"
       id="path3014051" />
    <path
       style="fill:none;fill-opacity:1;stroke:#000000;stroke-width:0.375;stroke-opacity:1"
       d="M 237.65576,131.35216 V 87.364455 H 358.56001 V 154.656"
       id="path3015241" />
    <text
       xml:space="preserve"
       transform="matrix(0.75,0,0,0.75,36.288001,20.736)"
       id="text3015243"
       style="font-style:normal;font-variant:normal;font-weight:normal;font-stretch:normal;font-family:Arial;-inkscape-font-specification:Arial;white-space:pre;shape-inside:url(#rect3015245);display:inline;fill:#000000;fill-opacity:1;stroke:none;stroke-width:0.5;stroke-opacity:1"><tspan
         x="177.4082"
         y="126.00827"
         id="tspan3018904">n.s.</tspan></text>
    <text
       xml:space="preserve"
       transform="matrix(0.75,0,0,0.75,169.09716,-9.456706)"
       id="text3015243-8"
       style="font-style:normal;font-variant:normal;font-weight:normal;font-stretch:normal;font-family:Arial;-inkscape-font-specification:Arial;white-space:pre;shape-inside:url(#rect3015245-7);display:inline;fill:#000000;fill-opacity:1;stroke:none;stroke-width:0.5;stroke-linecap:butt;stroke-linejoin:round;stroke-opacity:1"><tspan
         x="177.4082"
         y="126.00827"
         id="tspan3018906">n.s.</tspan></text>
  </g>
  <defs
     id="defs3013387">
    <clipPath
       id="p446b3d3df0">
      <rect
         x="57.599998"
         y="41.472"
         width="357.12"
         height="266.112"
         id="rect3013384" />
    </clipPath>
  </defs>
</svg>
